<svg xmlns="http://www.w3.org/2000/svg" width="16" height="16" version="1.1">
 <defs>
   <style id="current-color-scheme" type="text/css">
   .ColorScheme-Text { color: #939597; } .ColorScheme-Highlight { color: #1AD6AB; }
  </style>
  <linearGradient id="arrongin" x1="0%" x2="0%" y1="0%" y2="100%">
   <stop offset="0%"    stop-color= "#dd9b44" stop-opacity="1"/>
   <stop offset="100%"  stop-color= "#ad6c16" stop-opacity="1"/>
  </linearGradient>
  <linearGradient id="aurora" x1="0%" x2="0%" y1="0%" y2="100%">
   <stop offset="0%"    stop-color= "#09D4DF" stop-opacity="1"/>
   <stop offset="100%"  stop-color= "#9269F4" stop-opacity="1"/>
  </linearGradient>
  <linearGradient id="cyberneon" x1="0%" x2="0%" y1="0%" y2="100%">
    <stop offset="0"    stop-color= "#0abdc6" stop-opacity="1"/>
    <stop offset="1"    stop-color= "#ea00d9" stop-opacity="1"/>
  </linearGradient>
  <linearGradient id="fitdance" x1="0%" x2="0%" y1="0%" y2="100%">
   <stop offset="0%"    stop-color= "#1AD6AB" stop-opacity="1"/>
   <stop offset="100%"  stop-color= "#329DB6" stop-opacity="1"/>
  </linearGradient>
  <linearGradient id="oomox" x1="0%" x2="0%" y1="0%" y2="100%">
   <stop offset="0%"    stop-color= "#f27979" stop-opacity="1"/>
   <stop offset="100%"  stop-color= "#9e2121" stop-opacity="1"/>
  </linearGradient>
  <linearGradient id="rainblue" x1="0%" x2="0%" y1="0%" y2="100%">
   <stop offset="0%"    stop-color= "#00F260" stop-opacity="1"/>
   <stop offset="100%"  stop-color= "#0575E6" stop-opacity="1"/>
  </linearGradient>
  <linearGradient id="sunrise" x1="0%" x2="0%" y1="0%" y2="100%">
   <stop offset="0%"    stop-color= "#FF8501" stop-opacity="1"/>
   <stop offset="100%"  stop-color= "#FFCB01" stop-opacity="1"/>
  </linearGradient>
  <linearGradient id="telinkrin" x1="0%" x2="0%" y1="0%" y2="100%">
   <stop offset="0%"    stop-color= "#b2ced6" stop-opacity="1"/>
   <stop offset="100%"  stop-color= "#6da5b7" stop-opacity="1"/>
  </linearGradient>
  <linearGradient id="60spsycho" x1="0%" x2="0%" y1="0%" y2="100%">
   <stop offset="0%"    stop-color= "#df5940" stop-opacity="1"/>
   <stop offset="25%"   stop-color= "#d8d15f" stop-opacity="1"/>
   <stop offset="50%"   stop-color= "#e9882a" stop-opacity="1"/>
   <stop offset="100%"  stop-color= "#279362" stop-opacity="1"/>
  </linearGradient>
  <linearGradient id="90ssummer" x1="0%" x2="0%" y1="0%" y2="100%">
   <stop offset="0%"    stop-color= "#f618c7" stop-opacity="1"/>
   <stop offset="20%"   stop-color= "#94ffab" stop-opacity="1"/>
   <stop offset="50%"   stop-color= "#fbfd54" stop-opacity="1"/>
   <stop offset="100%"  stop-color= "#0f83ae" stop-opacity="1"/>
  </linearGradient>
 </defs>
 <path fill="url(#oomox)" class="ColorScheme-Text" d="M 3 1 C 1.892 1 1 1.892 1 3 L 1 13 C 1 14.108 1.892 15 3 15 L 13 15 C 14.108 15 15 14.108 15 13 L 15 3 C 15 1.892 14.108 1 13 1 L 3 1 z M 6 3 L 12 3 L 12 5 L 6 5 L 6 7 L 10 7 L 10 9 L 6 9 L 6 11 L 12 11 L 12 13 L 6 13 C 6 13 4 13 4 11 L 4 5 C 4 3 6 3 6 3 z"/>
</svg>
