<svg xmlns="http://www.w3.org/2000/svg" width="16" height="16" version="1.1">
 <defs>
   <style id="current-color-scheme" type="text/css">
   .ColorScheme-Text { color: #939597; } .ColorScheme-Highlight { color: #1AD6AB; }
  </style>
  <linearGradient id="arrongin" x1="0%" x2="0%" y1="0%" y2="100%">
   <stop offset="0%"    stop-color= "#dd9b44" stop-opacity="1"/>
   <stop offset="100%"  stop-color= "#ad6c16" stop-opacity="1"/>
  </linearGradient>
  <linearGradient id="aurora" x1="0%" x2="0%" y1="0%" y2="100%">
   <stop offset="0%"    stop-color= "#09D4DF" stop-opacity="1"/>
   <stop offset="100%"  stop-color= "#9269F4" stop-opacity="1"/>
  </linearGradient>
  <linearGradient id="cyberneon" x1="0%" x2="0%" y1="0%" y2="100%">
    <stop offset="0"    stop-color= "#0abdc6" stop-opacity="1"/>
    <stop offset="1"    stop-color= "#ea00d9" stop-opacity="1"/>
  </linearGradient>
  <linearGradient id="fitdance" x1="0%" x2="0%" y1="0%" y2="100%">
   <stop offset="0%"    stop-color= "#1AD6AB" stop-opacity="1"/>
   <stop offset="100%"  stop-color= "#329DB6" stop-opacity="1"/>
  </linearGradient>
  <linearGradient id="oomox" x1="0%" x2="0%" y1="0%" y2="100%">
   <stop offset="0%"    stop-color= "#f27979" stop-opacity="1"/>
   <stop offset="100%"  stop-color= "#9e2121" stop-opacity="1"/>
  </linearGradient>
  <linearGradient id="rainblue" x1="0%" x2="0%" y1="0%" y2="100%">
   <stop offset="0%"    stop-color= "#00F260" stop-opacity="1"/>
   <stop offset="100%"  stop-color= "#0575E6" stop-opacity="1"/>
  </linearGradient>
  <linearGradient id="sunrise" x1="0%" x2="0%" y1="0%" y2="100%">
   <stop offset="0%"    stop-color= "#FF8501" stop-opacity="1"/>
   <stop offset="100%"  stop-color= "#FFCB01" stop-opacity="1"/>
  </linearGradient>
  <linearGradient id="telinkrin" x1="0%" x2="0%" y1="0%" y2="100%">
   <stop offset="0%"    stop-color= "#b2ced6" stop-opacity="1"/>
   <stop offset="100%"  stop-color= "#6da5b7" stop-opacity="1"/>
  </linearGradient>
  <linearGradient id="60spsycho" x1="0%" x2="0%" y1="0%" y2="100%">
   <stop offset="0%"    stop-color= "#df5940" stop-opacity="1"/>
   <stop offset="25%"   stop-color= "#d8d15f" stop-opacity="1"/>
   <stop offset="50%"   stop-color= "#e9882a" stop-opacity="1"/>
   <stop offset="100%"  stop-color= "#279362" stop-opacity="1"/>
  </linearGradient>
  <linearGradient id="90ssummer" x1="0%" x2="0%" y1="0%" y2="100%">
   <stop offset="0%"    stop-color= "#f618c7" stop-opacity="1"/>
   <stop offset="20%"   stop-color= "#94ffab" stop-opacity="1"/>
   <stop offset="50%"   stop-color= "#fbfd54" stop-opacity="1"/>
   <stop offset="100%"  stop-color= "#0f83ae" stop-opacity="1"/>
  </linearGradient>
 </defs>
 <path fill="url(#oomox)" class="ColorScheme-Text" d="M 11,9 C 9.69,9 8.6,9.86 8.19,11.03 6.96,11.19 6,12.23 6,13.5 6,14.88 7.12,16 8.5,16 H 13.5 C 14.88,16 16,14.88 16,13.5 16,12.23 15.04,11.19 13.81,11.03 13.41,9.86 12.31,9 11,9 Z"/>
 <path fill="url(#oomox)" class="ColorScheme-Text" d="M 7,0 6.5,1.03 C 6.66,1.02 6.83,1 7,1 H 7.5 Z M 7,2 C 4.24,2 2,4.24 2,7 2,9.25 3.51,11.12 5.56,11.75 5.78,11.43 6.05,11.15 6.37,10.91 6.4,10.89 6.44,10.86 6.47,10.84 6.54,10.79 6.62,10.74 6.7,10.7 6.96,10.54 7.24,10.4 7.53,10.31 7.6,10.17 7.68,10.03 7.76,9.9 8.23,9.15 8.91,8.56 9.73,8.24 9.73,8.24 9.73,8.24 9.74,8.24 9.9,8.17 10.08,8.12 10.25,8.09 10.29,8.08 10.34,8.06 10.38,8.06 10.58,8.02 10.79,8 11,8 11.15,8 11.3,8.01 11.44,8.04 11.59,8.05 11.74,8.08 11.88,8.12 11.96,7.76 12,7.39 12,7 12,4.24 9.76,2 7,2 Z M 2.06,2.06 2.41,3.13 C 2.63,2.87 2.87,2.63 3.13,2.41 Z M 11.94,2.06 10.84,2.44 H 10.78 C 10.92,2.55 11.06,2.66 11.19,2.78 11.32,2.9 11.45,3.02 11.56,3.16 Z M 1,6.5 0,7 1.03,7.5 C 1.02,7.33 1,7.17 1,7 1,6.97 1,6.92 1,6.84 1.01,6.73 1.02,6.61 1.03,6.5 Z M 12.97,6.5 C 12.98,6.67 13,6.83 13,7 13,7.03 13,7.08 13,7.16 12.99,7.27 12.98,7.39 12.97,7.5 H 13 L 14,7 Z M 2.44,10.84 2.06,11.94 3.16,11.56 H 3.22 C 3.08,11.45 2.94,11.34 2.81,11.22 2.68,11.1 2.55,10.98 2.44,10.84 Z"/>
</svg>
