<svg xmlns="http://www.w3.org/2000/svg" width="16" height="16" version="1.1">
 <defs>
   <style id="current-color-scheme" type="text/css">
   .ColorScheme-Text { color: #939597; } .ColorScheme-Highlight { color:#5294e2; }
  </style>
  <linearGradient id="arrongin" x1="0%" x2="0%" y1="0%" y2="100%">
   <stop offset="0%" style="stop-color:#dd9b44; stop-opacity:1"/>
   <stop offset="100%" style="stop-color:#ad6c16; stop-opacity:1"/>
  </linearGradient>
  <linearGradient id="aurora" x1="0%" x2="0%" y1="0%" y2="100%">
   <stop offset="0%" style="stop-color:#09D4DF; stop-opacity:1"/>
   <stop offset="100%" style="stop-color:#9269F4; stop-opacity:1"/>
  </linearGradient>
  <linearGradient id="cyberneon" x1="0%" x2="0%" y1="0%" y2="100%">
    <stop offset="0" style="stop-color:#0abdc6; stop-opacity:1"/>
    <stop offset="1" style="stop-color:#ea00d9; stop-opacity:1"/>
  </linearGradient>
  <linearGradient id="fitdance" x1="0%" x2="0%" y1="0%" y2="100%">
   <stop offset="0%" style="stop-color:#1AD6AB; stop-opacity:1"/>
   <stop offset="100%" style="stop-color:#329DB6; stop-opacity:1"/>
  </linearGradient>
  <linearGradient id="oomox" x1="0%" x2="0%" y1="0%" y2="100%">
   <stop offset="0%" style="stop-color:#f27979; stop-opacity:1"/>
   <stop offset="100%" style="stop-color:#9e2121; stop-opacity:1"/>
  </linearGradient>
  <linearGradient id="rainblue" x1="0%" x2="0%" y1="0%" y2="100%">
   <stop offset="0%" style="stop-color:#00F260; stop-opacity:1"/>
   <stop offset="100%" style="stop-color:#0575E6; stop-opacity:1"/>
  </linearGradient>
  <linearGradient id="sunrise" x1="0%" x2="0%" y1="0%" y2="100%">
   <stop offset="0%" style="stop-color: #FF8501; stop-opacity:1"/>
   <stop offset="100%" style="stop-color: #FFCB01; stop-opacity:1"/>
  </linearGradient>
  <linearGradient id="telinkrin" x1="0%" x2="0%" y1="0%" y2="100%">
   <stop offset="0%" style="stop-color: #b2ced6; stop-opacity:1"/>
   <stop offset="100%" style="stop-color: #6da5b7; stop-opacity:1"/>
  </linearGradient>
  <linearGradient id="60spsycho" x1="0%" x2="0%" y1="0%" y2="100%">
   <stop offset="0%" style="stop-color: #df5940; stop-opacity:1"/>
   <stop offset="25%" style="stop-color: #d8d15f; stop-opacity:1"/>
   <stop offset="50%" style="stop-color: #e9882a; stop-opacity:1"/>
   <stop offset="100%" style="stop-color: #279362; stop-opacity:1"/>
  </linearGradient>
  <linearGradient id="90ssummer" x1="0%" x2="0%" y1="0%" y2="100%">
   <stop offset="0%" style="stop-color: #f618c7; stop-opacity:1"/>
   <stop offset="20%" style="stop-color: #94ffab; stop-opacity:1"/>
   <stop offset="50%" style="stop-color: #fbfd54; stop-opacity:1"/>
   <stop offset="100%" style="stop-color: #0f83ae; stop-opacity:1"/>
  </linearGradient>
 </defs>
 <path fill="url(#oomox)" class="ColorScheme-Text" d="M 1.3320312 0.5 C 1.1790313 0.5 1.0566406 0.62334375 1.0566406 0.77734375 L 1.0566406 1.8886719 C 1.0566406 2.0426719 1.1790312 2.1679688 1.3320312 2.1679688 L 2.4453125 2.1679688 C 2.5983125 2.1679688 2.7226562 2.0426719 2.7226562 1.8886719 L 2.7226562 0.77734375 C 2.7226562 0.62334375 2.5983125 0.5 2.4453125 0.5 L 1.3320312 0.5 z M 4.0664062 0.5 C 3.9394062 0.508 3.8310313 0.60789063 3.8320312 0.71289062 L 3.8320312 1.953125 C 3.8310312 2.065125 3.9567969 2.1689688 4.0917969 2.1679688 L 13.576172 2.1679688 C 13.711172 2.1689688 13.834031 2.065125 13.832031 1.953125 L 13.832031 0.71289062 C 13.834031 0.60089063 13.711172 0.499 13.576172 0.5 L 4.0917969 0.5 L 4.0664062 0.5 z M 2.4453125 3.8320312 C 2.2913125 3.8320312 2.1679688 3.9573281 2.1679688 4.1113281 L 2.1679688 5.2226562 C 2.1679687 5.3766563 2.2913125 5.5 2.4453125 5.5 L 3.5566406 5.5 C 3.7106406 5.5 3.8320312 5.3766562 3.8320312 5.2226562 L 3.8320312 4.1113281 C 3.8320312 3.9573281 3.7106406 3.8320312 3.5566406 3.8320312 L 2.4453125 3.8320312 z M 5.1796875 3.8339844 C 5.0516875 3.8409844 4.9433125 3.940875 4.9453125 4.046875 L 4.9453125 5.2871094 C 4.9433125 5.3991094 5.0661719 5.501 5.2011719 5.5 L 14.6875 5.5 C 14.8225 5.501 14.945359 5.3991094 14.943359 5.2871094 L 14.943359 4.046875 C 14.945359 3.934875 14.8225 3.8319844 14.6875 3.8339844 L 5.2011719 3.8339844 C 5.1931719 3.8329844 5.1866875 3.8329844 5.1796875 3.8339844 z M 1.3320312 10.5 C 1.1790313 10.5 1.0566406 10.623344 1.0566406 10.777344 L 1.0566406 11.888672 C 1.0566406 12.042672 1.1790312 12.167969 1.3320312 12.167969 L 2.4453125 12.167969 C 2.5983125 12.167969 2.7226562 12.042672 2.7226562 11.888672 L 2.7226562 10.777344 C 2.7226562 10.623344 2.5983125 10.5 2.4453125 10.5 L 1.3320312 10.5 z M 4.0664062 10.5 C 3.9394062 10.508 3.8310313 10.607891 3.8320312 10.712891 L 3.8320312 11.953125 C 3.8310312 12.065125 3.9567969 12.168969 4.0917969 12.167969 L 13.576172 12.167969 C 13.711172 12.168969 13.834031 12.065125 13.832031 11.953125 L 13.832031 10.712891 C 13.834031 10.600891 13.711172 10.499 13.576172 10.5 L 4.0917969 10.5 L 4.0664062 10.5 z M 1.3320312 13.832031 C 1.1790313 13.832031 1.0566406 13.957328 1.0566406 14.111328 L 1.0566406 15.222656 C 1.0566406 15.376656 1.1790312 15.5 1.3320312 15.5 L 2.4453125 15.5 C 2.5983125 15.5 2.7226562 15.376656 2.7226562 15.222656 L 2.7226562 14.111328 C 2.7226562 13.957328 2.5983125 13.832031 2.4453125 13.832031 L 1.3320312 13.832031 z M 4.0664062 13.833984 C 3.9394062 13.840984 3.8310313 13.940875 3.8320312 14.046875 L 3.8320312 15.287109 C 3.8310312 15.399109 3.9567969 15.501 4.0917969 15.5 L 13.576172 15.5 C 13.711172 15.501 13.834031 15.399109 13.832031 15.287109 L 13.832031 14.046875 C 13.834031 13.934875 13.711172 13.831984 13.576172 13.833984 L 4.0917969 13.833984 C 4.0837969 13.832984 4.0744063 13.832984 4.0664062 13.833984 z"/>
 <path fill="url(#oomox)" class="ColorScheme-Text" fill-opacity=".4" d="M 2.445 7.167 L 3.556 7.167 C 3.71 7.167 3.833 7.291 3.833 7.444 L 3.833 8.556 C 3.833 8.709 3.71 8.833 3.556 8.833 L 2.445 8.833 C 2.291 8.833 2.167 8.709 2.167 8.556 L 2.167 7.444 C 2.167 7.291 2.291 7.167 2.445 7.167 Z M 5.179 7.167 C 5.051 7.174 4.943 7.274 4.945 7.38 L 4.945 8.62 C 4.943 8.732 5.067 8.834 5.202 8.833 L 14.687 8.833 C 14.822 8.834 14.946 8.732 14.944 8.62 L 14.944 7.38 C 14.946 7.268 14.822 7.166 14.687 7.167 L 5.202 7.167 C 5.194 7.167 5.186 7.167 5.179 7.167 L 5.179 7.167 Z"/>
</svg>
