<svg xmlns="http://www.w3.org/2000/svg" width="16" height="16" version="1.1">
 <defs>
   <style id="current-color-scheme" type="text/css">
   .ColorScheme-Text { color: #939597; } .ColorScheme-Highlight { color:#5294e2; }
  </style>
  <linearGradient id="arrongin" x1="0%" x2="0%" y1="0%" y2="100%">
   <stop offset="0%" style="stop-color:#dd9b44; stop-opacity:1"/>
   <stop offset="100%" style="stop-color:#ad6c16; stop-opacity:1"/>
  </linearGradient>
  <linearGradient id="aurora" x1="0%" x2="0%" y1="0%" y2="100%">
   <stop offset="0%" style="stop-color:#09D4DF; stop-opacity:1"/>
   <stop offset="100%" style="stop-color:#9269F4; stop-opacity:1"/>
  </linearGradient>
  <linearGradient id="cyberneon" x1="0%" x2="0%" y1="0%" y2="100%">
    <stop offset="0" style="stop-color:#0abdc6; stop-opacity:1"/>
    <stop offset="1" style="stop-color:#ea00d9; stop-opacity:1"/>
  </linearGradient>
  <linearGradient id="fitdance" x1="0%" x2="0%" y1="0%" y2="100%">
   <stop offset="0%" style="stop-color:#1AD6AB; stop-opacity:1"/>
   <stop offset="100%" style="stop-color:#329DB6; stop-opacity:1"/>
  </linearGradient>
  <linearGradient id="oomox" x1="0%" x2="0%" y1="0%" y2="100%">
   <stop offset="0%" style="stop-color:#f27979; stop-opacity:1"/>
   <stop offset="100%" style="stop-color:#9e2121; stop-opacity:1"/>
  </linearGradient>
  <linearGradient id="rainblue" x1="0%" x2="0%" y1="0%" y2="100%">
   <stop offset="0%" style="stop-color:#00F260; stop-opacity:1"/>
   <stop offset="100%" style="stop-color:#0575E6; stop-opacity:1"/>
  </linearGradient>
  <linearGradient id="sunrise" x1="0%" x2="0%" y1="0%" y2="100%">
   <stop offset="0%" style="stop-color: #FF8501; stop-opacity:1"/>
   <stop offset="100%" style="stop-color: #FFCB01; stop-opacity:1"/>
  </linearGradient>
  <linearGradient id="telinkrin" x1="0%" x2="0%" y1="0%" y2="100%">
   <stop offset="0%" style="stop-color: #b2ced6; stop-opacity:1"/>
   <stop offset="100%" style="stop-color: #6da5b7; stop-opacity:1"/>
  </linearGradient>
  <linearGradient id="60spsycho" x1="0%" x2="0%" y1="0%" y2="100%">
   <stop offset="0%" style="stop-color: #df5940; stop-opacity:1"/>
   <stop offset="25%" style="stop-color: #d8d15f; stop-opacity:1"/>
   <stop offset="50%" style="stop-color: #e9882a; stop-opacity:1"/>
   <stop offset="100%" style="stop-color: #279362; stop-opacity:1"/>
  </linearGradient>
  <linearGradient id="90ssummer" x1="0%" x2="0%" y1="0%" y2="100%">
   <stop offset="0%" style="stop-color: #f618c7; stop-opacity:1"/>
   <stop offset="20%" style="stop-color: #94ffab; stop-opacity:1"/>
   <stop offset="50%" style="stop-color: #fbfd54; stop-opacity:1"/>
   <stop offset="100%" style="stop-color: #0f83ae; stop-opacity:1"/>
  </linearGradient>
 </defs>
 <path fill="url(#oomox)" class="ColorScheme-Text" d="M 0,0.80078125 C 0.13110434,2.2441936 1.1811072,2.5771221 1.2382812,4.1191406 1.2686228,4.7703851 0.4131366,6.2667986 0.421875,7.1328125 0.42625774,7.5432248 0.6269665,7.9281598 0.96484375,8.1660156 1.6050308,8.6164591 2.94676,8.8007812 4.7382812,8.8007812 h 0.1074219 c -1.5130156,0 -2.6468356,0.3996679 -3.1875,0.7597657 -0.2853529,0.190158 -0.4533784,0.4980751 -0.4570312,0.8261721 0.066202,2.196385 0.3717668,4.744228 2.8886719,4.8125 1.9575652,-0.02197 2.8481605,-2.080972 3.2363281,-3.992188 4.845e-4,8.04e-4 0.00147,0.0012 0.00195,0.002 0.064008,0.104631 0.1483256,0.190403 0.2519531,0.25586 0.020615,0.0138 0.038627,0.02921 0.060547,0.04101 0.031311,0.01594 0.062153,0.02924 0.095703,0.04102 0.082319,0.0307 0.1693414,0.05273 0.2636719,0.05273 0.09433,0 0.1813531,-0.02203 0.2636719,-0.05273 0.03355,-0.01177 0.064392,-0.02508 0.095703,-0.04102 0.02192,-0.01181 0.039932,-0.02722 0.060547,-0.04101 0.1036274,-0.06546 0.1879448,-0.151229 0.2519531,-0.25586 4.748e-4,-7.76e-4 0.00148,-0.0012 0.00195,-0.002 0.3881675,1.911204 1.2787626,3.97018 3.2363281,3.992188 2.516907,-0.06833 2.822473,-2.616115 2.888672,-4.8125 -0.0036,-0.328097 -0.171689,-0.6360141 -0.457031,-0.8261721 -0.540666,-0.3600978 -1.674486,-0.7597657 -3.1875,-0.7597657 h 0.107422 c 1.791512,0 3.133249,-0.1843221 3.773437,-0.6347656 C 15.373022,7.9281598 15.573802,7.5432248 15.578125,7.1328125 15.586894,6.2667986 14.731374,4.7703851 14.761719,4.1191406 14.818896,2.5771221 15.8689,2.2441936 16,0.80078125 c -3.564853,0 -6.2847042,4.39028115 -7.2207031,6.73828125 -0.00492,-0.011143 -0.00729,-0.02043 -0.011719,-0.03125 -0.031455,-0.077169 -0.057133,-0.1498964 -0.066406,-0.2128906 -1.071e-4,-7.274e-4 1.044e-4,-0.00123 0,-0.00195 -0.049105,-0.3412733 0.1910214,-0.5062078 0.3554687,-0.78125 0.00887,-0.014829 0.018992,-0.025473 0.027344,-0.041016 0.03286,-0.061156 0.061576,-0.1293244 0.082031,-0.2050781 0.021316,-0.078941 0.035156,-0.1665213 0.035156,-0.2675781 0,-0.3302494 -0.1356932,-0.628721 -0.3515625,-0.8457031 C 8.8912304,4.6753322 8.9617772,4.1684798 9.1113281,3.7011719 9.2342201,3.3171638 9.4016799,2.9813738 9.6132812,2.7519531 9.8248825,2.5225323 10.066911,2.3937691 10.396484,2.3984375 l 0.0078,-0.3964844 C 9.9614506,1.9956814 9.5890856,2.186943 9.3183594,2.4804688 9.0476332,2.773994 8.8644736,3.1633025 8.7304688,3.5820312 8.5940641,4.0082622 8.5116422,4.4650954 8.4628906,4.8945312 8.3202521,4.8347293 8.1643526,4.8007812 8,4.8007812 c -0.1640083,0 -0.3204923,0.032232 -0.4628906,0.091797 C 7.4883168,4.4639014 7.407609,4.0073864 7.2714844,3.5820312 7.1374799,3.1633026 6.9543202,2.773994 6.6835938,2.4804688 6.4128672,2.186943 6.0424511,1.9956776 5.5996094,2.0019531 l 0.00586,0.3964844 c 0.3295677,-0.00464 0.5716014,0.1240948 0.7832031,0.3535156 0.2116013,0.2294207 0.3790616,0.5652107 0.5019531,0.9492188 0.1492946,0.4665068 0.2193828,0.9728368 0.2617188,1.4492187 -3.819e-4,3.819e-4 3.813e-4,0.00157 0,0.00195 C 7.0442901,5.2606855 6.9553416,5.3882664 6.8945312,5.53125 c -2.142e-4,5.045e-4 2.136e-4,0.00145 0,0.00195 -0.060563,0.1430261 -0.095703,0.2998264 -0.095703,0.4648438 0,0.1010568 0.01384,0.1886373 0.035156,0.2675781 0.020456,0.075754 0.049171,0.1439219 0.082031,0.2050781 0.00834,0.015298 0.018497,0.026423 0.027344,0.041016 0.1644474,0.2750422 0.404574,0.4399767 0.3554687,0.78125 -1.044e-4,7.257e-4 1.071e-4,0.00123 0,0.00195 -0.00927,0.062994 -0.034951,0.1357217 -0.066406,0.2128906 -0.00443,0.01082 -0.0068,0.020107 -0.011719,0.03125 C 6.284706,5.1910624 3.5648529,0.80078125 0,0.80078125 Z M 2,1.9980469 A 0.39999977,0.39999977 0 0 1 2.4003906,2.4003906 0.39999977,0.39999977 0 0 1 2,2.8007812 0.39999977,0.39999977 0 0 1 1.5996094,2.4003906 0.39999977,0.39999977 0 0 1 2,1.9980469 Z m 12,0 A 0.39999985,0.39999985 0 0 1 14.400391,2.4003906 0.39999985,0.39999985 0 0 1 14,2.8007812 0.39999985,0.39999985 0 0 1 13.599609,2.4003906 0.39999985,0.39999985 0 0 1 14,1.9980469 Z M 3.3671875,3.8496094 a 0.59999971,0.59999971 0 0 1 0.033203,0 A 0.59999971,0.59999971 0 0 1 4,4.4492188 0.59999971,0.59999971 0 0 1 3.4003906,5.0507812 0.59999971,0.59999971 0 0 1 2.7988281,4.4492188 0.59999971,0.59999971 0 0 1 3.3671875,3.8496094 Z m 9.2011715,0 a 0.59999983,0.59999983 0 0 1 0.03125,0 0.59999983,0.59999983 0 0 1 0.601563,0.5996094 A 0.59999983,0.59999983 0 0 1 12.599609,5.0507812 0.59999983,0.59999983 0 0 1 12,4.4492188 0.59999983,0.59999983 0 0 1 12.568359,3.8496094 Z M 2.4003906,5.9980469 A 0.7999997,0.7999997 0 0 1 3.2011719,6.8007812 0.7999997,0.7999997 0 0 1 2.4003906,7.5996094 0.7999997,0.7999997 0 0 1 1.5996094,6.8007812 0.7999997,0.7999997 0 0 1 2.4003906,5.9980469 Z m 11.1992184,0 A 0.79999973,0.79999973 0 0 1 14.400391,6.8007812 0.79999973,0.79999973 0 0 1 13.599609,7.5996094 0.79999973,0.79999973 0 0 1 12.798828,6.8007812 0.79999973,0.79999973 0 0 1 13.599609,5.9980469 Z M 2.9570312,10.400391 A 0.59999975,0.59999975 0 0 1 3,10.400391 0.59999975,0.59999975 0 0 1 3.5996094,10.998047 0.59999975,0.59999975 0 0 1 3,11.599609 0.59999975,0.59999975 0 0 1 2.4003906,10.998047 0.59999975,0.59999975 0 0 1 2.9570312,10.400391 Z m 9.9999998,0 a 0.59999978,0.59999978 0 0 1 0.04297,0 0.59999978,0.59999978 0 0 1 0.599609,0.597656 A 0.59999978,0.59999978 0 0 1 13,11.599609 0.59999978,0.59999978 0 0 1 12.400391,10.998047 0.59999978,0.59999978 0 0 1 12.957031,10.400391 Z M 4,12.800781 A 0.7999997,0.7999997 0 0 1 4.7988281,13.599609 0.7999997,0.7999997 0 0 1 4,14.400391 0.7999997,0.7999997 0 0 1 3.2011719,13.599609 0.7999997,0.7999997 0 0 1 4,12.800781 Z m 8,0 A 0.79999973,0.79999973 0 0 1 12.798828,13.599609 0.79999973,0.79999973 0 0 1 12,14.400391 0.79999973,0.79999973 0 0 1 11.201172,13.599609 0.79999973,0.79999973 0 0 1 12,12.800781 Z"/>
</svg>
