<svg xmlns="http://www.w3.org/2000/svg" width="16" height="16" version="1.1">
 <defs>
   <style id="current-color-scheme" type="text/css">
   .ColorScheme-Text { color: #939597; } .ColorScheme-Highlight { color:#5294e2; }
  </style>
  <linearGradient id="arrongin" x1="0%" x2="0%" y1="0%" y2="100%">
   <stop offset="0%" style="stop-color:#dd9b44; stop-opacity:1"/>
   <stop offset="100%" style="stop-color:#ad6c16; stop-opacity:1"/>
  </linearGradient>
  <linearGradient id="aurora" x1="0%" x2="0%" y1="0%" y2="100%">
   <stop offset="0%" style="stop-color:#09D4DF; stop-opacity:1"/>
   <stop offset="100%" style="stop-color:#9269F4; stop-opacity:1"/>
  </linearGradient>
  <linearGradient id="cyberneon" x1="0%" x2="0%" y1="0%" y2="100%">
    <stop offset="0" style="stop-color:#0abdc6; stop-opacity:1"/>
    <stop offset="1" style="stop-color:#ea00d9; stop-opacity:1"/>
  </linearGradient>
  <linearGradient id="fitdance" x1="0%" x2="0%" y1="0%" y2="100%">
   <stop offset="0%" style="stop-color:#1AD6AB; stop-opacity:1"/>
   <stop offset="100%" style="stop-color:#329DB6; stop-opacity:1"/>
  </linearGradient>
  <linearGradient id="oomox" x1="0%" x2="0%" y1="0%" y2="100%">
   <stop offset="0%" style="stop-color:#f27979; stop-opacity:1"/>
   <stop offset="100%" style="stop-color:#9e2121; stop-opacity:1"/>
  </linearGradient>
  <linearGradient id="rainblue" x1="0%" x2="0%" y1="0%" y2="100%">
   <stop offset="0%" style="stop-color:#00F260; stop-opacity:1"/>
   <stop offset="100%" style="stop-color:#0575E6; stop-opacity:1"/>
  </linearGradient>
  <linearGradient id="sunrise" x1="0%" x2="0%" y1="0%" y2="100%">
   <stop offset="0%" style="stop-color: #FF8501; stop-opacity:1"/>
   <stop offset="100%" style="stop-color: #FFCB01; stop-opacity:1"/>
  </linearGradient>
  <linearGradient id="telinkrin" x1="0%" x2="0%" y1="0%" y2="100%">
   <stop offset="0%" style="stop-color: #b2ced6; stop-opacity:1"/>
   <stop offset="100%" style="stop-color: #6da5b7; stop-opacity:1"/>
  </linearGradient>
  <linearGradient id="60spsycho" x1="0%" x2="0%" y1="0%" y2="100%">
   <stop offset="0%" style="stop-color: #df5940; stop-opacity:1"/>
   <stop offset="25%" style="stop-color: #d8d15f; stop-opacity:1"/>
   <stop offset="50%" style="stop-color: #e9882a; stop-opacity:1"/>
   <stop offset="100%" style="stop-color: #279362; stop-opacity:1"/>
  </linearGradient>
  <linearGradient id="90ssummer" x1="0%" x2="0%" y1="0%" y2="100%">
   <stop offset="0%" style="stop-color: #f618c7; stop-opacity:1"/>
   <stop offset="20%" style="stop-color: #94ffab; stop-opacity:1"/>
   <stop offset="50%" style="stop-color: #fbfd54; stop-opacity:1"/>
   <stop offset="100%" style="stop-color: #0f83ae; stop-opacity:1"/>
  </linearGradient>
 </defs>
 <path fill="url(#oomox)" class="ColorScheme-Text" d="M 2,2 C 1.56161,2 1.21429,2.0387 0.92187,2.14844 0.62946,2.2582 0.39626,2.45805 0.25781,2.70898 -0.01909,3.21086 0.0097,3.82332 0,4.66211 v 0.002 6.67188 0.002 c 0.01,0.83879 -0.0191,1.45125 0.25781,1.95313 0.13845,0.25093 0.37165,0.45077 0.66406,0.56054 C 1.21429,13.96123 1.56161,14 2,14 h 12 c 0.4384,0 0.7857,-0.0387 1.0781,-0.14844 0.2924,-0.10977 0.5276,-0.30961 0.666,-0.56054 C 16.021,12.78914 15.9903,12.17668 16,11.33789 v -0.002 -6.67188 -0.002 C 15.99,3.82322 16.021,3.21076 15.7441,2.70888 15.6057,2.45795 15.3705,2.2581 15.0781,2.14834 14.7857,2.03886 14.4384,2 14,2 Z m 0,1 h 12 c 0.3796,0 0.6056,0.0386 0.7266,0.084 0.084,0.0314 0.127,0.0792 0.1425,0.10743 0.095,0.17181 0.1204,0.61468 0.1309,1.47265 v 6.66211 0.0117 c -0.01,0.85536 -0.036,1.2989 -0.1309,1.4707 -0.016,0.0282 -0.059,0.076 -0.1425,0.10743 -0.1209,0.0454 -0.347,0.084 -0.7266,0.084 H 2 c -0.37959,0 -0.60571,-0.0386 -0.72656,-0.084 C 1.19114,12.88512 1.15031,12.84032 1.13281,12.80859 1.03711,12.63506 1.01022,12.19174 1,11.33789 V 11.32619 4.66408 C 1.0102,3.80801 1.0369,3.36519 1.13281,3.19143 1.15031,3.15973 1.19111,3.11493 1.27344,3.084 1.39429,3.0386 1.62041,3 2,3 Z M 2.53711,4.57812 2.25195,5.01562 8.125,9.23633 14,5 13.7148,4.57812 8.125,7.95117 Z"/>
</svg>
