<svg xmlns="http://www.w3.org/2000/svg" width="16" height="16" version="1.1">
 <defs>
   <style id="current-color-scheme" type="text/css">
   .ColorScheme-Text { color: #939597; } .ColorScheme-Highlight { color:#5294e2; }
  </style>
  <linearGradient id="arrongin" x1="0%" x2="0%" y1="0%" y2="100%">
   <stop offset="0%" style="stop-color:#dd9b44; stop-opacity:1"/>
   <stop offset="100%" style="stop-color:#ad6c16; stop-opacity:1"/>
  </linearGradient>
  <linearGradient id="aurora" x1="0%" x2="0%" y1="0%" y2="100%">
   <stop offset="0%" style="stop-color:#09D4DF; stop-opacity:1"/>
   <stop offset="100%" style="stop-color:#9269F4; stop-opacity:1"/>
  </linearGradient>
  <linearGradient id="cyberneon" x1="0%" x2="0%" y1="0%" y2="100%">
    <stop offset="0" style="stop-color:#0abdc6; stop-opacity:1"/>
    <stop offset="1" style="stop-color:#ea00d9; stop-opacity:1"/>
  </linearGradient>
  <linearGradient id="fitdance" x1="0%" x2="0%" y1="0%" y2="100%">
   <stop offset="0%" style="stop-color:#1AD6AB; stop-opacity:1"/>
   <stop offset="100%" style="stop-color:#329DB6; stop-opacity:1"/>
  </linearGradient>
  <linearGradient id="oomox" x1="0%" x2="0%" y1="0%" y2="100%">
   <stop offset="0%" style="stop-color:#f27979; stop-opacity:1"/>
   <stop offset="100%" style="stop-color:#9e2121; stop-opacity:1"/>
  </linearGradient>
  <linearGradient id="rainblue" x1="0%" x2="0%" y1="0%" y2="100%">
   <stop offset="0%" style="stop-color:#00F260; stop-opacity:1"/>
   <stop offset="100%" style="stop-color:#0575E6; stop-opacity:1"/>
  </linearGradient>
  <linearGradient id="sunrise" x1="0%" x2="0%" y1="0%" y2="100%">
   <stop offset="0%" style="stop-color: #FF8501; stop-opacity:1"/>
   <stop offset="100%" style="stop-color: #FFCB01; stop-opacity:1"/>
  </linearGradient>
  <linearGradient id="telinkrin" x1="0%" x2="0%" y1="0%" y2="100%">
   <stop offset="0%" style="stop-color: #b2ced6; stop-opacity:1"/>
   <stop offset="100%" style="stop-color: #6da5b7; stop-opacity:1"/>
  </linearGradient>
  <linearGradient id="60spsycho" x1="0%" x2="0%" y1="0%" y2="100%">
   <stop offset="0%" style="stop-color: #df5940; stop-opacity:1"/>
   <stop offset="25%" style="stop-color: #d8d15f; stop-opacity:1"/>
   <stop offset="50%" style="stop-color: #e9882a; stop-opacity:1"/>
   <stop offset="100%" style="stop-color: #279362; stop-opacity:1"/>
  </linearGradient>
  <linearGradient id="90ssummer" x1="0%" x2="0%" y1="0%" y2="100%">
   <stop offset="0%" style="stop-color: #f618c7; stop-opacity:1"/>
   <stop offset="20%" style="stop-color: #94ffab; stop-opacity:1"/>
   <stop offset="50%" style="stop-color: #fbfd54; stop-opacity:1"/>
   <stop offset="100%" style="stop-color: #0f83ae; stop-opacity:1"/>
  </linearGradient>
 </defs>
 <path fill="url(#oomox)" class="ColorScheme-Text" d="m 7.9999995,16 c -3.79661,0 -6.878274,-1.035439 -6.878274,-2.292758 v -2.292758 c 0,-0.197227 0.09861,-0.394453 0.246533,-0.567026 0.764253,0.986132 3.426811,1.725732 6.631741,1.725732 3.2049315,0 5.8674885,-0.7396 6.6317405,-1.725732 0.14792,0.172573 0.246534,0.369799 0.246534,0.567026 v 2.292758 C 14.878274,14.964561 11.796609,16 7.9999995,16 Z m 0,-4.585516 c -3.79661,0 -6.878274,-1.035439 -6.878274,-2.292758 V 6.828968 c 0,-0.123267 0.04931,-0.246533 0.09861,-0.345147 l 0.14792,-0.22188 c 0.764253,0.986133 3.426811,1.725732 6.631741,1.725732 3.2049315,0 5.8674885,-0.739599 6.6317405,-1.725732 l 0.14792,0.22188 c 0.04931,0.123267 0.09861,0.246533 0.09861,0.345147 v 2.292758 c 0,1.281972 -3.081665,2.292758 -6.8782745,2.292758 z m 0,-4.560863 c -3.79661,0 -6.878274,-1.035439 -6.878274,-2.292758 V 3.42681 2.292758 C 1.1217255,1.035439 4.2033895,0 7.9999995,0 11.796609,0 14.878275,1.035439 14.878275,2.292758 V 3.42681 4.560863 c 0,1.257319 -3.081666,2.292758 -6.8782755,2.292758 z m 0,-5.744222 c -2.539291,0 -4.585516,0.51772 -4.585516,1.134052 0,0.616333 2.046225,1.134053 4.585516,1.134053 2.5392905,0 4.5855155,-0.51772 4.5855155,-1.134053 0,-0.616332 -2.046225,-1.134052 -4.5855155,-1.134052 z"/>
</svg>
