<svg xmlns="http://www.w3.org/2000/svg" width="16" height="16" version="1.1">
 <defs>
   <style id="current-color-scheme" type="text/css">
   .ColorScheme-Text { color: #939597; } .ColorScheme-Highlight { color:#5294e2; }
  </style>
  <linearGradient id="arrongin" x1="0%" x2="0%" y1="0%" y2="100%">
   <stop offset="0%" style="stop-color:#dd9b44; stop-opacity:1"/>
   <stop offset="100%" style="stop-color:#ad6c16; stop-opacity:1"/>
  </linearGradient>
  <linearGradient id="aurora" x1="0%" x2="0%" y1="0%" y2="100%">
   <stop offset="0%" style="stop-color:#09D4DF; stop-opacity:1"/>
   <stop offset="100%" style="stop-color:#9269F4; stop-opacity:1"/>
  </linearGradient>
  <linearGradient id="cyberneon" x1="0%" x2="0%" y1="0%" y2="100%">
    <stop offset="0" style="stop-color:#0abdc6; stop-opacity:1"/>
    <stop offset="1" style="stop-color:#ea00d9; stop-opacity:1"/>
  </linearGradient>
  <linearGradient id="fitdance" x1="0%" x2="0%" y1="0%" y2="100%">
   <stop offset="0%" style="stop-color:#1AD6AB; stop-opacity:1"/>
   <stop offset="100%" style="stop-color:#329DB6; stop-opacity:1"/>
  </linearGradient>
  <linearGradient id="oomox" x1="0%" x2="0%" y1="0%" y2="100%">
   <stop offset="0%" style="stop-color:#f27979; stop-opacity:1"/>
   <stop offset="100%" style="stop-color:#9e2121; stop-opacity:1"/>
  </linearGradient>
  <linearGradient id="rainblue" x1="0%" x2="0%" y1="0%" y2="100%">
   <stop offset="0%" style="stop-color:#00F260; stop-opacity:1"/>
   <stop offset="100%" style="stop-color:#0575E6; stop-opacity:1"/>
  </linearGradient>
  <linearGradient id="sunrise" x1="0%" x2="0%" y1="0%" y2="100%">
   <stop offset="0%" style="stop-color: #FF8501; stop-opacity:1"/>
   <stop offset="100%" style="stop-color: #FFCB01; stop-opacity:1"/>
  </linearGradient>
  <linearGradient id="telinkrin" x1="0%" x2="0%" y1="0%" y2="100%">
   <stop offset="0%" style="stop-color: #b2ced6; stop-opacity:1"/>
   <stop offset="100%" style="stop-color: #6da5b7; stop-opacity:1"/>
  </linearGradient>
  <linearGradient id="60spsycho" x1="0%" x2="0%" y1="0%" y2="100%">
   <stop offset="0%" style="stop-color: #df5940; stop-opacity:1"/>
   <stop offset="25%" style="stop-color: #d8d15f; stop-opacity:1"/>
   <stop offset="50%" style="stop-color: #e9882a; stop-opacity:1"/>
   <stop offset="100%" style="stop-color: #279362; stop-opacity:1"/>
  </linearGradient>
  <linearGradient id="90ssummer" x1="0%" x2="0%" y1="0%" y2="100%">
   <stop offset="0%" style="stop-color: #f618c7; stop-opacity:1"/>
   <stop offset="20%" style="stop-color: #94ffab; stop-opacity:1"/>
   <stop offset="50%" style="stop-color: #fbfd54; stop-opacity:1"/>
   <stop offset="100%" style="stop-color: #0f83ae; stop-opacity:1"/>
  </linearGradient>
 </defs>
 <path fill="url(#oomox)" class="ColorScheme-Text" d="M 3.994,1 C 2.736,1.015 1.815,0.97 1.062,1.385 A 1.88,1.88 0 0 0 0.225,2.383 C 0.06,2.821 0,3.343 0,4 V 7 C 0,7.658 0.06,8.179 0.225,8.617 0.389,9.056 0.686,9.407 1.062,9.615 1.815,10.031 2.736,9.985 3.994,10 H 4.958 C 4.861,10.75 4.544,10.946 4,10.982 V 12 H 5 V 9 H 4 C 2.741,8.985 1.91,8.94 1.545,8.738 1.362,8.638 1.258,8.526 1.16,8.266 1.063,8.006 1,7.592 1,7 V 4 C 1,3.408 1.063,2.994 1.16,2.734 1.258,2.474 1.362,2.363 1.545,2.262 1.911,2.06 2.741,2.015 4,2 h 4 c 1.259,0.015 2.087,0.06 2.453,0.262 0.184,0.1 0.29,0.212 0.387,0.472 C 10.937,2.994 11,3.408 11,4 h 1 C 12,3.342 11.94,2.821 11.775,2.383 A 1.88,1.88 0 0 0 10.938,1.385 C 10.185,0.969 9.264,1.015 8.006,1 H 3.998 Z" font-family="sans-serif" font-weight="400" overflow="visible"/>
 <path fill="url(#oomox)" class="ColorScheme-Text" d="M 8,5 V 7.027 C 7.614,7.054 7.276,7.111 6.965,7.242 a 1.488,1.488 0 0 0 -0.756,0.7 C 6.051,8.262 6,8.629 6,9.062 v 1.875 c 0,0.434 0.051,0.8 0.209,1.122 0.158,0.321 0.44,0.566 0.756,0.699 0.01,0.005 0.024,0.005 0.035,0.01 V 9.062 C 7,8.715 7.049,8.498 7.106,8.382 7.162,8.268 7.209,8.222 7.352,8.162 7.637,8.042 8.332,8.009 9.363,8 h 3.274 c 1.03,0.009 1.726,0.042 2.011,0.162 0.144,0.06 0.19,0.106 0.247,0.22 C 14.951,8.498 15,8.715 15,9.062 v 3.706 c 0.011,-0.005 0.024,-0.005 0.035,-0.01 0.315,-0.133 0.598,-0.378 0.756,-0.7 C 15.949,11.738 16,11.371 16,10.938 V 9.063 C 16,8.629 15.949,8.263 15.791,7.941 A 1.488,1.488 0 0 0 15.035,7.242 C 14.724,7.111 14.386,7.054 14,7.027 V 5 Z m 1,1 h 4 V 7.006 C 12.873,7.006 12.778,7.001 12.64,7 H 9.36 C 9.223,7 9.128,7.005 9,7.006 Z m 4.5,3 A 0.5,0.5 0 0 0 13,9.5 0.5,0.5 0 0 0 13.5,10 0.5,0.5 0 0 0 14,9.5 0.5,0.5 0 0 0 13.5,9 Z M 8,11 v 4 h 6 v -4 h -1 v 3 H 9 v -3 z" font-family="sans-serif" font-weight="400" overflow="visible"/>
</svg>
