<svg xmlns="http://www.w3.org/2000/svg" width="16" height="16" version="1.1">
 <defs>
   <style id="current-color-scheme" type="text/css">
   .ColorScheme-Text { color: #939597; } .ColorScheme-Highlight { color:#5294e2; }
  </style>
  <linearGradient id="arrongin" x1="0%" x2="0%" y1="0%" y2="100%">
   <stop offset="0%" style="stop-color:#dd9b44; stop-opacity:1"/>
   <stop offset="100%" style="stop-color:#ad6c16; stop-opacity:1"/>
  </linearGradient>
  <linearGradient id="aurora" x1="0%" x2="0%" y1="0%" y2="100%">
   <stop offset="0%" style="stop-color:#09D4DF; stop-opacity:1"/>
   <stop offset="100%" style="stop-color:#9269F4; stop-opacity:1"/>
  </linearGradient>
  <linearGradient id="cyberneon" x1="0%" x2="0%" y1="0%" y2="100%">
    <stop offset="0" style="stop-color:#0abdc6; stop-opacity:1"/>
    <stop offset="1" style="stop-color:#ea00d9; stop-opacity:1"/>
  </linearGradient>
  <linearGradient id="fitdance" x1="0%" x2="0%" y1="0%" y2="100%">
   <stop offset="0%" style="stop-color:#1AD6AB; stop-opacity:1"/>
   <stop offset="100%" style="stop-color:#329DB6; stop-opacity:1"/>
  </linearGradient>
  <linearGradient id="oomox" x1="0%" x2="0%" y1="0%" y2="100%">
   <stop offset="0%" style="stop-color:#f27979; stop-opacity:1"/>
   <stop offset="100%" style="stop-color:#9e2121; stop-opacity:1"/>
  </linearGradient>
  <linearGradient id="rainblue" x1="0%" x2="0%" y1="0%" y2="100%">
   <stop offset="0%" style="stop-color:#00F260; stop-opacity:1"/>
   <stop offset="100%" style="stop-color:#0575E6; stop-opacity:1"/>
  </linearGradient>
  <linearGradient id="sunrise" x1="0%" x2="0%" y1="0%" y2="100%">
   <stop offset="0%" style="stop-color: #FF8501; stop-opacity:1"/>
   <stop offset="100%" style="stop-color: #FFCB01; stop-opacity:1"/>
  </linearGradient>
  <linearGradient id="telinkrin" x1="0%" x2="0%" y1="0%" y2="100%">
   <stop offset="0%" style="stop-color: #b2ced6; stop-opacity:1"/>
   <stop offset="100%" style="stop-color: #6da5b7; stop-opacity:1"/>
  </linearGradient>
  <linearGradient id="60spsycho" x1="0%" x2="0%" y1="0%" y2="100%">
   <stop offset="0%" style="stop-color: #df5940; stop-opacity:1"/>
   <stop offset="25%" style="stop-color: #d8d15f; stop-opacity:1"/>
   <stop offset="50%" style="stop-color: #e9882a; stop-opacity:1"/>
   <stop offset="100%" style="stop-color: #279362; stop-opacity:1"/>
  </linearGradient>
  <linearGradient id="90ssummer" x1="0%" x2="0%" y1="0%" y2="100%">
   <stop offset="0%" style="stop-color: #f618c7; stop-opacity:1"/>
   <stop offset="20%" style="stop-color: #94ffab; stop-opacity:1"/>
   <stop offset="50%" style="stop-color: #fbfd54; stop-opacity:1"/>
   <stop offset="100%" style="stop-color: #0f83ae; stop-opacity:1"/>
  </linearGradient>
 </defs>
 <path fill="url(#oomox)" class="ColorScheme-Text" d="m 7.8274586,11.707196 c -0.3578643,-0.06532 -0.6380967,-0.252777 -0.7677989,-0.512181 -0.044496,-0.08994 -0.05207,-0.127809 -0.05207,-0.266032 0,-0.134436 0.00757,-0.177985 0.04923,-0.265085 0.1003535,-0.210174 0.2840193,-0.362598 0.5566779,-0.462004 0.1997603,-0.0729 0.5424769,-0.09089 0.7545447,-0.04071 0.3114745,0.07385 0.5746658,0.262245 0.6873268,0.493247 0.048283,0.09941 0.055857,0.134436 0.05491,0.274552 -9.468e-4,0.138223 -0.00852,0.176092 -0.053017,0.266032 -0.1060339,0.207334 -0.3256755,0.382479 -0.5888667,0.465791 -0.1694649,0.05302 -0.479046,0.07574 -0.6409368,0.04639 z M 9.5116932,9.3678236 C 9.2882647,9.2740972 9.1481485,9.1396614 9.037381,8.9105525 8.812059,8.4504412 8.8944246,7.8729352 9.2324076,7.5358989 9.4813979,7.2878554 9.7701508,7.2291581 10.064584,7.3664341 c 0.266978,0.1249685 0.468632,0.4231888 0.53017,0.7838933 0.08426,0.4970338 -0.137276,1.0016415 -0.524489,1.1919345 -0.1060343,0.05207 -0.1486372,0.062484 -0.2859132,0.066271 -0.1363293,0.00473 -0.1789322,-0.00189 -0.2726586,-0.040709 z M 10.163044,8.7401409 C 10.38742,8.6246397 10.44801,8.1465405 10.274759,7.8653614 10.226475,7.7886761 10.14979,7.7451265 10.059851,7.7451265 c -0.1514774,0 -0.2783394,0.2281622 -0.2783394,0.5027142 0,0.2347893 0.070058,0.4061477 0.1988135,0.4847263 0.071005,0.04355 0.1098209,0.045443 0.1827189,0.00757 z M 6.0864201,9.2371747 C 5.8203887,9.1614362 5.5846526,8.9114992 5.4805122,8.5962378 c -0.039763,-0.1202349 -0.04639,-0.176092 -0.04639,-0.3957336 0,-0.3105278 0.041656,-0.4629515 0.1855593,-0.6769128 0.1562106,-0.2338425 0.3607045,-0.362598 0.6011742,-0.3796391 0.3900533,-0.028402 0.7412905,0.2717118 0.866259,0.739397 0.042603,0.1599975 0.041656,0.4771524 -0.00189,0.63715 C 6.9687735,8.947475 6.6620326,9.2381215 6.3107954,9.2551626 6.2350569,9.2580028 6.1347034,9.250429 6.0864201,9.2371747 Z M 6.7141028,8.560262 C 6.8068825,8.4939908 6.8712602,8.3320998 6.8807275,8.1427536 6.893035,7.8767221 6.8154031,7.6779086 6.6705532,7.6069038 6.6109092,7.5775551 6.5891343,7.5756616 6.5342239,7.5936495 6.2653523,7.6826423 6.1981344,8.281923 6.4300835,8.5252329 c 0.058697,0.062484 0.080472,0.072898 0.1495835,0.072898 0.051124,0 0.1003535,-0.014201 0.1344358,-0.037869 z"/>
 <path fill="url(#oomox)" class="ColorScheme-Text" d="m 11.903187,3.003646 c -0.45244,0.4044219 -0.907956,1.0287499 -1.379416,1.8158006 -0.109349,0.1819249 -0.239624,0.4093256 -0.342081,0.5954052 -0.05123,0.09304 -0.09375,0.176272 -0.125738,0.2385318 -0.01599,0.03113 -0.03004,0.056085 -0.04068,0.07951 -0.0053,0.011713 -0.0087,0.021387 -0.0148,0.038831 -0.00303,0.00872 -0.00682,0.018724 -0.011095,0.042529 -0.00218,0.011902 -0.00369,0.056898 -0.00369,0.057322 1.33e-5,2.119e-4 0.011048,0.062722 0.011096,0.062869 5.02e-5,1.47e-4 0.064634,0.09792 0.064719,0.098001 l 0.0093,0.00925 0.0093,0.00555 c 0.04734,0.035503 0.03202,0.020738 0.04437,0.027736 0.01195,0.00677 0.0254,0.01609 0.04068,0.024039 0.0095,0.00495 0.05221,0.047378 0.164569,0.038831 0.112354,-0.00855 0.176729,-0.081822 0.207098,-0.1220395 0.06073,-0.080433 0.09857,-0.1627769 0.197851,-0.3476278 0.67319,-1.2495432 1.476761,-2.237872 1.976671,-2.5350945 0.249299,-0.148841 0.37947,-0.1452552 0.465969,-0.094303 0.0865,0.050952 0.198794,0.2207571 0.257023,0.5658197 0.141039,0.8401758 -0.06275,2.3952084 -0.612047,4.3398006 v 0.00185 c -0.02921,0.1041792 -0.05301,0.1995541 -0.07027,0.2736645 -0.0086,0.037055 -0.01541,0.068004 -0.02034,0.096152 -0.0025,0.014074 -0.0059,0.027158 -0.0074,0.046227 -7.78e-4,0.00953 -0.0014,0.019212 0,0.04068 6.92e-4,0.010734 0.0073,0.045674 0.0074,0.046227 7.3e-5,2.763e-4 0.01655,0.04418 0.01664,0.044378 9.5e-5,1.978e-4 0.04611,0.064599 0.04623,0.064718 l 0.0037,0.00555 0.0056,0.0037 c 0.04533,0.040297 0.06206,0.042376 0.08321,0.051774 0.02115,0.0094 0.04084,0.017525 0.06472,0.024038 l 0.0056,0.00185 h 0.0056 c 0.01117,0.00254 0.02031,0.00569 0.02774,0.00739 l 0.01294,0.0037 0.0148,0.00185 c 7.8e-5,1.48e-5 0.09052,1.68e-5 0.0906,0 8.6e-5,-1.69e-5 0.06278,-0.02214 0.06287,-0.022189 1.86e-4,-9.66e-5 0.0608,-0.044156 0.06102,-0.044378 2.16e-4,-2.215e-4 0.0187,-0.022141 0.02404,-0.029585 0.0053,-0.00744 0.01,-0.013485 0.01294,-0.018491 0.0119,-0.020022 0.0147,-0.027927 0.01849,-0.036982 0.0076,-0.018109 0.01269,-0.032549 0.01849,-0.049925 0.01161,-0.034755 0.02487,-0.078832 0.04068,-0.1331341 0.03163,-0.1086034 0.07234,-0.2557032 0.116492,-0.4215912 0.08831,-0.3317758 0.189601,-0.7342149 0.255174,-1.0225435 C 13.983687,5.71792 14.122953,4.8139656 14.083435,4.0335883 14.057591,3.5232287 13.915328,2.7034405 13.474902,2.5099402 12.807507,2.2167213 12.331699,2.7365125 11.903187,3.003646 Z M 2.668854,2.4729585 C 2.4548665,2.5228721 2.2713381,2.6653754 2.1437141,2.8594171 2.0160901,3.0534588 1.9342312,3.2995313 1.8848423,3.5953526 c -0.075583,0.4503482 -0.060382,1.0981728 0.027736,1.7973099 0.1067997,0.8408057 0.4058569,2.2785673 0.661972,3.0029127 0,0 -1.954e-4,0.00127 0,0.00185 0.035257,0.1054638 0.078477,0.2052276 0.2006302,0.2665311 0.090083,0.045209 0.2043193,0.023775 0.2043193,0.023775 l 0.0037,-0.00185 c 0.032274,-0.011018 0.059689,-0.024123 0.090605,-0.044378 0.016092,-0.010543 0.033,-0.022141 0.055473,-0.046227 0.011236,-0.012042 0.025056,-0.026538 0.038831,-0.051774 0.00688,-0.012618 0.018296,-0.047428 0.018491,-0.048076 1.949e-4,-6.474e-4 0.011095,-0.069674 0.011095,-0.070265 0,-2.663e-4 -0.00277,-0.031068 -0.0037,-0.036982 -9.219e-4,-0.00592 -0.00123,-0.00988 -0.00185,-0.012944 -0.00123,-0.00613 -0.00265,-0.010346 -0.0037,-0.014793 -0.00209,-0.00889 -0.00266,-0.018358 -0.00555,-0.029585 -0.00578,-0.022455 -0.014424,-0.051397 -0.024039,-0.086907 -0.019227,-0.071021 -0.045415,-0.164445 -0.073963,-0.2662681 v -0.00185 C 2.786122,6.9240294 2.5645243,5.8433091 2.4728511,5.0006566 2.4592479,4.8746269 2.4508946,4.5895359 2.4506621,4.3257409 2.4504296,4.0619459 2.4629998,3.7846597 2.4691529,3.7488267 h 0.00185 C 2.5221882,3.449276 2.5981716,3.2545007 2.668854,3.1608178 2.7395364,3.067135 2.7771684,3.0510091 2.888895,3.0591182 3.0433126,3.0696865 3.2855249,3.1957096 3.6266796,3.5269366 4.1081356,3.9949441 4.631626,4.72907 5.1873067,5.7365921 c 0.044572,0.081084 0.086118,0.1580799 0.1183414,0.2163429 0.032223,0.058263 0.044282,0.079967 0.062869,0.110945 v 0.00185 l 0.00185,0.00185 c 0.011927,0.019266 0.03186,0.048477 0.072114,0.077661 0.040254,0.029184 0.1009787,0.048851 0.1460777,0.049925 0.08679,0.00206 0.1148173,-0.020734 0.1442286,-0.035132 0.031672,-0.013725 0.058459,-0.028042 0.086907,-0.049925 0.014224,-0.010941 0.028916,-0.023323 0.048076,-0.046227 0.00958,-0.011453 0.019594,-0.024784 0.031434,-0.048076 0.00592,-0.011647 0.016468,-0.043775 0.016642,-0.044378 1.733e-4,-6.028e-4 0.011095,-0.066034 0.011095,-0.066567 0,-3.994e-4 -0.00496,-0.042946 -0.00739,-0.053624 C 5.9171114,5.84056 5.9158514,5.832854 5.9140014,5.827199 5.9103114,5.815888 5.9073914,5.809496 5.9047514,5.803161 5.8994914,5.790491 5.8936264,5.781327 5.8881094,5.769878 5.877076,5.7469767 5.864184,5.7185849 5.8474297,5.6866669 5.8139212,5.6228307 5.7690919,5.5403987 5.7179938,5.4481349 5.6157977,5.2636076 5.4915,5.0449201 5.3962532,4.8860134 H 5.394407 C 4.918944,4.0955009 4.4673783,3.4925766 4.0149872,3.0591182 3.5465524,2.6102642 3.0968289,2.3731314 2.668854,2.4729585 Z M 4.30686,9.8434083 c -1.1513418,-0.04745 -2.239751,0.096717 -3.57982699,0.4715167 -0.13717611,0.03837 -0.27205717,0.07891 -0.37721318,0.110944 -0.052578,0.01602 -0.0986945,0.0293 -0.13313406,0.04068 -0.0172198,0.0057 -0.0305432,0.01152 -0.044378,0.01664 -0.006918,0.0026 -0.0131059,0.0035 -0.022189,0.0074 -0.004541,0.002 -0.01069,0.0053 -0.0184909,0.0093 -0.005644,0.0028 -0.0196387,0.01191 -0.0295853,0.01849 -0.006594,0.0068 -0.0665019,0.07016 -0.06656703,0.07027 -6.862e-5,1.12e-4 -0.02398922,0.05531 -0.02403807,0.05547 -9.777e-5,3.26e-4 -0.0105698785,0.04624 -0.0110945568,0.05917 -0.001048978,0.02586 5.2238728e-4,0.03662 0.001848967,0.04623 0.00265369,0.01922 0.0065438,0.02998 0.00924577,0.04068 0.0054039,0.0214 0.01109096,0.04129 0.01849089,0.06287 v 0.0019 c 0.01262826,0.03565 0.02080802,0.07815 0.08505792,0.138682 0.0642499,0.06052 0.21305636,0.07635 0.27366446,0.05362 l 0.001849,-0.0019 h 0.001849 c -0.003277,0.0013 0.22089346,-0.06957 0.4326857,-0.129436 C 1.0368268,10.856065 1.2702048,10.792987 1.3945525,10.762462 2.3327253,10.533753 3.0585337,10.44257 3.909307,10.44257 c 0.7433974,-9.28e-4 1.3346506,0.06583 2.0617289,0.234833 0.083267,0.01947 0.1599923,0.03649 0.2181919,0.04807 0.0291,0.0058 0.052812,0.0096 0.073963,0.01294 0.010575,0.0017 0.019871,0.0043 0.033283,0.0056 0.0067,6.54e-4 0.014185,0.0019 0.029585,0.0019 0.0077,-2.7e-5 0.034733,-0.0036 0.035132,-0.0037 1.999e-4,-2.9e-5 0.038693,-0.0092 0.038831,-0.0093 1.374e-4,-4.4e-5 0.075738,-0.04062 0.075812,-0.04068 l 0.00925,-0.0074 0.00925,-0.0093 c 2.366e-4,-2.37e-4 0.027071,-0.0327 0.033283,-0.04253 0.00621,-0.0098 0.010027,-0.01632 0.012944,-0.02219 0.00583,-0.01174 0.00861,-0.01937 0.011095,-0.02588 0.00498,-0.01304 0.00826,-0.02188 0.011095,-0.03143 0.00565,-0.01911 0.010364,-0.03892 0.014793,-0.05917 v -0.0019 l 0.00185,-0.0037 c 0.0029,-0.01526 0.0089,-0.03381 0.00739,-0.08321 -0.00151,-0.0494 -0.036037,-0.144259 -0.088756,-0.190455 -0.105438,-0.09239 -0.1401256,-0.06838 -0.1904556,-0.07951 -0.053978,-0.01189 -0.2107899,-0.04745 -0.3457788,-0.07766 h -0.00185 C 5.4255863,9.935601 4.8946491,9.8666098 4.30686,9.8434083 Z m 7.787101,0.1590207 c -0.710003,9.47e-4 -1.038628,0.02872 -1.649384,0.134984 h -0.0019 c -0.160904,0.02836 -0.357433,0.06907 -0.5214406,0.105397 -0.082005,0.01817 -0.1548688,0.03528 -0.212645,0.04992 -0.028889,0.0073 -0.053608,0.01372 -0.075812,0.02034 -0.022205,0.0066 -0.022443,-0.005 -0.088756,0.03513 v 0.0019 c -0.062375,0.03811 -0.1218502,0.137126 -0.1275868,0.205248 -0.00574,0.06813 0.0089,0.106215 0.02034,0.14053 0,0 0.06937,0.131414 0.1496317,0.176824 0.1072101,0.06066 0.2904498,-0.0011 0.2904498,-0.0011 0.2481069,-0.06045 0.6777769,-0.14404 0.9337869,-0.18121 0.537255,-0.07621 0.65928,-0.0823 1.340586,-0.08136 0.571016,9.42e-4 0.702112,0.0055 0.98926,0.04068 h 0.0019 c 0.710789,0.08596 1.521028,0.263672 2.292864,0.50295 0.05349,0.01681 0.104863,0.03153 0.147927,0.04253 0.02153,0.0055 0.03982,0.01098 0.05917,0.0148 0.01935,0.0038 0.0063,0.01724 0.09985,0.0056 h 0.0019 c 0.133795,-0.01784 0.161212,-0.08287 0.184908,-0.116492 0.0237,-0.03363 0.0353,-0.06086 0.04623,-0.0906 0.01093,-0.02974 0.02099,-0.05841 0.02404,-0.103548 0.0015,-0.02257 0.0016,-0.05135 -0.0093,-0.09246 -0.01082,-0.04111 -0.04027,-0.106759 -0.110944,-0.149776 h -0.0019 l -0.0019,-0.0019 c -0.04444,-0.02605 -0.04163,-0.0204 -0.05178,-0.02404 -0.01015,-0.0036 -0.01999,-0.0056 -0.03143,-0.0093 -0.02288,-0.0074 -0.05088,-0.01752 -0.08506,-0.02774 -0.06836,-0.02042 -0.158698,-0.04564 -0.258871,-0.07397 -0.200345,-0.05667 -0.438622,-0.122 -0.612047,-0.166442 -1.036248,-0.267226 -1.739624,-0.358798 -2.74212,-0.356878 z m -2.2540332,0.392006 0.00185,0.0037 c -0.023343,0.0054 -0.056113,0.0095 -0.077661,0.0148 z m -5.8344685,0.621292 c -1.2892464,0.09056 -2.3001389,0.466641 -3.35793691,1.244434 -0.24972735,0.201255 -0.26079445,0.348829 -0.16826665,0.497404 0.0775565,0.124536 0.26788025,0.123319 0.43638386,0.05733 0.9103984,-0.694076 1.7386973,-1.037606 2.8143061,-1.168622 0.4382926,-0.05359 1.4931578,-0.05409 2.327997,0.0056 l 0.4178931,0.02774 V 11.36155 11.071245 L 6.0505464,11.045313 C 5.196301,10.992873 4.4948882,10.981191 4.0054593,11.015727 Z m 6.2172287,0.166418 c -0.2526273,-0.0062 -0.4528787,0.0056 -0.7124239,0.02419 0,0 0.02045,0.30349 0.017165,0.314205 v 0.308785 l 0.4918569,-0.02774 c 0.132715,-0.0076 0.378215,-0.02008 0.545479,-0.02958 0.399004,-0.02278 1.118163,-0.02159 1.399756,0 0.489425,0.03821 0.9134,0.148972 1.33319,0.28291 0.161911,0.05195 0.333434,0.113489 0.490007,0.181211 0.414262,0.179133 0.818426,0.384837 1.23519,0.691556 0.05851,0.04304 0.07993,0.06972 0.168265,0.1017 0.04417,0.01599 0.127252,0.02451 0.188607,0.0019 0.06054,-0.02236 0.0845,-0.05039 0.098,-0.06287 0.02842,-0.02558 0.04794,-0.04985 0.06656,-0.07951 0.01863,-0.02967 0.04623,-0.0492 0.04623,-0.151626 0,-7.98e-4 -0.0053,-0.05558 -0.0111,-0.07397 -0.0058,-0.01838 -0.01273,-0.03162 -0.01849,-0.04253 -0.01152,-0.02182 -0.02098,-0.0336 -0.02959,-0.04438 -0.01721,-0.02156 -0.02972,-0.03631 -0.04437,-0.04992 -0.02931,-0.02724 -0.0634,-0.05266 -0.103549,-0.08321 -0.07999,-0.06087 -0.188503,-0.137992 -0.323589,-0.227438 h -0.0019 c -0.330077,-0.219512 -0.882336,-0.429236 -1.217735,-0.577767 -0.55222,-0.24455 -0.816947,-0.321591 -1.546604,-0.444814 -0.399703,-0.04872 -1.464892,-0.04928 -2.070975,-0.0111 z m -5.8622045,0.645331 c -0.3442083,0.06215 -0.6800527,0.149752 -0.8901873,0.236135 -0.6471965,0.26605 -0.7647954,0.396724 -1.0290673,0.605267 -0.088704,0.07 -0.2106896,0.268066 -0.2188371,0.412976 -0.00573,0.101885 0.057872,0.219342 0.057872,0.219342 0.017461,0.01898 0.033625,0.03507 0.053624,0.05178 0.01,0.0083 0.020396,0.01621 0.038831,0.02774 0.00922,0.0058 0.019669,0.01183 0.04068,0.02034 0.010505,0.0043 0.043888,0.01469 0.044378,0.0148 4.489e-4,9.1e-5 0.066938,-1.7e-4 0.07951,0 0.015138,-0.002 0.029511,-0.0037 0.029585,-0.0037 1.517e-4,-4.2e-5 0.029386,-0.01101 0.029585,-0.0111 3.988e-4,-1.64e-4 0.020242,-0.008 0.025887,-0.0111 0.011291,-0.0062 0.017112,-0.01139 0.02219,-0.0148 0.010154,-0.0068 0.01765,-0.01231 0.025887,-0.01849 0.016474,-0.01236 0.034797,-0.02634 0.057322,-0.04437 0.045049,-0.03609 0.1033123,-0.08384 0.1664175,-0.136832 0.362184,-0.303234 0.6752614,-0.497064 1.0132981,-0.617594 0.00839,-0.0028 0.017474,-0.01016 0.025888,-0.01294 0.344592,-0.118429 0.7151676,-0.15729 1.188961,-0.14053 0.1803262,0.0063 0.451621,0.02432 0.5787634,0.03883 h 0.00185 c 0.1392338,0.01505 0.3094175,0.03338 0.3883077,0.04068 0,0 0.2204134,-0.0056 0.3184968,-0.102818 0.083061,-0.08235 0.062414,-0.205978 0.062414,-0.205978 v -0.0019 c 2.498e-4,0.0025 0.018679,-0.04018 -0.036982,-0.136832 C 6.3794973,11.939732 6.2874552,11.911791 6.2354562,11.89955 6.1314585,11.87507 6.0138761,11.86642 5.7343544,11.83668 5.3250546,11.79412 4.8067007,11.77118 4.3604849,11.82738 c -2e-5,3e-6 1.5e-6,6.1e-5 2.1e-6,6.1e-5 z m 6.6536125,0.144228 c -0.411702,0 -0.648637,0.01008 -0.86907,0.03513 h -0.0019 c -0.2138253,0.02502 -0.3015383,0.02844 -0.4049048,0.05917 -0.051683,0.01537 -0.1489391,0.06621 -0.1886066,0.159022 -0.039667,0.09281 -0.022189,0.129238 -0.022189,0.136832 0,0.01703 -0.00221,0.03393 0.00185,0.06656 0.00405,0.03263 0.015659,0.102421 0.085058,0.16457 0.069399,0.06214 0.1497904,0.06593 0.1849084,0.06472 0.031157,-10e-4 0.044559,-0.0028 0.059171,-0.0056 l 0.00739,-0.0019 c 0.028639,-0.0039 0.171143,-0.02064 0.310646,-0.03513 1.520883,-0.163816 2.089133,-0.01218 3.050989,0.811748 0,0 0.0013,-2.83e-4 0.0019,0 0.17407,0.0873 0.253553,0.274013 0.495554,0.02774 0.105882,-0.107753 0.08784,-0.274599 -0.05917,-0.449327 -0.641686,-0.554051 -1.192666,-0.855782 -1.832442,-0.985562 -0.201299,-0.04145 -0.309534,-0.04902 -0.819144,-0.04808 z m 2.46298,1.046581 0.05733,0.04807 c -0.02252,-0.01929 -0.04423,-0.01832 -0.06657,-0.03698 z"/>
</svg>
