<svg xmlns="http://www.w3.org/2000/svg" width="16" height="16" version="1.1">
 <defs>
   <style id="current-color-scheme" type="text/css">
   .ColorScheme-Text { color: #939597; } .ColorScheme-Highlight { color:#5294e2; }
  </style>
  <linearGradient id="arrongin" x1="0%" x2="0%" y1="0%" y2="100%">
   <stop offset="0%" style="stop-color:#dd9b44; stop-opacity:1"/>
   <stop offset="100%" style="stop-color:#ad6c16; stop-opacity:1"/>
  </linearGradient>
  <linearGradient id="aurora" x1="0%" x2="0%" y1="0%" y2="100%">
   <stop offset="0%" style="stop-color:#09D4DF; stop-opacity:1"/>
   <stop offset="100%" style="stop-color:#9269F4; stop-opacity:1"/>
  </linearGradient>
  <linearGradient id="cyberneon" x1="0%" x2="0%" y1="0%" y2="100%">
    <stop offset="0" style="stop-color:#0abdc6; stop-opacity:1"/>
    <stop offset="1" style="stop-color:#ea00d9; stop-opacity:1"/>
  </linearGradient>
  <linearGradient id="fitdance" x1="0%" x2="0%" y1="0%" y2="100%">
   <stop offset="0%" style="stop-color:#1AD6AB; stop-opacity:1"/>
   <stop offset="100%" style="stop-color:#329DB6; stop-opacity:1"/>
  </linearGradient>
  <linearGradient id="oomox" x1="0%" x2="0%" y1="0%" y2="100%">
   <stop offset="0%" style="stop-color:#f27979; stop-opacity:1"/>
   <stop offset="100%" style="stop-color:#9e2121; stop-opacity:1"/>
  </linearGradient>
  <linearGradient id="rainblue" x1="0%" x2="0%" y1="0%" y2="100%">
   <stop offset="0%" style="stop-color:#00F260; stop-opacity:1"/>
   <stop offset="100%" style="stop-color:#0575E6; stop-opacity:1"/>
  </linearGradient>
  <linearGradient id="sunrise" x1="0%" x2="0%" y1="0%" y2="100%">
   <stop offset="0%" style="stop-color: #FF8501; stop-opacity:1"/>
   <stop offset="100%" style="stop-color: #FFCB01; stop-opacity:1"/>
  </linearGradient>
  <linearGradient id="telinkrin" x1="0%" x2="0%" y1="0%" y2="100%">
   <stop offset="0%" style="stop-color: #b2ced6; stop-opacity:1"/>
   <stop offset="100%" style="stop-color: #6da5b7; stop-opacity:1"/>
  </linearGradient>
  <linearGradient id="60spsycho" x1="0%" x2="0%" y1="0%" y2="100%">
   <stop offset="0%" style="stop-color: #df5940; stop-opacity:1"/>
   <stop offset="25%" style="stop-color: #d8d15f; stop-opacity:1"/>
   <stop offset="50%" style="stop-color: #e9882a; stop-opacity:1"/>
   <stop offset="100%" style="stop-color: #279362; stop-opacity:1"/>
  </linearGradient>
  <linearGradient id="90ssummer" x1="0%" x2="0%" y1="0%" y2="100%">
   <stop offset="0%" style="stop-color: #f618c7; stop-opacity:1"/>
   <stop offset="20%" style="stop-color: #94ffab; stop-opacity:1"/>
   <stop offset="50%" style="stop-color: #fbfd54; stop-opacity:1"/>
   <stop offset="100%" style="stop-color: #0f83ae; stop-opacity:1"/>
  </linearGradient>
 </defs>
 <path fill="url(#oomox)" class="ColorScheme-Text" d="M 12.006 7 C 13.264 7.015 14.185 6.969 14.938 7.385 C 15.314 7.592 15.611 7.944 15.775 8.383 C 15.94 8.821 16 9.342 16 10 L 16 12 C 16 12.658 15.94 13.179 15.775 13.617 C 15.611 14.056 15.314 14.408 14.938 14.615 C 14.185 15.031 13.264 14.985 12.006 15 L 12.002 15 L 9.998 15 L 9.994 15 C 8.736 14.985 7.815 15.031 7.062 14.615 C 6.686 14.408 6.389 14.056 6.224 13.617 C 6.06 13.179 6 12.658 6 12 L 6 10 C 6 9.342 6.06 8.821 6.225 8.383 C 6.389 7.944 6.686 7.592 7.063 7.385 C 7.815 6.969 8.736 7.015 9.994 7 L 9.998 7 L 12.002 7 L 12.006 7 Z M 12 8 L 11.994 8 L 10 8 C 8.741 8.015 7.913 8.06 7.547 8.262 C 7.363 8.363 7.258 8.474 7.16 8.734 C 7.063 8.994 7 9.408 7 10 L 7 12 C 7 12.592 7.063 13.006 7.16 13.266 C 7.258 13.526 7.362 13.637 7.545 13.738 C 7.911 13.94 8.741 13.985 10 14 L 11.994 14 L 12 14 C 13.259 13.985 14.089 13.94 14.455 13.738 C 14.638 13.637 14.742 13.526 14.84 13.266 C 14.937 13.006 15 12.592 15 12 L 15 10 C 15 9.408 14.937 8.994 14.84 8.734 C 14.742 8.474 14.638 8.363 14.455 8.262 C 14.089 8.06 13.259 8.015 12 8 L 12 8 Z"/>
 <path fill="url(#oomox)" class="ColorScheme-Text" opacity="0.6" d="m 9.006,2 c 1.258,0.015 2.179,-0.031 2.932,0.385 0.376,0.207 0.673,0.559 0.837,0.998 C 12.94,3.821 13,4.342 13,5 V 6 H 12 V 5 C 12,4.408 11.937,3.994 11.84,3.734 11.742,3.474 11.638,3.363 11.455,3.262 11.089,3.06 10.259,3.015 9,3 H 5.5 4 C 2.741,3.015 1.913,3.06 1.547,3.262 1.363,3.363 1.258,3.474 1.16,3.734 1.063,3.994 1,4.408 1,5 v 4 c 0,0.592 0.063,1.006 0.16,1.266 0.098,0.26 0.202,0.371 0.385,0.472 0.367,0.203 1.197,0.247 2.461,0.262 H 5 v 1 H 3.998 3.994 C 2.736,11.985 1.815,12.031 1.062,11.615 0.686,11.408 0.389,11.056 0.225,10.617 0.06,10.179 0,9.658 0,9 V 5 C 0,4.342 0.06,3.821 0.225,3.383 0.389,2.944 0.686,2.592 1.063,2.385 1.815,1.969 2.736,2.015 3.994,2 H 3.998 5.5 9.002 Z"/>
</svg>
