<svg xmlns="http://www.w3.org/2000/svg" width="32" height="32" version="1.1">
 <defs>
  <style id="current-color-scheme" type="text/css">
   .ColorScheme-Text { color: #ececec; } .ColorScheme-Highlight { color: #1AD6AB; }
  </style>
  <linearGradient id="arrongin" x1="0%" x2="0%" y1="0%" y2="100%">
   <stop offset="0%"   stop-color="#dd9b44"/>
   <stop offset="100%" stop-color="#ad6c16"/>
  </linearGradient>
  <linearGradient id="aurora" x1="0%" x2="0%" y1="0%" y2="100%">
   <stop offset="0%"    stop-color="#09D4DF"/>
   <stop offset="100%" stop-color="#9269F4"/>
  </linearGradient>
  <linearGradient id="cyberblue" x1="0%" x2="0%" y1="0%" y2="100%">
   <stop offset="0%"   stop-color="#07B3FF"/>
   <stop offset="100%" stop-color="#007DE8"/>
  </linearGradient>
  <linearGradient id="cyberneon" x1="0%" x2="0%" y1="0%" y2="100%">
   <stop offset="0%"   stop-color="#0abdc6"/>
   <stop offset="100%" stop-color="#ea00d9"/>
  </linearGradient>
  <linearGradient id="fitdance" x1="0%" x2="0%" y1="0%" y2="100%">
   <stop offset="0%"   stop-color="#1AD6AB"/>
   <stop offset="100%" stop-color="#329DB6"/>
  </linearGradient>
  <linearGradient id="oomox" x1="0%" x2="0%" y1="0%" y2="100%">
   <stop offset="0%"   stop-color="#efefe7"/>
   <stop offset="100%" stop-color="#8f8f8b"/>
  </linearGradient>
  <linearGradient id="rainblue" x1="0%" x2="0%" y1="0%" y2="100%">
   <stop offset="0%"   stop-color="#00F260"/>
   <stop offset="100%" stop-color="#0575E6"/>
  </linearGradient>
  <linearGradient id="redcarbon" x1="0%" x2="100%" y1="0%" y2="100%">
   <stop offset="0%"   stop-color="#FF6D57"/>
   <stop offset="50%"  stop-color="#FF5160"/>
   <stop offset="100%" stop-color="#F50F22"/>
  </linearGradient>
  <linearGradient id="sunrise" x1="0%" x2="0%" y1="0%" y2="100%">
   <stop offset="0%"   stop-color="#FF8501"/>
   <stop offset="100%" stop-color="#FFCB01"/>
  </linearGradient>
  <linearGradient id="telinkrin" x1="0%" x2="0%" y1="0%" y2="100%">
   <stop offset="0%"   stop-color="#b2ced6"/>
   <stop offset="100%" stop-color="#6da5b7"/>
  </linearGradient>
  <linearGradient id="60spsycho" x1="0%" x2="0%" y1="0%" y2="100%">
   <stop offset="0%"   stop-color="#df5940"/>
   <stop offset="25%"  stop-color="#d8d15f"/>
   <stop offset="50%"  stop-color="#e9882a"/>
   <stop offset="100%" stop-color="#279362"/>
  </linearGradient>
  <linearGradient id="90ssummer" x1="0%" x2="0%" y1="0%" y2="100%">
   <stop offset="0%"   stop-color="#f618c7"/>
   <stop offset="20%"  stop-color="#94ffab"/>
   <stop offset="50%"  stop-color="#fbfd54"/>
   <stop offset="100%" stop-color="#0f83ae"/>
  </linearGradient>
  <linearGradient id="pause" x1="0" x2="0" y1="0" y2="1" gradientTransform="matrix(4,0,0,12,14,5.734)" gradientUnits="userSpaceOnUse">
   <stop offset="0%"   stop-color="#f06"/>
   <stop offset="100%" stop-color="#dc1499"/>
  </linearGradient>
  <linearGradient id="squircle" x1="0" x2="0" y1="0" y2="1" gradientTransform="matrix(24,0,0,22.401,0,0.533)" gradientUnits="userSpaceOnUse">
   <stop offset="0%"   stop-color="#4c5561"/>
   <stop offset="100%" stop-color="#2e3842"/>
  </linearGradient>
 </defs>
 <path fill="url(#squircle)" d="m29 23.75v-15.5c0-0.6925-0.5798-1.25-1.3-1.25h-23.4c-0.7202 0-1.3 0.5575-1.3 1.25v15.5c0 0.6925 0.5798 1.25 1.3 1.25h23.4c0.7202 0 1.3-0.5575 1.3-1.25z"/>
 <path fill="#1e1e1e" opacity="0.5" d="m27 23v-14h-22v14z"/>
 <path fill="#efefef" opacity="0.2" d="m4.3009 7c-0.7202 0-1.3008 0.5575-1.3008 1.25v1c0-0.6925 0.5806-1.25 1.3008-1.25h23.398c0.72 0 1.301 0.5575 1.301 1.25v-1c0-0.6925-0.581-1.25-1.301-1.25z"/>
 <path fill="#1e1e1e" opacity="0.2" d="m3.0001 23.75v1c0 0.692 0.5806 1.25 1.3008 1.25h23.398c0.72 0 1.301-0.558 1.301-1.25v-1c0 0.692-0.581 1.25-1.301 1.25h-23.398c-0.7204 0-1.301-0.558-1.301-1.25z"/>
 <path fill="#1e1e1e" opacity="0.2" d="m 13.300782,10.300906 c -0.02881,-0.0069 -0.05873,-0.0021 -0.08398,0.01563 -0.051,0.033 -0.06048,0.105656 -0.02148,0.160156 l 0.646484,0.921875 c -1.027501,0.469 -1.749798,1.562563 -1.841798,2.601563 h 7 c -0.09195,-1.038474 -0.811222,-2.134164 -1.837891,-2.601563 l 0.646485,-0.921875 c 0.039,-0.0545 0.02752,-0.125156 -0.02149,-0.160156 -0.051,-0.035 -0.123109,-0.01739 -0.162109,0.03711 l -0.669922,0.957031 c -0.4435,-0.172 -0.935625,-0.267578 -1.453125,-0.267578 -0.5175,0 -1.010125,0.09558 -1.453125,0.267578 l -0.67187,-0.957031 c -0.0195,-0.02725 -0.04736,-0.04586 -0.07617,-0.05273 z m 0.724609,1.990234 c 0.215,0 0.386718,0.169906 0.386718,0.378906 0,0.209 -0.174218,0.38086 -0.386718,0.38086 -0.215,0 -0.388672,-0.16986 -0.388672,-0.38086 0,-0.209 0.174172,-0.378906 0.388672,-0.378906 z m 3,0 c 0.213,0 0.386718,0.169906 0.386718,0.378906 0,0.209 -0.174218,0.38086 -0.386718,0.38086 -0.215,0 -0.388672,-0.16986 -0.388672,-0.38086 0,-0.209 0.174172,-0.378906 0.388672,-0.378906 z m -5.023438,2.708985 v 4.79675 c 0,0.344 0.16,0.703125 0.5,0.703125 H 14 v 1.6875 C 14,22.6365 14,23 14.5,23 15,23 15.001953,22.6365 15.001953,22.1875 V 20.5 h 1 v 1.6875 C 16.001953,22.6365 15.962933,23 16.5,23 17,23 17,22.750436 17,22.1875 V 20.5 h 1.503906 c 0.338,0 0.5,-0.35965 0.5,-0.703125 v -4.79675 z m -1.478515,0.0019 C 10.000548,15.000625 10,15.379418 10,15.845778 v 2.30847 c 0,0.46686 5.48e-4,0.84919 0.523438,0.847656 C 11.000548,19.000504 11,18.620608 11,18.154248 v -2.30847 c 0,-0.46686 5.48e-4,-0.84515 -0.476562,-0.84375 z m 9.955078,0 C 20.000038,15.000625 20,15.379418 20,15.845778 v 2.30847 c 0,0.46686 3.8e-5,0.84894 0.478516,0.847656 C 21.000038,19.000504 21,18.620608 21,18.154248 v -2.30847 c 0,-0.46686 3.8e-5,-0.84515 -0.521484,-0.84375 z"/>
 <path fill="url(#fitdance)" d="m 13.300782,9.3009057 c -0.02881,-0.00687 -0.05873,-0.00212 -0.08398,0.015625 -0.051,0.033 -0.06048,0.1056563 -0.02148,0.1601563 l 0.646484,0.921875 c -1.027501,0.469 -1.749798,1.562563 -1.841798,2.601563 h 7 c -0.09195,-1.038474 -0.811222,-2.134164 -1.837891,-2.601563 l 0.646485,-0.921875 c 0.039,-0.0545 0.02752,-0.1251562 -0.02149,-0.1601563 -0.051,-0.035 -0.123109,-0.017391 -0.162109,0.037109 l -0.669922,0.9570313 c -0.4435,-0.172 -0.935625,-0.267578 -1.453125,-0.267578 -0.5175,0 -1.010125,0.09558 -1.453125,0.267578 l -0.67187,-0.9570309 c -0.0195,-0.02725 -0.04736,-0.045859 -0.07617,-0.052734 z m 0.724609,1.9902343 c 0.215,0 0.386718,0.169906 0.386718,0.378906 0,0.209 -0.174218,0.38086 -0.386718,0.38086 -0.215,0 -0.388672,-0.16986 -0.388672,-0.38086 0,-0.209 0.174172,-0.378906 0.388672,-0.378906 z m 3,0 c 0.213,0 0.386718,0.169906 0.386718,0.378906 0,0.209 -0.174218,0.38086 -0.386718,0.38086 -0.215,0 -0.388672,-0.16986 -0.388672,-0.38086 0,-0.209 0.174172,-0.378906 0.388672,-0.378906 z m -5.023438,2.708985 v 4.79675 c 0,0.344 0.16,0.703125 0.5,0.703125 H 14 v 1.6875 C 14,21.6365 14,22 14.5,22 15,22 15.001953,21.6365 15.001953,21.1875 V 19.5 h 1 v 1.6875 C 16.001953,21.6365 15.962933,22 16.5,22 17,22 17,21.750436 17,21.1875 V 19.5 h 1.503906 c 0.338,0 0.5,-0.35965 0.5,-0.703125 v -4.79675 z m -1.478515,0.0019 C 10.000548,14.000625 10,14.379418 10,14.845778 v 2.30847 c 0,0.46686 5.48e-4,0.84919 0.523438,0.847656 C 11.000548,18.000504 11,17.620608 11,17.154248 v -2.30847 c 0,-0.46686 5.48e-4,-0.84515 -0.476562,-0.84375 z m 9.955078,0 C 20.000038,14.000625 20,14.379418 20,14.845778 v 2.30847 c 0,0.46686 3.8e-5,0.84894 0.478516,0.847656 C 21.000038,18.000504 21,17.620608 21,17.154248 v -2.30847 c 0,-0.46686 3.8e-5,-0.84515 -0.521484,-0.84375 z"/>
</svg>
