<svg xmlns="http://www.w3.org/2000/svg" width="24" height="24" version="1.1">
 <defs>
  <style id="current-color-scheme" type="text/css">
   .ColorScheme-Text { color: #d3dae3; } .ColorScheme-Highlight { color: #1AD6AB; }
  </style>
  <linearGradient id="arrongin" x1="0%" x2="0%" y1="0%" y2="100%">
   <stop offset="0%" style="stop-color:#dd9b44"/>
   <stop offset="100%" style="stop-color:#ad6c16"/>
  </linearGradient>
  <linearGradient id="aurora" x1="0%" x2="0%" y1="0%" y2="100%">
   <stop offset="0%" style="stop-color:#09D4DF"/>
   <stop offset="100%" style="stop-color:#9269F4"/>
  </linearGradient>
  <linearGradient id="cyberneon" x1="0%" x2="0%" y1="0%" y2="100%">
   <stop offset="0" style="stop-color:#0abdc6"/>
   <stop offset="1" style="stop-color:#ea00d9"/>
  </linearGradient>
  <linearGradient id="fitdance" x1="0%" x2="0%" y1="0%" y2="100%">
   <stop offset="0%" style="stop-color:#1AD6AB"/>
   <stop offset="100%" style="stop-color:#329DB6"/>
  </linearGradient>
  <linearGradient id="oomox" x1="0%" x2="0%" y1="0%" y2="100%">
   <stop offset="0%" style="stop-color:#a4d8d4"/>
   <stop offset="100%" style="stop-color:#318c85"/>
  </linearGradient>
  <linearGradient id="rainblue" x1="0%" x2="0%" y1="0%" y2="100%">
   <stop offset="0%" style="stop-color:#00F260"/>
   <stop offset="100%" style="stop-color:#0575E6"/>
  </linearGradient>
  <linearGradient id="sunrise" x1="0%" x2="0%" y1="0%" y2="100%">
   <stop offset="0%" style="stop-color:#FF8501"/>
   <stop offset="100%" style="stop-color:#FFCB01"/>
  </linearGradient>
  <linearGradient id="telinkrin" x1="0%" x2="0%" y1="0%" y2="100%">
   <stop offset="0%" style="stop-color:#b2ced6"/>
   <stop offset="100%" style="stop-color:#6da5b7"/>
  </linearGradient>
  <linearGradient id="60spsycho" x1="0%" x2="0%" y1="0%" y2="100%">
   <stop offset="0%" style="stop-color:#df5940"/>
   <stop offset="25%" style="stop-color:#d8d15f"/>
   <stop offset="50%" style="stop-color:#e9882a"/>
   <stop offset="100%" style="stop-color:#279362"/>
  </linearGradient>
  <linearGradient id="90ssummer" x1="0%" x2="0%" y1="0%" y2="100%">
   <stop offset="0%" style="stop-color:#f618c7"/>
   <stop offset="20%" style="stop-color:#94ffab"/>
   <stop offset="50%" style="stop-color:#fbfd54"/>
   <stop offset="100%" style="stop-color:#0f83ae"/>
  </linearGradient>
 </defs>
 <g>
  <path fill="url(#oomox)" class="ColorScheme-Text" d="m 3.9995243,17.203 0,0.547 c 0,1.212 1.0381,2.25 2.25,2.25 l 11.4999997,0 c 1.212,0 2.25,-1.038 2.25,-2.25 l 0,-0.547 c -0.532,0.485 -1.225,0.797 -2,0.797 L 5.9995243,18 c -0.7746,0 -1.4684,-0.312 -2,-0.797 z m 3,-13.203 a 2.0002,2.0002 0 0 0 -1.9883,1.7793 l -1,8.9997 a 2.0002,2.0002 0 0 0 1.9883,2.221 l 11.9999997,0 a 2.0002,2.0002 0 0 0 1.988,-2.221 l -1,-8.9997 A 2.0002,2.0002 0 0 0 16.999524,4 L 6.9995243,4 Z m 4.9859997,2 a 0.50005,0.50005 0 0 1 0.496,0.3477 l 0.87,2.7148 2.851,0 a 0.50005,0.50005 0 0 1 0.293,0.9063 l -2.314,1.6662 0.88,2.711 a 0.50005,0.50005 0 0 1 -0.769,0.556 l -2.301,-1.683 -2.3044997,1.676 a 0.50005,0.50005 0 0 1 -0.7695,-0.563 l 0.8906,-2.707 -2.3047,-1.6758 a 0.50005,0.50005 0 0 1 0.2949,-0.9043 l 2.8511997,0.0137 0.881,-2.7129 A 0.50005,0.50005 0 0 1 11.985524,6 Z"/>
 </g>
</svg>
