<svg xmlns="http://www.w3.org/2000/svg" width="24" height="24" version="1.1">
 <defs>
  <style id="current-color-scheme" type="text/css">
   .ColorScheme-Text { color: #d3dae3; } .ColorScheme-Highlight { color: #1AD6AB; }
  </style>
  <linearGradient id="arrongin" x1="0%" x2="0%" y1="0%" y2="100%">
   <stop offset="0%" style="stop-color:#dd9b44"/>
   <stop offset="100%" style="stop-color:#ad6c16"/>
  </linearGradient>
  <linearGradient id="aurora" x1="0%" x2="0%" y1="0%" y2="100%">
   <stop offset="0%" style="stop-color:#09D4DF"/>
   <stop offset="100%" style="stop-color:#9269F4"/>
  </linearGradient>
  <linearGradient id="cyberneon" x1="0%" x2="0%" y1="0%" y2="100%">
   <stop offset="0" style="stop-color:#0abdc6"/>
   <stop offset="1" style="stop-color:#ea00d9"/>
  </linearGradient>
  <linearGradient id="fitdance" x1="0%" x2="0%" y1="0%" y2="100%">
   <stop offset="0%" style="stop-color:#1AD6AB"/>
   <stop offset="100%" style="stop-color:#329DB6"/>
  </linearGradient>
  <linearGradient id="oomox" x1="0%" x2="0%" y1="0%" y2="100%">
   <stop offset="0%" style="stop-color:#a4d8d4"/>
   <stop offset="100%" style="stop-color:#318c85"/>
  </linearGradient>
  <linearGradient id="rainblue" x1="0%" x2="0%" y1="0%" y2="100%">
   <stop offset="0%" style="stop-color:#00F260"/>
   <stop offset="100%" style="stop-color:#0575E6"/>
  </linearGradient>
  <linearGradient id="sunrise" x1="0%" x2="0%" y1="0%" y2="100%">
   <stop offset="0%" style="stop-color:#FF8501"/>
   <stop offset="100%" style="stop-color:#FFCB01"/>
  </linearGradient>
  <linearGradient id="telinkrin" x1="0%" x2="0%" y1="0%" y2="100%">
   <stop offset="0%" style="stop-color:#b2ced6"/>
   <stop offset="100%" style="stop-color:#6da5b7"/>
  </linearGradient>
  <linearGradient id="60spsycho" x1="0%" x2="0%" y1="0%" y2="100%">
   <stop offset="0%" style="stop-color:#df5940"/>
   <stop offset="25%" style="stop-color:#d8d15f"/>
   <stop offset="50%" style="stop-color:#e9882a"/>
   <stop offset="100%" style="stop-color:#279362"/>
  </linearGradient>
  <linearGradient id="90ssummer" x1="0%" x2="0%" y1="0%" y2="100%">
   <stop offset="0%" style="stop-color:#f618c7"/>
   <stop offset="20%" style="stop-color:#94ffab"/>
   <stop offset="50%" style="stop-color:#fbfd54"/>
   <stop offset="100%" style="stop-color:#0f83ae"/>
  </linearGradient>
 </defs>
 <path fill="url(#oomox)" class="ColorScheme-Text" d="m7.3482 4a0.25823 0.25823 0 0 0 -0.2542 0.2623v1.5674c-0.6493 0.1087-1.156 0.6154-1.2648 1.2647h-1.5674a0.25823 0.25823 0 1 0 0 0.5164h1.5411v2.582h-1.5411a0.25823 0.25823 0 1 0 0 0.5164h1.5411v2.582h-1.5411a0.25823 0.25823 0 1 0 0 0.5164h1.5411v2.582h-1.5411a0.25823 0.25823 0 1 0 0 0.5164h1.5674c0.10876 0.64926 0.61551 1.156 1.2648 1.2648v1.5674a0.25823 0.25823 0 1 0 0.5164 0v-1.5411h2.582v1.5411a0.25823 0.25823 0 1 0 0.5164 0v-1.5411h2.582v1.5411a0.25823 0.25823 0 1 0 0.5164 0v-1.5411h2.582v1.5411a0.25823 0.25823 0 1 0 0.5164 0v-1.5674c0.64926-0.10876 1.156-0.61551 1.2648-1.2648h1.5674a0.25823 0.25823 0 0 0 0.26223 -0.26223 0.25823 0.25823 0 0 0 -0.26223 -0.25417h-1.5411v-2.582h1.5411a0.25823 0.25823 0 0 0 0.26223 -0.26223 0.25823 0.25823 0 0 0 -0.26223 -0.25417h-1.5411v-2.582h1.5411a0.25823 0.25823 0 0 0 0.26223 -0.26223 0.25823 0.25823 0 0 0 -0.26223 -0.25417h-1.5411v-2.582h1.5411a0.25823 0.25823 0 0 0 0.264 -0.2624 0.25823 0.25823 0 0 0 -0.262 -0.2542h-1.5674c-0.109-0.6493-0.616-1.156-1.265-1.2648v-1.5674a0.25823 0.25823 0 0 0 -0.263 -0.2622 0.25823 0.25823 0 0 0 -0.254 0.2623v1.5411h-2.582v-1.5411a0.25823 0.25823 0 0 0 -0.262 -0.2623 0.25823 0.25823 0 0 0 -0.254 0.2623v1.5411h-2.582v-1.5411a0.25823 0.25823 0 0 0 -0.262 -0.2623 0.25823 0.25823 0 0 0 -0.255 0.2623v1.5411h-2.582v-1.5411a0.25823 0.25823 0 0 0 -0.2618 -0.2623z"/>
</svg>
