<svg xmlns="http://www.w3.org/2000/svg" width="24" height="24" version="1.1">
 <defs>
  <style id="current-color-scheme" type="text/css">
   .ColorScheme-Text { color: #d3dae3; } .ColorScheme-Highlight { color: #1AD6AB; }
  </style>
  <linearGradient id="arrongin" x1="0%" x2="0%" y1="0%" y2="100%">
   <stop offset="0%" style="stop-color:#dd9b44"/>
   <stop offset="100%" style="stop-color:#ad6c16"/>
  </linearGradient>
  <linearGradient id="aurora" x1="0%" x2="0%" y1="0%" y2="100%">
   <stop offset="0%" style="stop-color:#09D4DF"/>
   <stop offset="100%" style="stop-color:#9269F4"/>
  </linearGradient>
  <linearGradient id="cyberneon" x1="0%" x2="0%" y1="0%" y2="100%">
   <stop offset="0" style="stop-color:#0abdc6"/>
   <stop offset="1" style="stop-color:#ea00d9"/>
  </linearGradient>
  <linearGradient id="fitdance" x1="0%" x2="0%" y1="0%" y2="100%">
   <stop offset="0%" style="stop-color:#1AD6AB"/>
   <stop offset="100%" style="stop-color:#329DB6"/>
  </linearGradient>
  <linearGradient id="oomox" x1="0%" x2="0%" y1="0%" y2="100%">
   <stop offset="0%" style="stop-color:#a4d8d4"/>
   <stop offset="100%" style="stop-color:#318c85"/>
  </linearGradient>
  <linearGradient id="rainblue" x1="0%" x2="0%" y1="0%" y2="100%">
   <stop offset="0%" style="stop-color:#00F260"/>
   <stop offset="100%" style="stop-color:#0575E6"/>
  </linearGradient>
  <linearGradient id="sunrise" x1="0%" x2="0%" y1="0%" y2="100%">
   <stop offset="0%" style="stop-color:#FF8501"/>
   <stop offset="100%" style="stop-color:#FFCB01"/>
  </linearGradient>
  <linearGradient id="telinkrin" x1="0%" x2="0%" y1="0%" y2="100%">
   <stop offset="0%" style="stop-color:#b2ced6"/>
   <stop offset="100%" style="stop-color:#6da5b7"/>
  </linearGradient>
  <linearGradient id="60spsycho" x1="0%" x2="0%" y1="0%" y2="100%">
   <stop offset="0%" style="stop-color:#df5940"/>
   <stop offset="25%" style="stop-color:#d8d15f"/>
   <stop offset="50%" style="stop-color:#e9882a"/>
   <stop offset="100%" style="stop-color:#279362"/>
  </linearGradient>
  <linearGradient id="90ssummer" x1="0%" x2="0%" y1="0%" y2="100%">
   <stop offset="0%" style="stop-color:#f618c7"/>
   <stop offset="20%" style="stop-color:#94ffab"/>
   <stop offset="50%" style="stop-color:#fbfd54"/>
   <stop offset="100%" style="stop-color:#0f83ae"/>
  </linearGradient>
 </defs>
 <path fill="url(#oomox)" class="ColorScheme-Text" opacity="0.3" d="m12 4a8 8 0 0 0 -8 8 8 8 0 0 0 8 8 8 8 0 0 0 8 -8 8 8 0 0 0 -8 -8zm0 2a6 6 0 0 1 4.486 2.0234 1.5 1.5 0 0 1 0.264 -0.0234 1.5 1.5 0 0 1 1.5 1.5 1.5 1.5 0 0 1 -0.434 1.053 6 6 0 0 1 0.184 1.447 6 6 0 0 1 -1.174 3.553 1.5 1.5 0 0 1 0.174 0.697 1.5 1.5 0 0 1 -1.5 1.5 1.5 1.5 0 0 1 -0.939 -0.332 6 6 0 0 1 -2.561 0.582 6 6 0 0 1 -5.1914 -3.002 1.5 1.5 0 0 1 -0.0586 0.002 1.5 1.5 0 0 1 -1.5 -1.5 1.5 1.5 0 0 1 0.75978 -1.3008 6 6 0 0 1 -0.0098 -0.19921 6 6 0 0 1 6 -6zm0 1a5 5 0 0 0 -5 5 5 5 0 0 0 0.0000029 0.02148 1.5 1.5 0 0 1 1.0645 0.76172l3.4609-0.55273a1.5 1.5 0 0 1 1.4746 -1.2305 1.5 1.5 0 0 1 0.79102 0.22656l1.543-1.2338a1.5 1.5 0 0 1 -0.084 -0.4922 1.5 1.5 0 0 1 0.352 -0.9648 5 5 0 0 0 -3.602 -1.5352zm3.959 3.7734-1.543 1.2344a1.5 1.5 0 0 1 0.08399 0.49219 1.5 1.5 0 0 1 -0.30078 0.89844l0.93359 1.3984a1.5 1.5 0 0 1 0.367 -0.046 1.5 1.5 0 0 1 0.59 0.121 5 5 0 0 0 0.91 -2.871 5 5 0 0 0 -0.10742 -1.0078 1.5 1.5 0 0 1 -0.14258 0.0078 1.5 1.5 0 0 1 -0.79102 -0.22656zm-4.2734 2.4434-3.4609 0.55469a1.5 1.5 0 0 1 -0.47852 0.84766 5 5 0 0 0 4.2539 2.3809 5 5 0 0 0 2.0332 -0.43945 1.5 1.5 0 0 1 -0.0332 -0.31055 1.5 1.5 0 0 1 0.30078 -0.89844l-0.93359-1.3984a1.5 1.5 0 0 1 -0.36719 0.04687 1.5 1.5 0 0 1 -1.3145 -0.7832z"/>
</svg>
