<svg xmlns="http://www.w3.org/2000/svg" width="24" height="24" version="1.1">
 <defs>
  <style id="current-color-scheme" type="text/css">
   .ColorScheme-Text { color: #d3dae3; } .ColorScheme-Highlight { color: #1AD6AB; }
  </style>
  <linearGradient id="arrongin" x1="0%" x2="0%" y1="0%" y2="100%">
   <stop offset="0%" style="stop-color:#dd9b44"/>
   <stop offset="100%" style="stop-color:#ad6c16"/>
  </linearGradient>
  <linearGradient id="aurora" x1="0%" x2="0%" y1="0%" y2="100%">
   <stop offset="0%" style="stop-color:#09D4DF"/>
   <stop offset="100%" style="stop-color:#9269F4"/>
  </linearGradient>
  <linearGradient id="cyberneon" x1="0%" x2="0%" y1="0%" y2="100%">
   <stop offset="0" style="stop-color:#0abdc6"/>
   <stop offset="1" style="stop-color:#ea00d9"/>
  </linearGradient>
  <linearGradient id="fitdance" x1="0%" x2="0%" y1="0%" y2="100%">
   <stop offset="0%" style="stop-color:#1AD6AB"/>
   <stop offset="100%" style="stop-color:#329DB6"/>
  </linearGradient>
  <linearGradient id="oomox" x1="0%" x2="0%" y1="0%" y2="100%">
   <stop offset="0%" style="stop-color:#a4d8d4"/>
   <stop offset="100%" style="stop-color:#318c85"/>
  </linearGradient>
  <linearGradient id="rainblue" x1="0%" x2="0%" y1="0%" y2="100%">
   <stop offset="0%" style="stop-color:#00F260"/>
   <stop offset="100%" style="stop-color:#0575E6"/>
  </linearGradient>
  <linearGradient id="sunrise" x1="0%" x2="0%" y1="0%" y2="100%">
   <stop offset="0%" style="stop-color:#FF8501"/>
   <stop offset="100%" style="stop-color:#FFCB01"/>
  </linearGradient>
  <linearGradient id="telinkrin" x1="0%" x2="0%" y1="0%" y2="100%">
   <stop offset="0%" style="stop-color:#b2ced6"/>
   <stop offset="100%" style="stop-color:#6da5b7"/>
  </linearGradient>
  <linearGradient id="60spsycho" x1="0%" x2="0%" y1="0%" y2="100%">
   <stop offset="0%" style="stop-color:#df5940"/>
   <stop offset="25%" style="stop-color:#d8d15f"/>
   <stop offset="50%" style="stop-color:#e9882a"/>
   <stop offset="100%" style="stop-color:#279362"/>
  </linearGradient>
  <linearGradient id="90ssummer" x1="0%" x2="0%" y1="0%" y2="100%">
   <stop offset="0%" style="stop-color:#f618c7"/>
   <stop offset="20%" style="stop-color:#94ffab"/>
   <stop offset="50%" style="stop-color:#fbfd54"/>
   <stop offset="100%" style="stop-color:#0f83ae"/>
  </linearGradient>
 </defs>
 <path fill="url(#oomox)" class="ColorScheme-Text" d="m 12.042968,4.0005166 a 1.7755,1.8191263 0 0 0 -0.93164,0.2441301 L 5.888672,7.3343655 A 1.7755,1.8191263 0 0 0 5,8.9104736 v 6.1794384 a 1.7755,1.8191263 0 0 0 0.888672,1.576108 l 5.222656,3.089718 a 1.7755,1.8191263 0 0 0 1.777344,0 L 18.111328,16.66602 A 1.7755,1.8191263 0 0 0 19,15.089912 V 8.9104736 A 1.7755,1.8191263 0 0 0 18.111328,7.3343655 L 12.888672,4.2446467 A 1.7755,1.8191263 0 0 0 12.042968,4.0024695 Z M 9.884765,8.0003545 c 0.835627,0 1.58821,0.4262017 2.115235,1.0722213 0.526889,-0.6460196 1.27963,-1.0722213 2.115233,-1.0722213 1.593357,0 2.884767,1.4699323 2.884767,3.2830705 0,0.487156 -0.08251,0.954497 -0.208984,1.40424 -0.06961,0.247482 0.989492,-2.218017 -0.226563,0.624975 C 15.348398,16.155632 12,17.99995 12,17.99995 c 0,0 -3.348376,-1.844269 -4.564453,-4.68731 C 7.329145,13.09028 7.208984,12.687665 7.208984,12.687665 7.076525,12.23999 7,11.770581 7,11.283425 7,9.4702868 8.291409,8.0003545 9.884765,8.0003545 Z"/>
</svg>
