<svg xmlns="http://www.w3.org/2000/svg" width="24" height="24" version="1.1">
 <defs>
  <style id="current-color-scheme" type="text/css">
   .ColorScheme-Text { color: #d3dae3; } .ColorScheme-Highlight { color: #1AD6AB; }
  </style>
  <linearGradient id="arrongin" x1="0%" x2="0%" y1="0%" y2="100%">
   <stop offset="0%" style="stop-color:#dd9b44"/>
   <stop offset="100%" style="stop-color:#ad6c16"/>
  </linearGradient>
  <linearGradient id="aurora" x1="0%" x2="0%" y1="0%" y2="100%">
   <stop offset="0%" style="stop-color:#09D4DF"/>
   <stop offset="100%" style="stop-color:#9269F4"/>
  </linearGradient>
  <linearGradient id="cyberneon" x1="0%" x2="0%" y1="0%" y2="100%">
   <stop offset="0" style="stop-color:#0abdc6"/>
   <stop offset="1" style="stop-color:#ea00d9"/>
  </linearGradient>
  <linearGradient id="fitdance" x1="0%" x2="0%" y1="0%" y2="100%">
   <stop offset="0%" style="stop-color:#1AD6AB"/>
   <stop offset="100%" style="stop-color:#329DB6"/>
  </linearGradient>
  <linearGradient id="oomox" x1="0%" x2="0%" y1="0%" y2="100%">
   <stop offset="0%" style="stop-color:#a4d8d4"/>
   <stop offset="100%" style="stop-color:#318c85"/>
  </linearGradient>
  <linearGradient id="rainblue" x1="0%" x2="0%" y1="0%" y2="100%">
   <stop offset="0%" style="stop-color:#00F260"/>
   <stop offset="100%" style="stop-color:#0575E6"/>
  </linearGradient>
  <linearGradient id="sunrise" x1="0%" x2="0%" y1="0%" y2="100%">
   <stop offset="0%" style="stop-color:#FF8501"/>
   <stop offset="100%" style="stop-color:#FFCB01"/>
  </linearGradient>
  <linearGradient id="telinkrin" x1="0%" x2="0%" y1="0%" y2="100%">
   <stop offset="0%" style="stop-color:#b2ced6"/>
   <stop offset="100%" style="stop-color:#6da5b7"/>
  </linearGradient>
  <linearGradient id="60spsycho" x1="0%" x2="0%" y1="0%" y2="100%">
   <stop offset="0%" style="stop-color:#df5940"/>
   <stop offset="25%" style="stop-color:#d8d15f"/>
   <stop offset="50%" style="stop-color:#e9882a"/>
   <stop offset="100%" style="stop-color:#279362"/>
  </linearGradient>
  <linearGradient id="90ssummer" x1="0%" x2="0%" y1="0%" y2="100%">
   <stop offset="0%" style="stop-color:#f618c7"/>
   <stop offset="20%" style="stop-color:#94ffab"/>
   <stop offset="50%" style="stop-color:#fbfd54"/>
   <stop offset="100%" style="stop-color:#0f83ae"/>
  </linearGradient>
 </defs>
 <path fill="url(#oomox)" class="ColorScheme-Text" d="m12 4c-4.432 0-8 3.568-8 8s3.568 8 8 8 8-3.568 8-8-3.568-8-8-8zm-5 4h1v5.4121s-0.00159 0.35817 0.28125 0.75195c0.2829 0.394 0.8348 0.836 2.2188 0.836 0.1057 0 0.13618-0.03608 0.23242-0.04102-0.0713-0.07661-0.2069-0.13191-0.26367-0.21094-0.467-0.65-0.469-1.336-0.469-1.336v-4.3398l0.0039-0.0293s0.02383-0.14462 0.08398-0.26367c0.06-0.119 0.163-0.2585 0.32-0.3808 0.315-0.2445 0.815-0.4097 1.6-0.3984 0.7801 0.01119 1.2658 0.1747 1.5762 0.4082 0.15521 0.11675 0.26015 0.25098 0.32227 0.36719s0.08984 0.26172 0.08984 0.26172l0.0039 0.0332v4.3418s-0.0016 0.68558-0.46875 1.3359c-0.05676 0.07903-0.19237 0.13433-0.26367 0.21094 0.096 0.005 0.126 0.041 0.232 0.041 1.384 0 1.936-0.442 2.219-0.836s0.281-0.752 0.281-0.752v-5.412h1v5.4121s-0.0016 0.68558-0.46875 1.3359c-0.467 0.65-1.415 1.252-3.031 1.252-0.622 0-1.065-0.148-1.5-0.295-0.435 0.147-0.878 0.295-1.5 0.295-1.6161 0-2.5641-0.602-3.0312-1.252-0.4672-0.65-0.4688-1.336-0.4688-1.336v-5.412zm4.9922 1c-0.63905-0.0092-0.88911 0.12554-0.96875 0.1875-0.02172 0.0169-0.01804 0.01642-0.02344 0.02344v4.2012s-0.0016 0.35816 0.28125 0.75195c0.14343 0.19968 0.36351 0.40974 0.71875 0.57031 0.35523-0.16057 0.57533-0.37064 0.71875-0.57031 0.283-0.394 0.281-0.752 0.281-0.752v-4.1895c-0.0065-0.0066 0.000046-0.0019-0.01563-0.01367-0.083-0.0626-0.348-0.1996-0.992-0.2088z"/>
 <circle fill="currentColor" class="ColorScheme-Highlight" cx="21" cy="18" r="2"/>
</svg>
