<svg xmlns="http://www.w3.org/2000/svg" width="24" height="24" version="1.1">
 <defs>
  <style id="current-color-scheme" type="text/css">
   .ColorScheme-Text { color: #d3dae3; } .ColorScheme-Highlight { color: #1AD6AB; }
  </style>
  <linearGradient id="arrongin" x1="0%" x2="0%" y1="0%" y2="100%">
   <stop offset="0%" style="stop-color:#dd9b44"/>
   <stop offset="100%" style="stop-color:#ad6c16"/>
  </linearGradient>
  <linearGradient id="aurora" x1="0%" x2="0%" y1="0%" y2="100%">
   <stop offset="0%" style="stop-color:#09D4DF"/>
   <stop offset="100%" style="stop-color:#9269F4"/>
  </linearGradient>
  <linearGradient id="cyberneon" x1="0%" x2="0%" y1="0%" y2="100%">
   <stop offset="0" style="stop-color:#0abdc6"/>
   <stop offset="1" style="stop-color:#ea00d9"/>
  </linearGradient>
  <linearGradient id="fitdance" x1="0%" x2="0%" y1="0%" y2="100%">
   <stop offset="0%" style="stop-color:#1AD6AB"/>
   <stop offset="100%" style="stop-color:#329DB6"/>
  </linearGradient>
  <linearGradient id="oomox" x1="0%" x2="0%" y1="0%" y2="100%">
   <stop offset="0%" style="stop-color:#a4d8d4"/>
   <stop offset="100%" style="stop-color:#318c85"/>
  </linearGradient>
  <linearGradient id="rainblue" x1="0%" x2="0%" y1="0%" y2="100%">
   <stop offset="0%" style="stop-color:#00F260"/>
   <stop offset="100%" style="stop-color:#0575E6"/>
  </linearGradient>
  <linearGradient id="sunrise" x1="0%" x2="0%" y1="0%" y2="100%">
   <stop offset="0%" style="stop-color:#FF8501"/>
   <stop offset="100%" style="stop-color:#FFCB01"/>
  </linearGradient>
  <linearGradient id="telinkrin" x1="0%" x2="0%" y1="0%" y2="100%">
   <stop offset="0%" style="stop-color:#b2ced6"/>
   <stop offset="100%" style="stop-color:#6da5b7"/>
  </linearGradient>
  <linearGradient id="60spsycho" x1="0%" x2="0%" y1="0%" y2="100%">
   <stop offset="0%" style="stop-color:#df5940"/>
   <stop offset="25%" style="stop-color:#d8d15f"/>
   <stop offset="50%" style="stop-color:#e9882a"/>
   <stop offset="100%" style="stop-color:#279362"/>
  </linearGradient>
  <linearGradient id="90ssummer" x1="0%" x2="0%" y1="0%" y2="100%">
   <stop offset="0%" style="stop-color:#f618c7"/>
   <stop offset="20%" style="stop-color:#94ffab"/>
   <stop offset="50%" style="stop-color:#fbfd54"/>
   <stop offset="100%" style="stop-color:#0f83ae"/>
  </linearGradient>
 </defs>
 <path fill="url(#oomox)" class="ColorScheme-Text" fill-rule="evenodd" d="m7.4062 4.9874c-0.25562 0-0.52288 0.085381-0.71875 0.28125l-1.4062 1.4062c-0.39174 0.39174-0.39174 1.0458 0 1.4375l0.875 0.875h5.6875l-3.719-3.7186c-0.1959-0.1959-0.46305-0.28125-0.71875-0.28125zm9.1875 0c-0.26144 0-0.52288 0.085381-0.71875 0.28125l-3.7188 3.7188h5.6875l0.875-0.875c0.39174-0.39174 0.39174-1.0458 0-1.4375l-1.4062-1.4062c-0.19587-0.19587-0.45731-0.28125-0.71875-0.28125zm-8.1155 4.5079a0.50005 0.50005 0 0 0 -0.4785 0.4921v1.5 2a0.50005 0.50005 0 1 0 1 0v-1.5h1v1.5a0.50005 0.50005 0 1 0 1 0v-2a0.50005 0.50005 0 0 0 -0.5 -0.5h-1.5v-1a0.50005 0.50005 0 0 0 -0.5215 -0.4917zm11 0a0.50005 0.50005 0 0 0 -0.478 0.4921v1h-0.5a0.50005 0.50005 0 0 0 0 1h0.5v1.5a0.50005 0.50005 0 0 0 0.5 0.5h1.5a0.50005 0.50005 0 1 0 0 -1h-1v-1h1a0.50005 0.50005 0 1 0 0 -1h-1v-1a0.50005 0.50005 0 0 0 -0.521 -0.4917zm-15.978 1.4917a0.50005 0.50005 0 0 0 -0.5 0.5v2a0.50005 0.50005 0 0 0 0.5 0.5h2a0.50005 0.50005 0 1 0 0 -1h-1.5v-1h1.5a0.50005 0.50005 0 1 0 0 -1h-2zm10 0a0.50005 0.50005 0 0 0 -0.5 0.5v2a0.50005 0.50005 0 0 0 0.5 0.5h0.75a0.50005 0.50005 0 1 0 0 -1h-0.25v-1h1v1.5a0.50005 0.50005 0 1 0 1 0v-2a0.50005 0.50005 0 0 0 -0.5 -0.5h-2zm-7.3438 4-0.875 0.875c-0.39174 0.39174-0.39174 1.0458 0 1.4375l1.4062 1.4062c0.39174 0.39174 1.0458 0.39174 1.4375 0l3.7188-3.7187h-5.6875zm6 0 3.7188 3.7187c0.39174 0.39174 1.0458 0.39174 1.4375 0l1.4062-1.4062c0.39174-0.39174 0.39174-1.0458 0-1.4375l-0.875-0.875h-5.6875z"/>
</svg>
