<svg xmlns="http://www.w3.org/2000/svg" width="24" height="24" version="1.1">
 <defs>
  <style id="current-color-scheme" type="text/css">
   .ColorScheme-Text { color: #d3dae3; } .ColorScheme-Highlight { color: #1AD6AB; }
  </style>
  <linearGradient id="arrongin" x1="0%" x2="0%" y1="0%" y2="100%">
   <stop offset="0%" style="stop-color:#dd9b44"/>
   <stop offset="100%" style="stop-color:#ad6c16"/>
  </linearGradient>
  <linearGradient id="aurora" x1="0%" x2="0%" y1="0%" y2="100%">
   <stop offset="0%" style="stop-color:#09D4DF"/>
   <stop offset="100%" style="stop-color:#9269F4"/>
  </linearGradient>
  <linearGradient id="cyberneon" x1="0%" x2="0%" y1="0%" y2="100%">
   <stop offset="0" style="stop-color:#0abdc6"/>
   <stop offset="1" style="stop-color:#ea00d9"/>
  </linearGradient>
  <linearGradient id="fitdance" x1="0%" x2="0%" y1="0%" y2="100%">
   <stop offset="0%" style="stop-color:#1AD6AB"/>
   <stop offset="100%" style="stop-color:#329DB6"/>
  </linearGradient>
  <linearGradient id="oomox" x1="0%" x2="0%" y1="0%" y2="100%">
   <stop offset="0%" style="stop-color:#a4d8d4"/>
   <stop offset="100%" style="stop-color:#318c85"/>
  </linearGradient>
  <linearGradient id="rainblue" x1="0%" x2="0%" y1="0%" y2="100%">
   <stop offset="0%" style="stop-color:#00F260"/>
   <stop offset="100%" style="stop-color:#0575E6"/>
  </linearGradient>
  <linearGradient id="sunrise" x1="0%" x2="0%" y1="0%" y2="100%">
   <stop offset="0%" style="stop-color:#FF8501"/>
   <stop offset="100%" style="stop-color:#FFCB01"/>
  </linearGradient>
  <linearGradient id="telinkrin" x1="0%" x2="0%" y1="0%" y2="100%">
   <stop offset="0%" style="stop-color:#b2ced6"/>
   <stop offset="100%" style="stop-color:#6da5b7"/>
  </linearGradient>
  <linearGradient id="60spsycho" x1="0%" x2="0%" y1="0%" y2="100%">
   <stop offset="0%" style="stop-color:#df5940"/>
   <stop offset="25%" style="stop-color:#d8d15f"/>
   <stop offset="50%" style="stop-color:#e9882a"/>
   <stop offset="100%" style="stop-color:#279362"/>
  </linearGradient>
  <linearGradient id="90ssummer" x1="0%" x2="0%" y1="0%" y2="100%">
   <stop offset="0%" style="stop-color:#f618c7"/>
   <stop offset="20%" style="stop-color:#94ffab"/>
   <stop offset="50%" style="stop-color:#fbfd54"/>
   <stop offset="100%" style="stop-color:#0f83ae"/>
  </linearGradient>
 </defs>
 <g>
  <path fill="url(#oomox)" class="ColorScheme-Text" d="M 7.53,4 C 5.5671598,4 4,5.5691747 4,7.5320149 L 4,16.469287 C 4,18.432128 5.5671598,20 7.53,20 l 8.94,0 C 18.43284,20 20,18.432128 20,16.469287 L 20,7.5320149 C 20,5.5691747 18.43284,4 16.47,4 Z M 6.001988,6.0011395 11,6 11,6.4701013 c -0.128989,0.011999 -0.209402,0 -0.373388,0 -0.539956,0.035997 -0.9379241,0.1039916 -0.9379241,0.405967 0,0.2659783 0.081993,0.5149581 0.2809771,0.7809364 L 12.47,11.53 15.125246,7.6260072 C 15.301231,7.3480299 15.375225,7.0960504 15.375225,6.9380632 15.375225,6.708082 15.18824,6.5549931 15.000256,6.47 l -0.999919,0 0,-0.4698604 3.999675,0 0,0.4698604 C 17.554048,6.505997 17.173079,6.535096 16.844106,6.8130734 16.527131,7.0790518 16.091167,7.6090086 15.56321,8.4069437 l -2.562792,4.0626693 0,4.530631 c 0.210983,0.192984 1.212902,0.518958 1.999838,0.530957 l 0,0.468962 L 9,18.000163 9,17.53 c 0.798935,-0.036 1.812015,-0.336772 2,-0.529756 L 11,12.44 8.8755,9.1878801 C 7.9595745,7.8829863 7.356476,7.1030498 7.0625,6.8130734 6.7685239,6.523097 6.4619506,6.47 5.9999882,6.47 l 0,-0.4698604 z"/>
 </g>
</svg>
