<svg xmlns="http://www.w3.org/2000/svg" width="256" height="256" version="1.1">
 <defs>
  <linearGradient id="b" x1=".517" x2=".517" y2="1">
   <stop offset="0%" stop-color="#fff"/>
   <stop offset="12.5%" stop-color="#fff" stop-opacity=".098"/>
   <stop offset="92.5%" stop-opacity=".098"/>
   <stop offset="100%" stop-opacity=".498"/>
  </linearGradient>
 </defs>
 <path fill="#f7f7f7" d="M165.689 11.95c74.056 0 84.639 10.557 84.639 84.544v59.251c0 73.986-10.583 84.543-84.639 84.543h-75.37c-74.055 0-84.639-10.557-84.639-84.543V96.494c0-73.987 10.584-84.544 84.639-84.544h75.37z" filter="url(#a)"/>
 <path fill="none" opacity=".4" stroke="url(#b)" stroke-linecap="round" stroke-linejoin="round" stroke-width="4" d="M165.685 11.947c74.055 0 84.639 10.557 84.639 84.544v59.251c0 73.986-10.584 84.543-84.639 84.543h-75.37c-74.055 0-84.639-10.557-84.639-84.543V96.491c0-73.987 10.584-84.544 84.639-84.544h75.37z" vector-effect="non-scaling-stroke"/>
 <path fill="#dd2e44" d="M199.6 103.313c0-21.818-17.687-39.505-39.501-39.505-13.243 0-24.929 6.538-32.099 16.53-7.17-9.992-18.856-16.53-32.095-16.53-21.818 0-39.505 17.683-39.505 39.505 0 3.091.392 6.085 1.065 8.972 5.484 34.08 43.376 70.035 70.535 79.907 27.155-9.872 65.051-45.827 70.527-79.903.681-2.887 1.073-5.881 1.073-8.976z"/>
 <path fill="#fdcb58" d="M193.443 151.598l-15.309-5.669-5.669-15.309a4.002 4.002 0 1 0-7.51-.004l-5.669 15.309-15.309 5.669a3.994 3.994 0 0 0-2.614 3.755 4.008 4.008 0 0 0 2.614 3.755l15.309 5.669 5.669 15.309a4.002 4.002 0 0 0 3.755 2.614 4.007 4.007 0 0 0 3.755-2.614l5.669-15.309 15.309-5.669a4.008 4.008 0 0 0 2.614-3.755 3.998 3.998 0 0 0-2.614-3.751zM101.366 87.54l-9.468-3.503-3.503-9.468a4.007 4.007 0 0 0-3.755-2.614 3.997 3.997 0 0 0-3.755 2.614l-3.507 9.468-9.464 3.503a4.004 4.004 0 0 0 0 7.51l9.468 3.503 3.503 9.468a4.004 4.004 0 0 0 7.51 0l3.503-9.468 9.468-3.503a4.001 4.001 0 0 0 2.614-3.755 4.007 4.007 0 0 0-2.614-3.755z"/>
</svg>
