<svg xmlns="http://www.w3.org/2000/svg" width="256" height="256" version="1.1">
 <defs>
  <linearGradient id="b" x1=".517" x2=".517" y2="1">
   <stop offset="0%" stop-color="#fff"/>
   <stop offset="12.5%" stop-color="#fff" stop-opacity=".098"/>
   <stop offset="92.5%" stop-opacity=".098"/>
   <stop offset="100%" stop-opacity=".498"/>
  </linearGradient>
 </defs>
 <path fill="#f7f7f7" d="M165.689 11.95c74.056 0 84.639 10.557 84.639 84.544v59.251c0 73.986-10.583 84.543-84.639 84.543h-75.37c-74.055 0-84.639-10.557-84.639-84.543V96.494c0-73.987 10.584-84.544 84.639-84.544h75.37z" filter="url(#a)"/>
 <path fill="none" opacity=".4" stroke="url(#b)" stroke-linecap="round" stroke-linejoin="round" stroke-width="4" d="M165.685 11.947c74.055 0 84.639 10.557 84.639 84.544v59.251c0 73.986-10.584 84.543-84.639 84.543h-75.37c-74.055 0-84.639-10.557-84.639-84.543V96.491c0-73.987 10.584-84.544 84.639-84.544h75.37z" vector-effect="non-scaling-stroke"/>
 <path fill="#d79e84" d="M65.098 127.634c-2.893-11.349 1.111-22.183 8.935-24.177 7.825-1.995 16.526 5.6 19.419 16.95 2.893 11.349-1.111 22.183-8.935 24.177-7.825 1.995-16.526-5.6-19.419-16.95zM171.086 144.589c-7.824-1.994-11.828-12.828-8.935-24.177 2.893-11.35 11.594-18.945 19.419-16.951 7.824 1.995 11.828 12.829 8.935 24.178-2.893 11.35-11.594 18.945-19.419 16.95z"/>
 <path fill="#bf6952" d="M131.718 195.622h-7.836c-25.856 0-50.928-19.818-50.928-47.559 0-15.851 5.876-23.779 5.876-23.779s-1.957-7.928-1.957-15.851c0-23.78 25.071-43.597 50.927-43.597 25.856 0 50.927 23.779 50.927 43.597 0 7.927-1.957 15.851-1.957 15.851s5.876 7.928 5.876 23.779c0 27.741-25.072 47.559-50.928 47.559z"/>
 <path fill="#d79e84" d="M174.209 117.574c0-15.144-12.28-27.423-27.423-27.423-7.375 0-14.058 2.927-18.986 7.661-4.928-4.738-11.611-7.661-18.986-7.661-15.143 0-27.423 12.279-27.423 27.423 0 9.184 4.535 17.295 11.464 22.271a41.896 41.896 0 0 0-3.027 15.696c0 22.137 17.001 35.86 37.968 35.86 20.967 0 37.968-13.723 37.968-35.86a41.88 41.88 0 0 0-3.027-15.696c6.937-4.976 11.472-13.087 11.472-22.271z"/>
 <ellipse fill="#292f33" cx="107.911" cy="124.022" rx="7.956" ry="11.933" vector-effect="non-scaling-stroke"/>
 <ellipse fill="#292f33" cx="147.689" cy="124.022" rx="7.956" ry="11.933" vector-effect="non-scaling-stroke"/>
 <path fill="#642116" d="M127.8 181.699c10.8 0 19.996-5.489 23.449-13.162 1.428-3.174-.994-6.727-4.602-6.727h-37.694c-3.608 0-6.03 3.553-4.602 6.727 3.453 7.673 12.649 13.162 23.449 13.162z"/>
 <ellipse fill="#642116" cx="121.833" cy="143.91" rx="3.978" ry="4.22" vector-effect="non-scaling-stroke"/>
 <circle fill="#642116" cx="133.767" cy="143.91" r="3.978" vector-effect="non-scaling-stroke"/>
 <path fill="#bf6952" d="M144.674 57.076s-21.094-4.221-29.531 8.436l16.873 4.221s4.221-12.657 12.658-12.657z"/>
 <path fill="#9b3c07" d="M94.558 140.987a39.812 39.812 0 0 1-3.218-2.439c-.303.45-.577.927-.812 1.456-2.116 4.778-4.785 13.911-6.09 22.705l-8.544 1.79 11.925 3.497.617-5.044c1.177-7.848 3.48-16.273 5.724-21.341.119-.258.27-.413.398-.624zm76.663 22.108c-1.28-8.91-4.005-18.246-6.153-23.091a9.036 9.036 0 0 0-.859-1.515 55.657 55.657 0 0 1-3.139 2.482c.123.203.251.398.362.64 2.737 6.182 5.589 17.367 6.341 26.389l12.017-3.501-8.569-1.404z"/>
</svg>
