<svg xmlns="http://www.w3.org/2000/svg" width="256" height="256" version="1.1">
 <defs>
  <linearGradient id="b" x1=".517" x2=".517" y2="1">
   <stop offset="0%" stop-color="#fff"/>
   <stop offset="12.5%" stop-color="#fff" stop-opacity=".098"/>
   <stop offset="92.5%" stop-opacity=".098"/>
   <stop offset="100%" stop-opacity=".498"/>
  </linearGradient>
 </defs>
 <path fill="#F7F7F7" d="M165.689 11.95c74.056 0 84.639 10.557 84.639 84.544v59.251c0 73.986-10.583 84.543-84.639 84.543h-75.37c-74.055 0-84.639-10.557-84.639-84.543V96.494c0-73.987 10.584-84.544 84.639-84.544h75.37z" filter="url(#a)"/>
 <path fill="none" opacity=".4" stroke="url(#b)" stroke-linecap="round" stroke-linejoin="round" stroke-width="4" d="M165.685 11.947c74.055 0 84.639 10.557 84.639 84.544v59.251c0 73.986-10.584 84.543-84.639 84.543h-75.37c-74.055 0-84.639-10.557-84.639-84.543V96.491c0-73.987 10.584-84.544 84.639-84.544h75.37z" vector-effect="non-scaling-stroke"/>
 <path fill="#FFCC4D" d="M200.4 128c0 39.543-32.057 71.6-71.6 71.6-39.539 0-71.6-32.057-71.6-71.6 0-39.539 32.061-71.6 71.6-71.6 39.543 0 71.6 32.061 71.6 71.6z"/>
 <ellipse fill="#664500" cx="128.8" cy="163.8" rx="19.889" ry="23.867" vector-effect="non-scaling-stroke"/>
 <path fill="#664500" d="M81.063 100.156a3.98 3.98 0 0 1-3.179-6.365c12.976-17.303 30.295-17.502 31.027-17.502a3.98 3.98 0 0 1 3.978 3.978 3.976 3.976 0 0 1-3.962 3.977c-.617.008-14.193.343-24.678 14.32a3.97 3.97 0 0 1-3.186 1.592zm95.474 0a3.97 3.97 0 0 1-3.186-1.592c-10.501-14.005-24.109-14.312-24.686-14.32a3.985 3.985 0 0 1-3.942-3.997 3.967 3.967 0 0 1 3.966-3.958c.732 0 18.047.199 31.027 17.502a3.976 3.976 0 0 1-.796 5.569 3.954 3.954 0 0 1-2.383.796z"/>
 <path fill="#F5F8FA" d="M128.8 147.889c-6.591 0-11.933 7.12-11.933 15.911h23.866c0-8.791-5.342-15.911-11.933-15.911z"/>
 <ellipse fill="#664500" cx="104.933" cy="114.078" rx="9.944" ry="13.922" vector-effect="non-scaling-stroke"/>
 <ellipse fill="#664500" cx="152.667" cy="114.078" rx="9.944" ry="13.922" vector-effect="non-scaling-stroke"/>
</svg>
