<svg xmlns="http://www.w3.org/2000/svg" width="256" height="256" version="1.1">
 <defs>
  <linearGradient id="b" x1=".517" x2=".517" y2="1">
   <stop offset="0%" stop-color="#fff"/>
   <stop offset="12.5%" stop-color="#fff" stop-opacity=".098"/>
   <stop offset="92.5%" stop-opacity=".098"/>
   <stop offset="100%" stop-opacity=".498"/>
  </linearGradient>
 </defs>
 <path fill="#f7f7f7" d="M165.689 11.95c74.056 0 84.639 10.557 84.639 84.544v59.251c0 73.986-10.583 84.543-84.639 84.543h-75.37c-74.055 0-84.639-10.557-84.639-84.543V96.494c0-73.987 10.584-84.544 84.639-84.544h75.37z" filter="url(#a)"/>
 <path fill="none" opacity=".4" stroke="url(#b)" stroke-linecap="round" stroke-linejoin="round" stroke-width="4.077" d="M165.685 11.947c74.055 0 84.639 10.557 84.639 84.544v59.251c0 73.986-10.584 84.543-84.639 84.543h-75.37c-74.055 0-84.639-10.557-84.639-84.543V96.491c0-73.987 10.584-84.544 84.639-84.544h75.37z" vector-effect="non-scaling-stroke"/>
 <g fill="#DD2E44">
  <path d="M110.34 162.116a6.004 6.004 0 0 1 .14-6.402l17.594-26.605-23.999-20.573a6.004 6.004 0 0 1-1.241-7.65l17.23-28.711c-6.682-5.208-15.033-8.367-24.16-8.367-21.818 0-39.504 17.682-39.504 39.504 0 3.091.392 6.085 1.065 8.971 5.484 34.084 43.375 70.037 70.533 79.909.1-.036.208-.088.308-.128l-17.966-29.948z"/>
  <path d="M160.096 63.816c-11.069 0-21.009 4.608-28.171 11.942l-16.181 26.97 24.176 20.72a6.007 6.007 0 0 1 1.097 7.871l-18.431 27.87 16.657 27.763c25.373-14.128 54.528-45.089 59.284-74.657.681-2.886 1.073-5.88 1.073-8.971-.004-21.826-17.69-39.508-39.504-39.508z"/>
 </g>
</svg>
