<svg xmlns="http://www.w3.org/2000/svg" width="16" height="16" version="1.1">
 <defs>
   <style id="current-color-scheme" type="text/css">
   .ColorScheme-Text { color: #939597; } .ColorScheme-Highlight { color: #1AD6AB; }
  </style>
  <linearGradient id="arrongin" x1="0%" x2="0%" y1="0%" y2="100%">
   <stop offset="0%" style="stop-color: #dd9b44; stop-opacity: 1"/>
   <stop offset="100%" style="stop-color: #ad6c16; stop-opacity: 1"/>
  </linearGradient>
  <linearGradient id="aurora" x1="0%" x2="0%" y1="0%" y2="100%">
   <stop offset="0%" style="stop-color: #09D4DF; stop-opacity: 1"/>
   <stop offset="100%" style="stop-color: #9269F4; stop-opacity: 1"/>
  </linearGradient>
  <linearGradient id="cyberneon" x1="0%" x2="0%" y1="0%" y2="100%">
    <stop offset="0" style="stop-color: #0abdc6; stop-opacity: 1"/>
    <stop offset="1" style="stop-color: #ea00d9; stop-opacity: 1"/>
  </linearGradient>
  <linearGradient id="fitdance" x1="0%" x2="0%" y1="0%" y2="100%">
   <stop offset="0%" style="stop-color: #1AD6AB; stop-opacity: 1"/>
   <stop offset="100%" style="stop-color: #329DB6; stop-opacity: 1"/>
  </linearGradient>
  <linearGradient id="oomox" x1="0%" x2="0%" y1="0%" y2="100%">
   <stop offset="0%" style="stop-color: #66b7ff; stop-opacity: 1"/>
   <stop offset="100%" style="stop-color: #006acc; stop-opacity: 1"/>
  </linearGradient>
  <linearGradient id="rainblue" x1="0%" x2="0%" y1="0%" y2="100%">
   <stop offset="0%" style="stop-color: #00F260; stop-opacity: 1"/>
   <stop offset="100%" style="stop-color: #0575E6; stop-opacity: 1"/>
  </linearGradient>
  <linearGradient id="sunrise" x1="0%" x2="0%" y1="0%" y2="100%">
   <stop offset="0%" style="stop-color: #FF8501; stop-opacity: 1"/>
   <stop offset="100%" style="stop-color: #FFCB01; stop-opacity: 1"/>
  </linearGradient>
  <linearGradient id="telinkrin" x1="0%" x2="0%" y1="0%" y2="100%">
   <stop offset="0%" style="stop-color: #b2ced6; stop-opacity: 1"/>
   <stop offset="100%" style="stop-color: #6da5b7; stop-opacity: 1"/>
  </linearGradient>
  <linearGradient id="60spsycho" x1="0%" x2="0%" y1="0%" y2="100%">
   <stop offset="0%" style="stop-color: #df5940; stop-opacity: 1"/>
   <stop offset="25%" style="stop-color: #d8d15f; stop-opacity: 1"/>
   <stop offset="50%" style="stop-color: #e9882a; stop-opacity: 1"/>
   <stop offset="100%" style="stop-color: #279362; stop-opacity: 1"/>
  </linearGradient>
  <linearGradient id="90ssummer" x1="0%" x2="0%" y1="0%" y2="100%">
   <stop offset="0%" style="stop-color: #f618c7; stop-opacity: 1"/>
   <stop offset="20%" style="stop-color: #94ffab; stop-opacity: 1"/>
   <stop offset="50%" style="stop-color: #fbfd54; stop-opacity: 1"/>
   <stop offset="100%" style="stop-color: #0f83ae; stop-opacity: 1"/>
  </linearGradient>
 </defs>
 <path fill="url(#oomox)" class="ColorScheme-Text" d="M 7.8125 1.0019531 C 6.6841169 1.0312357 5.5461993 1.3334766 4.5 1.9375 C 1.1521623 3.870375 0.00462497 8.1521623 1.9375 11.5 C 3.870375 14.847838 8.1521623 15.995375 11.5 14.0625 C 14.847838 12.129625 15.995375 7.8478377 14.0625 4.5 C 12.733648 2.1983616 10.294943 0.93753153 7.8125 1.0019531 z M 5 3 L 7 3 A 1.0001 1.0001 0 0 1 7.3261719 3.0566406 C 7.7769541 2.9954436 8.2296104 2.9958975 8.6738281 3.0566406 A 1.0001 1.0001 0 0 1 9 3 L 11 3 A 1.0001 1.0001 0 0 1 12 4 L 12 4.5351562 L 12.695312 4.1347656 L 12.464844 7.7324219 L 12 7.5019531 L 12 9 L 12.892578 9 C 12.744441 9.728725 12.434316 10.404885 12 10.988281 L 12 12 A 1.0001 1.0001 0 0 1 11 13 L 9 13 A 1.0001 1.0001 0 0 1 8.6738281 12.943359 C 8.223046 13.004556 7.7703896 13.004103 7.3261719 12.943359 A 1.0001 1.0001 0 0 1 7 13 L 5 13 A 1.0001 1.0001 0 0 1 4 12 L 4 11.464844 L 3.3046875 11.865234 L 3.5351562 8.2675781 L 4 8.4980469 L 4 7 L 3.1074219 7 C 3.2555595 6.2712749 3.5656858 5.5951176 4 5.0117188 L 4 4 A 1.0001 1.0001 0 0 1 5 3 z M 5 4 L 5 12 L 7 12 L 7 4 L 5 4 z M 9 4 L 9 12 L 11 12 L 11 4 L 9 4 z"/>
</svg>
