<svg xmlns="http://www.w3.org/2000/svg" width="16" height="16" version="1.1">
 <defs>
   <style id="current-color-scheme" type="text/css">
   .ColorScheme-Text { color: #939597; } .ColorScheme-Highlight { color: #1AD6AB; }
  </style>
  <linearGradient id="arrongin" x1="0%" x2="0%" y1="0%" y2="100%">
   <stop offset="0%" style="stop-color: #dd9b44; stop-opacity: 1"/>
   <stop offset="100%" style="stop-color: #ad6c16; stop-opacity: 1"/>
  </linearGradient>
  <linearGradient id="aurora" x1="0%" x2="0%" y1="0%" y2="100%">
   <stop offset="0%" style="stop-color: #09D4DF; stop-opacity: 1"/>
   <stop offset="100%" style="stop-color: #9269F4; stop-opacity: 1"/>
  </linearGradient>
  <linearGradient id="cyberneon" x1="0%" x2="0%" y1="0%" y2="100%">
    <stop offset="0" style="stop-color: #0abdc6; stop-opacity: 1"/>
    <stop offset="1" style="stop-color: #ea00d9; stop-opacity: 1"/>
  </linearGradient>
  <linearGradient id="fitdance" x1="0%" x2="0%" y1="0%" y2="100%">
   <stop offset="0%" style="stop-color: #1AD6AB; stop-opacity: 1"/>
   <stop offset="100%" style="stop-color: #329DB6; stop-opacity: 1"/>
  </linearGradient>
  <linearGradient id="oomox" x1="0%" x2="0%" y1="0%" y2="100%">
   <stop offset="0%" style="stop-color: #66b7ff; stop-opacity: 1"/>
   <stop offset="100%" style="stop-color: #006acc; stop-opacity: 1"/>
  </linearGradient>
  <linearGradient id="rainblue" x1="0%" x2="0%" y1="0%" y2="100%">
   <stop offset="0%" style="stop-color: #00F260; stop-opacity: 1"/>
   <stop offset="100%" style="stop-color: #0575E6; stop-opacity: 1"/>
  </linearGradient>
  <linearGradient id="sunrise" x1="0%" x2="0%" y1="0%" y2="100%">
   <stop offset="0%" style="stop-color: #FF8501; stop-opacity: 1"/>
   <stop offset="100%" style="stop-color: #FFCB01; stop-opacity: 1"/>
  </linearGradient>
  <linearGradient id="telinkrin" x1="0%" x2="0%" y1="0%" y2="100%">
   <stop offset="0%" style="stop-color: #b2ced6; stop-opacity: 1"/>
   <stop offset="100%" style="stop-color: #6da5b7; stop-opacity: 1"/>
  </linearGradient>
  <linearGradient id="60spsycho" x1="0%" x2="0%" y1="0%" y2="100%">
   <stop offset="0%" style="stop-color: #df5940; stop-opacity: 1"/>
   <stop offset="25%" style="stop-color: #d8d15f; stop-opacity: 1"/>
   <stop offset="50%" style="stop-color: #e9882a; stop-opacity: 1"/>
   <stop offset="100%" style="stop-color: #279362; stop-opacity: 1"/>
  </linearGradient>
  <linearGradient id="90ssummer" x1="0%" x2="0%" y1="0%" y2="100%">
   <stop offset="0%" style="stop-color: #f618c7; stop-opacity: 1"/>
   <stop offset="20%" style="stop-color: #94ffab; stop-opacity: 1"/>
   <stop offset="50%" style="stop-color: #fbfd54; stop-opacity: 1"/>
   <stop offset="100%" style="stop-color: #0f83ae; stop-opacity: 1"/>
  </linearGradient>
 </defs>
 <path fill="url(#oomox)" class="ColorScheme-Text" d="M 3.9453125 2 C 3.6305844 1.9997429 3.3396609 2.1633916 3.1816406 2.4277344 L 0.11914062 7.5683594 C -0.039842165 7.8349309 -0.039842165 8.1639732 0.11914062 8.4296875 L 3.1816406 13.572266 C 3.3395734 13.836266 3.6304969 14 3.9453125 14 L 10.058594 14 C 10.373584 14 10.661942 13.836266 10.820312 13.572266 L 13.880859 8.4296875 C 14.040105 8.1639732 14.040105 7.8349309 13.880859 7.5683594 L 10.820312 2.4277344 C 10.661942 2.1639059 10.373584 2.0002572 10.058594 2 L 3.9453125 2 z M 4.5742188 4 L 9.4296875 4 L 9.4882812 4.0976562 L 7 6.5859375 L 4.5136719 4.0996094 L 4.5742188 4 z M 10.542969 5.8710938 L 11.808594 8 L 10.542969 10.128906 L 8.4140625 8 L 10.542969 5.8710938 z M 3.4589844 5.8730469 L 5.5859375 8 L 3.4589844 10.126953 L 2.1914062 8 L 3.4589844 5.8730469 z M 7 9.4140625 L 9.4863281 11.900391 L 9.4277344 12 L 4.5742188 12 L 4.5136719 11.900391 L 7 9.4140625 z"/>
 <path fill="currentColor" class="ColorScheme-Highlight" d="M 12.432348,2.0003749 C 12.088438,2 11.890091,2.3488977 12.064445,2.6023212 l 0.7614,1.0983681 0.757401,1.0984431 c 0.186351,0.2678234 0.64943,0.2678234 0.834981,0 l 0.7606,-1.0983681 0.757401,-1.0983682 C 16.118579,2.3345728 15.88824,2.0014249 15.519537,2 Z"/>
</svg>
