<svg xmlns="http://www.w3.org/2000/svg" width="16" height="16" version="1.1">
 <defs>
   <style id="current-color-scheme" type="text/css">
   .ColorScheme-Text { color: #939597; } .ColorScheme-Highlight { color: #1AD6AB; }
  </style>
  <linearGradient id="arrongin" x1="0%" x2="0%" y1="0%" y2="100%">
   <stop offset="0%" style="stop-color: #dd9b44; stop-opacity: 1"/>
   <stop offset="100%" style="stop-color: #ad6c16; stop-opacity: 1"/>
  </linearGradient>
  <linearGradient id="aurora" x1="0%" x2="0%" y1="0%" y2="100%">
   <stop offset="0%" style="stop-color: #09D4DF; stop-opacity: 1"/>
   <stop offset="100%" style="stop-color: #9269F4; stop-opacity: 1"/>
  </linearGradient>
  <linearGradient id="cyberneon" x1="0%" x2="0%" y1="0%" y2="100%">
    <stop offset="0" style="stop-color: #0abdc6; stop-opacity: 1"/>
    <stop offset="1" style="stop-color: #ea00d9; stop-opacity: 1"/>
  </linearGradient>
  <linearGradient id="fitdance" x1="0%" x2="0%" y1="0%" y2="100%">
   <stop offset="0%" style="stop-color: #1AD6AB; stop-opacity: 1"/>
   <stop offset="100%" style="stop-color: #329DB6; stop-opacity: 1"/>
  </linearGradient>
  <linearGradient id="oomox" x1="0%" x2="0%" y1="0%" y2="100%">
   <stop offset="0%" style="stop-color: #66b7ff; stop-opacity: 1"/>
   <stop offset="100%" style="stop-color: #006acc; stop-opacity: 1"/>
  </linearGradient>
  <linearGradient id="rainblue" x1="0%" x2="0%" y1="0%" y2="100%">
   <stop offset="0%" style="stop-color: #00F260; stop-opacity: 1"/>
   <stop offset="100%" style="stop-color: #0575E6; stop-opacity: 1"/>
  </linearGradient>
  <linearGradient id="sunrise" x1="0%" x2="0%" y1="0%" y2="100%">
   <stop offset="0%" style="stop-color: #FF8501; stop-opacity: 1"/>
   <stop offset="100%" style="stop-color: #FFCB01; stop-opacity: 1"/>
  </linearGradient>
  <linearGradient id="telinkrin" x1="0%" x2="0%" y1="0%" y2="100%">
   <stop offset="0%" style="stop-color: #b2ced6; stop-opacity: 1"/>
   <stop offset="100%" style="stop-color: #6da5b7; stop-opacity: 1"/>
  </linearGradient>
  <linearGradient id="60spsycho" x1="0%" x2="0%" y1="0%" y2="100%">
   <stop offset="0%" style="stop-color: #df5940; stop-opacity: 1"/>
   <stop offset="25%" style="stop-color: #d8d15f; stop-opacity: 1"/>
   <stop offset="50%" style="stop-color: #e9882a; stop-opacity: 1"/>
   <stop offset="100%" style="stop-color: #279362; stop-opacity: 1"/>
  </linearGradient>
  <linearGradient id="90ssummer" x1="0%" x2="0%" y1="0%" y2="100%">
   <stop offset="0%" style="stop-color: #f618c7; stop-opacity: 1"/>
   <stop offset="20%" style="stop-color: #94ffab; stop-opacity: 1"/>
   <stop offset="50%" style="stop-color: #fbfd54; stop-opacity: 1"/>
   <stop offset="100%" style="stop-color: #0f83ae; stop-opacity: 1"/>
  </linearGradient>
 </defs>
 <path fill="url(#oomox)" class="ColorScheme-Text" d="M 1,0 C 0.446,0 0,0.446 0,1 V 15 C 0,15.554 0.446,16 1,16 H 15 C 15.554,16 16,15.554 16,15 V 1 C 16,0.446 15.554,0 15,0 Z M 1.5,1 A 0.5,0.5 0 0 1 2,1.5 0.5,0.5 0 0 1 1.5,2 0.5,0.5 0 0 1 1,1.5 0.5,0.5 0 0 1 1.5,1 Z M 8,1 A 7,7 0 0 1 15,8 7,7 0 0 1 8,15 7,7 0 0 1 1,8 7,7 0 0 1 8,1 Z M 14.5,1 A 0.5,0.5 0 0 1 15,1.5 0.5,0.5 0 0 1 14.5,2 0.5,0.5 0 0 1 14,1.5 0.5,0.5 0 0 1 14.5,1 Z M 1.5,14 A 0.5,0.5 0 0 1 2,14.5 0.5,0.5 0 0 1 1.5,15 0.5,0.5 0 0 1 1,14.5 0.5,0.5 0 0 1 1.5,14 Z M 14.5,14 A 0.5,0.5 0 0 1 15,14.5 0.5,0.5 0 0 1 14.5,15 0.5,0.5 0 0 1 14,14.5 0.5,0.5 0 0 1 14.5,14 Z"/>
 <circle fill="url(#oomox)" class="ColorScheme-Text" cx="8" cy="8" r="2"/>
 <path fill="url(#oomox)" class="ColorScheme-Text" d="M 9.002,2.1016 C 8.449,2.1005 8,2.5485 8,3.1016 V 5 A 3,3 0 0 1 10.344,6.1289 C 11.133,5.9584 11.799,5.8013 12.473,5.6426 13.367,5.4318 13.006,4.6531 12.648,4.2129 11.775,3.1393 10.557,2.3994 9.201,2.1211 9.135,2.1079 9.069,2.1014 9.002,2.1015 Z"/>
 <path fill="url(#oomox)" class="ColorScheme-Text" d="M 13.897,9 C 13.898,8.4 13.45,8 12.897,8 H 10.999 A 3,3 0 0 1 9.87,10.3 C 10.04,11.1 10.197,11.8 10.356,12.5 10.567,13.4 11.345,13 11.786,12.6 12.859,11.8 13.599,10.6 13.878,9.2 13.891,9.1 13.897,9.1 13.897,9 Z"/>
 <path fill="url(#oomox)" class="ColorScheme-Text" d="M 6.9969,13.9 C 7.55,13.9 7.999,13.5 7.999,12.9 V 11 A 3,3 0 0 1 5.6551,9.9 C 4.8656,10 4.1997,10.2 3.5262,10.4 2.632,10.6 2.9932,11.3 3.3504,11.8 4.224,12.9 5.4419,13.6 6.7977,13.9 6.8637,13.9 6.93,13.9 6.9969,13.9 Z"/>
 <path fill="url(#oomox)" class="ColorScheme-Text" d="M 2.1018,7 C 2.1008,7.6 2.5488,8 3.1018,8 H 5.0003 A 3,3 0 0 1 6.1292,5.7 C 5.9587,4.9 5.8016,4.2 5.6429,3.5 5.432,2.6 4.6534,3 4.2132,3.4 3.1396,4.2 2.3997,5.4 2.1214,6.8 2.1084,6.9 2.1014,6.9 2.1014,7 Z"/>
</svg>
