<svg xmlns="http://www.w3.org/2000/svg" width="16" height="16" version="1.1">
 <defs>
   <style id="current-color-scheme" type="text/css">
   .ColorScheme-Text { color: #939597; } .ColorScheme-Highlight { color: #1AD6AB; }
  </style>
  <linearGradient id="arrongin" x1="0%" x2="0%" y1="0%" y2="100%">
   <stop offset="0%" style="stop-color: #dd9b44; stop-opacity: 1"/>
   <stop offset="100%" style="stop-color: #ad6c16; stop-opacity: 1"/>
  </linearGradient>
  <linearGradient id="aurora" x1="0%" x2="0%" y1="0%" y2="100%">
   <stop offset="0%" style="stop-color: #09D4DF; stop-opacity: 1"/>
   <stop offset="100%" style="stop-color: #9269F4; stop-opacity: 1"/>
  </linearGradient>
  <linearGradient id="cyberneon" x1="0%" x2="0%" y1="0%" y2="100%">
    <stop offset="0" style="stop-color: #0abdc6; stop-opacity: 1"/>
    <stop offset="1" style="stop-color: #ea00d9; stop-opacity: 1"/>
  </linearGradient>
  <linearGradient id="fitdance" x1="0%" x2="0%" y1="0%" y2="100%">
   <stop offset="0%" style="stop-color: #1AD6AB; stop-opacity: 1"/>
   <stop offset="100%" style="stop-color: #329DB6; stop-opacity: 1"/>
  </linearGradient>
  <linearGradient id="oomox" x1="0%" x2="0%" y1="0%" y2="100%">
   <stop offset="0%" style="stop-color: #66b7ff; stop-opacity: 1"/>
   <stop offset="100%" style="stop-color: #006acc; stop-opacity: 1"/>
  </linearGradient>
  <linearGradient id="rainblue" x1="0%" x2="0%" y1="0%" y2="100%">
   <stop offset="0%" style="stop-color: #00F260; stop-opacity: 1"/>
   <stop offset="100%" style="stop-color: #0575E6; stop-opacity: 1"/>
  </linearGradient>
  <linearGradient id="sunrise" x1="0%" x2="0%" y1="0%" y2="100%">
   <stop offset="0%" style="stop-color: #FF8501; stop-opacity: 1"/>
   <stop offset="100%" style="stop-color: #FFCB01; stop-opacity: 1"/>
  </linearGradient>
  <linearGradient id="telinkrin" x1="0%" x2="0%" y1="0%" y2="100%">
   <stop offset="0%" style="stop-color: #b2ced6; stop-opacity: 1"/>
   <stop offset="100%" style="stop-color: #6da5b7; stop-opacity: 1"/>
  </linearGradient>
  <linearGradient id="60spsycho" x1="0%" x2="0%" y1="0%" y2="100%">
   <stop offset="0%" style="stop-color: #df5940; stop-opacity: 1"/>
   <stop offset="25%" style="stop-color: #d8d15f; stop-opacity: 1"/>
   <stop offset="50%" style="stop-color: #e9882a; stop-opacity: 1"/>
   <stop offset="100%" style="stop-color: #279362; stop-opacity: 1"/>
  </linearGradient>
  <linearGradient id="90ssummer" x1="0%" x2="0%" y1="0%" y2="100%">
   <stop offset="0%" style="stop-color: #f618c7; stop-opacity: 1"/>
   <stop offset="20%" style="stop-color: #94ffab; stop-opacity: 1"/>
   <stop offset="50%" style="stop-color: #fbfd54; stop-opacity: 1"/>
   <stop offset="100%" style="stop-color: #0f83ae; stop-opacity: 1"/>
  </linearGradient>
 </defs>
 <path fill="currentColor" fill-rule="evenodd" class="ColorScheme-Text" d="M 8,1 C 6,1 3,8 3,15 5,12 8,10 9,10 10,10 11.112,11 13.112,14 13,8 10,1 8,1 Z"/>
 <path fill="url(#oomox)" class="ColorScheme-Text" d="M 8,2 A 6,6 0 0 0 7.219,2.0586 C 6.722,2.9089 6.182,4.1836 5.7031,5.6797 5.0349,7.768 4.5858,10.257 4.3086,12.721 A 6,6 0 0 0 4.3613,12.762 C 4.8082,12.226 5.2283,11.608 5.668,11.168 6.257,10.579 6.817,10.083 7.336,9.707 7.855,9.331 8.25,9 9,9 9.583,9 10.054,9.279 10.43,9.598 10.805,9.917 11.133,10.309 11.482,10.777 11.528,10.839 11.598,10.954 11.645,11.018 11.319,9.138 10.881,7.24 10.316,5.5703 9.833,4.1388 9.291,2.8959 8.793,2.0586 A 6,6 0 0 0 8,2 Z M 4.4941,3.1406 A 6,6 0 0 0 2,8 6,6 0 0 0 2.5078,10.398 C 2.8284,8.517 3.2793,6.688 3.7969,5.0703 4.0174,4.3811 4.2521,3.7411 4.4941,3.1406 Z M 11.537,3.1621 C 11.769,3.723 11.997,4.3 12.211,4.9316 12.76,6.556 13.237,8.374 13.578,10.193 A 6,6 0 0 0 14,8 6,6 0 0 0 11.537,3.1621 Z M 9,11 C 8.945,11 8.967,11.006 9.023,11.041 9.087,11.012 9.104,11 9,11 Z M 9.023,11.041 C 8.934,11.082 8.734,11.162 8.508,11.326 8.12,11.607 7.618,12.046 7.082,12.582 6.753,12.911 6.411,13.284 6.066,13.674 A 6,6 0 0 0 8,14 6,6 0 0 0 10.793,13.307 C 10.457,12.8 10.144,12.33 9.879,11.975 9.575,11.568 9.313,11.273 9.137,11.123 9.076,11.072 9.053,11.059 9.023,11.041 Z"/>
</svg>
