<svg xmlns="http://www.w3.org/2000/svg" width="16" height="16" version="1.1">
 <defs>
   <style id="current-color-scheme" type="text/css">
   .ColorScheme-Text { color: #939597; } .ColorScheme-Highlight { color: #1AD6AB; }
  </style>
  <linearGradient id="arrongin" x1="0%" x2="0%" y1="0%" y2="100%">
   <stop offset="0%" style="stop-color: #dd9b44; stop-opacity: 1"/>
   <stop offset="100%" style="stop-color: #ad6c16; stop-opacity: 1"/>
  </linearGradient>
  <linearGradient id="aurora" x1="0%" x2="0%" y1="0%" y2="100%">
   <stop offset="0%" style="stop-color: #09D4DF; stop-opacity: 1"/>
   <stop offset="100%" style="stop-color: #9269F4; stop-opacity: 1"/>
  </linearGradient>
  <linearGradient id="cyberneon" x1="0%" x2="0%" y1="0%" y2="100%">
    <stop offset="0" style="stop-color: #0abdc6; stop-opacity: 1"/>
    <stop offset="1" style="stop-color: #ea00d9; stop-opacity: 1"/>
  </linearGradient>
  <linearGradient id="fitdance" x1="0%" x2="0%" y1="0%" y2="100%">
   <stop offset="0%" style="stop-color: #1AD6AB; stop-opacity: 1"/>
   <stop offset="100%" style="stop-color: #329DB6; stop-opacity: 1"/>
  </linearGradient>
  <linearGradient id="oomox" x1="0%" x2="0%" y1="0%" y2="100%">
   <stop offset="0%" style="stop-color: #66b7ff; stop-opacity: 1"/>
   <stop offset="100%" style="stop-color: #006acc; stop-opacity: 1"/>
  </linearGradient>
  <linearGradient id="rainblue" x1="0%" x2="0%" y1="0%" y2="100%">
   <stop offset="0%" style="stop-color: #00F260; stop-opacity: 1"/>
   <stop offset="100%" style="stop-color: #0575E6; stop-opacity: 1"/>
  </linearGradient>
  <linearGradient id="sunrise" x1="0%" x2="0%" y1="0%" y2="100%">
   <stop offset="0%" style="stop-color: #FF8501; stop-opacity: 1"/>
   <stop offset="100%" style="stop-color: #FFCB01; stop-opacity: 1"/>
  </linearGradient>
  <linearGradient id="telinkrin" x1="0%" x2="0%" y1="0%" y2="100%">
   <stop offset="0%" style="stop-color: #b2ced6; stop-opacity: 1"/>
   <stop offset="100%" style="stop-color: #6da5b7; stop-opacity: 1"/>
  </linearGradient>
  <linearGradient id="60spsycho" x1="0%" x2="0%" y1="0%" y2="100%">
   <stop offset="0%" style="stop-color: #df5940; stop-opacity: 1"/>
   <stop offset="25%" style="stop-color: #d8d15f; stop-opacity: 1"/>
   <stop offset="50%" style="stop-color: #e9882a; stop-opacity: 1"/>
   <stop offset="100%" style="stop-color: #279362; stop-opacity: 1"/>
  </linearGradient>
  <linearGradient id="90ssummer" x1="0%" x2="0%" y1="0%" y2="100%">
   <stop offset="0%" style="stop-color: #f618c7; stop-opacity: 1"/>
   <stop offset="20%" style="stop-color: #94ffab; stop-opacity: 1"/>
   <stop offset="50%" style="stop-color: #fbfd54; stop-opacity: 1"/>
   <stop offset="100%" style="stop-color: #0f83ae; stop-opacity: 1"/>
  </linearGradient>
 </defs>
 <path fill="url(#oomox)" class="ColorScheme-Text" d="M 4.5,2 C 3.3738001,2 2,3.15785 2,4.59375 c 0,0.6178 0.216172,1.413275 0.5761719,1.859375 0.0793,0.2032 -0.00171,0.3711156 -0.00391,0.4160156 -0.0076,0.1531 0.325803,0.218586 1.2207032,-0.070312 C 5.413576,6.1611271 6.4711,5.2487 7,4 L 8,4.0078125 8,3 7,3 C 7,2.2668 5.6262,2 4.5,2 Z M 12,3 c -0.552285,0 -1,0.4477153 -1,1 0,0.5522847 0.447715,1 1,1 0.552285,0 1,-0.4477153 1,-1 0,-0.5522847 -0.447715,-1 -1,-1 z m -3,1 0,0.00781 c -3.9e-5,0.5553269 -0.4525022,1.0042825 -1.0078125,1 L 7.46875,5.0039062 C 6.7477582,6.1856235 5.6666772,7.1368893 4.1582031,7.7304688 4.1389001,7.738238 4.1193594,7.745403 4.0996094,7.7519531 3.6798801,7.8874544 3.357642,7.9547326 3.0390625,7.9785156 2.8456037,9.019372 2.5364653,10.300783 2,11 c 0,0 2.668,-0.0084 4,0 l 3,0 C 8.747,9.908 6.9061003,7.9765 9,8 L 8.9882812,7.5 C 9.5806335,6.9056393 10.322921,6.3215089 10.955078,5.7011719 10.362979,5.338371 10.001443,4.6944091 10,4 9.878014,4.000267 9.8285863,3.99859 9.7070312,4 9.1910155,4.00602 9.2696451,4.000864 9,4 Z M 6,7 C 7.4074001,7.031573 8,8 8,8 L 6,8 Z m 6.021484,1.9785156 0,1.2929684 -0.914062,-0.9140621 -0.707031,0.7070311 0.914062,0.914063 -1.292969,0 0,1 1.292969,0 -0.914062,0.914062 0.707031,0.707031 0.914062,-0.914062 0,1.292969 1,0 0,-1.292969 0.914063,0.914062 0.707031,-0.707031 -0.914062,-0.914062 1.292968,0 0,-1 -1.292968,0 0.914062,-0.914063 -0.707031,-0.7070311 -0.914063,0.9140621 0,-1.2929684 z M 12,11 l 1,0 0,1 -1,0 z"/>
</svg>
