<svg xmlns="http://www.w3.org/2000/svg" width="16" height="16" version="1.1">
 <defs>
   <style id="current-color-scheme" type="text/css">
   .ColorScheme-Text { color: #939597; } .ColorScheme-Highlight { color: #1AD6AB; }
  </style>
  <linearGradient id="arrongin" x1="0%" x2="0%" y1="0%" y2="100%">
   <stop offset="0%" style="stop-color: #dd9b44; stop-opacity: 1"/>
   <stop offset="100%" style="stop-color: #ad6c16; stop-opacity: 1"/>
  </linearGradient>
  <linearGradient id="aurora" x1="0%" x2="0%" y1="0%" y2="100%">
   <stop offset="0%" style="stop-color: #09D4DF; stop-opacity: 1"/>
   <stop offset="100%" style="stop-color: #9269F4; stop-opacity: 1"/>
  </linearGradient>
  <linearGradient id="cyberneon" x1="0%" x2="0%" y1="0%" y2="100%">
    <stop offset="0" style="stop-color: #0abdc6; stop-opacity: 1"/>
    <stop offset="1" style="stop-color: #ea00d9; stop-opacity: 1"/>
  </linearGradient>
  <linearGradient id="fitdance" x1="0%" x2="0%" y1="0%" y2="100%">
   <stop offset="0%" style="stop-color: #1AD6AB; stop-opacity: 1"/>
   <stop offset="100%" style="stop-color: #329DB6; stop-opacity: 1"/>
  </linearGradient>
  <linearGradient id="oomox" x1="0%" x2="0%" y1="0%" y2="100%">
   <stop offset="0%" style="stop-color: #66b7ff; stop-opacity: 1"/>
   <stop offset="100%" style="stop-color: #006acc; stop-opacity: 1"/>
  </linearGradient>
  <linearGradient id="rainblue" x1="0%" x2="0%" y1="0%" y2="100%">
   <stop offset="0%" style="stop-color: #00F260; stop-opacity: 1"/>
   <stop offset="100%" style="stop-color: #0575E6; stop-opacity: 1"/>
  </linearGradient>
  <linearGradient id="sunrise" x1="0%" x2="0%" y1="0%" y2="100%">
   <stop offset="0%" style="stop-color: #FF8501; stop-opacity: 1"/>
   <stop offset="100%" style="stop-color: #FFCB01; stop-opacity: 1"/>
  </linearGradient>
  <linearGradient id="telinkrin" x1="0%" x2="0%" y1="0%" y2="100%">
   <stop offset="0%" style="stop-color: #b2ced6; stop-opacity: 1"/>
   <stop offset="100%" style="stop-color: #6da5b7; stop-opacity: 1"/>
  </linearGradient>
  <linearGradient id="60spsycho" x1="0%" x2="0%" y1="0%" y2="100%">
   <stop offset="0%" style="stop-color: #df5940; stop-opacity: 1"/>
   <stop offset="25%" style="stop-color: #d8d15f; stop-opacity: 1"/>
   <stop offset="50%" style="stop-color: #e9882a; stop-opacity: 1"/>
   <stop offset="100%" style="stop-color: #279362; stop-opacity: 1"/>
  </linearGradient>
  <linearGradient id="90ssummer" x1="0%" x2="0%" y1="0%" y2="100%">
   <stop offset="0%" style="stop-color: #f618c7; stop-opacity: 1"/>
   <stop offset="20%" style="stop-color: #94ffab; stop-opacity: 1"/>
   <stop offset="50%" style="stop-color: #fbfd54; stop-opacity: 1"/>
   <stop offset="100%" style="stop-color: #0f83ae; stop-opacity: 1"/>
  </linearGradient>
 </defs>
 <path fill="url(#oomox)" class="ColorScheme-Text" d="M 4.5 2 C 3.3738001 2 2 3.15785 2 4.59375 C 2 5.21155 2.216172 6.007025 2.5761719 6.453125 C 2.6554719 6.656325 2.5744656 6.8242406 2.5722656 6.8691406 C 2.5646656 7.0222406 2.8980686 7.0877271 3.7929688 6.7988281 C 5.4135723 6.1611276 6.4711 5.2487 7 4 L 8 4.0078125 L 8 3 L 7 3 C 7 2.2668 5.6262 2 4.5 2 z M 12 3 A 1 1 0 0 0 11 4 A 1 1 0 0 0 12 5 A 1 1 0 0 0 13 4 A 1 1 0 0 0 12 3 z M 9 4 L 9 4.0078125 A 1.0001 1.0001 0 0 1 7.9921875 5.0078125 L 7.46875 5.0039062 C 6.7477582 6.1856235 5.6666772 7.1368893 4.1582031 7.7304688 A 1.0001 1.0001 0 0 1 4.0996094 7.7519531 C 3.6798804 7.8874547 3.357642 7.9547326 3.0390625 7.9785156 C 2.8456037 9.019372 2.5364653 10.300783 2 11 C 2 11 4.668 10.9916 6 11 L 9 11 C 8.747 9.908 6.9061003 7.9765 9 8 L 8.9882812 7.5 C 9.5806335 6.9056393 10.322921 6.3215089 10.955078 5.7011719 A 2 2 0 0 1 10 4 C 9.878014 4.000267 9.8285863 3.99859 9.7070312 4 C 9.1910154 4.00602 9.2696451 4.000864 9 4 z M 6 7 C 7.4074001 7.031573 8 8 8 8 L 6 8 L 6 7 z M 10.707031 9.7578125 L 10 10.464844 L 11.414062 11.878906 L 10 13.292969 L 10.707031 14 L 12.121094 12.585938 L 13.535156 14 L 14.242188 13.292969 L 12.828125 11.878906 L 14.242188 10.464844 L 13.535156 9.7578125 L 12.121094 11.171875 L 10.707031 9.7578125 z"/>
</svg>
