<svg xmlns="http://www.w3.org/2000/svg" width="16" height="16" version="1.1">
 <defs>
   <style id="current-color-scheme" type="text/css">
   .ColorScheme-Text { color: #939597; } .ColorScheme-Highlight { color: #1AD6AB; }
  </style>
  <linearGradient id="arrongin" x1="0%" x2="0%" y1="0%" y2="100%">
   <stop offset="0%" style="stop-color: #dd9b44; stop-opacity: 1"/>
   <stop offset="100%" style="stop-color: #ad6c16; stop-opacity: 1"/>
  </linearGradient>
  <linearGradient id="aurora" x1="0%" x2="0%" y1="0%" y2="100%">
   <stop offset="0%" style="stop-color: #09D4DF; stop-opacity: 1"/>
   <stop offset="100%" style="stop-color: #9269F4; stop-opacity: 1"/>
  </linearGradient>
  <linearGradient id="cyberneon" x1="0%" x2="0%" y1="0%" y2="100%">
    <stop offset="0" style="stop-color: #0abdc6; stop-opacity: 1"/>
    <stop offset="1" style="stop-color: #ea00d9; stop-opacity: 1"/>
  </linearGradient>
  <linearGradient id="fitdance" x1="0%" x2="0%" y1="0%" y2="100%">
   <stop offset="0%" style="stop-color: #1AD6AB; stop-opacity: 1"/>
   <stop offset="100%" style="stop-color: #329DB6; stop-opacity: 1"/>
  </linearGradient>
  <linearGradient id="oomox" x1="0%" x2="0%" y1="0%" y2="100%">
   <stop offset="0%" style="stop-color: #66b7ff; stop-opacity: 1"/>
   <stop offset="100%" style="stop-color: #006acc; stop-opacity: 1"/>
  </linearGradient>
  <linearGradient id="rainblue" x1="0%" x2="0%" y1="0%" y2="100%">
   <stop offset="0%" style="stop-color: #00F260; stop-opacity: 1"/>
   <stop offset="100%" style="stop-color: #0575E6; stop-opacity: 1"/>
  </linearGradient>
  <linearGradient id="sunrise" x1="0%" x2="0%" y1="0%" y2="100%">
   <stop offset="0%" style="stop-color: #FF8501; stop-opacity: 1"/>
   <stop offset="100%" style="stop-color: #FFCB01; stop-opacity: 1"/>
  </linearGradient>
  <linearGradient id="telinkrin" x1="0%" x2="0%" y1="0%" y2="100%">
   <stop offset="0%" style="stop-color: #b2ced6; stop-opacity: 1"/>
   <stop offset="100%" style="stop-color: #6da5b7; stop-opacity: 1"/>
  </linearGradient>
  <linearGradient id="60spsycho" x1="0%" x2="0%" y1="0%" y2="100%">
   <stop offset="0%" style="stop-color: #df5940; stop-opacity: 1"/>
   <stop offset="25%" style="stop-color: #d8d15f; stop-opacity: 1"/>
   <stop offset="50%" style="stop-color: #e9882a; stop-opacity: 1"/>
   <stop offset="100%" style="stop-color: #279362; stop-opacity: 1"/>
  </linearGradient>
  <linearGradient id="90ssummer" x1="0%" x2="0%" y1="0%" y2="100%">
   <stop offset="0%" style="stop-color: #f618c7; stop-opacity: 1"/>
   <stop offset="20%" style="stop-color: #94ffab; stop-opacity: 1"/>
   <stop offset="50%" style="stop-color: #fbfd54; stop-opacity: 1"/>
   <stop offset="100%" style="stop-color: #0f83ae; stop-opacity: 1"/>
  </linearGradient>
 </defs>
 <path fill="currentColor" fill-rule="evenodd" class="ColorScheme-Text" d="M 8,1 V 3.4706 L 13,6.7647 V 4.2942 Z M 2.75,1.5952 C 2.336,1.5952 2,1.9641 2,2.4187 V 3.4706 L 7,6.7647 V 4.2958 C 5.6253,3.4327 4.4946,2.5635 3.1221,1.7046 3.0088,1.6329 2.8805,1.5952 2.75,1.5952 Z M 2,5.1177 V 7.5883 L 7,10.882 V 8.4118 Z M 8,5.1177 V 7.5883 L 13,10.882 V 8.4118 Z M 2,9.2353 V 11.706 L 7.25,15 7,12.529 Z M 8,9.2353 V 11.704 C 9.3748,12.567 10.506,13.437 11.878,14.296 11.991,14.368 12.12,14.405 12.25,14.405 12.664,14.405 13,14.036 13,13.581 V 12.529 Z"/>
</svg>
