<svg xmlns="http://www.w3.org/2000/svg" width="16" height="16" version="1.1">
 <defs>
   <style id="current-color-scheme" type="text/css">
   .ColorScheme-Text { color: #939597; } .ColorScheme-Highlight { color: #1AD6AB; }
  </style>
  <linearGradient id="arrongin" x1="0%" x2="0%" y1="0%" y2="100%">
   <stop offset="0%" style="stop-color: #dd9b44; stop-opacity: 1"/>
   <stop offset="100%" style="stop-color: #ad6c16; stop-opacity: 1"/>
  </linearGradient>
  <linearGradient id="aurora" x1="0%" x2="0%" y1="0%" y2="100%">
   <stop offset="0%" style="stop-color: #09D4DF; stop-opacity: 1"/>
   <stop offset="100%" style="stop-color: #9269F4; stop-opacity: 1"/>
  </linearGradient>
  <linearGradient id="cyberneon" x1="0%" x2="0%" y1="0%" y2="100%">
    <stop offset="0" style="stop-color: #0abdc6; stop-opacity: 1"/>
    <stop offset="1" style="stop-color: #ea00d9; stop-opacity: 1"/>
  </linearGradient>
  <linearGradient id="fitdance" x1="0%" x2="0%" y1="0%" y2="100%">
   <stop offset="0%" style="stop-color: #1AD6AB; stop-opacity: 1"/>
   <stop offset="100%" style="stop-color: #329DB6; stop-opacity: 1"/>
  </linearGradient>
  <linearGradient id="oomox" x1="0%" x2="0%" y1="0%" y2="100%">
   <stop offset="0%" style="stop-color: #66b7ff; stop-opacity: 1"/>
   <stop offset="100%" style="stop-color: #006acc; stop-opacity: 1"/>
  </linearGradient>
  <linearGradient id="rainblue" x1="0%" x2="0%" y1="0%" y2="100%">
   <stop offset="0%" style="stop-color: #00F260; stop-opacity: 1"/>
   <stop offset="100%" style="stop-color: #0575E6; stop-opacity: 1"/>
  </linearGradient>
  <linearGradient id="sunrise" x1="0%" x2="0%" y1="0%" y2="100%">
   <stop offset="0%" style="stop-color: #FF8501; stop-opacity: 1"/>
   <stop offset="100%" style="stop-color: #FFCB01; stop-opacity: 1"/>
  </linearGradient>
  <linearGradient id="telinkrin" x1="0%" x2="0%" y1="0%" y2="100%">
   <stop offset="0%" style="stop-color: #b2ced6; stop-opacity: 1"/>
   <stop offset="100%" style="stop-color: #6da5b7; stop-opacity: 1"/>
  </linearGradient>
  <linearGradient id="60spsycho" x1="0%" x2="0%" y1="0%" y2="100%">
   <stop offset="0%" style="stop-color: #df5940; stop-opacity: 1"/>
   <stop offset="25%" style="stop-color: #d8d15f; stop-opacity: 1"/>
   <stop offset="50%" style="stop-color: #e9882a; stop-opacity: 1"/>
   <stop offset="100%" style="stop-color: #279362; stop-opacity: 1"/>
  </linearGradient>
  <linearGradient id="90ssummer" x1="0%" x2="0%" y1="0%" y2="100%">
   <stop offset="0%" style="stop-color: #f618c7; stop-opacity: 1"/>
   <stop offset="20%" style="stop-color: #94ffab; stop-opacity: 1"/>
   <stop offset="50%" style="stop-color: #fbfd54; stop-opacity: 1"/>
   <stop offset="100%" style="stop-color: #0f83ae; stop-opacity: 1"/>
  </linearGradient>
 </defs>
 <path fill="url(#oomox)" class="ColorScheme-Text" d="M 4.5,14.062178 A 7,7 0 0 0 14.062178,11.5 7,7 0 0 0 11.5,1.9378223 7,7 0 0 0 1.9378223,4.5 7,7 0 0 0 4.5,14.062178 Z M 5.5000001,12.330127 A 5,5 0 0 1 3.2776918,6.3628721 1.5,1.5 0 0 1 3.0538483,4.5669877 1.5,1.5 0 0 1 5.0332741,3.9822702 5,5 0 0 1 8.5623478,3.0337984 1.5,1.5 0 0 1 10.566988,2.5538484 1.5,1.5 0 0 1 11.270098,4.2227431 5,5 0 0 1 12.330127,10.5 a 5,5 0 0 1 -0.0447,0.07343 1.5,1.5 0 0 1 0.160685,1.725589 1.5,1.5 0 0 1 -2.049038,0.549039 1.5,1.5 0 0 1 -0.357975,-0.290127 5,5 0 0 1 -4.5390969,-0.2278 z m 0.4999998,-0.866025 a 4,4 0 0 0 3.6498057,0.174447 1.5,1.5 0 0 1 0.1982708,-0.839511 1.5,1.5 0 0 1 0.03365,-0.05048 L 8.2988169,8.7363406 A 1.5,1.5 0 0 1 7.0669875,8.6160255 1.5,1.5 0 0 1 6.3440649,7.0439454 L 5.3258082,6.4560546 A 1.5,1.5 0 0 1 4.1883077,6.8051711 4,4 0 0 0 5.9999999,11.464102 Z m 4.6669771,-1.33344 a 1.5,1.5 0 0 1 0.74882,-0.05481 A 4,4 0 0 0 11.464102,10 4,4 0 0 0 10.706276,5.0586862 1.5,1.5 0 0 1 9.5439456,5.325808 L 8.9560549,6.3440649 a 1.5,1.5 0 0 1 0.1599707,1.7229225 1.5,1.5 0 0 1 -0.03366,0.050481 L 10.666977,10.130662 Z M 6.8440651,6.1779202 A 1.5,1.5 0 0 1 8.0900294,5.8440651 L 8.6779201,4.8258079 A 1.5,1.5 0 0 1 8.3299998,4.0182684 4,4 0 0 0 5.7260141,4.7160039 a 1.5,1.5 0 0 1 0.09979,0.8740254 l 1.0182609,0.5878909 z"/>
</svg>
