<svg xmlns="http://www.w3.org/2000/svg" width="16" height="16" version="1.1">
 <defs>
   <style id="current-color-scheme" type="text/css">
   .ColorScheme-Text { color: #939597; } .ColorScheme-Highlight { color: #1AD6AB; }
  </style>
  <linearGradient id="arrongin" x1="0%" x2="0%" y1="0%" y2="100%">
   <stop offset="0%" style="stop-color: #dd9b44; stop-opacity: 1"/>
   <stop offset="100%" style="stop-color: #ad6c16; stop-opacity: 1"/>
  </linearGradient>
  <linearGradient id="aurora" x1="0%" x2="0%" y1="0%" y2="100%">
   <stop offset="0%" style="stop-color: #09D4DF; stop-opacity: 1"/>
   <stop offset="100%" style="stop-color: #9269F4; stop-opacity: 1"/>
  </linearGradient>
  <linearGradient id="cyberneon" x1="0%" x2="0%" y1="0%" y2="100%">
    <stop offset="0" style="stop-color: #0abdc6; stop-opacity: 1"/>
    <stop offset="1" style="stop-color: #ea00d9; stop-opacity: 1"/>
  </linearGradient>
  <linearGradient id="fitdance" x1="0%" x2="0%" y1="0%" y2="100%">
   <stop offset="0%" style="stop-color: #1AD6AB; stop-opacity: 1"/>
   <stop offset="100%" style="stop-color: #329DB6; stop-opacity: 1"/>
  </linearGradient>
  <linearGradient id="oomox" x1="0%" x2="0%" y1="0%" y2="100%">
   <stop offset="0%" style="stop-color: #66b7ff; stop-opacity: 1"/>
   <stop offset="100%" style="stop-color: #006acc; stop-opacity: 1"/>
  </linearGradient>
  <linearGradient id="rainblue" x1="0%" x2="0%" y1="0%" y2="100%">
   <stop offset="0%" style="stop-color: #00F260; stop-opacity: 1"/>
   <stop offset="100%" style="stop-color: #0575E6; stop-opacity: 1"/>
  </linearGradient>
  <linearGradient id="sunrise" x1="0%" x2="0%" y1="0%" y2="100%">
   <stop offset="0%" style="stop-color: #FF8501; stop-opacity: 1"/>
   <stop offset="100%" style="stop-color: #FFCB01; stop-opacity: 1"/>
  </linearGradient>
  <linearGradient id="telinkrin" x1="0%" x2="0%" y1="0%" y2="100%">
   <stop offset="0%" style="stop-color: #b2ced6; stop-opacity: 1"/>
   <stop offset="100%" style="stop-color: #6da5b7; stop-opacity: 1"/>
  </linearGradient>
  <linearGradient id="60spsycho" x1="0%" x2="0%" y1="0%" y2="100%">
   <stop offset="0%" style="stop-color: #df5940; stop-opacity: 1"/>
   <stop offset="25%" style="stop-color: #d8d15f; stop-opacity: 1"/>
   <stop offset="50%" style="stop-color: #e9882a; stop-opacity: 1"/>
   <stop offset="100%" style="stop-color: #279362; stop-opacity: 1"/>
  </linearGradient>
  <linearGradient id="90ssummer" x1="0%" x2="0%" y1="0%" y2="100%">
   <stop offset="0%" style="stop-color: #f618c7; stop-opacity: 1"/>
   <stop offset="20%" style="stop-color: #94ffab; stop-opacity: 1"/>
   <stop offset="50%" style="stop-color: #fbfd54; stop-opacity: 1"/>
   <stop offset="100%" style="stop-color: #0f83ae; stop-opacity: 1"/>
  </linearGradient>
 </defs>
 <path fill="url(#oomox)" class="ColorScheme-Text" d="m 15,8 a 7,7 0 0 0 -6.9999999,-7 7,7 0 0 0 -7,7 A 7,7 0 0 0 8,15 7,7 0 0 0 15,8 Z m -2,-1e-7 A 5,5 0 0 1 8.9433596,12.908203 1.5,1.5 0 0 1 7.5,13.999999 1.5,1.5 0 0 1 6.0039069,12.578125 5,5 0 0 1 3.4179694,9.9960934 1.5,1.5 0 0 1 2.0000007,8.4999995 1.5,1.5 0 0 1 3.0937504,7.0566403 5,5 0 0 1 8.0000001,3 5,5 0 0 1 8.0859376,3.0019531 1.5,1.5 0 0 1 9.5000001,2 1.5,1.5 0 0 1 11,3.5 1.5,1.5 0 0 1 10.927735,3.9550781 5,5 0 0 1 13,7.9999999 Z m -1,2e-7 A 4,4 0 0 0 10.326172,4.751953 1.5,1.5 0 0 1 9.5000001,5 1.5,1.5 0 0 1 9.4394533,4.9960938 L 8.4882813,7.3730469 A 1.5,1.5 0 0 1 9.0000001,8.5 a 1.5,1.5 0 0 1 -1,1.4121094 l 0,1.1757816 A 1.5,1.5 0 0 1 8.8710938,11.898437 4,4 0 0 0 12,8.0000001 Z M 8.5117189,4.625 A 1.5,1.5 0 0 1 8.0898439,4.0039062 4,4 0 0 0 8.0000001,4 4,4 0 0 0 4.0996093,7.1269529 1.5,1.5 0 0 1 4.9121091,8 l 1.1757816,0 a 1.5,1.5 0 0 1 1.4121094,-1 1.5,1.5 0 0 1 0.060547,0.00391 L 8.5117189,4.625 Z M 7.0000002,9.9121091 A 1.5,1.5 0 0 1 6.087891,8.9999998 l -1.175782,3e-7 A 1.5,1.5 0 0 1 4.3867194,9.7050777 4,4 0 0 0 6.2929691,11.611328 1.5,1.5 0 0 1 7.000002,11.087894 l -1.8e-6,-1.1757849 z"/>
</svg>
