<svg xmlns="http://www.w3.org/2000/svg" width="16" height="16" version="1.1">
 <defs>
   <style id="current-color-scheme" type="text/css">
   .ColorScheme-Text { color: #939597; } .ColorScheme-Highlight { color: #1AD6AB; }
  </style>
  <linearGradient id="arrongin" x1="0%" x2="0%" y1="0%" y2="100%">
   <stop offset="0%" style="stop-color: #dd9b44; stop-opacity: 1"/>
   <stop offset="100%" style="stop-color: #ad6c16; stop-opacity: 1"/>
  </linearGradient>
  <linearGradient id="aurora" x1="0%" x2="0%" y1="0%" y2="100%">
   <stop offset="0%" style="stop-color: #09D4DF; stop-opacity: 1"/>
   <stop offset="100%" style="stop-color: #9269F4; stop-opacity: 1"/>
  </linearGradient>
  <linearGradient id="cyberneon" x1="0%" x2="0%" y1="0%" y2="100%">
    <stop offset="0" style="stop-color: #0abdc6; stop-opacity: 1"/>
    <stop offset="1" style="stop-color: #ea00d9; stop-opacity: 1"/>
  </linearGradient>
  <linearGradient id="fitdance" x1="0%" x2="0%" y1="0%" y2="100%">
   <stop offset="0%" style="stop-color: #1AD6AB; stop-opacity: 1"/>
   <stop offset="100%" style="stop-color: #329DB6; stop-opacity: 1"/>
  </linearGradient>
  <linearGradient id="oomox" x1="0%" x2="0%" y1="0%" y2="100%">
   <stop offset="0%" style="stop-color: #66b7ff; stop-opacity: 1"/>
   <stop offset="100%" style="stop-color: #006acc; stop-opacity: 1"/>
  </linearGradient>
  <linearGradient id="rainblue" x1="0%" x2="0%" y1="0%" y2="100%">
   <stop offset="0%" style="stop-color: #00F260; stop-opacity: 1"/>
   <stop offset="100%" style="stop-color: #0575E6; stop-opacity: 1"/>
  </linearGradient>
  <linearGradient id="sunrise" x1="0%" x2="0%" y1="0%" y2="100%">
   <stop offset="0%" style="stop-color: #FF8501; stop-opacity: 1"/>
   <stop offset="100%" style="stop-color: #FFCB01; stop-opacity: 1"/>
  </linearGradient>
  <linearGradient id="telinkrin" x1="0%" x2="0%" y1="0%" y2="100%">
   <stop offset="0%" style="stop-color: #b2ced6; stop-opacity: 1"/>
   <stop offset="100%" style="stop-color: #6da5b7; stop-opacity: 1"/>
  </linearGradient>
  <linearGradient id="60spsycho" x1="0%" x2="0%" y1="0%" y2="100%">
   <stop offset="0%" style="stop-color: #df5940; stop-opacity: 1"/>
   <stop offset="25%" style="stop-color: #d8d15f; stop-opacity: 1"/>
   <stop offset="50%" style="stop-color: #e9882a; stop-opacity: 1"/>
   <stop offset="100%" style="stop-color: #279362; stop-opacity: 1"/>
  </linearGradient>
  <linearGradient id="90ssummer" x1="0%" x2="0%" y1="0%" y2="100%">
   <stop offset="0%" style="stop-color: #f618c7; stop-opacity: 1"/>
   <stop offset="20%" style="stop-color: #94ffab; stop-opacity: 1"/>
   <stop offset="50%" style="stop-color: #fbfd54; stop-opacity: 1"/>
   <stop offset="100%" style="stop-color: #0f83ae; stop-opacity: 1"/>
  </linearGradient>
 </defs>
 <path fill="#939597" d="M0 2.34493H3.41089C3.92343 2.34493 4.37995 2.66893 4.54912 3.15274L8.90435 15.6087L7.69855 11.4812L13.4957 3.87536L16 6.24058L11.3159 1H15.258C15.6678 1 16 1.33222 16 1.74203V6.24058L8.90435 15.6087H5.4714C4.99956 15.6087 4.579 15.3112 4.42188 14.8663L0 2.34493Z"/>
 <rect fill="url(#paint0_linear)" width="4" height="6" x="10" y="9"/>
 <path fill="url(#paint1_linear)" d="M12 8C9.79086 8 8 9.79086 8 12C8 14.2091 9.79086 16 12 16C14.2091 16 16 14.2091 16 12C16 9.79086 14.2091 8 12 8ZM11.4286 9.71429H12.5714V12H14L12 14.8571L10 12H11.4286V9.71429Z"/>
 <defs>
  <linearGradient id="paint0_linear" x1="10.583" x2="10.351" y1="15" y2="9.165" gradientUnits="userSpaceOnUse">
   <stop stop-color="#bfc1c1"/>
   <stop offset="1" stop-color="#f1f2f3"/>
  </linearGradient>
  <linearGradient id="paint1_linear" x1="12" x2="12" y1="16" y2="8" gradientUnits="userSpaceOnUse">
   <stop stop-color="#ff0056"/>
   <stop offset=".1" stop-color="#ff0c4e"/>
   <stop offset=".2" stop-color="#ff1845"/>
   <stop offset=".3" stop-color="#ff243d"/>
   <stop offset=".4" stop-color="#ff3034"/>
   <stop offset=".5" stop-color="#ff3c2b"/>
   <stop offset=".6" stop-color="#ff4823"/>
   <stop offset=".7" stop-color="#ff541a"/>
   <stop offset=".8" stop-color="#ff6012"/>
   <stop offset=".9" stop-color="#ff6c09"/>
   <stop offset="1"  stop-color="#ff7901"/>
  </linearGradient>
 </defs>
</svg>
