<svg xmlns="http://www.w3.org/2000/svg" width="48" height="48">
<defs>
<defs
     id="defs3334">
  </defs>
  <path
     d="M 24 2 C 11.856 2 2 11.856002 2 24 C 2 36.143997 11.856 46 24 46 C 36.144001 46 46 36.143997 46 24 C 46 11.856002 36.144001 2 24 2 z M 24 3 L 24 14.71875 C 29.119529 14.71875 33.28125 18.880467 33.28125 24 C 33.28125 29.119529 29.119529 33.28125 24 33.28125 C 20.887524 33.28125 18.151268 31.729573 16.46875 29.375 L 6.90625 36.1875 C 0.17321248 26.744019 2.3690186 13.639288 11.8125 6.90625 C 15.371268 4.3689104 19.629311 3.0000012 24 3 z M 24 16.03125 L 24 17.96875 C 27.333647 17.96875 30.03125 20.666353 30.03125 24 C 30.03125 27.333647 27.333647 30.03125 24 30.03125 C 21.972473 30.03125 20.189224 29.034234 19.09375 27.5 L 17.5 28.625 C 18.947413 30.653893 21.319589 31.96875 24 31.96875 C 28.405176 31.96875 31.96875 28.405177 31.96875 24 C 31.96875 19.594823 28.405176 16.03125 24 16.03125 z "
     id="path-main" />
</defs>

<use id="1" style="fill:#009688" xlink:href="#path-main" />



</svg>
