<svg xmlns="http://www.w3.org/2000/svg" width="16" height="16" version="1.1">
<defs>
  <linearGradient id="carbon" x1="0%" x2="0%" y1="0%" y2="100%">
   <stop offset="0%" style="stop-color: #525c66; stop-opacity: 1"/>
   <stop offset="100%" style="stop-color: #36424e; stop-opacity: 1"/>
  </linearGradient>
  <linearGradient id="cyberneon" x1="0%" x2="0%" y1="0%" y2="100%">
    <stop offset="0" style="stop-color: #0abdc6; stop-opacity: 1"/>
    <stop offset="1" style="stop-color: #ea00d9; stop-opacity: 1"/>
  </linearGradient>
  <linearGradient id="fitdance" x1="0%" x2="0%" y1="0%" y2="100%">
   <stop offset="0%" style="stop-color: #1ad6ab; stop-opacity: 1"/>
   <stop offset="100%" style="stop-color: #329db6; stop-opacity: 1"/>
  </linearGradient>
</defs>
 <circle fill="url(#carbon)" cx="8" cy="8" r="7"/>
 <path fill="#ececec" d="m 7.9999978,2.0000005 c -1.6,0 -3,1 -3,2.9166643 l 0,1.0833357 -0.3333333,0 c -0.3693333,0 -0.6666667,0.3662857 -0.6666667,0.762 l 0,4.5237145 C 3.9999978,11.681429 4.2973312,12 4.6666645,12 l 6.6666665,0 c 0.369334,0 0.666667,-0.318571 0.666667,-0.714285 l 0,-4.5237145 c 0,-0.3957143 -0.343447,-0.762 -0.666667,-0.762 l -0.333333,0 0,-1.0833357 c 0,-1.9166643 -1.4000001,-2.9166643 -3.0000002,-2.9166643 z m 0,1 c 0.8000001,0 2.0000001,0.5504643 2.0000001,1.9166643 l 0,1.0833357 -4.0000001,0 0,-1.0833357 c 0,-1.3526786 1.2,-1.9166643 2,-1.9166643 z"/>
</svg>
