<svg xmlns="http://www.w3.org/2000/svg" width="16" height="16" version="1.1">
 <defs>
   <style id="current-color-scheme" type="text/css">
   .ColorScheme-Text { color: #d3dae3; } .ColorScheme-Highlight { color: #1AD6AB; }
  </style>
  <linearGradient id="arrongin" x1="0%" x2="0%" y1="0%" y2="100%">
   <stop offset="0%" style="stop-color: #dd9b44; stop-opacity: 1"/>
   <stop offset="100%" style="stop-color: #ad6c16; stop-opacity: 1"/>
  </linearGradient>
  <linearGradient id="aurora" x1="0%" x2="0%" y1="0%" y2="100%">
   <stop offset="0%" style="stop-color: #09D4DF; stop-opacity: 1"/>
   <stop offset="100%" style="stop-color: #9269F4; stop-opacity: 1"/>
  </linearGradient>
  <linearGradient id="cyberneon" x1="0%" x2="0%" y1="0%" y2="100%">
    <stop offset="0" style="stop-color: #0abdc6; stop-opacity: 1"/>
    <stop offset="1" style="stop-color: #ea00d9; stop-opacity: 1"/>
  </linearGradient>
  <linearGradient id="fitdance" x1="0%" x2="0%" y1="0%" y2="100%">
   <stop offset="0%" style="stop-color: #1AD6AB; stop-opacity: 1"/>
   <stop offset="100%" style="stop-color: #329DB6; stop-opacity: 1"/>
  </linearGradient>
  <linearGradient id="oomox" x1="0%" x2="0%" y1="0%" y2="100%">
   <stop offset="0%" style="stop-color: #a4d8d4; stop-opacity: 1"/>
   <stop offset="100%" style="stop-color: #318c85; stop-opacity: 1"/>
  </linearGradient>
  <linearGradient id="rainblue" x1="0%" x2="0%" y1="0%" y2="100%">
   <stop offset="0%" style="stop-color: #00F260; stop-opacity: 1"/>
   <stop offset="100%" style="stop-color: #0575E6; stop-opacity: 1"/>
  </linearGradient>
  <linearGradient id="sunrise" x1="0%" x2="0%" y1="0%" y2="100%">
   <stop offset="0%" style="stop-color: #FF8501; stop-opacity: 1"/>
   <stop offset="100%" style="stop-color: #FFCB01; stop-opacity: 1"/>
  </linearGradient>
  <linearGradient id="telinkrin" x1="0%" x2="0%" y1="0%" y2="100%">
   <stop offset="0%" style="stop-color: #b2ced6; stop-opacity: 1"/>
   <stop offset="100%" style="stop-color: #6da5b7; stop-opacity: 1"/>
  </linearGradient>
  <linearGradient id="60spsycho" x1="0%" x2="0%" y1="0%" y2="100%">
   <stop offset="0%" style="stop-color: #df5940; stop-opacity: 1"/>
   <stop offset="25%" style="stop-color: #d8d15f; stop-opacity: 1"/>
   <stop offset="50%" style="stop-color: #e9882a; stop-opacity: 1"/>
   <stop offset="100%" style="stop-color: #279362; stop-opacity: 1"/>
  </linearGradient>
  <linearGradient id="90ssummer" x1="0%" x2="0%" y1="0%" y2="100%">
   <stop offset="0%" style="stop-color: #f618c7; stop-opacity: 1"/>
   <stop offset="20%" style="stop-color: #94ffab; stop-opacity: 1"/>
   <stop offset="50%" style="stop-color: #fbfd54; stop-opacity: 1"/>
   <stop offset="100%" style="stop-color: #0f83ae; stop-opacity: 1"/>
  </linearGradient>
 </defs>
 <path fill="url(#oomox)" class="ColorScheme-Text" d="M 2.7128906 1 C 2.532375 1.0039374 2.3755848 1.0700173 2.2578125 1.1894531 C 2.090497 1.3565758 2 1.628433 2 1.9785156 L 2 14.017578 C 2 14.367573 2.098211 14.637565 2.2578125 14.804688 C 2.5009857 15.05143 2.88125 15.075907 3.3144531 14.8125 L 13.453125 8.78125 C 14.183416 8.351631 14.183416 7.6523373 13.453125 7.2148438 L 13.042969 6.96875 C 13.042152 6.9693437 12.887032 6.8763187 12.857422 6.859375 C 12.339653 4.6498869 10.367368 3 8 3 C 7.5396948 3 7.1029903 3.0827634 6.6796875 3.1992188 C 5.1333382 2.2725661 3.3144531 1.1816406 3.3144531 1.1816406 C 3.0978516 1.0543299 2.8934062 0.99597506 2.7128906 1 z M 8 4 L 8.0195312 4.0019531 C 9.6026524 4.0097231 10.956304 4.9429666 11.597656 6.2832031 C 11.633036 6.3569351 11.674346 6.4283305 11.705078 6.5039062 C 11.705845 6.5057963 11.706231 6.5078756 11.707031 6.5097656 C 11.784931 6.7032852 11.845447 6.9042012 11.892578 7.1113281 C 11.906488 7.1715451 11.916624 7.2321352 11.927734 7.2929688 C 11.968878 7.5231774 12 7.757945 12 8 C 12 8.1690928 11.973485 8.3305646 11.953125 8.4941406 L 6.546875 11.716797 C 6.528911 11.709797 6.5100235 11.704546 6.4921875 11.697266 C 6.374646 11.649356 6.2633344 11.591173 6.1523438 11.533203 C 6.0739387 11.492093 5.9951547 11.452303 5.9199219 11.40625 C 5.8277839 11.35006 5.7409391 11.287579 5.6542969 11.224609 C 5.5690199 11.162429 5.4842822 11.099821 5.4042969 11.03125 C 5.3277969 10.96578 5.2546685 10.896945 5.1835938 10.826172 C 5.1101645 10.752977 5.0382913 10.678297 4.9707031 10.599609 C 4.901985 10.519604 4.8375127 10.436633 4.7753906 10.351562 C 4.7136141 10.266977 4.6566769 10.179281 4.6015625 10.089844 C 4.5490016 10.004504 4.4972448 9.919243 4.4511719 9.8300781 C 4.4034667 9.7377285 4.3628127 9.6412901 4.3222656 9.5449219 C 4.2812301 9.4474644 4.2383822 9.3508458 4.2050781 9.25 C 4.1685704 9.1390944 4.1440186 9.0231573 4.1171875 8.9082031 C 4.096413 8.8196987 4.0694482 8.7329098 4.0546875 8.6425781 C 4.0208121 8.4330969 4 8.2190438 4 8 C 4 7.7238576 4.0287478 7.4537497 4.0820312 7.1933594 C 4.4550162 5.3706269 6.0670033 3.9999999 8 4 z M 8 6 A 2 2 0 0 0 6 8 A 2 2 0 0 0 8 10 A 2 2 0 0 0 10 8 A 2 2 0 0 0 8 6 z M 12 11 L 12 13.5 L 12 16 L 14 14.75 L 16 13.5 L 14 12.25 L 12 11 z"/>
</svg>
