<svg xmlns="http://www.w3.org/2000/svg" width="16" height="16" version="1.1">
 <defs>
   <style id="current-color-scheme" type="text/css">
   .ColorScheme-Text { color: #d3dae3; } .ColorScheme-Highlight { color: #1AD6AB; }
  </style>
  <linearGradient id="arrongin" x1="0%" x2="0%" y1="0%" y2="100%">
   <stop offset="0%" style="stop-color: #dd9b44; stop-opacity: 1"/>
   <stop offset="100%" style="stop-color: #ad6c16; stop-opacity: 1"/>
  </linearGradient>
  <linearGradient id="aurora" x1="0%" x2="0%" y1="0%" y2="100%">
   <stop offset="0%" style="stop-color: #09D4DF; stop-opacity: 1"/>
   <stop offset="100%" style="stop-color: #9269F4; stop-opacity: 1"/>
  </linearGradient>
  <linearGradient id="cyberneon" x1="0%" x2="0%" y1="0%" y2="100%">
    <stop offset="0" style="stop-color: #0abdc6; stop-opacity: 1"/>
    <stop offset="1" style="stop-color: #ea00d9; stop-opacity: 1"/>
  </linearGradient>
  <linearGradient id="fitdance" x1="0%" x2="0%" y1="0%" y2="100%">
   <stop offset="0%" style="stop-color: #1AD6AB; stop-opacity: 1"/>
   <stop offset="100%" style="stop-color: #329DB6; stop-opacity: 1"/>
  </linearGradient>
  <linearGradient id="oomox" x1="0%" x2="0%" y1="0%" y2="100%">
   <stop offset="0%" style="stop-color: #a4d8d4; stop-opacity: 1"/>
   <stop offset="100%" style="stop-color: #318c85; stop-opacity: 1"/>
  </linearGradient>
  <linearGradient id="rainblue" x1="0%" x2="0%" y1="0%" y2="100%">
   <stop offset="0%" style="stop-color: #00F260; stop-opacity: 1"/>
   <stop offset="100%" style="stop-color: #0575E6; stop-opacity: 1"/>
  </linearGradient>
  <linearGradient id="sunrise" x1="0%" x2="0%" y1="0%" y2="100%">
   <stop offset="0%" style="stop-color: #FF8501; stop-opacity: 1"/>
   <stop offset="100%" style="stop-color: #FFCB01; stop-opacity: 1"/>
  </linearGradient>
  <linearGradient id="telinkrin" x1="0%" x2="0%" y1="0%" y2="100%">
   <stop offset="0%" style="stop-color: #b2ced6; stop-opacity: 1"/>
   <stop offset="100%" style="stop-color: #6da5b7; stop-opacity: 1"/>
  </linearGradient>
  <linearGradient id="60spsycho" x1="0%" x2="0%" y1="0%" y2="100%">
   <stop offset="0%" style="stop-color: #df5940; stop-opacity: 1"/>
   <stop offset="25%" style="stop-color: #d8d15f; stop-opacity: 1"/>
   <stop offset="50%" style="stop-color: #e9882a; stop-opacity: 1"/>
   <stop offset="100%" style="stop-color: #279362; stop-opacity: 1"/>
  </linearGradient>
  <linearGradient id="90ssummer" x1="0%" x2="0%" y1="0%" y2="100%">
   <stop offset="0%" style="stop-color: #f618c7; stop-opacity: 1"/>
   <stop offset="20%" style="stop-color: #94ffab; stop-opacity: 1"/>
   <stop offset="50%" style="stop-color: #fbfd54; stop-opacity: 1"/>
   <stop offset="100%" style="stop-color: #0f83ae; stop-opacity: 1"/>
  </linearGradient>
 </defs>
 <path fill="url(#oomox)" class="ColorScheme-Text" opacity="0.3" d="M 8.029,2 8.031,2.002 C 4.9968,2.002 2.2653,3.2713 0,5.0156 L 8.031,14 9,12.904 V 11 H 10.014 C 10.033,9.365 11.356,8 13,8 13.105,8 13.204,8.02 13.307,8.031 L 16,4.9844 C 13.742,3.2628 11.04,2 8.029,2 Z"/>
 <path fill="url(#oomox)" class="ColorScheme-Text" d="M 8,7 C 5,7 3.0996,8.5 3.0996,8.5 L 8,14 9,12.877 V 11 H 10.014 C 10.03,9.622 10.976,8.447 12.256,8.107 11.478,7.663 10.02,7 8,7 Z"/>
 <path fill="url(#oomox)" class="ColorScheme-Text" d="M 13,9 C 11.892,9 11,9.911 11,11.031 V 12 H 10 V 16 H 16 V 12 H 15 V 11.031 C 15,9.911 14.108,9 13,9 Z M 13,10 C 13.554,10 14,10.442 14,11 V 12 H 12 V 11 C 12,10.442 12.446,10 13,10 Z"/>
</svg>
