<svg xmlns="http://www.w3.org/2000/svg" width="16" height="16" version="1.1">
 <defs>
   <style id="current-color-scheme" type="text/css">
   .ColorScheme-Text { color: #d3dae3; } .ColorScheme-Highlight { color: #1AD6AB; }
  </style>
  <linearGradient id="arrongin" x1="0%" x2="0%" y1="0%" y2="100%">
   <stop offset="0%" style="stop-color: #dd9b44; stop-opacity: 1"/>
   <stop offset="100%" style="stop-color: #ad6c16; stop-opacity: 1"/>
  </linearGradient>
  <linearGradient id="aurora" x1="0%" x2="0%" y1="0%" y2="100%">
   <stop offset="0%" style="stop-color: #09D4DF; stop-opacity: 1"/>
   <stop offset="100%" style="stop-color: #9269F4; stop-opacity: 1"/>
  </linearGradient>
  <linearGradient id="cyberneon" x1="0%" x2="0%" y1="0%" y2="100%">
    <stop offset="0" style="stop-color: #0abdc6; stop-opacity: 1"/>
    <stop offset="1" style="stop-color: #ea00d9; stop-opacity: 1"/>
  </linearGradient>
  <linearGradient id="fitdance" x1="0%" x2="0%" y1="0%" y2="100%">
   <stop offset="0%" style="stop-color: #1AD6AB; stop-opacity: 1"/>
   <stop offset="100%" style="stop-color: #329DB6; stop-opacity: 1"/>
  </linearGradient>
  <linearGradient id="oomox" x1="0%" x2="0%" y1="0%" y2="100%">
   <stop offset="0%" style="stop-color: #a4d8d4; stop-opacity: 1"/>
   <stop offset="100%" style="stop-color: #318c85; stop-opacity: 1"/>
  </linearGradient>
  <linearGradient id="rainblue" x1="0%" x2="0%" y1="0%" y2="100%">
   <stop offset="0%" style="stop-color: #00F260; stop-opacity: 1"/>
   <stop offset="100%" style="stop-color: #0575E6; stop-opacity: 1"/>
  </linearGradient>
  <linearGradient id="sunrise" x1="0%" x2="0%" y1="0%" y2="100%">
   <stop offset="0%" style="stop-color: #FF8501; stop-opacity: 1"/>
   <stop offset="100%" style="stop-color: #FFCB01; stop-opacity: 1"/>
  </linearGradient>
  <linearGradient id="telinkrin" x1="0%" x2="0%" y1="0%" y2="100%">
   <stop offset="0%" style="stop-color: #b2ced6; stop-opacity: 1"/>
   <stop offset="100%" style="stop-color: #6da5b7; stop-opacity: 1"/>
  </linearGradient>
  <linearGradient id="60spsycho" x1="0%" x2="0%" y1="0%" y2="100%">
   <stop offset="0%" style="stop-color: #df5940; stop-opacity: 1"/>
   <stop offset="25%" style="stop-color: #d8d15f; stop-opacity: 1"/>
   <stop offset="50%" style="stop-color: #e9882a; stop-opacity: 1"/>
   <stop offset="100%" style="stop-color: #279362; stop-opacity: 1"/>
  </linearGradient>
  <linearGradient id="90ssummer" x1="0%" x2="0%" y1="0%" y2="100%">
   <stop offset="0%" style="stop-color: #f618c7; stop-opacity: 1"/>
   <stop offset="20%" style="stop-color: #94ffab; stop-opacity: 1"/>
   <stop offset="50%" style="stop-color: #fbfd54; stop-opacity: 1"/>
   <stop offset="100%" style="stop-color: #0f83ae; stop-opacity: 1"/>
  </linearGradient>
 </defs>
 <path fill="url(#oomox)" class="ColorScheme-Text" opacity="0.3" d="M 8.5,0 C 5.4627564,0 3.0004562,2.3276432 3,5.1992188 3.00172,5.3328938 3.00888,5.4664566 3.021484,5.5996094 L 3,5.5996094 3,6 1.8339844,6 C 1.3723177,6 1,6.3464546 1,6.7773438 L 1,12.222656 C 1,12.653545 1.3723177,13 1.8339844,13 L 3,13 3,15.199219 C 3,15.642419 3.3769338,16 3.8457031,16 l 2.9628907,0 1.2675781,-2 0.8476562,0 1.2675779,2 2.962891,0 C 13.623066,16 14,15.642419 14,15.199219 L 14,13 15.166016,13 C 15.627682,13 16,12.653545 16,12.222656 L 16,6.7773438 C 16,6.3464546 15.627682,6 15.166016,6 L 14,6 l 0,-0.4003906 -0.01758,0 C 13.993721,5.466409 13.999584,5.3328463 14,5.1992188 13.999544,2.3276432 11.537244,0 8.5,0 Z m 0,2 c 1.932663,-1e-7 3.5,1 3.5,3.977539 -5.58e-4,0.014978 -0.0012,0.029952 -0.002,0.044922 L 5,6.0224609 C 4.9999069,6.0074869 4.9999069,5.9925129 5,5.9775389 5,2.9999999 6.567337,1.9999998 8.5,2 Z M 6,4 6,5 7,5 7,4 Z m 4,0 0,1 1,0 0,-1 z M 8.5,7 c 0.9233334,0 1.4667964,0.782188 1.4667964,1.742188 l 0,0.257812 0.6171876,0 C 10.811473,8.96085 11,9.262571 11,9.5 l 0,2.072266 C 11,11.809694 10.814818,12 10.583984,12 L 6.4160156,12 C 6.1851822,12 6,11.809694 6,11.572266 L 6,9.5 C 6,9.262571 6.1851822,9 6.4160156,9 l 0.6171875,0 0,-0.257812 C 7.0332031,7.781802 7.5766667,7 8.5,7 Z m 0,0.857422 c -0.4616667,0 -0.6328125,0.382565 -0.6328125,0.857422 l 0,0.285156 1.265625,0 0,-0.285156 C 9.1328125,8.239987 8.9616667,7.857422 8.5,7.857422 Z"/>
</svg>
