<svg xmlns="http://www.w3.org/2000/svg" width="16" height="16" version="1.1">
 <defs>
   <style id="current-color-scheme" type="text/css">
   .ColorScheme-Text { color: #d3dae3; } .ColorScheme-Highlight { color: #1AD6AB; }
  </style>
  <linearGradient id="arrongin" x1="0%" x2="0%" y1="0%" y2="100%">
   <stop offset="0%" style="stop-color: #dd9b44; stop-opacity: 1"/>
   <stop offset="100%" style="stop-color: #ad6c16; stop-opacity: 1"/>
  </linearGradient>
  <linearGradient id="aurora" x1="0%" x2="0%" y1="0%" y2="100%">
   <stop offset="0%" style="stop-color: #09D4DF; stop-opacity: 1"/>
   <stop offset="100%" style="stop-color: #9269F4; stop-opacity: 1"/>
  </linearGradient>
  <linearGradient id="cyberneon" x1="0%" x2="0%" y1="0%" y2="100%">
    <stop offset="0" style="stop-color: #0abdc6; stop-opacity: 1"/>
    <stop offset="1" style="stop-color: #ea00d9; stop-opacity: 1"/>
  </linearGradient>
  <linearGradient id="fitdance" x1="0%" x2="0%" y1="0%" y2="100%">
   <stop offset="0%" style="stop-color: #1AD6AB; stop-opacity: 1"/>
   <stop offset="100%" style="stop-color: #329DB6; stop-opacity: 1"/>
  </linearGradient>
  <linearGradient id="oomox" x1="0%" x2="0%" y1="0%" y2="100%">
   <stop offset="0%" style="stop-color: #a4d8d4; stop-opacity: 1"/>
   <stop offset="100%" style="stop-color: #318c85; stop-opacity: 1"/>
  </linearGradient>
  <linearGradient id="rainblue" x1="0%" x2="0%" y1="0%" y2="100%">
   <stop offset="0%" style="stop-color: #00F260; stop-opacity: 1"/>
   <stop offset="100%" style="stop-color: #0575E6; stop-opacity: 1"/>
  </linearGradient>
  <linearGradient id="sunrise" x1="0%" x2="0%" y1="0%" y2="100%">
   <stop offset="0%" style="stop-color: #FF8501; stop-opacity: 1"/>
   <stop offset="100%" style="stop-color: #FFCB01; stop-opacity: 1"/>
  </linearGradient>
  <linearGradient id="telinkrin" x1="0%" x2="0%" y1="0%" y2="100%">
   <stop offset="0%" style="stop-color: #b2ced6; stop-opacity: 1"/>
   <stop offset="100%" style="stop-color: #6da5b7; stop-opacity: 1"/>
  </linearGradient>
  <linearGradient id="60spsycho" x1="0%" x2="0%" y1="0%" y2="100%">
   <stop offset="0%" style="stop-color: #df5940; stop-opacity: 1"/>
   <stop offset="25%" style="stop-color: #d8d15f; stop-opacity: 1"/>
   <stop offset="50%" style="stop-color: #e9882a; stop-opacity: 1"/>
   <stop offset="100%" style="stop-color: #279362; stop-opacity: 1"/>
  </linearGradient>
  <linearGradient id="90ssummer" x1="0%" x2="0%" y1="0%" y2="100%">
   <stop offset="0%" style="stop-color: #f618c7; stop-opacity: 1"/>
   <stop offset="20%" style="stop-color: #94ffab; stop-opacity: 1"/>
   <stop offset="50%" style="stop-color: #fbfd54; stop-opacity: 1"/>
   <stop offset="100%" style="stop-color: #0f83ae; stop-opacity: 1"/>
  </linearGradient>
 </defs>
 <path fill="url(#oomox)" class="ColorScheme-Text" d="m 7.5000391,0.99998081 c -0.34503,0 -0.6904351,0.014663 -0.9101561,0.044922 C 3.937785,1.4100443 2.3704921,2.6452701 2.05668,4.6191215 2.02201,4.8372058 2.01147,5.2252985 2.0059,6.7089653 l -0.0039,1.1660156 -0.002,0 0,0.125 0,0.4707031 0,0.4042969 0,0.9707032 0.0059,-1.3691407 0.07226,0.1132813 c 0.1899379,0.2903095 0.450559,0.4921634 1.6992189,1.3203124 2.087557,1.3845359 2.946169,1.8910459 3.474609,2.0449219 0.0834,0.02427 0.198507,0.04422 0.25586,0.04492 0.3507132,0.0044 1.3751209,-0.544785 2.9277351,-1.570312 1.936219,-1.2789109 2.295685,-1.5460248 2.484375,-1.8359381 l 0.08008,-0.1230469 0,-0.078125 0,-0.5175781 0,-0.8574219 c 0,-1.8957908 -0.01469,-2.2304309 -0.107422,-2.6367187 C 12.72722,3.6563026 12.427118,3.0825648 11.947302,2.5839633 11.177152,1.783658 9.9732227,1.2600987 8.4101915,1.0449008 8.1904618,1.0146508 7.845065,0.99997881 7.5000351,0.99997881 Z m 0,2.99999999 c 1.1343176,0 2.1192436,0.9426479 2.4414066,2.0976562 0.05672,0.2033481 0.05859,0.2119306 0.05859,1.0390626 0,0.4586057 -0.0055,0.8423158 -0.01367,0.8515624 -0.0083,0.00924 -1.1226942,0.013242 -2.4863285,0.00977 -1.363634,0.00349 -2.4781621,-5.317e-4 -2.4863281,-0.00977 -0.0081,-0.00926 -0.01367,-0.3929566 -0.01367,-0.8515624 0,-0.8271319 0.0019,-0.8357145 0.05859,-1.0390626 0.322172,-1.1550084 1.3070889,-2.0976562 2.441406,-2.0976562 z m 5.5000009,5.4707033 -0.08008,0.123047 c -0.18869,0.289913 -0.548156,0.5570259 -2.484375,1.8359379 -1.5526141,1.025527 -2.5770217,1.574712 -2.9277349,1.570312 -0.05735,-7e-4 -0.172462,-0.02065 -0.25586,-0.04492 C 6.7235501,12.801185 5.864938,12.294675 3.7773811,10.910139 2.5287211,10.08199 2.2681001,9.8801361 2.0781621,9.5898271 l -0.07226,-0.113282 -0.0059,1.3691409 0,2.154297 0,0.873047 0.0098,0 0.0039,0.65625 0.08203,0.148437 c 0.06354,0.112784 0.115384,0.162674 0.21875,0.220704 l 0.134766,0.07617 2.191406,0.01367 c 1.205205,0.0069 3.4613204,0.01228 5.0136646,0.01172 l 2.8222653,0 0.136719,-0.05664 c 0.175381,-0.07192 0.227295,-0.11421 0.308594,-0.259765 l 0.06445,-0.121094 0,-0.689453 0.01367,0 5e-6,-0.873046 0,-2.992188 0,-0.5371089 z"/>
</svg>
