<svg xmlns="http://www.w3.org/2000/svg" width="16" height="16" version="1.1">
 <defs>
   <style id="current-color-scheme" type="text/css">
   .ColorScheme-Text { color: #d3dae3; } .ColorScheme-Highlight { color: #1AD6AB; }
  </style>
  <linearGradient id="arrongin" x1="0%" x2="0%" y1="0%" y2="100%">
   <stop offset="0%" style="stop-color: #dd9b44; stop-opacity: 1"/>
   <stop offset="100%" style="stop-color: #ad6c16; stop-opacity: 1"/>
  </linearGradient>
  <linearGradient id="aurora" x1="0%" x2="0%" y1="0%" y2="100%">
   <stop offset="0%" style="stop-color: #09D4DF; stop-opacity: 1"/>
   <stop offset="100%" style="stop-color: #9269F4; stop-opacity: 1"/>
  </linearGradient>
  <linearGradient id="cyberneon" x1="0%" x2="0%" y1="0%" y2="100%">
    <stop offset="0" style="stop-color: #0abdc6; stop-opacity: 1"/>
    <stop offset="1" style="stop-color: #ea00d9; stop-opacity: 1"/>
  </linearGradient>
  <linearGradient id="fitdance" x1="0%" x2="0%" y1="0%" y2="100%">
   <stop offset="0%" style="stop-color: #1AD6AB; stop-opacity: 1"/>
   <stop offset="100%" style="stop-color: #329DB6; stop-opacity: 1"/>
  </linearGradient>
  <linearGradient id="oomox" x1="0%" x2="0%" y1="0%" y2="100%">
   <stop offset="0%" style="stop-color: #a4d8d4; stop-opacity: 1"/>
   <stop offset="100%" style="stop-color: #318c85; stop-opacity: 1"/>
  </linearGradient>
  <linearGradient id="rainblue" x1="0%" x2="0%" y1="0%" y2="100%">
   <stop offset="0%" style="stop-color: #00F260; stop-opacity: 1"/>
   <stop offset="100%" style="stop-color: #0575E6; stop-opacity: 1"/>
  </linearGradient>
  <linearGradient id="sunrise" x1="0%" x2="0%" y1="0%" y2="100%">
   <stop offset="0%" style="stop-color: #FF8501; stop-opacity: 1"/>
   <stop offset="100%" style="stop-color: #FFCB01; stop-opacity: 1"/>
  </linearGradient>
  <linearGradient id="telinkrin" x1="0%" x2="0%" y1="0%" y2="100%">
   <stop offset="0%" style="stop-color: #b2ced6; stop-opacity: 1"/>
   <stop offset="100%" style="stop-color: #6da5b7; stop-opacity: 1"/>
  </linearGradient>
  <linearGradient id="60spsycho" x1="0%" x2="0%" y1="0%" y2="100%">
   <stop offset="0%" style="stop-color: #df5940; stop-opacity: 1"/>
   <stop offset="25%" style="stop-color: #d8d15f; stop-opacity: 1"/>
   <stop offset="50%" style="stop-color: #e9882a; stop-opacity: 1"/>
   <stop offset="100%" style="stop-color: #279362; stop-opacity: 1"/>
  </linearGradient>
  <linearGradient id="90ssummer" x1="0%" x2="0%" y1="0%" y2="100%">
   <stop offset="0%" style="stop-color: #f618c7; stop-opacity: 1"/>
   <stop offset="20%" style="stop-color: #94ffab; stop-opacity: 1"/>
   <stop offset="50%" style="stop-color: #fbfd54; stop-opacity: 1"/>
   <stop offset="100%" style="stop-color: #0f83ae; stop-opacity: 1"/>
  </linearGradient>
 </defs>
 <path fill="url(#oomox)" class="ColorScheme-Text" d="M 8,15 A 7,7 0 0 0 15,8 7,7 0 0 0 8.0000002,1.0000001 7,7 0 0 0 1.0000001,8 7,7 0 0 0 8,15 Z m 10e-8,-2 A 5,5 0 0 1 3.0917972,8.9433598 1.5,1.5 0 0 1 2.0000008,7.5 1.5,1.5 0 0 1 3.4218751,6.0039069 5,5 0 0 1 6.0039067,3.4179694 1.5,1.5 0 0 1 7.5000006,2.0000006 1.5,1.5 0 0 1 8.9433599,3.0937504 5,5 0 0 1 13,7.9999999 a 5,5 0 0 1 -0.002,0.08594 1.5,1.5 0 0 1 1.001952,1.4140617 1.5,1.5 0 0 1 -1.5,1.5000003 1.5,1.5 0 0 1 -0.455079,-0.07227 A 5,5 0 0 1 8.0000001,13 Z m -2e-7,-1 A 4,4 0 0 0 11.248048,10.326173 1.5,1.5 0 0 1 11,9.4999997 a 1.5,1.5 0 0 1 0.0039,-0.060545 L 8.6269533,8.4882813 A 1.5,1.5 0 0 1 7.5000002,9 1.5,1.5 0 0 1 6.0878908,8 L 4.9121092,8 A 1.5,1.5 0 0 1 4.1015632,8.871094 4,4 0 0 0 7.9999999,12 Z M 11.375001,8.5117194 A 1.5,1.5 0 0 1 11.996094,8.089844 4,4 0 0 0 12,8.0000001 4,4 0 0 0 8.8730472,4.0996093 1.5,1.5 0 0 1 8.0000001,4.912109 l 1e-7,1.1757817 a 1.5,1.5 0 0 1 1,1.4121093 1.5,1.5 0 0 1 -0.00391,0.060548 L 11.375001,8.5117194 Z M 6.0878911,7.0000001 A 1.5,1.5 0 0 1 7.0000003,6.0878909 L 7,4.912109 A 1.5,1.5 0 0 1 6.2949224,4.3867194 4,4 0 0 0 4.3886724,6.2929689 1.5,1.5 0 0 1 4.9121058,7.0000021 l 1.1757853,-2e-6 z"/>
</svg>
