<svg xmlns="http://www.w3.org/2000/svg" width="16" height="16" version="1.1">
 <defs>
   <style id="current-color-scheme" type="text/css">
   .ColorScheme-Text { color: #d3dae3; } .ColorScheme-Highlight { color: #1AD6AB; }
  </style>
  <linearGradient id="arrongin" x1="0%" x2="0%" y1="0%" y2="100%">
   <stop offset="0%" style="stop-color: #dd9b44; stop-opacity: 1"/>
   <stop offset="100%" style="stop-color: #ad6c16; stop-opacity: 1"/>
  </linearGradient>
  <linearGradient id="aurora" x1="0%" x2="0%" y1="0%" y2="100%">
   <stop offset="0%" style="stop-color: #09D4DF; stop-opacity: 1"/>
   <stop offset="100%" style="stop-color: #9269F4; stop-opacity: 1"/>
  </linearGradient>
  <linearGradient id="cyberneon" x1="0%" x2="0%" y1="0%" y2="100%">
    <stop offset="0" style="stop-color: #0abdc6; stop-opacity: 1"/>
    <stop offset="1" style="stop-color: #ea00d9; stop-opacity: 1"/>
  </linearGradient>
  <linearGradient id="fitdance" x1="0%" x2="0%" y1="0%" y2="100%">
   <stop offset="0%" style="stop-color: #1AD6AB; stop-opacity: 1"/>
   <stop offset="100%" style="stop-color: #329DB6; stop-opacity: 1"/>
  </linearGradient>
  <linearGradient id="oomox" x1="0%" x2="0%" y1="0%" y2="100%">
   <stop offset="0%" style="stop-color: #a4d8d4; stop-opacity: 1"/>
   <stop offset="100%" style="stop-color: #318c85; stop-opacity: 1"/>
  </linearGradient>
  <linearGradient id="rainblue" x1="0%" x2="0%" y1="0%" y2="100%">
   <stop offset="0%" style="stop-color: #00F260; stop-opacity: 1"/>
   <stop offset="100%" style="stop-color: #0575E6; stop-opacity: 1"/>
  </linearGradient>
  <linearGradient id="sunrise" x1="0%" x2="0%" y1="0%" y2="100%">
   <stop offset="0%" style="stop-color: #FF8501; stop-opacity: 1"/>
   <stop offset="100%" style="stop-color: #FFCB01; stop-opacity: 1"/>
  </linearGradient>
  <linearGradient id="telinkrin" x1="0%" x2="0%" y1="0%" y2="100%">
   <stop offset="0%" style="stop-color: #b2ced6; stop-opacity: 1"/>
   <stop offset="100%" style="stop-color: #6da5b7; stop-opacity: 1"/>
  </linearGradient>
  <linearGradient id="60spsycho" x1="0%" x2="0%" y1="0%" y2="100%">
   <stop offset="0%" style="stop-color: #df5940; stop-opacity: 1"/>
   <stop offset="25%" style="stop-color: #d8d15f; stop-opacity: 1"/>
   <stop offset="50%" style="stop-color: #e9882a; stop-opacity: 1"/>
   <stop offset="100%" style="stop-color: #279362; stop-opacity: 1"/>
  </linearGradient>
  <linearGradient id="90ssummer" x1="0%" x2="0%" y1="0%" y2="100%">
   <stop offset="0%" style="stop-color: #f618c7; stop-opacity: 1"/>
   <stop offset="20%" style="stop-color: #94ffab; stop-opacity: 1"/>
   <stop offset="50%" style="stop-color: #fbfd54; stop-opacity: 1"/>
   <stop offset="100%" style="stop-color: #0f83ae; stop-opacity: 1"/>
  </linearGradient>
 </defs>
 <path fill="url(#oomox)" class="ColorScheme-Text" d="M 8,0.004 C 5.9289,0.004 4.1653,1.2719 3.4062,3.0665 1.4784,3.3531 0,4.9964 0,7.004 0,9.213 1.7909,11.004 4,11.004 H 12.5 C 14.433,11.004 16,9.437 16,7.504 16,5.7075 14.649,4.2353 12.906,4.0353 12.452,1.7419 10.427,0.004 8,0.004 Z M 2.9785,11.994 A 0.50005,0.50005 0 0 0 2.5527,12.277 L 1.5527,14.277 A 0.50025,0.50025 0 1 0 2.4473,14.725 L 3.4473,12.725 A 0.50005,0.50005 0 0 0 2.9785,11.994 Z M 5.4785,11.994 A 0.50005,0.50005 0 0 0 5.0527,12.277 L 4.0527,14.277 A 0.50025,0.50025 0 1 0 4.9473,14.725 L 5.9473,12.725 A 0.50005,0.50005 0 0 0 5.4785,11.994 Z M 7.979,11.994 A 0.50005,0.50005 0 0 0 7.553,12.277 L 6.5527,14.277 A 0.50012,0.50012 0 1 0 7.447,14.725 L 8.447,12.725 A 0.50005,0.50005 0 0 0 7.979,11.994 Z M 10.479,11.994 A 0.50005,0.50005 0 0 0 10.053,12.277 L 9.053,14.277 A 0.50006,0.50006 0 1 0 9.947,14.725 L 10.947,12.725 A 0.50005,0.50005 0 0 0 10.479,11.994 Z M 12.979,11.994 A 0.50005,0.50005 0 0 0 12.553,12.277 L 11.553,14.277 A 0.50006,0.50006 0 1 0 12.447,14.725 L 13.447,12.725 A 0.50005,0.50005 0 0 0 12.979,11.994 Z"/>
</svg>
