<svg xmlns="http://www.w3.org/2000/svg" width="32" height="32" version="1.1">
<defs>
  <linearGradient id="carbon" x1="0%" x2="0%" y1="0%" y2="100%">
   <stop offset="0%" style="stop-color: #525c66; stop-opacity: 1"/>
   <stop offset="100%" style="stop-color: #36424e; stop-opacity: 1"/>
  </linearGradient>
  <linearGradient id="cyberblue" x1="0%" x2="0%" y1="0%" y2="100%">
   <stop stop-color="#07B3FF"/>
   <stop offset="1" stop-color="#007DE8"/>
  </linearGradient>
  <linearGradient id="cyberneon" x1="0%" x2="0%" y1="0%" y2="100%">
    <stop offset="0" style="stop-color: #0abdc6; stop-opacity: 1"/>
    <stop offset="1" style="stop-color: #ea00d9; stop-opacity: 1"/>
  </linearGradient>
  <linearGradient id="cyberorange" x1="0%" x2="0%" y1="0%" y2="100%">
    <stop offset="0%"   style="stop-color: #FF9757; stop-opacity: 1"/>
    <stop offset="50%"  style="stop-color: #FF6E51; stop-opacity: 1"/>
    <stop offset="100%" style="stop-color: #F5350F; stop-opacity: 1"/>
  </linearGradient>
  <linearGradient id="cyberturquoise"  x1="0%" x2="0%" y1="0%" y2="100%">
   <stop stop-color="#037164"/>
   <stop offset="1" stop-color="#00AC98"/>
  </linearGradient>
  <linearGradient id="fitdance" x1="0%" x2="0%" y1="0%" y2="100%">
   <stop offset="0%" style="stop-color: #1ad6ab; stop-opacity: 1"/>
   <stop offset="100%" style="stop-color: #329db6; stop-opacity: 1"/>
  </linearGradient>
  <linearGradient id="goldcarbon" x1="0%" x2="0%" y1="0%" y2="100%">
   <stop offset="1e-07" stop-color="#EDC268"/>
   <stop offset="1" stop-color="#9B7424"/>
  </linearGradient>
  <linearGradient id="lemon" x1="0%" x2="0%" y1="0%" y2="100%">
   <stop offset="0.1" stop-color="#6DDB0A"/>
   <stop offset="0.2" stop-color="#61D915"/>
   <stop offset="0.3" stop-color="#55D620"/>
   <stop offset="0.4" stop-color="#49D42B"/>
   <stop offset="0.5" stop-color="#3CD235"/>
   <stop offset="0.6" stop-color="#30CF40"/>
   <stop offset="0.7" stop-color="#24CD4B"/>
   <stop offset="0.8" stop-color="#18CA56"/>
   <stop offset="0.9" stop-color="#0CC861"/>
   <stop offset="1.0" stop-color="#00C66B"/>
  </linearGradient>
  <linearGradient id="purplecarbon" x1="0%" x2="0%" y1="0%" y2="100%">
   <stop offset="1e-07" stop-color="#EC57FF"/>
   <stop offset="0.5" stop-color="#C551FF"/>
   <stop offset="1" stop-color="#A90FF5"/>
  </linearGradient>
  <linearGradient id="redcarbon" x1="0%" x2="0%" y1="0%" y2="100%">
   <stop offset="0%" style="stop-color: #FF6D57; stop-opacity: 1"/>
   <stop offset="50%" style="stop-color: #FF5160; stop-opacity: 1"/>
   <stop offset="100%" style="stop-color: #F50F22; stop-opacity: 1"/>
  </linearGradient>
  <linearGradient id="silvercarbon" x1="0%" x2="0%" y1="0%" y2="100%">
   <stop offset="0%" stop-color="#DFDFDF"/>
   <stop offset="100%" stop-color="#A0A0A0"/>
  </linearGradient>
  <linearGradient id="ubuntu" x1="0%" x2="0%" y1="0%" y2="100%">
   <stop offset="1e-07" stop-color="#AD4F8D"/>
   <stop offset="1" stop-color="#6B8CCB"/>
  </linearGradient>
</defs>
 <circle fill="url(#carbon)" cx="16" cy="16" r="14"/>
 <path fill="#ececec" d="m 17,23 -2,0 0,-2 2,0 z m 2.07,-7.75 -0.9,0.92 C 17.45,16.9 17,17.5 17,19 l -2,0 0,-0.5 c 0,-1.1 0.45,-2.1 1.17,-2.83 l 1.24,-1.26 C 17.78,14.05 18,13.55 18,13 c 0,-1.1 -0.9,-2 -2,-2 -1.1,0 -2,0.9 -2,2 l -2,0 c 0,-2.21 1.79,-4 4,-4 2.21,0 4,1.79 4,4 0,0.88 -0.36,1.68 -0.93,2.25 z"/>
</svg>
