<svg xmlns="http://www.w3.org/2000/svg" width="24" height="24" version="1.1">
 <defs>
   <style id="current-color-scheme" type="text/css">
   .ColorScheme-Text { color: #939597; } .ColorScheme-Highlight { color: #1AD6AB; }
  </style>
  <linearGradient id="arrongin" x1="0%" x2="0%" y1="0%" y2="100%">
   <stop offset="0%"    stop-color= "#dd9b44" stop-opacity="1"/>
   <stop offset="100%"  stop-color= "#ad6c16" stop-opacity="1"/>
  </linearGradient>
  <linearGradient id="aurora" x1="0%" x2="0%" y1="0%" y2="100%">
   <stop offset="0%"    stop-color= "#09D4DF" stop-opacity="1"/>
   <stop offset="100%"  stop-color= "#9269F4" stop-opacity="1"/>
  </linearGradient> 
  <linearGradient id="cyberblue" x1="0%" x2="0%" y1="0%" y2="100%">
   <stop offset="0%"    stop-color= "#07B3FF" stop-opacity="1"/>
   <stop offset="100%"  stop-color= "#007DE8" stop-opacity="1"/>
  </linearGradient>
  <linearGradient id="cyberneon" x1="0%" x2="0%" y1="0%" y2="100%">
    <stop offset="0%"   stop-color= "#0abdc6" stop-opacity="1"/>
    <stop offset="100%" stop-color= "#ea00d9" stop-opacity="1"/>
  </linearGradient>
  <linearGradient id="fitdance" x1="0%" x2="0%" y1="0%" y2="100%">
   <stop offset="0%"    stop-color= "#1AD6AB" stop-opacity="1"/>
   <stop offset="100%"  stop-color= "#329DB6" stop-opacity="1"/>
  </linearGradient>
  <linearGradient id="oomox" x1="0%" x2="0%" y1="0%" y2="100%">
   <stop offset="0%"    stop-color= "#66b7ff" stop-opacity="1"/>
   <stop offset="100%"  stop-color= "#006acc" stop-opacity="1"/>
  </linearGradient>
  <linearGradient id="rainblue" x1="0%" x2="0%" y1="0%" y2="100%">
   <stop offset="0%"    stop-color= "#00F260" stop-opacity="1"/>
   <stop offset="100%"  stop-color= "#0575E6" stop-opacity="1"/>
  </linearGradient>
  <linearGradient id="redcarbon" x1="0%" x2="0%" y1="0%" y2="100%">
   <stop offset="0%"    stop-color= "#FF6D57" stop-opacity="1"/>
   <stop offset="50%"   stop-color= "#FF5160" stop-opacity="1"/>
   <stop offset="100%"  stop-color= "#F50F22" stop-opacity="1"/>
  </linearGradient>
  <linearGradient id="sunrise" x1="0%" x2="0%" y1="0%" y2="100%">
   <stop offset="0%"    stop-color= "#FF8501" stop-opacity="1"/>
   <stop offset="100%"  stop-color= "#FFCB01" stop-opacity="1"/>
  </linearGradient>
  <linearGradient id="telinkrin" x1="0%" x2="0%" y1="0%" y2="100%">
   <stop offset="0%"    stop-color= "#b2ced6" stop-opacity="1"/>
   <stop offset="100%"  stop-color= "#6da5b7" stop-opacity="1"/>
  </linearGradient>
  <linearGradient id="60spsycho" x1="0%" x2="0%" y1="0%" y2="100%">
   <stop offset="0%"    stop-color= "#df5940" stop-opacity="1"/>
   <stop offset="25%"   stop-color= "#d8d15f" stop-opacity="1"/>
   <stop offset="50%"   stop-color= "#e9882a" stop-opacity="1"/>
   <stop offset="100%"  stop-color= "#279362" stop-opacity="1"/>
  </linearGradient>
  <linearGradient id="90ssummer" x1="0%" x2="0%" y1="0%" y2="100%">
   <stop offset="0%"    stop-color= "#f618c7" stop-opacity="1"/>
   <stop offset="20%"   stop-color= "#94ffab" stop-opacity="1"/>
   <stop offset="50%"   stop-color= "#fbfd54" stop-opacity="1"/>
   <stop offset="100%"  stop-color= "#0f83ae" stop-opacity="1"/>
  </linearGradient>
 </defs>
 <path fill="url(#oomox)" class="ColorScheme-Text" d="M 12.949219 1.6367188 L 11.074219 3.5117188 C 10.462219 3.2932187 9.8274813 3.1346125 9.1757812 3.0703125 C 8.7858812 3.0248125 8.3925 3.0039063 8 3.0039062 C 6.4492 3.0190062 4.8879094 3.3732719 3.5371094 4.1386719 C 2.9987094 4.4892719 2.3524344 4.9422375 1.8652344 5.3984375 C 1.0987344 6.1489375 0.4427 7.0244062 0 8.0039062 C 0.65287 9.4438062 1.7335687 10.664969 3.0429688 11.542969 L 1.6367188 12.949219 L 3.0507812 14.363281 L 4.9199219 12.494141 C 5.5340219 12.714141 6.1706187 12.8725 6.8242188 12.9375 C 8.7516187 13.1555 10.768891 12.823141 12.462891 11.869141 C 13.000891 11.519141 13.647766 11.066375 14.134766 10.609375 C 14.900766 9.859375 15.557 8.9834063 16 8.0039062 C 15.346 6.5625063 14.264125 5.3391375 12.953125 4.4609375 L 14.363281 3.0507812 L 12.949219 1.6367188 z M 8 5.0039062 C 8.4529 4.9939063 8.88595 5.1100875 9.28125 5.3046875 L 5.3125 9.2734375 C 4.9908 8.6067375 4.8873187 7.8375875 5.1367188 7.1171875 C 5.5059188 5.8877875 6.7125 4.9886063 8 5.0039062 z M 10.695312 6.71875 C 10.891312 7.11575 11.009 7.5513062 11 8.0039062 C 11.052 9.7703062 9.2909813 11.294844 7.5507812 10.964844 C 7.2514813 10.929844 6.9753906 10.828172 6.7128906 10.701172 L 8.6445312 8.7675781 A 1 1 0 0 0 8.6796875 8.734375 L 8.7167969 8.6992188 A 1 1 0 0 0 8.734375 8.6796875 L 10.695312 6.71875 z" transform="translate(4 4)"/>
</svg>
