<svg xmlns="http://www.w3.org/2000/svg" width="24" height="24" version="1.1">
 <defs>
   <style id="current-color-scheme" type="text/css">
   .ColorScheme-Text { color: #939597; } .ColorScheme-Highlight { color: #1AD6AB; }
  </style>
  <linearGradient id="arrongin" x1="0%" x2="0%" y1="0%" y2="100%">
   <stop offset="0%"    stop-color= "#dd9b44" stop-opacity="1"/>
   <stop offset="100%"  stop-color= "#ad6c16" stop-opacity="1"/>
  </linearGradient>
  <linearGradient id="aurora" x1="0%" x2="0%" y1="0%" y2="100%">
   <stop offset="0%"    stop-color= "#09D4DF" stop-opacity="1"/>
   <stop offset="100%"  stop-color= "#9269F4" stop-opacity="1"/>
  </linearGradient> 
  <linearGradient id="cyberblue" x1="0%" x2="0%" y1="0%" y2="100%">
   <stop offset="0%"    stop-color= "#07B3FF" stop-opacity="1"/>
   <stop offset="100%"  stop-color= "#007DE8" stop-opacity="1"/>
  </linearGradient>
  <linearGradient id="cyberneon" x1="0%" x2="0%" y1="0%" y2="100%">
    <stop offset="0%"   stop-color= "#0abdc6" stop-opacity="1"/>
    <stop offset="100%" stop-color= "#ea00d9" stop-opacity="1"/>
  </linearGradient>
  <linearGradient id="fitdance" x1="0%" x2="0%" y1="0%" y2="100%">
   <stop offset="0%"    stop-color= "#1AD6AB" stop-opacity="1"/>
   <stop offset="100%"  stop-color= "#329DB6" stop-opacity="1"/>
  </linearGradient>
  <linearGradient id="oomox" x1="0%" x2="0%" y1="0%" y2="100%">
   <stop offset="0%"    stop-color= "#66b7ff" stop-opacity="1"/>
   <stop offset="100%"  stop-color= "#006acc" stop-opacity="1"/>
  </linearGradient>
  <linearGradient id="rainblue" x1="0%" x2="0%" y1="0%" y2="100%">
   <stop offset="0%"    stop-color= "#00F260" stop-opacity="1"/>
   <stop offset="100%"  stop-color= "#0575E6" stop-opacity="1"/>
  </linearGradient>
  <linearGradient id="redcarbon" x1="0%" x2="0%" y1="0%" y2="100%">
   <stop offset="0%"    stop-color= "#FF6D57" stop-opacity="1"/>
   <stop offset="50%"   stop-color= "#FF5160" stop-opacity="1"/>
   <stop offset="100%"  stop-color= "#F50F22" stop-opacity="1"/>
  </linearGradient>
  <linearGradient id="sunrise" x1="0%" x2="0%" y1="0%" y2="100%">
   <stop offset="0%"    stop-color= "#FF8501" stop-opacity="1"/>
   <stop offset="100%"  stop-color= "#FFCB01" stop-opacity="1"/>
  </linearGradient>
  <linearGradient id="telinkrin" x1="0%" x2="0%" y1="0%" y2="100%">
   <stop offset="0%"    stop-color= "#b2ced6" stop-opacity="1"/>
   <stop offset="100%"  stop-color= "#6da5b7" stop-opacity="1"/>
  </linearGradient>
  <linearGradient id="60spsycho" x1="0%" x2="0%" y1="0%" y2="100%">
   <stop offset="0%"    stop-color= "#df5940" stop-opacity="1"/>
   <stop offset="25%"   stop-color= "#d8d15f" stop-opacity="1"/>
   <stop offset="50%"   stop-color= "#e9882a" stop-opacity="1"/>
   <stop offset="100%"  stop-color= "#279362" stop-opacity="1"/>
  </linearGradient>
  <linearGradient id="90ssummer" x1="0%" x2="0%" y1="0%" y2="100%">
   <stop offset="0%"    stop-color= "#f618c7" stop-opacity="1"/>
   <stop offset="20%"   stop-color= "#94ffab" stop-opacity="1"/>
   <stop offset="50%"   stop-color= "#fbfd54" stop-opacity="1"/>
   <stop offset="100%"  stop-color= "#0f83ae" stop-opacity="1"/>
  </linearGradient>
 </defs>
 <path fill="url(#oomox)" class="ColorScheme-Text" d="M 11.078125 1 C 9.2652887 1 7.7949219 2.5814157 7.7949219 4.5332031 C 7.7949219 4.8102047 7.8248583 5.0811969 7.8808594 5.3398438 C 5.1526143 5.1923912 2.7323612 3.7846485 1.1132812 1.6464844 C 0.83072322 2.168454 0.66992188 2.7761035 0.66992188 3.4238281 C 0.66992188 4.650022 1.2480886 5.7315372 2.1289062 6.3652344 C 1.5908193 6.3468818 1.0851394 6.1885085 0.64257812 5.9238281 C 0.64219717 5.9385652 0.64257812 5.9518937 0.64257812 5.9667969 C 0.64257812 7.6791328 1.7737415 9.108542 3.2753906 9.4335938 C 2.9999375 9.514385 2.7095146 9.5566406 2.4101562 9.5566406 C 2.1986282 9.5566406 1.993449 9.5353125 1.7929688 9.4941406 C 2.2107295 10.8982 3.4228701 11.91876 4.859375 11.947266 C 3.7359049 12.895248 2.3211386 13.460938 0.78320312 13.460938 C 0.51824545 13.460938 0.25680514 13.444754 0 13.412109 C 1.4527529 14.414971 3.1773082 15 5.03125 15 C 11.069276 15 14.371094 9.6138513 14.371094 4.9433594 C 14.371094 4.7901277 14.369617 4.6380053 14.363281 4.4863281 C 15.00457 3.9881273 15.559915 3.3650475 16 2.65625 C 15.411341 2.9373942 14.779152 3.1274543 14.115234 3.2128906 C 14.792924 2.775496 15.31356 2.0831365 15.558594 1.2578125 C 14.924257 1.662907 14.222396 1.9567486 13.474609 2.1152344 C 12.875874 1.4283189 12.022296 1 11.078125 1 z" transform="translate(4 4)"/>
</svg>
