<svg xmlns="http://www.w3.org/2000/svg" width="24" height="24" version="1.1">
 <defs>
   <style id="current-color-scheme" type="text/css">
   .ColorScheme-Text { color: #939597; } .ColorScheme-Highlight { color: #1AD6AB; }
  </style>
  <linearGradient id="arrongin" x1="0%" x2="0%" y1="0%" y2="100%">
   <stop offset="0%"    stop-color= "#dd9b44" stop-opacity="1"/>
   <stop offset="100%"  stop-color= "#ad6c16" stop-opacity="1"/>
  </linearGradient>
  <linearGradient id="aurora" x1="0%" x2="0%" y1="0%" y2="100%">
   <stop offset="0%"    stop-color= "#09D4DF" stop-opacity="1"/>
   <stop offset="100%"  stop-color= "#9269F4" stop-opacity="1"/>
  </linearGradient> 
  <linearGradient id="cyberblue" x1="0%" x2="0%" y1="0%" y2="100%">
   <stop offset="0%"    stop-color= "#07B3FF" stop-opacity="1"/>
   <stop offset="100%"  stop-color= "#007DE8" stop-opacity="1"/>
  </linearGradient>
  <linearGradient id="cyberneon" x1="0%" x2="0%" y1="0%" y2="100%">
    <stop offset="0%"   stop-color= "#0abdc6" stop-opacity="1"/>
    <stop offset="100%" stop-color= "#ea00d9" stop-opacity="1"/>
  </linearGradient>
  <linearGradient id="fitdance" x1="0%" x2="0%" y1="0%" y2="100%">
   <stop offset="0%"    stop-color= "#1AD6AB" stop-opacity="1"/>
   <stop offset="100%"  stop-color= "#329DB6" stop-opacity="1"/>
  </linearGradient>
  <linearGradient id="oomox" x1="0%" x2="0%" y1="0%" y2="100%">
   <stop offset="0%"    stop-color= "#66b7ff" stop-opacity="1"/>
   <stop offset="100%"  stop-color= "#006acc" stop-opacity="1"/>
  </linearGradient>
  <linearGradient id="rainblue" x1="0%" x2="0%" y1="0%" y2="100%">
   <stop offset="0%"    stop-color= "#00F260" stop-opacity="1"/>
   <stop offset="100%"  stop-color= "#0575E6" stop-opacity="1"/>
  </linearGradient>
  <linearGradient id="redcarbon" x1="0%" x2="0%" y1="0%" y2="100%">
   <stop offset="0%"    stop-color= "#FF6D57" stop-opacity="1"/>
   <stop offset="50%"   stop-color= "#FF5160" stop-opacity="1"/>
   <stop offset="100%"  stop-color= "#F50F22" stop-opacity="1"/>
  </linearGradient>
  <linearGradient id="sunrise" x1="0%" x2="0%" y1="0%" y2="100%">
   <stop offset="0%"    stop-color= "#FF8501" stop-opacity="1"/>
   <stop offset="100%"  stop-color= "#FFCB01" stop-opacity="1"/>
  </linearGradient>
  <linearGradient id="telinkrin" x1="0%" x2="0%" y1="0%" y2="100%">
   <stop offset="0%"    stop-color= "#b2ced6" stop-opacity="1"/>
   <stop offset="100%"  stop-color= "#6da5b7" stop-opacity="1"/>
  </linearGradient>
  <linearGradient id="60spsycho" x1="0%" x2="0%" y1="0%" y2="100%">
   <stop offset="0%"    stop-color= "#df5940" stop-opacity="1"/>
   <stop offset="25%"   stop-color= "#d8d15f" stop-opacity="1"/>
   <stop offset="50%"   stop-color= "#e9882a" stop-opacity="1"/>
   <stop offset="100%"  stop-color= "#279362" stop-opacity="1"/>
  </linearGradient>
  <linearGradient id="90ssummer" x1="0%" x2="0%" y1="0%" y2="100%">
   <stop offset="0%"    stop-color= "#f618c7" stop-opacity="1"/>
   <stop offset="20%"   stop-color= "#94ffab" stop-opacity="1"/>
   <stop offset="50%"   stop-color= "#fbfd54" stop-opacity="1"/>
   <stop offset="100%"  stop-color= "#0f83ae" stop-opacity="1"/>
  </linearGradient>
 </defs>
 <path fill="url(#oomox)" class="ColorScheme-Text" d="m8 1.0039c-3.866 0-7 3.1341-7 7 0 3.8661 3.134 7.0001 7 7.0001s7-3.134 7-7.0001c0-3.8659-3.134-7-7-7zm-1.3027 3.002c0.5081 0.0077 0.9528 0.0224 1.0507 0.0371l-0.0507 0.4453c-0.2086 0.0659-1.2118 0.0902-1.4727 0.1777 0.6781 1.271 1.7499 2.9074 2.0977 3.543 0.1913-0.3506 1.8717-1.8085 1.9237-2.3125-0.2608-0.066-1.1244-0.2227-1.2636-0.2227l-0.082-0.5742c0.2367-0.0467 1.4806 0 2.0996 0 0.534 0 1.676-0.0003 2 0.0332l-0.297 0.541c-0.174 0.0217-0.897 0.2253-1.141 0.291-0.26 0.0875-2.6438 2.407-2.8003 2.9766-0.0347 0.1971-0.0508 0.5021-0.0508 0.7871l-0.0175 0.4595c0 0.328 0.0727 0.857 0.1074 1.142 0.1566 0.044 1.2892 0.007 1.4982 0.051l-0.026 0.588c-0.203-0.019-1.6441-0.014-2.4664-0.014-0.4173 0-1.7576 0.059-2.1699 0.043l0.0781-0.56c0.2261-0.023 1.1615 0.051 1.3672-0.223 0.1022-0.136 0.0703-0.282 0.0703-1.07v-0.3735c0-0.1754-0.0002-0.5037-0.0351-0.8106-0.0869-0.3287-2.1857-3.6304-2.7246-4.1562-0.1566-0.0657-1.1375-0.19-1.3809-0.2559l-0.0117-0.5039c0.1214-0.0768 1.2113 0.0181 2.2695-0.0312 0.3478-0.0162 0.9196-0.0156 1.4278-0.0078z" transform="translate(4 4)"/>
</svg>
