<svg xmlns="http://www.w3.org/2000/svg" width="24" height="24" version="1.1">
 <defs>
   <style id="current-color-scheme" type="text/css">
   .ColorScheme-Text { color: #939597; } .ColorScheme-Highlight { color: #1AD6AB; }
  </style>
  <linearGradient id="arrongin" x1="0%" x2="0%" y1="0%" y2="100%">
   <stop offset="0%"    stop-color= "#dd9b44" stop-opacity="1"/>
   <stop offset="100%"  stop-color= "#ad6c16" stop-opacity="1"/>
  </linearGradient>
  <linearGradient id="aurora" x1="0%" x2="0%" y1="0%" y2="100%">
   <stop offset="0%"    stop-color= "#09D4DF" stop-opacity="1"/>
   <stop offset="100%"  stop-color= "#9269F4" stop-opacity="1"/>
  </linearGradient> 
  <linearGradient id="cyberblue" x1="0%" x2="0%" y1="0%" y2="100%">
   <stop offset="0%"    stop-color= "#07B3FF" stop-opacity="1"/>
   <stop offset="100%"  stop-color= "#007DE8" stop-opacity="1"/>
  </linearGradient>
  <linearGradient id="cyberneon" x1="0%" x2="0%" y1="0%" y2="100%">
    <stop offset="0%"   stop-color= "#0abdc6" stop-opacity="1"/>
    <stop offset="100%" stop-color= "#ea00d9" stop-opacity="1"/>
  </linearGradient>
  <linearGradient id="fitdance" x1="0%" x2="0%" y1="0%" y2="100%">
   <stop offset="0%"    stop-color= "#1AD6AB" stop-opacity="1"/>
   <stop offset="100%"  stop-color= "#329DB6" stop-opacity="1"/>
  </linearGradient>
  <linearGradient id="oomox" x1="0%" x2="0%" y1="0%" y2="100%">
   <stop offset="0%"    stop-color= "#66b7ff" stop-opacity="1"/>
   <stop offset="100%"  stop-color= "#006acc" stop-opacity="1"/>
  </linearGradient>
  <linearGradient id="rainblue" x1="0%" x2="0%" y1="0%" y2="100%">
   <stop offset="0%"    stop-color= "#00F260" stop-opacity="1"/>
   <stop offset="100%"  stop-color= "#0575E6" stop-opacity="1"/>
  </linearGradient>
  <linearGradient id="redcarbon" x1="0%" x2="0%" y1="0%" y2="100%">
   <stop offset="0%"    stop-color= "#FF6D57" stop-opacity="1"/>
   <stop offset="50%"   stop-color= "#FF5160" stop-opacity="1"/>
   <stop offset="100%"  stop-color= "#F50F22" stop-opacity="1"/>
  </linearGradient>
  <linearGradient id="sunrise" x1="0%" x2="0%" y1="0%" y2="100%">
   <stop offset="0%"    stop-color= "#FF8501" stop-opacity="1"/>
   <stop offset="100%"  stop-color= "#FFCB01" stop-opacity="1"/>
  </linearGradient>
  <linearGradient id="telinkrin" x1="0%" x2="0%" y1="0%" y2="100%">
   <stop offset="0%"    stop-color= "#b2ced6" stop-opacity="1"/>
   <stop offset="100%"  stop-color= "#6da5b7" stop-opacity="1"/>
  </linearGradient>
  <linearGradient id="60spsycho" x1="0%" x2="0%" y1="0%" y2="100%">
   <stop offset="0%"    stop-color= "#df5940" stop-opacity="1"/>
   <stop offset="25%"   stop-color= "#d8d15f" stop-opacity="1"/>
   <stop offset="50%"   stop-color= "#e9882a" stop-opacity="1"/>
   <stop offset="100%"  stop-color= "#279362" stop-opacity="1"/>
  </linearGradient>
  <linearGradient id="90ssummer" x1="0%" x2="0%" y1="0%" y2="100%">
   <stop offset="0%"    stop-color= "#f618c7" stop-opacity="1"/>
   <stop offset="20%"   stop-color= "#94ffab" stop-opacity="1"/>
   <stop offset="50%"   stop-color= "#fbfd54" stop-opacity="1"/>
   <stop offset="100%"  stop-color= "#0f83ae" stop-opacity="1"/>
  </linearGradient>
 </defs>
 <path fill="url(#oomox)" class="ColorScheme-Text" d="M 5.40625 6 C 5.40625 6 4 6.0003906 4 7.4003906 L 4 11.599609 C 4 12.374609 4.6363344 13 5.4277344 13 L 9 13 L 10.5 15 L 12 13 L 12.572266 13 C 12.572266 13 14 12.999609 14 11.599609 L 14 7.4003906 C 14 6.0003906 12.572266 6 12.572266 6 L 5.40625 6 z M 9 7 L 10 7 L 10 9 L 12 9 L 12 10 L 10 10 L 10 12 L 9 12 L 9 10 L 7 10 L 7 9 L 9 9 L 9 7 z" transform="translate(4 4)"/>
 <path fill="url(#oomox)" class="ColorScheme-Text" opacity="0.3" d="M 3.40625 2 C 3.40625 2 2 2.0003906 2 3.4003906 L 2 7.5996094 C 2 8.2278094 2.4207 8.7512875 3 8.9296875 L 3 6.4003906 C 3 5.0003906 4.40625 5 4.40625 5 L 11.572266 5 C 11.572266 5 11.768 5.0235375 12 5.0859375 L 12 3.4003906 C 12 2.0003906 10.572266 2 10.572266 2 L 3.40625 2 z" transform="translate(4 4)"/>
</svg>
