<svg xmlns="http://www.w3.org/2000/svg" width="24" height="24" version="1.1">
 <defs>
   <style id="current-color-scheme" type="text/css">
   .ColorScheme-Text { color: #939597; } .ColorScheme-Highlight { color: #1AD6AB; }
  </style>
  <linearGradient id="arrongin" x1="0%" x2="0%" y1="0%" y2="100%">
   <stop offset="0%"    stop-color= "#dd9b44" stop-opacity="1"/>
   <stop offset="100%"  stop-color= "#ad6c16" stop-opacity="1"/>
  </linearGradient>
  <linearGradient id="aurora" x1="0%" x2="0%" y1="0%" y2="100%">
   <stop offset="0%"    stop-color= "#09D4DF" stop-opacity="1"/>
   <stop offset="100%"  stop-color= "#9269F4" stop-opacity="1"/>
  </linearGradient> 
  <linearGradient id="cyberblue" x1="0%" x2="0%" y1="0%" y2="100%">
   <stop offset="0%"    stop-color= "#07B3FF" stop-opacity="1"/>
   <stop offset="100%"  stop-color= "#007DE8" stop-opacity="1"/>
  </linearGradient>
  <linearGradient id="cyberneon" x1="0%" x2="0%" y1="0%" y2="100%">
    <stop offset="0%"   stop-color= "#0abdc6" stop-opacity="1"/>
    <stop offset="100%" stop-color= "#ea00d9" stop-opacity="1"/>
  </linearGradient>
  <linearGradient id="fitdance" x1="0%" x2="0%" y1="0%" y2="100%">
   <stop offset="0%"    stop-color= "#1AD6AB" stop-opacity="1"/>
   <stop offset="100%"  stop-color= "#329DB6" stop-opacity="1"/>
  </linearGradient>
  <linearGradient id="oomox" x1="0%" x2="0%" y1="0%" y2="100%">
   <stop offset="0%"    stop-color= "#66b7ff" stop-opacity="1"/>
   <stop offset="100%"  stop-color= "#006acc" stop-opacity="1"/>
  </linearGradient>
  <linearGradient id="rainblue" x1="0%" x2="0%" y1="0%" y2="100%">
   <stop offset="0%"    stop-color= "#00F260" stop-opacity="1"/>
   <stop offset="100%"  stop-color= "#0575E6" stop-opacity="1"/>
  </linearGradient>
  <linearGradient id="redcarbon" x1="0%" x2="0%" y1="0%" y2="100%">
   <stop offset="0%"    stop-color= "#FF6D57" stop-opacity="1"/>
   <stop offset="50%"   stop-color= "#FF5160" stop-opacity="1"/>
   <stop offset="100%"  stop-color= "#F50F22" stop-opacity="1"/>
  </linearGradient>
  <linearGradient id="sunrise" x1="0%" x2="0%" y1="0%" y2="100%">
   <stop offset="0%"    stop-color= "#FF8501" stop-opacity="1"/>
   <stop offset="100%"  stop-color= "#FFCB01" stop-opacity="1"/>
  </linearGradient>
  <linearGradient id="telinkrin" x1="0%" x2="0%" y1="0%" y2="100%">
   <stop offset="0%"    stop-color= "#b2ced6" stop-opacity="1"/>
   <stop offset="100%"  stop-color= "#6da5b7" stop-opacity="1"/>
  </linearGradient>
  <linearGradient id="60spsycho" x1="0%" x2="0%" y1="0%" y2="100%">
   <stop offset="0%"    stop-color= "#df5940" stop-opacity="1"/>
   <stop offset="25%"   stop-color= "#d8d15f" stop-opacity="1"/>
   <stop offset="50%"   stop-color= "#e9882a" stop-opacity="1"/>
   <stop offset="100%"  stop-color= "#279362" stop-opacity="1"/>
  </linearGradient>
  <linearGradient id="90ssummer" x1="0%" x2="0%" y1="0%" y2="100%">
   <stop offset="0%"    stop-color= "#f618c7" stop-opacity="1"/>
   <stop offset="20%"   stop-color= "#94ffab" stop-opacity="1"/>
   <stop offset="50%"   stop-color= "#fbfd54" stop-opacity="1"/>
   <stop offset="100%"  stop-color= "#0f83ae" stop-opacity="1"/>
  </linearGradient>
 </defs>
 <path fill="url(#oomox)" class="ColorScheme-Text" d="M 3.5253906 0 L 6.4277344 1.2792969 C 5.9455844 2.2083969 5.3338531 3.0555531 4.6269531 3.8144531 L 0.81835938 0.01953125 L 0.01171875 0.01953125 L 0.01171875 0.96875 L 3.734375 4.6738281 C 3.013545 5.2977281 2.220575 5.8366781 1.359375 6.2675781 L 0.56835938 4.4824219 L 0.029296875 3.2265625 L 0.015625 6.25 L 0.24023438 6.7558594 C 0.15877237 6.7858594 0.08232 6.8264688 0 6.8554688 L 0 8.1640625 C 0.25343 8.0850625 0.49383437 7.9786656 0.74023438 7.8847656 L 2.6757812 12.25 C 1.8141912 12.5847 0.9223 12.864753 0 13.064453 L 0 14.333984 C 1.0992 14.112184 2.1576344 13.782553 3.1777344 13.376953 L 4.3125 15.939453 L 5.6445312 15.939453 L 4.2949219 12.892578 C 5.9790219 12.091278 7.5220125 11.045181 8.8828125 9.8007812 L 12.306641 13.208984 C 11.188341 14.249884 9.9746219 15.1899 8.6699219 16 L 10.890625 16 C 11.696855 15.41 12.455394 14.761278 13.183594 14.080078 L 15.050781 15.939453 L 15.939453 15.949219 L 15.945312 15.09375 L 14.060547 13.216797 C 14.746247 12.508797 15.4016 11.771228 16 10.986328 L 16 8.8378906 C 15.17694 10.098291 14.2303 11.268503 13.1875 12.345703 L 9.7675781 8.9375 C 11.100578 7.547 12.221172 5.9537781 13.076172 4.2050781 L 15.935547 5.4648438 L 15.939453 4.1191406 L 13.572266 3.09375 C 13.977526 2.10565 14.310769 1.0815781 14.542969 0.017578125 L 13.273438 0.017578125 C 13.064797 0.90917812 12.783099 1.7705156 12.443359 2.6035156 L 8.0390625 0.6953125 C 8.1295525 0.4689125 8.23485 0.25007812 8.3125 0.017578125 L 6.9960938 0.017578125 C 6.9715837 0.083578125 6.9377794 0.14388437 6.9121094 0.20898438 L 6.4316406 0 L 3.5253906 0 z M 7.5546875 1.7753906 L 11.947266 3.7089844 C 11.155486 5.3182844 10.119478 6.7840062 8.8925781 8.0664062 L 5.5 4.6855469 C 6.31296 3.8185469 7.0075875 2.8427906 7.5546875 1.7753906 z M 4.609375 5.5449219 L 8.0078125 8.9277344 C 6.7545125 10.065534 5.3384687 11.024519 3.7929688 11.761719 L 1.859375 7.3945312 C 2.859105 6.8983312 3.779175 6.2745219 4.609375 5.5449219 z" transform="translate(4 4)"/>
</svg>
