<svg xmlns="http://www.w3.org/2000/svg" width="24" height="24" version="1.1">
 <defs>
   <style id="current-color-scheme" type="text/css">
   .ColorScheme-Text { color: #939597; } .ColorScheme-Highlight { color: #1AD6AB; }
  </style>
  <linearGradient id="arrongin" x1="0%" x2="0%" y1="0%" y2="100%">
   <stop offset="0%"    stop-color= "#dd9b44" stop-opacity="1"/>
   <stop offset="100%"  stop-color= "#ad6c16" stop-opacity="1"/>
  </linearGradient>
  <linearGradient id="aurora" x1="0%" x2="0%" y1="0%" y2="100%">
   <stop offset="0%"    stop-color= "#09D4DF" stop-opacity="1"/>
   <stop offset="100%"  stop-color= "#9269F4" stop-opacity="1"/>
  </linearGradient> 
  <linearGradient id="cyberblue" x1="0%" x2="0%" y1="0%" y2="100%">
   <stop offset="0%"    stop-color= "#07B3FF" stop-opacity="1"/>
   <stop offset="100%"  stop-color= "#007DE8" stop-opacity="1"/>
  </linearGradient>
  <linearGradient id="cyberneon" x1="0%" x2="0%" y1="0%" y2="100%">
    <stop offset="0%"   stop-color= "#0abdc6" stop-opacity="1"/>
    <stop offset="100%" stop-color= "#ea00d9" stop-opacity="1"/>
  </linearGradient>
  <linearGradient id="fitdance" x1="0%" x2="0%" y1="0%" y2="100%">
   <stop offset="0%"    stop-color= "#1AD6AB" stop-opacity="1"/>
   <stop offset="100%"  stop-color= "#329DB6" stop-opacity="1"/>
  </linearGradient>
  <linearGradient id="oomox" x1="0%" x2="0%" y1="0%" y2="100%">
   <stop offset="0%"    stop-color= "#66b7ff" stop-opacity="1"/>
   <stop offset="100%"  stop-color= "#006acc" stop-opacity="1"/>
  </linearGradient>
  <linearGradient id="rainblue" x1="0%" x2="0%" y1="0%" y2="100%">
   <stop offset="0%"    stop-color= "#00F260" stop-opacity="1"/>
   <stop offset="100%"  stop-color= "#0575E6" stop-opacity="1"/>
  </linearGradient>
  <linearGradient id="redcarbon" x1="0%" x2="0%" y1="0%" y2="100%">
   <stop offset="0%"    stop-color= "#FF6D57" stop-opacity="1"/>
   <stop offset="50%"   stop-color= "#FF5160" stop-opacity="1"/>
   <stop offset="100%"  stop-color= "#F50F22" stop-opacity="1"/>
  </linearGradient>
  <linearGradient id="sunrise" x1="0%" x2="0%" y1="0%" y2="100%">
   <stop offset="0%"    stop-color= "#FF8501" stop-opacity="1"/>
   <stop offset="100%"  stop-color= "#FFCB01" stop-opacity="1"/>
  </linearGradient>
  <linearGradient id="telinkrin" x1="0%" x2="0%" y1="0%" y2="100%">
   <stop offset="0%"    stop-color= "#b2ced6" stop-opacity="1"/>
   <stop offset="100%"  stop-color= "#6da5b7" stop-opacity="1"/>
  </linearGradient>
  <linearGradient id="60spsycho" x1="0%" x2="0%" y1="0%" y2="100%">
   <stop offset="0%"    stop-color= "#df5940" stop-opacity="1"/>
   <stop offset="25%"   stop-color= "#d8d15f" stop-opacity="1"/>
   <stop offset="50%"   stop-color= "#e9882a" stop-opacity="1"/>
   <stop offset="100%"  stop-color= "#279362" stop-opacity="1"/>
  </linearGradient>
  <linearGradient id="90ssummer" x1="0%" x2="0%" y1="0%" y2="100%">
   <stop offset="0%"    stop-color= "#f618c7" stop-opacity="1"/>
   <stop offset="20%"   stop-color= "#94ffab" stop-opacity="1"/>
   <stop offset="50%"   stop-color= "#fbfd54" stop-opacity="1"/>
   <stop offset="100%"  stop-color= "#0f83ae" stop-opacity="1"/>
  </linearGradient>
 </defs>
 <path fill="url(#oomox)" class="ColorScheme-Text" d="M 14.501953 0.94726562 C 13.819953 0.94726562 13.252313 1.4054269 13.070312 2.0292969 C 7.7443125 3.1297969 3.0339375 6.6872781 2.0859375 13.017578 C 1.4720375 13.204578 1.0214844 13.771266 1.0214844 14.447266 C 1.0214844 15.276266 1.6923313 15.947266 2.5195312 15.947266 C 3.3467312 15.947266 4.0175781 15.276266 4.0175781 14.447266 C 4.0175781 13.821266 3.6343437 13.284547 3.0898438 13.060547 C 3.4626438 10.684547 4.3887594 8.7513563 5.6933594 7.2226562 C 7.0931594 8.6483563 7.9772656 10.148375 8.1972656 11.359375 C 8.4216656 12.595375 8.1083906 13.644016 7.2128906 14.541016 L 7.9179688 15.248047 C 9.0193688 14.145047 9.4545875 12.693688 9.1796875 11.179688 C 8.9094875 9.6909875 7.8715875 8.0238937 6.3671875 6.4960938 C 6.5382875 6.3284937 6.7195906 6.171825 6.9003906 6.015625 C 8.3699906 7.425525 9.8588688 8.3032531 11.292969 8.5644531 C 12.804969 8.8396531 14.251516 8.4038812 15.353516 7.3007812 L 14.648438 6.59375 C 13.753438 7.49055 12.704703 7.8047781 11.470703 7.5800781 C 10.329703 7.3722781 9.0262062 6.6389188 7.6914062 5.3867188 C 9.2737063 4.2409188 11.138953 3.4679156 13.126953 3.0410156 C 13.356953 3.5742156 13.884953 3.9472656 14.501953 3.9472656 C 15.328953 3.9472656 16 3.2756656 16 2.4472656 C 16 1.6187656 15.328953 0.94726562 14.501953 0.94726562 z" transform="translate(4 4)"/>
</svg>
