<svg xmlns="http://www.w3.org/2000/svg" width="24" height="24" version="1.1">
 <defs>
  <style id="current-color-scheme" type="text/css">
   .ColorScheme-Text { color: #ececec; } .ColorScheme-Highlight { color: #1AD6AB; }
  </style>
  <linearGradient id="arrongin" x1="0%" x2="0%" y1="0%" y2="100%">
   <stop id="stop3" offset="0%" stop-color="#dd9b44"/>
   <stop id="stop5" offset="100%" stop-color="#ad6c16"/>
  </linearGradient>
  <linearGradient id="aurora" x1="0%" x2="0%" y1="0%" y2="100%">
   <stop id="stop8" offset="0%" stop-color="#09D4DF"/>
   <stop id="stop10" offset="100%" stop-color="#9269F4"/>
  </linearGradient>
  <linearGradient id="cyberblue" x1="0%" x2="0%" y1="0%" y2="100%">
   <stop id="stop13" offset="0%" stop-color="#07B3FF"/>
   <stop id="stop15" offset="100%" stop-color="#007DE8"/>
  </linearGradient>
  <linearGradient id="cyberneon" x1="0%" x2="0%" y1="0%" y2="100%">
   <stop id="stop18" offset="0%" stop-color="#0abdc6"/>
   <stop id="stop20" offset="100%" stop-color="#ea00d9"/>
  </linearGradient>
  <linearGradient id="fitdance" x1="0%" x2="0%" y1="0%" y2="100%">
   <stop id="stop23" offset="0%" stop-color="#1AD6AB"/>
   <stop id="stop25" offset="100%" stop-color="#329DB6"/>
  </linearGradient>
  <linearGradient id="oomox" x1="0%" x2="0%" y1="0%" y2="100%">
   <stop id="stop28" offset="0%" stop-color="#efefe7"/>
   <stop id="stop30" offset="100%" stop-color="#8f8f8b"/>
  </linearGradient>
  <linearGradient id="rainblue" x1="0%" x2="0%" y1="0%" y2="100%">
   <stop id="stop33" offset="0%" stop-color="#00F260"/>
   <stop id="stop35" offset="100%" stop-color="#0575E6"/>
  </linearGradient>
  <linearGradient id="redcarbon" x1="0%" x2="100%" y1="0%" y2="100%">
   <stop id="stop38" offset="0%" stop-color="#FF6D57"/>
   <stop id="stop40" offset="50%" stop-color="#FF5160"/>
   <stop id="stop42" offset="100%" stop-color="#F50F22"/>
  </linearGradient>
  <linearGradient id="sunrise" x1="0%" x2="0%" y1="0%" y2="100%">
   <stop id="stop45" offset="0%" stop-color="#FF8501"/>
   <stop id="stop47" offset="100%" stop-color="#FFCB01"/>
  </linearGradient>
  <linearGradient id="telinkrin" x1="0%" x2="0%" y1="0%" y2="100%">
   <stop id="stop50" offset="0%" stop-color="#b2ced6"/>
   <stop id="stop52" offset="100%" stop-color="#6da5b7"/>
  </linearGradient>
  <linearGradient id="60spsycho" x1="0%" x2="0%" y1="0%" y2="100%">
   <stop id="stop55" offset="0%" stop-color="#df5940"/>
   <stop id="stop57" offset="25%" stop-color="#d8d15f"/>
   <stop id="stop59" offset="50%" stop-color="#e9882a"/>
   <stop id="stop61" offset="100%" stop-color="#279362"/>
  </linearGradient>
  <linearGradient id="90ssummer" x1="0%" x2="0%" y1="0%" y2="100%">
   <stop id="stop64" offset="0%" stop-color="#f618c7"/>
   <stop id="stop66" offset="20%" stop-color="#94ffab"/>
   <stop id="stop68" offset="50%" stop-color="#fbfd54"/>
   <stop id="stop70" offset="100%" stop-color="#0f83ae"/>
  </linearGradient>
 </defs>
 <rect fill="#1e1e1e" opacity="0.2" width="16" height="12" x="-21.5" y="-18" rx="1" ry="1" transform="matrix(0,-1,-1,0,0,0)"/>
 <rect fill="#8e8e8e" width="16" height="12" x="-21" y="-18" rx="1" ry="1" transform="matrix(0,-1,-1,0,0,0)"/>
 <rect fill="#1e1e1e" opacity="0.2" width="16" height="20" x="-19.5" y="-22" rx="1" ry="1" transform="matrix(0,-1,-1,0,0,0)"/>
 <rect fill="#4f4f4f" width="16" height="20" x="-19" y="-22" rx="1" ry="1" transform="matrix(0,-1,-1,0,0,0)"/>
 <rect fill="url(#redcarbon)" width="12" height="16" x="-17" y="-20" rx="0" ry="0" transform="matrix(0,-1,-1,0,0,0)"/>
 <path fill="#1e1e1e" opacity="0.2" d="m 9,8.5 v 2 h 1 v -2 z m 5,0 v 2 h 1 v -2 z m -5,4 v 1 h 1 4 1 v -1 h -1 -4 z m 6,1 v 1 h 1 v -1 z m -6,0 H 8 v 1 h 1 z"/>
 <path fill="#efefef" opacity="1.0" d="m 9,8 v 2 h 1 V 8 Z m 5,0 v 2 h 1 V 8 Z m -5,4 v 1 h 1 4 1 v -1 h -1 -4 z m 6,1 v 1 h 1 V 13 Z M 9,13 H 8 v 1 h 1 z"/>
 <path fill="#efefef" opacity="0.1" d="M 3,3 C 2.446,3 2,3.446 2,4 l 0,0.5 c 0,-0.554 0.446,-1 1,-1 l 18,0 c 0.554,0 1,0.446 1,1 L 22,4 C 22,3.446 21.554,3 21,3 L 3,3 Z"/>
 <rect fill="#efefef" opacity="0.1" width="16" height=".5" x="4" y="17"/>
</svg>
