<svg xmlns="http://www.w3.org/2000/svg" width="24" height="24" version="1.1">
 <defs>
  <style id="current-color-scheme" type="text/css">
   .ColorScheme-Text { color: #ececec; } .ColorScheme-Highlight { color: #1AD6AB; }
  </style>
  <linearGradient id="arrongin" x1="0%" x2="0%" y1="0%" y2="100%">
   <stop offset="0%"   stop-color="#dd9b44"/>
   <stop offset="100%" stop-color="#ad6c16"/>
  </linearGradient>
  <linearGradient id="aurora" x1="0%" x2="0%" y1="0%" y2="100%">
   <stop offset="0%"    stop-color="#09D4DF"/>
   <stop offset="100%" stop-color="#9269F4"/>
  </linearGradient>
  <linearGradient id="cyberblue" x1="0%" x2="0%" y1="0%" y2="100%">
   <stop offset="0%"   stop-color="#07B3FF"/>
   <stop offset="100%" stop-color="#007DE8"/>
  </linearGradient>
  <linearGradient id="cyberneon" x1="0%" x2="0%" y1="0%" y2="100%">
   <stop offset="0%"   stop-color="#0abdc6"/>
   <stop offset="100%" stop-color="#ea00d9"/>
  </linearGradient>
  <linearGradient id="fitdance" x1="0%" x2="0%" y1="0%" y2="100%">
   <stop offset="0%"   stop-color="#1AD6AB"/>
   <stop offset="100%" stop-color="#329DB6"/>
  </linearGradient>
  <linearGradient id="oomox" x1="0%" x2="0%" y1="0%" y2="100%">
   <stop offset="0%"   stop-color="#efefe7"/>
   <stop offset="100%" stop-color="#8f8f8b"/>
  </linearGradient>
  <linearGradient id="rainblue" x1="0%" x2="0%" y1="0%" y2="100%">
   <stop offset="0%"   stop-color="#00F260"/>
   <stop offset="100%" stop-color="#0575E6"/>
  </linearGradient>
  <linearGradient id="redcarbon" x1="0%" x2="100%" y1="0%" y2="100%">
   <stop offset="0%"   stop-color="#FF6D57"/>
   <stop offset="50%"  stop-color="#FF5160"/>
   <stop offset="100%" stop-color="#F50F22"/>
  </linearGradient>
  <linearGradient id="sunrise" x1="0%" x2="0%" y1="0%" y2="100%">
   <stop offset="0%"   stop-color="#FF8501"/>
   <stop offset="100%" stop-color="#FFCB01"/>
  </linearGradient>
  <linearGradient id="telinkrin" x1="0%" x2="0%" y1="0%" y2="100%">
   <stop offset="0%"   stop-color="#b2ced6"/>
   <stop offset="100%" stop-color="#6da5b7"/>
  </linearGradient>
  <linearGradient id="60spsycho" x1="0%" x2="0%" y1="0%" y2="100%">
   <stop offset="0%"   stop-color="#df5940"/>
   <stop offset="25%"  stop-color="#d8d15f"/>
   <stop offset="50%"  stop-color="#e9882a"/>
   <stop offset="100%" stop-color="#279362"/>
  </linearGradient>
  <linearGradient id="90ssummer" x1="0%" x2="0%" y1="0%" y2="100%">
   <stop offset="0%"   stop-color="#f618c7"/>
   <stop offset="20%"  stop-color="#94ffab"/>
   <stop offset="50%"  stop-color="#fbfd54"/>
   <stop offset="100%" stop-color="#0f83ae"/>
  </linearGradient>
  <linearGradient id="pause" x1="0" x2="0" y1="0" y2="1" gradientTransform="matrix(4,0,0,12,14,5.734)" gradientUnits="userSpaceOnUse">
   <stop offset="0%"   stop-color="#f06"/>
   <stop offset="100%" stop-color="#dc1499"/>
  </linearGradient>
  <linearGradient id="squircle" x1="0" x2="0" y1="0" y2="1" gradientTransform="matrix(24,0,0,22.401,0,0.533)" gradientUnits="userSpaceOnUse">
   <stop offset="0%"   stop-color="#4c5561"/>
   <stop offset="100%" stop-color="#2e3842"/>
  </linearGradient>
 </defs>
 <path fill="url(#redcarbon)" fill-rule="evenodd" d="M 13.98 6 C 17.872 6 18.429 6.555 18.429 10.443 L 18.429 13.557 C 18.429 17.445 17.872 18 13.98 18 L 10.02 18 C 6.127 18 5.571 17.445 5.571 13.557 L 5.571 10.443 C 5.571 6.555 6.127 6 10.02 6 L 13.98 6 Z"/>
 <path fill="url(#squircle)" fill-rule="evenodd" d="M 15.698 0.533 C 22.962 0.533 24 1.569 24 8.828 L 24 14.64 C 24 21.898 22.962 22.934 15.698 22.934 L 8.302 22.934 C 1.038 22.934 0 21.898 0 14.64 L 0 8.828 C 0 1.569 1.038 0.533 8.302 0.533 L 15.698 0.533 Z M 15.705 2.778 C 16.485 2.778 17.25 2.793 18.03 2.838 C 18.585 2.868 19.125 2.929 19.665 3.019 C 19.995 3.079 20.31 3.168 20.61 3.304 C 20.745 3.364 20.88 3.454 20.985 3.543 C 21.09 3.663 21.165 3.784 21.225 3.918 C 21.36 4.219 21.45 4.534 21.51 4.864 C 21.6 5.403 21.66 5.943 21.69 6.499 C 21.735 7.279 21.75 8.043 21.75 8.823 C 21.75 8.823 21.75 8.823 21.75 8.823 L 21.75 14.643 C 21.75 14.643 21.75 14.643 21.75 14.658 C 21.75 15.424 21.735 16.189 21.69 16.968 C 21.66 17.523 21.6 18.064 21.51 18.603 C 21.45 18.934 21.36 19.249 21.225 19.549 C 21.165 19.684 21.09 19.804 20.985 19.924 C 20.88 20.014 20.745 20.103 20.61 20.163 C 20.31 20.299 19.995 20.389 19.665 20.449 C 19.125 20.538 18.585 20.598 18.03 20.629 C 17.25 20.674 16.485 20.689 15.705 20.689 C 15.705 20.689 15.705 20.689 15.705 20.689 L 8.295 20.689 C 8.295 20.689 8.295 20.689 8.295 20.689 C 7.515 20.689 6.75 20.674 5.97 20.629 C 5.415 20.598 4.875 20.538 4.335 20.449 C 4.005 20.389 3.69 20.299 3.39 20.163 C 3.255 20.103 3.12 20.014 3.015 19.924 C 2.91 19.804 2.835 19.684 2.775 19.549 C 2.64 19.249 2.55 18.934 2.49 18.603 C 2.4 18.064 2.34 17.523 2.31 16.968 C 2.265 16.189 2.25 15.424 2.25 14.658 C 2.25 14.643 2.25 14.643 2.25 14.643 L 2.25 8.823 C 2.25 8.823 2.25 8.823 2.25 8.823 C 2.25 8.043 2.265 7.279 2.31 6.499 C 2.34 5.943 2.4 5.403 2.49 4.864 C 2.55 4.534 2.64 4.219 2.775 3.918 C 2.835 3.784 2.91 3.663 3.015 3.543 C 3.12 3.454 3.255 3.364 3.39 3.304 C 3.69 3.168 4.005 3.079 4.335 3.019 C 4.875 2.929 5.415 2.868 5.97 2.838 C 6.75 2.793 7.515 2.778 8.295 2.778 C 8.295 2.778 8.295 2.778 8.295 2.778 L 15.705 2.778 C 15.705 2.778 15.705 2.778 15.705 2.778 Z"/>
</svg>
