<svg xmlns="http://www.w3.org/2000/svg" width="22" height="22" version="1.1">
 <defs>
  <style id="current-color-scheme" type="text/css">
   .ColorScheme-Text { color: #939597; } .ColorScheme-Highlight { color: #1AD6AB; }
  </style>
  <linearGradient id="arrongin" x1="0%" x2="0%" y1="0%" y2="100%">
   <stop offset="0%" style="stop-color:#dd9b44"/>
   <stop offset="100%" style="stop-color:#ad6c16"/>
  </linearGradient>
  <linearGradient id="aurora" x1="0%" x2="0%" y1="0%" y2="100%">
   <stop offset="0%" style="stop-color:#09D4DF"/>
   <stop offset="100%" style="stop-color:#9269F4"/>
  </linearGradient>
  <linearGradient id="cyberneon" x1="0%" x2="0%" y1="0%" y2="100%">
   <stop offset="0" style="stop-color:#0abdc6"/>
   <stop offset="1" style="stop-color:#ea00d9"/>
  </linearGradient>
  <linearGradient id="fitdance" x1="0%" x2="0%" y1="0%" y2="100%">
   <stop offset="0%" style="stop-color:#1AD6AB"/>
   <stop offset="100%" style="stop-color:#329DB6"/>
  </linearGradient>
  <linearGradient id="oomox" x1="0%" x2="0%" y1="0%" y2="100%">
   <stop offset="0%" style="stop-color:#66b7ff"/>
   <stop offset="100%" style="stop-color:#006acc"/>
  </linearGradient>
  <linearGradient id="rainblue" x1="0%" x2="0%" y1="0%" y2="100%">
   <stop offset="0%" style="stop-color:#00F260"/>
   <stop offset="100%" style="stop-color:#0575E6"/>
  </linearGradient>
  <linearGradient id="sunrise" x1="0%" x2="0%" y1="0%" y2="100%">
   <stop offset="0%" style="stop-color:#FF8501"/>
   <stop offset="100%" style="stop-color:#FFCB01"/>
  </linearGradient>
  <linearGradient id="telinkrin" x1="0%" x2="0%" y1="0%" y2="100%">
   <stop offset="0%" style="stop-color:#b2ced6"/>
   <stop offset="100%" style="stop-color:#6da5b7"/>
  </linearGradient>
  <linearGradient id="60spsycho" x1="0%" x2="0%" y1="0%" y2="100%">
   <stop offset="0%" style="stop-color:#df5940"/>
   <stop offset="25%" style="stop-color:#d8d15f"/>
   <stop offset="50%" style="stop-color:#e9882a"/>
   <stop offset="100%" style="stop-color:#279362"/>
  </linearGradient>
  <linearGradient id="90ssummer" x1="0%" x2="0%" y1="0%" y2="100%">
   <stop offset="0%" style="stop-color:#f618c7"/>
   <stop offset="20%" style="stop-color:#94ffab"/>
   <stop offset="50%" style="stop-color:#fbfd54"/>
   <stop offset="100%" style="stop-color:#0f83ae"/>
  </linearGradient>
 </defs>
 <path fill="url(#oomox)" class="ColorScheme-Text" d="m11 2.9434c-4.3678 0-8 3.3281-8 7.4996 0 4.172 3.6322 7.5 8 7.5a1.0001 1.0001 0 0 0 0.002 0c0.612-0.001 1.213-0.118 1.809-0.25 1.228 0.809 2.664 1.539 4.367 1.233a1.0001 1.0001 0 0 0 0.549 -1.67c-0.583-0.616-0.891-1-0.909-1.82 1.331-1.368 2.18-3.11 2.182-4.993 0-4.1715-3.632-7.4996-8-7.4996zm0 2c3.363 0 5.999 2.4911 6 5.4976-0.002 1.5-0.667 2.939-1.873 3.987a1.0001 1.0001 0 0 0 -0.342 0.703c-0.032 0.629 0.162 1.107 0.344 1.586-0.5-0.204-1.006-0.494-1.553-0.873a1.0001 1.0001 0 0 0 -0.84 -0.141c-0.562 0.158-1.147 0.239-1.736 0.24-3.3642 0-6-2.492-6-5.5 0-3.0075 2.6358-5.4996 6-5.4996zm3.016 6.8416a0.75008 0.75008 0 0 0 -0.467 0.158c-0.905 0.682-1.74 0.985-2.551 0.987-0.811 0.001-1.6398-0.297-2.5429-0.985a0.75042 0.75042 0 1 0 -0.9102 1.194c1.0969 0.835 2.2677 1.293 3.4571 1.291 1.189-0.003 2.354-0.464 3.449-1.289a0.75008 0.75008 0 0 0 -0.435 -1.356z"/>
</svg>
