<svg xmlns="http://www.w3.org/2000/svg" width="22" height="22" version="1.1">
 <defs>
  <style id="current-color-scheme" type="text/css">
   .ColorScheme-Text { color: #939597; } .ColorScheme-Highlight { color: #1AD6AB; }
  </style>
  <linearGradient id="arrongin" x1="0%" x2="0%" y1="0%" y2="100%">
   <stop offset="0%" style="stop-color:#dd9b44"/>
   <stop offset="100%" style="stop-color:#ad6c16"/>
  </linearGradient>
  <linearGradient id="aurora" x1="0%" x2="0%" y1="0%" y2="100%">
   <stop offset="0%" style="stop-color:#09D4DF"/>
   <stop offset="100%" style="stop-color:#9269F4"/>
  </linearGradient>
  <linearGradient id="cyberneon" x1="0%" x2="0%" y1="0%" y2="100%">
   <stop offset="0" style="stop-color:#0abdc6"/>
   <stop offset="1" style="stop-color:#ea00d9"/>
  </linearGradient>
  <linearGradient id="fitdance" x1="0%" x2="0%" y1="0%" y2="100%">
   <stop offset="0%" style="stop-color:#1AD6AB"/>
   <stop offset="100%" style="stop-color:#329DB6"/>
  </linearGradient>
  <linearGradient id="oomox" x1="0%" x2="0%" y1="0%" y2="100%">
   <stop offset="0%" style="stop-color:#66b7ff"/>
   <stop offset="100%" style="stop-color:#006acc"/>
  </linearGradient>
  <linearGradient id="rainblue" x1="0%" x2="0%" y1="0%" y2="100%">
   <stop offset="0%" style="stop-color:#00F260"/>
   <stop offset="100%" style="stop-color:#0575E6"/>
  </linearGradient>
  <linearGradient id="sunrise" x1="0%" x2="0%" y1="0%" y2="100%">
   <stop offset="0%" style="stop-color:#FF8501"/>
   <stop offset="100%" style="stop-color:#FFCB01"/>
  </linearGradient>
  <linearGradient id="telinkrin" x1="0%" x2="0%" y1="0%" y2="100%">
   <stop offset="0%" style="stop-color:#b2ced6"/>
   <stop offset="100%" style="stop-color:#6da5b7"/>
  </linearGradient>
  <linearGradient id="60spsycho" x1="0%" x2="0%" y1="0%" y2="100%">
   <stop offset="0%" style="stop-color:#df5940"/>
   <stop offset="25%" style="stop-color:#d8d15f"/>
   <stop offset="50%" style="stop-color:#e9882a"/>
   <stop offset="100%" style="stop-color:#279362"/>
  </linearGradient>
  <linearGradient id="90ssummer" x1="0%" x2="0%" y1="0%" y2="100%">
   <stop offset="0%" style="stop-color:#f618c7"/>
   <stop offset="20%" style="stop-color:#94ffab"/>
   <stop offset="50%" style="stop-color:#fbfd54"/>
   <stop offset="100%" style="stop-color:#0f83ae"/>
  </linearGradient>
 </defs>
 <path fill="url(#oomox)" class="ColorScheme-Text" d="m 3.8007811,3 c -0.4432,0 -0.800781,0.3575812 -0.800781,0.8007812 V 18.199219 c 0,0.4432 0.357581,0.800781 0.800781,0.800781 H 18.199219 C 18.642419,19 19,18.642419 19,18.199219 V 3.8007812 C 19,3.3575812 18.642419,3 18.199219,3 Z M 10.5,5 C 10.777,5 11,5.3345 11,5.75 v 10.5 C 11,16.6655 10.777,17 10.5,17 10.223,17 10,16.6655 10,16.25 V 5.75 C 10,5.3345 10.223,5 10.5,5 Z M 4.5000001,6 c 0.277,0 0.5,0.3705493 0.5,0.8320312 v 8.3359378 c 0,0.461482 -0.223,0.832031 -0.5,0.832031 -0.2770001,0 -0.5,-0.370549 -0.5,-0.832031 V 6.8320312 C 4.0000001,6.3705492 4.223,6 4.5000001,6 Z M 13.5,6 C 13.777,6 14,6.3192877 14,6.7148438 V 15.285156 C 14,15.680712 13.777,16 13.5,16 13.223,16 13,15.680712 13,15.285156 V 6.7148438 C 13,6.3192877 13.223,6 13.5,6 Z M 7.5000001,7 c 0.2769999,0 0.5,0.3575812 0.5,0.8007812 v 6.3984378 c 0,0.4432 -0.2230001,0.800781 -0.5,0.800781 -0.277,0 -0.5,-0.357581 -0.5,-0.800781 V 7.8007812 c 0,-0.4432 0.223,-0.8007812 0.5,-0.8007812 z M 16.5,7 C 16.777,7 17,7.2984508 17,7.6679688 V 14.332031 C 17,14.701549 16.777,15 16.5,15 16.223,15 16,14.701549 16,14.332031 V 7.6679688 C 16,7.2984508 16.223,7 16.5,7 Z"/>
</svg>
