<svg xmlns="http://www.w3.org/2000/svg" width="22" height="22" version="1.1">
 <defs>
  <style id="current-color-scheme" type="text/css">
   .ColorScheme-Text { color: #939597; } .ColorScheme-Highlight { color: #1AD6AB; }
  </style>
  <linearGradient id="arrongin" x1="0%" x2="0%" y1="0%" y2="100%">
   <stop offset="0%" style="stop-color:#dd9b44"/>
   <stop offset="100%" style="stop-color:#ad6c16"/>
  </linearGradient>
  <linearGradient id="aurora" x1="0%" x2="0%" y1="0%" y2="100%">
   <stop offset="0%" style="stop-color:#09D4DF"/>
   <stop offset="100%" style="stop-color:#9269F4"/>
  </linearGradient>
  <linearGradient id="cyberneon" x1="0%" x2="0%" y1="0%" y2="100%">
   <stop offset="0" style="stop-color:#0abdc6"/>
   <stop offset="1" style="stop-color:#ea00d9"/>
  </linearGradient>
  <linearGradient id="fitdance" x1="0%" x2="0%" y1="0%" y2="100%">
   <stop offset="0%" style="stop-color:#1AD6AB"/>
   <stop offset="100%" style="stop-color:#329DB6"/>
  </linearGradient>
  <linearGradient id="oomox" x1="0%" x2="0%" y1="0%" y2="100%">
   <stop offset="0%" style="stop-color:#66b7ff"/>
   <stop offset="100%" style="stop-color:#006acc"/>
  </linearGradient>
  <linearGradient id="rainblue" x1="0%" x2="0%" y1="0%" y2="100%">
   <stop offset="0%" style="stop-color:#00F260"/>
   <stop offset="100%" style="stop-color:#0575E6"/>
  </linearGradient>
  <linearGradient id="sunrise" x1="0%" x2="0%" y1="0%" y2="100%">
   <stop offset="0%" style="stop-color:#FF8501"/>
   <stop offset="100%" style="stop-color:#FFCB01"/>
  </linearGradient>
  <linearGradient id="telinkrin" x1="0%" x2="0%" y1="0%" y2="100%">
   <stop offset="0%" style="stop-color:#b2ced6"/>
   <stop offset="100%" style="stop-color:#6da5b7"/>
  </linearGradient>
  <linearGradient id="60spsycho" x1="0%" x2="0%" y1="0%" y2="100%">
   <stop offset="0%" style="stop-color:#df5940"/>
   <stop offset="25%" style="stop-color:#d8d15f"/>
   <stop offset="50%" style="stop-color:#e9882a"/>
   <stop offset="100%" style="stop-color:#279362"/>
  </linearGradient>
  <linearGradient id="90ssummer" x1="0%" x2="0%" y1="0%" y2="100%">
   <stop offset="0%" style="stop-color:#f618c7"/>
   <stop offset="20%" style="stop-color:#94ffab"/>
   <stop offset="50%" style="stop-color:#fbfd54"/>
   <stop offset="100%" style="stop-color:#0f83ae"/>
  </linearGradient>
 </defs>
 <path fill="url(#oomox)" class="ColorScheme-Text" d="m3 11a8 8 0 0 0 8 8 8 8 0 0 0 8 -8 8 8 0 0 0 -8 -8 8 8 0 0 0 -8 8zm2 0a6 6 0 0 1 2.0234 -4.4863 1.5 1.5 0 0 1 -0.0234 -0.2637 1.5 1.5 0 0 1 1.5 -1.5 1.5 1.5 0 0 1 1.053 0.4336 6 6 0 0 1 1.447 -0.1836 6 6 0 0 1 3.553 1.1738 1.5 1.5 0 0 1 0.697 -0.1738 1.5 1.5 0 0 1 1.5 1.5 1.5 1.5 0 0 1 -0.332 0.9395 6 6 0 0 1 0.582 2.5605 6 6 0 0 1 -3.002 5.191 1.5 1.5 0 0 1 0.002 0.059 1.5 1.5 0 0 1 -1.5 1.5 1.5 1.5 0 0 1 -1.3008 -0.75978 6 6 0 0 1 -0.19921 0.0098 6 6 0 0 1 -6 -6zm1 0a5 5 0 0 0 5 5 5 5 0 0 0 0.02148 -0.000001 1.5 1.5 0 0 1 0.76172 -1.0645l-0.553-3.461a1.5 1.5 0 0 1 -1.2305 -1.4746 1.5 1.5 0 0 1 0.22656 -0.79102l-1.2338-1.543a1.5 1.5 0 0 1 -0.4922 0.084 1.5 1.5 0 0 1 -0.9648 -0.3516 5 5 0 0 0 -1.5352 3.6016zm3.773-3.959 1.235 1.543a1.5 1.5 0 0 1 0.492 -0.084 1.5 1.5 0 0 1 0.898 0.3008l1.3984-0.93359a1.5 1.5 0 0 1 -0.046 -0.3672 1.5 1.5 0 0 1 0.121 -0.5898 5 5 0 0 0 -2.871 -0.9102 5 5 0 0 0 -1.0074 0.1074 1.5 1.5 0 0 1 0.0074 0.1426 1.5 1.5 0 0 1 -0.2262 0.791zm2.4434 4.2734 0.55469 3.4609a1.5 1.5 0 0 1 0.84765 0.47854 5 5 0 0 0 2.3809 -4.2539 5 5 0 0 0 -0.43945 -2.0332 1.5 1.5 0 0 1 -0.31055 0.0332 1.5 1.5 0 0 1 -0.89844 -0.30078l-1.3984 0.93359a1.5 1.5 0 0 1 0.04687 0.36719 1.5 1.5 0 0 1 -0.7832 1.3145z"/>
</svg>
