<svg xmlns="http://www.w3.org/2000/svg" width="22" height="22" version="1.1">
 <defs>
  <style id="current-color-scheme" type="text/css">
   .ColorScheme-Text { color: #939597; } .ColorScheme-Highlight { color: #1AD6AB; }
  </style>
  <linearGradient id="arrongin" x1="0%" x2="0%" y1="0%" y2="100%">
   <stop offset="0%" style="stop-color:#dd9b44"/>
   <stop offset="100%" style="stop-color:#ad6c16"/>
  </linearGradient>
  <linearGradient id="aurora" x1="0%" x2="0%" y1="0%" y2="100%">
   <stop offset="0%" style="stop-color:#09D4DF"/>
   <stop offset="100%" style="stop-color:#9269F4"/>
  </linearGradient>
  <linearGradient id="cyberneon" x1="0%" x2="0%" y1="0%" y2="100%">
   <stop offset="0" style="stop-color:#0abdc6"/>
   <stop offset="1" style="stop-color:#ea00d9"/>
  </linearGradient>
  <linearGradient id="fitdance" x1="0%" x2="0%" y1="0%" y2="100%">
   <stop offset="0%" style="stop-color:#1AD6AB"/>
   <stop offset="100%" style="stop-color:#329DB6"/>
  </linearGradient>
  <linearGradient id="oomox" x1="0%" x2="0%" y1="0%" y2="100%">
   <stop offset="0%" style="stop-color:#66b7ff"/>
   <stop offset="100%" style="stop-color:#006acc"/>
  </linearGradient>
  <linearGradient id="rainblue" x1="0%" x2="0%" y1="0%" y2="100%">
   <stop offset="0%" style="stop-color:#00F260"/>
   <stop offset="100%" style="stop-color:#0575E6"/>
  </linearGradient>
  <linearGradient id="sunrise" x1="0%" x2="0%" y1="0%" y2="100%">
   <stop offset="0%" style="stop-color:#FF8501"/>
   <stop offset="100%" style="stop-color:#FFCB01"/>
  </linearGradient>
  <linearGradient id="telinkrin" x1="0%" x2="0%" y1="0%" y2="100%">
   <stop offset="0%" style="stop-color:#b2ced6"/>
   <stop offset="100%" style="stop-color:#6da5b7"/>
  </linearGradient>
  <linearGradient id="60spsycho" x1="0%" x2="0%" y1="0%" y2="100%">
   <stop offset="0%" style="stop-color:#df5940"/>
   <stop offset="25%" style="stop-color:#d8d15f"/>
   <stop offset="50%" style="stop-color:#e9882a"/>
   <stop offset="100%" style="stop-color:#279362"/>
  </linearGradient>
  <linearGradient id="90ssummer" x1="0%" x2="0%" y1="0%" y2="100%">
   <stop offset="0%" style="stop-color:#f618c7"/>
   <stop offset="20%" style="stop-color:#94ffab"/>
   <stop offset="50%" style="stop-color:#fbfd54"/>
   <stop offset="100%" style="stop-color:#0f83ae"/>
  </linearGradient>
 </defs>
 <path fill="url(#oomox)" class="ColorScheme-Text" d="M 7,3 C 6,3 6,4 6,4 V 18 C 6,18 6,19 7,19 H 14 V 15 H 8 V 6 L 14,6 V 10 H 16 V 4 C 16,4 16,3 15,3 Z M 10.5,16 H 11.5 C 11.5,16 12,16 12,16.5 V 17.5 C 12,17.5 12,18 11.5,18 H 10.5 C 10.5,18 10,18 10,17.5 V 16.5 C 10,16.5 10,16 10.5,16 Z"/>
 <path fill="currentColor" class="ColorScheme-Highlight" d="M 15,11 V 15 L 15.25,17 H 16.75 L 17,15 V 11 Z M 15,18 V 20 H 17 V 18 Z"/>
</svg>
