<svg xmlns="http://www.w3.org/2000/svg" width="22" height="22" version="1.1">
 <defs>
  <style id="current-color-scheme" type="text/css">
   .ColorScheme-Text { color: #939597; } .ColorScheme-Highlight { color: #1AD6AB; }
  </style>
  <linearGradient id="arrongin" x1="0%" x2="0%" y1="0%" y2="100%">
   <stop offset="0%" style="stop-color:#dd9b44"/>
   <stop offset="100%" style="stop-color:#ad6c16"/>
  </linearGradient>
  <linearGradient id="aurora" x1="0%" x2="0%" y1="0%" y2="100%">
   <stop offset="0%" style="stop-color:#09D4DF"/>
   <stop offset="100%" style="stop-color:#9269F4"/>
  </linearGradient>
  <linearGradient id="cyberneon" x1="0%" x2="0%" y1="0%" y2="100%">
   <stop offset="0" style="stop-color:#0abdc6"/>
   <stop offset="1" style="stop-color:#ea00d9"/>
  </linearGradient>
  <linearGradient id="fitdance" x1="0%" x2="0%" y1="0%" y2="100%">
   <stop offset="0%" style="stop-color:#1AD6AB"/>
   <stop offset="100%" style="stop-color:#329DB6"/>
  </linearGradient>
  <linearGradient id="oomox" x1="0%" x2="0%" y1="0%" y2="100%">
   <stop offset="0%" style="stop-color:#66b7ff"/>
   <stop offset="100%" style="stop-color:#006acc"/>
  </linearGradient>
  <linearGradient id="rainblue" x1="0%" x2="0%" y1="0%" y2="100%">
   <stop offset="0%" style="stop-color:#00F260"/>
   <stop offset="100%" style="stop-color:#0575E6"/>
  </linearGradient>
  <linearGradient id="sunrise" x1="0%" x2="0%" y1="0%" y2="100%">
   <stop offset="0%" style="stop-color:#FF8501"/>
   <stop offset="100%" style="stop-color:#FFCB01"/>
  </linearGradient>
  <linearGradient id="telinkrin" x1="0%" x2="0%" y1="0%" y2="100%">
   <stop offset="0%" style="stop-color:#b2ced6"/>
   <stop offset="100%" style="stop-color:#6da5b7"/>
  </linearGradient>
  <linearGradient id="60spsycho" x1="0%" x2="0%" y1="0%" y2="100%">
   <stop offset="0%" style="stop-color:#df5940"/>
   <stop offset="25%" style="stop-color:#d8d15f"/>
   <stop offset="50%" style="stop-color:#e9882a"/>
   <stop offset="100%" style="stop-color:#279362"/>
  </linearGradient>
  <linearGradient id="90ssummer" x1="0%" x2="0%" y1="0%" y2="100%">
   <stop offset="0%" style="stop-color:#f618c7"/>
   <stop offset="20%" style="stop-color:#94ffab"/>
   <stop offset="50%" style="stop-color:#fbfd54"/>
   <stop offset="100%" style="stop-color:#0f83ae"/>
  </linearGradient>
 </defs>
 <path fill="url(#oomox)" class="ColorScheme-Text" d="m11 3c-0.193 0-0.383 0.0102-0.572 0.0234-0.024 0.0018-0.047 0.002-0.071 0.0039-2.8574 0.2256-5.2788 1.9429-6.5015 4.375-0.0791 0.1575-0.1597 0.3153-0.2285 0.4786-0.3746 0.8457-0.5783 1.742-0.6153 2.6811-0.0016 0.031-0.0026 0.062-0.0039 0.092-0.0025 0.09-0.0064 0.179-0.0058 0.27-0.0003 0.025-0.002 0.051-0.002 0.076 0 0.93 0.1657 1.819 0.4551 2.648 0.0674 0.216 0.1572 0.435 0.2383 0.653a3 3 0 0 1 1.3066 -0.301 3 3 0 0 1 3 3 3 3 0 0 1 -0.375 1.451c0.3187 0.013 0.6277 0.094 1.1562 0.26 0.5246 0.165 1.1216 0.253 1.7968 0.277 0.028 0.002 0.058 0.003 0.086 0.004 0.092 0.003 0.182 0.008 0.277 0.008h0.022 0.037c0.223 0 0.443-0.012 0.662-0.029 1.978-0.141 3.566-0.872 4.996-2.299 1.178-1.176 1.909-2.629 2.197-4.149 0.027-0.138 0.048-0.278 0.067-0.419 0.012-0.087 0.024-0.173 0.033-0.26 0.019-0.187 0.031-0.376 0.037-0.567 0.002-0.048 0.004-0.096 0.004-0.144 0.001-0.045 0.004-0.088 0.004-0.133 0-4.358-3.45-7.8778-7.779-7.9941-0.034-0.001-0.068-0.0015-0.102-0.002-0.04-0.0006-0.079-0.0039-0.119-0.0039zm-5 6a2 2 0 0 1 2 2 2 2 0 0 1 -2 2 2 2 0 0 1 -2 -2 2 2 0 0 1 2 -2zm5 0a2 2 0 0 1 2 2 2 2 0 0 1 -2 2 2 2 0 0 1 -2 -2 2 2 0 0 1 2 -2zm5 0a2 2 0 0 1 2 2 2 2 0 0 1 -2 2 2 2 0 0 1 -2 -2 2 2 0 0 1 2 -2z"/>
 <circle fill="currentColor" class="ColorScheme-Highlight" cx="5" cy="17" r="2"/>
</svg>
