<svg xmlns="http://www.w3.org/2000/svg" width="22" height="22" version="1.1">
 <defs>
  <style id="current-color-scheme" type="text/css">
   .ColorScheme-Text { color: #939597; } .ColorScheme-Highlight { color: #1AD6AB; }
  </style>
  <linearGradient id="arrongin" x1="0%" x2="0%" y1="0%" y2="100%">
   <stop offset="0%" style="stop-color:#dd9b44"/>
   <stop offset="100%" style="stop-color:#ad6c16"/>
  </linearGradient>
  <linearGradient id="aurora" x1="0%" x2="0%" y1="0%" y2="100%">
   <stop offset="0%" style="stop-color:#09D4DF"/>
   <stop offset="100%" style="stop-color:#9269F4"/>
  </linearGradient>
  <linearGradient id="cyberneon" x1="0%" x2="0%" y1="0%" y2="100%">
   <stop offset="0" style="stop-color:#0abdc6"/>
   <stop offset="1" style="stop-color:#ea00d9"/>
  </linearGradient>
  <linearGradient id="fitdance" x1="0%" x2="0%" y1="0%" y2="100%">
   <stop offset="0%" style="stop-color:#1AD6AB"/>
   <stop offset="100%" style="stop-color:#329DB6"/>
  </linearGradient>
  <linearGradient id="oomox" x1="0%" x2="0%" y1="0%" y2="100%">
   <stop offset="0%" style="stop-color:#66b7ff"/>
   <stop offset="100%" style="stop-color:#006acc"/>
  </linearGradient>
  <linearGradient id="rainblue" x1="0%" x2="0%" y1="0%" y2="100%">
   <stop offset="0%" style="stop-color:#00F260"/>
   <stop offset="100%" style="stop-color:#0575E6"/>
  </linearGradient>
  <linearGradient id="sunrise" x1="0%" x2="0%" y1="0%" y2="100%">
   <stop offset="0%" style="stop-color:#FF8501"/>
   <stop offset="100%" style="stop-color:#FFCB01"/>
  </linearGradient>
  <linearGradient id="telinkrin" x1="0%" x2="0%" y1="0%" y2="100%">
   <stop offset="0%" style="stop-color:#b2ced6"/>
   <stop offset="100%" style="stop-color:#6da5b7"/>
  </linearGradient>
  <linearGradient id="60spsycho" x1="0%" x2="0%" y1="0%" y2="100%">
   <stop offset="0%" style="stop-color:#df5940"/>
   <stop offset="25%" style="stop-color:#d8d15f"/>
   <stop offset="50%" style="stop-color:#e9882a"/>
   <stop offset="100%" style="stop-color:#279362"/>
  </linearGradient>
  <linearGradient id="90ssummer" x1="0%" x2="0%" y1="0%" y2="100%">
   <stop offset="0%" style="stop-color:#f618c7"/>
   <stop offset="20%" style="stop-color:#94ffab"/>
   <stop offset="50%" style="stop-color:#fbfd54"/>
   <stop offset="100%" style="stop-color:#0f83ae"/>
  </linearGradient>
 </defs>
 <path fill="url(#oomox)" class="ColorScheme-Text" d="M 10.601562 3.0019531 C 8.4833395 3.0371311 6.8325133 3.8238158 5.2695312 5.375 C 3.5801833 7.0515966 2.9718666 8.5913307 2.9785156 11.169922 C 2.9816066 12.379824 3.1109522 13.297493 3.3847656 14.066406 A 3 3 0 0 1 4 14 A 3 3 0 0 1 7 17 A 3 3 0 0 1 6.8144531 18.025391 L 6.8515625 18.042969 C 7.3806955 18.289614 8.3867256 18.617015 9.0878906 18.769531 C 10.03321 18.975158 10.338029 19.031078 11.414062 18.986328 C 13.67654 18.892248 15.208577 18.258444 16.654297 16.818359 C 18.111381 15.366954 18.839188 13.62156 18.980469 11.242188 C 19.233399 6.9824861 16.956592 3.9828678 12.888672 3.2167969 C 12.06498 3.0616791 11.307637 2.9902273 10.601562 3.0019531 z M 8.5351562 6 C 8.8008523 6 9.2765905 6.5671789 9.6328125 7.3066406 C 10.02104 8.1125546 10.017088 8.3566047 9.6152344 8.6210938 C 9.0840144 8.9707318 8.6464844 9.4440728 8.6464844 9.6679688 C 8.6464844 9.7835767 8.9823111 10.230266 9.3925781 10.660156 C 10.063192 11.362844 10.172454 11.549712 10.478516 12.519531 C 10.669644 13.125156 10.910315 13.655226 11.027344 13.728516 C 11.192279 13.831808 11.398191 13.771056 12.009766 13.433594 L 12.255859 13.296875 C 12.740589 13.029407 12.79398 12.931906 13.126953 13.433594 C 13.31656 13.668172 13.611263 14.154174 13.78125 14.513672 C 14.149859 15.293221 14.085838 15.47173 13.332031 15.773438 C 11.651027 16.446247 10.697147 15.724018 8.7050781 12.275391 C 7.0356761 9.3853564 6.7122131 8.2880673 7.2207031 7.2539062 C 7.4865161 6.7132951 8.2345442 6 8.5351562 6 z"/>
 <circle fill="currentColor" class="ColorScheme-Highlight" cx="4" cy="17" r="2"/>
</svg>
