<svg xmlns="http://www.w3.org/2000/svg" width="256" height="256" version="1.1">
 <defs>
  <linearGradient id="b" x1=".517" x2=".517" y2="1">
   <stop offset="0%" stop-color="#fff"/>
   <stop offset="12.5%" stop-color="#fff" stop-opacity=".098"/>
   <stop offset="92.5%" stop-opacity=".098"/>
   <stop offset="100%" stop-opacity=".498"/>
  </linearGradient>
 </defs>
 <path fill="#f7f7f7" d="M165.689 11.95c74.056 0 84.639 10.557 84.639 84.544v59.251c0 73.986-10.583 84.543-84.639 84.543h-75.37c-74.055 0-84.639-10.557-84.639-84.543V96.494c0-73.987 10.584-84.544 84.639-84.544h75.37z" filter="url(#a)"/>
 <path fill="none" opacity=".4" stroke="url(#b)" stroke-linecap="round" stroke-linejoin="round" stroke-width="4.077" d="M165.685 11.947c74.055 0 84.639 10.557 84.639 84.544v59.251c0 73.986-10.584 84.543-84.639 84.543h-75.37c-74.055 0-84.639-10.557-84.639-84.543V96.491c0-73.987 10.584-84.544 84.639-84.544h75.37z" vector-effect="non-scaling-stroke"/>
 <path fill="#ffcc4d" d="M200.4 128c0 39.543-32.057 71.6-71.6 71.6-39.539 0-71.6-32.057-71.6-71.6 0-39.539 32.061-71.6 71.6-71.6 39.543 0 71.6 32.061 71.6 71.6z"/>
 <path fill="#664500" d="M170.396 127.193c-.239-.537-5.963-13.115-17.729-13.115-11.763 0-17.491 12.578-17.729 13.115a1.979 1.979 0 0 0 .576 2.35 2 2 0 0 0 2.427.056c.048-.036 5.02-3.588 14.726-3.588 9.65 0 14.614 3.505 14.725 3.584.35.263.772.394 1.186.394a1.99 1.99 0 0 0 1.818-2.796zm-47.734 0c-.238-.537-5.962-13.115-17.729-13.115-11.762 0-17.49 12.578-17.729 13.115a1.983 1.983 0 0 0 .573 2.35 2 2 0 0 0 2.427.056c.051-.036 5.02-3.588 14.729-3.588 9.65 0 14.615 3.505 14.726 3.584.35.263.772.394 1.185.394a1.99 1.99 0 0 0 1.818-2.796zm6.138 16.718c-14.411 0-23.974-1.679-35.8-3.978-2.701-.521-7.956 0-7.956 7.956 0 15.911 18.278 35.8 43.756 35.8 25.474 0 43.756-19.889 43.756-35.8 0-7.956-5.255-8.481-7.956-7.956-11.826 2.299-21.389 3.978-35.8 3.978z"/>
 <path fill="#fff" d="M93 147.889c-.834 6.483 70.776 6.493 71.6 0-.171 20.915-65.511 26.911-71.6 0z"/>
 <path fill="#5dadec" d="M196.422 100.156c0 10.986-8.902 19.888-19.889 19.888-10.986 0-19.889-8.902-19.889-19.888 0-10.987 15.912-39.778 19.889-39.778 3.978 0 19.889 28.791 19.889 39.778z"/>
</svg>
