<svg xmlns="http://www.w3.org/2000/svg" width="16" height="16" version="1.1">
 <defs>
   <style id="current-color-scheme" type="text/css">
   .ColorScheme-Text { color: #d3dae3; } .ColorScheme-Highlight { color:#5294e2; }
  </style>
  <linearGradient id="arrongin" x1="0%" x2="0%" y1="0%" y2="100%">
   <stop offset="0%" style="stop-color:#dd9b44; stop-opacity:1"/>
   <stop offset="100%" style="stop-color:#ad6c16; stop-opacity:1"/>
  </linearGradient>
  <linearGradient id="aurora" x1="0%" x2="0%" y1="0%" y2="100%">
   <stop offset="0%" style="stop-color:#09D4DF; stop-opacity:1"/>
   <stop offset="100%" style="stop-color:#9269F4; stop-opacity:1"/>
  </linearGradient>
  <linearGradient id="cyberneon" x1="0%" x2="0%" y1="0%" y2="100%">
    <stop offset="0" style="stop-color:#0abdc6; stop-opacity:1"/>
    <stop offset="1" style="stop-color:#ea00d9; stop-opacity:1"/>
  </linearGradient>
  <linearGradient id="fitdance" x1="0%" x2="0%" y1="0%" y2="100%">
   <stop offset="0%" style="stop-color:#1AD6AB; stop-opacity:1"/>
   <stop offset="100%" style="stop-color:#329DB6; stop-opacity:1"/>
  </linearGradient>
  <linearGradient id="oomox" x1="0%" x2="0%" y1="0%" y2="100%">
   <stop offset="0%" style="stop-color:#a4d8d4; stop-opacity:1"/>
   <stop offset="100%" style="stop-color:#318c85; stop-opacity:1"/>
  </linearGradient>
  <linearGradient id="rainblue" x1="0%" x2="0%" y1="0%" y2="100%">
   <stop offset="0%" style="stop-color:#00F260; stop-opacity:1"/>
   <stop offset="100%" style="stop-color:#0575E6; stop-opacity:1"/>
  </linearGradient>
  <linearGradient id="sunrise" x1="0%" x2="0%" y1="0%" y2="100%">
   <stop offset="0%" style="stop-color: #FF8501; stop-opacity:1"/>
   <stop offset="100%" style="stop-color: #FFCB01; stop-opacity:1"/>
  </linearGradient>
  <linearGradient id="telinkrin" x1="0%" x2="0%" y1="0%" y2="100%">
   <stop offset="0%" style="stop-color: #b2ced6; stop-opacity:1"/>
   <stop offset="100%" style="stop-color: #6da5b7; stop-opacity:1"/>
  </linearGradient>
  <linearGradient id="60spsycho" x1="0%" x2="0%" y1="0%" y2="100%">
   <stop offset="0%" style="stop-color: #df5940; stop-opacity:1"/>
   <stop offset="25%" style="stop-color: #d8d15f; stop-opacity:1"/>
   <stop offset="50%" style="stop-color: #e9882a; stop-opacity:1"/>
   <stop offset="100%" style="stop-color: #279362; stop-opacity:1"/>
  </linearGradient>
  <linearGradient id="90ssummer" x1="0%" x2="0%" y1="0%" y2="100%">
   <stop offset="0%" style="stop-color: #f618c7; stop-opacity:1"/>
   <stop offset="20%" style="stop-color: #94ffab; stop-opacity:1"/>
   <stop offset="50%" style="stop-color: #fbfd54; stop-opacity:1"/>
   <stop offset="100%" style="stop-color: #0f83ae; stop-opacity:1"/>
  </linearGradient>
 </defs>
 <path fill="url(#oomox)" class="ColorScheme-Text" d="M 0 11.2 L 0 13.6 L 1.6 13.6 L 1.6 15.2 C 1.6 15.641828 1.958172 16 2.4 16 C 2.841828 16 3.2 15.641828 3.2 15.2 L 3.2 13.6 L 12.8 13.6 L 12.8 15.2 C 12.8 15.641828 13.158172 16 13.6 16 C 14.041828 16 14.4 15.641828 14.4 15.2 L 14.4 13.6 L 16 13.6 L 16 11.2 L 0 11.2 Z"/>
 <path fill="url(#oomox)" class="ColorScheme-Text" d="M 0.80078125 0 L 0.80078125 1.5996094 L 4 1.5996094 L 4 0 L 0.80078125 0 z M 0.80078125 2.4003906 L 0.80078125 8 L 4 8 L 4 2.4003906 L 0.80078125 2.4003906 z M 0.80078125 8.8007812 L 0.80078125 10.400391 L 4 10.400391 L 4 8.8007812 L 0.80078125 8.8007812 z"/>
 <path fill="url(#oomox)" class="ColorScheme-Text" d="M 4.859375 0 L 4.859375 1.5996094 L 8.0605469 1.5996094 L 8.0605469 0 L 4.859375 0 z M 4.859375 2.4003906 L 4.859375 8 L 8.0605469 8 L 8.0605469 2.4003906 L 4.859375 2.4003906 z M 4.8007812 8.8007812 L 4.8007812 10.400391 L 8 10.400391 L 8 8.8007812 L 4.8007812 8.8007812 z"/>
 <path fill="url(#oomox)" class="ColorScheme-Text" d="M 8.8007812 3.1992188 L 8.8007812 4 L 11.199219 4 L 11.199219 3.1992188 L 8.8007812 3.1992188 z M 8.8007812 4.8007812 L 8.8007812 8.8007812 L 11.199219 8.8007812 L 11.199219 4.8007812 L 8.8007812 4.8007812 z M 8.8007812 9.5996094 L 8.8007812 10.400391 L 11.199219 10.400391 L 11.199219 9.5996094 L 8.8007812 9.5996094 z"/>
 <path fill="url(#oomox)" class="ColorScheme-Text" d="M 14.345703 2.8515625 L 12.001953 3.3671875 L 12.173828 4.1484375 L 14.517578 3.6328125 L 14.345703 2.8515625 z M 14.683594 4.4199219 L 12.339844 4.9355469 L 13.197266 8.8417969 L 15.542969 8.3261719 L 14.683594 4.4199219 z M 15.716797 9.1015625 L 13.371094 9.6171875 L 13.542969 10.398438 L 15.886719 9.8828125 L 15.716797 9.1015625 z"/>
</svg>