<svg xmlns="http://www.w3.org/2000/svg" width="16" height="16" version="1.1">
 <defs>
   <style id="current-color-scheme" type="text/css">
   .ColorScheme-Text { color: #d3dae3; } .ColorScheme-Highlight { color:#5294e2; }
  </style>
  <linearGradient id="arrongin" x1="0%" x2="0%" y1="0%" y2="100%">
   <stop offset="0%" style="stop-color:#dd9b44; stop-opacity:1"/>
   <stop offset="100%" style="stop-color:#ad6c16; stop-opacity:1"/>
  </linearGradient>
  <linearGradient id="aurora" x1="0%" x2="0%" y1="0%" y2="100%">
   <stop offset="0%" style="stop-color:#09D4DF; stop-opacity:1"/>
   <stop offset="100%" style="stop-color:#9269F4; stop-opacity:1"/>
  </linearGradient>
  <linearGradient id="cyberneon" x1="0%" x2="0%" y1="0%" y2="100%">
    <stop offset="0" style="stop-color:#0abdc6; stop-opacity:1"/>
    <stop offset="1" style="stop-color:#ea00d9; stop-opacity:1"/>
  </linearGradient>
  <linearGradient id="fitdance" x1="0%" x2="0%" y1="0%" y2="100%">
   <stop offset="0%" style="stop-color:#1AD6AB; stop-opacity:1"/>
   <stop offset="100%" style="stop-color:#329DB6; stop-opacity:1"/>
  </linearGradient>
  <linearGradient id="oomox" x1="0%" x2="0%" y1="0%" y2="100%">
   <stop offset="0%" style="stop-color:#a4d8d4; stop-opacity:1"/>
   <stop offset="100%" style="stop-color:#318c85; stop-opacity:1"/>
  </linearGradient>
  <linearGradient id="rainblue" x1="0%" x2="0%" y1="0%" y2="100%">
   <stop offset="0%" style="stop-color:#00F260; stop-opacity:1"/>
   <stop offset="100%" style="stop-color:#0575E6; stop-opacity:1"/>
  </linearGradient>
  <linearGradient id="sunrise" x1="0%" x2="0%" y1="0%" y2="100%">
   <stop offset="0%" style="stop-color: #FF8501; stop-opacity:1"/>
   <stop offset="100%" style="stop-color: #FFCB01; stop-opacity:1"/>
  </linearGradient>
  <linearGradient id="telinkrin" x1="0%" x2="0%" y1="0%" y2="100%">
   <stop offset="0%" style="stop-color: #b2ced6; stop-opacity:1"/>
   <stop offset="100%" style="stop-color: #6da5b7; stop-opacity:1"/>
  </linearGradient>
  <linearGradient id="60spsycho" x1="0%" x2="0%" y1="0%" y2="100%">
   <stop offset="0%" style="stop-color: #df5940; stop-opacity:1"/>
   <stop offset="25%" style="stop-color: #d8d15f; stop-opacity:1"/>
   <stop offset="50%" style="stop-color: #e9882a; stop-opacity:1"/>
   <stop offset="100%" style="stop-color: #279362; stop-opacity:1"/>
  </linearGradient>
  <linearGradient id="90ssummer" x1="0%" x2="0%" y1="0%" y2="100%">
   <stop offset="0%" style="stop-color: #f618c7; stop-opacity:1"/>
   <stop offset="20%" style="stop-color: #94ffab; stop-opacity:1"/>
   <stop offset="50%" style="stop-color: #fbfd54; stop-opacity:1"/>
   <stop offset="100%" style="stop-color: #0f83ae; stop-opacity:1"/>
  </linearGradient>
 </defs>
 <path fill="url(#oomox)" class="ColorScheme-Text" d="M 4.1132812 0 L 4.1132812 1.3710938 L 4.5722656 1.3710938 L 4.5722656 2.2851562 L 3.6582031 2.2851562 L 3.6582031 3.6640625 L 4.5722656 3.6640625 L 4.5722656 7.7695312 L 1.3691406 7.7695312 L 1.3691406 8.2265625 L 4.5722656 8.2265625 L 4.5722656 11.878906 L 3.6582031 11.878906 L 3.6582031 13.257812 L 4.5722656 13.257812 L 4.5722656 14.167969 L 5.0292969 14.167969 L 5.0292969 13.257812 L 9.1445312 13.257812 C 12.183629 13.257812 14.630859 10.810558 14.630859 7.7714844 C 14.630859 4.7323704 12.183629 2.2851562 9.1445312 2.2851562 L 5.0292969 2.2851562 L 5.0292969 1.3710938 L 5.484375 1.3710938 L 5.484375 0 L 4.1132812 0 z M 5.0292969 3.6640625 L 9.1445312 3.6640625 C 11.443939 3.6640625 13.251953 5.4720724 13.251953 7.7714844 C 13.251953 10.070897 11.443939 11.878906 9.1445312 11.878906 L 5.0292969 11.878906 L 5.0292969 8.2265625 L 6.4023438 8.2265625 L 5.4863281 10.056641 L 10.058594 10.056641 L 9.1445312 8.2265625 L 10.513672 8.2265625 L 10.513672 7.7695312 L 8.9140625 7.7695312 L 7.7734375 5.4863281 L 6.6308594 7.7695312 L 5.0292969 7.7695312 L 5.0292969 3.6640625 z M 10.515625 7.0859375 L 10.515625 8.9140625 L 12.34375 8 L 10.515625 7.0859375 z M 3.8867188 14.171875 L 4.8007812 16 L 5.7148438 14.171875 L 3.8867188 14.171875 z"/>
</svg>
