<svg xmlns="http://www.w3.org/2000/svg" width="16" height="16" version="1.1">
 <defs>
   <style id="current-color-scheme" type="text/css">
   .ColorScheme-Text { color: #d3dae3; } .ColorScheme-Highlight { color:#5294e2; }
  </style>
  <linearGradient id="arrongin" x1="0%" x2="0%" y1="0%" y2="100%">
   <stop offset="0%" style="stop-color:#dd9b44; stop-opacity:1"/>
   <stop offset="100%" style="stop-color:#ad6c16; stop-opacity:1"/>
  </linearGradient>
  <linearGradient id="aurora" x1="0%" x2="0%" y1="0%" y2="100%">
   <stop offset="0%" style="stop-color:#09D4DF; stop-opacity:1"/>
   <stop offset="100%" style="stop-color:#9269F4; stop-opacity:1"/>
  </linearGradient>
  <linearGradient id="cyberneon" x1="0%" x2="0%" y1="0%" y2="100%">
    <stop offset="0" style="stop-color:#0abdc6; stop-opacity:1"/>
    <stop offset="1" style="stop-color:#ea00d9; stop-opacity:1"/>
  </linearGradient>
  <linearGradient id="fitdance" x1="0%" x2="0%" y1="0%" y2="100%">
   <stop offset="0%" style="stop-color:#1AD6AB; stop-opacity:1"/>
   <stop offset="100%" style="stop-color:#329DB6; stop-opacity:1"/>
  </linearGradient>
  <linearGradient id="oomox" x1="0%" x2="0%" y1="0%" y2="100%">
   <stop offset="0%" style="stop-color:#a4d8d4; stop-opacity:1"/>
   <stop offset="100%" style="stop-color:#318c85; stop-opacity:1"/>
  </linearGradient>
  <linearGradient id="rainblue" x1="0%" x2="0%" y1="0%" y2="100%">
   <stop offset="0%" style="stop-color:#00F260; stop-opacity:1"/>
   <stop offset="100%" style="stop-color:#0575E6; stop-opacity:1"/>
  </linearGradient>
  <linearGradient id="sunrise" x1="0%" x2="0%" y1="0%" y2="100%">
   <stop offset="0%" style="stop-color: #FF8501; stop-opacity:1"/>
   <stop offset="100%" style="stop-color: #FFCB01; stop-opacity:1"/>
  </linearGradient>
  <linearGradient id="telinkrin" x1="0%" x2="0%" y1="0%" y2="100%">
   <stop offset="0%" style="stop-color: #b2ced6; stop-opacity:1"/>
   <stop offset="100%" style="stop-color: #6da5b7; stop-opacity:1"/>
  </linearGradient>
  <linearGradient id="60spsycho" x1="0%" x2="0%" y1="0%" y2="100%">
   <stop offset="0%" style="stop-color: #df5940; stop-opacity:1"/>
   <stop offset="25%" style="stop-color: #d8d15f; stop-opacity:1"/>
   <stop offset="50%" style="stop-color: #e9882a; stop-opacity:1"/>
   <stop offset="100%" style="stop-color: #279362; stop-opacity:1"/>
  </linearGradient>
  <linearGradient id="90ssummer" x1="0%" x2="0%" y1="0%" y2="100%">
   <stop offset="0%" style="stop-color: #f618c7; stop-opacity:1"/>
   <stop offset="20%" style="stop-color: #94ffab; stop-opacity:1"/>
   <stop offset="50%" style="stop-color: #fbfd54; stop-opacity:1"/>
   <stop offset="100%" style="stop-color: #0f83ae; stop-opacity:1"/>
  </linearGradient>
 </defs>
 <path fill="url(#oomox)" class="ColorScheme-Text" d="M 3.99414,0 C 2.73595,0.0165714 1.81531,-0.03268571 1.0625,0.4419657 0.68609,0.6793143 0.38732,1.0790743 0.22266,1.5803543 0.05801,2.0816343 0,2.67704 0,3.4285714 v 9.1428576 c 0,0.751531 0.058,1.346937 0.22266,1.848217 0.16466,0.50128 0.46343,0.903268 0.83984,1.140617 C 1.81531,16.034949 2.73595,15.983383 3.99414,16 h 0.006 8 0.006 c 1.25819,-0.01657 2.17883,0.03497 2.93164,-0.439737 0.37641,-0.237349 0.67518,-0.639337 0.83984,-1.140617 C 15.942,13.918366 16,13.32296 16,12.571429 V 9.142857 5.7142857 c 0,-0.7515314 -0.058,-1.3469371 -0.22266,-1.8482171 -0.0205,-0.0624 -0.0479,-0.1188457 -0.0742,-0.1763315 -0.01,-0.021143 -0.0178,-0.043429 -0.0273,-0.064686 C 15.50314,3.2378971 15.25037,2.9227314 14.93756,2.7254971 14.18469,2.2508114 13.26405,2.3023771 12.00586,2.28576 H 12 8.9668 L 6.94531,4.57e-5 H 3.99609 Z m 0.0117,1.1428571 h 2.5293 L 8.30076,3.1383886 7.0332,4.5714286 H 4 3.994 C 2.73581,4.588 1.81517,4.5364571 1.06236,5.0111657 c -0.0222,0.013943 -0.0409,0.033943 -0.0625,0.049143 V 3.4285714 c 0,-0.67704 0.0626,-1.1493714 0.16016,-1.4464343 C 1.25762,1.6850514 1.36336,1.5576 1.54674,1.4419657 1.91349,1.2107086 2.74218,1.1595314 4.00572,1.1428571 Z m 5.45898,2.2857143 h 2.52735 c 1.26354,0.016686 2.09222,0.067886 2.45898,0.2991086 0.18338,0.1156343 0.28915,0.2430857 0.38672,0.5401714 C 14.93559,4.5649371 15,5.0372457 15,5.7142857 v 3.4285713 3.428572 c 0,0.67704 -0.0627,1.14936 -0.16016,1.446422 -0.0976,0.297086 -0.20332,0.424549 -0.38672,0.540183 C 14.08701,14.788914 13.2599,14.840343 12,14.857143 H 11.994 4 C 2.7401,14.840343 1.913,14.788914 1.54688,14.558034 1.36347,14.4424 1.25773,14.314937 1.16016,14.017851 1.06256,13.720789 1,13.248469 1,12.571429 V 8 C 1,7.32296 1.0644,6.8506514 1.16211,6.5535657 1.25971,6.25648 1.36545,6.1290286 1.54883,6.0133943 1.91559,5.7821714 2.74427,5.7309714 4.00781,5.7142857 h 3.43555 z"/>
</svg>
