<svg xmlns="http://www.w3.org/2000/svg" width="16" height="16" version="1.1">
 <defs>
   <style id="current-color-scheme" type="text/css">
   .ColorScheme-Text { color: #d3dae3; } .ColorScheme-Highlight { color:#5294e2; }
  </style>
  <linearGradient id="arrongin" x1="0%" x2="0%" y1="0%" y2="100%">
   <stop offset="0%" style="stop-color:#dd9b44; stop-opacity:1"/>
   <stop offset="100%" style="stop-color:#ad6c16; stop-opacity:1"/>
  </linearGradient>
  <linearGradient id="aurora" x1="0%" x2="0%" y1="0%" y2="100%">
   <stop offset="0%" style="stop-color:#09D4DF; stop-opacity:1"/>
   <stop offset="100%" style="stop-color:#9269F4; stop-opacity:1"/>
  </linearGradient>
  <linearGradient id="cyberneon" x1="0%" x2="0%" y1="0%" y2="100%">
    <stop offset="0" style="stop-color:#0abdc6; stop-opacity:1"/>
    <stop offset="1" style="stop-color:#ea00d9; stop-opacity:1"/>
  </linearGradient>
  <linearGradient id="fitdance" x1="0%" x2="0%" y1="0%" y2="100%">
   <stop offset="0%" style="stop-color:#1AD6AB; stop-opacity:1"/>
   <stop offset="100%" style="stop-color:#329DB6; stop-opacity:1"/>
  </linearGradient>
  <linearGradient id="oomox" x1="0%" x2="0%" y1="0%" y2="100%">
   <stop offset="0%" style="stop-color:#a4d8d4; stop-opacity:1"/>
   <stop offset="100%" style="stop-color:#318c85; stop-opacity:1"/>
  </linearGradient>
  <linearGradient id="rainblue" x1="0%" x2="0%" y1="0%" y2="100%">
   <stop offset="0%" style="stop-color:#00F260; stop-opacity:1"/>
   <stop offset="100%" style="stop-color:#0575E6; stop-opacity:1"/>
  </linearGradient>
  <linearGradient id="sunrise" x1="0%" x2="0%" y1="0%" y2="100%">
   <stop offset="0%" style="stop-color: #FF8501; stop-opacity:1"/>
   <stop offset="100%" style="stop-color: #FFCB01; stop-opacity:1"/>
  </linearGradient>
  <linearGradient id="telinkrin" x1="0%" x2="0%" y1="0%" y2="100%">
   <stop offset="0%" style="stop-color: #b2ced6; stop-opacity:1"/>
   <stop offset="100%" style="stop-color: #6da5b7; stop-opacity:1"/>
  </linearGradient>
  <linearGradient id="60spsycho" x1="0%" x2="0%" y1="0%" y2="100%">
   <stop offset="0%" style="stop-color: #df5940; stop-opacity:1"/>
   <stop offset="25%" style="stop-color: #d8d15f; stop-opacity:1"/>
   <stop offset="50%" style="stop-color: #e9882a; stop-opacity:1"/>
   <stop offset="100%" style="stop-color: #279362; stop-opacity:1"/>
  </linearGradient>
  <linearGradient id="90ssummer" x1="0%" x2="0%" y1="0%" y2="100%">
   <stop offset="0%" style="stop-color: #f618c7; stop-opacity:1"/>
   <stop offset="20%" style="stop-color: #94ffab; stop-opacity:1"/>
   <stop offset="50%" style="stop-color: #fbfd54; stop-opacity:1"/>
   <stop offset="100%" style="stop-color: #0f83ae; stop-opacity:1"/>
  </linearGradient>
 </defs>
 <path fill="url(#oomox)" class="ColorScheme-Text" d="m 8.1849306,0.00219535 a 8.7533743,8.7533743 0 0 0 -5.8655,2.08177795 0.51619929,0.51619929 0 1 0 0.6688,0.786472 7.7336439,7.7336439 0 0 1 10.2675004,0.218809 0.51605791,0.51605791 0 1 0 0.7019,-0.756541 8.7523422,8.7523422 0 0 0 -5.7716004,-2.33051795 z m -0.1857,2.06010395 a 6.7087529,6.7087529 0 0 0 -6.7088,6.677789 0.51605791,0.51605791 0 0 0 0,0.0258 0.51605791,0.51605791 0 0 0 0,0.0052 0.51605791,0.51605791 0 0 0 0,0.0031 0.51605791,0.51605791 0 0 0 0,0.0031 v 0.01032 a 0.51605791,0.51605791 0 0 0 0,0.02374 c 0,1.3252367 0.2446,2.6401517 0.7215,3.8766267 a 0.51608088,0.51608088 0 1 0 0.9629,-0.371562 9.7534946,9.7534946 0 0 1 -0.6533,-3.5360277 0.51605791,0.51605791 0 0 0 0,-0.0093 5.6766371,5.6766371 0 0 1 5.6766,-5.676638 5.6766371,5.6766371 0 0 1 5.6767004,5.676638 1.5481737,1.5481737 0 0 1 -1.5482,1.5481727 1.5481737,1.5481737 0 0 1 -1.5482,-1.5481727 2.5802896,2.5802896 0 0 0 -2.5803004,-2.58029 2.5802896,2.5802896 0 0 0 -2.5792,2.549326 2.5802896,2.5802896 0 0 0 0,0.03096 0.51605791,0.51605791 0 0 0 0,0.0062 c -0.01,3.6702037 2.958,6.6705647 6.6303004,6.7025597 a 0.51608372,0.51608372 0 1 0 0.01,-1.032115 5.6467057,5.6467057 0 0 1 -5.6065004,-5.6673477 0.51605791,0.51605791 0 0 0 0,-0.0093 1.5481737,1.5481737 0 0 1 1.5482,-1.548174 1.5481737,1.5481737 0 0 1 1.5482,1.548174 2.5802896,2.5802896 0 0 0 2.5803004,2.5802887 2.5802896,2.5802896 0 0 0 2.5803,-2.5802887 6.7087529,6.7087529 0 0 0 -6.7088004,-6.708753 z m 0,2.064231 a 4.6445212,4.6445212 0 0 0 -4.6446,4.612526 0.51605791,0.51605791 0 0 0 0,0.01342 4.6445212,4.6445212 0 0 0 0,0.01858 0.51605791,0.51605791 0 0 0 0,0.0062 8.7347963,8.7347963 0 0 0 3.6424,7.1215987 0.51605791,0.51605791 0 0 0 0.3395,0.100116 0.51605791,0.51605791 0 0 0 0.052,-0.0062 0.51605791,0.51605791 0 0 0 0.2106,-0.932001 7.7047447,7.7047447 0 0 1 -3.2119,-6.2804237 0.51605791,0.51605791 0 0 0 0,-0.01032 3.6124054,3.6124054 0 0 1 3.6124,-3.612405 3.6124054,3.6124054 0 0 1 3.6124004,3.612405 0.51605791,0.51605791 0 0 0 0.516,0.516058 0.51605791,0.51605791 0 0 0 0.5161,-0.516058 0.51605791,0.51605791 0 0 0 0,-0.04748 4.6445212,4.6445212 0 0 0 -4.6425004,-4.596012 z m -0.01,4.108853 a 0.51605791,0.51605791 0 0 0 -0.5109,0.522251 v 0.0072 a 0.51605791,0.51605791 0 0 0 0,0.0062 0.51605791,0.51605791 0 0 0 0,0.0547 4.6507139,4.6507139 0 0 0 4.6002004,4.5898187 0.51608372,0.51608372 0 1 0 0.01,-1.032116 3.6041485,3.6041485 0 0 1 -3.5804004,-3.6124047 0.51605791,0.51605791 0 0 0 0,-0.01032 0.51605791,0.51605791 0 0 0 -0.5212,-0.524314 z"/>
</svg>
