<svg xmlns="http://www.w3.org/2000/svg" width="16" height="16" version="1.1">
 <defs>
   <style id="current-color-scheme" type="text/css">
   .ColorScheme-Text { color: #d3dae3; } .ColorScheme-Highlight { color:#5294e2; }
  </style>
  <linearGradient id="arrongin" x1="0%" x2="0%" y1="0%" y2="100%">
   <stop offset="0%" style="stop-color:#dd9b44; stop-opacity:1"/>
   <stop offset="100%" style="stop-color:#ad6c16; stop-opacity:1"/>
  </linearGradient>
  <linearGradient id="aurora" x1="0%" x2="0%" y1="0%" y2="100%">
   <stop offset="0%" style="stop-color:#09D4DF; stop-opacity:1"/>
   <stop offset="100%" style="stop-color:#9269F4; stop-opacity:1"/>
  </linearGradient>
  <linearGradient id="cyberneon" x1="0%" x2="0%" y1="0%" y2="100%">
    <stop offset="0" style="stop-color:#0abdc6; stop-opacity:1"/>
    <stop offset="1" style="stop-color:#ea00d9; stop-opacity:1"/>
  </linearGradient>
  <linearGradient id="fitdance" x1="0%" x2="0%" y1="0%" y2="100%">
   <stop offset="0%" style="stop-color:#1AD6AB; stop-opacity:1"/>
   <stop offset="100%" style="stop-color:#329DB6; stop-opacity:1"/>
  </linearGradient>
  <linearGradient id="oomox" x1="0%" x2="0%" y1="0%" y2="100%">
   <stop offset="0%" style="stop-color:#a4d8d4; stop-opacity:1"/>
   <stop offset="100%" style="stop-color:#318c85; stop-opacity:1"/>
  </linearGradient>
  <linearGradient id="rainblue" x1="0%" x2="0%" y1="0%" y2="100%">
   <stop offset="0%" style="stop-color:#00F260; stop-opacity:1"/>
   <stop offset="100%" style="stop-color:#0575E6; stop-opacity:1"/>
  </linearGradient>
  <linearGradient id="sunrise" x1="0%" x2="0%" y1="0%" y2="100%">
   <stop offset="0%" style="stop-color: #FF8501; stop-opacity:1"/>
   <stop offset="100%" style="stop-color: #FFCB01; stop-opacity:1"/>
  </linearGradient>
  <linearGradient id="telinkrin" x1="0%" x2="0%" y1="0%" y2="100%">
   <stop offset="0%" style="stop-color: #b2ced6; stop-opacity:1"/>
   <stop offset="100%" style="stop-color: #6da5b7; stop-opacity:1"/>
  </linearGradient>
  <linearGradient id="60spsycho" x1="0%" x2="0%" y1="0%" y2="100%">
   <stop offset="0%" style="stop-color: #df5940; stop-opacity:1"/>
   <stop offset="25%" style="stop-color: #d8d15f; stop-opacity:1"/>
   <stop offset="50%" style="stop-color: #e9882a; stop-opacity:1"/>
   <stop offset="100%" style="stop-color: #279362; stop-opacity:1"/>
  </linearGradient>
  <linearGradient id="90ssummer" x1="0%" x2="0%" y1="0%" y2="100%">
   <stop offset="0%" style="stop-color: #f618c7; stop-opacity:1"/>
   <stop offset="20%" style="stop-color: #94ffab; stop-opacity:1"/>
   <stop offset="50%" style="stop-color: #fbfd54; stop-opacity:1"/>
   <stop offset="100%" style="stop-color: #0f83ae; stop-opacity:1"/>
  </linearGradient>
 </defs>
 <path fill="url(#oomox)" class="ColorScheme-Text" d="M 1.2858539,15.94631 C 0.97502787,15.85901 0.76811887,15.73423 0.51605987,15.48205 0.16141887,15.12725 -1.2636276e-7,14.74863 -1.2636276e-7,14.27161 -1.2636276e-7,13.67578 0.38117287,13.05256 0.91408287,12.77707 l 0.22863403,-0.11819 1.32e-4,-4.6628203 1.32e-4,-4.66282 -0.18752003,-0.084 c -0.249495,-0.11172 -0.661257,-0.52504 -0.78286,-0.78583 -0.462547,-0.992 0.07417,-2.13373998 1.13260003,-2.40936998 0.737975,-0.19217 1.564044,0.17822 1.916233,0.85922 l 0.118218,0.22857998 h 4.66122 4.6612211 l 0.118218,-0.22857998 c 0.212592,-0.41107 0.631343,-0.73778 1.103104,-0.86063 1.216856,-0.31688 2.381201,0.85108 2.063635,2.07003998 -0.122299,0.46944 -0.506396,0.94834 -0.908543,1.13279 l -0.179747,0.0824 1.4e-4,4.66047 1.39e-4,4.6604703 0.228634,0.11819 c 0.133616,0.0691 0.309966,0.20345 0.424335,0.32332 0.673601,0.70606 0.645228,1.76469 -0.0651,2.42903 -0.538618,0.50375 -1.240537,0.60862 -1.92756,0.28798 C 13.28184,15.70648 12.86017,15.2833 12.748724,15.04396 l -0.08661,-0.18602 h -4.6612181 -4.66122 l -0.08661,0.18602 c -0.108595,0.23323 -0.531707,0.66196 -0.761905,0.77202 -0.37208,0.1779 -0.851231,0.22968 -1.205276,0.13025 z m 11.4841191,-2.44975 0.103158,-0.21579 -0.712729,-0.71103 -0.712729,-0.71103 -0.21431,0.0736 c -0.26381,0.0906 -0.598475,0.0769 -0.850875,-0.0347 -0.0941,-0.0416 -0.257885,-0.16455 -0.363978,-0.2732 L 9.8256149,11.42688 h -1.824746 -1.824746 l -0.192895,0.19753 c -0.106093,0.10865 -0.269882,0.23158 -0.363976,0.2732 -0.252401,0.11162 -0.587066,0.12527 -0.850878,0.0347 l -0.214308,-0.0736 -0.712729,0.71103 -0.712729,0.71103 0.103158,0.21579 0.103158,0.21579 h 4.665945 4.6659451 z M 4.0663879,11.23045 c -0.150504,-0.43819 -0.03632,-0.87837 0.316066,-1.21849 l 0.189472,-0.1828803 v -1.83046 -1.83046 l -0.189472,-0.18288 c -0.352388,-0.34012 -0.466569,-0.7803 -0.316067,-1.21849 l 0.0736,-0.21426 -0.709763,-0.71117 -0.709762,-0.71117 -0.216777,0.10409 -0.216776,0.10408 -3.68e-4,4.66026 -3.69e-4,4.6602603 0.205278,0.10975 0.205278,0.10976 0.721629,-0.71684 0.721631,-0.71684 z m 9.6490991,-3.2330603 2.89e-4,-4.66147 -0.217048,-0.10307 -0.21705,-0.10305 -0.709959,0.71136 -0.709961,0.71137 0.0736,0.21426 c 0.150501,0.43819 0.03632,0.87837 -0.316068,1.21849 l -0.189471,0.18288 v 1.83046 1.83046 L 11.61929,10.01196 c 0.352339,0.34007 0.46653,0.78019 0.316142,1.21849 l -0.07352,0.21426 0.715291,0.7172 0.71529,0.7172 0.211356,-0.11011 0.211356,-0.11012 2.89e-4,-4.6614903 z M 9.9402719,10.17961 c 0.03396,-0.0575 0.1258251,-0.15524 0.2041501,-0.2172603 l 0.14241,-0.11277 v -1.83846 -1.83847 l -0.233228,-0.22976 -0.2332301,-0.22976 h -1.819505 -1.819506 l -0.233228,0.22976 -0.233228,0.22976 v 1.83847 1.83846 l 0.142409,0.11277 c 0.07833,0.062 0.170193,0.1597903 0.204152,0.2172603 l 0.06174,0.1045 h 1.877661 1.87766 z m 0.01471,-5.7319403 c 0.1595771,-0.24636 0.5678481,-0.44866 0.9054751,-0.44866 0.09803,0 0.270003,0.0323 0.382164,0.0717 l 0.20393,0.0717 0.720029,-0.71924 0.72003,-0.71923 -0.103333,-0.16291 c -0.05683,-0.0896 -0.103334,-0.18387 -0.103334,-0.20948 0,-0.0381 -0.855884,-0.0466 -4.6790801,-0.0466 -3.823196,0 -4.67908,0.009 -4.67908,0.0466 0,0.0256 -0.0465,0.11988 -0.103333,0.20948 l -0.103333,0.16291 0.720031,0.71923 0.720028,0.71924 0.20393,-0.0717 c 0.112161,-0.0394 0.284134,-0.0717 0.382163,-0.0717 0.337628,0 0.745899,0.2023 0.905476,0.44866 l 0.07892,0.12183 h 1.875203 1.875204 z"/>
</svg>
