<svg xmlns="http://www.w3.org/2000/svg" width="16" height="16" version="1.1">
 <defs>
   <style id="current-color-scheme" type="text/css">
   .ColorScheme-Text { color: #d3dae3; } .ColorScheme-Highlight { color:#5294e2; }
  </style>
  <linearGradient id="arrongin" x1="0%" x2="0%" y1="0%" y2="100%">
   <stop offset="0%" style="stop-color:#dd9b44; stop-opacity:1"/>
   <stop offset="100%" style="stop-color:#ad6c16; stop-opacity:1"/>
  </linearGradient>
  <linearGradient id="aurora" x1="0%" x2="0%" y1="0%" y2="100%">
   <stop offset="0%" style="stop-color:#09D4DF; stop-opacity:1"/>
   <stop offset="100%" style="stop-color:#9269F4; stop-opacity:1"/>
  </linearGradient>
  <linearGradient id="cyberneon" x1="0%" x2="0%" y1="0%" y2="100%">
    <stop offset="0" style="stop-color:#0abdc6; stop-opacity:1"/>
    <stop offset="1" style="stop-color:#ea00d9; stop-opacity:1"/>
  </linearGradient>
  <linearGradient id="fitdance" x1="0%" x2="0%" y1="0%" y2="100%">
   <stop offset="0%" style="stop-color:#1AD6AB; stop-opacity:1"/>
   <stop offset="100%" style="stop-color:#329DB6; stop-opacity:1"/>
  </linearGradient>
  <linearGradient id="oomox" x1="0%" x2="0%" y1="0%" y2="100%">
   <stop offset="0%" style="stop-color:#a4d8d4; stop-opacity:1"/>
   <stop offset="100%" style="stop-color:#318c85; stop-opacity:1"/>
  </linearGradient>
  <linearGradient id="rainblue" x1="0%" x2="0%" y1="0%" y2="100%">
   <stop offset="0%" style="stop-color:#00F260; stop-opacity:1"/>
   <stop offset="100%" style="stop-color:#0575E6; stop-opacity:1"/>
  </linearGradient>
  <linearGradient id="sunrise" x1="0%" x2="0%" y1="0%" y2="100%">
   <stop offset="0%" style="stop-color: #FF8501; stop-opacity:1"/>
   <stop offset="100%" style="stop-color: #FFCB01; stop-opacity:1"/>
  </linearGradient>
  <linearGradient id="telinkrin" x1="0%" x2="0%" y1="0%" y2="100%">
   <stop offset="0%" style="stop-color: #b2ced6; stop-opacity:1"/>
   <stop offset="100%" style="stop-color: #6da5b7; stop-opacity:1"/>
  </linearGradient>
  <linearGradient id="60spsycho" x1="0%" x2="0%" y1="0%" y2="100%">
   <stop offset="0%" style="stop-color: #df5940; stop-opacity:1"/>
   <stop offset="25%" style="stop-color: #d8d15f; stop-opacity:1"/>
   <stop offset="50%" style="stop-color: #e9882a; stop-opacity:1"/>
   <stop offset="100%" style="stop-color: #279362; stop-opacity:1"/>
  </linearGradient>
  <linearGradient id="90ssummer" x1="0%" x2="0%" y1="0%" y2="100%">
   <stop offset="0%" style="stop-color: #f618c7; stop-opacity:1"/>
   <stop offset="20%" style="stop-color: #94ffab; stop-opacity:1"/>
   <stop offset="50%" style="stop-color: #fbfd54; stop-opacity:1"/>
   <stop offset="100%" style="stop-color: #0f83ae; stop-opacity:1"/>
  </linearGradient>
 </defs>
 <path fill="url(#oomox)" class="ColorScheme-Text" d="M 8 0 C 3.5882665 0 0 3.5882666 0 8 C 0 12.411734 3.5882665 16 8 16 C 12.411734 16 16 12.411734 16 8 C 16 3.5882666 12.411734 1.1842379e-15 8 0 z M 6.6875 1.1933594 C 5.0686447 3.1616409 4.1721123 5.3613366 4.0507812 7.4667969 L 1.09375 7.4667969 C 1.3321943 4.3225411 3.65275 1.773134 6.6875 1.1933594 z M 9.3125 1.1933594 C 12.34725 1.773134 14.667806 4.3225411 14.90625 7.4667969 L 11.951172 7.4667969 C 11.830271 5.3608551 10.931343 3.1607972 9.3125 1.1933594 z M 8 1.3203125 C 9.7840671 3.2578385 10.750797 5.4502222 10.884766 7.4667969 L 5.1152344 7.4667969 C 5.2495069 5.4496365 6.216838 3.257623 8 1.3203125 z M 1.0878906 8.5332031 L 4.0527344 8.5332031 C 4.1895172 10.659595 5.0588757 12.832909 6.6894531 14.810547 A 6.9248002 6.9248002 0 0 1 1.0878906 8.5332031 z M 5.1210938 8.5332031 L 10.878906 8.5332031 C 10.730728 10.586499 9.8026546 12.726918 8 14.679688 C 6.1967753 12.726304 5.268827 10.586288 5.1210938 8.5332031 z M 11.947266 8.5332031 L 14.90625 8.5332031 C 14.667855 11.676807 12.348279 14.226168 9.3144531 14.806641 C 10.942601 12.829852 11.810699 10.657628 11.947266 8.5332031 z"/>
</svg>
