<svg xmlns="http://www.w3.org/2000/svg" width="16" height="16" version="1.1">
 <defs>
   <style id="current-color-scheme" type="text/css">
   .ColorScheme-Text { color: #d3dae3; } .ColorScheme-Highlight { color:#5294e2; }
  </style>
  <linearGradient id="arrongin" x1="0%" x2="0%" y1="0%" y2="100%">
   <stop offset="0%" style="stop-color:#dd9b44; stop-opacity:1"/>
   <stop offset="100%" style="stop-color:#ad6c16; stop-opacity:1"/>
  </linearGradient>
  <linearGradient id="aurora" x1="0%" x2="0%" y1="0%" y2="100%">
   <stop offset="0%" style="stop-color:#09D4DF; stop-opacity:1"/>
   <stop offset="100%" style="stop-color:#9269F4; stop-opacity:1"/>
  </linearGradient>
  <linearGradient id="cyberneon" x1="0%" x2="0%" y1="0%" y2="100%">
    <stop offset="0" style="stop-color:#0abdc6; stop-opacity:1"/>
    <stop offset="1" style="stop-color:#ea00d9; stop-opacity:1"/>
  </linearGradient>
  <linearGradient id="fitdance" x1="0%" x2="0%" y1="0%" y2="100%">
   <stop offset="0%" style="stop-color:#1AD6AB; stop-opacity:1"/>
   <stop offset="100%" style="stop-color:#329DB6; stop-opacity:1"/>
  </linearGradient>
  <linearGradient id="oomox" x1="0%" x2="0%" y1="0%" y2="100%">
   <stop offset="0%" style="stop-color:#a4d8d4; stop-opacity:1"/>
   <stop offset="100%" style="stop-color:#318c85; stop-opacity:1"/>
  </linearGradient>
  <linearGradient id="rainblue" x1="0%" x2="0%" y1="0%" y2="100%">
   <stop offset="0%" style="stop-color:#00F260; stop-opacity:1"/>
   <stop offset="100%" style="stop-color:#0575E6; stop-opacity:1"/>
  </linearGradient>
  <linearGradient id="sunrise" x1="0%" x2="0%" y1="0%" y2="100%">
   <stop offset="0%" style="stop-color: #FF8501; stop-opacity:1"/>
   <stop offset="100%" style="stop-color: #FFCB01; stop-opacity:1"/>
  </linearGradient>
  <linearGradient id="telinkrin" x1="0%" x2="0%" y1="0%" y2="100%">
   <stop offset="0%" style="stop-color: #b2ced6; stop-opacity:1"/>
   <stop offset="100%" style="stop-color: #6da5b7; stop-opacity:1"/>
  </linearGradient>
  <linearGradient id="60spsycho" x1="0%" x2="0%" y1="0%" y2="100%">
   <stop offset="0%" style="stop-color: #df5940; stop-opacity:1"/>
   <stop offset="25%" style="stop-color: #d8d15f; stop-opacity:1"/>
   <stop offset="50%" style="stop-color: #e9882a; stop-opacity:1"/>
   <stop offset="100%" style="stop-color: #279362; stop-opacity:1"/>
  </linearGradient>
  <linearGradient id="90ssummer" x1="0%" x2="0%" y1="0%" y2="100%">
   <stop offset="0%" style="stop-color: #f618c7; stop-opacity:1"/>
   <stop offset="20%" style="stop-color: #94ffab; stop-opacity:1"/>
   <stop offset="50%" style="stop-color: #fbfd54; stop-opacity:1"/>
   <stop offset="100%" style="stop-color: #0f83ae; stop-opacity:1"/>
  </linearGradient>
 </defs>
 <path fill="url(#oomox)" class="ColorScheme-Text" fill-rule="evenodd" d="m 13.985818,0.00314235 c -0.12187,-0.009 -0.26485,0.002 -0.4336,0.0167 L 5.930998,1.2227424 c -0.85983,0.0885 -0.95332,0.49449 -0.94568,1.00033 V 12.401832 c -0.43702,-0.29036 -0.9047,-0.49703 -1.52795,-0.49703 -0.80252,0 -1.28161,0.31113 -1.57133,0.72049 -0.28969,0.40936 -0.38612,0.92516 -0.38612,1.32403 0,0.48098 0.16398,0.99341 0.51621,1.38459 0.35224,0.39119 0.89386,0.66619 1.6725,0.6662 0.87924,0 1.4963,-0.24806 1.84593,-0.73302 0.27528,-0.38184 0.42885,-0.89319 0.48317,-1.52243 0.007,-0.0764 0.0118,-0.15521 0.0165,-0.23599 0.004,-0.0641 0.003,-0.10885 0.004,-0.18378 h 0.004 V 5.0883324 c 0.0233,-0.66227 0.61737,-0.76017 0.61737,-0.76017 l 6.18824,-0.97736 c 0.59406,-0.18369 0.59466,0.55967 0.59466,0.55967 v 7.4221096 c -0.43702,-0.29037 -0.9047,-0.49703 -1.52795,-0.49704 -0.80252,0 -1.28161,0.31113 -1.57133,0.72049 -0.28969,0.40936 -0.38612,0.92517 -0.38612,1.32403 0,0.48098 0.16398,0.99341 0.51621,1.3846 0.35224,0.39119 0.89386,0.66618 1.6725,0.66619 0.87924,0 1.4963,-0.24805 1.84593,-0.73301 0.27528,-0.38184 0.42885,-0.8932 0.48316,-1.52243 0.007,-0.0763 0.0118,-0.15521 0.0165,-0.236 0.004,-0.0641 0.003,-0.10885 0.004,-0.18377 h 0.004 V 0.95542235 c 0.0126,-0.73312 -0.14852,-0.92617 -0.51414,-0.95229 z"/>
</svg>
