<svg xmlns="http://www.w3.org/2000/svg" width="16" height="16" version="1.1">
 <defs>
   <style id="current-color-scheme" type="text/css">
   .ColorScheme-Text { color: #d3dae3; } .ColorScheme-Highlight { color:#5294e2; }
  </style>
  <linearGradient id="arrongin" x1="0%" x2="0%" y1="0%" y2="100%">
   <stop offset="0%" style="stop-color:#dd9b44; stop-opacity:1"/>
   <stop offset="100%" style="stop-color:#ad6c16; stop-opacity:1"/>
  </linearGradient>
  <linearGradient id="aurora" x1="0%" x2="0%" y1="0%" y2="100%">
   <stop offset="0%" style="stop-color:#09D4DF; stop-opacity:1"/>
   <stop offset="100%" style="stop-color:#9269F4; stop-opacity:1"/>
  </linearGradient>
  <linearGradient id="cyberneon" x1="0%" x2="0%" y1="0%" y2="100%">
    <stop offset="0" style="stop-color:#0abdc6; stop-opacity:1"/>
    <stop offset="1" style="stop-color:#ea00d9; stop-opacity:1"/>
  </linearGradient>
  <linearGradient id="fitdance" x1="0%" x2="0%" y1="0%" y2="100%">
   <stop offset="0%" style="stop-color:#1AD6AB; stop-opacity:1"/>
   <stop offset="100%" style="stop-color:#329DB6; stop-opacity:1"/>
  </linearGradient>
  <linearGradient id="oomox" x1="0%" x2="0%" y1="0%" y2="100%">
   <stop offset="0%" style="stop-color:#a4d8d4; stop-opacity:1"/>
   <stop offset="100%" style="stop-color:#318c85; stop-opacity:1"/>
  </linearGradient>
  <linearGradient id="rainblue" x1="0%" x2="0%" y1="0%" y2="100%">
   <stop offset="0%" style="stop-color:#00F260; stop-opacity:1"/>
   <stop offset="100%" style="stop-color:#0575E6; stop-opacity:1"/>
  </linearGradient>
  <linearGradient id="sunrise" x1="0%" x2="0%" y1="0%" y2="100%">
   <stop offset="0%" style="stop-color: #FF8501; stop-opacity:1"/>
   <stop offset="100%" style="stop-color: #FFCB01; stop-opacity:1"/>
  </linearGradient>
  <linearGradient id="telinkrin" x1="0%" x2="0%" y1="0%" y2="100%">
   <stop offset="0%" style="stop-color: #b2ced6; stop-opacity:1"/>
   <stop offset="100%" style="stop-color: #6da5b7; stop-opacity:1"/>
  </linearGradient>
  <linearGradient id="60spsycho" x1="0%" x2="0%" y1="0%" y2="100%">
   <stop offset="0%" style="stop-color: #df5940; stop-opacity:1"/>
   <stop offset="25%" style="stop-color: #d8d15f; stop-opacity:1"/>
   <stop offset="50%" style="stop-color: #e9882a; stop-opacity:1"/>
   <stop offset="100%" style="stop-color: #279362; stop-opacity:1"/>
  </linearGradient>
  <linearGradient id="90ssummer" x1="0%" x2="0%" y1="0%" y2="100%">
   <stop offset="0%" style="stop-color: #f618c7; stop-opacity:1"/>
   <stop offset="20%" style="stop-color: #94ffab; stop-opacity:1"/>
   <stop offset="50%" style="stop-color: #fbfd54; stop-opacity:1"/>
   <stop offset="100%" style="stop-color: #0f83ae; stop-opacity:1"/>
  </linearGradient>
 </defs>
 <path fill="url(#oomox)" class="ColorScheme-Text" opacity="0.6" d="M 8.0000001,2.0000335 A 8.0000002,5.6666721 0 0 0 -3.525443e-7,7.6667004 8.0000002,5.6666721 0 0 0 8.0000001,13.333366 8.0000002,5.6666721 0 0 0 16,7.6667004 8.0000002,5.6666721 0 0 0 8.0000001,2.0000335 Z m 1.3333337,2 A 6.0000005,3.6666703 0 0 1 15.333333,7.6667004 6.0000005,3.6666703 0 0 1 9.3333338,11.333366 6.0000005,3.6666703 0 0 1 3.333333,7.6667004 6.0000005,3.6666703 0 0 1 9.3333338,4.0000335 Z"/>
 <path fill="url(#oomox)" class="ColorScheme-Text" fill-rule="evenodd" d="m 12.73334,10.316832 c 0,0 0.258087,-0.074 0.51549,0.05733 0.08932,0.04533 0.243851,0.136867 0.355321,0.256467 0.109189,0.1172 0.162429,0.235933 0.162429,0.235933 l 1.56664,3.133401 h -3.333276 c 0,0 -0.744854,-2.177334 -1.442041,-3.109334 -0.138716,-0.113467 -0.254564,-0.235 -0.391272,-0.224067 H 9.3331107 l 2.824e-4,3.3316 h -2.66677 V 4.6666335 h 5.0522479 c 0.547656,0 2.866616,0.3333334 2.947616,2.6667003 -0.081,2.3333996 -1.933301,3.0000992 -1.933301,3.0000992 z M 9.3335964,6.6494672 v 2.0006667 h 1.9997666 c 0,0 0.666654,0.024 0.666654,-1.0000339 0,-1.0756334 -0.666654,-0.9994328 -0.666654,-0.9994328 z"/>
</svg>
