<svg xmlns="http://www.w3.org/2000/svg" width="16" height="16" version="1.1">
 <defs>
   <style id="current-color-scheme" type="text/css">
   .ColorScheme-Text { color: #d3dae3; } .ColorScheme-Highlight { color:#5294e2; }
  </style>
  <linearGradient id="arrongin" x1="0%" x2="0%" y1="0%" y2="100%">
   <stop offset="0%" style="stop-color:#dd9b44; stop-opacity:1"/>
   <stop offset="100%" style="stop-color:#ad6c16; stop-opacity:1"/>
  </linearGradient>
  <linearGradient id="aurora" x1="0%" x2="0%" y1="0%" y2="100%">
   <stop offset="0%" style="stop-color:#09D4DF; stop-opacity:1"/>
   <stop offset="100%" style="stop-color:#9269F4; stop-opacity:1"/>
  </linearGradient>
  <linearGradient id="cyberneon" x1="0%" x2="0%" y1="0%" y2="100%">
    <stop offset="0" style="stop-color:#0abdc6; stop-opacity:1"/>
    <stop offset="1" style="stop-color:#ea00d9; stop-opacity:1"/>
  </linearGradient>
  <linearGradient id="fitdance" x1="0%" x2="0%" y1="0%" y2="100%">
   <stop offset="0%" style="stop-color:#1AD6AB; stop-opacity:1"/>
   <stop offset="100%" style="stop-color:#329DB6; stop-opacity:1"/>
  </linearGradient>
  <linearGradient id="oomox" x1="0%" x2="0%" y1="0%" y2="100%">
   <stop offset="0%" style="stop-color:#a4d8d4; stop-opacity:1"/>
   <stop offset="100%" style="stop-color:#318c85; stop-opacity:1"/>
  </linearGradient>
  <linearGradient id="rainblue" x1="0%" x2="0%" y1="0%" y2="100%">
   <stop offset="0%" style="stop-color:#00F260; stop-opacity:1"/>
   <stop offset="100%" style="stop-color:#0575E6; stop-opacity:1"/>
  </linearGradient>
  <linearGradient id="sunrise" x1="0%" x2="0%" y1="0%" y2="100%">
   <stop offset="0%" style="stop-color: #FF8501; stop-opacity:1"/>
   <stop offset="100%" style="stop-color: #FFCB01; stop-opacity:1"/>
  </linearGradient>
  <linearGradient id="telinkrin" x1="0%" x2="0%" y1="0%" y2="100%">
   <stop offset="0%" style="stop-color: #b2ced6; stop-opacity:1"/>
   <stop offset="100%" style="stop-color: #6da5b7; stop-opacity:1"/>
  </linearGradient>
  <linearGradient id="60spsycho" x1="0%" x2="0%" y1="0%" y2="100%">
   <stop offset="0%" style="stop-color: #df5940; stop-opacity:1"/>
   <stop offset="25%" style="stop-color: #d8d15f; stop-opacity:1"/>
   <stop offset="50%" style="stop-color: #e9882a; stop-opacity:1"/>
   <stop offset="100%" style="stop-color: #279362; stop-opacity:1"/>
  </linearGradient>
  <linearGradient id="90ssummer" x1="0%" x2="0%" y1="0%" y2="100%">
   <stop offset="0%" style="stop-color: #f618c7; stop-opacity:1"/>
   <stop offset="20%" style="stop-color: #94ffab; stop-opacity:1"/>
   <stop offset="50%" style="stop-color: #fbfd54; stop-opacity:1"/>
   <stop offset="100%" style="stop-color: #0f83ae; stop-opacity:1"/>
  </linearGradient>
 </defs>
 <path fill="url(#oomox)" class="ColorScheme-Text" d="M 7.5 0 L 7.5 2 L 8.5 2 L 8.5 0 L 7.5 0 z M 2.6972656 1.9902344 L 1.9902344 2.6972656 L 3.4042969 4.1113281 L 4.1113281 3.4042969 L 2.6972656 1.9902344 z M 13.302734 1.9902344 L 11.888672 3.4042969 L 12.595703 4.1113281 L 14.009766 2.6972656 L 13.302734 1.9902344 z M 8 3 C 5.2384965 3 3 5.23858 3 8 C 3 10.76142 5.2384965 13 8 13 C 10.761503 13 13 10.76142 13 8 C 13 5.23858 10.761503 3 8 3 z M 8 4 L 8 12 C 5.7908172 12 4 10.20914 4 8 C 4 5.79086 5.7908172 4 8 4 z M 0 7.5 L 0 8.5 L 2 8.5 L 2 7.5 L 0 7.5 z M 14 7.5 L 14 8.5 L 16 8.5 L 16 7.5 L 14 7.5 z M 3.4042969 11.888672 L 1.9902344 13.302734 L 2.6972656 14.009766 L 4.1113281 12.595703 L 3.4042969 11.888672 z M 12.595703 11.888672 L 11.888672 12.595703 L 13.302734 14.009766 L 14.009766 13.302734 L 12.595703 11.888672 z M 7.5 14 L 7.5 16 L 8.5 16 L 8.5 14 L 7.5 14 z"/>
</svg>
