<svg xmlns="http://www.w3.org/2000/svg" width="16" height="16" version="1.1">
 <defs>
   <style id="current-color-scheme" type="text/css">
   .ColorScheme-Text { color: #d3dae3; } .ColorScheme-Highlight { color:#5294e2; }
  </style>
  <linearGradient id="arrongin" x1="0%" x2="0%" y1="0%" y2="100%">
   <stop offset="0%" style="stop-color:#dd9b44; stop-opacity:1"/>
   <stop offset="100%" style="stop-color:#ad6c16; stop-opacity:1"/>
  </linearGradient>
  <linearGradient id="aurora" x1="0%" x2="0%" y1="0%" y2="100%">
   <stop offset="0%" style="stop-color:#09D4DF; stop-opacity:1"/>
   <stop offset="100%" style="stop-color:#9269F4; stop-opacity:1"/>
  </linearGradient>
  <linearGradient id="cyberneon" x1="0%" x2="0%" y1="0%" y2="100%">
    <stop offset="0" style="stop-color:#0abdc6; stop-opacity:1"/>
    <stop offset="1" style="stop-color:#ea00d9; stop-opacity:1"/>
  </linearGradient>
  <linearGradient id="fitdance" x1="0%" x2="0%" y1="0%" y2="100%">
   <stop offset="0%" style="stop-color:#1AD6AB; stop-opacity:1"/>
   <stop offset="100%" style="stop-color:#329DB6; stop-opacity:1"/>
  </linearGradient>
  <linearGradient id="oomox" x1="0%" x2="0%" y1="0%" y2="100%">
   <stop offset="0%" style="stop-color:#a4d8d4; stop-opacity:1"/>
   <stop offset="100%" style="stop-color:#318c85; stop-opacity:1"/>
  </linearGradient>
  <linearGradient id="rainblue" x1="0%" x2="0%" y1="0%" y2="100%">
   <stop offset="0%" style="stop-color:#00F260; stop-opacity:1"/>
   <stop offset="100%" style="stop-color:#0575E6; stop-opacity:1"/>
  </linearGradient>
  <linearGradient id="sunrise" x1="0%" x2="0%" y1="0%" y2="100%">
   <stop offset="0%" style="stop-color: #FF8501; stop-opacity:1"/>
   <stop offset="100%" style="stop-color: #FFCB01; stop-opacity:1"/>
  </linearGradient>
  <linearGradient id="telinkrin" x1="0%" x2="0%" y1="0%" y2="100%">
   <stop offset="0%" style="stop-color: #b2ced6; stop-opacity:1"/>
   <stop offset="100%" style="stop-color: #6da5b7; stop-opacity:1"/>
  </linearGradient>
  <linearGradient id="60spsycho" x1="0%" x2="0%" y1="0%" y2="100%">
   <stop offset="0%" style="stop-color: #df5940; stop-opacity:1"/>
   <stop offset="25%" style="stop-color: #d8d15f; stop-opacity:1"/>
   <stop offset="50%" style="stop-color: #e9882a; stop-opacity:1"/>
   <stop offset="100%" style="stop-color: #279362; stop-opacity:1"/>
  </linearGradient>
  <linearGradient id="90ssummer" x1="0%" x2="0%" y1="0%" y2="100%">
   <stop offset="0%" style="stop-color: #f618c7; stop-opacity:1"/>
   <stop offset="20%" style="stop-color: #94ffab; stop-opacity:1"/>
   <stop offset="50%" style="stop-color: #fbfd54; stop-opacity:1"/>
   <stop offset="100%" style="stop-color: #0f83ae; stop-opacity:1"/>
  </linearGradient>
 </defs>
 <path fill="url(#oomox)" class="ColorScheme-Text" d="m 14.697266,2.5703125 c -0.51546,0.00875 -1.096574,0.074976 -1.529297,0.2402344 -0.807126,0.308245 -1.581407,1.1581138 -2.548828,2.5898437 C 10.056055,6.2337265 9.6307618,6.7370198 9.2460938,7.015625 8.8614257,7.2942302 8.5170733,7.3811624 7.9707031,7.3789062 7.4259841,7.3766417 7.1047273,7.2939785 6.6914062,6.9707031 6.2780852,6.6474278 5.784679,6.0494802 5.0761719,5.0390625 4.4050409,4.0819478 3.912411,3.4753841 3.3398438,3.09375 2.7672765,2.7121159 2.1397111,2.5990257 1.3378906,2.5878906 0.95645029,2.5825942 0.72304756,2.5809184 0.52539062,2.6152344 0.42656216,2.6323924 0.32615312,2.6546158 0.21679688,2.7421875 0.10744063,2.8297592 0.0390625,3.0042274 0.0390625,3.1152344 c 0,0.1296702 0.08695405,0.3001736 0.18945312,0.3789062 0.10249908,0.078733 0.1963534,0.1051764 0.296875,0.1289063 0.20104322,0.04746 0.45187018,0.068439 0.84374998,0.091797 0.7338436,0.043738 1.0958438,0.1165897 1.4980469,0.4179687 0.4022031,0.301379 0.8673817,0.888628 1.6230469,1.9726563 0.6625454,0.950446 1.2543395,1.5134866 1.8378906,1.875 C 5.7472181,8.340806 5.1563289,8.8992435 4.5058594,9.8320312 3.7565505,10.906557 3.2533261,11.52267 2.8183594,11.845703 c -0.4349668,0.323034 -0.805104,0.400391 -1.4726563,0.400391 -0.43703949,0 -0.7201354,0.0063 -0.9785156,0.107422 -0.1291901,0.05057 -0.29280802,0.160101 -0.34765625,0.353515 -0.05484823,0.193414 0.01597688,0.352852 0.08398437,0.462891 0.12231619,0.197914 0.24245151,0.1969 0.33398438,0.21875 0.0915329,0.02185 0.18236677,0.03164 0.28320312,0.03711 0.20167271,0.01094 0.44062268,0.0013 0.69531248,-0.01953 0.5093796,-0.04164 1.0491899,-0.118857 1.4238282,-0.275391 0.7541075,-0.315087 1.402105,-0.986434 2.2304687,-2.197265 C 5.7500494,9.9400134 6.2425148,9.3405516 6.6679688,9.0097656 7.0934227,8.6789796 7.4404866,8.5839844 7.9941406,8.5839844 c 0.5536535,0 0.9007178,0.094995 1.3261719,0.4257812 0.4254541,0.330786 0.9179205,0.9302479 1.5976565,1.9238284 0.811721,1.186504 1.485771,1.899634 2.216797,2.205078 0.34583,0.144494 0.840733,0.210243 1.332031,0.25 0.245649,0.01988 0.481605,0.02811 0.683594,0.02148 0.100994,-0.0033 0.19391,-0.0092 0.28125,-0.02344 0.08734,-0.01425 0.164659,-0.02085 0.285156,-0.103516 0.120986,-0.083 0.276975,-0.187479 0.283203,-0.445312 0.0031,-0.128917 -0.06155,-0.2569 -0.130859,-0.328125 -0.06931,-0.07123 -0.13863,-0.106603 -0.205079,-0.134766 -0.265792,-0.112654 -0.572653,-0.128906 -1.021484,-0.128906 -0.673807,0 -1.047459,-0.07662 -1.476562,-0.392578 C 12.736913,11.53756 12.246161,10.934687 11.517578,9.8808594 10.759984,8.78507 10.279284,8.3102703 9.7246094,8.0078125 9.7766277,7.9724158 9.8143632,7.9434346 9.8730469,7.90625 10.247254,7.6691355 10.695516,7.2042044 11.011719,6.7695312 c 0.286902,-0.3943967 0.804562,-1.1107445 1.152343,-1.59375 0.325793,-0.4524703 0.862676,-1.0120835 1.03125,-1.1289062 0.200991,-0.1392864 0.298172,-0.192893 0.466797,-0.2363281 0.168625,-0.043435 0.429945,-0.07026 0.886719,-0.095703 0.42191,-0.023502 0.688041,-0.043855 0.896484,-0.089844 0.104222,-0.022994 0.199264,-0.047972 0.304688,-0.125 0.105424,-0.077028 0.199219,-0.2522135 0.199219,-0.3847656 0,-0.1106319 -0.05027,-0.2184529 -0.105469,-0.2832032 -0.05519,-0.06475 -0.111648,-0.098732 -0.162109,-0.125 -0.100922,-0.052536 -0.190828,-0.073377 -0.291016,-0.091797 -0.200377,-0.036839 -0.435629,-0.049297 -0.693359,-0.044922 z"/>
</svg>
