<svg xmlns="http://www.w3.org/2000/svg" width="24" height="24" version="1.1">
 <defs>
  <style id="current-color-scheme" type="text/css">
   .ColorScheme-Text { color: #939597; } .ColorScheme-Highlight { color: #1AD6AB; }
  </style>
  <linearGradient id="arrongin" x1="0%" x2="0%" y1="0%" y2="100%">
   <stop offset="0%" style="stop-color:#dd9b44"/>
   <stop offset="100%" style="stop-color:#ad6c16"/>
  </linearGradient>
  <linearGradient id="aurora" x1="0%" x2="0%" y1="0%" y2="100%">
   <stop offset="0%" style="stop-color:#09D4DF"/>
   <stop offset="100%" style="stop-color:#9269F4"/>
  </linearGradient>
  <linearGradient id="cyberneon" x1="0%" x2="0%" y1="0%" y2="100%">
   <stop offset="0" style="stop-color:#0abdc6"/>
   <stop offset="1" style="stop-color:#ea00d9"/>
  </linearGradient>
  <linearGradient id="fitdance" x1="0%" x2="0%" y1="0%" y2="100%">
   <stop offset="0%" style="stop-color:#1AD6AB"/>
   <stop offset="100%" style="stop-color:#329DB6"/>
  </linearGradient>
  <linearGradient id="oomox" x1="0%" x2="0%" y1="0%" y2="100%">
   <stop offset="0%" style="stop-color:#66b7ff"/>
   <stop offset="100%" style="stop-color:#006acc"/>
  </linearGradient>
  <linearGradient id="rainblue" x1="0%" x2="0%" y1="0%" y2="100%">
   <stop offset="0%" style="stop-color:#00F260"/>
   <stop offset="100%" style="stop-color:#0575E6"/>
  </linearGradient>
  <linearGradient id="sunrise" x1="0%" x2="0%" y1="0%" y2="100%">
   <stop offset="0%" style="stop-color:#FF8501"/>
   <stop offset="100%" style="stop-color:#FFCB01"/>
  </linearGradient>
  <linearGradient id="telinkrin" x1="0%" x2="0%" y1="0%" y2="100%">
   <stop offset="0%" style="stop-color:#b2ced6"/>
   <stop offset="100%" style="stop-color:#6da5b7"/>
  </linearGradient>
  <linearGradient id="60spsycho" x1="0%" x2="0%" y1="0%" y2="100%">
   <stop offset="0%" style="stop-color:#df5940"/>
   <stop offset="25%" style="stop-color:#d8d15f"/>
   <stop offset="50%" style="stop-color:#e9882a"/>
   <stop offset="100%" style="stop-color:#279362"/>
  </linearGradient>
  <linearGradient id="90ssummer" x1="0%" x2="0%" y1="0%" y2="100%">
   <stop offset="0%" style="stop-color:#f618c7"/>
   <stop offset="20%" style="stop-color:#94ffab"/>
   <stop offset="50%" style="stop-color:#fbfd54"/>
   <stop offset="100%" style="stop-color:#0f83ae"/>
  </linearGradient>
 </defs>
 <path fill="url(#oomox)" class="ColorScheme-Text" d="m 12.041016,3.9999996 c -0.325147,-0.0077 -0.647915,0.077679 -0.929688,0.2441406 L 5.8886719,7.333984 C 5.3392388,7.6589526 4.99996,8.2601609 5,8.9101558 v 6.1796882 c -2e-7,0.403272 0.1429115,0.778631 0.3730469,1.089844 L 18.835938,8.1816402 C 18.686183,7.8335853 18.44356,7.5304865 18.111328,7.333984 L 12.888672,4.2421871 C 12.631571,4.0903183 12.339632,4.0073486 12.042969,3.9999996 Z m 6.888672,4.4101562 a 1.7755407,1.8191524 0 0 1 0.01367,0.052734 c -0.0044,-0.01781 -0.0088,-0.035102 -0.01367,-0.052734 z M 5.5019531,16.351562 c 0.012756,0.01353 0.025877,0.02593 0.039063,0.03906 a 1.7755407,1.8191524 0 0 1 -0.039063,-0.03906 z"/>
 <path fill="url(#oomox)" class="ColorScheme-Text" opacity="0.3" d="M 18.848092,8.1757754 5.3607854,16.185118 a 1.7755407,1.8191524 0 0 0 0.5271257,0.480466 l 5.2241779,3.090613 a 1.7755407,1.8191524 0 0 0 1.775822,0 l 5.224178,-3.090613 A 1.7755407,1.8191524 0 0 0 19,15.090591 V 8.9093663 A 1.7755407,1.8191524 0 0 0 18.848092,8.1757754 Z"/>
</svg>
