<svg xmlns="http://www.w3.org/2000/svg" width="24" height="24" version="1.1">
 <defs>
  <style id="current-color-scheme" type="text/css">
   .ColorScheme-Text { color: #939597; } .ColorScheme-Highlight { color: #1AD6AB; }
  </style>
  <linearGradient id="arrongin" x1="0%" x2="0%" y1="0%" y2="100%">
   <stop offset="0%" style="stop-color:#dd9b44"/>
   <stop offset="100%" style="stop-color:#ad6c16"/>
  </linearGradient>
  <linearGradient id="aurora" x1="0%" x2="0%" y1="0%" y2="100%">
   <stop offset="0%" style="stop-color:#09D4DF"/>
   <stop offset="100%" style="stop-color:#9269F4"/>
  </linearGradient>
  <linearGradient id="cyberneon" x1="0%" x2="0%" y1="0%" y2="100%">
   <stop offset="0" style="stop-color:#0abdc6"/>
   <stop offset="1" style="stop-color:#ea00d9"/>
  </linearGradient>
  <linearGradient id="fitdance" x1="0%" x2="0%" y1="0%" y2="100%">
   <stop offset="0%" style="stop-color:#1AD6AB"/>
   <stop offset="100%" style="stop-color:#329DB6"/>
  </linearGradient>
  <linearGradient id="oomox" x1="0%" x2="0%" y1="0%" y2="100%">
   <stop offset="0%" style="stop-color:#66b7ff"/>
   <stop offset="100%" style="stop-color:#006acc"/>
  </linearGradient>
  <linearGradient id="rainblue" x1="0%" x2="0%" y1="0%" y2="100%">
   <stop offset="0%" style="stop-color:#00F260"/>
   <stop offset="100%" style="stop-color:#0575E6"/>
  </linearGradient>
  <linearGradient id="sunrise" x1="0%" x2="0%" y1="0%" y2="100%">
   <stop offset="0%" style="stop-color:#FF8501"/>
   <stop offset="100%" style="stop-color:#FFCB01"/>
  </linearGradient>
  <linearGradient id="telinkrin" x1="0%" x2="0%" y1="0%" y2="100%">
   <stop offset="0%" style="stop-color:#b2ced6"/>
   <stop offset="100%" style="stop-color:#6da5b7"/>
  </linearGradient>
  <linearGradient id="60spsycho" x1="0%" x2="0%" y1="0%" y2="100%">
   <stop offset="0%" style="stop-color:#df5940"/>
   <stop offset="25%" style="stop-color:#d8d15f"/>
   <stop offset="50%" style="stop-color:#e9882a"/>
   <stop offset="100%" style="stop-color:#279362"/>
  </linearGradient>
  <linearGradient id="90ssummer" x1="0%" x2="0%" y1="0%" y2="100%">
   <stop offset="0%" style="stop-color:#f618c7"/>
   <stop offset="20%" style="stop-color:#94ffab"/>
   <stop offset="50%" style="stop-color:#fbfd54"/>
   <stop offset="100%" style="stop-color:#0f83ae"/>
  </linearGradient>
 </defs>
 <g>
  <path fill="currentColor" class="ColorScheme-Highlight" d="M 4,17.203 4,17.75 C 4,18.962 5.0381,20 6.25,20 l 11.5,0 C 18.962,20 20,18.962 20,17.75 l 0,-0.547 C 19.468,17.688 18.775,18 18,18 L 6,18 C 5.2254,18 4.5316,17.688 4,17.203 Z M 12,6 c 0.216901,0 0.427709,0.1358 0.49605,0.35 l 0.87,2.6503 2.851,0 c 0.486625,0 0.688347,0.6862 0.293,0.9699 l -2.314,1.6662 0.88,2.7015 c 0.144289,0.4587 -0.378668,0.8438 -0.769,0.563 L 12,13.2204 9.7015499,14.9009 c -0.393805,0.2887 -0.9254452,-0.1003 -0.7695,-0.563 L 9.8226498,11.6264 7.52,9.951 C 7.1283687,9.6659 7.3290098,8.9992 7.81345,8.9998 l 2.8506,0 0.881,-2.6498 C 11.60945,6.1509 11.783098,6 12,6 Z M 7,4 C 5.9806772,3.9998 5.1139707,4.9871 5,6 L 4.0122243,14.779 C 3.8806145,15.964 4.8077628,17.0002 6,17 l 12,0 c 1.192117,0 2.120121,-1.0362 1.988524,-2.221 L 19,6 C 18.885957,4.9872 18.019208,4 17,4 Z"/>
 </g>
</svg>
