<svg xmlns="http://www.w3.org/2000/svg" width="24" height="24" version="1.1">
 <defs>
  <style id="current-color-scheme" type="text/css">
   .ColorScheme-Text { color: #939597; } .ColorScheme-Highlight { color: #1AD6AB; }
  </style>
  <linearGradient id="arrongin" x1="0%" x2="0%" y1="0%" y2="100%">
   <stop offset="0%" style="stop-color:#dd9b44"/>
   <stop offset="100%" style="stop-color:#ad6c16"/>
  </linearGradient>
  <linearGradient id="aurora" x1="0%" x2="0%" y1="0%" y2="100%">
   <stop offset="0%" style="stop-color:#09D4DF"/>
   <stop offset="100%" style="stop-color:#9269F4"/>
  </linearGradient>
  <linearGradient id="cyberneon" x1="0%" x2="0%" y1="0%" y2="100%">
   <stop offset="0" style="stop-color:#0abdc6"/>
   <stop offset="1" style="stop-color:#ea00d9"/>
  </linearGradient>
  <linearGradient id="fitdance" x1="0%" x2="0%" y1="0%" y2="100%">
   <stop offset="0%" style="stop-color:#1AD6AB"/>
   <stop offset="100%" style="stop-color:#329DB6"/>
  </linearGradient>
  <linearGradient id="oomox" x1="0%" x2="0%" y1="0%" y2="100%">
   <stop offset="0%" style="stop-color:#66b7ff"/>
   <stop offset="100%" style="stop-color:#006acc"/>
  </linearGradient>
  <linearGradient id="rainblue" x1="0%" x2="0%" y1="0%" y2="100%">
   <stop offset="0%" style="stop-color:#00F260"/>
   <stop offset="100%" style="stop-color:#0575E6"/>
  </linearGradient>
  <linearGradient id="sunrise" x1="0%" x2="0%" y1="0%" y2="100%">
   <stop offset="0%" style="stop-color:#FF8501"/>
   <stop offset="100%" style="stop-color:#FFCB01"/>
  </linearGradient>
  <linearGradient id="telinkrin" x1="0%" x2="0%" y1="0%" y2="100%">
   <stop offset="0%" style="stop-color:#b2ced6"/>
   <stop offset="100%" style="stop-color:#6da5b7"/>
  </linearGradient>
  <linearGradient id="60spsycho" x1="0%" x2="0%" y1="0%" y2="100%">
   <stop offset="0%" style="stop-color:#df5940"/>
   <stop offset="25%" style="stop-color:#d8d15f"/>
   <stop offset="50%" style="stop-color:#e9882a"/>
   <stop offset="100%" style="stop-color:#279362"/>
  </linearGradient>
  <linearGradient id="90ssummer" x1="0%" x2="0%" y1="0%" y2="100%">
   <stop offset="0%" style="stop-color:#f618c7"/>
   <stop offset="20%" style="stop-color:#94ffab"/>
   <stop offset="50%" style="stop-color:#fbfd54"/>
   <stop offset="100%" style="stop-color:#0f83ae"/>
  </linearGradient>
 </defs>
 <path fill="url(#oomox)" class="ColorScheme-Text" d="M 12,3.9999998 C 8.686292,3.9999998 6,6.6862908 6,10 v 1 H 5.714844 c -0.30286,0 -0.583665,0.08222 -0.830078,0.216797 l 5.347656,5.263672 c 0.875466,0.861786 1.580307,0.812485 2.193359,0.611328 0.613054,-0.201159 1.039063,-0.611328 1.039063,-0.611328 l 5.447265,-5.361328 C 18.717545,11.044001 18.507431,11 18.285156,11 H 18 V 10 C 18,6.6862908 15.313709,3.9999998 12,3.9999998 Z m 0,2 c 2.23283,0 4,1.767171 4,4.0000002 V 10.611328 11 H 8 V 10.677734 10 C 8,7.7671708 9.767173,5.9999998 12,5.9999998 Z m 7.775391,5.8632812 -4.445313,4.375 3.664063,3.607422 C 19.58711,19.580747 20,18.997459 20,18.3125 v -5.625 c 0,-0.301643 -0.08488,-0.579682 -0.224609,-0.824219 z M 4.123047,12.060547 C 4.044347,12.254606 4,12.465146 4,12.6875 v 5.625 c 0,0.655046 0.380231,1.214253 0.931641,1.494141 l 3.53125,-3.476563 z m 10.398437,4.972656 -0.248046,0.244141 c 0,0 -0.584153,0.584833 -1.486329,0.880859 -0.902176,0.296026 -2.216489,0.246092 -3.361328,-0.880859 L 9.269531,17.126953 6.349609,20 h 11.185547 z"/>
</svg>
