<svg xmlns="http://www.w3.org/2000/svg" width="24" height="24" version="1.1">
 <defs>
  <style id="current-color-scheme" type="text/css">
   .ColorScheme-Text { color: #939597; } .ColorScheme-Highlight { color: #1AD6AB; }
  </style>
  <linearGradient id="arrongin" x1="0%" x2="0%" y1="0%" y2="100%">
   <stop offset="0%" style="stop-color:#dd9b44"/>
   <stop offset="100%" style="stop-color:#ad6c16"/>
  </linearGradient>
  <linearGradient id="aurora" x1="0%" x2="0%" y1="0%" y2="100%">
   <stop offset="0%" style="stop-color:#09D4DF"/>
   <stop offset="100%" style="stop-color:#9269F4"/>
  </linearGradient>
  <linearGradient id="cyberneon" x1="0%" x2="0%" y1="0%" y2="100%">
   <stop offset="0" style="stop-color:#0abdc6"/>
   <stop offset="1" style="stop-color:#ea00d9"/>
  </linearGradient>
  <linearGradient id="fitdance" x1="0%" x2="0%" y1="0%" y2="100%">
   <stop offset="0%" style="stop-color:#1AD6AB"/>
   <stop offset="100%" style="stop-color:#329DB6"/>
  </linearGradient>
  <linearGradient id="oomox" x1="0%" x2="0%" y1="0%" y2="100%">
   <stop offset="0%" style="stop-color:#66b7ff"/>
   <stop offset="100%" style="stop-color:#006acc"/>
  </linearGradient>
  <linearGradient id="rainblue" x1="0%" x2="0%" y1="0%" y2="100%">
   <stop offset="0%" style="stop-color:#00F260"/>
   <stop offset="100%" style="stop-color:#0575E6"/>
  </linearGradient>
  <linearGradient id="sunrise" x1="0%" x2="0%" y1="0%" y2="100%">
   <stop offset="0%" style="stop-color:#FF8501"/>
   <stop offset="100%" style="stop-color:#FFCB01"/>
  </linearGradient>
  <linearGradient id="telinkrin" x1="0%" x2="0%" y1="0%" y2="100%">
   <stop offset="0%" style="stop-color:#b2ced6"/>
   <stop offset="100%" style="stop-color:#6da5b7"/>
  </linearGradient>
  <linearGradient id="60spsycho" x1="0%" x2="0%" y1="0%" y2="100%">
   <stop offset="0%" style="stop-color:#df5940"/>
   <stop offset="25%" style="stop-color:#d8d15f"/>
   <stop offset="50%" style="stop-color:#e9882a"/>
   <stop offset="100%" style="stop-color:#279362"/>
  </linearGradient>
  <linearGradient id="90ssummer" x1="0%" x2="0%" y1="0%" y2="100%">
   <stop offset="0%" style="stop-color:#f618c7"/>
   <stop offset="20%" style="stop-color:#94ffab"/>
   <stop offset="50%" style="stop-color:#fbfd54"/>
   <stop offset="100%" style="stop-color:#0f83ae"/>
  </linearGradient>
 </defs>
 <g transform="translate(1,1)">
  <path fill="url(#oomox)" class="ColorScheme-Text" opacity="0.3" d="M 11,3.7207 8.8105,6 H 6 V 8.8105 L 3.7207,11 H 7 C 7,8.79 8.79,7 11,7 13.21,7 15,8.79 15,11 H 18.279 L 16,9 V 6 H 13.221 Z M 11,8 C 9.3431,8 8,9.3431 8,11 H 11 Z"/>
  <path fill="url(#oomox)" class="ColorScheme-Text" fill-rule="evenodd" opacity="0.3" d="M 18,13 C 18,12.446 17.554,12 17,12 H 4 C 3.446,12 3,12.446 3,13 V 18 C 3,18.554 3.446,19 4,19 H 17 C 17.554,19 18,18.554 18,18 Z M 15,13 V 14 H 14 V 13 Z M 15,15 V 16 H 14 V 15 Z M 14,17 V 18 H 7 V 17 Z M 13,13 V 14 H 12 V 13 Z M 13,15 V 16 H 12 V 15 Z M 11,13 V 14 H 10 V 13 Z M 11,15 V 16 H 10 V 15 Z M 9,13 V 14 H 8 V 13 Z M 9,15 V 16 H 8 V 15 Z M 7,13 V 14 H 6 V 13 Z M 7,15 V 16 H 6 V 15 Z"/>
 </g>
</svg>
