<svg xmlns="http://www.w3.org/2000/svg" width="24" height="24" version="1.1">
 <defs>
  <style id="current-color-scheme" type="text/css">
   .ColorScheme-Text { color: #939597; } .ColorScheme-Highlight { color: #1AD6AB; }
  </style>
  <linearGradient id="arrongin" x1="0%" x2="0%" y1="0%" y2="100%">
   <stop offset="0%" style="stop-color:#dd9b44"/>
   <stop offset="100%" style="stop-color:#ad6c16"/>
  </linearGradient>
  <linearGradient id="aurora" x1="0%" x2="0%" y1="0%" y2="100%">
   <stop offset="0%" style="stop-color:#09D4DF"/>
   <stop offset="100%" style="stop-color:#9269F4"/>
  </linearGradient>
  <linearGradient id="cyberneon" x1="0%" x2="0%" y1="0%" y2="100%">
   <stop offset="0" style="stop-color:#0abdc6"/>
   <stop offset="1" style="stop-color:#ea00d9"/>
  </linearGradient>
  <linearGradient id="fitdance" x1="0%" x2="0%" y1="0%" y2="100%">
   <stop offset="0%" style="stop-color:#1AD6AB"/>
   <stop offset="100%" style="stop-color:#329DB6"/>
  </linearGradient>
  <linearGradient id="oomox" x1="0%" x2="0%" y1="0%" y2="100%">
   <stop offset="0%" style="stop-color:#66b7ff"/>
   <stop offset="100%" style="stop-color:#006acc"/>
  </linearGradient>
  <linearGradient id="rainblue" x1="0%" x2="0%" y1="0%" y2="100%">
   <stop offset="0%" style="stop-color:#00F260"/>
   <stop offset="100%" style="stop-color:#0575E6"/>
  </linearGradient>
  <linearGradient id="sunrise" x1="0%" x2="0%" y1="0%" y2="100%">
   <stop offset="0%" style="stop-color:#FF8501"/>
   <stop offset="100%" style="stop-color:#FFCB01"/>
  </linearGradient>
  <linearGradient id="telinkrin" x1="0%" x2="0%" y1="0%" y2="100%">
   <stop offset="0%" style="stop-color:#b2ced6"/>
   <stop offset="100%" style="stop-color:#6da5b7"/>
  </linearGradient>
  <linearGradient id="60spsycho" x1="0%" x2="0%" y1="0%" y2="100%">
   <stop offset="0%" style="stop-color:#df5940"/>
   <stop offset="25%" style="stop-color:#d8d15f"/>
   <stop offset="50%" style="stop-color:#e9882a"/>
   <stop offset="100%" style="stop-color:#279362"/>
  </linearGradient>
  <linearGradient id="90ssummer" x1="0%" x2="0%" y1="0%" y2="100%">
   <stop offset="0%" style="stop-color:#f618c7"/>
   <stop offset="20%" style="stop-color:#94ffab"/>
   <stop offset="50%" style="stop-color:#fbfd54"/>
   <stop offset="100%" style="stop-color:#0f83ae"/>
  </linearGradient>
 </defs>
 <path fill="url(#oomox)" class="ColorScheme-Text" d="m12 4.0000001c-4.4319999 0-8 3.5679999-8 7.9999999s3.5680001 8 8 8c4.432 0 8-3.568 8-8s-3.568-7.9999999-8-7.9999999zm-2.9999999 3c1.5999999 1.1999998 5.2989669 1.2019988 6.9999999 1.4999998-1.178779 0.26163-3.117177 0.315744-4.769531 0.652344 1.425675 1.0157421 2.160985 1.0658581 3.769531 1.3476561-1.712773 0.380149-2.360694 0.342187-3.789063 1.361328 1.684351 0.367339 3.667522 0.442191 4.789063 0.638672-1.803821 0.400358-5.4 0.3-6.9999999 1.5l1.4999999 0.199219 1.5-0.199219c-1.2 1.6-1.201999 2.298967-1.5 4-0.400357-1.803821-0.3-2.4-1.4999999-4l0.1992192-1.5-0.1992192-1.5c0.5052456 0.378934 1.2285949 0.631302 2.0234379 0.818359l0.175781-1.318359-0.171875-1.3007811c-0.793918 0.176622-1.5168183 0.417887-2.0273439 0.800781l0.1992184-1.5zm3.9999999 6.9999999 1.5 0.199219 1.5-0.199219c-1.2 1.6-1.201999 2.298967-1.5 4-0.400357-1.803821-0.3-2.4-1.5-4z"/>
</svg>
