<svg xmlns="http://www.w3.org/2000/svg" width="24" height="24" version="1.1">
 <defs>
  <style id="current-color-scheme" type="text/css">
   .ColorScheme-Text { color: #939597; } .ColorScheme-Highlight { color: #1AD6AB; }
  </style>
  <linearGradient id="arrongin" x1="0%" x2="0%" y1="0%" y2="100%">
   <stop offset="0%" style="stop-color:#dd9b44"/>
   <stop offset="100%" style="stop-color:#ad6c16"/>
  </linearGradient>
  <linearGradient id="aurora" x1="0%" x2="0%" y1="0%" y2="100%">
   <stop offset="0%" style="stop-color:#09D4DF"/>
   <stop offset="100%" style="stop-color:#9269F4"/>
  </linearGradient>
  <linearGradient id="cyberneon" x1="0%" x2="0%" y1="0%" y2="100%">
   <stop offset="0" style="stop-color:#0abdc6"/>
   <stop offset="1" style="stop-color:#ea00d9"/>
  </linearGradient>
  <linearGradient id="fitdance" x1="0%" x2="0%" y1="0%" y2="100%">
   <stop offset="0%" style="stop-color:#1AD6AB"/>
   <stop offset="100%" style="stop-color:#329DB6"/>
  </linearGradient>
  <linearGradient id="oomox" x1="0%" x2="0%" y1="0%" y2="100%">
   <stop offset="0%" style="stop-color:#66b7ff"/>
   <stop offset="100%" style="stop-color:#006acc"/>
  </linearGradient>
  <linearGradient id="rainblue" x1="0%" x2="0%" y1="0%" y2="100%">
   <stop offset="0%" style="stop-color:#00F260"/>
   <stop offset="100%" style="stop-color:#0575E6"/>
  </linearGradient>
  <linearGradient id="sunrise" x1="0%" x2="0%" y1="0%" y2="100%">
   <stop offset="0%" style="stop-color:#FF8501"/>
   <stop offset="100%" style="stop-color:#FFCB01"/>
  </linearGradient>
  <linearGradient id="telinkrin" x1="0%" x2="0%" y1="0%" y2="100%">
   <stop offset="0%" style="stop-color:#b2ced6"/>
   <stop offset="100%" style="stop-color:#6da5b7"/>
  </linearGradient>
  <linearGradient id="60spsycho" x1="0%" x2="0%" y1="0%" y2="100%">
   <stop offset="0%" style="stop-color:#df5940"/>
   <stop offset="25%" style="stop-color:#d8d15f"/>
   <stop offset="50%" style="stop-color:#e9882a"/>
   <stop offset="100%" style="stop-color:#279362"/>
  </linearGradient>
  <linearGradient id="90ssummer" x1="0%" x2="0%" y1="0%" y2="100%">
   <stop offset="0%" style="stop-color:#f618c7"/>
   <stop offset="20%" style="stop-color:#94ffab"/>
   <stop offset="50%" style="stop-color:#fbfd54"/>
   <stop offset="100%" style="stop-color:#0f83ae"/>
  </linearGradient>
 </defs>
 <path fill="url(#oomox)" class="ColorScheme-Text" d="m 7.0249898,4.0000744 v 0.00195 c -2.4887083,0 -4.3597989,2.0010688 -4.4906099,4.4804688 L 2.0362913,17.943434 c -0.3150264,1.85 1.482765,3.017141 2.9943906,0.994141 0.9425788,-1.279 2.9689984,-3.9375 2.9689984,-3.9375 l 8.0006697,0.04102 2.988531,4.021484 c 1.499025,2.012 3.186861,0.357874 2.996345,-1.003906 L 21.48909,8.5840588 c 7.84e-4,-0.034624 0.0098,-0.066745 0.0098,-0.1015625 -3e-5,-2.4824 -2.002332,-4.4824219 -4.490641,-4.4824219 z m -1.0254769,2 h 2.0001674 v 2 H 9.9998477 V 10.000075 H 7.9996803 v 2 H 5.9995129 v -2 H 3.9993455 V 8.0000744 h 2.0001674 z m 11.0009211,0 a 1.0000837,1 0 0 1 1.000083,1 1.0000837,1 0 0 1 -1.000083,1 1.0000837,1 0 0 1 -1.000084,-1 1.0000837,1 0 0 1 1.000084,-1 z m -2.000168,2 A 1.0000837,1 0 0 1 16.00035,9.0000749 1.0000837,1 0 0 1 15.000266,10.000075 1.0000837,1 0 0 1 14.000183,9.0000749 1.0000837,1 0 0 1 15.000266,8.0000744 Z m 4.000335,0 a 1.0000837,1 0 0 1 1.000084,1.0000005 1.0000837,1 0 0 1 -1.000084,1.0000001 1.0000837,1 0 0 1 -1.000084,-1.0000001 1.0000837,1 0 0 1 1.000084,-1.0000005 z m -2.000167,2.0000006 a 1.0000837,1 0 0 1 1.000083,1 1.0000837,1 0 0 1 -1.000083,1 1.0000837,1 0 0 1 -1.000084,-1 1.0000837,1 0 0 1 1.000084,-1 z"/>
</svg>
