<svg xmlns="http://www.w3.org/2000/svg" width="24" height="24" version="1.1">
 <defs>
  <style id="current-color-scheme" type="text/css">
   .ColorScheme-Text { color: #939597; } .ColorScheme-Highlight { color: #1AD6AB; }
  </style>
  <linearGradient id="arrongin" x1="0%" x2="0%" y1="0%" y2="100%">
   <stop offset="0%" style="stop-color:#dd9b44"/>
   <stop offset="100%" style="stop-color:#ad6c16"/>
  </linearGradient>
  <linearGradient id="aurora" x1="0%" x2="0%" y1="0%" y2="100%">
   <stop offset="0%" style="stop-color:#09D4DF"/>
   <stop offset="100%" style="stop-color:#9269F4"/>
  </linearGradient>
  <linearGradient id="cyberneon" x1="0%" x2="0%" y1="0%" y2="100%">
   <stop offset="0" style="stop-color:#0abdc6"/>
   <stop offset="1" style="stop-color:#ea00d9"/>
  </linearGradient>
  <linearGradient id="fitdance" x1="0%" x2="0%" y1="0%" y2="100%">
   <stop offset="0%" style="stop-color:#1AD6AB"/>
   <stop offset="100%" style="stop-color:#329DB6"/>
  </linearGradient>
  <linearGradient id="oomox" x1="0%" x2="0%" y1="0%" y2="100%">
   <stop offset="0%" style="stop-color:#66b7ff"/>
   <stop offset="100%" style="stop-color:#006acc"/>
  </linearGradient>
  <linearGradient id="rainblue" x1="0%" x2="0%" y1="0%" y2="100%">
   <stop offset="0%" style="stop-color:#00F260"/>
   <stop offset="100%" style="stop-color:#0575E6"/>
  </linearGradient>
  <linearGradient id="sunrise" x1="0%" x2="0%" y1="0%" y2="100%">
   <stop offset="0%" style="stop-color:#FF8501"/>
   <stop offset="100%" style="stop-color:#FFCB01"/>
  </linearGradient>
  <linearGradient id="telinkrin" x1="0%" x2="0%" y1="0%" y2="100%">
   <stop offset="0%" style="stop-color:#b2ced6"/>
   <stop offset="100%" style="stop-color:#6da5b7"/>
  </linearGradient>
  <linearGradient id="60spsycho" x1="0%" x2="0%" y1="0%" y2="100%">
   <stop offset="0%" style="stop-color:#df5940"/>
   <stop offset="25%" style="stop-color:#d8d15f"/>
   <stop offset="50%" style="stop-color:#e9882a"/>
   <stop offset="100%" style="stop-color:#279362"/>
  </linearGradient>
  <linearGradient id="90ssummer" x1="0%" x2="0%" y1="0%" y2="100%">
   <stop offset="0%" style="stop-color:#f618c7"/>
   <stop offset="20%" style="stop-color:#94ffab"/>
   <stop offset="50%" style="stop-color:#fbfd54"/>
   <stop offset="100%" style="stop-color:#0f83ae"/>
  </linearGradient>
 </defs>
 <g>
  <path fill="url(#oomox)" class="ColorScheme-Text" d="m8 18.928a8 8 0 0 0 10.928 -2.928 8 8 0 0 0 -2.928 -10.928 8 8 0 0 0 -10.928 2.928 8 8 0 0 0 2.928 10.928zm1-1.732a6 6 0 0 1 -2.8736 -3.995 1.5 1.5 0 0 1 -0.24 -0.112 1.5 1.5 0 0 1 -0.5491 -2.049 1.5 1.5 0 0 1 0.9019 -0.695 6 6 0 0 1 0.5646 -1.345 6 6 0 0 1 2.793 -2.4898 1.5 1.5 0 0 1 0.1981 -0.6908 1.5 1.5 0 0 1 2.0491 -0.549 1.5 1.5 0 0 1 0.647 0.7572 6 6 0 0 1 2.509 0.7762 6 6 0 0 1 2.9949 5.1955 1.5 1.5 0 0 1 0.05175 0.02757 1.5 1.5 0 0 1 0.54904 2.049 1.5 1.5 0 0 1 -1.3084 0.74661 6 6 0 0 1 -0.09112 0.17742 6 6 0 0 1 -8.1962 2.1962zm0.5-0.866a5 5 0 0 0 6.83 -1.83 5 5 0 0 0 0.011 -0.019 1.5 1.5 0 0 1 -0.541 -1.191l-3.274-1.252a1.5 1.5 0 0 1 -1.892 0.328 1.5 1.5 0 0 1 -0.572 -0.592l-1.9532 0.298a1.5 1.5 0 0 1 -0.1734 0.468 1.5 1.5 0 0 1 -0.7869 0.66 5 5 0 0 0 2.3515 3.13zm-1.5419-5.247 1.9535-0.298a1.5 1.5 0 0 1 0.1734 -0.468 1.5 1.5 0 0 1 0.71 -0.6277l-0.11-1.6779a1.5 1.5 0 0 1 -0.341 -0.143 1.5 1.5 0 0 1 -0.4504 -0.3998 5 5 0 0 0 -2.2237 2.0314 5 5 0 0 0 -0.41088 0.9265 1.5 1.5 0 0 1 0.12737 0.06453 1.5 1.5 0 0 1 0.57176 0.59172zm4.9226 0.02071 3.2746 1.2501a1.5 1.5 0 0 1 0.838 -0.495 5 5 0 0 0 -2.494 -4.1891 5 5 0 0 0 -1.981 -0.636 1.5 1.5 0 0 1 -0.126 0.2855 1.5 1.5 0 0 1 -0.71 0.6277l0.1093 1.6779a1.5 1.5 0 0 1 0.34143 0.143 1.5 1.5 0 0 1 0.74675 1.3355z"/>
 </g>
</svg>
