<svg xmlns="http://www.w3.org/2000/svg" width="24" height="24" version="1.1">
 <defs>
  <style id="current-color-scheme" type="text/css">
   .ColorScheme-Text { color: #939597; } .ColorScheme-Highlight { color: #1AD6AB; }
  </style>
  <linearGradient id="arrongin" x1="0%" x2="0%" y1="0%" y2="100%">
   <stop offset="0%" style="stop-color:#dd9b44"/>
   <stop offset="100%" style="stop-color:#ad6c16"/>
  </linearGradient>
  <linearGradient id="aurora" x1="0%" x2="0%" y1="0%" y2="100%">
   <stop offset="0%" style="stop-color:#09D4DF"/>
   <stop offset="100%" style="stop-color:#9269F4"/>
  </linearGradient>
  <linearGradient id="cyberneon" x1="0%" x2="0%" y1="0%" y2="100%">
   <stop offset="0" style="stop-color:#0abdc6"/>
   <stop offset="1" style="stop-color:#ea00d9"/>
  </linearGradient>
  <linearGradient id="fitdance" x1="0%" x2="0%" y1="0%" y2="100%">
   <stop offset="0%" style="stop-color:#1AD6AB"/>
   <stop offset="100%" style="stop-color:#329DB6"/>
  </linearGradient>
  <linearGradient id="oomox" x1="0%" x2="0%" y1="0%" y2="100%">
   <stop offset="0%" style="stop-color:#66b7ff"/>
   <stop offset="100%" style="stop-color:#006acc"/>
  </linearGradient>
  <linearGradient id="rainblue" x1="0%" x2="0%" y1="0%" y2="100%">
   <stop offset="0%" style="stop-color:#00F260"/>
   <stop offset="100%" style="stop-color:#0575E6"/>
  </linearGradient>
  <linearGradient id="sunrise" x1="0%" x2="0%" y1="0%" y2="100%">
   <stop offset="0%" style="stop-color:#FF8501"/>
   <stop offset="100%" style="stop-color:#FFCB01"/>
  </linearGradient>
  <linearGradient id="telinkrin" x1="0%" x2="0%" y1="0%" y2="100%">
   <stop offset="0%" style="stop-color:#b2ced6"/>
   <stop offset="100%" style="stop-color:#6da5b7"/>
  </linearGradient>
  <linearGradient id="60spsycho" x1="0%" x2="0%" y1="0%" y2="100%">
   <stop offset="0%" style="stop-color:#df5940"/>
   <stop offset="25%" style="stop-color:#d8d15f"/>
   <stop offset="50%" style="stop-color:#e9882a"/>
   <stop offset="100%" style="stop-color:#279362"/>
  </linearGradient>
  <linearGradient id="90ssummer" x1="0%" x2="0%" y1="0%" y2="100%">
   <stop offset="0%" style="stop-color:#f618c7"/>
   <stop offset="20%" style="stop-color:#94ffab"/>
   <stop offset="50%" style="stop-color:#fbfd54"/>
   <stop offset="100%" style="stop-color:#0f83ae"/>
  </linearGradient>
 </defs>
 <g>
  <path fill="url(#oomox)" class="ColorScheme-Text" d="m18.928 16a8 8 0 0 0 -2.928 -10.928 8 8 0 0 0 -10.928 2.928 8 8 0 0 0 2.928 10.928 8 8 0 0 0 10.928 -2.928zm-1.732-1a6 6 0 0 1 -3.995 2.874 1.5 1.5 0 0 1 -0.112 0.24 1.5 1.5 0 0 1 -2.049 0.549 1.5 1.5 0 0 1 -0.695 -0.902 6 6 0 0 1 -1.345 -0.565 6 6 0 0 1 -2.4898 -2.793 1.5 1.5 0 0 1 -0.6908 -0.198 1.5 1.5 0 0 1 -0.549 -2.049 1.5 1.5 0 0 1 0.75727 -0.64758 6 6 0 0 1 0.77622 -2.5085 6 6 0 0 1 5.1955 -2.9949 1.5 1.5 0 0 1 0.02757 -0.051749 1.5 1.5 0 0 1 2.049 -0.54904 1.5 1.5 0 0 1 0.74661 1.3084 6 6 0 0 1 0.17742 0.091119 6 6 0 0 1 2.1962 8.1962zm-0.866-0.5a5 5 0 0 0 -1.83 -6.8301 5 5 0 0 0 -0.019 -0.0108 1.5 1.5 0 0 1 -1.191 0.541l-1.2518 3.2736a1.5 1.5 0 0 1 0.32831 1.8923 1.5 1.5 0 0 1 -0.59172 0.57176l0.29752 1.9534a1.5 1.5 0 0 1 0.46824 0.17336 1.5 1.5 0 0 1 0.6598 0.78688 5 5 0 0 0 3.129 -2.351zm-5.2474 1.5419-0.29751-1.9534a1.5 1.5 0 0 1 -0.468 -0.174 1.5 1.5 0 0 1 -0.6277 -0.71l-1.6779 0.11a1.5 1.5 0 0 1 -0.143 0.341 1.5 1.5 0 0 1 -0.3998 0.45 5 5 0 0 0 2.0314 2.224 5 5 0 0 0 0.9265 0.41088 1.5 1.5 0 0 1 0.06453 -0.12737 1.5 1.5 0 0 1 0.59172 -0.57176zm0.02071-4.9226 1.2501-3.2746a1.5 1.5 0 0 1 -0.495 -0.838 5 5 0 0 0 -4.1891 2.4936 5 5 0 0 0 -0.63602 1.9805 1.5 1.5 0 0 1 0.28554 0.12652 1.5 1.5 0 0 1 0.62768 0.7097l1.6779-0.1093a1.5 1.5 0 0 1 0.143 -0.34143 1.5 1.5 0 0 1 1.3355 -0.74675z"/>
 </g>
</svg>
