<svg xmlns="http://www.w3.org/2000/svg" width="24" height="24" version="1.1">
 <defs>
  <style id="current-color-scheme" type="text/css">
   .ColorScheme-Text { color: #939597; } .ColorScheme-Highlight { color: #1AD6AB; }
  </style>
  <linearGradient id="arrongin" x1="0%" x2="0%" y1="0%" y2="100%">
   <stop offset="0%" style="stop-color:#dd9b44"/>
   <stop offset="100%" style="stop-color:#ad6c16"/>
  </linearGradient>
  <linearGradient id="aurora" x1="0%" x2="0%" y1="0%" y2="100%">
   <stop offset="0%" style="stop-color:#09D4DF"/>
   <stop offset="100%" style="stop-color:#9269F4"/>
  </linearGradient>
  <linearGradient id="cyberneon" x1="0%" x2="0%" y1="0%" y2="100%">
   <stop offset="0" style="stop-color:#0abdc6"/>
   <stop offset="1" style="stop-color:#ea00d9"/>
  </linearGradient>
  <linearGradient id="fitdance" x1="0%" x2="0%" y1="0%" y2="100%">
   <stop offset="0%" style="stop-color:#1AD6AB"/>
   <stop offset="100%" style="stop-color:#329DB6"/>
  </linearGradient>
  <linearGradient id="oomox" x1="0%" x2="0%" y1="0%" y2="100%">
   <stop offset="0%" style="stop-color:#66b7ff"/>
   <stop offset="100%" style="stop-color:#006acc"/>
  </linearGradient>
  <linearGradient id="rainblue" x1="0%" x2="0%" y1="0%" y2="100%">
   <stop offset="0%" style="stop-color:#00F260"/>
   <stop offset="100%" style="stop-color:#0575E6"/>
  </linearGradient>
  <linearGradient id="sunrise" x1="0%" x2="0%" y1="0%" y2="100%">
   <stop offset="0%" style="stop-color:#FF8501"/>
   <stop offset="100%" style="stop-color:#FFCB01"/>
  </linearGradient>
  <linearGradient id="telinkrin" x1="0%" x2="0%" y1="0%" y2="100%">
   <stop offset="0%" style="stop-color:#b2ced6"/>
   <stop offset="100%" style="stop-color:#6da5b7"/>
  </linearGradient>
  <linearGradient id="60spsycho" x1="0%" x2="0%" y1="0%" y2="100%">
   <stop offset="0%" style="stop-color:#df5940"/>
   <stop offset="25%" style="stop-color:#d8d15f"/>
   <stop offset="50%" style="stop-color:#e9882a"/>
   <stop offset="100%" style="stop-color:#279362"/>
  </linearGradient>
  <linearGradient id="90ssummer" x1="0%" x2="0%" y1="0%" y2="100%">
   <stop offset="0%" style="stop-color:#f618c7"/>
   <stop offset="20%" style="stop-color:#94ffab"/>
   <stop offset="50%" style="stop-color:#fbfd54"/>
   <stop offset="100%" style="stop-color:#0f83ae"/>
  </linearGradient>
 </defs>
 <path fill="url(#oomox)" class="ColorScheme-Text" d="m10.027 6.0016c-0.39175 0.011183-0.78982 0.083986-1.1855 0.21875-1.6926 0.57493-2.9693 2.2417-3.3477 4.3125-1.111 0.26797-2.0486 1.2484-2.377 2.6562-0.46544 1.9998 0.50365 4.0611 2.1582 4.623 0.027025 0.008 0.034474 0.02425 0.0625 0.03125 0.22821 0.09898 0.49276 0.15625 0.75 0.15625h11.98c0.4294 0 0.82289-0.14728 1.1582-0.40625 1.3413-0.77391 2.0726-2.6175 1.6562-4.4043-0.30729-1.3208-1.1675-2.29-2.1895-2.625-0.009-0.044 0.01001-0.08101 0-0.125-0.46544-1.9998-2.1931-3.1557-3.8477-2.5937-0.3173 0.10799-0.60875 0.25477-0.875 0.46875-0.91147-1.4802-2.3947-2.3527-3.9414-2.3125h-0.0019zm-0.68555 3.998h1.3418c0.1826 0 0.31641 0.21678 0.31641 0.46875v5.0625c0 0.25197-0.13381 0.46875-0.31641 0.46875h-1.3418c-0.1826 0-0.3418-0.21678-0.3418-0.46875v-5.0625c0-0.25197 0.1592-0.46875 0.3418-0.46875zm3 0h1.3418c0.1826 0 0.31641 0.21678 0.31641 0.46875v5.0625c0 0.25197-0.13381 0.46875-0.31641 0.46875h-1.3418c-0.1826 0-0.3418-0.21678-0.3418-0.46875v-5.0625c0-0.25197 0.1592-0.46875 0.3418-0.46875z"/>
</svg>
