<svg xmlns="http://www.w3.org/2000/svg" width="16" height="16" version="1.1">
 <defs>
   <style id="current-color-scheme" type="text/css">
   .ColorScheme-Text { color: #d3dae3; } .ColorScheme-Highlight { color:#5294e2; }
  </style>
  <linearGradient id="arrongin" x1="0%" x2="0%" y1="0%" y2="100%">
   <stop offset="0%" style="stop-color:#dd9b44; stop-opacity:1"/>
   <stop offset="100%" style="stop-color:#ad6c16; stop-opacity:1"/>
  </linearGradient>
  <linearGradient id="aurora" x1="0%" x2="0%" y1="0%" y2="100%">
   <stop offset="0%" style="stop-color:#09D4DF; stop-opacity:1"/>
   <stop offset="100%" style="stop-color:#9269F4; stop-opacity:1"/>
  </linearGradient>
  <linearGradient id="cyberneon" x1="0%" x2="0%" y1="0%" y2="100%">
    <stop offset="0" style="stop-color:#0abdc6; stop-opacity:1"/>
    <stop offset="1" style="stop-color:#ea00d9; stop-opacity:1"/>
  </linearGradient>
  <linearGradient id="fitdance" x1="0%" x2="0%" y1="0%" y2="100%">
   <stop offset="0%" style="stop-color:#1AD6AB; stop-opacity:1"/>
   <stop offset="100%" style="stop-color:#329DB6; stop-opacity:1"/>
  </linearGradient>
  <linearGradient id="oomox" x1="0%" x2="0%" y1="0%" y2="100%">
   <stop offset="0%" style="stop-color:#a4d8d4; stop-opacity:1"/>
   <stop offset="100%" style="stop-color:#318c85; stop-opacity:1"/>
  </linearGradient>
  <linearGradient id="rainblue" x1="0%" x2="0%" y1="0%" y2="100%">
   <stop offset="0%" style="stop-color:#00F260; stop-opacity:1"/>
   <stop offset="100%" style="stop-color:#0575E6; stop-opacity:1"/>
  </linearGradient>
  <linearGradient id="sunrise" x1="0%" x2="0%" y1="0%" y2="100%">
   <stop offset="0%" style="stop-color: #FF8501; stop-opacity:1"/>
   <stop offset="100%" style="stop-color: #FFCB01; stop-opacity:1"/>
  </linearGradient>
  <linearGradient id="telinkrin" x1="0%" x2="0%" y1="0%" y2="100%">
   <stop offset="0%" style="stop-color: #b2ced6; stop-opacity:1"/>
   <stop offset="100%" style="stop-color: #6da5b7; stop-opacity:1"/>
  </linearGradient>
  <linearGradient id="60spsycho" x1="0%" x2="0%" y1="0%" y2="100%">
   <stop offset="0%" style="stop-color: #df5940; stop-opacity:1"/>
   <stop offset="25%" style="stop-color: #d8d15f; stop-opacity:1"/>
   <stop offset="50%" style="stop-color: #e9882a; stop-opacity:1"/>
   <stop offset="100%" style="stop-color: #279362; stop-opacity:1"/>
  </linearGradient>
  <linearGradient id="90ssummer" x1="0%" x2="0%" y1="0%" y2="100%">
   <stop offset="0%" style="stop-color: #f618c7; stop-opacity:1"/>
   <stop offset="20%" style="stop-color: #94ffab; stop-opacity:1"/>
   <stop offset="50%" style="stop-color: #fbfd54; stop-opacity:1"/>
   <stop offset="100%" style="stop-color: #0f83ae; stop-opacity:1"/>
  </linearGradient>
 </defs>
 <path fill="url(#oomox)" class="ColorScheme-Text" d="m 14.666428,15.491212 c -0.14962,-0.01986 -0.27633,-0.0873 -0.379,-0.195392 -0.22646,-0.239002 -0.5988,-0.940516 -0.90437,-1.704191 -0.1715,-0.428643 -0.49986,-1.37261 -0.49986,-1.437053 0,-0.01986 0.21661,-0.160914 0.48135,-0.312322 l 0.48135,-0.275456 0.0756,0.0697 c 0.29891,0.275859 1.1599,1.540112 1.66181,2.440242 0.20074,0.359875 0.22093,0.41136 0.22012,0.559828 -10e-4,0.197781 -0.0643,0.335711 -0.24326,0.531417 -0.21447,0.234638 -0.58414,0.368202 -0.89372,0.323422 z M 0.36000846,15.256182 c 0.009,-0.02379 0.15553,-0.673771 0.32558,-1.443512 0.17001,-0.76978 0.31285,-1.404276 0.31737004,-1.410027 0.0154,-0.01986 1.55341,1.041432 1.5531,1.071151 -1.6e-4,0.01583 -0.44478,0.391983 -0.98801,0.834823 -1.22309004,0.99731 -1.22812004,1.001272 -1.20803004,0.947565 z M 1.9889385,12.540406 c -0.42858,-0.291304 -0.77584,-0.541996 -0.77169,-0.557008 0.01,-0.03569 3.69184,-6.1630995 3.72222,-6.1942147 0.017,-0.015828 1.6256,0.9772941 1.701,1.0514103 0.0161,0.015828 -3.81196,6.2157744 -3.84233,6.2227154 -0.0165,0.0039 -0.38062,-0.231472 -0.8092,-0.522903 z M 12.094228,10.921243 c -0.29382,-0.486991 -0.52983,-0.888432 -0.52449,-0.892168 0.0523,-0.035687 1.16563,-0.6655018 1.17752,-0.6655018 0.0186,0 0.95307,1.8301168 0.93936,1.8395058 -0.12054,0.08288 -1.01258,0.605651 -1.0315,0.604816 -0.0145,-7.18e-4 -0.26708,-0.399662 -0.56089,-0.886652 z M 0.01163846,10.829322 c -0.01,-0.08523 -0.0145,-0.770763 -0.01,-1.5237421 l 0.009,-1.3690316 1.54347004,0.00885 c 0.84892,0.00393 1.54706,0.011896 1.55141,0.015828 0.004,0.00393 -0.40416,0.6857939 -0.90782,1.514708 l -0.91574,1.5071677 h -0.62601004 -0.62601 z m 4.62968004,0.110973 c 0,-0.0088 0.41925,-0.69063 0.93166,-1.5174013 l 0.93165,-1.5032253 h 1.65348 1.65346 l 0.8839495,1.4473457 c 0.48617,0.7960589 0.90124,1.4788739 0.92237,1.5174019 l 0.0383,0.07019 H 8.1486885 c -1.92913,0 -3.5075,-0.0088 -3.5075,-0.01583 z m 9.0225195,-0.641397 c -0.17808,-0.3606709 -0.51317,-1.036791 -0.74469,-1.5026841 l -0.42095,-0.8471015 1.14405,-8.85e-5 c 0.62924,0 1.41716,-0.00885 1.75096,-0.019859 l 0.6069,-0.019859 v 1.5220714 1.5220607 h -1.00627 -1.00627 l -0.32373,-0.655543 z M 11.109448,9.3265888 C 10.431758,8.2769186 9.7415085,7.0437422 8.9118685,5.4004737 c -0.65815,-1.3035666 -1.29151,-2.6512452 -1.5529,-3.304223 -0.37872,-0.9461002 -0.46911,-1.53415378 -0.24434,-1.58960086 0.35957,-0.0888726 1.0633,0.71409736 2.065,2.35569466 0.78474,1.2860477 2.0403795,3.5333453 2.9985195,5.3667068 0.17787,0.340449 0.3551,0.6737803 0.39384,0.7410246 l 0.0705,0.1224751 -0.59716,0.3416484 c -0.32844,0.1878712 -0.60809,0.3416386 -0.62146,0.3416386 -0.0133,0 -0.15485,-0.2021263 -0.31437,-0.4492885 z m -5.1877495,-3.2524134 -0.83252,-0.5396161 0.0786,-0.1224751 c 0.0432,-0.067343 0.26128,-0.4090598 0.48456,-0.7594283 0.22326,-0.3503587 0.40944,-0.6412003 0.41371,-0.6463124 0.004,-0.00393 0.37929,0.2310688 0.83337,0.5250661 l 0.82561,0.5343565 -0.12284,0.1969747 c -0.0675,0.1082005 -0.27087,0.435466 -0.45185,0.7271334 -0.18092,0.2917067 -0.34408,0.551433 -0.36255,0.5771903 -0.029,0.040406 -0.14775,-0.027822 -0.86608,-0.4927712 z m 1.06255,-1.7519015 c -0.43146,-0.2770486 -0.78447,-0.5168278 -0.78447,-0.532931 0,-0.1169108 0.35671,-0.4420331 0.53246,-0.4853979 0.28926,-0.071275 0.76366,0.1109827 1.0279,0.3951489 0.20424,0.2195862 0.24894,0.3269805 0.22988,0.5521114 -0.0145,0.1696248 -0.15514,0.5746145 -0.19977,0.5746145 -0.0117,0 -0.37456,-0.2267038 -0.80601,-0.5036737 z"/>
</svg>
