<svg xmlns="http://www.w3.org/2000/svg" width="16" height="16" version="1.1">
 <defs>
   <style id="current-color-scheme" type="text/css">
   .ColorScheme-Text { color: #d3dae3; } .ColorScheme-Highlight { color:#5294e2; }
  </style>
  <linearGradient id="arrongin" x1="0%" x2="0%" y1="0%" y2="100%">
   <stop offset="0%" style="stop-color:#dd9b44; stop-opacity:1"/>
   <stop offset="100%" style="stop-color:#ad6c16; stop-opacity:1"/>
  </linearGradient>
  <linearGradient id="aurora" x1="0%" x2="0%" y1="0%" y2="100%">
   <stop offset="0%" style="stop-color:#09D4DF; stop-opacity:1"/>
   <stop offset="100%" style="stop-color:#9269F4; stop-opacity:1"/>
  </linearGradient>
  <linearGradient id="cyberneon" x1="0%" x2="0%" y1="0%" y2="100%">
    <stop offset="0" style="stop-color:#0abdc6; stop-opacity:1"/>
    <stop offset="1" style="stop-color:#ea00d9; stop-opacity:1"/>
  </linearGradient>
  <linearGradient id="fitdance" x1="0%" x2="0%" y1="0%" y2="100%">
   <stop offset="0%" style="stop-color:#1AD6AB; stop-opacity:1"/>
   <stop offset="100%" style="stop-color:#329DB6; stop-opacity:1"/>
  </linearGradient>
  <linearGradient id="oomox" x1="0%" x2="0%" y1="0%" y2="100%">
   <stop offset="0%" style="stop-color:#a4d8d4; stop-opacity:1"/>
   <stop offset="100%" style="stop-color:#318c85; stop-opacity:1"/>
  </linearGradient>
  <linearGradient id="rainblue" x1="0%" x2="0%" y1="0%" y2="100%">
   <stop offset="0%" style="stop-color:#00F260; stop-opacity:1"/>
   <stop offset="100%" style="stop-color:#0575E6; stop-opacity:1"/>
  </linearGradient>
  <linearGradient id="sunrise" x1="0%" x2="0%" y1="0%" y2="100%">
   <stop offset="0%" style="stop-color: #FF8501; stop-opacity:1"/>
   <stop offset="100%" style="stop-color: #FFCB01; stop-opacity:1"/>
  </linearGradient>
  <linearGradient id="telinkrin" x1="0%" x2="0%" y1="0%" y2="100%">
   <stop offset="0%" style="stop-color: #b2ced6; stop-opacity:1"/>
   <stop offset="100%" style="stop-color: #6da5b7; stop-opacity:1"/>
  </linearGradient>
  <linearGradient id="60spsycho" x1="0%" x2="0%" y1="0%" y2="100%">
   <stop offset="0%" style="stop-color: #df5940; stop-opacity:1"/>
   <stop offset="25%" style="stop-color: #d8d15f; stop-opacity:1"/>
   <stop offset="50%" style="stop-color: #e9882a; stop-opacity:1"/>
   <stop offset="100%" style="stop-color: #279362; stop-opacity:1"/>
  </linearGradient>
  <linearGradient id="90ssummer" x1="0%" x2="0%" y1="0%" y2="100%">
   <stop offset="0%" style="stop-color: #f618c7; stop-opacity:1"/>
   <stop offset="20%" style="stop-color: #94ffab; stop-opacity:1"/>
   <stop offset="50%" style="stop-color: #fbfd54; stop-opacity:1"/>
   <stop offset="100%" style="stop-color: #0f83ae; stop-opacity:1"/>
  </linearGradient>
 </defs>
 <path fill="url(#oomox)" class="ColorScheme-Text" d="M 3.9941406 0.5 C 2.7361406 0.515 1.8155 0.46976562 1.0625 0.88476562 A 1.88 1.88 0 0 0 0.22460938 1.8828125 C 0.12383387 2.1503257 0.07175441 2.4648393 0.0390625 2.8066406 A 0.5 0.5 0 0 0 0 3 L 0 8.5 L 0 9.5 C 0 10.158 0.059609375 10.679188 0.22460938 11.117188 C 0.38860938 11.556188 0.6865 11.907234 1.0625 12.115234 C 1.8155 12.531234 2.7361406 12.485 3.9941406 12.5 L 6 12.5 L 6 13 C 6 14.5 5.5 14.5 4.5 14.5 L 4 14.5 L 4 15.5 L 12 15.5 L 12 14.5 L 11.5 14.5 C 10.5 14.5 10 14.5 10 13 L 10 12.5 L 13.5 12.5 A 0.5 0.5 0 0 0 13.71875 12.447266 C 14.175186 12.402425 14.57676 12.314049 14.9375 12.115234 A 1.88 1.88 0 0 0 15.775391 11.117188 C 15.939391 10.679187 16 10.157 16 9.5 L 16 3.5 C 16 2.842 15.940391 2.3208125 15.775391 1.8828125 A 1.88 1.88 0 0 0 14.9375 0.88476562 C 14.1845 0.46876562 13.263859 0.515 12.005859 0.5 L 3.9980469 0.5 L 3.9941406 0.5 z M 4 1.5 L 12 1.5 C 13.259 1.515 14.087125 1.5597188 14.453125 1.7617188 C 14.637125 1.8617188 14.742844 1.974375 14.839844 2.234375 C 14.936844 2.494375 15 2.908 15 3.5 L 15 9.5 C 15 10.092 14.936844 10.505625 14.839844 10.765625 C 14.741844 11.025625 14.637125 11.137281 14.453125 11.238281 C 14.271113 11.338736 13.973119 11.401034 13.566406 11.439453 L 1.0410156 2.7675781 C 1.0689807 2.547653 1.1100294 2.3687356 1.1601562 2.234375 C 1.2581563 1.974375 1.3619219 1.8627188 1.5449219 1.7617188 C 1.9109219 1.5597188 2.741 1.515 4 1.5 z M 1 3.953125 L 11.900391 11.5 L 6 11.5 L 4 11.5 C 2.741 11.485 1.9099219 11.440281 1.5449219 11.238281 C 1.3619219 11.138281 1.2581562 11.025625 1.1601562 10.765625 C 1.0631563 10.505625 1 10.092 1 9.5 L 1 3.953125 z M 2.4726562 6.5 A 0.5 0.5 0 0 0 2 7 L 2 10 A 0.5 0.5 0 0 0 2.5 10.5 L 6.5 10.5 A 0.5 0.5 0 0 0 6.8007812 9.5996094 L 2.8007812 6.5996094 A 0.5 0.5 0 0 0 2.4726562 6.5 z M 3 8 L 4.9980469 9.5 L 3 9.5 L 3 8 z"/>
</svg>
