<svg xmlns="http://www.w3.org/2000/svg" width="16" height="16" version="1.1">
 <defs>
   <style id="current-color-scheme" type="text/css">
   .ColorScheme-Text { color: #d3dae3; } .ColorScheme-Highlight { color:#5294e2; }
  </style>
  <linearGradient id="arrongin" x1="0%" x2="0%" y1="0%" y2="100%">
   <stop offset="0%" style="stop-color:#dd9b44; stop-opacity:1"/>
   <stop offset="100%" style="stop-color:#ad6c16; stop-opacity:1"/>
  </linearGradient>
  <linearGradient id="aurora" x1="0%" x2="0%" y1="0%" y2="100%">
   <stop offset="0%" style="stop-color:#09D4DF; stop-opacity:1"/>
   <stop offset="100%" style="stop-color:#9269F4; stop-opacity:1"/>
  </linearGradient>
  <linearGradient id="cyberneon" x1="0%" x2="0%" y1="0%" y2="100%">
    <stop offset="0" style="stop-color:#0abdc6; stop-opacity:1"/>
    <stop offset="1" style="stop-color:#ea00d9; stop-opacity:1"/>
  </linearGradient>
  <linearGradient id="fitdance" x1="0%" x2="0%" y1="0%" y2="100%">
   <stop offset="0%" style="stop-color:#1AD6AB; stop-opacity:1"/>
   <stop offset="100%" style="stop-color:#329DB6; stop-opacity:1"/>
  </linearGradient>
  <linearGradient id="oomox" x1="0%" x2="0%" y1="0%" y2="100%">
   <stop offset="0%" style="stop-color:#a4d8d4; stop-opacity:1"/>
   <stop offset="100%" style="stop-color:#318c85; stop-opacity:1"/>
  </linearGradient>
  <linearGradient id="rainblue" x1="0%" x2="0%" y1="0%" y2="100%">
   <stop offset="0%" style="stop-color:#00F260; stop-opacity:1"/>
   <stop offset="100%" style="stop-color:#0575E6; stop-opacity:1"/>
  </linearGradient>
  <linearGradient id="sunrise" x1="0%" x2="0%" y1="0%" y2="100%">
   <stop offset="0%" style="stop-color: #FF8501; stop-opacity:1"/>
   <stop offset="100%" style="stop-color: #FFCB01; stop-opacity:1"/>
  </linearGradient>
  <linearGradient id="telinkrin" x1="0%" x2="0%" y1="0%" y2="100%">
   <stop offset="0%" style="stop-color: #b2ced6; stop-opacity:1"/>
   <stop offset="100%" style="stop-color: #6da5b7; stop-opacity:1"/>
  </linearGradient>
  <linearGradient id="60spsycho" x1="0%" x2="0%" y1="0%" y2="100%">
   <stop offset="0%" style="stop-color: #df5940; stop-opacity:1"/>
   <stop offset="25%" style="stop-color: #d8d15f; stop-opacity:1"/>
   <stop offset="50%" style="stop-color: #e9882a; stop-opacity:1"/>
   <stop offset="100%" style="stop-color: #279362; stop-opacity:1"/>
  </linearGradient>
  <linearGradient id="90ssummer" x1="0%" x2="0%" y1="0%" y2="100%">
   <stop offset="0%" style="stop-color: #f618c7; stop-opacity:1"/>
   <stop offset="20%" style="stop-color: #94ffab; stop-opacity:1"/>
   <stop offset="50%" style="stop-color: #fbfd54; stop-opacity:1"/>
   <stop offset="100%" style="stop-color: #0f83ae; stop-opacity:1"/>
  </linearGradient>
 </defs>
 <path fill="url(#oomox)" class="ColorScheme-Text" d="m 7.9692226,-1.5e-5 c -0.56153,0 -0.91949,0.41791 -0.95583,0.96829 v 0.99953 0.12494 c 0.0514,0.50367 0.47646,0.90582 0.98666,0.90582 0.12756,0 0.25793,-0.0169 0.37,-0.0625 0.33719,-0.13672 0.5781,-0.46559 0.61667,-0.84335 v -0.12494 -0.96829 c 0,-0.55161 -0.45597,-0.99953 -1.01745,-0.99953 z m -1.91167,2.34269 c -0.64979,0.23303 -1.26135,0.59993 -1.78833,1.03071 0.22804,0.16698 0.41931,0.36918 0.555,0.6247 0.004,0.007 -0.004,0.0239 0,0.0312 0.0615,0.12031 0.11999,0.24088 0.15417,0.37482 0.003,0.01 -0.002,0.0216 0,0.0312 0.0322,0.13498 0.0617,0.29234 0.0617,0.4373 0,0.12722 -0.007,0.25485 -0.0308,0.37482 -0.0238,0.11996 -0.078,0.23335 -0.12333,0.34358 -0.27148,0.66144 -0.89341,1.12447 -1.63411,1.12447 -0.35407,0 -0.64727,-0.0982 -0.925,-0.28112 -0.0398,0.11403 -0.0987,0.22139 -0.12334,0.34359 -0.002,0.009 0.002,0.0219 0,0.0312 -0.0365,0.18551 -0.0733,0.37098 -0.0924,0.56223 -9.8e-4,0.0108 9.9e-4,0.0204 0,0.0312 -0.0183,0.19183 -0.0309,0.39679 -0.0309,0.59347 0,0.0103 -5e-5,0.0209 0,0.0312 -5e-5,0.0103 0,0.0209 0,0.0312 0.002,0.18591 0.0126,0.38074 0.0308,0.56224 0.002,0.0208 -0.002,0.0417 0,0.0625 0.0199,0.18035 0.0571,0.35584 0.0924,0.53099 0.0328,0.1728 0.0751,0.33364 0.12333,0.49977 0.36603,-0.21501 0.78358,-0.29855 1.04833,-0.31236 0.35744,-0.0186 0.69108,0.0872 0.95583,0.28112 0.26475,0.19401 0.4634,0.45014 0.58583,0.78088 0.0409,0.10913 0.0711,0.22442 0.0924,0.34359 0.0247,0.12852 0.0308,0.23831 0.0308,0.37482 0,0.50631 -0.40934,1.17294 -0.70917,1.49929 0.12148,0.0961 0.23989,0.19299 0.37,0.28111 0.15546,0.10529 0.29706,0.22194 0.4625,0.31235 0.23487,0.12925 0.4873,0.24699 0.74,0.34359 0.0482,0.0183 0.10182,0.0226 0.15417,0.0312 -0.0139,-0.0688 -0.0308,-0.14694 -0.0308,-0.21865 0,-0.79433 0.88349,-1.43682 1.97333,-1.43682 1.08984,0 1.97333,0.64249 1.97333,1.43682 0,0.0717 -0.017,0.14989 -0.0308,0.21865 0.2966504,-0.10337 0.5908904,-0.22657 0.8633304,-0.37483 0.21032,-0.11249 0.39167,-0.23845 0.58583,-0.37482 0.0602,-0.0429 0.1265,-0.0799 0.185,-0.12494 0.0462,-0.0352 0.0785,-0.0875 0.12333,-0.12494 -0.14048,-0.11087 -0.24699,-0.22392 -0.33916,-0.34359 -0.18709,-0.23698 -0.29641,-0.49498 -0.33917,-0.74964 -0.0219,-0.12752 -0.0308,-0.24824 -0.0308,-0.37482 0,-0.24245 0.0546,-0.4811 0.12333,-0.68717 0.003,-0.009 -0.003,-0.0222 0,-0.0312 0.0374,-0.10661 0.0694,-0.187 0.12333,-0.28112 0.0549,-0.0931 0.11482,-0.17091 0.185,-0.24988 0.0733,-0.0874 0.15723,-0.14961 0.24667,-0.21864 0.16611,-0.12821 0.34186,-0.22632 0.555,-0.28112 0.10657,-0.0274 0.22293,-0.0559 0.33916,-0.0625 0.2775,-0.0156 0.74397,0.0974 1.11,0.31235 0.0446,-0.15676 0.0924,-0.30582 0.12334,-0.46853 0.0354,-0.17515 0.0725,-0.35064 0.0924,-0.53099 0.002,-0.0208 -0.002,-0.0417 0,-0.0625 0.0181,-0.1815 0.029,-0.37633 0.0308,-0.56224 0,-0.22877 -0.005,-0.46587 -0.0308,-0.68717 -0.0191,-0.19125 -0.056,-0.37672 -0.0924,-0.56223 -0.002,-0.009 0.002,-0.0219 0,-0.0312 -0.0267,-0.13217 -0.0801,-0.2515 -0.12334,-0.37482 -0.27773,0.18305 -0.57093,0.28112 -0.925,0.28112 -0.49383,0 -0.94053,-0.19751 -1.26411,-0.531 -0.0809,-0.0834 -0.15156,-0.18308 -0.21583,-0.28112 -0.19278,-0.29412 -0.30829,-0.64909 -0.30829,-1.03071 0,-0.31023 0.0856,-0.59612 0.21584,-0.84335 0.0652,-0.12475 0.12598,-0.23742 0.21583,-0.34359 0.0916,-0.10463 0.19431,-0.19762 0.30833,-0.28111 -0.52713,-0.43231 -1.10694,-0.80126 -1.7574504,-1.03071 0.0138,0.0688 0.0308,0.14698 0.0308,0.21864 0,0.79434 -0.88349,1.43682 -1.97333,1.43682 -0.68115,0 -1.27951,-0.24254 -1.63412,-0.6247 -0.0709,-0.0765 -0.13507,-0.16391 -0.18499,-0.24988 -0.0998,-0.17194 -0.15412,-0.36365 -0.15412,-0.56224 0,-0.0717 0.0169,-0.14988 0.0308,-0.21864 z m -4.28587,0.68717 c -0.24433,0.0619 -0.46866,0.22684 -0.61667,0.46853 -0.29603004,0.48339 -0.15436,1.11477 0.30834,1.40553 l 0.80166,0.49976 0.30834,0.18741 c 0.12492,0.0462 0.26002,0.0937 0.40083,0.0937 0.15113,0 0.30215,-0.0409 0.43166,-0.0937 0.12951,-0.0529 0.24205,-0.12484 0.33917,-0.21864 0.19422,-0.18761 0.30833,-0.43808 0.30833,-0.71841 0,-0.29517 -0.12636,-0.5995 -0.33916,-0.78088 l -0.37,-0.21865 -0.8325,-0.49976 c -0.23135,-0.14541 -0.49567,-0.18677 -0.74,-0.12494 z m 12.0866404,0 c -0.12575,0.0192 -0.25432,0.0523 -0.37,0.12494 l -0.83249,0.49976 -0.37,0.21865 c -0.011,0.009 -0.0203,0.0215 -0.0308,0.0312 -0.21285,0.18138 -0.30838,0.42323 -0.30838,0.7184 0,0.28033 0.11411,0.5308 0.30833,0.71841 0.0971,0.0939 0.20966,0.16581 0.33917,0.21865 0.12951,0.0529 0.28054,0.0937 0.43167,0.0937 0.1408,0 0.27591,-0.0163 0.40083,-0.0625 l 0.30833,-0.18741 0.80167,-0.49976 c 0.46269,-0.29079 0.60437,-0.92219 0.30833,-1.40553 -0.22201,-0.36254 -0.60942,-0.52608 -0.98667,-0.46853 z m -5.8607904,2.96859 c 1.08987,0 1.97333,0.89501 1.97333,1.99905 0,1.10405 -0.88348,1.99905 -1.97333,1.99905 -0.54491,0 -1.03037,-0.23171 -1.38744,-0.59347 -0.0893,-0.0904 -0.17575,-0.17476 -0.24667,-0.28111 -0.21277,-0.31905 -0.33917,-0.71046 -0.33917,-1.12447 0,-0.138 0.005,-0.27592 0.0308,-0.40606 0.18405,-0.91093 0.98893,-1.59304 1.94254,-1.59304 z m 0,0.99953 c -0.40957,0 -0.74465,0.26595 -0.89416,0.6247 -0.0499,0.11958 -0.0924,0.23682 -0.0924,0.37482 0,0.55205 0.44056,0.99953 0.98666,0.99953 0.54611,0 0.98667,-0.44748 0.98667,-0.99953 0,-0.55205 -0.44056,-0.99952 -0.98667,-0.99952 z m -5.02587,3.34221 c -0.23029,0.0254 -0.29072,0.0845 -0.40083,0.12494 l -0.21583,0.12494 -0.80167,0.49976 c -0.46269,0.29079 -0.60437004,0.92219 -0.30833,1.40553 0.29602,0.48339 0.9248,0.63441 1.38745,0.34359 l 0.80166,-0.49976 0.2775,-0.18741 c 0.13421,-0.143 0.25908,-0.30288 0.30833,-0.49976 0.0184,-0.0631 0.0308,-0.11889 0.0308,-0.18742 0,-0.15437 -0.0325,-0.29174 -0.0924,-0.43729 -0.0509,-0.12927 -0.12675,-0.23964 -0.21584,-0.34358 -0.0964,-0.10885 -0.21056,-0.22386 -0.33916,-0.28112 -0.1286,-0.0573 -0.2815,-0.0791 -0.43167,-0.0625 z m 10.0827304,0.0625 c -0.57898,0 -1.04833,0.48065 -1.04833,1.06199 0,0.27409 0.0757,0.47378 0.24666,0.65594 l 0.30834,0.21865 0.80166,0.49976 c 0.4627,0.29082 1.09145,0.1398 1.38745,-0.34359 0.29604,-0.48339 0.15436,-1.11477 -0.30833,-1.40553 l -0.80167,-0.49976 c -0.0705,-0.0421 -0.13718,-0.0884 -0.21583,-0.12494 -0.11011,-0.0401 -0.2464,-0.0625 -0.37,-0.0625 z m -5.0615904,2.59876 c -0.12756,0 -0.25134,0.0162 -0.37,0.0625 -0.11866,0.0463 -0.24259,0.13593 -0.33917,0.21865 -0.19314,0.16545 -0.31345,0.37287 -0.33916,0.6247 v 0.12494 0.96829 c 0,0.55161 0.45596,0.99953 1.01745,0.99953 0.56153,0 1.01744,-0.44792 1.01744,-0.99953 v -0.96829 -0.12494 c -0.0515,-0.50367 -0.47646,-0.90582 -0.98666,-0.90582 z"/>
</svg>
