<svg xmlns="http://www.w3.org/2000/svg" width="16" height="16" version="1.1">
 <defs>
   <style id="current-color-scheme" type="text/css">
   .ColorScheme-Text { color: #d3dae3; } .ColorScheme-Highlight { color:#5294e2; }
  </style>
  <linearGradient id="arrongin" x1="0%" x2="0%" y1="0%" y2="100%">
   <stop offset="0%" style="stop-color:#dd9b44; stop-opacity:1"/>
   <stop offset="100%" style="stop-color:#ad6c16; stop-opacity:1"/>
  </linearGradient>
  <linearGradient id="aurora" x1="0%" x2="0%" y1="0%" y2="100%">
   <stop offset="0%" style="stop-color:#09D4DF; stop-opacity:1"/>
   <stop offset="100%" style="stop-color:#9269F4; stop-opacity:1"/>
  </linearGradient>
  <linearGradient id="cyberneon" x1="0%" x2="0%" y1="0%" y2="100%">
    <stop offset="0" style="stop-color:#0abdc6; stop-opacity:1"/>
    <stop offset="1" style="stop-color:#ea00d9; stop-opacity:1"/>
  </linearGradient>
  <linearGradient id="fitdance" x1="0%" x2="0%" y1="0%" y2="100%">
   <stop offset="0%" style="stop-color:#1AD6AB; stop-opacity:1"/>
   <stop offset="100%" style="stop-color:#329DB6; stop-opacity:1"/>
  </linearGradient>
  <linearGradient id="oomox" x1="0%" x2="0%" y1="0%" y2="100%">
   <stop offset="0%" style="stop-color:#a4d8d4; stop-opacity:1"/>
   <stop offset="100%" style="stop-color:#318c85; stop-opacity:1"/>
  </linearGradient>
  <linearGradient id="rainblue" x1="0%" x2="0%" y1="0%" y2="100%">
   <stop offset="0%" style="stop-color:#00F260; stop-opacity:1"/>
   <stop offset="100%" style="stop-color:#0575E6; stop-opacity:1"/>
  </linearGradient>
  <linearGradient id="sunrise" x1="0%" x2="0%" y1="0%" y2="100%">
   <stop offset="0%" style="stop-color: #FF8501; stop-opacity:1"/>
   <stop offset="100%" style="stop-color: #FFCB01; stop-opacity:1"/>
  </linearGradient>
  <linearGradient id="telinkrin" x1="0%" x2="0%" y1="0%" y2="100%">
   <stop offset="0%" style="stop-color: #b2ced6; stop-opacity:1"/>
   <stop offset="100%" style="stop-color: #6da5b7; stop-opacity:1"/>
  </linearGradient>
  <linearGradient id="60spsycho" x1="0%" x2="0%" y1="0%" y2="100%">
   <stop offset="0%" style="stop-color: #df5940; stop-opacity:1"/>
   <stop offset="25%" style="stop-color: #d8d15f; stop-opacity:1"/>
   <stop offset="50%" style="stop-color: #e9882a; stop-opacity:1"/>
   <stop offset="100%" style="stop-color: #279362; stop-opacity:1"/>
  </linearGradient>
  <linearGradient id="90ssummer" x1="0%" x2="0%" y1="0%" y2="100%">
   <stop offset="0%" style="stop-color: #f618c7; stop-opacity:1"/>
   <stop offset="20%" style="stop-color: #94ffab; stop-opacity:1"/>
   <stop offset="50%" style="stop-color: #fbfd54; stop-opacity:1"/>
   <stop offset="100%" style="stop-color: #0f83ae; stop-opacity:1"/>
  </linearGradient>
 </defs>
 <path fill="url(#oomox)" class="ColorScheme-Text" d="m 7.71093,1.1563049 -4.27306,3.2 a 0.53333333,0.53333333 0 0 0 0.29546,0.97707 h 0.53334 v 2.13333 H 0.53333 C 0.23787,7.4667049 0,7.7045749 0,8.0000449 v 6.4000001 c 0,0.29546 0.23787,0.53333 0.53333,0.53333 h 5.33334 c 0.29546,0 0.53333,-0.23787 0.53333,-0.53333 v -2.66667 c 0,0 0,-1.06667 1.06667,-1.06667 h 1.06666 c 1.06667,0 1.06667,1.06667 1.06667,1.06667 v 2.66667 c 0,0.29546 0.23787,0.53333 0.53333,0.53333 h 5.33334 c 0.29546,0 0.53333,-0.23787 0.53333,-0.53333 V 8.0000449 c 0,-0.29547 -0.23787,-0.53334 -0.53333,-0.53334 h -3.73334 v -2.13333 h 0.53334 a 0.53333333,0.53333333 0 0 0 0.29546,-0.97707 l -4.26026,-3.2 a 0.53333333,0.53333333 0 0 0 -0.592,0 z M 5.6,5.3333749 H 6.13333 A 0.26666667,0.26666667 0 0 1 6.4,5.6000449 v 1.6 a 0.26666667,0.26666667 0 0 1 -0.26667,0.26666 H 5.6 a 0.26666667,0.26666667 0 0 1 -0.26667,-0.26666 v -1.6 A 0.26666667,0.26666667 0 0 1 5.6,5.3333749 Z m 2.13333,0 h 0.53334 a 0.26666667,0.26666667 0 0 1 0.26666,0.26667 v 1.6 a 0.26666667,0.26666667 0 0 1 -0.26666,0.26666 H 7.73333 a 0.26666667,0.26666667 0 0 1 -0.26666,-0.26666 v -1.6 a 0.26666667,0.26666667 0 0 1 0.26666,-0.26667 z m 2.13334,0 H 10.4 a 0.26666667,0.26666667 0 0 1 0.26667,0.26667 v 1.6 A 0.26666667,0.26666667 0 0 1 10.4,7.4667049 H 9.86667 A 0.26666667,0.26666667 0 0 1 9.6,7.2000449 v -1.6 a 0.26666667,0.26666667 0 0 1 0.26667,-0.26667 z m -8.53334,3.2 h 0.53334 a 0.26666667,0.26666667 0 0 1 0.26666,0.26667 v 1.6000001 a 0.26666667,0.26666667 0 0 1 -0.26666,0.26666 H 1.33333 A 0.26666667,0.26666667 0 0 1 1.06667,10.400045 V 8.8000449 a 0.26666667,0.26666667 0 0 1 0.26666,-0.26667 z m 2.13334,0 H 4 a 0.26666667,0.26666667 0 0 1 0.26667,0.26667 V 10.400045 A 0.26666667,0.26666667 0 0 1 4,10.666705 H 3.46667 A 0.26666667,0.26666667 0 0 1 3.2,10.400045 V 8.8000449 a 0.26666667,0.26666667 0 0 1 0.26667,-0.26667 z m 8.53333,0 h 0.53333 A 0.26666667,0.26666667 0 0 1 12.8,8.8000449 v 1.6000001 a 0.26666667,0.26666667 0 0 1 -0.26667,0.26666 H 12 a 0.26666667,0.26666667 0 0 1 -0.26667,-0.26666 V 8.8000449 A 0.26666667,0.26666667 0 0 1 12,8.5333749 Z m 2.13333,0 h 0.53334 a 0.26666667,0.26666667 0 0 1 0.26666,0.26667 v 1.6000001 a 0.26666667,0.26666667 0 0 1 -0.26666,0.26666 h -0.53334 a 0.26666667,0.26666667 0 0 1 -0.26666,-0.26666 V 8.8000449 a 0.26666667,0.26666667 0 0 1 0.26666,-0.26667 z m -12.8,3.2000001 h 0.53334 a 0.26666667,0.26666667 0 0 1 0.26666,0.26667 v 1.6 a 0.26666667,0.26666667 0 0 1 -0.26666,0.26666 H 1.33333 a 0.26666667,0.26666667 0 0 1 -0.26666,-0.26666 v -1.6 a 0.26666667,0.26666667 0 0 1 0.26666,-0.26667 z m 2.13334,0 H 4 a 0.26666667,0.26666667 0 0 1 0.26667,0.26667 v 1.6 A 0.26666667,0.26666667 0 0 1 4,13.866705 H 3.46667 A 0.26666667,0.26666667 0 0 1 3.2,13.600045 v -1.6 a 0.26666667,0.26666667 0 0 1 0.26667,-0.26667 z m 8.53333,0 h 0.53333 A 0.26666667,0.26666667 0 0 1 12.8,12.000045 v 1.6 a 0.26666667,0.26666667 0 0 1 -0.26667,0.26666 H 12 a 0.26666667,0.26666667 0 0 1 -0.26667,-0.26666 v -1.6 A 0.26666667,0.26666667 0 0 1 12,11.733375 Z m 2.13333,0 h 0.53334 a 0.26666667,0.26666667 0 0 1 0.26666,0.26667 v 1.6 a 0.26666667,0.26666667 0 0 1 -0.26666,0.26666 h -0.53334 a 0.26666667,0.26666667 0 0 1 -0.26666,-0.26666 v -1.6 a 0.26666667,0.26666667 0 0 1 0.26666,-0.26667 z"/>
</svg>
