<svg xmlns="http://www.w3.org/2000/svg" width="16" height="16" version="1.1">
 <defs>
   <style id="current-color-scheme" type="text/css">
   .ColorScheme-Text { color: #d3dae3; } .ColorScheme-Highlight { color:#5294e2; }
  </style>
  <linearGradient id="arrongin" x1="0%" x2="0%" y1="0%" y2="100%">
   <stop offset="0%" style="stop-color:#dd9b44; stop-opacity:1"/>
   <stop offset="100%" style="stop-color:#ad6c16; stop-opacity:1"/>
  </linearGradient>
  <linearGradient id="aurora" x1="0%" x2="0%" y1="0%" y2="100%">
   <stop offset="0%" style="stop-color:#09D4DF; stop-opacity:1"/>
   <stop offset="100%" style="stop-color:#9269F4; stop-opacity:1"/>
  </linearGradient>
  <linearGradient id="cyberneon" x1="0%" x2="0%" y1="0%" y2="100%">
    <stop offset="0" style="stop-color:#0abdc6; stop-opacity:1"/>
    <stop offset="1" style="stop-color:#ea00d9; stop-opacity:1"/>
  </linearGradient>
  <linearGradient id="fitdance" x1="0%" x2="0%" y1="0%" y2="100%">
   <stop offset="0%" style="stop-color:#1AD6AB; stop-opacity:1"/>
   <stop offset="100%" style="stop-color:#329DB6; stop-opacity:1"/>
  </linearGradient>
  <linearGradient id="oomox" x1="0%" x2="0%" y1="0%" y2="100%">
   <stop offset="0%" style="stop-color:#a4d8d4; stop-opacity:1"/>
   <stop offset="100%" style="stop-color:#318c85; stop-opacity:1"/>
  </linearGradient>
  <linearGradient id="rainblue" x1="0%" x2="0%" y1="0%" y2="100%">
   <stop offset="0%" style="stop-color:#00F260; stop-opacity:1"/>
   <stop offset="100%" style="stop-color:#0575E6; stop-opacity:1"/>
  </linearGradient>
  <linearGradient id="sunrise" x1="0%" x2="0%" y1="0%" y2="100%">
   <stop offset="0%" style="stop-color: #FF8501; stop-opacity:1"/>
   <stop offset="100%" style="stop-color: #FFCB01; stop-opacity:1"/>
  </linearGradient>
  <linearGradient id="telinkrin" x1="0%" x2="0%" y1="0%" y2="100%">
   <stop offset="0%" style="stop-color: #b2ced6; stop-opacity:1"/>
   <stop offset="100%" style="stop-color: #6da5b7; stop-opacity:1"/>
  </linearGradient>
  <linearGradient id="60spsycho" x1="0%" x2="0%" y1="0%" y2="100%">
   <stop offset="0%" style="stop-color: #df5940; stop-opacity:1"/>
   <stop offset="25%" style="stop-color: #d8d15f; stop-opacity:1"/>
   <stop offset="50%" style="stop-color: #e9882a; stop-opacity:1"/>
   <stop offset="100%" style="stop-color: #279362; stop-opacity:1"/>
  </linearGradient>
  <linearGradient id="90ssummer" x1="0%" x2="0%" y1="0%" y2="100%">
   <stop offset="0%" style="stop-color: #f618c7; stop-opacity:1"/>
   <stop offset="20%" style="stop-color: #94ffab; stop-opacity:1"/>
   <stop offset="50%" style="stop-color: #fbfd54; stop-opacity:1"/>
   <stop offset="100%" style="stop-color: #0f83ae; stop-opacity:1"/>
  </linearGradient>
 </defs>
 <path fill="url(#oomox)" class="ColorScheme-Text" d="M 1.2515748,1.7056352e-4 C 0.80006514,-0.00751336 0.30014904,0.22741843 0.08784414,0.75482743 -0.10275081,1.2281452 0.04798139,1.6957962 0.24371994,2.0401364 0.43945854,2.3844765 0.69473384,2.6634415 0.79248854,2.8013176 0.97702934,3.0614471 1.186532,3.3275302 1.2836041,3.5429257 1.3367299,3.6606829 1.3505256,3.8339902 1.4394799,4.0779274 1.6069604,4.5374588 1.7584235,5.0660342 2.0031954,5.5459199 2.1182693,5.7717221 2.2490082,6.0190885 2.411035,6.2440318 2.479818,6.3395358 2.5312032,6.3740569 2.5669108,6.4049673 2.4427381,6.6800912 2.4368662,6.9468128 2.3875469,7.1052541 1.9845874,8.3993894 2.1160068,9.9427197 2.7313279,10.948132 c 0.088516,0.144672 0.2394057,0.388389 0.4804393,0.585022 0.2410336,0.196633 0.6305799,0.339394 1.0185313,0.178334 0.3537926,-0.146785 0.5180893,-0.495878 0.5765271,-0.782929 0.00645,-0.03167 0.00748,-0.05569 0.012812,-0.08699 a 0.33138468,0.33751764 0 0 0 0.00427,0.0087 c 0.3549871,0.582361 0.9348504,1.133926 1.4370473,1.520188 0.1673309,0.128697 0.3844807,0.517306 0.8541143,0.680713 a 0.33138468,0.33751764 0 0 0 0.4398692,-0.319699 v -0.02392 a 0.33138468,0.33751764 0 0 0 -0.1814992,-0.3023 C 7.2876315,12.317154 7.2082501,12.264965 7.1919399,12.248665 7.0161726,12.073193 6.8194382,11.849915 6.6816066,11.659293 6.261311,11.078096 5.8846354,10.436737 5.541364,9.7650387 5.3844364,9.4581277 5.2415678,9.1047867 5.0993598,8.7689788 5.0965171,8.7622617 5.0806541,8.6920752 5.0523836,8.5928198 5.0241131,8.4935643 4.9735679,8.3273167 4.7961493,8.2231032 A 0.33138468,0.33751764 0 0 0 4.3520099,8.3318433 C 4.2344222,8.5176669 3.9812149,8.7325627 3.8245943,9.1104227 3.6877345,9.4404327 3.6308719,9.7882817 3.5897127,10.136931 3.5698662,10.089714 3.5533505,10.060179 3.5320601,10.008617 3.2642281,9.3605327 3.2043342,8.1745856 3.4466486,7.4075518 3.4685946,7.3380862 3.5722762,7.0828975 3.6516361,6.8312288 3.6913159,6.7053945 3.728227,6.5772016 3.7455885,6.4441137 3.7626541,6.3132947 3.780332,6.1659713 3.6751241,5.9917546 c 0.010451,0.026344 0.025486,0.04493 0.034165,0.073943 l -0.0363,-0.082642 C 3.5491775,5.6791863 3.3234975,5.5436381 3.277961,5.4806757 3.1564045,5.3127611 3.0221277,5.0678945 2.9341801,4.8652063 2.7009408,4.3274413 2.5810796,3.6646181 2.2893237,3.0187981 2.1372077,2.6819311 1.9073715,2.3856442 1.7341495,2.1401773 1.513522,1.8273455 1.3195666,1.6458442 1.1960574,1.3724716 1.1753291,1.3266545 1.1571406,1.2772651 1.1490811,1.2441583 c 0.016736,-0.00214 0.051918,-0.00848 0.098223,0.00217 0.099085,0.022787 0.2207556,0.067655 0.2818577,0.093516 0.3729999,0.1577759 0.6679013,0.3004039 0.9672844,0.5023797 0.076975,0.052136 0.2429776,0.3030705 0.5893389,0.4066883 a 0.33138468,0.33751764 0 0 0 0.091818,0.013049 h 0.2113933 c 0.3880401,0.076267 0.7343822,0.045834 0.9309846,0.1065654 0.5142457,0.1591966 0.982987,0.4097671 1.4178297,0.6894128 1.3201078,0.8489363 2.4002381,2.0593902 3.1410054,3.5057835 0.1015517,0.1984585 0.1537831,0.4182177 0.2754509,0.7046364 0.22665,0.533027 0.504231,1.0647515 0.715321,1.5528097 0.216554,0.5005266 0.434228,1.0323606 0.775109,1.4962649 0.186539,0.253694 0.421976,0.307472 0.649126,0.38494 0.227151,0.07747 0.460394,0.140983 0.55731,0.182684 0.242511,0.104424 0.564121,0.203142 0.672615,0.269675 0.341548,0.209868 0.684672,0.467677 1.027073,0.713336 0.01387,0.0099 0.0323,0.02055 0.04698,0.03045 -0.472137,0.04001 -0.910728,0.113753 -1.293985,0.278374 -0.02036,0.0088 -0.12209,0.02811 -0.254099,0.08047 -0.066,0.02618 -0.146298,0.06598 -0.222069,0.141362 -0.07578,0.0754 -0.136356,0.193869 -0.151605,0.313171 a 0.33138468,0.33751764 0 0 0 0.08755,0.276201 c -0.01656,-0.01768 0.0054,0.08353 0.125982,0.282724 a 0.33138468,0.33751764 0 0 0 0,0.0022 c 0.14852,0.244784 0.364667,0.543604 0.627774,0.745958 0.21136,0.162463 0.440742,0.345163 0.693967,0.50238 0.455179,0.282746 0.911061,0.42985 1.255549,0.652441 0.209836,0.135623 0.437578,0.317975 0.672615,0.493681 0.03711,0.02775 0.144235,0.214359 0.418516,0.313171 A 0.33138468,0.33751764 0 0 0 16,15.663131 v -0.02392 A 0.33138468,0.33751764 0 0 0 15.9274,15.43043 c -0.0026,-0.0033 -0.0228,-0.128755 -0.15374,-0.321871 a 0.33138468,0.33751764 0 0 0 -0.03844,-0.04785 l -0.309617,-0.315346 0.0299,0.03697 C 15.128199,14.33984 14.722064,13.95946 14.291772,13.644912 14.091391,13.49843 13.834144,13.364837 13.612751,13.218649 c -0.03753,-0.02477 -0.06055,-0.04846 -0.09395,-0.07394 0.0501,-0.01434 0.120705,-0.02722 0.164418,-0.03915 0.296137,-0.08087 0.616475,-0.05714 1.044154,-0.169634 a 0.33138468,0.33751764 0 0 0 0.0085,-0.0022 c 0.166744,-0.04854 0.333458,-0.0953 0.499657,-0.143538 a 0.33138468,0.33751764 0 0 0 0.241288,-0.32622 v -0.09569 a 0.33138468,0.33751764 0 0 0 -0.09609,-0.237054 C 15.241027,11.985181 15.10694,11.715736 14.836271,11.480957 14.29593,11.012303 13.703265,10.540702 13.085337,10.143453 12.703806,9.8981667 12.282278,9.7599667 11.962176,9.5954027 c -0.108136,-0.05556 -0.191729,-0.07567 -0.251964,-0.09787 -0.02783,-0.01025 -0.04507,-0.0209 -0.05338,-0.0261 C 11.527065,9.2928247 11.427501,9.0231675 11.274606,8.723308 10.980547,8.1466557 10.691285,7.5138286 10.429033,6.9029973 a 0.33138468,0.33751764 0 0 0 0,-0.00217 C 10.259351,6.5058193 10.138828,6.0763464 9.884535,5.6503104 8.7802714,3.8011758 7.5570811,2.6510341 5.7249986,1.5595048 5.2744663,1.2912128 4.7796096,1.2031978 4.300763,1.0875724 a 0.33138468,0.33751764 0 0 0 -0.055517,-0.0087 C 4.0105214,1.0643968 3.7755634,1.0498758 3.5406012,1.0353771 3.5161543,1.0201073 3.4761372,0.99356853 3.4146194,0.93968573 3.3398038,0.87415633 3.256448,0.79196203 3.1413028,0.71785573 2.7478122,0.46467323 2.0040294,0.01297606 1.2515748,1.7056352e-4 Z M 1.185381,1.202837 C 1.153477,1.227956 1.142036,1.239445 1.149081,1.239809 1.1485924,1.237659 1.145191,1.233069 1.144811,1.231109 1.138651,1.199234 1.152901,1.218634 1.123458,1.263731 a 0.33138468,0.33751764 0 0 0 0.019217,-0.032622 0.33138468,0.33751764 0 0 0 0.00213,0 0.33138468,0.33751764 0 0 0 0.04057,-0.028272 z m 3.4612982,2.3727108 c -0.2702207,-0.00507 -0.4598476,0.029031 -0.6619387,0.073943 v 0.036972 h 0.0363 c 0.1288716,0.2697371 0.3551966,0.4439972 0.5146038,0.676364 0.1227978,0.2627315 0.2464425,0.5247147 0.3694045,0.7872788 0.012148,-0.012423 0.024151,-0.024548 0.0363,-0.036972 C 5.1695425,4.9493554 5.2756025,4.6865994 5.2744533,4.2867085 5.1830116,4.1887256 5.1679767,4.0665414 5.0886834,3.9496139 4.9832876,3.7938445 4.7794913,3.7065038 4.6466792,3.5755478 Z"/>
</svg>
