<svg xmlns="http://www.w3.org/2000/svg" width="32" height="32" version="1.1">
 <defs>
  <style id="current-color-scheme" type="text/css">
   .ColorScheme-Text { color: #ececec; } .ColorScheme-Highlight { color: #1AD6AB; }
  </style>
  <linearGradient id="arrongin" x1="0%" x2="0%" y1="0%" y2="100%">
   <stop offset="0%"   stop-color="#dd9b44"/>
   <stop offset="100%" stop-color="#ad6c16"/>
  </linearGradient>
  <linearGradient id="aurora" x1="0%" x2="0%" y1="0%" y2="100%">
   <stop offset="0%"    stop-color="#09D4DF"/>
   <stop offset="100%" stop-color="#9269F4"/>
  </linearGradient>
  <linearGradient id="cyberblue" x1="0%" x2="0%" y1="0%" y2="100%">
   <stop offset="0%"   stop-color="#07B3FF"/>
   <stop offset="100%" stop-color="#007DE8"/>
  </linearGradient>
  <linearGradient id="cyberneon" x1="0%" x2="0%" y1="0%" y2="100%">
   <stop offset="0%"   stop-color="#0abdc6"/>
   <stop offset="100%" stop-color="#ea00d9"/>
  </linearGradient>
  <linearGradient id="fitdance" x1="0%" x2="0%" y1="0%" y2="100%">
   <stop offset="0%"   stop-color="#1AD6AB"/>
   <stop offset="100%" stop-color="#329DB6"/>
  </linearGradient>
  <linearGradient id="oomox" x1="0%" x2="0%" y1="0%" y2="100%">
   <stop offset="0%"   stop-color="#efefe7"/>
   <stop offset="100%" stop-color="#8f8f8b"/>
  </linearGradient>
  <linearGradient id="rainblue" x1="0%" x2="0%" y1="0%" y2="100%">
   <stop offset="0%"   stop-color="#00F260"/>
   <stop offset="100%" stop-color="#0575E6"/>
  </linearGradient>
  <linearGradient id="redcarbon" x1="0%" x2="100%" y1="0%" y2="100%">
   <stop offset="0%"   stop-color="#FF6D57"/>
   <stop offset="50%"  stop-color="#FF5160"/>
   <stop offset="100%" stop-color="#F50F22"/>
  </linearGradient>
  <linearGradient id="sunrise" x1="0%" x2="0%" y1="0%" y2="100%">
   <stop offset="0%"   stop-color="#FF8501"/>
   <stop offset="100%" stop-color="#FFCB01"/>
  </linearGradient>
  <linearGradient id="telinkrin" x1="0%" x2="0%" y1="0%" y2="100%">
   <stop offset="0%"   stop-color="#b2ced6"/>
   <stop offset="100%" stop-color="#6da5b7"/>
  </linearGradient>
  <linearGradient id="60spsycho" x1="0%" x2="0%" y1="0%" y2="100%">
   <stop offset="0%"   stop-color="#df5940"/>
   <stop offset="25%"  stop-color="#d8d15f"/>
   <stop offset="50%"  stop-color="#e9882a"/>
   <stop offset="100%" stop-color="#279362"/>
  </linearGradient>
  <linearGradient id="90ssummer" x1="0%" x2="0%" y1="0%" y2="100%">
   <stop offset="0%"   stop-color="#f618c7"/>
   <stop offset="20%"  stop-color="#94ffab"/>
   <stop offset="50%"  stop-color="#fbfd54"/>
   <stop offset="100%" stop-color="#0f83ae"/>
  </linearGradient>
  <linearGradient id="pause" x1="0" x2="0" y1="0" y2="1" gradientTransform="matrix(4,0,0,12,14,5.734)" gradientUnits="userSpaceOnUse">
   <stop offset="0%"   stop-color="#f06"/>
   <stop offset="100%" stop-color="#dc1499"/>
  </linearGradient>
  <linearGradient id="squircle" x1="0" x2="0" y1="0" y2="1" gradientTransform="matrix(24,0,0,22.401,0,0.533)" gradientUnits="userSpaceOnUse">
   <stop offset="0%"   stop-color="#4c5561"/>
   <stop offset="100%" stop-color="#2e3842"/>
  </linearGradient>
 </defs>
 <path fill="url(#oomox)" opacity="1.0" d="m16 2c-4.432 0-8 3.568-8 8v3h3v-3c0-2.77 2.23-5 5-5s5 2.23 5 5v3h3v-3c0-4.432-3.568-8-8-8z"/>
 <rect fill="url(#sunrise)" opacity="1.0" width="17" height="22" x="-30" y="-27" rx="1.4" ry="1.4" transform="matrix(0,-1,-1,0,0,0)"/>
 <path fill="#efefef" opacity="0.1" d="m16 2c-4.432 0-8 3.568-8 8v1c0-4.432 3.568-8 8-8s8 3.568 8 8v-1c0-4.432-3.568-8-8-8z"/>
 <path fill="#efefef" opacity="0.1" d="m6.4004 13c-0.7756 0-1.4004 0.625-1.4004 1.4v1c0-0.775 0.6248-1.4 1.4004-1.4h19.2c0.775 0 1.4 0.625 1.4 1.4v-1c0-0.775-0.625-1.4-1.4-1.4h-19.2z"/>
 <path fill="#cb9a05" opacity="1.0" d="m5 27.6v1c0 0.775 0.6248 1.4 1.4004 1.4h19.2c0.775 0 1.4-0.625 1.4-1.4v-1c0 0.775-0.625 1.4-1.4 1.4h-19.2c-0.7752 0-1.4-0.625-1.4-1.4z"/>
 <path fill="#efefef" opacity="0.1" d="m5 26.6v1c0 0.775 0.6248 1.4 1.4004 1.4h19.2c0.775 0 1.4-0.625 1.4-1.4v-1c0 0.775-0.625 1.4-1.4 1.4h-19.2c-0.7752 0-1.4-0.625-1.4-1.4z"/>
 <rect fill="#efefef" opacity="0.6" width="22" height="10" x="5" y="16" rx="0" ry="0"/>
 <path fill="#1e1e1e" opacity="0.2" d="m16 5c-2.77 0-5 2.23-5 5v1c0-2.77 2.23-5 5-5s5 2.23 5 5v-1c0-2.77-2.23-5-5-5zm-11 23.6v1c0 0.775 0.6248 1.4 1.4004 1.4h19.2c0.775 0 1.4-0.625 1.4-1.4v-1c0 0.775-0.625 1.4-1.4 1.4h-19.2c-0.7752 0-1.4-0.625-1.4-1.4z"/>
</svg>
