<svg xmlns="http://www.w3.org/2000/svg" width="32" height="32" version="1.1">
 <defs>
  <style id="current-color-scheme" type="text/css">
   .ColorScheme-Text { color: #ececec; } .ColorScheme-Highlight { color: #1AD6AB; }
  </style>
  <linearGradient id="arrongin" x1="0%" x2="0%" y1="0%" y2="100%">
   <stop offset="0%"   stop-color="#dd9b44"/>
   <stop offset="100%" stop-color="#ad6c16"/>
  </linearGradient>
  <linearGradient id="aurora" x1="0%" x2="0%" y1="0%" y2="100%">
   <stop offset="0%"    stop-color="#09D4DF"/>
   <stop offset="100%" stop-color="#9269F4"/>
  </linearGradient>
  <linearGradient id="cyberblue" x1="0%" x2="0%" y1="0%" y2="100%">
   <stop offset="0%"   stop-color="#07B3FF"/>
   <stop offset="100%" stop-color="#007DE8"/>
  </linearGradient>
  <linearGradient id="cyberneon" x1="0%" x2="0%" y1="0%" y2="100%">
   <stop offset="0%"   stop-color="#0abdc6"/>
   <stop offset="100%" stop-color="#ea00d9"/>
  </linearGradient>
  <linearGradient id="fitdance" x1="0%" x2="0%" y1="0%" y2="100%">
   <stop offset="0%"   stop-color="#1AD6AB"/>
   <stop offset="100%" stop-color="#329DB6"/>
  </linearGradient>
  <linearGradient id="oomox" x1="0%" x2="0%" y1="0%" y2="100%">
   <stop offset="0%"   stop-color="#efefe7"/>
   <stop offset="100%" stop-color="#8f8f8b"/>
  </linearGradient>
  <linearGradient id="rainblue" x1="0%" x2="0%" y1="0%" y2="100%">
   <stop offset="0%"   stop-color="#00F260"/>
   <stop offset="100%" stop-color="#0575E6"/>
  </linearGradient>
  <linearGradient id="redcarbon" x1="0%" x2="100%" y1="0%" y2="100%">
   <stop offset="0%"   stop-color="#FF6D57"/>
   <stop offset="50%"  stop-color="#FF5160"/>
   <stop offset="100%" stop-color="#F50F22"/>
  </linearGradient>
  <linearGradient id="sunrise" x1="0%" x2="0%" y1="0%" y2="100%">
   <stop offset="0%"   stop-color="#FF8501"/>
   <stop offset="100%" stop-color="#FFCB01"/>
  </linearGradient>
  <linearGradient id="telinkrin" x1="0%" x2="0%" y1="0%" y2="100%">
   <stop offset="0%"   stop-color="#b2ced6"/>
   <stop offset="100%" stop-color="#6da5b7"/>
  </linearGradient>
  <linearGradient id="60spsycho" x1="0%" x2="0%" y1="0%" y2="100%">
   <stop offset="0%"   stop-color="#df5940"/>
   <stop offset="25%"  stop-color="#d8d15f"/>
   <stop offset="50%"  stop-color="#e9882a"/>
   <stop offset="100%" stop-color="#279362"/>
  </linearGradient>
  <linearGradient id="90ssummer" x1="0%" x2="0%" y1="0%" y2="100%">
   <stop offset="0%"   stop-color="#f618c7"/>
   <stop offset="20%"  stop-color="#94ffab"/>
   <stop offset="50%"  stop-color="#fbfd54"/>
   <stop offset="100%" stop-color="#0f83ae"/>
  </linearGradient>
  <linearGradient id="pause" x1="0" x2="0" y1="0" y2="1" gradientTransform="matrix(4,0,0,12,14,5.734)" gradientUnits="userSpaceOnUse">
   <stop offset="0%"   stop-color="#f06"/>
   <stop offset="100%" stop-color="#dc1499"/>
  </linearGradient>
  <linearGradient id="squircle" x1="0" x2="0" y1="0" y2="1" gradientTransform="matrix(24,0,0,22.401,0,0.533)" gradientUnits="userSpaceOnUse">
   <stop offset="0%"   stop-color="#4c5561"/>
   <stop offset="100%" stop-color="#2e3842"/>
  </linearGradient>
 </defs>
 <g transform="translate(0,-288.53332)">
  <rect fill="#1e1e1e" opacity="0.2" width="26" height="24" x="-319.53" y="-28" rx="2" ry="2" transform="matrix(0,-1,-1,0,0,0)"/>
  <rect fill="url(#arrongin)" width="26" height="24" x="-318.53" y="-28" rx="2" ry="2" transform="matrix(0,-1,-1,0,0,0)"/>
  <path fill="#1e1e1e" opacity="0.2" d="M 25,296.53332 H 7 v 3.60009 l 2,1.39991 2,-1 2.5,0.5 2.5,-1.5 2.5,1.5 4,-1.5 2.5,0.60009 z"/>
  <path fill="#efefef" opacity="0.2" d="m 6,292.53332 c -1.108,0 -2,0.892 -2,2 v 1 c 0,-1.108 0.892,-2 2,-2 h 20 c 1.108,0 2,0.892 2,2 v -1 c 0,-1.108 -0.892,-2 -2,-2 z"/>
  <path fill="#efefef" opacity="1.0" d="M 25,295.53332 H 7 v 3.60009 l 2,1.39991 2,-1 2.5,0.5 2.5,-1.5 2.5,1.5 4,-1.5 2.5,0.60009 z"/>
  <path fill="url(#oomox)" d="m 16,288.53332 c -1.662,0 -3,1.338 -3,3 v 2 h -2 c -0.554,0 -1,0.446 -1,1 v 3 h 12 v -3 c 0,-0.554 -0.446,-1 -1,-1 h -2 v -2 c 0,-1.662 -1.338,-3 -3,-3 z"/>
  <circle fill="#1e1e1e" opacity="0.2" cx="16" cy="292.533" r="2"/>
  <circle fill="#efefef" opacity="1.0" cx="16" cy="291.533" r="2"/>
  <path fill="#efefef" opacity="0.2" d="m 16,288.53332 c -1.662,0 -3,1.338 -3,3 v 1 c 0,-1.662 1.338,-3 3,-3 1.662,0 3,1.338 3,3 v -1 c 0,-1.662 -1.338,-3 -3,-3 z m -5,5 c -0.554,0 -1,0.446 -1,1 v 1 c 0,-0.554 0.446,-1 1,-1 h 2 v -1 z m 8,0 v 1 h 2 c 0.554,0 1,0.446 1,1 v -1 c 0,-0.554 -0.446,-1 -1,-1 z"/>
  <path fill="url(#oomox)" d="m 10,296.53332 v 1 h 8 4 v -1 z"/>
 </g>
</svg>
