<svg xmlns="http://www.w3.org/2000/svg" width="256" height="256" version="1.1">
 <defs>
  <linearGradient id="b" x1=".517" x2=".517" y2="1">
   <stop offset="0%" stop-color="#fff"/>
   <stop offset="12.5%" stop-color="#fff" stop-opacity=".098"/>
   <stop offset="92.5%" stop-opacity=".098"/>
   <stop offset="100%" stop-opacity=".498"/>
  </linearGradient>
 </defs>
 <path fill="#F7F7F7" d="M165.689 11.95c74.056 0 84.639 10.557 84.639 84.544v59.251c0 73.986-10.583 84.543-84.639 84.543h-75.37c-74.055 0-84.639-10.557-84.639-84.543V96.494c0-73.987 10.584-84.544 84.639-84.544h75.37z" filter="url(#a)"/>
 <path fill="none" opacity=".4" stroke="url(#b)" stroke-linecap="round" stroke-linejoin="round" stroke-width="4" d="M165.685 11.947c74.055 0 84.639 10.557 84.639 84.544v59.251c0 73.986-10.584 84.543-84.639 84.543h-75.37c-74.055 0-84.639-10.557-84.639-84.543V96.491c0-73.987 10.584-84.544 84.639-84.544h75.37z" vector-effect="non-scaling-stroke"/>
 <circle fill="#FFCC4D" cx="128.8" cy="128" r="71.6" vector-effect="non-scaling-stroke"/>
 <path fill="#65471B" d="M81.071 100.156a3.98 3.98 0 0 1-.016-7.956c.62-.008 14.196-.342 24.682-14.32a3.982 3.982 0 0 1 5.569-.796 3.978 3.978 0 0 1 .795 5.569c-12.979 17.304-30.298 17.503-31.03 17.503zm99.388 9.518a3.979 3.979 0 0 1-7.736 1.862c-.152-.601-3.624-13.731-19.655-20.688a3.981 3.981 0 0 1-2.064-5.231 3.975 3.975 0 0 1 5.231-2.065c19.845 8.612 24.053 25.41 24.224 26.122z"/>
 <path fill="#664500" d="M149.429 173.848c-3.95 0-7.765-1.81-11.09-5.326-11.202-11.874-14.197-9.281-19.161-4.977-3.107 2.701-6.977 6.059-12.749 6.059-9.352 0-15.788-9.157-16.054-9.547a3.978 3.978 0 0 1 1.01-5.533 3.992 3.992 0 0 1 5.529.998c1.197 1.707 5.239 6.126 9.519 6.126 2.8 0 4.996-1.905 7.538-4.109 7.223-6.277 14.972-10.561 30.163 5.521 3.274 3.473 5.776 3.079 7.59 2.355 6.599-2.645 12.749-14.71 12.717-20.486a3.976 3.976 0 0 1 3.954-3.997h.024a3.977 3.977 0 0 1 3.977 3.958c.048 8.365-7.374 23.771-17.717 27.912-1.762.696-3.52 1.042-5.25 1.046z"/>
 <path fill="#65471B" d="M116.131 117.558c-2.323 8.409-6.532 12.264-12.538 10.605-6.003-1.659-9.32-7.593-7.001-16.003 2.319-8.401 8.652-13.377 14.654-11.718 6.01 1.659 7.208 8.711 4.885 17.116zm45.41-3.003c1.882 8.517-2.685 19.245-8.767 20.589-6.082 1.345-13.047-6.838-14.929-15.354-1.881-8.513 1.667-15.796 7.749-17.14 6.082-1.345 14.066 3.393 15.947 11.905z"/>
</svg>
