<svg xmlns="http://www.w3.org/2000/svg" width="24" height="24" version="1.1">
 <defs>
   <style id="current-color-scheme" type="text/css">
   .ColorScheme-Text { color: #939597; } .ColorScheme-Highlight { color: #1AD6AB; }
  </style>
  <linearGradient id="arrongin" x1="0%" x2="0%" y1="0%" y2="100%">
   <stop offset="0%"    stop-color= "#dd9b44" stop-opacity="1"/>
   <stop offset="100%"  stop-color= "#ad6c16" stop-opacity="1"/>
  </linearGradient>
  <linearGradient id="aurora" x1="0%" x2="0%" y1="0%" y2="100%">
   <stop offset="0%"    stop-color= "#09D4DF" stop-opacity="1"/>
   <stop offset="100%"  stop-color= "#9269F4" stop-opacity="1"/>
  </linearGradient> 
  <linearGradient id="cyberblue" x1="0%" x2="0%" y1="0%" y2="100%">
   <stop offset="0%"    stop-color= "#07B3FF" stop-opacity="1"/>
   <stop offset="100%"  stop-color= "#007DE8" stop-opacity="1"/>
  </linearGradient>
  <linearGradient id="cyberneon" x1="0%" x2="0%" y1="0%" y2="100%">
    <stop offset="0%"   stop-color= "#0abdc6" stop-opacity="1"/>
    <stop offset="100%" stop-color= "#ea00d9" stop-opacity="1"/>
  </linearGradient>
  <linearGradient id="fitdance" x1="0%" x2="0%" y1="0%" y2="100%">
   <stop offset="0%"    stop-color= "#1AD6AB" stop-opacity="1"/>
   <stop offset="100%"  stop-color= "#329DB6" stop-opacity="1"/>
  </linearGradient>
  <linearGradient id="oomox" x1="0%" x2="0%" y1="0%" y2="100%">
   <stop offset="0%"    stop-color= "#f27979" stop-opacity="1"/>
   <stop offset="100%"  stop-color= "#9e2121" stop-opacity="1"/>
  </linearGradient>
  <linearGradient id="rainblue" x1="0%" x2="0%" y1="0%" y2="100%">
   <stop offset="0%"    stop-color= "#00F260" stop-opacity="1"/>
   <stop offset="100%"  stop-color= "#0575E6" stop-opacity="1"/>
  </linearGradient>
  <linearGradient id="redcarbon" x1="0%" x2="0%" y1="0%" y2="100%">
   <stop offset="0%"    stop-color= "#FF6D57" stop-opacity="1"/>
   <stop offset="50%"   stop-color= "#FF5160" stop-opacity="1"/>
   <stop offset="100%"  stop-color= "#F50F22" stop-opacity="1"/>
  </linearGradient>
  <linearGradient id="sunrise" x1="0%" x2="0%" y1="0%" y2="100%">
   <stop offset="0%"    stop-color= "#FF8501" stop-opacity="1"/>
   <stop offset="100%"  stop-color= "#FFCB01" stop-opacity="1"/>
  </linearGradient>
  <linearGradient id="telinkrin" x1="0%" x2="0%" y1="0%" y2="100%">
   <stop offset="0%"    stop-color= "#b2ced6" stop-opacity="1"/>
   <stop offset="100%"  stop-color= "#6da5b7" stop-opacity="1"/>
  </linearGradient>
  <linearGradient id="60spsycho" x1="0%" x2="0%" y1="0%" y2="100%">
   <stop offset="0%"    stop-color= "#df5940" stop-opacity="1"/>
   <stop offset="25%"   stop-color= "#d8d15f" stop-opacity="1"/>
   <stop offset="50%"   stop-color= "#e9882a" stop-opacity="1"/>
   <stop offset="100%"  stop-color= "#279362" stop-opacity="1"/>
  </linearGradient>
  <linearGradient id="90ssummer" x1="0%" x2="0%" y1="0%" y2="100%">
   <stop offset="0%"    stop-color= "#f618c7" stop-opacity="1"/>
   <stop offset="20%"   stop-color= "#94ffab" stop-opacity="1"/>
   <stop offset="50%"   stop-color= "#fbfd54" stop-opacity="1"/>
   <stop offset="100%"  stop-color= "#0f83ae" stop-opacity="1"/>
  </linearGradient>
 </defs>
 <path fill="url(#oomox)" class="ColorScheme-Text" d="m 11,0 0,0.011719 0,1.543 c -0.363,0.021 -0.723,0.0411 -1.1152,0.0781 -1.2789,0.1228 -2.6619,0.329 -3.8848,0.7305 l 0,-0.3633 -4,0 0,4 0.127,0 c -0.5694,1.3541 -0.92,2.9317 -1.1622,4.391 -0.03542,0.213 -0.05555,0.401 -0.08589,0.609 l -0.87891,0 0,0.012 0,3.988 0,0.012 1.5,0 2.5,0 0,-0.012 0,-1.543 c 0.3633,-0.021 0.7235,-0.041 1.1152,-0.078 1.2789,-0.123 2.6619,-0.329 3.8848,-0.731 l 0,0.364 4,0 0,-4.0003 -0.127,0 c 0.569,-1.3541 0.92,-2.9317 1.162,-4.3906 0.035,-0.2136 0.056,-0.4019 0.086,-0.6094 l 0.879,0 0,-0.0117 0,-3.9883 0,-0.0117 -1.5,0 -2.5,0 z M 11,2.5547 11,4 l 0,0.0117 2.111,0 C 13.088,4.1652 13.075,4.3022 13.049,4.459 12.788,6.0281 12.351,7.7156 11.744,9.0117 L 9,9.0117 9,11.562 C 7.8366,11.986 6.3724,12.255 5.0195,12.385 4.6616,12.419 4.334,12.437 4,12.457 L 4,11.012 4,11 1.8887,11 C 1.9118,10.846 1.9252,10.71 1.9512,10.553 2.2117,8.9836 2.6492,7.2961 3.2559,6 L 6,6 6,3.4492 C 7.1634,3.0253 8.6276,2.7567 9.9805,2.627 10.338,2.593 10.666,2.5747 11,2.5547 Z" transform="translate(4 4)"/>
</svg>
