<svg xmlns="http://www.w3.org/2000/svg" width="22" height="22" version="1.1">
 <defs>
   <style id="current-color-scheme" type="text/css">
   .ColorScheme-Text { color: #939597; } .ColorScheme-Highlight { color: #1AD6AB; }
  </style>
  <linearGradient id="arrongin" x1="0%" x2="0%" y1="0%" y2="100%">
   <stop offset="0%"    stop-color= "#dd9b44" stop-opacity="1"/>
   <stop offset="100%"  stop-color= "#ad6c16" stop-opacity="1"/>
  </linearGradient>
  <linearGradient id="aurora" x1="0%" x2="0%" y1="0%" y2="100%">
   <stop offset="0%"    stop-color= "#09D4DF" stop-opacity="1"/>
   <stop offset="100%"  stop-color= "#9269F4" stop-opacity="1"/>
  </linearGradient> 
  <linearGradient id="cyberblue" x1="0%" x2="0%" y1="0%" y2="100%">
   <stop offset="0%"    stop-color= "#07B3FF" stop-opacity="1"/>
   <stop offset="100%"  stop-color= "#007DE8" stop-opacity="1"/>
  </linearGradient>
  <linearGradient id="cyberneon" x1="0%" x2="0%" y1="0%" y2="100%">
    <stop offset="0%"   stop-color= "#0abdc6" stop-opacity="1"/>
    <stop offset="100%" stop-color= "#ea00d9" stop-opacity="1"/>
  </linearGradient>
  <linearGradient id="fitdance" x1="0%" x2="0%" y1="0%" y2="100%">
   <stop offset="0%"    stop-color= "#1AD6AB" stop-opacity="1"/>
   <stop offset="100%"  stop-color= "#329DB6" stop-opacity="1"/>
  </linearGradient>
  <linearGradient id="oomox" x1="0%" x2="0%" y1="0%" y2="100%">
   <stop offset="0%"    stop-color= "#f27979" stop-opacity="1"/>
   <stop offset="100%"  stop-color= "#9e2121" stop-opacity="1"/>
  </linearGradient>
  <linearGradient id="rainblue" x1="0%" x2="0%" y1="0%" y2="100%">
   <stop offset="0%"    stop-color= "#00F260" stop-opacity="1"/>
   <stop offset="100%"  stop-color= "#0575E6" stop-opacity="1"/>
  </linearGradient>
  <linearGradient id="redcarbon" x1="0%" x2="0%" y1="0%" y2="100%">
   <stop offset="0%"    stop-color= "#FF6D57" stop-opacity="1"/>
   <stop offset="50%"   stop-color= "#FF5160" stop-opacity="1"/>
   <stop offset="100%"  stop-color= "#F50F22" stop-opacity="1"/>
  </linearGradient>
  <linearGradient id="sunrise" x1="0%" x2="0%" y1="0%" y2="100%">
   <stop offset="0%"    stop-color= "#FF8501" stop-opacity="1"/>
   <stop offset="100%"  stop-color= "#FFCB01" stop-opacity="1"/>
  </linearGradient>
  <linearGradient id="telinkrin" x1="0%" x2="0%" y1="0%" y2="100%">
   <stop offset="0%"    stop-color= "#b2ced6" stop-opacity="1"/>
   <stop offset="100%"  stop-color= "#6da5b7" stop-opacity="1"/>
  </linearGradient>
  <linearGradient id="60spsycho" x1="0%" x2="0%" y1="0%" y2="100%">
   <stop offset="0%"    stop-color= "#df5940" stop-opacity="1"/>
   <stop offset="25%"   stop-color= "#d8d15f" stop-opacity="1"/>
   <stop offset="50%"   stop-color= "#e9882a" stop-opacity="1"/>
   <stop offset="100%"  stop-color= "#279362" stop-opacity="1"/>
  </linearGradient>
  <linearGradient id="90ssummer" x1="0%" x2="0%" y1="0%" y2="100%">
   <stop offset="0%"    stop-color= "#f618c7" stop-opacity="1"/>
   <stop offset="20%"   stop-color= "#94ffab" stop-opacity="1"/>
   <stop offset="50%"   stop-color= "#fbfd54" stop-opacity="1"/>
   <stop offset="100%"  stop-color= "#0f83ae" stop-opacity="1"/>
  </linearGradient>
 </defs>
 <path id="dialog-input-devices" fill="url(#oomox)" class="ColorScheme-Text" d="M 10.2 3 L 8.6 6.2 L 10.2 6.2 L 10.2 13.378125 C 9.790771 13.118188 9.368604 12.888989 8.959375 12.684375 C 8.359375 12.384375 7.805029 12.094824 7.4625 11.809375 C 7.119971 11.523926 7 11.333325 7 11 C 7.883643 11 8.6 10.283667 8.6 9.4 C 8.6 8.516333 7.883643 7.8 7 7.8 C 6.116357 7.8 5.4 8.516333 5.4 9.4 L 5.4 11 C 5.4 11.866675 5.880029 12.576074 6.4375 13.040625 C 6.994971 13.505176 7.64375 13.815625 8.24375 14.115625 C 8.84375 14.415625 9.394971 14.705176 9.7375 14.990625 C 10.080029 15.276074 10.2 15.466675 10.2 15.8 C 9.756787 15.8 9.4 16.156812 9.4 16.6 L 9.4 18.2 C 9.4 18.643188 9.756787 19 10.2 19 L 11.8 19 C 12.243213 19 12.6 18.643188 12.6 18.2 L 12.6 16.6 C 12.6 16.156812 12.243213 15.8 11.8 15.8 L 11.8 14.2 C 11.8 13.866675 11.92002 13.676074 12.2625 13.390625 C 12.605029 13.105176 13.159375 12.815625 13.759375 12.515625 C 14.359375 12.215625 15.005029 11.905176 15.5625 11.440625 C 16.119971 10.976074 16.6 10.266675 16.6 9.4 L 16.6 8.6 L 16.6 7 C 16.6 6.556812 16.243213 6.2 15.8 6.2 L 14.2 6.2 C 13.756787 6.2 13.4 6.556812 13.4 7 L 13.4 8.6 C 13.4 9.043188 13.756787 9.4 14.2 9.4 L 15 9.4 C 15 9.733325 14.87998 9.923926 14.5375 10.209375 C 14.194971 10.494824 13.64375 10.784375 13.04375 11.084375 C 12.634033 11.289233 12.210596 11.517798 11.8 11.778125 L 11.8 6.2 L 13.4 6.2 L 11.8 3 L 10.2 3 Z"/>
</svg>
