<svg xmlns="http://www.w3.org/2000/svg" width="22" height="22" version="1.1">
 <defs>
   <style id="current-color-scheme" type="text/css">
   .ColorScheme-Text { color: #939597; } .ColorScheme-Highlight { color: #1AD6AB; }
  </style>
  <linearGradient id="arrongin" x1="0%" x2="0%" y1="0%" y2="100%">
   <stop offset="0%"    stop-color= "#dd9b44" stop-opacity="1"/>
   <stop offset="100%"  stop-color= "#ad6c16" stop-opacity="1"/>
  </linearGradient>
  <linearGradient id="aurora" x1="0%" x2="0%" y1="0%" y2="100%">
   <stop offset="0%"    stop-color= "#09D4DF" stop-opacity="1"/>
   <stop offset="100%"  stop-color= "#9269F4" stop-opacity="1"/>
  </linearGradient> 
  <linearGradient id="cyberblue" x1="0%" x2="0%" y1="0%" y2="100%">
   <stop offset="0%"    stop-color= "#07B3FF" stop-opacity="1"/>
   <stop offset="100%"  stop-color= "#007DE8" stop-opacity="1"/>
  </linearGradient>
  <linearGradient id="cyberneon" x1="0%" x2="0%" y1="0%" y2="100%">
    <stop offset="0%"   stop-color= "#0abdc6" stop-opacity="1"/>
    <stop offset="100%" stop-color= "#ea00d9" stop-opacity="1"/>
  </linearGradient>
  <linearGradient id="fitdance" x1="0%" x2="0%" y1="0%" y2="100%">
   <stop offset="0%"    stop-color= "#1AD6AB" stop-opacity="1"/>
   <stop offset="100%"  stop-color= "#329DB6" stop-opacity="1"/>
  </linearGradient>
  <linearGradient id="oomox" x1="0%" x2="0%" y1="0%" y2="100%">
   <stop offset="0%"    stop-color= "#f27979" stop-opacity="1"/>
   <stop offset="100%"  stop-color= "#9e2121" stop-opacity="1"/>
  </linearGradient>
  <linearGradient id="rainblue" x1="0%" x2="0%" y1="0%" y2="100%">
   <stop offset="0%"    stop-color= "#00F260" stop-opacity="1"/>
   <stop offset="100%"  stop-color= "#0575E6" stop-opacity="1"/>
  </linearGradient>
  <linearGradient id="redcarbon" x1="0%" x2="0%" y1="0%" y2="100%">
   <stop offset="0%"    stop-color= "#FF6D57" stop-opacity="1"/>
   <stop offset="50%"   stop-color= "#FF5160" stop-opacity="1"/>
   <stop offset="100%"  stop-color= "#F50F22" stop-opacity="1"/>
  </linearGradient>
  <linearGradient id="sunrise" x1="0%" x2="0%" y1="0%" y2="100%">
   <stop offset="0%"    stop-color= "#FF8501" stop-opacity="1"/>
   <stop offset="100%"  stop-color= "#FFCB01" stop-opacity="1"/>
  </linearGradient>
  <linearGradient id="telinkrin" x1="0%" x2="0%" y1="0%" y2="100%">
   <stop offset="0%"    stop-color= "#b2ced6" stop-opacity="1"/>
   <stop offset="100%"  stop-color= "#6da5b7" stop-opacity="1"/>
  </linearGradient>
  <linearGradient id="60spsycho" x1="0%" x2="0%" y1="0%" y2="100%">
   <stop offset="0%"    stop-color= "#df5940" stop-opacity="1"/>
   <stop offset="25%"   stop-color= "#d8d15f" stop-opacity="1"/>
   <stop offset="50%"   stop-color= "#e9882a" stop-opacity="1"/>
   <stop offset="100%"  stop-color= "#279362" stop-opacity="1"/>
  </linearGradient>
  <linearGradient id="90ssummer" x1="0%" x2="0%" y1="0%" y2="100%">
   <stop offset="0%"    stop-color= "#f618c7" stop-opacity="1"/>
   <stop offset="20%"   stop-color= "#94ffab" stop-opacity="1"/>
   <stop offset="50%"   stop-color= "#fbfd54" stop-opacity="1"/>
   <stop offset="100%"  stop-color= "#0f83ae" stop-opacity="1"/>
  </linearGradient>
 </defs>
 <path fill="url(#oomox)" class="ColorScheme-Text" opacity="0.3" d="m 11,3 c -4.418278,0 -8,3.581722 -8,8 0.00348,0.326651 0.026959,0.652782 0.070312,0.976562 C 3.157948,11.56928 3.4496006,11.171221 3.828125,10.953125 L 6.9863281,9.1308594 C 7.7270832,8.7035678 8.7024067,8.964994 9.1308594,9.7050781 L 9.046875,9.5585938 11.978516,7.8652344 c 0.62633,-0.3618846 1.359854,-0.146585 1.849609,0.3496094 L 13.980469,8.1269531 13.525391,7.3320312 C 12.964405,6.3535709 13.711834,5.0348231 14.847656,5.0332031 h 0.002 1.46875 C 14.854899,3.7261914 12.962138,3.002591 11,3 Z m 4.539062,7.855469 -1.373046,0.794922 c -0.62652,0.36281 -1.361415,0.147252 -1.851563,-0.34961 L 9.2578125,13.066406 C 8.5737603,13.461642 7.7288502,13.215871 7.2597656,12.601562 l -1.859375,1.074219 h -0.00195 C 5.0167939,13.895679 4.5208416,13.950451 4.1230469,13.818359 3.7490408,13.694167 3.4787615,13.44234 3.2949219,13.150391 4.2598883,16.608189 7.4100801,18.999779 11,19 c 0.801869,7.1e-5 1.599191,-0.120417 2.365234,-0.357422 C 13.135721,18.139608 13,17.585716 13,17 c 0,-1.843561 1.293651,-3.340513 3,-3.796875 V 13 c 8.95e-4,-0.43037 0.277017,-0.811906 0.685547,-0.947266 -0.337175,-0.107036 -0.642329,-0.317176 -0.832031,-0.648437 v -0.002 h -0.002 z"/>
 <path fill="url(#oomox)" class="ColorScheme-Text" d="m 14.849403,6.0324475 a 0.52837956,0.53379665 0 0 0 -0.456474,0.8013394 l 0.949777,1.6618302 -1.754464,1.0133925 -0.328125,-0.56808 A 0.57148571,0.57148571 0 0 0 12.478867,8.7311079 L 8.6808754,10.924187 8.2656972,10.205437 A 0.57148571,0.57148571 0 0 0 7.4855629,9.9967314 L 4.328197,11.819276 a 0.57152042,0.57152042 0 1 0 0.5714286,0.989955 l 2.6629464,-1.53683 0.4140623,0.717634 a 0.57148571,0.57148571 0 0 0 0.7812503,0.209822 l 3.7979914,-2.193081 0.328125,0.569197 a 0.57148571,0.57148571 0 0 0 0.78125,0.208705 l 2.24442,-1.2968735 0.811384,1.4196415 a 0.52837956,0.53379665 0 0 0 0.915178,0.0011 L 19.965474,6.8338138 A 0.52837956,0.53379665 0 0 0 19.949849,6.2757511 0.52837956,0.53379665 0 0 0 19.507885,6.0324475 Z"/>
 <path fill="none" d="m 16,13 v 1 h -2 v 1 h 6 v -1 h -2 v -1 z m -1,3 v 4 h 4 v -4 z"/>
 <path fill="currentColor" class="ColorScheme-Highlight" d="m 17,13 v 1 a 3,3 0 0 0 -3,3 3,3 0 0 0 3,3 3,3 0 0 0 3,-3 h -1 a 2,2 0 0 1 -2,2 2,2 0 0 1 -2,-2 2,2 0 0 1 2,-2 v 1 l 0.984375,-0.738281 A 2,2 0 0 1 18,15.269531 V 15.25 l 1,-0.75 -1,-0.75 z"/>
</svg>
