<svg xmlns="http://www.w3.org/2000/svg" width="22" height="22" version="1.1">
 <defs>
   <style id="current-color-scheme" type="text/css">
   .ColorScheme-Text { color: #939597; } .ColorScheme-Highlight { color: #1AD6AB; }
  </style>
  <linearGradient id="arrongin" x1="0%" x2="0%" y1="0%" y2="100%">
   <stop offset="0%"    stop-color= "#dd9b44" stop-opacity="1"/>
   <stop offset="100%"  stop-color= "#ad6c16" stop-opacity="1"/>
  </linearGradient>
  <linearGradient id="aurora" x1="0%" x2="0%" y1="0%" y2="100%">
   <stop offset="0%"    stop-color= "#09D4DF" stop-opacity="1"/>
   <stop offset="100%"  stop-color= "#9269F4" stop-opacity="1"/>
  </linearGradient> 
  <linearGradient id="cyberblue" x1="0%" x2="0%" y1="0%" y2="100%">
   <stop offset="0%"    stop-color= "#07B3FF" stop-opacity="1"/>
   <stop offset="100%"  stop-color= "#007DE8" stop-opacity="1"/>
  </linearGradient>
  <linearGradient id="cyberneon" x1="0%" x2="0%" y1="0%" y2="100%">
    <stop offset="0%"   stop-color= "#0abdc6" stop-opacity="1"/>
    <stop offset="100%" stop-color= "#ea00d9" stop-opacity="1"/>
  </linearGradient>
  <linearGradient id="fitdance" x1="0%" x2="0%" y1="0%" y2="100%">
   <stop offset="0%"    stop-color= "#1AD6AB" stop-opacity="1"/>
   <stop offset="100%"  stop-color= "#329DB6" stop-opacity="1"/>
  </linearGradient>
  <linearGradient id="oomox" x1="0%" x2="0%" y1="0%" y2="100%">
   <stop offset="0%"    stop-color= "#f27979" stop-opacity="1"/>
   <stop offset="100%"  stop-color= "#9e2121" stop-opacity="1"/>
  </linearGradient>
  <linearGradient id="rainblue" x1="0%" x2="0%" y1="0%" y2="100%">
   <stop offset="0%"    stop-color= "#00F260" stop-opacity="1"/>
   <stop offset="100%"  stop-color= "#0575E6" stop-opacity="1"/>
  </linearGradient>
  <linearGradient id="redcarbon" x1="0%" x2="0%" y1="0%" y2="100%">
   <stop offset="0%"    stop-color= "#FF6D57" stop-opacity="1"/>
   <stop offset="50%"   stop-color= "#FF5160" stop-opacity="1"/>
   <stop offset="100%"  stop-color= "#F50F22" stop-opacity="1"/>
  </linearGradient>
  <linearGradient id="sunrise" x1="0%" x2="0%" y1="0%" y2="100%">
   <stop offset="0%"    stop-color= "#FF8501" stop-opacity="1"/>
   <stop offset="100%"  stop-color= "#FFCB01" stop-opacity="1"/>
  </linearGradient>
  <linearGradient id="telinkrin" x1="0%" x2="0%" y1="0%" y2="100%">
   <stop offset="0%"    stop-color= "#b2ced6" stop-opacity="1"/>
   <stop offset="100%"  stop-color= "#6da5b7" stop-opacity="1"/>
  </linearGradient>
  <linearGradient id="60spsycho" x1="0%" x2="0%" y1="0%" y2="100%">
   <stop offset="0%"    stop-color= "#df5940" stop-opacity="1"/>
   <stop offset="25%"   stop-color= "#d8d15f" stop-opacity="1"/>
   <stop offset="50%"   stop-color= "#e9882a" stop-opacity="1"/>
   <stop offset="100%"  stop-color= "#279362" stop-opacity="1"/>
  </linearGradient>
  <linearGradient id="90ssummer" x1="0%" x2="0%" y1="0%" y2="100%">
   <stop offset="0%"    stop-color= "#f618c7" stop-opacity="1"/>
   <stop offset="20%"   stop-color= "#94ffab" stop-opacity="1"/>
   <stop offset="50%"   stop-color= "#fbfd54" stop-opacity="1"/>
   <stop offset="100%"  stop-color= "#0f83ae" stop-opacity="1"/>
  </linearGradient>
 </defs>
 <path fill="url(#oomox)" class="ColorScheme-Text" d="M 14.501953 0.94726562 C 13.674753 0.94726562 13.003906 1.6188356 13.003906 2.4472656 C 13.003906 3.2756956 13.674723 3.9472656 14.501953 3.9472656 C 15.329153 3.9472656 16 3.2756956 16 2.4472656 C 16 1.6188356 15.329183 0.94726562 14.501953 0.94726562 z M 7.6914062 5.3867188 C 7.4179062 5.5846187 7.1539375 5.7931719 6.8984375 6.0136719 C 8.3687375 7.4246719 9.8583688 8.3031531 11.292969 8.5644531 C 12.804969 8.8397531 14.252516 8.4038813 15.353516 7.3007812 L 14.648438 6.59375 C 13.753438 7.49065 12.706656 7.8047781 11.472656 7.5800781 C 10.331656 7.3723781 9.0261062 6.6388188 7.6914062 5.3867188 z M 6.3652344 6.4941406 C 6.1297144 6.7247906 5.9090594 6.9699863 5.6933594 7.2226562 C 7.0931594 8.6484562 7.9772656 10.147475 8.1972656 11.359375 C 8.4216556 12.595375 8.1083836 13.644216 7.2128906 14.541016 L 7.9179688 15.248047 C 9.0194687 14.145047 9.4544875 12.693688 9.1796875 11.179688 C 8.9092875 9.6905875 7.8707344 8.0225406 6.3652344 6.4941406 z M 2.5195312 12.947266 C 1.6923313 12.947266 1.0214844 13.618836 1.0214844 14.447266 C 1.0214844 15.275696 1.6923013 15.947266 2.5195312 15.947266 C 3.3467312 15.947266 4.0175781 15.275696 4.0175781 14.447266 C 4.0175781 13.618836 3.3467612 12.947266 2.5195312 12.947266 z" transform="translate(3 3)"/>
 <path fill="url(#oomox)" class="ColorScheme-Text" opacity="0.3" d="M 13.070312 2.0292969 C 7.7432125 3.1298969 3.0329375 6.6870781 2.0859375 13.017578 C 2.2243875 12.975278 2.3672613 12.945312 2.5195312 12.945312 C 2.7213312 12.945312 2.9141538 12.986134 3.0898438 13.058594 C 3.5186138 10.326694 4.6776875 8.1776937 6.3046875 6.5585938 C 6.3257565 6.5374738 6.3439664 6.5130775 6.3652344 6.4921875 C 6.3652344 6.4921875 6.3671875 6.4941406 6.3671875 6.4941406 C 8.1795875 4.7200406 10.552953 3.5938156 13.126953 3.0410156 C 13.048953 2.8587156 13.003906 2.6584656 13.003906 2.4472656 C 13.003906 2.3012856 13.031473 2.1627169 13.070312 2.0292969 z" transform="translate(3 3)"/>
</svg>
