<svg xmlns="http://www.w3.org/2000/svg" width="16" height="16" version="1.1">
 <defs>
   <style id="current-color-scheme" type="text/css">
   .ColorScheme-Text { color: #939597; } .ColorScheme-Highlight { color:#5294e2; }
  </style>
  <linearGradient id="arrongin" x1="0%" x2="0%" y1="0%" y2="100%">
   <stop offset="0%" style="stop-color:#dd9b44; stop-opacity:1"/>
   <stop offset="100%" style="stop-color:#ad6c16; stop-opacity:1"/>
  </linearGradient>
  <linearGradient id="aurora" x1="0%" x2="0%" y1="0%" y2="100%">
   <stop offset="0%" style="stop-color:#09D4DF; stop-opacity:1"/>
   <stop offset="100%" style="stop-color:#9269F4; stop-opacity:1"/>
  </linearGradient>
  <linearGradient id="cyberneon" x1="0%" x2="0%" y1="0%" y2="100%">
    <stop offset="0" style="stop-color:#0abdc6; stop-opacity:1"/>
    <stop offset="1" style="stop-color:#ea00d9; stop-opacity:1"/>
  </linearGradient>
  <linearGradient id="fitdance" x1="0%" x2="0%" y1="0%" y2="100%">
   <stop offset="0%" style="stop-color:#1AD6AB; stop-opacity:1"/>
   <stop offset="100%" style="stop-color:#329DB6; stop-opacity:1"/>
  </linearGradient>
  <linearGradient id="oomox" x1="0%" x2="0%" y1="0%" y2="100%">
   <stop offset="0%" style="stop-color:#66b7ff; stop-opacity:1"/>
   <stop offset="100%" style="stop-color:#006acc; stop-opacity:1"/>
  </linearGradient>
  <linearGradient id="rainblue" x1="0%" x2="0%" y1="0%" y2="100%">
   <stop offset="0%" style="stop-color:#00F260; stop-opacity:1"/>
   <stop offset="100%" style="stop-color:#0575E6; stop-opacity:1"/>
  </linearGradient>
  <linearGradient id="sunrise" x1="0%" x2="0%" y1="0%" y2="100%">
   <stop offset="0%" style="stop-color: #FF8501; stop-opacity:1"/>
   <stop offset="100%" style="stop-color: #FFCB01; stop-opacity:1"/>
  </linearGradient>
  <linearGradient id="telinkrin" x1="0%" x2="0%" y1="0%" y2="100%">
   <stop offset="0%" style="stop-color: #b2ced6; stop-opacity:1"/>
   <stop offset="100%" style="stop-color: #6da5b7; stop-opacity:1"/>
  </linearGradient>
  <linearGradient id="60spsycho" x1="0%" x2="0%" y1="0%" y2="100%">
   <stop offset="0%" style="stop-color: #df5940; stop-opacity:1"/>
   <stop offset="25%" style="stop-color: #d8d15f; stop-opacity:1"/>
   <stop offset="50%" style="stop-color: #e9882a; stop-opacity:1"/>
   <stop offset="100%" style="stop-color: #279362; stop-opacity:1"/>
  </linearGradient>
  <linearGradient id="90ssummer" x1="0%" x2="0%" y1="0%" y2="100%">
   <stop offset="0%" style="stop-color: #f618c7; stop-opacity:1"/>
   <stop offset="20%" style="stop-color: #94ffab; stop-opacity:1"/>
   <stop offset="50%" style="stop-color: #fbfd54; stop-opacity:1"/>
   <stop offset="100%" style="stop-color: #0f83ae; stop-opacity:1"/>
  </linearGradient>
 </defs>
 <path fill="url(#oomox)" class="ColorScheme-Text" fill-rule="evenodd" d="M 1.6542251,4.9655671 V 5.5179394 6.6212381 H 0 V 7.1721645 H 1.6542251 2.2065974 V 5.5179394 h 0.5509264 v 2.7575238 0.5523724 h 1.655671 V 8.2754632 7.1721645 H 5.5164935 7.1721646 7.723091 V 5.5179394 h 0.5523723 v 2.7575238 0.5523724 h 1.655671 V 8.2754632 7.1721645 h 1.1032987 1.103299 0.550926 V 5.5179394 h 0.552373 v 2.7575238 0.5523724 h 1.655671 V 8.2754632 7.1721645 H 16 V 6.6212381 H 14.344329 V 7.1721645 8.2754632 H 13.793402 V 5.5179394 4.9655671 h -1.65567 V 5.5179394 6.6212381 H 11.034433 9.378762 V 7.1721645 8.2754632 H 8.8278356 V 5.5179394 4.9655671 H 7.1721646 V 5.5179394 6.6212381 H 5.5164935 3.8622685 V 7.1721645 8.2754632 H 3.3098961 V 5.5179394 4.9655671 Z M 12.137732,9.3802079 v 1.6542251 h 0.550926 V 9.3802079 Z m -1.103299,0.5509263 v 1.1032988 h 0.550926 V 9.9311342 Z m 2.206598,0 v 1.1032988 h 0.552371 V 9.9311342 Z M 9.9311343,10.483507 v 0.550926 h 0.5509267 v -0.550926 z m 4.4131947,0 v 0.550926 h 0.552373 v -0.550926 z"/>
</svg>
