<svg xmlns="http://www.w3.org/2000/svg" width="16" height="16" version="1.1">
 <defs>
   <style id="current-color-scheme" type="text/css">
   .ColorScheme-Text { color: #939597; } .ColorScheme-Highlight { color:#5294e2; }
  </style>
  <linearGradient id="arrongin" x1="0%" x2="0%" y1="0%" y2="100%">
   <stop offset="0%" style="stop-color:#dd9b44; stop-opacity:1"/>
   <stop offset="100%" style="stop-color:#ad6c16; stop-opacity:1"/>
  </linearGradient>
  <linearGradient id="aurora" x1="0%" x2="0%" y1="0%" y2="100%">
   <stop offset="0%" style="stop-color:#09D4DF; stop-opacity:1"/>
   <stop offset="100%" style="stop-color:#9269F4; stop-opacity:1"/>
  </linearGradient>
  <linearGradient id="cyberneon" x1="0%" x2="0%" y1="0%" y2="100%">
    <stop offset="0" style="stop-color:#0abdc6; stop-opacity:1"/>
    <stop offset="1" style="stop-color:#ea00d9; stop-opacity:1"/>
  </linearGradient>
  <linearGradient id="fitdance" x1="0%" x2="0%" y1="0%" y2="100%">
   <stop offset="0%" style="stop-color:#1AD6AB; stop-opacity:1"/>
   <stop offset="100%" style="stop-color:#329DB6; stop-opacity:1"/>
  </linearGradient>
  <linearGradient id="oomox" x1="0%" x2="0%" y1="0%" y2="100%">
   <stop offset="0%" style="stop-color:#66b7ff; stop-opacity:1"/>
   <stop offset="100%" style="stop-color:#006acc; stop-opacity:1"/>
  </linearGradient>
  <linearGradient id="rainblue" x1="0%" x2="0%" y1="0%" y2="100%">
   <stop offset="0%" style="stop-color:#00F260; stop-opacity:1"/>
   <stop offset="100%" style="stop-color:#0575E6; stop-opacity:1"/>
  </linearGradient>
  <linearGradient id="sunrise" x1="0%" x2="0%" y1="0%" y2="100%">
   <stop offset="0%" style="stop-color: #FF8501; stop-opacity:1"/>
   <stop offset="100%" style="stop-color: #FFCB01; stop-opacity:1"/>
  </linearGradient>
  <linearGradient id="telinkrin" x1="0%" x2="0%" y1="0%" y2="100%">
   <stop offset="0%" style="stop-color: #b2ced6; stop-opacity:1"/>
   <stop offset="100%" style="stop-color: #6da5b7; stop-opacity:1"/>
  </linearGradient>
  <linearGradient id="60spsycho" x1="0%" x2="0%" y1="0%" y2="100%">
   <stop offset="0%" style="stop-color: #df5940; stop-opacity:1"/>
   <stop offset="25%" style="stop-color: #d8d15f; stop-opacity:1"/>
   <stop offset="50%" style="stop-color: #e9882a; stop-opacity:1"/>
   <stop offset="100%" style="stop-color: #279362; stop-opacity:1"/>
  </linearGradient>
  <linearGradient id="90ssummer" x1="0%" x2="0%" y1="0%" y2="100%">
   <stop offset="0%" style="stop-color: #f618c7; stop-opacity:1"/>
   <stop offset="20%" style="stop-color: #94ffab; stop-opacity:1"/>
   <stop offset="50%" style="stop-color: #fbfd54; stop-opacity:1"/>
   <stop offset="100%" style="stop-color: #0f83ae; stop-opacity:1"/>
  </linearGradient>
 </defs>
 <path fill="url(#oomox)" class="ColorScheme-Text" d="m 11.415165,0.782915 v 0.922247 h -1.182082 c -0.432206,0 -0.839812,0.03625 -1.222287,0.105921 C 8.628319,1.883593 8.2551,2.014632 7.891137,2.203963 7.555213,2.385238 7.281448,2.630253 7.069844,2.942329 6.858502,3.257249 6.749526,3.636385 6.749526,4.082105 c 0,0.646427 0.261333,1.139776 0.780825,1.476733 C 8.049576,5.896033 8.73703,6.06617 9.595622,6.06617 h 1.318832 V 6.921594 H 9.129033 c -0.989256,0 -1.744953,0.186725 -2.264442,0.559934 -0.519493,0.373452 -0.777649,0.958742 -0.777649,1.75848 0,0.65472 0.211604,1.161812 0.637725,1.524126 0.422946,0.362311 1.01703,0.543349 1.776164,0.543349 H 9.70434 c 0.752788,0 1.322006,0.183882 1.710833,0.554486 C 11.803997,12.232572 12,12.725688 12,13.347233 c 0,0.668701 -0.320321,1.278873 -0.96122,1.827907 -0.640638,0.551644 -1.405858,0.824858 -2.292213,0.824858 -0.637727,0 -1.091885,-0.06966 -1.356391,-0.206391 -0.267416,-0.139095 -0.400992,-0.342644 -0.400992,-0.610174 0,-0.21729 0.07458,-0.390034 0.220599,-0.521073 0.149445,-0.130802 0.370309,-0.197861 0.662589,-0.197861 0.171135,0 0.323492,0.03081 0.460508,0.09194 0.136749,0.05853 0.254983,0.128196 0.357613,0.203549 0.09946,0.06398 0.214513,0.150469 0.351532,0.253546 0.136748,0.103079 0.267414,0.181037 0.388822,0.236723 0.146009,-0.01114 0.304713,-0.0417 0.479024,-0.09455 0.170871,-0.05308 0.335924,-0.139332 0.494364,-0.264921 0.165053,-0.125351 0.295453,-0.270134 0.391999,-0.437427 0.09946,-0.164448 0.146272,-0.390033 0.146272,-0.674387 0,-0.395487 -0.140188,-0.690974 -0.423211,-0.880308 C 10.236273,12.709096 9.832108,12.611468 9.303093,12.611468 H 7.881632 c -1.045067,0 -1.903392,-0.284115 -2.569146,-0.855425 C 4.643811,11.18497 4.307888,10.47717 4.307888,9.632879 4.307888,9.175782 4.410516,8.757786 4.6126,8.378889 4.817856,8.002596 5.091623,7.671091 5.439979,7.386975 5.766645,7.122054 6.143038,6.910448 6.562811,6.751448 6.986021,6.592685 7.393362,6.492452 7.782188,6.447903 V 6.400513 C 6.858529,6.264027 6.155469,5.99081 5.676447,5.58395 5.19425,5.174484 4.954871,4.686821 4.954871,4.115511 c 0,-0.323213 0.07141,-0.61586 0.214515,-0.8777 C 5.312484,2.973128 5.511658,2.736168 5.76664,2.530013 6.003111,2.340446 6.28296,2.176231 6.606452,2.039507 6.926768,1.905862 7.265868,1.791647 7.617396,1.696864 V 1.560376 c -0.242552,0.0055 -0.559961,0.01398 -0.948785,0.03057 -0.388826,0.01683 -0.721576,0.02512 -1.001423,0.02512 -0.572394,0 -0.992164,-0.07251 -1.262756,-0.217292 C 4.133577,1.256599 4,1.050444 4,0.782915 4,0.571074 4.06216,0.387192 4.186478,0.233882 4.311061,0.077961 4.522402,2e-6 4.817856,2e-6 c 0.280115,0 0.519493,0.05 0.71549,0.147625 0.199174,0.09739 0.382744,0.203312 0.553616,0.317526 0.192823,0.131039 0.363962,0.239805 0.510234,0.331744 0.146273,0.0891 0.366872,0.133644 0.665499,0.133644 0.653332,0 1.362476,-0.01659 2.127695,-0.05 0.762046,-0.0308 1.437069,-0.06422 2.024801,-0.09763 z"/>
</svg>
