<svg xmlns="http://www.w3.org/2000/svg" width="16" height="16" version="1.1">
 <defs>
   <style id="current-color-scheme" type="text/css">
   .ColorScheme-Text { color: #939597; } .ColorScheme-Highlight { color:#5294e2; }
  </style>
  <linearGradient id="arrongin" x1="0%" x2="0%" y1="0%" y2="100%">
   <stop offset="0%" style="stop-color:#dd9b44; stop-opacity:1"/>
   <stop offset="100%" style="stop-color:#ad6c16; stop-opacity:1"/>
  </linearGradient>
  <linearGradient id="aurora" x1="0%" x2="0%" y1="0%" y2="100%">
   <stop offset="0%" style="stop-color:#09D4DF; stop-opacity:1"/>
   <stop offset="100%" style="stop-color:#9269F4; stop-opacity:1"/>
  </linearGradient>
  <linearGradient id="cyberneon" x1="0%" x2="0%" y1="0%" y2="100%">
    <stop offset="0" style="stop-color:#0abdc6; stop-opacity:1"/>
    <stop offset="1" style="stop-color:#ea00d9; stop-opacity:1"/>
  </linearGradient>
  <linearGradient id="fitdance" x1="0%" x2="0%" y1="0%" y2="100%">
   <stop offset="0%" style="stop-color:#1AD6AB; stop-opacity:1"/>
   <stop offset="100%" style="stop-color:#329DB6; stop-opacity:1"/>
  </linearGradient>
  <linearGradient id="oomox" x1="0%" x2="0%" y1="0%" y2="100%">
   <stop offset="0%" style="stop-color:#66b7ff; stop-opacity:1"/>
   <stop offset="100%" style="stop-color:#006acc; stop-opacity:1"/>
  </linearGradient>
  <linearGradient id="rainblue" x1="0%" x2="0%" y1="0%" y2="100%">
   <stop offset="0%" style="stop-color:#00F260; stop-opacity:1"/>
   <stop offset="100%" style="stop-color:#0575E6; stop-opacity:1"/>
  </linearGradient>
  <linearGradient id="sunrise" x1="0%" x2="0%" y1="0%" y2="100%">
   <stop offset="0%" style="stop-color: #FF8501; stop-opacity:1"/>
   <stop offset="100%" style="stop-color: #FFCB01; stop-opacity:1"/>
  </linearGradient>
  <linearGradient id="telinkrin" x1="0%" x2="0%" y1="0%" y2="100%">
   <stop offset="0%" style="stop-color: #b2ced6; stop-opacity:1"/>
   <stop offset="100%" style="stop-color: #6da5b7; stop-opacity:1"/>
  </linearGradient>
  <linearGradient id="60spsycho" x1="0%" x2="0%" y1="0%" y2="100%">
   <stop offset="0%" style="stop-color: #df5940; stop-opacity:1"/>
   <stop offset="25%" style="stop-color: #d8d15f; stop-opacity:1"/>
   <stop offset="50%" style="stop-color: #e9882a; stop-opacity:1"/>
   <stop offset="100%" style="stop-color: #279362; stop-opacity:1"/>
  </linearGradient>
  <linearGradient id="90ssummer" x1="0%" x2="0%" y1="0%" y2="100%">
   <stop offset="0%" style="stop-color: #f618c7; stop-opacity:1"/>
   <stop offset="20%" style="stop-color: #94ffab; stop-opacity:1"/>
   <stop offset="50%" style="stop-color: #fbfd54; stop-opacity:1"/>
   <stop offset="100%" style="stop-color: #0f83ae; stop-opacity:1"/>
  </linearGradient>
 </defs>
 <path fill="url(#oomox)" class="ColorScheme-Text" d="M 8.0006839,-3.9765859e-6 C 6.4563939,-9.0397659e-4 5.2117939,0.29505602 4.1999939,0.77051602 c -0.20688,0.0935 -0.40842,0.19499 -0.60232,0.30777998 -0.0526,0.0315 -0.10015,0.0663 -0.1511,0.0989 -0.12804,0.0796 -0.25679,0.15887 -0.37776,0.24752 -0.10003,0.0733 -0.18988,0.15448 -0.28332,0.23244 -0.65819,0.54909 -1.13995,1.21502 -1.49845,1.9392 -0.0179,0.0364 -0.0417,0.0711 -0.0588,0.10766 -0.0177,0.0376 -0.0293,0.0763 -0.0462,0.11407 -0.21958999,0.48895 -0.40097999,0.99397 -0.50788999,1.51951 -0.02,0.0984 -0.0233,0.19997 -0.0399,0.29916 -0.0485,0.2704 -0.0856,0.53737 -0.10913,0.80066 -0.002,0.0238 -0.004,0.0472 -0.007,0.0711 -0.0259,0.31658 -0.0182,0.60517 -0.0147,0.90181 0.002,0.11008 -8.6e-4,0.2193 0.004,0.3293 0.0141,0.31699 0.0374,0.60022 0.0756,0.87597 0.0229,0.19267 0.0528,0.38204 0.084,0.57251 0.006,0.0253 0.008,0.0614 0.0126,0.0861 v 0.002 l 0.0231,0.10755 c 0.0333,0.18718 0.0582,0.37786 0.0986,0.56175 l 0.11752,0.53806 0.009,-0.002 1.13327999,5.51844 1.26129,-0.22814 c 0.70954,-0.12903 1.21534,-0.24227 1.45018,-0.43476 0.11789,-0.0966 0.18548,-0.20114 0.22036,-0.38741 0.0349,-0.18627 0.026,-0.45784 -0.0504,-0.82863 l -0.84997,-4.12161 c -0.0764,-0.3708 -0.17509,-0.62641 -0.28332,-0.78989 -0.10822,-0.16348 -0.21765,-0.24088 -0.36936,-0.29055 -0.30343,-0.0994 -0.8159,-0.0264 -1.52993,0.10325 l -0.17419,0.0323 c -0.19566,-1.17755 -0.23419,-2.39352 -0.0107,-3.49315 0.26504,-1.30293 0.86294,-2.43064 1.96645,-3.23918 1.08682,-0.79632 2.70252,-1.19798 4.30857,-1.19451 1.60603,-0.003 3.2217401,0.39819 4.3085601,1.19451 1.1035,0.80854 1.7014,1.93625 1.96644,3.23918 0.22345,1.09963 0.18517,2.3156 -0.0107,3.49315 l -0.17419,-0.0323 c -0.71402,-0.1297 -1.2265,-0.20271 -1.52992,-0.10325 -0.15172,0.0497 -0.26114,0.12707 -0.36937,0.29055 -0.10822,0.16348 -0.20692,0.41909 -0.28332,0.78989 l -0.84996,4.12161 c -0.0764,0.37079 -0.0853,0.64236 -0.0504,0.82863 0.0349,0.18627 0.10251,0.29077 0.22037,0.38741 0.23483,0.19249 0.74063,0.30573 1.45017,0.43476 l 1.26129,0.22814 1.13328,-5.51844 0.009,0.002 0.11753,-0.53806 c 0.0404,-0.18389 0.0653,-0.37456 0.0986,-0.56175 l 0.0231,-0.10755 v -0.002 c 0.006,-0.0247 0.008,-0.0607 0.0126,-0.0861 0.031,-0.19047 0.061,-0.37984 0.084,-0.57251 0.0381,-0.27575 0.0613,-0.55898 0.0756,-0.87597 0.006,-0.10998 0.002,-0.21922 0.004,-0.3293 0.003,-0.29664 0.0112,-0.58523 -0.0147,-0.90181 -0.002,-0.0239 -0.004,-0.0472 -0.007,-0.0711 -0.0235,-0.26329 -0.0607,-0.53026 -0.10913,-0.80066 -0.0166,-0.0992 -0.0199,-0.20076 -0.0399,-0.29916 -0.10692,-0.52554 -0.2883,-1.03056 -0.50789,-1.51951 -0.0169,-0.0378 -0.0286,-0.0765 -0.0462,-0.11407 -0.0171,-0.0366 -0.041,-0.0713 -0.0588,-0.10766 -0.3585,-0.72418 -0.84025,-1.39011 -1.49844,-1.9392 -0.0935,-0.078 -0.18329,-0.15916 -0.28333,-0.23244 -0.12097,-0.0886 -0.24972,-0.16796 -0.37776,-0.24752 -0.0509,-0.0326 -0.0985,-0.0674 -0.15109,-0.0989 -0.1939,-0.11278998 -0.39545,-0.21422998 -0.60232,-0.30777998 C 10.788914,0.29505602 9.5443139,-9.0397659e-4 8.0000239,-3.9765859e-6 Z"/>
</svg>
