<svg xmlns="http://www.w3.org/2000/svg" width="16" height="16" version="1.1">
 <defs>
   <style id="current-color-scheme" type="text/css">
   .ColorScheme-Text { color: #939597; } .ColorScheme-Highlight { color:#5294e2; }
  </style>
  <linearGradient id="arrongin" x1="0%" x2="0%" y1="0%" y2="100%">
   <stop offset="0%" style="stop-color:#dd9b44; stop-opacity:1"/>
   <stop offset="100%" style="stop-color:#ad6c16; stop-opacity:1"/>
  </linearGradient>
  <linearGradient id="aurora" x1="0%" x2="0%" y1="0%" y2="100%">
   <stop offset="0%" style="stop-color:#09D4DF; stop-opacity:1"/>
   <stop offset="100%" style="stop-color:#9269F4; stop-opacity:1"/>
  </linearGradient>
  <linearGradient id="cyberneon" x1="0%" x2="0%" y1="0%" y2="100%">
    <stop offset="0" style="stop-color:#0abdc6; stop-opacity:1"/>
    <stop offset="1" style="stop-color:#ea00d9; stop-opacity:1"/>
  </linearGradient>
  <linearGradient id="fitdance" x1="0%" x2="0%" y1="0%" y2="100%">
   <stop offset="0%" style="stop-color:#1AD6AB; stop-opacity:1"/>
   <stop offset="100%" style="stop-color:#329DB6; stop-opacity:1"/>
  </linearGradient>
  <linearGradient id="oomox" x1="0%" x2="0%" y1="0%" y2="100%">
   <stop offset="0%" style="stop-color:#66b7ff; stop-opacity:1"/>
   <stop offset="100%" style="stop-color:#006acc; stop-opacity:1"/>
  </linearGradient>
  <linearGradient id="rainblue" x1="0%" x2="0%" y1="0%" y2="100%">
   <stop offset="0%" style="stop-color:#00F260; stop-opacity:1"/>
   <stop offset="100%" style="stop-color:#0575E6; stop-opacity:1"/>
  </linearGradient>
  <linearGradient id="sunrise" x1="0%" x2="0%" y1="0%" y2="100%">
   <stop offset="0%" style="stop-color: #FF8501; stop-opacity:1"/>
   <stop offset="100%" style="stop-color: #FFCB01; stop-opacity:1"/>
  </linearGradient>
  <linearGradient id="telinkrin" x1="0%" x2="0%" y1="0%" y2="100%">
   <stop offset="0%" style="stop-color: #b2ced6; stop-opacity:1"/>
   <stop offset="100%" style="stop-color: #6da5b7; stop-opacity:1"/>
  </linearGradient>
  <linearGradient id="60spsycho" x1="0%" x2="0%" y1="0%" y2="100%">
   <stop offset="0%" style="stop-color: #df5940; stop-opacity:1"/>
   <stop offset="25%" style="stop-color: #d8d15f; stop-opacity:1"/>
   <stop offset="50%" style="stop-color: #e9882a; stop-opacity:1"/>
   <stop offset="100%" style="stop-color: #279362; stop-opacity:1"/>
  </linearGradient>
  <linearGradient id="90ssummer" x1="0%" x2="0%" y1="0%" y2="100%">
   <stop offset="0%" style="stop-color: #f618c7; stop-opacity:1"/>
   <stop offset="20%" style="stop-color: #94ffab; stop-opacity:1"/>
   <stop offset="50%" style="stop-color: #fbfd54; stop-opacity:1"/>
   <stop offset="100%" style="stop-color: #0f83ae; stop-opacity:1"/>
  </linearGradient>
 </defs>
 <path fill="url(#oomox)" class="ColorScheme-Text" d="M 10.560194,7.9999433 A 2.5601008,2.5784118 0 0 1 8.0000935,10.578355 2.5601008,2.5784118 0 0 1 5.4399927,7.9999433 2.5601008,2.5784118 0 0 1 8.0000935,5.4215314 2.5601008,2.5784118 0 0 1 10.560194,7.9999433"/>
 <path fill="url(#oomox)" class="ColorScheme-Text" d="M 9.6222502,3.0453763 A 4.0407065,5.4136483 0 0 1 12.04075,8.0001904 4.0407065,5.4136483 0 0 1 9.6183751,12.953366 5.1839999,5.2210784 0 0 0 13.184,8.0001904 5.1839999,5.2210784 0 0 0 9.6222502,3.0453763 Z M 6.381625,3.046899 A 5.1839999,5.2210784 0 0 0 2.8160003,8.0002026 5.1839999,5.2210784 0 0 0 6.3773747,12.954636 4.0407065,5.4136483 0 0 1 3.9592499,8.0002026 4.0407065,5.4136483 0 0 1 6.381625,3.046899 Z"/>
 <path fill="url(#oomox)" class="ColorScheme-Text" d="M 10.378,4.7701604e-8 A 8.6909643,6.1885102 89.431161 0 1 14.188625,7.9999376 8.6909643,6.1885102 89.431161 0 1 10.54925,15.931768 8.0000001,8.3795086 0 0 0 16,7.9999376 8.0000001,8.3795086 0 0 0 10.378,4.7701604e-8 Z M 5.4505,0.06835978 A 8.0000001,8.3795086 0 0 0 9.334478e-8,7.9999376 8.0000001,8.3795086 0 0 0 5.622375,16 8.6909643,6.1885102 89.431161 0 1 1.8113747,7.9999376 8.6909643,6.1885102 89.431161 0 1 5.4505,0.06835978 Z"/>
</svg>
