<svg xmlns="http://www.w3.org/2000/svg" width="16" height="16" version="1.1">
 <defs>
   <style id="current-color-scheme" type="text/css">
   .ColorScheme-Text { color: #939597; } .ColorScheme-Highlight { color:#5294e2; }
  </style>
  <linearGradient id="arrongin" x1="0%" x2="0%" y1="0%" y2="100%">
   <stop offset="0%" style="stop-color:#dd9b44; stop-opacity:1"/>
   <stop offset="100%" style="stop-color:#ad6c16; stop-opacity:1"/>
  </linearGradient>
  <linearGradient id="aurora" x1="0%" x2="0%" y1="0%" y2="100%">
   <stop offset="0%" style="stop-color:#09D4DF; stop-opacity:1"/>
   <stop offset="100%" style="stop-color:#9269F4; stop-opacity:1"/>
  </linearGradient>
  <linearGradient id="cyberneon" x1="0%" x2="0%" y1="0%" y2="100%">
    <stop offset="0" style="stop-color:#0abdc6; stop-opacity:1"/>
    <stop offset="1" style="stop-color:#ea00d9; stop-opacity:1"/>
  </linearGradient>
  <linearGradient id="fitdance" x1="0%" x2="0%" y1="0%" y2="100%">
   <stop offset="0%" style="stop-color:#1AD6AB; stop-opacity:1"/>
   <stop offset="100%" style="stop-color:#329DB6; stop-opacity:1"/>
  </linearGradient>
  <linearGradient id="oomox" x1="0%" x2="0%" y1="0%" y2="100%">
   <stop offset="0%" style="stop-color:#66b7ff; stop-opacity:1"/>
   <stop offset="100%" style="stop-color:#006acc; stop-opacity:1"/>
  </linearGradient>
  <linearGradient id="rainblue" x1="0%" x2="0%" y1="0%" y2="100%">
   <stop offset="0%" style="stop-color:#00F260; stop-opacity:1"/>
   <stop offset="100%" style="stop-color:#0575E6; stop-opacity:1"/>
  </linearGradient>
  <linearGradient id="sunrise" x1="0%" x2="0%" y1="0%" y2="100%">
   <stop offset="0%" style="stop-color: #FF8501; stop-opacity:1"/>
   <stop offset="100%" style="stop-color: #FFCB01; stop-opacity:1"/>
  </linearGradient>
  <linearGradient id="telinkrin" x1="0%" x2="0%" y1="0%" y2="100%">
   <stop offset="0%" style="stop-color: #b2ced6; stop-opacity:1"/>
   <stop offset="100%" style="stop-color: #6da5b7; stop-opacity:1"/>
  </linearGradient>
  <linearGradient id="60spsycho" x1="0%" x2="0%" y1="0%" y2="100%">
   <stop offset="0%" style="stop-color: #df5940; stop-opacity:1"/>
   <stop offset="25%" style="stop-color: #d8d15f; stop-opacity:1"/>
   <stop offset="50%" style="stop-color: #e9882a; stop-opacity:1"/>
   <stop offset="100%" style="stop-color: #279362; stop-opacity:1"/>
  </linearGradient>
  <linearGradient id="90ssummer" x1="0%" x2="0%" y1="0%" y2="100%">
   <stop offset="0%" style="stop-color: #f618c7; stop-opacity:1"/>
   <stop offset="20%" style="stop-color: #94ffab; stop-opacity:1"/>
   <stop offset="50%" style="stop-color: #fbfd54; stop-opacity:1"/>
   <stop offset="100%" style="stop-color: #0f83ae; stop-opacity:1"/>
  </linearGradient>
 </defs>
 <path fill="url(#oomox)" class="ColorScheme-Text" opacity="0.4" d="M 8.019,0 C 7.87,-0.003 7.723,0.034 7.594,0.106 L 0.407,2.376 C 0.155,2.518 0,2.78 0,3.064 v 8.095 c 0,0.283 0.155,0.546 0.407,0.687 l 7.187,4.048 c 0.251,0.141 0.561,0.141 0.813,0 l 7.186,-4.048 C 15.845,11.705 16,11.442 16,11.159 V 3.064 C 16,2.78 15.845,2.518 15.593,2.376 L 8.407,0.106 C 8.289,0.04 8.155,0.003 8.019,0 Z"/>
 <path fill="url(#oomox)" class="ColorScheme-Text" opacity="0.6" d="m 8,3.171 4.857,1.792 v 5.476 L 8,12.886 3.143,10.439 V 4.963 Z"/>
 <path fill="url(#oomox)" class="ColorScheme-Text" d="M 8.007,5.714 C 7.949,5.713 7.891,5.725 7.84,5.747 L 5.017,6.983 c -0.099,0.043 -0.16,0.123 -0.16,0.21 v 2.472 c 0,0.086 0.061,0.166 0.16,0.21 L 7.84,11.11 c 0.099,0.044 0.221,0.044 0.32,0 l 2.823,-1.235 c 0.099,-0.044 0.16,-0.124 0.16,-0.21 V 7.193 c 0,-0.087 -0.061,-0.167 -0.16,-0.21 L 8.16,5.747 C 8.113,5.726 8.061,5.715 8.007,5.714 Z"/>
</svg>
