<svg xmlns="http://www.w3.org/2000/svg" width="16" height="16" version="1.1">
 <defs>
   <style id="current-color-scheme" type="text/css">
   .ColorScheme-Text { color: #939597; } .ColorScheme-Highlight { color:#5294e2; }
  </style>
  <linearGradient id="arrongin" x1="0%" x2="0%" y1="0%" y2="100%">
   <stop offset="0%" style="stop-color:#dd9b44; stop-opacity:1"/>
   <stop offset="100%" style="stop-color:#ad6c16; stop-opacity:1"/>
  </linearGradient>
  <linearGradient id="aurora" x1="0%" x2="0%" y1="0%" y2="100%">
   <stop offset="0%" style="stop-color:#09D4DF; stop-opacity:1"/>
   <stop offset="100%" style="stop-color:#9269F4; stop-opacity:1"/>
  </linearGradient>
  <linearGradient id="cyberneon" x1="0%" x2="0%" y1="0%" y2="100%">
    <stop offset="0" style="stop-color:#0abdc6; stop-opacity:1"/>
    <stop offset="1" style="stop-color:#ea00d9; stop-opacity:1"/>
  </linearGradient>
  <linearGradient id="fitdance" x1="0%" x2="0%" y1="0%" y2="100%">
   <stop offset="0%" style="stop-color:#1AD6AB; stop-opacity:1"/>
   <stop offset="100%" style="stop-color:#329DB6; stop-opacity:1"/>
  </linearGradient>
  <linearGradient id="oomox" x1="0%" x2="0%" y1="0%" y2="100%">
   <stop offset="0%" style="stop-color:#66b7ff; stop-opacity:1"/>
   <stop offset="100%" style="stop-color:#006acc; stop-opacity:1"/>
  </linearGradient>
  <linearGradient id="rainblue" x1="0%" x2="0%" y1="0%" y2="100%">
   <stop offset="0%" style="stop-color:#00F260; stop-opacity:1"/>
   <stop offset="100%" style="stop-color:#0575E6; stop-opacity:1"/>
  </linearGradient>
  <linearGradient id="sunrise" x1="0%" x2="0%" y1="0%" y2="100%">
   <stop offset="0%" style="stop-color: #FF8501; stop-opacity:1"/>
   <stop offset="100%" style="stop-color: #FFCB01; stop-opacity:1"/>
  </linearGradient>
  <linearGradient id="telinkrin" x1="0%" x2="0%" y1="0%" y2="100%">
   <stop offset="0%" style="stop-color: #b2ced6; stop-opacity:1"/>
   <stop offset="100%" style="stop-color: #6da5b7; stop-opacity:1"/>
  </linearGradient>
  <linearGradient id="60spsycho" x1="0%" x2="0%" y1="0%" y2="100%">
   <stop offset="0%" style="stop-color: #df5940; stop-opacity:1"/>
   <stop offset="25%" style="stop-color: #d8d15f; stop-opacity:1"/>
   <stop offset="50%" style="stop-color: #e9882a; stop-opacity:1"/>
   <stop offset="100%" style="stop-color: #279362; stop-opacity:1"/>
  </linearGradient>
  <linearGradient id="90ssummer" x1="0%" x2="0%" y1="0%" y2="100%">
   <stop offset="0%" style="stop-color: #f618c7; stop-opacity:1"/>
   <stop offset="20%" style="stop-color: #94ffab; stop-opacity:1"/>
   <stop offset="50%" style="stop-color: #fbfd54; stop-opacity:1"/>
   <stop offset="100%" style="stop-color: #0f83ae; stop-opacity:1"/>
  </linearGradient>
 </defs>
 <path fill="url(#oomox)" class="ColorScheme-Text" d="m 8.00258,1.8397e-4 -0.002,0.002418 -0.002,0.002418 C 7.0358,2.1771477 6.29231,4.3911095 5.86931,5.7475486 4.47779,5.7487049 2.18542,5.8034755 9.9e-4,6.1014735 l 0.002,0.00242 v 0.00242 l 0.002,0.00242 v 0.00242 C 1.67254,7.7449806 3.44577,9.1716006 4.54223,10.013714 4.11316,11.405267 3.45378,13.714431 3.0484,15.990628 h 0.002 0.002 0.002 0.002 C 5.04992,14.828215 6.88986,13.495982 7.99052,12.659964 9.11688,13.518987 11.00424,14.891436 12.938,16 v -0.0024 -0.0024 -0.0024 l 0.002,-0.0024 c -0.43558,-2.352353 -1.07317,-4.60407 -1.48937,-5.962849 1.12523,-0.8607142 2.94801,-2.3212362 4.54838,-3.9119418 l -0.002,-0.00252 h -0.002 l -0.002,-0.00242 v -0.00242 C 13.73035,5.8167771 11.49821,5.7579981 10.14031,5.7542535 9.70946,4.3636359 8.94839,2.090871 8.00435,0 Z m 0.002,3.29082093 c 8.2e-4,0.00242 10e-4,0.00484 0.002,0.00725 v 7.8895261 l -0.0134,-0.0096 -0.66887,0.508614 c -0.54359,0.412896 -1.59428,1.064702 -2.4325,1.640724 0.26549,-1.025484 0.52334,-2.25498 0.73577,-2.943917 L 5.88175,9.5585918 5.2151,9.0452741 C 4.67348,8.6292935 3.75906,7.7809641 2.97881,7.1209487 3.98858,7.0694686 5.1816,6.9480903 5.87061,6.9475027 L 6.69555,6.9450848 6.95419,6.1200366 C 7.1631,5.4501813 7.64843,4.2747005 8.00433,3.290967 Z"/>
</svg>
