<svg xmlns="http://www.w3.org/2000/svg" width="16" height="16" version="1.1">
 <defs>
   <style id="current-color-scheme" type="text/css">
   .ColorScheme-Text { color: #939597; } .ColorScheme-Highlight { color:#5294e2; }
  </style>
  <linearGradient id="arrongin" x1="0%" x2="0%" y1="0%" y2="100%">
   <stop offset="0%" style="stop-color:#dd9b44; stop-opacity:1"/>
   <stop offset="100%" style="stop-color:#ad6c16; stop-opacity:1"/>
  </linearGradient>
  <linearGradient id="aurora" x1="0%" x2="0%" y1="0%" y2="100%">
   <stop offset="0%" style="stop-color:#09D4DF; stop-opacity:1"/>
   <stop offset="100%" style="stop-color:#9269F4; stop-opacity:1"/>
  </linearGradient>
  <linearGradient id="cyberneon" x1="0%" x2="0%" y1="0%" y2="100%">
    <stop offset="0" style="stop-color:#0abdc6; stop-opacity:1"/>
    <stop offset="1" style="stop-color:#ea00d9; stop-opacity:1"/>
  </linearGradient>
  <linearGradient id="fitdance" x1="0%" x2="0%" y1="0%" y2="100%">
   <stop offset="0%" style="stop-color:#1AD6AB; stop-opacity:1"/>
   <stop offset="100%" style="stop-color:#329DB6; stop-opacity:1"/>
  </linearGradient>
  <linearGradient id="oomox" x1="0%" x2="0%" y1="0%" y2="100%">
   <stop offset="0%" style="stop-color:#66b7ff; stop-opacity:1"/>
   <stop offset="100%" style="stop-color:#006acc; stop-opacity:1"/>
  </linearGradient>
  <linearGradient id="rainblue" x1="0%" x2="0%" y1="0%" y2="100%">
   <stop offset="0%" style="stop-color:#00F260; stop-opacity:1"/>
   <stop offset="100%" style="stop-color:#0575E6; stop-opacity:1"/>
  </linearGradient>
  <linearGradient id="sunrise" x1="0%" x2="0%" y1="0%" y2="100%">
   <stop offset="0%" style="stop-color: #FF8501; stop-opacity:1"/>
   <stop offset="100%" style="stop-color: #FFCB01; stop-opacity:1"/>
  </linearGradient>
  <linearGradient id="telinkrin" x1="0%" x2="0%" y1="0%" y2="100%">
   <stop offset="0%" style="stop-color: #b2ced6; stop-opacity:1"/>
   <stop offset="100%" style="stop-color: #6da5b7; stop-opacity:1"/>
  </linearGradient>
  <linearGradient id="60spsycho" x1="0%" x2="0%" y1="0%" y2="100%">
   <stop offset="0%" style="stop-color: #df5940; stop-opacity:1"/>
   <stop offset="25%" style="stop-color: #d8d15f; stop-opacity:1"/>
   <stop offset="50%" style="stop-color: #e9882a; stop-opacity:1"/>
   <stop offset="100%" style="stop-color: #279362; stop-opacity:1"/>
  </linearGradient>
  <linearGradient id="90ssummer" x1="0%" x2="0%" y1="0%" y2="100%">
   <stop offset="0%" style="stop-color: #f618c7; stop-opacity:1"/>
   <stop offset="20%" style="stop-color: #94ffab; stop-opacity:1"/>
   <stop offset="50%" style="stop-color: #fbfd54; stop-opacity:1"/>
   <stop offset="100%" style="stop-color: #0f83ae; stop-opacity:1"/>
  </linearGradient>
 </defs>
 <path fill="url(#oomox)" class="ColorScheme-Text" d="M 3 3 C 2.34239 3 1.8214725 3.0598994 1.3828125 3.2246094 C 0.9441525 3.3892794 0.59241563 3.68613 0.38476562 4.0625 C -0.030554375 4.81525 0.01457 5.7359506 0 6.9941406 L 0 6.9980469 L 0 9.0019531 L 0 9.0058594 C 0.0145 10.264049 -0.030604375 11.18475 0.38476562 11.9375 C 0.59242563 12.31387 0.9441525 12.610721 1.3828125 12.775391 C 1.8214825 12.939881 2.34239 13 3 13 L 9 13 C 9.65761 13 10.178517 12.940101 10.617188 12.775391 C 11.055848 12.610731 11.407574 12.31387 11.615234 11.9375 C 12.01441 11.214047 11.985841 10.318995 11.996094 9.1347656 C 13.550399 10.019747 14.960756 10.789321 16 11.28125 L 16 4.71875 C 14.981458 5.2013066 13.567535 5.9734611 11.996094 6.8671875 C 11.985809 5.681857 12.014683 4.7863969 11.615234 4.0625 C 11.407574 3.68613 11.055848 3.3892694 10.617188 3.2246094 C 10.178517 3.0601194 9.65761 3 9 3 L 3 3 z M 3 4 L 9 4 C 9.59239 4 10.005725 4.0625962 10.265625 4.1601562 C 10.525535 4.2577562 10.637091 4.3615119 10.738281 4.5449219 C 10.940191 4.9108819 10.98529 5.74147 11 7 L 11 7.4296875 L 11 8.5722656 L 11 8.9941406 C 10.9854 10.257671 10.940701 11.086315 10.738281 11.453125 C 10.637081 11.636535 10.525545 11.742284 10.265625 11.839844 C 10.005715 11.937414 9.59239 12 9 12 L 3 12 C 2.40761 12 1.994275 11.937404 1.734375 11.839844 C 1.474465 11.742244 1.3629088 11.636535 1.2617188 11.453125 C 1.0598087 11.087175 1.01471 10.25852 1 9 L 1 8.9941406 L 1 7.0058594 L 1 7 C 1.0147 5.74147 1.0597988 4.9108819 1.2617188 4.5449219 C 1.3629088 4.3615119 1.474465 4.2577162 1.734375 4.1601562 C 1.994275 4.0625862 2.40761 4 3 4 z"/>
</svg>
