<svg xmlns="http://www.w3.org/2000/svg" width="16" height="16" version="1.1">
 <defs>
   <style id="current-color-scheme" type="text/css">
   .ColorScheme-Text { color: #939597; } .ColorScheme-Highlight { color:#5294e2; }
  </style>
  <linearGradient id="arrongin" x1="0%" x2="0%" y1="0%" y2="100%">
   <stop offset="0%" style="stop-color:#dd9b44; stop-opacity:1"/>
   <stop offset="100%" style="stop-color:#ad6c16; stop-opacity:1"/>
  </linearGradient>
  <linearGradient id="aurora" x1="0%" x2="0%" y1="0%" y2="100%">
   <stop offset="0%" style="stop-color:#09D4DF; stop-opacity:1"/>
   <stop offset="100%" style="stop-color:#9269F4; stop-opacity:1"/>
  </linearGradient>
  <linearGradient id="cyberneon" x1="0%" x2="0%" y1="0%" y2="100%">
    <stop offset="0" style="stop-color:#0abdc6; stop-opacity:1"/>
    <stop offset="1" style="stop-color:#ea00d9; stop-opacity:1"/>
  </linearGradient>
  <linearGradient id="fitdance" x1="0%" x2="0%" y1="0%" y2="100%">
   <stop offset="0%" style="stop-color:#1AD6AB; stop-opacity:1"/>
   <stop offset="100%" style="stop-color:#329DB6; stop-opacity:1"/>
  </linearGradient>
  <linearGradient id="oomox" x1="0%" x2="0%" y1="0%" y2="100%">
   <stop offset="0%" style="stop-color:#66b7ff; stop-opacity:1"/>
   <stop offset="100%" style="stop-color:#006acc; stop-opacity:1"/>
  </linearGradient>
  <linearGradient id="rainblue" x1="0%" x2="0%" y1="0%" y2="100%">
   <stop offset="0%" style="stop-color:#00F260; stop-opacity:1"/>
   <stop offset="100%" style="stop-color:#0575E6; stop-opacity:1"/>
  </linearGradient>
  <linearGradient id="sunrise" x1="0%" x2="0%" y1="0%" y2="100%">
   <stop offset="0%" style="stop-color: #FF8501; stop-opacity:1"/>
   <stop offset="100%" style="stop-color: #FFCB01; stop-opacity:1"/>
  </linearGradient>
  <linearGradient id="telinkrin" x1="0%" x2="0%" y1="0%" y2="100%">
   <stop offset="0%" style="stop-color: #b2ced6; stop-opacity:1"/>
   <stop offset="100%" style="stop-color: #6da5b7; stop-opacity:1"/>
  </linearGradient>
  <linearGradient id="60spsycho" x1="0%" x2="0%" y1="0%" y2="100%">
   <stop offset="0%" style="stop-color: #df5940; stop-opacity:1"/>
   <stop offset="25%" style="stop-color: #d8d15f; stop-opacity:1"/>
   <stop offset="50%" style="stop-color: #e9882a; stop-opacity:1"/>
   <stop offset="100%" style="stop-color: #279362; stop-opacity:1"/>
  </linearGradient>
  <linearGradient id="90ssummer" x1="0%" x2="0%" y1="0%" y2="100%">
   <stop offset="0%" style="stop-color: #f618c7; stop-opacity:1"/>
   <stop offset="20%" style="stop-color: #94ffab; stop-opacity:1"/>
   <stop offset="50%" style="stop-color: #fbfd54; stop-opacity:1"/>
   <stop offset="100%" style="stop-color: #0f83ae; stop-opacity:1"/>
  </linearGradient>
 </defs>
 <path fill="url(#oomox)" class="ColorScheme-Text" d="M 7.9976313,1e-7 A 6.857143,6.857143 0 0 0 5.0802205,13.060269 c -0.6146411,0.220032 -1.1421434,0.485265 -1.5401785,0.763392 -0.8,0.64 -1.1428572,1.350447 -1.1428572,1.350447 A 0.57142858,0.57142858 0 0 0 2.8547741,16 H 13.140489 a 0.57142858,0.57142858 0 0 0 0.45759,-0.825892 c 0,0 -0.342857,-0.71159 -1.142858,-1.350447 -0.397862,-0.278503 -0.925899,-0.541263 -1.540179,-0.76116 A 6.857143,6.857143 0 0 0 7.9976313,1e-7 Z m -0.055803,4.5714286 a 2.2857143,2.2857143 0 0 1 0.055803,0 A 2.2857143,2.2857143 0 0 1 10.283346,6.8571431 2.2857143,2.2857143 0 0 1 7.9976313,9.1428569 2.2857143,2.2857143 0 0 1 5.711917,6.8571431 2.2857143,2.2857143 0 0 1 7.9418283,4.5714287 Z m 0.055803,1.1428572 A 1.1428572,1.1428572 0 0 0 6.8547742,6.8571431 1.1428572,1.1428572 0 0 0 7.9976313,8.0000002 1.1428572,1.1428572 0 0 0 9.1404885,6.8571431 1.1428572,1.1428572 0 0 0 7.9976313,5.7142859 Z m 2.8437497,3.428571 a 0.57142858,0.57142858 0 0 1 0.01339,0 0.57142858,0.57142858 0 0 1 0.571428,0.571429 0.57142858,0.57142858 0 0 1 -0.571428,0.5714281 0.57142858,0.57142858 0 0 1 -0.571429,-0.5714281 0.57142858,0.57142858 0 0 1 0.558035,-0.571429 z"/>
</svg>
