<svg xmlns="http://www.w3.org/2000/svg" width="16" height="16" version="1.1">
 <defs>
   <style id="current-color-scheme" type="text/css">
   .ColorScheme-Text { color: #939597; } .ColorScheme-Highlight { color:#5294e2; }
  </style>
  <linearGradient id="arrongin" x1="0%" x2="0%" y1="0%" y2="100%">
   <stop offset="0%" style="stop-color:#dd9b44; stop-opacity:1"/>
   <stop offset="100%" style="stop-color:#ad6c16; stop-opacity:1"/>
  </linearGradient>
  <linearGradient id="aurora" x1="0%" x2="0%" y1="0%" y2="100%">
   <stop offset="0%" style="stop-color:#09D4DF; stop-opacity:1"/>
   <stop offset="100%" style="stop-color:#9269F4; stop-opacity:1"/>
  </linearGradient>
  <linearGradient id="cyberneon" x1="0%" x2="0%" y1="0%" y2="100%">
    <stop offset="0" style="stop-color:#0abdc6; stop-opacity:1"/>
    <stop offset="1" style="stop-color:#ea00d9; stop-opacity:1"/>
  </linearGradient>
  <linearGradient id="fitdance" x1="0%" x2="0%" y1="0%" y2="100%">
   <stop offset="0%" style="stop-color:#1AD6AB; stop-opacity:1"/>
   <stop offset="100%" style="stop-color:#329DB6; stop-opacity:1"/>
  </linearGradient>
  <linearGradient id="oomox" x1="0%" x2="0%" y1="0%" y2="100%">
   <stop offset="0%" style="stop-color:#66b7ff; stop-opacity:1"/>
   <stop offset="100%" style="stop-color:#006acc; stop-opacity:1"/>
  </linearGradient>
  <linearGradient id="rainblue" x1="0%" x2="0%" y1="0%" y2="100%">
   <stop offset="0%" style="stop-color:#00F260; stop-opacity:1"/>
   <stop offset="100%" style="stop-color:#0575E6; stop-opacity:1"/>
  </linearGradient>
  <linearGradient id="sunrise" x1="0%" x2="0%" y1="0%" y2="100%">
   <stop offset="0%" style="stop-color: #FF8501; stop-opacity:1"/>
   <stop offset="100%" style="stop-color: #FFCB01; stop-opacity:1"/>
  </linearGradient>
  <linearGradient id="telinkrin" x1="0%" x2="0%" y1="0%" y2="100%">
   <stop offset="0%" style="stop-color: #b2ced6; stop-opacity:1"/>
   <stop offset="100%" style="stop-color: #6da5b7; stop-opacity:1"/>
  </linearGradient>
  <linearGradient id="60spsycho" x1="0%" x2="0%" y1="0%" y2="100%">
   <stop offset="0%" style="stop-color: #df5940; stop-opacity:1"/>
   <stop offset="25%" style="stop-color: #d8d15f; stop-opacity:1"/>
   <stop offset="50%" style="stop-color: #e9882a; stop-opacity:1"/>
   <stop offset="100%" style="stop-color: #279362; stop-opacity:1"/>
  </linearGradient>
  <linearGradient id="90ssummer" x1="0%" x2="0%" y1="0%" y2="100%">
   <stop offset="0%" style="stop-color: #f618c7; stop-opacity:1"/>
   <stop offset="20%" style="stop-color: #94ffab; stop-opacity:1"/>
   <stop offset="50%" style="stop-color: #fbfd54; stop-opacity:1"/>
   <stop offset="100%" style="stop-color: #0f83ae; stop-opacity:1"/>
  </linearGradient>
 </defs>
 <path fill="url(#oomox)" class="ColorScheme-Text" d="M 3.99414,7 C 2.73595,7.0146 1.81525,6.9694 1.0625,7.38477 0.68613,7.59242 0.38928,7.94415 0.22461,8.38281 0.05994,8.82147 0,9.34239 0,10 v 2 c 0,0.65761 0.0599,1.17853 0.22461,1.61719 0.16467,0.43866 0.46152,0.79039 0.83789,0.99804 0.75275,0.41532 1.67345,0.3702 2.93164,0.38477 h 0.004 2.0039 0.004 C 7.26423,14.9854 8.18493,15.0306 8.93768,14.61523 9.31405,14.40758 9.6109,14.05585 9.77557,13.61719 9.94006,13.17853 10,12.65761 10,12 V 10 C 10,9.34239 9.9401,8.82148 9.77539,8.38281 9.61073,7.94415 9.31387,7.59243 8.9375,7.38477 8.18475,6.96943 7.26406,7.01452 6.00586,7 h -0.004 -2.0039 z m 0.006,1 H 4.00614 6 C 7.25852,8.0147 8.08717,8.0598 8.45312,8.26172 8.63653,8.36292 8.74228,8.47446 8.83984,8.73438 8.93741,8.99429 9,9.40761 9,10 v 2 C 9,12.59239 8.9374,13.00572 8.83984,13.26562 8.74224,13.52553 8.63849,13.63709 8.45508,13.73828 8.08912,13.94019 7.25853,13.98526 6,14 H 4.00586 4 C 2.74147,13.9853 1.91088,13.9402 1.54492,13.73828 1.36151,13.63709 1.25772,13.52553 1.16016,13.26562 1.06259,13.00572 1,12.59239 1,12 V 10 C 1,9.40761 1.0626,8.99428 1.16016,8.73438 1.25776,8.47447 1.36151,8.36291 1.54492,8.26172 1.91088,8.05981 2.74147,8.01474 4,8 Z"/>
 <path fill="url(#oomox)" class="ColorScheme-Text" opacity="0.6" d="M 6.99414,2 C 5.73595,2.0146 4.81525,1.9694 4.0625,2.38477 3.68613,2.59242 3.38928,2.94415 3.22461,3.38281 3.05994,3.82147 3,4.34239 3,5 V 6 H 4 V 5 C 4,4.40761 4.0626,3.99428 4.16016,3.73438 4.25776,3.47447 4.36151,3.36291 4.54492,3.26172 4.91088,3.05981 5.74147,3.01474 7,3 h 3.5 1.5 c 1.25852,0.0147 2.08717,0.0598 2.45312,0.26172 0.18341,0.1012 0.28916,0.21274 0.38672,0.47266 C 14.93741,3.99429 15,4.40761 15,5 v 4 c 0,0.59239 -0.0626,1.00572 -0.16016,1.26562 -0.0976,0.25991 -0.20135,0.37147 -0.38476,0.47266 C 14.08826,10.94067 13.25768,10.98537 11.99414,11 H 11 v 1 h 1.00195 0.004 c 1.25819,-0.0146 2.17889,0.0306 2.93164,-0.38477 0.37637,-0.20765 0.67322,-0.55938 0.83789,-0.99804 C 15.94006,10.17853 16,9.65761 16,9 V 5 C 16,4.34239 15.9401,3.82148 15.77539,3.38281 15.61073,2.94415 15.31387,2.59243 14.9375,2.38477 14.18475,1.96943 13.26406,2.01452 12.00586,2 h -0.004 -1.50195 -3.50195 z"/>
</svg>
