<svg xmlns="http://www.w3.org/2000/svg" width="16" height="16" version="1.1">
 <defs>
   <style id="current-color-scheme" type="text/css">
   .ColorScheme-Text { color: #939597; } .ColorScheme-Highlight { color:#5294e2; }
  </style>
  <linearGradient id="arrongin" x1="0%" x2="0%" y1="0%" y2="100%">
   <stop offset="0%" style="stop-color:#dd9b44; stop-opacity:1"/>
   <stop offset="100%" style="stop-color:#ad6c16; stop-opacity:1"/>
  </linearGradient>
  <linearGradient id="aurora" x1="0%" x2="0%" y1="0%" y2="100%">
   <stop offset="0%" style="stop-color:#09D4DF; stop-opacity:1"/>
   <stop offset="100%" style="stop-color:#9269F4; stop-opacity:1"/>
  </linearGradient>
  <linearGradient id="cyberneon" x1="0%" x2="0%" y1="0%" y2="100%">
    <stop offset="0" style="stop-color:#0abdc6; stop-opacity:1"/>
    <stop offset="1" style="stop-color:#ea00d9; stop-opacity:1"/>
  </linearGradient>
  <linearGradient id="fitdance" x1="0%" x2="0%" y1="0%" y2="100%">
   <stop offset="0%" style="stop-color:#1AD6AB; stop-opacity:1"/>
   <stop offset="100%" style="stop-color:#329DB6; stop-opacity:1"/>
  </linearGradient>
  <linearGradient id="oomox" x1="0%" x2="0%" y1="0%" y2="100%">
   <stop offset="0%" style="stop-color:#66b7ff; stop-opacity:1"/>
   <stop offset="100%" style="stop-color:#006acc; stop-opacity:1"/>
  </linearGradient>
  <linearGradient id="rainblue" x1="0%" x2="0%" y1="0%" y2="100%">
   <stop offset="0%" style="stop-color:#00F260; stop-opacity:1"/>
   <stop offset="100%" style="stop-color:#0575E6; stop-opacity:1"/>
  </linearGradient>
  <linearGradient id="sunrise" x1="0%" x2="0%" y1="0%" y2="100%">
   <stop offset="0%" style="stop-color: #FF8501; stop-opacity:1"/>
   <stop offset="100%" style="stop-color: #FFCB01; stop-opacity:1"/>
  </linearGradient>
  <linearGradient id="telinkrin" x1="0%" x2="0%" y1="0%" y2="100%">
   <stop offset="0%" style="stop-color: #b2ced6; stop-opacity:1"/>
   <stop offset="100%" style="stop-color: #6da5b7; stop-opacity:1"/>
  </linearGradient>
  <linearGradient id="60spsycho" x1="0%" x2="0%" y1="0%" y2="100%">
   <stop offset="0%" style="stop-color: #df5940; stop-opacity:1"/>
   <stop offset="25%" style="stop-color: #d8d15f; stop-opacity:1"/>
   <stop offset="50%" style="stop-color: #e9882a; stop-opacity:1"/>
   <stop offset="100%" style="stop-color: #279362; stop-opacity:1"/>
  </linearGradient>
  <linearGradient id="90ssummer" x1="0%" x2="0%" y1="0%" y2="100%">
   <stop offset="0%" style="stop-color: #f618c7; stop-opacity:1"/>
   <stop offset="20%" style="stop-color: #94ffab; stop-opacity:1"/>
   <stop offset="50%" style="stop-color: #fbfd54; stop-opacity:1"/>
   <stop offset="100%" style="stop-color: #0f83ae; stop-opacity:1"/>
  </linearGradient>
 </defs>
 <path fill="url(#oomox)" class="ColorScheme-Text" d="M 7.9980469 1.6933594 C 7.9980469 1.6933594 4.8627787 1.6920788 2.7363281 1.8515625 L 2.7246094 1.8515625 L 2.7128906 1.8535156 C 2.5045086 1.8792201 1.6067661 1.9174368 0.9140625 2.6660156 C 0.58105664 3.0175149 0.43611846 3.454569 0.33398438 3.8144531 C 0.23150361 4.1755588 0.18945312 4.4746094 0.18945312 4.4746094 L 0.18945312 4.4785156 L 0.18945312 4.484375 C 0.18945312 4.484375 0.039332659 5.7572209 0.037109375 7.0488281 L 0.033203125 8.9453125 C 0.030972801 10.239313 0.18554687 11.513672 0.18554688 11.513672 L 0.18554688 11.517578 L 0.1875 11.521484 C 0.1875 11.521484 0.22759842 11.820511 0.33007812 12.181641 C 0.43221139 12.54155 0.57908981 12.978566 0.91210938 13.330078 C 1.6311024 14.107479 2.64996 14.108266 2.8261719 14.142578 L 2.8496094 14.146484 L 2.8730469 14.148438 C 4.1636652 14.276914 7.9941406 14.306641 7.9941406 14.306641 L 7.9960938 14.306641 L 8 14.306641 C 8 14.306641 11.136001 14.298941 13.259766 14.144531 L 13.273438 14.142578 L 13.285156 14.142578 C 13.493261 14.116907 14.393016 14.079105 15.085938 13.330078 C 15.418989 12.978563 15.563887 12.541555 15.666016 12.181641 C 15.768491 11.820505 15.810547 11.521484 15.810547 11.521484 L 15.810547 11.515625 L 15.810547 11.511719 C 15.810547 11.511719 15.960666 10.238969 15.962891 8.9472656 L 15.966797 7.0488281 C 15.969069 5.7549024 15.814453 4.4824219 15.814453 4.4824219 L 15.814453 4.4785156 L 15.8125 4.4746094 C 15.8125 4.4746094 15.772399 4.1755635 15.669922 3.8144531 C 15.567791 3.4545635 15.420924 3.0175176 15.087891 2.6660156 C 14.394895 1.91633 13.495978 1.8791795 13.289062 1.8535156 L 13.277344 1.8515625 L 13.265625 1.8515625 C 11.139273 1.6920799 8.0058594 1.6933594 8.0058594 1.6933594 L 7.9980469 1.6933594 z M 7.9980469 2.6933594 L 8.0039062 2.6933594 C 8.0039062 2.6933594 11.117448 2.6954559 13.169922 2.8476562 C 13.545084 2.8936945 13.916915 2.8671236 14.357422 3.3457031 L 14.359375 3.3476562 L 14.363281 3.3515625 C 14.475502 3.4693564 14.6249 3.7965229 14.707031 4.0859375 C 14.787929 4.3710054 14.819358 4.5946955 14.820312 4.6015625 C 14.820312 4.6015625 14.968925 5.8365539 14.966797 7.0488281 L 14.962891 8.9453125 C 14.960807 10.155182 14.819491 11.375013 14.818359 11.384766 C 14.818359 11.384766 14.787209 11.618764 14.705078 11.908203 C 14.622947 12.197642 14.471585 12.526751 14.359375 12.644531 L 14.355469 12.646484 L 14.353516 12.650391 C 13.912974 13.128635 13.539942 13.100844 13.166016 13.146484 C 11.11404 13.293899 8.0132741 13.306607 8.0039062 13.306641 C 8.0039062 13.306641 4.1317679 13.263992 3.0039062 13.15625 C 2.5209509 13.064609 2.0552484 13.098637 1.6425781 12.650391 L 1.640625 12.646484 L 1.6367188 12.644531 C 1.5245166 12.526748 1.3751062 12.197648 1.2929688 11.908203 C 1.2120649 11.623105 1.1806418 11.399446 1.1796875 11.392578 C 1.1796875 11.392578 1.0311134 10.159664 1.0332031 8.9472656 L 1.0371094 7.0488281 C 1.0391918 5.8390614 1.1805086 4.6191287 1.1816406 4.609375 C 1.1816406 4.609375 1.2127855 4.3753568 1.2949219 4.0859375 C 1.3770582 3.7965182 1.5284106 3.4693586 1.640625 3.3515625 L 1.6445312 3.3476562 L 1.6464844 3.3457031 C 2.0875682 2.8670107 2.4583636 2.8932606 2.8320312 2.8476562 C 4.8845837 2.6954569 7.9980469 2.6933594 7.9980469 2.6933594 z M 5.0117188 3.7460938 L 5.0117188 4.6816406 L 5.0117188 12.251953 L 11.390625 8.0136719 L 5.0117188 3.7460938 z M 6.0117188 5.6191406 L 9.5878906 8.0117188 L 6.0117188 10.386719 L 6.0117188 5.6191406 z"/>
</svg>