<svg xmlns="http://www.w3.org/2000/svg" width="22" height="22" version="1.1">
 <defs>
  <style id="current-color-scheme" type="text/css">
   .ColorScheme-Text { color: #ececec; } .ColorScheme-Highlight { color: #1AD6AB; }
  </style>
  <linearGradient id="arrongin" x1="0%" x2="0%" y1="0%" y2="100%">
   <stop id="stop3" offset="0%" stop-color="#dd9b44"/>
   <stop id="stop5" offset="100%" stop-color="#ad6c16"/>
  </linearGradient>
  <linearGradient id="aurora" x1="0%" x2="0%" y1="0%" y2="100%">
   <stop id="stop8" offset="0%" stop-color="#09D4DF"/>
   <stop id="stop10" offset="100%" stop-color="#9269F4"/>
  </linearGradient>
  <linearGradient id="cyberblue" x1="0%" x2="0%" y1="0%" y2="100%">
   <stop id="stop13" offset="0%" stop-color="#07B3FF"/>
   <stop id="stop15" offset="100%" stop-color="#007DE8"/>
  </linearGradient>
  <linearGradient id="cyberneon" x1="0%" x2="0%" y1="0%" y2="100%">
   <stop id="stop18" offset="0%" stop-color="#0abdc6"/>
   <stop id="stop20" offset="100%" stop-color="#ea00d9"/>
  </linearGradient>
  <linearGradient id="fitdance" x1="0%" x2="0%" y1="0%" y2="100%">
   <stop id="stop23" offset="0%" stop-color="#1AD6AB"/>
   <stop id="stop25" offset="100%" stop-color="#329DB6"/>
  </linearGradient>
  <linearGradient id="oomox" x1="0%" x2="0%" y1="0%" y2="100%">
   <stop id="stop28" offset="0%" stop-color="#efefe7"/>
   <stop id="stop30" offset="100%" stop-color="#8f8f8b"/>
  </linearGradient>
  <linearGradient id="rainblue" x1="0%" x2="0%" y1="0%" y2="100%">
   <stop id="stop33" offset="0%" stop-color="#00F260"/>
   <stop id="stop35" offset="100%" stop-color="#0575E6"/>
  </linearGradient>
  <linearGradient id="redcarbon" x1="0%" x2="100%" y1="0%" y2="100%">
   <stop id="stop38" offset="0%" stop-color="#FF6D57"/>
   <stop id="stop40" offset="50%" stop-color="#FF5160"/>
   <stop id="stop42" offset="100%" stop-color="#F50F22"/>
  </linearGradient>
  <linearGradient id="sunrise" x1="0%" x2="0%" y1="0%" y2="100%">
   <stop id="stop45" offset="0%" stop-color="#FF8501"/>
   <stop id="stop47" offset="100%" stop-color="#FFCB01"/>
  </linearGradient>
  <linearGradient id="telinkrin" x1="0%" x2="0%" y1="0%" y2="100%">
   <stop id="stop50" offset="0%" stop-color="#b2ced6"/>
   <stop id="stop52" offset="100%" stop-color="#6da5b7"/>
  </linearGradient>
  <linearGradient id="60spsycho" x1="0%" x2="0%" y1="0%" y2="100%">
   <stop id="stop55" offset="0%" stop-color="#df5940"/>
   <stop id="stop57" offset="25%" stop-color="#d8d15f"/>
   <stop id="stop59" offset="50%" stop-color="#e9882a"/>
   <stop id="stop61" offset="100%" stop-color="#279362"/>
  </linearGradient>
  <linearGradient id="90ssummer" x1="0%" x2="0%" y1="0%" y2="100%">
   <stop id="stop64" offset="0%" stop-color="#f618c7"/>
   <stop id="stop66" offset="20%" stop-color="#94ffab"/>
   <stop id="stop68" offset="50%" stop-color="#fbfd54"/>
   <stop id="stop70" offset="100%" stop-color="#0f83ae"/>
  </linearGradient>
 </defs>
 <path fill="currentColor" class="ColorScheme-Text" fill-rule="evenodd" d="M 14.389 0.733 C 21.049 0.733 22 1.683 22 8.337 L 22 13.665 C 22 20.317 21.049 21.267 14.389 21.267 L 7.611 21.267 C 0.951 21.267 0 20.317 0 13.665 L 0 8.337 C 0 1.683 0.951 0.733 7.611 0.733 L 14.389 0.733 Z M 14.396 2.791 C 15.111 2.791 15.813 2.805 16.528 2.846 C 17.036 2.874 17.531 2.929 18.026 3.011 C 18.329 3.066 18.618 3.149 18.893 3.273 C 19.016 3.328 19.14 3.41 19.236 3.493 C 19.333 3.603 19.401 3.713 19.456 3.836 C 19.58 4.111 19.663 4.4 19.718 4.703 C 19.8 5.198 19.855 5.693 19.883 6.201 C 19.924 6.916 19.938 7.618 19.938 8.333 C 19.938 8.333 19.938 8.333 19.938 8.333 L 19.938 13.667 C 19.938 13.667 19.938 13.667 19.938 13.681 C 19.938 14.383 19.924 15.084 19.883 15.799 C 19.855 16.307 19.8 16.803 19.718 17.298 C 19.663 17.6 19.58 17.889 19.456 18.164 C 19.401 18.288 19.333 18.398 19.236 18.508 C 19.14 18.59 19.016 18.673 18.893 18.728 C 18.618 18.851 18.329 18.934 18.026 18.989 C 17.531 19.071 17.036 19.126 16.528 19.154 C 15.813 19.195 15.111 19.209 14.396 19.209 C 14.396 19.209 14.396 19.209 14.396 19.209 L 7.604 19.209 C 7.604 19.209 7.604 19.209 7.604 19.209 C 6.889 19.209 6.188 19.195 5.473 19.154 C 4.964 19.126 4.469 19.071 3.974 18.989 C 3.671 18.934 3.383 18.851 3.108 18.728 C 2.984 18.673 2.86 18.59 2.764 18.508 C 2.668 18.398 2.599 18.288 2.544 18.164 C 2.42 17.889 2.338 17.6 2.282 17.298 C 2.2 16.803 2.145 16.307 2.118 15.799 C 2.076 15.084 2.063 14.383 2.063 13.681 C 2.063 13.667 2.063 13.667 2.063 13.667 L 2.063 8.333 C 2.063 8.333 2.063 8.333 2.063 8.333 C 2.063 7.618 2.076 6.916 2.118 6.201 C 2.145 5.693 2.2 5.198 2.282 4.703 C 2.338 4.4 2.42 4.111 2.544 3.836 C 2.599 3.713 2.668 3.603 2.764 3.493 C 2.86 3.41 2.984 3.328 3.108 3.273 C 3.383 3.149 3.671 3.066 3.974 3.011 C 4.469 2.929 4.964 2.874 5.473 2.846 C 6.188 2.805 6.889 2.791 7.604 2.791 C 7.604 2.791 7.604 2.791 7.604 2.791 L 14.396 2.791 C 14.396 2.791 14.396 2.791 14.396 2.791 Z M 5.929 5.528 L 5.929 16.53 C 5.929 16.53 11.51 14.275 16.071 11.026 C 16.071 11.025 16.07 11.025 16.068 11.023 C 16.068 11.021 16.068 11.021 16.067 11.019 C 16.066 11.018 16.066 11.017 16.064 11.015 C 16.064 11.014 16.064 11.014 16.064 11.012 C 11.253 7.659 5.929 5.528 5.929 5.528 L 5.929 5.528 Z"/>
</svg>
