<svg xmlns="http://www.w3.org/2000/svg" width="16" height="16" version="1.1">
 <defs>
   <style id="current-color-scheme" type="text/css">
   .ColorScheme-Text { color: #939597; } .ColorScheme-Highlight { color: #1AD6AB; }
  </style>
  <linearGradient id="arrongin" x1="0%" x2="0%" y1="0%" y2="100%">
   <stop offset="0%" style="stop-color: #dd9b44; stop-opacity: 1"/>
   <stop offset="100%" style="stop-color: #ad6c16; stop-opacity: 1"/>
  </linearGradient>
  <linearGradient id="aurora" x1="0%" x2="0%" y1="0%" y2="100%">
   <stop offset="0%" style="stop-color: #09D4DF; stop-opacity: 1"/>
   <stop offset="100%" style="stop-color: #9269F4; stop-opacity: 1"/>
  </linearGradient>
  <linearGradient id="cyberneon" x1="0%" x2="0%" y1="0%" y2="100%">
    <stop offset="0" style="stop-color: #0abdc6; stop-opacity: 1"/>
    <stop offset="1" style="stop-color: #ea00d9; stop-opacity: 1"/>
  </linearGradient>
  <linearGradient id="fitdance" x1="0%" x2="0%" y1="0%" y2="100%">
   <stop offset="0%" style="stop-color: #1AD6AB; stop-opacity: 1"/>
   <stop offset="100%" style="stop-color: #329DB6; stop-opacity: 1"/>
  </linearGradient>
  <linearGradient id="oomox" x1="0%" x2="0%" y1="0%" y2="100%">
   <stop offset="0%" style="stop-color: #f27979; stop-opacity: 1"/>
   <stop offset="100%" style="stop-color: #9e2121; stop-opacity: 1"/>
  </linearGradient>
  <linearGradient id="rainblue" x1="0%" x2="0%" y1="0%" y2="100%">
   <stop offset="0%" style="stop-color: #00F260; stop-opacity: 1"/>
   <stop offset="100%" style="stop-color: #0575E6; stop-opacity: 1"/>
  </linearGradient>
  <linearGradient id="sunrise" x1="0%" x2="0%" y1="0%" y2="100%">
   <stop offset="0%" style="stop-color: #FF8501; stop-opacity: 1"/>
   <stop offset="100%" style="stop-color: #FFCB01; stop-opacity: 1"/>
  </linearGradient>
  <linearGradient id="telinkrin" x1="0%" x2="0%" y1="0%" y2="100%">
   <stop offset="0%" style="stop-color: #b2ced6; stop-opacity: 1"/>
   <stop offset="100%" style="stop-color: #6da5b7; stop-opacity: 1"/>
  </linearGradient>
  <linearGradient id="60spsycho" x1="0%" x2="0%" y1="0%" y2="100%">
   <stop offset="0%" style="stop-color: #df5940; stop-opacity: 1"/>
   <stop offset="25%" style="stop-color: #d8d15f; stop-opacity: 1"/>
   <stop offset="50%" style="stop-color: #e9882a; stop-opacity: 1"/>
   <stop offset="100%" style="stop-color: #279362; stop-opacity: 1"/>
  </linearGradient>
  <linearGradient id="90ssummer" x1="0%" x2="0%" y1="0%" y2="100%">
   <stop offset="0%" style="stop-color: #f618c7; stop-opacity: 1"/>
   <stop offset="20%" style="stop-color: #94ffab; stop-opacity: 1"/>
   <stop offset="50%" style="stop-color: #fbfd54; stop-opacity: 1"/>
   <stop offset="100%" style="stop-color: #0f83ae; stop-opacity: 1"/>
  </linearGradient>
 </defs>
 <path fill="url(#oomox)" class="ColorScheme-Text" d="m 7.1934003,2.3e-7 c -1.0982,1.37999997 -1.4274,1.56999997 -1.0313001,2.45000007 0.3591,0.8 1.2869,0.7 0.8203,2.55 0.7664,-0.9 1.3753001,-1.54 0.7735,-2.46 -0.6122,-0.9400001 -0.9475,-1.0100001 -0.5625,-2.54000007 z m 2.9995997,0 C 9.0952003,1.3800002 8.7660003,1.5700002 9.1621003,2.4500003 c 0.3591,0.8 1.2868997,0.7 0.8203,2.55 0.7665997,-0.9 1.3755997,-1.54 0.7735997,-2.46 C 10.144,1.6000002 9.8084003,1.5300002 10.193,2.3e-7 Z m 3,0 C 12.095,1.3800002 11.766,1.5700002 12.162,2.4500003 c 0.359,0.8 1.287,0.7 0.82,2.55 0.767,-0.9 1.376,-1.54 0.774,-2.46 C 13.144,1.6000002 12.808,1.5300002 13.193,2.3e-7 Z M 3.9999998,6.0000003 c -2.2091,0 -4.00000005,1.79 -4.00000005,3.9999997 0,2.21 1.79090005,4 4.00000005,4 0.2425,0 0.4842999,-0.02 0.7227,-0.07 C 5.4620003,15.48 6.9580003,16 10,16 c 6,0 6,-2 6,-9.9999997 z m 0,2 0.0078,0 c 0.0116,1.6 0.0522,2.9399997 0.1953,3.9899997 -0.0674,0 -0.1351999,0.01 -0.2030999,0.01 -1.1046,0 -2,-0.9 -2,-2 0,-1.0999997 0.8954,-1.9999997 2,-1.9999997 z"/>
</svg>
