<svg xmlns="http://www.w3.org/2000/svg" width="16" height="16" version="1.1">
 <defs>
   <style id="current-color-scheme" type="text/css">
   .ColorScheme-Text { color: #939597; } .ColorScheme-Highlight { color: #1AD6AB; }
  </style>
  <linearGradient id="arrongin" x1="0%" x2="0%" y1="0%" y2="100%">
   <stop offset="0%" style="stop-color: #dd9b44; stop-opacity: 1"/>
   <stop offset="100%" style="stop-color: #ad6c16; stop-opacity: 1"/>
  </linearGradient>
  <linearGradient id="aurora" x1="0%" x2="0%" y1="0%" y2="100%">
   <stop offset="0%" style="stop-color: #09D4DF; stop-opacity: 1"/>
   <stop offset="100%" style="stop-color: #9269F4; stop-opacity: 1"/>
  </linearGradient>
  <linearGradient id="cyberneon" x1="0%" x2="0%" y1="0%" y2="100%">
    <stop offset="0" style="stop-color: #0abdc6; stop-opacity: 1"/>
    <stop offset="1" style="stop-color: #ea00d9; stop-opacity: 1"/>
  </linearGradient>
  <linearGradient id="fitdance" x1="0%" x2="0%" y1="0%" y2="100%">
   <stop offset="0%" style="stop-color: #1AD6AB; stop-opacity: 1"/>
   <stop offset="100%" style="stop-color: #329DB6; stop-opacity: 1"/>
  </linearGradient>
  <linearGradient id="oomox" x1="0%" x2="0%" y1="0%" y2="100%">
   <stop offset="0%" style="stop-color: #f27979; stop-opacity: 1"/>
   <stop offset="100%" style="stop-color: #9e2121; stop-opacity: 1"/>
  </linearGradient>
  <linearGradient id="rainblue" x1="0%" x2="0%" y1="0%" y2="100%">
   <stop offset="0%" style="stop-color: #00F260; stop-opacity: 1"/>
   <stop offset="100%" style="stop-color: #0575E6; stop-opacity: 1"/>
  </linearGradient>
  <linearGradient id="sunrise" x1="0%" x2="0%" y1="0%" y2="100%">
   <stop offset="0%" style="stop-color: #FF8501; stop-opacity: 1"/>
   <stop offset="100%" style="stop-color: #FFCB01; stop-opacity: 1"/>
  </linearGradient>
  <linearGradient id="telinkrin" x1="0%" x2="0%" y1="0%" y2="100%">
   <stop offset="0%" style="stop-color: #b2ced6; stop-opacity: 1"/>
   <stop offset="100%" style="stop-color: #6da5b7; stop-opacity: 1"/>
  </linearGradient>
  <linearGradient id="60spsycho" x1="0%" x2="0%" y1="0%" y2="100%">
   <stop offset="0%" style="stop-color: #df5940; stop-opacity: 1"/>
   <stop offset="25%" style="stop-color: #d8d15f; stop-opacity: 1"/>
   <stop offset="50%" style="stop-color: #e9882a; stop-opacity: 1"/>
   <stop offset="100%" style="stop-color: #279362; stop-opacity: 1"/>
  </linearGradient>
  <linearGradient id="90ssummer" x1="0%" x2="0%" y1="0%" y2="100%">
   <stop offset="0%" style="stop-color: #f618c7; stop-opacity: 1"/>
   <stop offset="20%" style="stop-color: #94ffab; stop-opacity: 1"/>
   <stop offset="50%" style="stop-color: #fbfd54; stop-opacity: 1"/>
   <stop offset="100%" style="stop-color: #0f83ae; stop-opacity: 1"/>
  </linearGradient>
 </defs>
 <path fill="url(#oomox)" class="ColorScheme-Text" d="M 1.8007812 1 C 1.3575812 1 1 1.3114187 1 1.6992188 L 1 13.300781 C 1 13.68858 1.3575812 14 1.8007812 14 L 13 14 L 13 10 L 12 10 L 10 10 L 9 10 L 9 9 L 11 9 L 12 9 L 13 9 L 13 8 L 12 8 L 12 7 L 13 7 L 15 7 L 15 1.6992188 C 15 1.3114188 14.642419 1 14.199219 1 L 14 1 L 9 1 L 9 5 L 10 5 L 11 5 L 11 6 L 9 6 L 9 7 L 11 7 L 11 8 L 9 8 L 9 7 L 7 7 L 6 7 L 6 8 L 5 8 L 3 8 L 3 7 L 5 7 L 5 6 L 3 6 L 3 5 L 5 5 L 5 4 L 3 4 L 3 3 L 5 3 L 5 1 L 1.8007812 1 z M 10 3 L 13 3 L 13 4 L 12 4 L 11 4 L 10 4 L 10 3 z M 12 5 L 13 5 L 13 6 L 12 6 L 12 5 z M 3 9 L 5 9 L 5 10 L 3 10 L 3 9 z M 3 11 L 4 11 L 4 12 L 3 12 L 3 11 z M 5 11 L 6 11 L 7 11 L 7 12 L 5 12 L 5 11 z M 9 11 L 10 11 L 12 11 L 12 12 L 9 12 L 9 11 z"/>
 <path fill="url(#oomox)" class="ColorScheme-Text" opacity="0.3" d="M 5.9998,0.5 V 6 H 7 7.9998 V 0.5 C 7.9998,0.5 7.91867,0 7,0 6.081326,0 5.9998,0.5 5.9998,0.5 Z"/>
 <path fill="currentColor" class="ColorScheme-Highlight" d="m 14,8 v 5 h 1 V 8 Z m 0,6 v 1 h 1 v -1 z"/>
</svg>
