<svg xmlns="http://www.w3.org/2000/svg" width="16" height="16" version="1.1">
 <defs>
   <style id="current-color-scheme" type="text/css">
   .ColorScheme-Text { color: #939597; } .ColorScheme-Highlight { color: #1AD6AB; }
  </style>
  <linearGradient id="arrongin" x1="0%" x2="0%" y1="0%" y2="100%">
   <stop offset="0%" style="stop-color: #dd9b44; stop-opacity: 1"/>
   <stop offset="100%" style="stop-color: #ad6c16; stop-opacity: 1"/>
  </linearGradient>
  <linearGradient id="aurora" x1="0%" x2="0%" y1="0%" y2="100%">
   <stop offset="0%" style="stop-color: #09D4DF; stop-opacity: 1"/>
   <stop offset="100%" style="stop-color: #9269F4; stop-opacity: 1"/>
  </linearGradient>
  <linearGradient id="cyberneon" x1="0%" x2="0%" y1="0%" y2="100%">
    <stop offset="0" style="stop-color: #0abdc6; stop-opacity: 1"/>
    <stop offset="1" style="stop-color: #ea00d9; stop-opacity: 1"/>
  </linearGradient>
  <linearGradient id="fitdance" x1="0%" x2="0%" y1="0%" y2="100%">
   <stop offset="0%" style="stop-color: #1AD6AB; stop-opacity: 1"/>
   <stop offset="100%" style="stop-color: #329DB6; stop-opacity: 1"/>
  </linearGradient>
  <linearGradient id="oomox" x1="0%" x2="0%" y1="0%" y2="100%">
   <stop offset="0%" style="stop-color: #f27979; stop-opacity: 1"/>
   <stop offset="100%" style="stop-color: #9e2121; stop-opacity: 1"/>
  </linearGradient>
  <linearGradient id="rainblue" x1="0%" x2="0%" y1="0%" y2="100%">
   <stop offset="0%" style="stop-color: #00F260; stop-opacity: 1"/>
   <stop offset="100%" style="stop-color: #0575E6; stop-opacity: 1"/>
  </linearGradient>
  <linearGradient id="sunrise" x1="0%" x2="0%" y1="0%" y2="100%">
   <stop offset="0%" style="stop-color: #FF8501; stop-opacity: 1"/>
   <stop offset="100%" style="stop-color: #FFCB01; stop-opacity: 1"/>
  </linearGradient>
  <linearGradient id="telinkrin" x1="0%" x2="0%" y1="0%" y2="100%">
   <stop offset="0%" style="stop-color: #b2ced6; stop-opacity: 1"/>
   <stop offset="100%" style="stop-color: #6da5b7; stop-opacity: 1"/>
  </linearGradient>
  <linearGradient id="60spsycho" x1="0%" x2="0%" y1="0%" y2="100%">
   <stop offset="0%" style="stop-color: #df5940; stop-opacity: 1"/>
   <stop offset="25%" style="stop-color: #d8d15f; stop-opacity: 1"/>
   <stop offset="50%" style="stop-color: #e9882a; stop-opacity: 1"/>
   <stop offset="100%" style="stop-color: #279362; stop-opacity: 1"/>
  </linearGradient>
  <linearGradient id="90ssummer" x1="0%" x2="0%" y1="0%" y2="100%">
   <stop offset="0%" style="stop-color: #f618c7; stop-opacity: 1"/>
   <stop offset="20%" style="stop-color: #94ffab; stop-opacity: 1"/>
   <stop offset="50%" style="stop-color: #fbfd54; stop-opacity: 1"/>
   <stop offset="100%" style="stop-color: #0f83ae; stop-opacity: 1"/>
  </linearGradient>
 </defs>
 <path fill="url(#oomox)" class="ColorScheme-Text" d="M 3.3477,0 A 0.25823,0.25823 0 0 0 3.0938,0.2617 V 1.8301 C 2.4445,1.9388 1.9388,2.4445 1.8301,3.0938 H 0.2617 A 0.25875,0.25875 0 1 0 0.2617,3.6113 H 1.8027 V 6.1934 H 0.2617 A 0.25823,0.25823 0 1 0 0.2617,6.709 H 1.8027 V 9.291 H 0.2617 A 0.25823,0.25823 0 1 0 0.2617,9.807 H 1.8027 V 12.389 H 0.2617 A 0.2585,0.2585 0 1 0 0.2617,12.906 H 1.8301 C 1.9388,13.556 2.4445,14.061 3.0938,14.17 V 15.738 A 0.25875,0.25875 0 1 0 3.6113,15.738 V 14.197 H 6.1934 V 15.738 A 0.25823,0.25823 0 1 0 6.709,15.738 V 14.197 H 9.291 V 15.738 A 0.25823,0.25823 0 1 0 9.807,15.738 V 14.197 H 12.389 V 15.738 A 0.2585,0.2585 0 1 0 12.906,15.738 V 14.17 C 13.556,14.061 14.061,13.556 14.17,12.906 H 15.738 A 0.25823,0.25823 0 0 0 16,12.645 0.25823,0.25823 0 0 0 15.738,12.389 H 14.197 V 9.807 H 15.738 A 0.25823,0.25823 0 0 0 16,9.545 0.25823,0.25823 0 0 0 15.738,9.291 H 14.197 V 6.709 H 15.738 A 0.25823,0.25823 0 0 0 16,6.4473 0.25823,0.25823 0 0 0 15.738,6.1934 H 14.197 V 3.6113 H 15.738 A 0.25823,0.25823 0 0 0 16,3.3477 0.25823,0.25823 0 0 0 15.738,3.0938 H 14.17 C 14.061,2.4445 13.556,1.9388 12.906,1.8301 V 0.2617 A 0.25823,0.25823 0 0 0 12.643,0 0.25823,0.25823 0 0 0 12.389,0.2617 V 1.8027 H 9.807 V 0.2617 A 0.25823,0.25823 0 0 0 9.545,0 0.25823,0.25823 0 0 0 9.291,0.2617 V 1.8027 H 6.709 V 0.2617 A 0.25823,0.25823 0 0 0 6.4473,0 0.25823,0.25823 0 0 0 6.1934,0.2617 V 1.8027 H 3.6113 V 0.2617 A 0.25823,0.25823 0 0 0 3.3477,0 Z M 3.5,6 H 12.5 C 12.777,6 13,6.223 13,6.5 13,6.777 12.777,7 12.5,7 H 3.5 C 3.223,7 3,6.777 3,6.5 3,6.223 3.223,6 3.5,6 Z M 3.5,9 H 12.5 C 12.777,9 13,9.223 13,9.5 13,9.777 12.777,10 12.5,10 H 3.5 C 3.223,10 3,9.777 3,9.5 3,9.223 3.223,9 3.5,9 Z M 3.5,12 H 12.5 C 12.777,12 13,12.223 13,12.5 13,12.777 12.777,13 12.5,13 H 3.5 C 3.223,13 3,12.777 3,12.5 3,12.223 3.223,12 3.5,12 Z"/>
</svg>
