<svg xmlns="http://www.w3.org/2000/svg" width="16" height="16" version="1.1">
 <defs>
   <style id="current-color-scheme" type="text/css">
   .ColorScheme-Text { color: #939597; } .ColorScheme-Highlight { color: #1AD6AB; }
  </style>
  <linearGradient id="arrongin" x1="0%" x2="0%" y1="0%" y2="100%">
   <stop offset="0%" style="stop-color: #dd9b44; stop-opacity: 1"/>
   <stop offset="100%" style="stop-color: #ad6c16; stop-opacity: 1"/>
  </linearGradient>
  <linearGradient id="aurora" x1="0%" x2="0%" y1="0%" y2="100%">
   <stop offset="0%" style="stop-color: #09D4DF; stop-opacity: 1"/>
   <stop offset="100%" style="stop-color: #9269F4; stop-opacity: 1"/>
  </linearGradient>
  <linearGradient id="cyberneon" x1="0%" x2="0%" y1="0%" y2="100%">
    <stop offset="0" style="stop-color: #0abdc6; stop-opacity: 1"/>
    <stop offset="1" style="stop-color: #ea00d9; stop-opacity: 1"/>
  </linearGradient>
  <linearGradient id="fitdance" x1="0%" x2="0%" y1="0%" y2="100%">
   <stop offset="0%" style="stop-color: #1AD6AB; stop-opacity: 1"/>
   <stop offset="100%" style="stop-color: #329DB6; stop-opacity: 1"/>
  </linearGradient>
  <linearGradient id="oomox" x1="0%" x2="0%" y1="0%" y2="100%">
   <stop offset="0%" style="stop-color: #f27979; stop-opacity: 1"/>
   <stop offset="100%" style="stop-color: #9e2121; stop-opacity: 1"/>
  </linearGradient>
  <linearGradient id="rainblue" x1="0%" x2="0%" y1="0%" y2="100%">
   <stop offset="0%" style="stop-color: #00F260; stop-opacity: 1"/>
   <stop offset="100%" style="stop-color: #0575E6; stop-opacity: 1"/>
  </linearGradient>
  <linearGradient id="sunrise" x1="0%" x2="0%" y1="0%" y2="100%">
   <stop offset="0%" style="stop-color: #FF8501; stop-opacity: 1"/>
   <stop offset="100%" style="stop-color: #FFCB01; stop-opacity: 1"/>
  </linearGradient>
  <linearGradient id="telinkrin" x1="0%" x2="0%" y1="0%" y2="100%">
   <stop offset="0%" style="stop-color: #b2ced6; stop-opacity: 1"/>
   <stop offset="100%" style="stop-color: #6da5b7; stop-opacity: 1"/>
  </linearGradient>
  <linearGradient id="60spsycho" x1="0%" x2="0%" y1="0%" y2="100%">
   <stop offset="0%" style="stop-color: #df5940; stop-opacity: 1"/>
   <stop offset="25%" style="stop-color: #d8d15f; stop-opacity: 1"/>
   <stop offset="50%" style="stop-color: #e9882a; stop-opacity: 1"/>
   <stop offset="100%" style="stop-color: #279362; stop-opacity: 1"/>
  </linearGradient>
  <linearGradient id="90ssummer" x1="0%" x2="0%" y1="0%" y2="100%">
   <stop offset="0%" style="stop-color: #f618c7; stop-opacity: 1"/>
   <stop offset="20%" style="stop-color: #94ffab; stop-opacity: 1"/>
   <stop offset="50%" style="stop-color: #fbfd54; stop-opacity: 1"/>
   <stop offset="100%" style="stop-color: #0f83ae; stop-opacity: 1"/>
  </linearGradient>
 </defs>
 <path fill="url(#oomox)" class="ColorScheme-Text" d="M 0.8008,1 C 0.3576,1 0,1.3624 0,1.8125 V 12.187 C 0,12.638 0.39735,12.817 0.8008,13 H 3 V 14.187 C 3,14.638 3.3723,15 3.834,15 H 12.166 C 12.628,15 13,14.638 13,14.187 V 13 H 15.199 C 15.642,13 16,12.638 16,12.187 V 1.8125 C 16,1.3624 15.642,1 15.199,1 Z M 1,2 H 15 V 12 H 1 Z M 7,3 C 6.4477,3 6,3.4477 6,4 6,4.5523 6.4477,5 7,5 7.5523,5 8,4.5523 8,4 8,3.4477 7.5523,3 7,3 Z M 12,3 C 10.895,3 10,3.8954 10,5 10,6.1046 10.895,7 12,7 13.105,7 14,6.1046 14,5 14,3.8954 13.105,3 12,3 Z M 3.5,6 C 2.6716,6 2,6.6716 2,7.5 2,8.3284 2.6716,9 3.5,9 4.3284,9 5,8.3284 5,7.5 5,6.6716 4.3284,6 3.5,6 Z M 12.465,8.4 C 12.203,8.4184 11.999,8.637 12,8.9 12,9.1761 12.224,9.4 12.5,9.4 12.776,9.4 13,9.1761 13,8.9 13,8.6239 12.776,8.4 12.5,8.4 12.488,8.3996 12.477,8.3996 12.465,8.4 Z M 9,9 C 8.4477,9 8,9.4477 8,10 8,10.552 8.4477,11 9,11 9.5523,11 10,10.552 10,10 10,9.4477 9.5523,9 9,9 Z"/>
</svg>
