<svg xmlns="http://www.w3.org/2000/svg" width="16" height="16" version="1.1">
 <defs>
   <style id="current-color-scheme" type="text/css">
   .ColorScheme-Text { color: #939597; } .ColorScheme-Highlight { color: #1AD6AB; }
  </style>
  <linearGradient id="arrongin" x1="0%" x2="0%" y1="0%" y2="100%">
   <stop offset="0%" style="stop-color: #dd9b44; stop-opacity: 1"/>
   <stop offset="100%" style="stop-color: #ad6c16; stop-opacity: 1"/>
  </linearGradient>
  <linearGradient id="aurora" x1="0%" x2="0%" y1="0%" y2="100%">
   <stop offset="0%" style="stop-color: #09D4DF; stop-opacity: 1"/>
   <stop offset="100%" style="stop-color: #9269F4; stop-opacity: 1"/>
  </linearGradient>
  <linearGradient id="cyberneon" x1="0%" x2="0%" y1="0%" y2="100%">
    <stop offset="0" style="stop-color: #0abdc6; stop-opacity: 1"/>
    <stop offset="1" style="stop-color: #ea00d9; stop-opacity: 1"/>
  </linearGradient>
  <linearGradient id="fitdance" x1="0%" x2="0%" y1="0%" y2="100%">
   <stop offset="0%" style="stop-color: #1AD6AB; stop-opacity: 1"/>
   <stop offset="100%" style="stop-color: #329DB6; stop-opacity: 1"/>
  </linearGradient>
  <linearGradient id="oomox" x1="0%" x2="0%" y1="0%" y2="100%">
   <stop offset="0%" style="stop-color: #f27979; stop-opacity: 1"/>
   <stop offset="100%" style="stop-color: #9e2121; stop-opacity: 1"/>
  </linearGradient>
  <linearGradient id="rainblue" x1="0%" x2="0%" y1="0%" y2="100%">
   <stop offset="0%" style="stop-color: #00F260; stop-opacity: 1"/>
   <stop offset="100%" style="stop-color: #0575E6; stop-opacity: 1"/>
  </linearGradient>
  <linearGradient id="sunrise" x1="0%" x2="0%" y1="0%" y2="100%">
   <stop offset="0%" style="stop-color: #FF8501; stop-opacity: 1"/>
   <stop offset="100%" style="stop-color: #FFCB01; stop-opacity: 1"/>
  </linearGradient>
  <linearGradient id="telinkrin" x1="0%" x2="0%" y1="0%" y2="100%">
   <stop offset="0%" style="stop-color: #b2ced6; stop-opacity: 1"/>
   <stop offset="100%" style="stop-color: #6da5b7; stop-opacity: 1"/>
  </linearGradient>
  <linearGradient id="60spsycho" x1="0%" x2="0%" y1="0%" y2="100%">
   <stop offset="0%" style="stop-color: #df5940; stop-opacity: 1"/>
   <stop offset="25%" style="stop-color: #d8d15f; stop-opacity: 1"/>
   <stop offset="50%" style="stop-color: #e9882a; stop-opacity: 1"/>
   <stop offset="100%" style="stop-color: #279362; stop-opacity: 1"/>
  </linearGradient>
  <linearGradient id="90ssummer" x1="0%" x2="0%" y1="0%" y2="100%">
   <stop offset="0%" style="stop-color: #f618c7; stop-opacity: 1"/>
   <stop offset="20%" style="stop-color: #94ffab; stop-opacity: 1"/>
   <stop offset="50%" style="stop-color: #fbfd54; stop-opacity: 1"/>
   <stop offset="100%" style="stop-color: #0f83ae; stop-opacity: 1"/>
  </linearGradient>
 </defs>
 <path fill="url(#oomox)" class="ColorScheme-Text" d="M 8 2 A 5 5 0 0 0 3.3964844 5.0488281 A 4 4 0 0 0 0 9 A 4 4 0 0 0 3.8085938 12.990234 L 3.8085938 13 L 4 13 L 8.0332031 13 A 4.5 4.5 0 0 1 8 12.5 A 4.5 4.5 0 0 1 12.5 8 A 4.5 4.5 0 0 1 15.693359 9.3320312 A 2.4761905 2.4761905 0 0 0 14.822266 8.4179688 A 2.5 2.5 0 0 0 15 7.5 A 2.5 2.5 0 0 0 12.578125 5.0039062 A 5 5 0 0 0 8 2 z M 6 5 L 7 5 L 9 5 L 10 5 L 10 6 L 10 7 L 10 8 L 9 8 L 7 8 L 7 11 L 6 11 L 6 8 L 6 7 L 6 6 L 6 5 z M 7 6 L 7 7 L 9 7 L 9 6 L 7 6 z"/>
 <path fill="url(#oomox)" class="ColorScheme-Text" d="M 14.25,9.4689111 A 3.5,3.5 0 0 0 9.4689111,10.75 3.5,3.5 0 0 0 10.75,15.531089 3.5,3.5 0 0 0 15.531089,14.25 3.5,3.5 0 0 0 14.25,9.4689111 Z m -1.825135,0.5362259 -0.04089,0.695825 -0.0176,0.307831 A 1.5,1.5 0 0 0 11.200962,11.75 1.5,1.5 0 0 0 11.012227,12.678461 l -0.886609,0.586433 A 2.5,2.5 0 0 1 10.334936,11.25 2.5,2.5 0 0 1 12.424865,10.005137 Z m 2.271625,1.311524 A 2.5,2.5 0 0 1 14.665064,13.75 2.5,2.5 0 0 1 13.025488,14.94139 l 0.06482,-1.065403 A 1.5,1.5 0 0 0 13.799038,13.25 a 1.5,1.5 0 0 0 0.0592,-1.379879 l 0.257789,-0.169159 z"/>
</svg>
