<svg xmlns="http://www.w3.org/2000/svg" width="16" height="16" version="1.1">
 <defs>
   <style id="current-color-scheme" type="text/css">
   .ColorScheme-Text { color: #939597; } .ColorScheme-Highlight { color: #1AD6AB; }
  </style>
  <linearGradient id="arrongin" x1="0%" x2="0%" y1="0%" y2="100%">
   <stop offset="0%" style="stop-color: #dd9b44; stop-opacity: 1"/>
   <stop offset="100%" style="stop-color: #ad6c16; stop-opacity: 1"/>
  </linearGradient>
  <linearGradient id="aurora" x1="0%" x2="0%" y1="0%" y2="100%">
   <stop offset="0%" style="stop-color: #09D4DF; stop-opacity: 1"/>
   <stop offset="100%" style="stop-color: #9269F4; stop-opacity: 1"/>
  </linearGradient>
  <linearGradient id="cyberneon" x1="0%" x2="0%" y1="0%" y2="100%">
    <stop offset="0" style="stop-color: #0abdc6; stop-opacity: 1"/>
    <stop offset="1" style="stop-color: #ea00d9; stop-opacity: 1"/>
  </linearGradient>
  <linearGradient id="fitdance" x1="0%" x2="0%" y1="0%" y2="100%">
   <stop offset="0%" style="stop-color: #1AD6AB; stop-opacity: 1"/>
   <stop offset="100%" style="stop-color: #329DB6; stop-opacity: 1"/>
  </linearGradient>
  <linearGradient id="oomox" x1="0%" x2="0%" y1="0%" y2="100%">
   <stop offset="0%" style="stop-color: #f27979; stop-opacity: 1"/>
   <stop offset="100%" style="stop-color: #9e2121; stop-opacity: 1"/>
  </linearGradient>
  <linearGradient id="rainblue" x1="0%" x2="0%" y1="0%" y2="100%">
   <stop offset="0%" style="stop-color: #00F260; stop-opacity: 1"/>
   <stop offset="100%" style="stop-color: #0575E6; stop-opacity: 1"/>
  </linearGradient>
  <linearGradient id="sunrise" x1="0%" x2="0%" y1="0%" y2="100%">
   <stop offset="0%" style="stop-color: #FF8501; stop-opacity: 1"/>
   <stop offset="100%" style="stop-color: #FFCB01; stop-opacity: 1"/>
  </linearGradient>
  <linearGradient id="telinkrin" x1="0%" x2="0%" y1="0%" y2="100%">
   <stop offset="0%" style="stop-color: #b2ced6; stop-opacity: 1"/>
   <stop offset="100%" style="stop-color: #6da5b7; stop-opacity: 1"/>
  </linearGradient>
  <linearGradient id="60spsycho" x1="0%" x2="0%" y1="0%" y2="100%">
   <stop offset="0%" style="stop-color: #df5940; stop-opacity: 1"/>
   <stop offset="25%" style="stop-color: #d8d15f; stop-opacity: 1"/>
   <stop offset="50%" style="stop-color: #e9882a; stop-opacity: 1"/>
   <stop offset="100%" style="stop-color: #279362; stop-opacity: 1"/>
  </linearGradient>
  <linearGradient id="90ssummer" x1="0%" x2="0%" y1="0%" y2="100%">
   <stop offset="0%" style="stop-color: #f618c7; stop-opacity: 1"/>
   <stop offset="20%" style="stop-color: #94ffab; stop-opacity: 1"/>
   <stop offset="50%" style="stop-color: #fbfd54; stop-opacity: 1"/>
   <stop offset="100%" style="stop-color: #0f83ae; stop-opacity: 1"/>
  </linearGradient>
 </defs>
 <path fill="url(#oomox)" class="ColorScheme-Text" d="M 4 1 C 1.784 1 0 2.8111038 0 5.0605469 L 0.0078125 7 C 0.0069725 7.0308589 1.4456029e-18 7.0586805 0 7.0898438 C 0 7.1163377 0.0073125 7.1415758 0.0078125 7.1679688 L 0.029296875 13.326172 C -0.22244314 14.830537 1.2158281 15.782183 2.4238281 14.136719 L 4.5527344 11 L 11.447266 11 L 13.576172 14.136719 C 14.784172 15.782183 16.221703 14.830537 15.970703 13.326172 L 15.992188 7.1679688 C 15.993175 7.141576 16 7.1163376 16 7.0898438 C 16 7.0653797 15.993187 7.0438942 15.992188 7.0195312 L 16 5.0605469 C 16 2.8111038 14.216 1 12 1 L 4 1 z M 4 3 L 5 3 L 5 5 L 7 5 L 7 6 L 5 6 L 5 8 L 4 8 L 4 6 L 2 6 L 2 5 L 4 5 L 4 3 z M 11.75 3 A 0.75000006 0.75000006 0 0 1 12.5 3.75 A 0.75000006 0.75000006 0 0 1 11.75 4.5 A 0.75000006 0.75000006 0 0 1 11 3.75 A 0.75000006 0.75000006 0 0 1 11.75 3 z M 10.25 4.5 A 0.75000006 0.75000006 0 0 1 11 5.25 A 0.75000006 0.75000006 0 0 1 10.25 6 A 0.75000006 0.75000006 0 0 1 9.5 5.25 A 0.75000006 0.75000006 0 0 1 10.25 4.5 z M 13.25 4.5 A 0.75000006 0.75000006 0 0 1 14 5.25 A 0.75000006 0.75000006 0 0 1 13.25 6 A 0.75000006 0.75000006 0 0 1 12.5 5.25 A 0.75000006 0.75000006 0 0 1 13.25 4.5 z M 11.75 6 A 0.75000006 0.75000006 0 0 1 12.5 6.75 A 0.75000006 0.75000006 0 0 1 11.75 7.5 A 0.75000006 0.75000006 0 0 1 11 6.75 A 0.75000006 0.75000006 0 0 1 11.75 6 z"/>
</svg>
