<svg xmlns="http://www.w3.org/2000/svg" width="16" height="16" version="1.1">
 <defs>
   <style id="current-color-scheme" type="text/css">
   .ColorScheme-Text { color: #939597; } .ColorScheme-Highlight { color: #1AD6AB; }
  </style>
  <linearGradient id="arrongin" x1="0%" x2="0%" y1="0%" y2="100%">
   <stop offset="0%" style="stop-color: #dd9b44; stop-opacity: 1"/>
   <stop offset="100%" style="stop-color: #ad6c16; stop-opacity: 1"/>
  </linearGradient>
  <linearGradient id="aurora" x1="0%" x2="0%" y1="0%" y2="100%">
   <stop offset="0%" style="stop-color: #09D4DF; stop-opacity: 1"/>
   <stop offset="100%" style="stop-color: #9269F4; stop-opacity: 1"/>
  </linearGradient>
  <linearGradient id="cyberneon" x1="0%" x2="0%" y1="0%" y2="100%">
    <stop offset="0" style="stop-color: #0abdc6; stop-opacity: 1"/>
    <stop offset="1" style="stop-color: #ea00d9; stop-opacity: 1"/>
  </linearGradient>
  <linearGradient id="fitdance" x1="0%" x2="0%" y1="0%" y2="100%">
   <stop offset="0%" style="stop-color: #1AD6AB; stop-opacity: 1"/>
   <stop offset="100%" style="stop-color: #329DB6; stop-opacity: 1"/>
  </linearGradient>
  <linearGradient id="oomox" x1="0%" x2="0%" y1="0%" y2="100%">
   <stop offset="0%" style="stop-color: #f27979; stop-opacity: 1"/>
   <stop offset="100%" style="stop-color: #9e2121; stop-opacity: 1"/>
  </linearGradient>
  <linearGradient id="rainblue" x1="0%" x2="0%" y1="0%" y2="100%">
   <stop offset="0%" style="stop-color: #00F260; stop-opacity: 1"/>
   <stop offset="100%" style="stop-color: #0575E6; stop-opacity: 1"/>
  </linearGradient>
  <linearGradient id="sunrise" x1="0%" x2="0%" y1="0%" y2="100%">
   <stop offset="0%" style="stop-color: #FF8501; stop-opacity: 1"/>
   <stop offset="100%" style="stop-color: #FFCB01; stop-opacity: 1"/>
  </linearGradient>
  <linearGradient id="telinkrin" x1="0%" x2="0%" y1="0%" y2="100%">
   <stop offset="0%" style="stop-color: #b2ced6; stop-opacity: 1"/>
   <stop offset="100%" style="stop-color: #6da5b7; stop-opacity: 1"/>
  </linearGradient>
  <linearGradient id="60spsycho" x1="0%" x2="0%" y1="0%" y2="100%">
   <stop offset="0%" style="stop-color: #df5940; stop-opacity: 1"/>
   <stop offset="25%" style="stop-color: #d8d15f; stop-opacity: 1"/>
   <stop offset="50%" style="stop-color: #e9882a; stop-opacity: 1"/>
   <stop offset="100%" style="stop-color: #279362; stop-opacity: 1"/>
  </linearGradient>
  <linearGradient id="90ssummer" x1="0%" x2="0%" y1="0%" y2="100%">
   <stop offset="0%" style="stop-color: #f618c7; stop-opacity: 1"/>
   <stop offset="20%" style="stop-color: #94ffab; stop-opacity: 1"/>
   <stop offset="50%" style="stop-color: #fbfd54; stop-opacity: 1"/>
   <stop offset="100%" style="stop-color: #0f83ae; stop-opacity: 1"/>
  </linearGradient>
 </defs>
 <path fill="url(#oomox)" class="ColorScheme-Text" d="M 1.9378222,11.5 A 7,7 0 0 0 11.5,14.062178 7,7 0 0 0 14.062178,4.5000001 7,7 0 0 0 4.5000002,1.9378222 7,7 0 0 0 1.9378222,11.5 Z m 1.732051,-1 A 5,5 0 0 1 4.7289252,4.2210515 1.5,1.5 0 0 1 5.4330132,2.5538483 1.5,1.5 0 0 1 7.439605,3.037181 5,5 0 0 1 10.970108,3.9803172 1.5,1.5 0 0 1 12.946153,4.5669884 1.5,1.5 0 0 1 12.720616,6.3638486 5,5 0 0 1 10.5,12.330127 5,5 0 0 1 10.424574,12.371369 1.5,1.5 0 0 1 9.7009365,13.946116 1.5,1.5 0 0 1 7.6518981,13.397078 1.5,1.5 0 0 1 7.4869461,12.966834 5,5 0 0 1 3.6698729,10.500004 Z M 4.5358982,10 a 4,4 0 0 0 3.073601,1.975979 1.5,1.5 0 0 1 0.591463,-0.627903 1.5,1.5 0 0 1 0.054382,-0.02689 L 7.8906128,8.7870981 A 1.5,1.5 0 0 1 6.8839748,8.0669875 1.5,1.5 0 0 1 7.0439455,6.3440649 L 6.4560548,5.3258082 A 1.5,1.5 0 0 1 5.2963922,5.0594017 4,4 0 0 0 4.5358982,10 Z m 4.7084407,1.178696 A 1.5,1.5 0 0 1 9.9202411,11.505639 4,4 0 0 0 10,11.464102 4,4 0 0 0 11.814361,6.8058855 1.5,1.5 0 0 1 10.674192,6.4560546 l -1.0182565,0.587891 a 1.5,1.5 0 0 1 -0.7229226,1.57208 1.5,1.5 0 0 1 -0.054391,0.026888 L 9.2443389,11.178696 Z M 7.909971,5.8440652 A 1.5,1.5 0 0 1 9.1559353,6.1779203 L 10.174192,5.5900291 A 1.5,1.5 0 0 1 10.276654,4.7167192 4,4 0 0 0 7.6726686,4.018983 1.5,1.5 0 0 1 7.3220766,4.8258062 l 0.5878943,1.0182589 z"/>
</svg>
