<svg xmlns="http://www.w3.org/2000/svg" width="16" height="16" version="1.1">
 <defs>
   <style id="current-color-scheme" type="text/css">
   .ColorScheme-Text { color: #939597; } .ColorScheme-Highlight { color: #1AD6AB; }
  </style>
  <linearGradient id="arrongin" x1="0%" x2="0%" y1="0%" y2="100%">
   <stop offset="0%" style="stop-color: #dd9b44; stop-opacity: 1"/>
   <stop offset="100%" style="stop-color: #ad6c16; stop-opacity: 1"/>
  </linearGradient>
  <linearGradient id="aurora" x1="0%" x2="0%" y1="0%" y2="100%">
   <stop offset="0%" style="stop-color: #09D4DF; stop-opacity: 1"/>
   <stop offset="100%" style="stop-color: #9269F4; stop-opacity: 1"/>
  </linearGradient>
  <linearGradient id="cyberneon" x1="0%" x2="0%" y1="0%" y2="100%">
    <stop offset="0" style="stop-color: #0abdc6; stop-opacity: 1"/>
    <stop offset="1" style="stop-color: #ea00d9; stop-opacity: 1"/>
  </linearGradient>
  <linearGradient id="fitdance" x1="0%" x2="0%" y1="0%" y2="100%">
   <stop offset="0%" style="stop-color: #1AD6AB; stop-opacity: 1"/>
   <stop offset="100%" style="stop-color: #329DB6; stop-opacity: 1"/>
  </linearGradient>
  <linearGradient id="oomox" x1="0%" x2="0%" y1="0%" y2="100%">
   <stop offset="0%" style="stop-color: #f27979; stop-opacity: 1"/>
   <stop offset="100%" style="stop-color: #9e2121; stop-opacity: 1"/>
  </linearGradient>
  <linearGradient id="rainblue" x1="0%" x2="0%" y1="0%" y2="100%">
   <stop offset="0%" style="stop-color: #00F260; stop-opacity: 1"/>
   <stop offset="100%" style="stop-color: #0575E6; stop-opacity: 1"/>
  </linearGradient>
  <linearGradient id="sunrise" x1="0%" x2="0%" y1="0%" y2="100%">
   <stop offset="0%" style="stop-color: #FF8501; stop-opacity: 1"/>
   <stop offset="100%" style="stop-color: #FFCB01; stop-opacity: 1"/>
  </linearGradient>
  <linearGradient id="telinkrin" x1="0%" x2="0%" y1="0%" y2="100%">
   <stop offset="0%" style="stop-color: #b2ced6; stop-opacity: 1"/>
   <stop offset="100%" style="stop-color: #6da5b7; stop-opacity: 1"/>
  </linearGradient>
  <linearGradient id="60spsycho" x1="0%" x2="0%" y1="0%" y2="100%">
   <stop offset="0%" style="stop-color: #df5940; stop-opacity: 1"/>
   <stop offset="25%" style="stop-color: #d8d15f; stop-opacity: 1"/>
   <stop offset="50%" style="stop-color: #e9882a; stop-opacity: 1"/>
   <stop offset="100%" style="stop-color: #279362; stop-opacity: 1"/>
  </linearGradient>
  <linearGradient id="90ssummer" x1="0%" x2="0%" y1="0%" y2="100%">
   <stop offset="0%" style="stop-color: #f618c7; stop-opacity: 1"/>
   <stop offset="20%" style="stop-color: #94ffab; stop-opacity: 1"/>
   <stop offset="50%" style="stop-color: #fbfd54; stop-opacity: 1"/>
   <stop offset="100%" style="stop-color: #0f83ae; stop-opacity: 1"/>
  </linearGradient>
 </defs>
 <path fill="url(#oomox)" class="ColorScheme-Text" d="M 7,0.002 6.5,1.0332 C 6.6619,1.0199 6.8348,1.002 7,1.002 H 7.5 Z M 7,2.002 C 4.2386,2.002 2,4.2405 2,7.002 2,7.472 2.0787,7.919 2.2012,8.348 2.7161,7.816 3.3723,7.417 4.1152,7.225 4.9387,5.8192 6.3555,4.7832 8.098,4.7832 9.74,4.7832 11.157,5.6455 11.996,6.9297 11.957,4.2021 9.737,2.002 7,2.002 Z M 2.0625,2.0645 2.4062,3.127 C 2.6253,2.8677 2.8658,2.6273 3.125,2.4082 Z M 11.938,2.0645 10.844,2.4395 H 10.781 C 10.92,2.5504 11.056,2.6646 11.188,2.7832 11.319,2.9018 11.445,3.025 11.563,3.1582 Z M 8.098,5.7832 C 6.5444,5.7832 5.2216,6.7341 4.6523,8.08 3.2065,8.295 2.0977,9.528 2.0977,11.033 2.0977,12.69 3.4408,14.033 5.0977,14.033 H 11.473 C 12.922,14.033 14.098,12.858 14.098,11.408 14.098,10.061 13.085,8.957 11.777,8.807 11.436,7.087 9.918,5.7832 8.098,5.7832 Z M 1,6.502 0,7.002 1.0312,7.502 C 1.0164,7.333 1,7.176 1,7.002 1,6.9745 0.998,6.9184 1,6.8457 1.006,6.7299 1.0224,6.6135 1.0312,6.502 Z M 12.969,6.502 C 12.984,6.6713 13,6.8284 13,7.002 13,7.029 13.002,7.086 13,7.158 12.994,7.274 12.978,7.39 12.969,7.502 H 13 L 14,7.002 Z"/>
</svg>
