<svg xmlns="http://www.w3.org/2000/svg" width="22" height="22" version="1.1">
<defs>
  <linearGradient id="carbon" x1="0%" x2="0%" y1="0%" y2="100%">
   <stop offset="0%" style="stop-color: #525c66; stop-opacity: 1"/>
   <stop offset="100%" style="stop-color: #36424e; stop-opacity: 1"/>
  </linearGradient>
  <linearGradient id="cyberblue" x1="0%" x2="0%" y1="0%" y2="100%">
   <stop stop-color="#07B3FF"/>
   <stop offset="1" stop-color="#007DE8"/>
  </linearGradient>
  <linearGradient id="cyberneon" x1="0%" x2="0%" y1="0%" y2="100%">
    <stop offset="0" style="stop-color: #0abdc6; stop-opacity: 1"/>
    <stop offset="1" style="stop-color: #ea00d9; stop-opacity: 1"/>
  </linearGradient>
  <linearGradient id="cyberorange" x1="0%" x2="0%" y1="0%" y2="100%">
    <stop offset="0%"   style="stop-color: #FF9757; stop-opacity: 1"/>
    <stop offset="50%"  style="stop-color: #FF6E51; stop-opacity: 1"/>
    <stop offset="100%" style="stop-color: #F5350F; stop-opacity: 1"/>
  </linearGradient>
  <linearGradient id="cyberturquoise"  x1="0%" x2="0%" y1="0%" y2="100%">
   <stop stop-color="#037164"/>
   <stop offset="1" stop-color="#00AC98"/>
  </linearGradient>
  <linearGradient id="fitdance" x1="0%" x2="0%" y1="0%" y2="100%">
   <stop offset="0%" style="stop-color: #1ad6ab; stop-opacity: 1"/>
   <stop offset="100%" style="stop-color: #329db6; stop-opacity: 1"/>
  </linearGradient>
  <linearGradient id="goldcarbon" x1="0%" x2="0%" y1="0%" y2="100%">
   <stop offset="1e-07" stop-color="#EDC268"/>
   <stop offset="1" stop-color="#9B7424"/>
  </linearGradient>
  <linearGradient id="lemon" x1="0%" x2="0%" y1="0%" y2="100%">
   <stop offset="0.1" stop-color="#6DDB0A"/>
   <stop offset="0.2" stop-color="#61D915"/>
   <stop offset="0.3" stop-color="#55D620"/>
   <stop offset="0.4" stop-color="#49D42B"/>
   <stop offset="0.5" stop-color="#3CD235"/>
   <stop offset="0.6" stop-color="#30CF40"/>
   <stop offset="0.7" stop-color="#24CD4B"/>
   <stop offset="0.8" stop-color="#18CA56"/>
   <stop offset="0.9" stop-color="#0CC861"/>
   <stop offset="1.0" stop-color="#00C66B"/>
  </linearGradient>
  <linearGradient id="purplecarbon" x1="0%" x2="0%" y1="0%" y2="100%">
   <stop offset="1e-07" stop-color="#EC57FF"/>
   <stop offset="0.5" stop-color="#C551FF"/>
   <stop offset="1" stop-color="#A90FF5"/>
  </linearGradient>
  <linearGradient id="redcarbon" x1="0%" x2="0%" y1="0%" y2="100%">
   <stop offset="0%" style="stop-color: #FF6D57; stop-opacity: 1"/>
   <stop offset="50%" style="stop-color: #FF5160; stop-opacity: 1"/>
   <stop offset="100%" style="stop-color: #F50F22; stop-opacity: 1"/>
  </linearGradient>
  <linearGradient id="silvercarbon" x1="0%" x2="0%" y1="0%" y2="100%">
   <stop offset="0%" stop-color="#DFDFDF"/>
   <stop offset="100%" stop-color="#A0A0A0"/>
  </linearGradient>
  <linearGradient id="ubuntu" x1="0%" x2="0%" y1="0%" y2="100%">
   <stop offset="1e-07" stop-color="#AD4F8D"/>
   <stop offset="1" stop-color="#6B8CCB"/>
  </linearGradient>
</defs>
 <g transform="translate(-1,1)">
  <circle fill="url(#carbon)" cx="12" cy="10" r="10"/>
  <path fill="#ececec" d="M 14.538213,4 C 13.535495,4 12.632507,4.424743 12.000245,5.200009 11.367819,4.424743 10.464859,4 9.462113,4 7.550099,4 6.000085,5.7638495 6.000085,7.939732 c 0,0.58462 0.090758,1.147219 0.249708,1.684458 0,0 0.144131,0.484744 0.2718125,0.75159 C 7.9808885,13.787614 12.000001,16 12.000001,16 c 0,0 4.019138,-2.212445 5.478394,-5.624219 0,0 0.188286,-0.454596 0.271812,-0.751591 C 17.901979,9.084468 17.999915,8.524352 17.999915,7.939732 17.999915,5.7638495 16.449901,4 14.537887,4 Z"/>
 </g>
</svg>
