<svg xmlns="http://www.w3.org/2000/svg" style="isolation:isolate" width="256" height="256">
 <defs>
  <linearGradient id="b" x1=".517" x2=".517" y2="1">
   <stop offset="0%" stop-color="#fff"/>
   <stop offset="12.5%" stop-color="#fff" stop-opacity=".098"/>
   <stop offset="92.5%" stop-opacity=".098"/>
   <stop offset="100%" stop-opacity=".498"/>
  </linearGradient>
  <clipPath id="c">
   <path fill="#FFF" d="M48.8 48h160v160h-160V48z"/>
  </clipPath>
 </defs>
 <path fill="#F7F7F7" d="M165.689 11.95c74.056 0 84.639 10.557 84.639 84.544v59.251c0 73.986-10.583 84.543-84.639 84.543h-75.37c-74.055 0-84.639-10.557-84.639-84.543V96.494c0-73.987 10.584-84.544 84.639-84.544h75.37z" filter="url(#a)"/>
 <path fill="none" opacity=".4" stroke="url(#b)" stroke-linecap="round" stroke-linejoin="round" stroke-width="4" d="M165.685 11.947c74.055 0 84.639 10.557 84.639 84.544v59.251c0 73.986-10.584 84.543-84.639 84.543h-75.37c-74.055 0-84.639-10.557-84.639-84.543V96.491c0-73.987 10.584-84.544 84.639-84.544h75.37z" vector-effect="non-scaling-stroke"/>
 <g clip-path="url(#c)">
  <path fill="#FFCC4D" d="M200.379 128c0 39.533-32.046 71.579-71.579 71.579-39.533 0-71.579-32.046-71.579-71.579 0-39.533 32.046-71.579 71.579-71.579 39.533 0 71.579 32.046 71.579 71.579z"/>
  <path fill="#664500" d="M145.642 165.895c0 11.633-7.541 12.631-16.842 12.631-9.305 0-16.842-.998-16.842-12.631 0-11.626 7.537-25.263 16.842-25.263 9.301 0 16.842 13.637 16.842 25.263zM179.326 115.371a4.146 4.146 0 0 1-1.562-.304c-22.017-8.804-31.04-22.063-31.415-22.627a4.209 4.209 0 0 1 1.167-5.84 4.21 4.21 0 0 1 5.831 1.154c.08.118 8.127 11.73 27.541 19.494a4.213 4.213 0 0 1 2.35 5.474 4.217 4.217 0 0 1-3.912 2.649zM78.276 115.371a4.217 4.217 0 0 1-3.912-2.649 4.21 4.21 0 0 1 2.345-5.474c19.419-7.764 27.466-19.376 27.546-19.494a4.21 4.21 0 1 1 6.998 4.686c-.375.564-9.402 13.823-31.415 22.627a4.16 4.16 0 0 1-1.562.304z"/>
  <path fill="#5DADEC" d="M86.695 199.579l16.842-.194v-79.802H86.695v79.996zm67.368-80h16.842v80l-16.842-.194v-79.806z"/>
  <path fill="#664500" d="M116.164 128a4.223 4.223 0 0 1-1.878-.442c-14.787-7.398-29.772-.08-29.92 0a4.21 4.21 0 0 1-5.65-1.886 4.214 4.214 0 0 1 1.886-5.651c.766-.375 18.939-9.246 37.449 0a4.214 4.214 0 0 1 1.886 5.651 4.216 4.216 0 0 1-3.773 2.328zM175.112 128a4.22 4.22 0 0 1-1.878-.442c-14.792-7.394-29.773-.08-29.92 0a4.212 4.212 0 1 1-3.765-7.537c.763-.375 18.952-9.246 37.449 0a4.209 4.209 0 0 1 1.882 5.651 4.204 4.204 0 0 1-3.768 2.328z"/>
  <path fill="#5DADEC" d="M204.589 195.368c0 4.649-33.932 8.421-75.789 8.421s-75.789-3.772-75.789-8.421c0-4.648 33.932-8.421 75.789-8.421s75.789 3.773 75.789 8.421z"/>
  <path fill="#E75A70" d="M141.432 165.895c0 6.977-5.655 8.421-12.632 8.421-6.977 0-12.632-1.444-12.632-8.421 0-6.977 5.655-8.421 12.632-8.421 6.977 0 12.632 1.444 12.632 8.421z"/>
 </g>
</svg>
