<svg xmlns="http://www.w3.org/2000/svg" width="22" height="22" version="1.1">
 <defs>
  <style id="current-color-scheme" type="text/css">
   .ColorScheme-Text { color: #ececec; } .ColorScheme-Highlight { color: #1AD6AB; }
  </style>
  <linearGradient id="arrongin" x1="0%" x2="0%" y1="0%" y2="100%">
   <stop id="stop3" offset="0%" stop-color="#dd9b44"/>
   <stop id="stop5" offset="100%" stop-color="#ad6c16"/>
  </linearGradient>
  <linearGradient id="aurora" x1="0%" x2="0%" y1="0%" y2="100%">
   <stop id="stop8" offset="0%" stop-color="#09D4DF"/>
   <stop id="stop10" offset="100%" stop-color="#9269F4"/>
  </linearGradient>
  <linearGradient id="cyberblue" x1="0%" x2="0%" y1="0%" y2="100%">
   <stop id="stop13" offset="0%" stop-color="#07B3FF"/>
   <stop id="stop15" offset="100%" stop-color="#007DE8"/>
  </linearGradient>
  <linearGradient id="cyberneon" x1="0%" x2="0%" y1="0%" y2="100%">
   <stop id="stop18" offset="0%" stop-color="#0abdc6"/>
   <stop id="stop20" offset="100%" stop-color="#ea00d9"/>
  </linearGradient>
  <linearGradient id="fitdance" x1="0%" x2="0%" y1="0%" y2="100%">
   <stop id="stop23" offset="0%" stop-color="#1AD6AB"/>
   <stop id="stop25" offset="100%" stop-color="#329DB6"/>
  </linearGradient>
  <linearGradient id="oomox" x1="0%" x2="0%" y1="0%" y2="100%">
   <stop id="stop28" offset="0%" stop-color="#efefe7"/>
   <stop id="stop30" offset="100%" stop-color="#8f8f8b"/>
  </linearGradient>
  <linearGradient id="rainblue" x1="0%" x2="0%" y1="0%" y2="100%">
   <stop id="stop33" offset="0%" stop-color="#00F260"/>
   <stop id="stop35" offset="100%" stop-color="#0575E6"/>
  </linearGradient>
  <linearGradient id="redcarbon" x1="0%" x2="100%" y1="0%" y2="100%">
   <stop id="stop38" offset="0%" stop-color="#FF6D57"/>
   <stop id="stop40" offset="50%" stop-color="#FF5160"/>
   <stop id="stop42" offset="100%" stop-color="#F50F22"/>
  </linearGradient>
  <linearGradient id="sunrise" x1="0%" x2="0%" y1="0%" y2="100%">
   <stop id="stop45" offset="0%" stop-color="#FF8501"/>
   <stop id="stop47" offset="100%" stop-color="#FFCB01"/>
  </linearGradient>
  <linearGradient id="telinkrin" x1="0%" x2="0%" y1="0%" y2="100%">
   <stop id="stop50" offset="0%" stop-color="#b2ced6"/>
   <stop id="stop52" offset="100%" stop-color="#6da5b7"/>
  </linearGradient>
  <linearGradient id="60spsycho" x1="0%" x2="0%" y1="0%" y2="100%">
   <stop id="stop55" offset="0%" stop-color="#df5940"/>
   <stop id="stop57" offset="25%" stop-color="#d8d15f"/>
   <stop id="stop59" offset="50%" stop-color="#e9882a"/>
   <stop id="stop61" offset="100%" stop-color="#279362"/>
  </linearGradient>
  <linearGradient id="90ssummer" x1="0%" x2="0%" y1="0%" y2="100%">
   <stop id="stop64" offset="0%" stop-color="#f618c7"/>
   <stop id="stop66" offset="20%" stop-color="#94ffab"/>
   <stop id="stop68" offset="50%" stop-color="#fbfd54"/>
   <stop id="stop70" offset="100%" stop-color="#0f83ae"/>
  </linearGradient>
 </defs>
 <path opacity="0.2" d="m 6,19.5 -2,-2 H 1.5 C 0.669,17.5 0,16.831 0,16 V 4 C 0,3.169 0.669,2.5 1.5,2.5 h 17 C 19.331,2.5 20,3.169 20,4 v 12 c 0,0.831 -0.669,1.5 -1.5,1.5 H 16 l -2,2 z"/>
 <path fill="url(#oomox)" d="M 6,19 4,17 H 1.5 C 0.669,17 0,16.331 0,15.5 V 3.5 C 0,2.669 0.669,2 1.5,2 h 17 C 19.331,2 20,2.669 20,3.5 v 12 C 20,16.331 19.331,17 18.5,17 H 16 l -2,2 z"/>
 <path opacity="0.6" d="M 8,16 5.75,14 H 3 V 5 h 14 v 9 h -3 l -2,2 z"/>
 <path fill="url(#sunrise)" d="M 6 5 L 6 7 L 7 7 L 7 5 L 6 5 z M 8 5 L 8 7 L 9 7 L 9 5 L 8 5 z M 10 5 L 10 7 L 11 7 L 11 5 L 10 5 z M 12 5 L 12 7 L 13 7 L 13 5 L 12 5 z M 14 5 L 14 7 L 15 7 L 15 5 L 14 5 z"/>
 <path fill="currentColor" class="ColorScheme-Text" opacity="0.2" d="M 1.5,2 C 0.669,2 0,2.669 0,3.5 V 4 C 0,3.169 0.669,2.5 1.5,2.5 h 17 C 19.331,2.5 20,3.169 20,4 V 3.5 C 20,2.669 19.331,2 18.5,2 Z"/>
 <path fill="currentColor" class="ColorScheme-Text" opacity="0.2" d="m 3,14 v 0.5 h 2.75 l 2.25,2 h 4 l 2,-2 h 3 V 14 h -3 l -2,2 H 8 L 5.75,14 Z"/>
 <circle fill="url(#redcarbon)" cx="17" cy="16" r="5"/>
 <path opacity="0.2" d="M 21.9895,16.207 A 5,5 0 0 1 17,21 5,5 0 0 1 12.0105,16.293 5,5 0 0 0 12,16.5 a 5,5 0 0 0 5,5 5,5 0 0 0 5,-5 5,5 0 0 0 -0.0105,-0.293 z"/>
 <path fill="white" d="M 15.232422 13.654297 L 14.525391 14.363281 L 16.292969 16.130859 L 14.525391 17.898438 L 15.232422 18.605469 L 17 16.837891 L 18.767578 18.605469 L 19.474609 17.898438 L 17.707031 16.130859 L 19.474609 14.363281 L 18.767578 13.654297 L 17 15.421875 L 15.232422 13.654297 z"/>
</svg>
