<svg xmlns="http://www.w3.org/2000/svg" width="48" height="48" version="1.1">
 <defs>
  <style id="current-color-scheme" type="text/css">
   .ColorScheme-Text { color: #ececec; } .ColorScheme-Highlight { color: #1AD6AB; }
  </style>
  <linearGradient id="arrongin" x1="0" x2="0" y1="0" y2="1">
   <stop id="stop3" offset="0%" stop-color="#dd9b44"/>
   <stop id="stop5" offset="100%" stop-color="#ad6c16"/>
  </linearGradient>
  <linearGradient id="aurora" x1="0" x2="0" y1="0" y2="1">
   <stop id="stop8" offset="0%" stop-color="#09D4DF"/>
   <stop id="stop10" offset="100%" stop-color="#9269F4"/>
  </linearGradient>
  <linearGradient id="cyberblue" x1="0" x2="0" y1="0" y2="1">
   <stop id="stop13" offset="0%" stop-color="#07B3FF"/>
   <stop id="stop15" offset="100%" stop-color="#007DE8"/>
  </linearGradient>
  <linearGradient id="cyberneon" x1="0" x2="0" y1="0" y2="1">
   <stop id="stop18" offset="0%" stop-color="#0abdc6"/>
   <stop id="stop20" offset="100%" stop-color="#ea00d9"/>
  </linearGradient>
  <linearGradient id="fitdance" x1="0" x2="0" y1="0" y2="1">
   <stop id="stop23" offset="0%" stop-color="#1AD6AB"/>
   <stop id="stop25" offset="100%" stop-color="#329DB6"/>
  </linearGradient>
  <linearGradient id="oomox" x1="0" x2="0" y1="0" y2="1">
   <stop id="stop28" offset="0%" stop-color="#efefe7"/>
   <stop id="stop30" offset="100%" stop-color="#8f8f8b"/>
  </linearGradient>
  <linearGradient id="rainblue" x1="0" x2="0" y1="0" y2="1">
   <stop id="stop33" offset="0%" stop-color="#00F260"/>
   <stop id="stop35" offset="100%" stop-color="#0575E6"/>
  </linearGradient>
  <linearGradient id="redcarbon" x1="0" x2="1" y1="0" y2="1">
   <stop id="stop38" offset="0%" stop-color="#FF6D57"/>
   <stop id="stop40" offset="50%" stop-color="#FF5160"/>
   <stop id="stop42" offset="100%" stop-color="#F50F22"/>
  </linearGradient>
  <linearGradient id="sunrise" x1="0" x2="0" y1="0" y2="1">
   <stop id="stop45" offset="0%" stop-color="#FF8501"/>
   <stop id="stop47" offset="100%" stop-color="#FFCB01"/>
  </linearGradient>
  <linearGradient id="telinkrin" x1="0" x2="0" y1="0" y2="1">
   <stop id="stop50" offset="0%" stop-color="#b2ced6"/>
   <stop id="stop52" offset="100%" stop-color="#6da5b7"/>
  </linearGradient>
  <linearGradient id="60spsycho" x1="0" x2="0" y1="0" y2="1">
   <stop id="stop55" offset="0%" stop-color="#df5940"/>
   <stop id="stop57" offset="25%" stop-color="#d8d15f"/>
   <stop id="stop59" offset="50%" stop-color="#e9882a"/>
   <stop id="stop61" offset="100%" stop-color="#279362"/>
  </linearGradient>
  <linearGradient id="90ssummer" x1="0" x2="0" y1="0" y2="1">
   <stop id="stop64" offset="0%" stop-color="#f618c7"/>
   <stop id="stop66" offset="20%" stop-color="#94ffab"/>
   <stop id="stop68" offset="50%" stop-color="#fbfd54"/>
   <stop id="stop70" offset="100%" stop-color="#0f83ae"/>
  </linearGradient>
  <linearGradient id="pause" x1="0" x2="0" y1="0" y2="1" gradientTransform="matrix(4,0,0,12,14,5.734)" gradientUnits="userSpaceOnUse">
   <stop id="stop73" offset="0%" stop-color="#f06"/>
   <stop id="stop75" offset="100%" stop-color="#dc1499"/>
  </linearGradient>
  <linearGradient id="squircle" x1="0" x2="0" y1="0" y2="1" gradientTransform="matrix(24,0,0,22.401,0,0.533)" gradientUnits="userSpaceOnUse">
   <stop id="stop78" offset="0%" stop-color="#4c5561"/>
   <stop id="stop80" offset="100%" stop-color="#2e3842"/>
  </linearGradient>
 </defs>
 <g transform="translate(0,-1004.3622)">
  <path fill="#1e1e1e" opacity="0.2" d="m 23.921753,1039.3632 c -0.493655,0.013 -0.940456,0.142 -1.187654,0.3442 l -5.270349,4.3098 -5.268289,4.3097 c -0.561837,0.4601 0.141056,1.035 1.265871,1.0353 l 10.538639,-2 10.538638,2 c 1.124815,-3e-4 1.82771,-0.5752 1.265872,-1.0353 l -5.269319,-4.3097 -5.26829,-4.3098 c -0.27534,-0.2252 -0.795259,-0.3582 -1.345119,-0.3442 z"/>
  <path fill="#1e1e1e" opacity="0.2" d="m 23.869639,1019.3642 c -0.822757,0.025 -1.567423,0.2841 -1.97942,0.6884 l -8.783891,8.6194 -8.7804609,8.6195 c -0.9365915,0.9203 0.234962,2.0702 2.1097807,2.0707 l 17.5643522,-6 17.564353,6 c 1.874818,-5e-4 3.046371,-1.1504 2.10978,-2.0707 l -8.782176,-8.6195 -8.780461,-8.6194 c -0.458898,-0.4504 -1.325427,-0.7165 -2.241857,-0.6884 z"/>
  <path fill="url(#fitdance)" d="m 23.869639,1018.3642 c -0.822757,0.025 -1.567423,0.2841 -1.97942,0.6884 l -8.783891,8.6194 -8.7804609,8.6195 c -0.9365915,0.9203 0.234962,2.0702 2.1097807,2.0707 l 17.5643522,-6 17.564353,6 c 1.874818,-5e-4 3.046371,-1.1504 2.10978,-2.0707 l -8.782176,-8.6195 -8.780461,-8.6194 c -0.458898,-0.4504 -1.325427,-0.7165 -2.241857,-0.6884 z"/>
  <path opacity="0.1" fill="#efefef" d="M 23.869141 14.001953 A 2.4368828 1.3808684 0 0 0 21.890625 14.689453 L 13.105469 23.310547 L 4.3261719 31.929688 A 2.4368828 1.3808684 0 0 0 4.1679688 33.121094 A 2.4368828 1.3808684 0 0 1 4.3261719 32.929688 L 13.105469 24.310547 L 21.890625 15.689453 A 2.4368828 1.3808684 0 0 1 23.869141 15.001953 A 2.4368828 1.3808684 0 0 1 26.111328 15.689453 L 34.892578 24.310547 L 43.673828 32.929688 A 2.4368828 1.3808684 0 0 1 43.833984 33.119141 A 2.4368828 1.3808684 0 0 0 43.673828 31.929688 L 34.892578 23.310547 L 26.111328 14.689453 A 2.4368828 1.3808684 0 0 0 23.869141 14.001953 z" transform="translate(0,1004.3622)"/>
  <path fill="url(#fitdance)" d="m 23.921753,1038.3632 c -0.493655,0.013 -0.940456,0.142 -1.187654,0.3442 l -5.270349,4.3098 -5.268289,4.3097 c -0.561837,0.4601 0.141056,1.035 1.265871,1.0353 l 10.538639,-2 10.538638,2 c 1.124815,-3e-4 1.82771,-0.5752 1.265872,-1.0353 l -5.269319,-4.3097 -5.26829,-4.3098 c -0.27534,-0.2252 -0.795259,-0.3582 -1.345119,-0.3442 z"/>
  <path opacity="0.1" fill="#efefef" d="M 23.921875 34.001953 C 23.42822 34.014953 22.981573 34.143503 22.734375 34.345703 L 17.462891 38.654297 L 12.195312 42.964844 C 11.846493 43.250499 11.985663 43.579889 12.410156 43.789062 L 17.462891 39.654297 L 22.734375 35.345703 C 22.981573 35.143503 23.42822 35.014953 23.921875 35.001953 C 24.471735 34.987953 24.992238 35.120503 25.267578 35.345703 L 30.535156 39.654297 L 35.589844 43.789062 C 36.014337 43.579889 36.153508 43.250499 35.804688 42.964844 L 30.535156 38.654297 L 25.267578 34.345703 C 24.992238 34.120503 24.471735 33.987953 23.921875 34.001953 z" transform="translate(0,1004.3622)"/>
  <path opacity="0.2" d="m 20,1013.3622 c 0,0 1,-4 4,-4 3,0 4,4 4,4 l 0,29 c 0,2 -3,4 -4,4 -1,0 -4,-2 -4,-4 z"/>
  <path fill="url(#fitdance)" d="m 20,1012.3622 c 0,0 1,-4 4,-4 3,0 4,4 4,4 l 0,29 c 0,2 -3,4 -4,4 -1,0 -4,-2 -4,-4 z"/>
  <path fill="#efefef" opacity="0.6" d="m 20,1012.3622 c 0,0 1,-4 4,-4 3,0 4,4 4,4 l 0,29 c 0,2 -3,4 -4,4 -1,0 -4,-2 -4,-4 z"/>
  <path opacity="0.1" fill="#efefef" d="M 24 4 C 21 4 20 8 20 8 L 20 9 C 20 9 21 5 24 5 C 27 5 28 9 28 9 L 28 8 C 28 8 27 4 24 4 z" transform="translate(0,1004.3622)"/>
 </g>
</svg>
