<svg xmlns="http://www.w3.org/2000/svg" width="48" height="48" version="1.1">
 <defs>
  <style id="current-color-scheme" type="text/css">
   .ColorScheme-Text { color: #ececec; } .ColorScheme-Highlight { color: #1AD6AB; }
  </style>
  <linearGradient id="arrongin" x1="0" x2="0" y1="0" y2="1">
   <stop id="stop3" offset="0%" stop-color="#dd9b44"/>
   <stop id="stop5" offset="100%" stop-color="#ad6c16"/>
  </linearGradient>
  <linearGradient id="aurora" x1="0" x2="0" y1="0" y2="1">
   <stop id="stop8" offset="0%" stop-color="#09D4DF"/>
   <stop id="stop10" offset="100%" stop-color="#9269F4"/>
  </linearGradient>
  <linearGradient id="cyberblue" x1="0" x2="0" y1="0" y2="1">
   <stop id="stop13" offset="0%" stop-color="#07B3FF"/>
   <stop id="stop15" offset="100%" stop-color="#007DE8"/>
  </linearGradient>
  <linearGradient id="cyberneon" x1="0" x2="0" y1="0" y2="1">
   <stop id="stop18" offset="0%" stop-color="#0abdc6"/>
   <stop id="stop20" offset="100%" stop-color="#ea00d9"/>
  </linearGradient>
  <linearGradient id="cyberorange" x1="0%" x2="0%" y1="0%" y2="100%">
    <stop offset="0%"   style="stop-color: #FF9757; stop-opacity: 1"/>
    <stop offset="50%"  style="stop-color: #FF6E51; stop-opacity: 1"/>
    <stop offset="100%" style="stop-color: #F5350F; stop-opacity: 1"/>
  </linearGradient>
  <linearGradient id="fitdance" x1="0" x2="0" y1="0" y2="1">
   <stop id="stop23" offset="0%" stop-color="#1AD6AB"/>
   <stop id="stop25" offset="100%" stop-color="#329DB6"/>
  </linearGradient>
  <linearGradient id="lemon" x1="0%" x2="0%" y1="0%" y2="100%">
   <stop offset="0.1" stop-color="#6DDB0A"/>
   <stop offset="0.2" stop-color="#61D915"/>
   <stop offset="0.3" stop-color="#55D620"/>
   <stop offset="0.4" stop-color="#49D42B"/>
   <stop offset="0.5" stop-color="#3CD235"/>
   <stop offset="0.6" stop-color="#30CF40"/>
   <stop offset="0.7" stop-color="#24CD4B"/>
   <stop offset="0.8" stop-color="#18CA56"/>
   <stop offset="0.9" stop-color="#0CC861"/>
   <stop offset="1.0" stop-color="#00C66B"/>
  </linearGradient>
  <linearGradient id="purplecarbon" x1="0%" x2="0%" y1="0%" y2="100%">
   <stop offset="1e-07" stop-color="#EC57FF"/>
   <stop offset="0.5" stop-color="#C551FF"/>
   <stop offset="1" stop-color="#A90FF5"/>
  </linearGradient>
  <linearGradient id="oomox" x1="0" x2="0" y1="0" y2="1">
   <stop id="stop28" offset="0%" stop-color="#efefe7"/>
   <stop id="stop30" offset="100%" stop-color="#8f8f8b"/>
  </linearGradient>
  <linearGradient id="rainblue" x1="0" x2="0" y1="0" y2="1">
   <stop id="stop33" offset="0%" stop-color="#00F260"/>
   <stop id="stop35" offset="100%" stop-color="#0575E6"/>
  </linearGradient>
  <linearGradient id="redcarbon" x1="0" x2="1" y1="0" y2="1">
   <stop id="stop38" offset="0%" stop-color="#FF6D57"/>
   <stop id="stop40" offset="50%" stop-color="#FF5160"/>
   <stop id="stop42" offset="100%" stop-color="#F50F22"/>
  </linearGradient>
  <linearGradient id="sunrise" x1="0" x2="0" y1="0" y2="1">
   <stop id="stop45" offset="0%" stop-color="#FF8501"/>
   <stop id="stop47" offset="100%" stop-color="#FFCB01"/>
  </linearGradient>
  <linearGradient id="telinkrin" x1="0" x2="0" y1="0" y2="1">
   <stop id="stop50" offset="0%" stop-color="#b2ced6"/>
   <stop id="stop52" offset="100%" stop-color="#6da5b7"/>
  </linearGradient>
  <linearGradient id="60spsycho" x1="0" x2="0" y1="0" y2="1">
   <stop id="stop55" offset="0%" stop-color="#df5940"/>
   <stop id="stop57" offset="25%" stop-color="#d8d15f"/>
   <stop id="stop59" offset="50%" stop-color="#e9882a"/>
   <stop id="stop61" offset="100%" stop-color="#279362"/>
  </linearGradient>
  <linearGradient id="90ssummer" x1="0" x2="0" y1="0" y2="1">
   <stop id="stop64" offset="0%" stop-color="#f618c7"/>
   <stop id="stop66" offset="20%" stop-color="#94ffab"/>
   <stop id="stop68" offset="50%" stop-color="#fbfd54"/>
   <stop id="stop70" offset="100%" stop-color="#0f83ae"/>
  </linearGradient>
  <linearGradient id="pause" x1="0" x2="0" y1="0" y2="1" gradientTransform="matrix(4,0,0,12,14,5.734)" gradientUnits="userSpaceOnUse">
   <stop id="stop73" offset="0%" stop-color="#f06"/>
   <stop id="stop75" offset="100%" stop-color="#dc1499"/>
  </linearGradient>
  <linearGradient id="squircle" x1="0" x2="0" y1="0" y2="1" gradientTransform="matrix(24,0,0,22.401,0,0.533)" gradientUnits="userSpaceOnUse">
   <stop id="stop78" offset="0%" stop-color="#4c5561"/>
   <stop id="stop80" offset="100%" stop-color="#2e3842"/>
  </linearGradient>
  <filter id="gaussian_blur" width="4" height="4" x="-2" y="-2" color-interpolation-filters="sRGB" filterUnits="objectBoundingBox">
   <feGaussianBlur id="feGaussianBlur2" stdDeviation="4.294"/>
  </filter>
 </defs>
 <path id="shadow"            fill="#1e1e1e" opacity="0.4" d="m 179.079,15 c 35.301,0 39.095,3.628 38.921,38.994 v 146.015 c 0.174,35.369 -3.624,38.993 -38.921,38.993 h -98.155 c -35.301,0 -38.922,-3.628 -38.922,-38.993 v -146.015 c 0,-35.369 3.625,-38.994 38.922,-38.994 z" filter="url(#gaussian_blur)" transform="matrix(0.1785698342,0,0,0.1785698342,0.78515871,1.6789493)"/>
 <path id="background"        fill="url(#fitdance)" class="ColorScheme-Text" d="m 32.76326606,4 c 6.30369371,0 6.98118767,0.64785137 6.95011651,6.96297356 v 26.07405295 c 0.0310712,6.3158364 -0.64713708,6.9629735 -6.95011651,6.9629735 h -17.52752208 c -6.30369372,0 -6.95029509,-0.6478513 -6.95029509,-6.9629735 v -26.07405295 c 0,-6.31583647 0.64731565,-6.96297356 6.95029509,-6.96297356 z"/>
 <path id="highlight_bottom"  fill="#1e1e1e" opacity="0.2" d="m 8.28616317,36.67988681 v 0.3571397 c -0.0310712,6.3158364 0.64785136,6.9629735 6.95029509,6.9629735 h 17.5273435 c 6.30369371,0 6.78708226,-0.6492799 6.95100937,-6.9629735 v -0.357854 c -0.16392711,6.3145865 -0.64785136,6.9638664 -6.95029509,6.9638664 h -17.52752207 c -6.30369372,0 -6.98190195,-0.6480299 -6.9508308,-6.9631521 z"/>
 <path id="highlight_top"     fill="#ffffff" opacity="0.2" d="m 39.71383683,11.32136321 v -0.35696109 c 0.0310712,-6.31583647 -0.64785136,-6.96315213 -6.95029508,-6.96315213 h -17.52734352 c -6.30369372,0 -6.78708225,0.6499942 -6.95100936,6.96315213 v 0.35767537 c 0.16392711,-6.31440791 0.64856563,-6.96368783 6.95029508,-6.96368783 h 17.52752208 c 6.30369372,0 6.98190195,0.64785136 6.9508308,6.96297355 z"/>
 <path id="trash_symbol"      fill="#ffffff" opacity="1.0" d="m 23.03156722,25.91516151 c 0.19303399,0.034285 0.4037464,0.2091053 0.50820975,0.3501754 l 1.70087767,2.9453309 -0.8760636,0.5264238 h 2.90961688 l 1.454987,-2.5247988 -0.89427772,0.5082097 -0.89356345,-1.5780216 c -0.0876777,-0.1578558 -0.26321194,-0.2280337 -0.45553166,-0.2280337 z m -1.00356246,0.1767841 c -0.44678172,0.015536 -0.88070643,0.1821412 -1.0649905,0.5060669 l -1.33230953,2.3319435 2.55926287,1.4901652 1.63069972,-2.8399746 -0.64856563,-1.0865974 c -0.23624789,-0.2808904 -0.69660093,-0.4164249 -1.14409693,-0.4016036 z m 6.92940241,3.6094321 -2.57747698,1.4726654 1.63052116,2.7872965 h 1.38498762 c 0.56142356,-0.1051776 1.40302319,-1.0171337 0.91177758,-1.963911 z m -11.41275524,0.6141016 0.92856313,0.5426738 -0.59588753,0.9994553 c -0.52570959,0.9821341 0.35088972,2.0653387 0.87677789,2.1214096 h 1.36730922 l 0.92927741,-1.6131998 0.92874171,0.508924 -1.48945099,-2.5599772 z m 8.3620682,2.9972947 -1.49016527,2.5592629 1.49016527,2.5424773 v -1.0690976 h 1.82373371 c 0.17946268,0.00214 0.34374693,-0.1007134 0.42035339,-0.263212 l 1.64819957,-2.9103311 c -0.0876777,0.052678 -0.14035589,0.1405344 -0.47321005,0.1755341 h -3.41907662 z m -7.57314667,0.8942777 c 0.070178,0.087678 0.0519639,0.070178 1.59480719,2.804975 0.10535627,0.1578557 0.24571209,0.3508897 0.43874608,0.3333899 h 3.27872072 v -2.998009 h -4.87424219 c -0.26321193,0 -0.35499683,-0.070178 -0.43874608,-0.1403559 z"/>
 <path id="highlight"         fill="#ffffff" opacity="0.2" d="m 14.00325498,7.21461417 h 19.99428577 c 1.19945357,0.0133928 1.98766081,0.0566067 2.33658628,0.24964062 0.17410559,0.095892 0.27535468,0.20249819 0.36785385,0.44946027 0.0937492,0.24785493 0.15249864,1.20552496 0.15249864,1.20552496 v 1.90462585 h 0.006072 v 1.42873725 c 0,0.56428067 -0.0592852,0.95838429 -0.15249864,1.20534637 -0.0930349,0.24767636 -0.19374826,0.35374684 -0.36856813,0.45017456 -0.34892545,0.19231971 -1.13641843,0.2355336 -2.33640772,0.24981919 h -20.0058928 c -1.199275,-0.0142856 -1.98694654,-0.0574995 -2.335872,-0.24981919 -0.17481987,-0.0964277 -0.27535468,-0.2024982 -0.36838957,-0.45017456 -0.0932135,-0.24767636 -0.15249863,-0.6410657 -0.15249863,-1.20534637 v -3.3333631 c 0,-0.56428068 0.0607137,-0.95767003 0.15249863,-1.20552496 0.0930349,-0.24767636 0.1935697,-0.35356827 0.36838957,-0.45017455 0.34892546,-0.1923197 1.13856127,-0.23481933 2.34194275,-0.24892634 z"/>
 <path id="depth_shadow"      fill="url(#fitdance)" class="ColorScheme-Text" d="m 14.00325498,6.8574745 h 19.99428577 c 1.19945357,0.0135713 1.98766081,0.0567852 2.33658628,0.24981919 0.17410559,0.095892 0.27535468,0.2024982 0.36785385,0.44946028 0.0937492,0.24767636 0.15249864,1.20534637 0.15249864,1.20534637 v 1.90462586 h 0.006072 v 1.42891581 c 0,0.56410211 -0.0592852,0.95820574 -0.15249864,1.20534639 -0.0930349,0.24767636 -0.19374826,0.35356827 -0.36856813,0.45017455 -0.34892545,0.1923197 -1.13641843,0.23481933 -2.33640772,0.24964062 h -20.0058928 c -1.199275,-0.0141071 -1.98694654,-0.0573209 -2.335872,-0.24964062 -0.17481987,-0.0966063 -0.27535468,-0.20249819 -0.36838957,-0.45017455 -0.0932135,-0.24767636 -0.15249863,-0.64124428 -0.15249863,-1.20534639 v -3.33354167 c 0,-0.56410211 0.0607137,-0.95767001 0.15249863,-1.20534637 0.0930349,-0.24767636 0.1935697,-0.35356827 0.36838957,-0.45017455 0.34892546,-0.19231972 1.13856127,-0.23553361 2.34194338,-0.24964064 z"/>
 <path id="depth"             fill="#1e1e1e" opacity="0.2" d="m 14.00325498,6.8574745 h 19.99428577 c 1.19945357,0.0135713 1.98766081,0.0567852 2.33658628,0.24981919 0.17410559,0.095892 0.27535468,0.2024982 0.36785385,0.44946028 0.0937492,0.24767636 0.15249864,1.20534637 0.15249864,1.20534637 v 1.90462586 h 0.006072 v 1.42891581 c 0,0.56410211 -0.0592852,0.95820574 -0.15249864,1.20534639 -0.0930349,0.24767636 -0.19374826,0.35356827 -0.36856813,0.45017455 -0.34892545,0.1923197 -1.13641843,0.23481933 -2.33640772,0.24964062 h -20.0058928 c -1.199275,-0.0141071 -1.98694654,-0.0573209 -2.335872,-0.24964062 -0.17481987,-0.0966063 -0.27535468,-0.20249819 -0.36838957,-0.45017455 -0.0932135,-0.24767636 -0.15249863,-0.64124428 -0.15249863,-1.20534639 v -3.33354167 c 0,-0.56410211 0.0607137,-0.95767001 0.15249863,-1.20534637 0.0930349,-0.24767636 0.1935697,-0.35356827 0.36838957,-0.45017455 0.34892546,-0.19231972 1.13856127,-0.23553361 2.34194338,-0.24964064 z"/>
</svg>
