<svg xmlns="http://www.w3.org/2000/svg" width="22" height="22" version="1.1">
 <defs>
  <style id="current-color-scheme" type="text/css">
   .ColorScheme-Text { color: #939597; } .ColorScheme-Highlight { color: #1AD6AB; }
  </style>
  <linearGradient id="arrongin" x1="0%" x2="0%" y1="0%" y2="100%">
   <stop offset="0%" style="stop-color:#dd9b44"/>
   <stop offset="100%" style="stop-color:#ad6c16"/>
  </linearGradient>
  <linearGradient id="aurora" x1="0%" x2="0%" y1="0%" y2="100%">
   <stop offset="0%" style="stop-color:#09D4DF"/>
   <stop offset="100%" style="stop-color:#9269F4"/>
  </linearGradient>
  <linearGradient id="cyberneon" x1="0%" x2="0%" y1="0%" y2="100%">
   <stop offset="0" style="stop-color:#0abdc6"/>
   <stop offset="1" style="stop-color:#ea00d9"/>
  </linearGradient>
  <linearGradient id="fitdance" x1="0%" x2="0%" y1="0%" y2="100%">
   <stop offset="0%" style="stop-color:#1AD6AB"/>
   <stop offset="100%" style="stop-color:#329DB6"/>
  </linearGradient>
  <linearGradient id="oomox" x1="0%" x2="0%" y1="0%" y2="100%">
   <stop offset="0%" style="stop-color:#f27979"/>
   <stop offset="100%" style="stop-color:#9e2121"/>
  </linearGradient>
  <linearGradient id="rainblue" x1="0%" x2="0%" y1="0%" y2="100%">
   <stop offset="0%" style="stop-color:#00F260"/>
   <stop offset="100%" style="stop-color:#0575E6"/>
  </linearGradient>
  <linearGradient id="sunrise" x1="0%" x2="0%" y1="0%" y2="100%">
   <stop offset="0%" style="stop-color:#FF8501"/>
   <stop offset="100%" style="stop-color:#FFCB01"/>
  </linearGradient>
  <linearGradient id="telinkrin" x1="0%" x2="0%" y1="0%" y2="100%">
   <stop offset="0%" style="stop-color:#b2ced6"/>
   <stop offset="100%" style="stop-color:#6da5b7"/>
  </linearGradient>
  <linearGradient id="60spsycho" x1="0%" x2="0%" y1="0%" y2="100%">
   <stop offset="0%" style="stop-color:#df5940"/>
   <stop offset="25%" style="stop-color:#d8d15f"/>
   <stop offset="50%" style="stop-color:#e9882a"/>
   <stop offset="100%" style="stop-color:#279362"/>
  </linearGradient>
  <linearGradient id="90ssummer" x1="0%" x2="0%" y1="0%" y2="100%">
   <stop offset="0%" style="stop-color:#f618c7"/>
   <stop offset="20%" style="stop-color:#94ffab"/>
   <stop offset="50%" style="stop-color:#fbfd54"/>
   <stop offset="100%" style="stop-color:#0f83ae"/>
  </linearGradient>
 </defs>
 <path fill="url(#oomox)" class="ColorScheme-Text" d="m5.9141 3.375l-1.4141 1.4141 1.4141 1.414 1.414-1.414-1.414-1.4141zm11.092 0.1992a1.5 1.5 0 0 0 -1.5 1.5 1.5 1.5 0 0 0 1.5 1.5 1.5 1.5 0 0 0 1.5 -1.5 1.5 1.5 0 0 0 -1.5 -1.5zm-13.213 1.9219l-1.416 1.4141 1.416 1.414 1.414-1.414-1.414-1.4141zm4.2422 0l-1.4141 1.4141 1.4141 1.414 1.414-1.414-1.414-1.4141zm6.7658 0.7227l-0.826 0.8261 1.06 1.0606 0.826-0.8262c-0.453-0.2381-0.821-0.6071-1.06-1.0605zm-3.289 0.0566l-6.0354 6.0356c0.9368 0.366 1.8146 0.941 2.5586 1.685 0.7427 0.745 1.3172 1.62 1.6836 2.557l6.0352-6.037-4.242-4.2406zm-5.5979 1.3418l-1.4141 1.414 1.4141 1.4138 1.414-1.4138-1.414-1.414zm9.1909 4.9568l-1.414 1.416 1.414 1.414 1.415-1.414-1.415-1.416zm-12.042 0.258c-0.2156 0.005-0.4304 0.022-0.6426 0.057a0.50005 0.50005 0 0 0 -0.2734 0.849l6.1152 6.116a0.50005 0.50005 0 0 0 0.8496 -0.274c0.2742-1.696-0.4233-3.541-1.7832-4.904-1.1923-1.192-2.7562-1.876-4.2656-1.844zm9.9215 1.865l-1.414 1.414 1.414 1.414 1.414-1.414-1.414-1.414zm4.243 0l-1.415 1.414 1.415 1.414 1.414-1.414-1.414-1.414zm-2.122 2.121l-1.414 1.414 1.414 1.414 1.415-1.414-1.415-1.414z"/>
</svg>
