<svg xmlns="http://www.w3.org/2000/svg" width="22" height="22" version="1.1">
 <defs>
  <style id="current-color-scheme" type="text/css">
   .ColorScheme-Text { color: #939597; } .ColorScheme-Highlight { color: #1AD6AB; }
  </style>
  <linearGradient id="arrongin" x1="0%" x2="0%" y1="0%" y2="100%">
   <stop offset="0%" style="stop-color:#dd9b44"/>
   <stop offset="100%" style="stop-color:#ad6c16"/>
  </linearGradient>
  <linearGradient id="aurora" x1="0%" x2="0%" y1="0%" y2="100%">
   <stop offset="0%" style="stop-color:#09D4DF"/>
   <stop offset="100%" style="stop-color:#9269F4"/>
  </linearGradient>
  <linearGradient id="cyberneon" x1="0%" x2="0%" y1="0%" y2="100%">
   <stop offset="0" style="stop-color:#0abdc6"/>
   <stop offset="1" style="stop-color:#ea00d9"/>
  </linearGradient>
  <linearGradient id="fitdance" x1="0%" x2="0%" y1="0%" y2="100%">
   <stop offset="0%" style="stop-color:#1AD6AB"/>
   <stop offset="100%" style="stop-color:#329DB6"/>
  </linearGradient>
  <linearGradient id="oomox" x1="0%" x2="0%" y1="0%" y2="100%">
   <stop offset="0%" style="stop-color:#f27979"/>
   <stop offset="100%" style="stop-color:#9e2121"/>
  </linearGradient>
  <linearGradient id="rainblue" x1="0%" x2="0%" y1="0%" y2="100%">
   <stop offset="0%" style="stop-color:#00F260"/>
   <stop offset="100%" style="stop-color:#0575E6"/>
  </linearGradient>
  <linearGradient id="sunrise" x1="0%" x2="0%" y1="0%" y2="100%">
   <stop offset="0%" style="stop-color:#FF8501"/>
   <stop offset="100%" style="stop-color:#FFCB01"/>
  </linearGradient>
  <linearGradient id="telinkrin" x1="0%" x2="0%" y1="0%" y2="100%">
   <stop offset="0%" style="stop-color:#b2ced6"/>
   <stop offset="100%" style="stop-color:#6da5b7"/>
  </linearGradient>
  <linearGradient id="60spsycho" x1="0%" x2="0%" y1="0%" y2="100%">
   <stop offset="0%" style="stop-color:#df5940"/>
   <stop offset="25%" style="stop-color:#d8d15f"/>
   <stop offset="50%" style="stop-color:#e9882a"/>
   <stop offset="100%" style="stop-color:#279362"/>
  </linearGradient>
  <linearGradient id="90ssummer" x1="0%" x2="0%" y1="0%" y2="100%">
   <stop offset="0%" style="stop-color:#f618c7"/>
   <stop offset="20%" style="stop-color:#94ffab"/>
   <stop offset="50%" style="stop-color:#fbfd54"/>
   <stop offset="100%" style="stop-color:#0f83ae"/>
  </linearGradient>
 </defs>
 <path fill="url(#oomox)" class="ColorScheme-Text" opacity="0.3" d="M 11.5 4 A 6.5 6.5 0 0 0 5.4902344 8.03125 A 5 5 0 0 0 1 13 A 5 5 0 0 0 6 18 L 12.423828 18 A 5 5 0 0 1 12 16 A 5 5 0 0 1 12.113281 14.953125 A 4.5 4.5 0 0 1 11.5 15 A 4.5 4.5 0 0 1 7 10.5 A 4.5 4.5 0 0 1 11.5 6 A 4.5 4.5 0 0 1 16 10.5 A 4.5 4.5 0 0 1 15.951172 11.117188 A 5 5 0 0 1 17 11 A 5 5 0 0 1 19.490234 11.669922 A 3 3 0 0 0 20 10 A 3 3 0 0 0 17 7 A 3 3 0 0 0 16.976562 7 A 6.5 6.5 0 0 0 11.5 4 z M 11.5 7 A 3.5 3.5 0 0 0 8 10.5 A 3.5 3.5 0 0 0 11.5 14 A 3.5 3.5 0 0 0 12.490234 13.855469 A 5 5 0 0 1 14.855469 11.490234 A 3.5 3.5 0 0 0 15 10.5 A 3.5 3.5 0 0 0 11.5 7 z M 10 8 L 11 8 L 12.5 8 A 1.5 1.5 0 0 1 14 9.5 A 1.5 1.5 0 0 1 12.5 11 L 11 11 L 11 13 L 10 13 L 10 11 L 10 8 z M 11 9 L 11 10 L 12.5 10 A 0.5 0.5 0 0 0 13 9.5 A 0.5 0.5 0 0 0 12.5 9 L 11 9 z"/>
 <path fill="url(#oomox)" class="ColorScheme-Text" d="M 17.279297,12.007812 C 16.510764,11.953491 15.717412,12.120931 15,12.535156 13.0868,13.639756 12.432609,16.0868 13.537109,18 14.641609,19.9131 17.0869,20.567491 19,19.462891 20.9132,18.358291 21.569344,15.9132 20.464844,14 19.774531,12.804312 18.560186,12.098349 17.279297,12.007812 Z M 15,14 h 1 v 4 h -1 z m 3,0 h 1 v 4 h -1 z"/>
</svg>
