<svg xmlns="http://www.w3.org/2000/svg" width="22" height="22" version="1.1">
 <defs>
  <style id="current-color-scheme" type="text/css">
   .ColorScheme-Text { color: #939597; } .ColorScheme-Highlight { color: #1AD6AB; }
  </style>
  <linearGradient id="arrongin" x1="0%" x2="0%" y1="0%" y2="100%">
   <stop offset="0%" style="stop-color:#dd9b44"/>
   <stop offset="100%" style="stop-color:#ad6c16"/>
  </linearGradient>
  <linearGradient id="aurora" x1="0%" x2="0%" y1="0%" y2="100%">
   <stop offset="0%" style="stop-color:#09D4DF"/>
   <stop offset="100%" style="stop-color:#9269F4"/>
  </linearGradient>
  <linearGradient id="cyberneon" x1="0%" x2="0%" y1="0%" y2="100%">
   <stop offset="0" style="stop-color:#0abdc6"/>
   <stop offset="1" style="stop-color:#ea00d9"/>
  </linearGradient>
  <linearGradient id="fitdance" x1="0%" x2="0%" y1="0%" y2="100%">
   <stop offset="0%" style="stop-color:#1AD6AB"/>
   <stop offset="100%" style="stop-color:#329DB6"/>
  </linearGradient>
  <linearGradient id="oomox" x1="0%" x2="0%" y1="0%" y2="100%">
   <stop offset="0%" style="stop-color:#f27979"/>
   <stop offset="100%" style="stop-color:#9e2121"/>
  </linearGradient>
  <linearGradient id="rainblue" x1="0%" x2="0%" y1="0%" y2="100%">
   <stop offset="0%" style="stop-color:#00F260"/>
   <stop offset="100%" style="stop-color:#0575E6"/>
  </linearGradient>
  <linearGradient id="sunrise" x1="0%" x2="0%" y1="0%" y2="100%">
   <stop offset="0%" style="stop-color:#FF8501"/>
   <stop offset="100%" style="stop-color:#FFCB01"/>
  </linearGradient>
  <linearGradient id="telinkrin" x1="0%" x2="0%" y1="0%" y2="100%">
   <stop offset="0%" style="stop-color:#b2ced6"/>
   <stop offset="100%" style="stop-color:#6da5b7"/>
  </linearGradient>
  <linearGradient id="60spsycho" x1="0%" x2="0%" y1="0%" y2="100%">
   <stop offset="0%" style="stop-color:#df5940"/>
   <stop offset="25%" style="stop-color:#d8d15f"/>
   <stop offset="50%" style="stop-color:#e9882a"/>
   <stop offset="100%" style="stop-color:#279362"/>
  </linearGradient>
  <linearGradient id="90ssummer" x1="0%" x2="0%" y1="0%" y2="100%">
   <stop offset="0%" style="stop-color:#f618c7"/>
   <stop offset="20%" style="stop-color:#94ffab"/>
   <stop offset="50%" style="stop-color:#fbfd54"/>
   <stop offset="100%" style="stop-color:#0f83ae"/>
  </linearGradient>
 </defs>
 <path fill="url(#oomox)" class="ColorScheme-Text" opacity="0.3" d="M 3.857422,3.0000002 C 3.382562,3.0000002 3,3.3825621 3,3.8574221 L 3,11 19,11 19,3.8574221 c 0,-0.47484 -0.383422,-0.8574219 -0.857422,-0.8574219 l -14.285156,0 z m 3.142578,2 a 1,1 0 0 1 1,1 1,1 0 0 1 -1,1 1,1 0 0 1 -1,-1 1,1 0 0 1 1,-1 z m 8,0 a 1,1 0 0 1 1,1 1,1 0 0 1 -1,1 1,1 0 0 1 -1,-1 1,1 0 0 1 1,-1 z m -6,3 c 2.0537,0.31733 4,0 4,0 C 13,9.1046002 12.1046,10 11,10 9.8954,10 9,9.1046002 9,8.0000002 Z"/>
 <path fill="url(#oomox)" class="ColorScheme-Text" d="m 3,11 0,7.142578 C 3,18.617578 3.382572,19 3.857422,19 l 14.285156,0 C 18.617578,19 19,18.617578 19,18.142578 L 19,11 3,11 Z m 3.902344,1 0.195312,0 C 7.597364,12 8,12.357028 8,12.800781 l 0,4.398438 C 8,17.642973 7.597364,18 7.097656,18 L 6.902344,18 C 6.402635,18 6,17.642973 6,17.199219 L 6,12.800781 C 6,12.357028 6.402635,12 6.902344,12 Z m 4,0 0.195312,0 C 11.597364,12 12,12.357028 12,12.800781 l 0,4.398438 C 12,17.642973 11.597364,18 11.097656,18 l -0.195312,0 C 10.402635,18 10,17.642973 10,17.199219 l 0,-4.398438 C 10,12.357028 10.402635,12 10.902344,12 Z m 4,0 0.195312,0 C 15.597364,12 16,12.357028 16,12.800781 l 0,4.398438 C 16,17.642973 15.597364,18 15.097656,18 l -0.195312,0 C 14.402636,18 14,17.642973 14,17.199219 l 0,-4.398438 C 14,12.357028 14.402636,12 14.902344,12 Z"/>
</svg>
