<svg xmlns="http://www.w3.org/2000/svg" width="22" height="22" version="1.1">
 <defs>
  <style id="current-color-scheme" type="text/css">
   .ColorScheme-Text { color: #939597; } .ColorScheme-Highlight { color: #1AD6AB; }
  </style>
  <linearGradient id="arrongin" x1="0%" x2="0%" y1="0%" y2="100%">
   <stop offset="0%" style="stop-color:#dd9b44"/>
   <stop offset="100%" style="stop-color:#ad6c16"/>
  </linearGradient>
  <linearGradient id="aurora" x1="0%" x2="0%" y1="0%" y2="100%">
   <stop offset="0%" style="stop-color:#09D4DF"/>
   <stop offset="100%" style="stop-color:#9269F4"/>
  </linearGradient>
  <linearGradient id="cyberneon" x1="0%" x2="0%" y1="0%" y2="100%">
   <stop offset="0" style="stop-color:#0abdc6"/>
   <stop offset="1" style="stop-color:#ea00d9"/>
  </linearGradient>
  <linearGradient id="fitdance" x1="0%" x2="0%" y1="0%" y2="100%">
   <stop offset="0%" style="stop-color:#1AD6AB"/>
   <stop offset="100%" style="stop-color:#329DB6"/>
  </linearGradient>
  <linearGradient id="oomox" x1="0%" x2="0%" y1="0%" y2="100%">
   <stop offset="0%" style="stop-color:#f27979"/>
   <stop offset="100%" style="stop-color:#9e2121"/>
  </linearGradient>
  <linearGradient id="rainblue" x1="0%" x2="0%" y1="0%" y2="100%">
   <stop offset="0%" style="stop-color:#00F260"/>
   <stop offset="100%" style="stop-color:#0575E6"/>
  </linearGradient>
  <linearGradient id="sunrise" x1="0%" x2="0%" y1="0%" y2="100%">
   <stop offset="0%" style="stop-color:#FF8501"/>
   <stop offset="100%" style="stop-color:#FFCB01"/>
  </linearGradient>
  <linearGradient id="telinkrin" x1="0%" x2="0%" y1="0%" y2="100%">
   <stop offset="0%" style="stop-color:#b2ced6"/>
   <stop offset="100%" style="stop-color:#6da5b7"/>
  </linearGradient>
  <linearGradient id="60spsycho" x1="0%" x2="0%" y1="0%" y2="100%">
   <stop offset="0%" style="stop-color:#df5940"/>
   <stop offset="25%" style="stop-color:#d8d15f"/>
   <stop offset="50%" style="stop-color:#e9882a"/>
   <stop offset="100%" style="stop-color:#279362"/>
  </linearGradient>
  <linearGradient id="90ssummer" x1="0%" x2="0%" y1="0%" y2="100%">
   <stop offset="0%" style="stop-color:#f618c7"/>
   <stop offset="20%" style="stop-color:#94ffab"/>
   <stop offset="50%" style="stop-color:#fbfd54"/>
   <stop offset="100%" style="stop-color:#0f83ae"/>
  </linearGradient>
 </defs>
 <path fill="url(#oomox)" class="ColorScheme-Text" d="m2.9998 5v12h2v-12h-2zm4 0v12l4.252-0.0332c2.9313-0.03263 3.208-0.07195 4.4473-0.67578 2.702-1.3165 3.9797-4.5047 2.9414-7.3438-0.686-1.8751-2.248-3.2628-4.237-3.7677-0.625-0.1586-1.021-0.1797-3.449-0.1797h-3.9552zm6 0.34375 1.4141 1.4141 0.70703 0.70703-0.70703 0.70703-1.4141 1.4141-0.70703-0.70703 0.92773-0.92773c-0.70151-0.085814-1.5145 0.10041-2.3418 0.92773-2.1213 2.1213 0 4.2422 0 4.2422l-0.70703 0.70703s-2.8284-2.8278 0-5.6562c1.0484-1.0483 2.1015-1.3122 3.0059-1.2383l-0.885-0.8827 0.707-0.707zm2.8281 2.8281s2.8284 2.8278 0 5.6562c-1.0484 1.0484-2.1015 1.3122-3.0059 1.2383l0.88476 0.88281-0.70703 0.70703-1.4141-1.4141-0.70703-0.70703 0.70703-0.70703 1.4141-1.4141 0.70703 0.70703-0.92773 0.92773c0.70145 0.08627 1.5145-0.10042 2.3418-0.92773 2.1213-2.1213 0-4.2422 0-4.2422l0.707-0.7062z"/>
</svg>
