<svg xmlns="http://www.w3.org/2000/svg" width="22" height="22" version="1.1">
 <defs>
  <style id="current-color-scheme" type="text/css">
   .ColorScheme-Text { color: #939597; } .ColorScheme-Highlight { color: #1AD6AB; }
  </style>
  <linearGradient id="arrongin" x1="0%" x2="0%" y1="0%" y2="100%">
   <stop offset="0%" style="stop-color:#dd9b44"/>
   <stop offset="100%" style="stop-color:#ad6c16"/>
  </linearGradient>
  <linearGradient id="aurora" x1="0%" x2="0%" y1="0%" y2="100%">
   <stop offset="0%" style="stop-color:#09D4DF"/>
   <stop offset="100%" style="stop-color:#9269F4"/>
  </linearGradient>
  <linearGradient id="cyberneon" x1="0%" x2="0%" y1="0%" y2="100%">
   <stop offset="0" style="stop-color:#0abdc6"/>
   <stop offset="1" style="stop-color:#ea00d9"/>
  </linearGradient>
  <linearGradient id="fitdance" x1="0%" x2="0%" y1="0%" y2="100%">
   <stop offset="0%" style="stop-color:#1AD6AB"/>
   <stop offset="100%" style="stop-color:#329DB6"/>
  </linearGradient>
  <linearGradient id="oomox" x1="0%" x2="0%" y1="0%" y2="100%">
   <stop offset="0%" style="stop-color:#f27979"/>
   <stop offset="100%" style="stop-color:#9e2121"/>
  </linearGradient>
  <linearGradient id="rainblue" x1="0%" x2="0%" y1="0%" y2="100%">
   <stop offset="0%" style="stop-color:#00F260"/>
   <stop offset="100%" style="stop-color:#0575E6"/>
  </linearGradient>
  <linearGradient id="sunrise" x1="0%" x2="0%" y1="0%" y2="100%">
   <stop offset="0%" style="stop-color:#FF8501"/>
   <stop offset="100%" style="stop-color:#FFCB01"/>
  </linearGradient>
  <linearGradient id="telinkrin" x1="0%" x2="0%" y1="0%" y2="100%">
   <stop offset="0%" style="stop-color:#b2ced6"/>
   <stop offset="100%" style="stop-color:#6da5b7"/>
  </linearGradient>
  <linearGradient id="60spsycho" x1="0%" x2="0%" y1="0%" y2="100%">
   <stop offset="0%" style="stop-color:#df5940"/>
   <stop offset="25%" style="stop-color:#d8d15f"/>
   <stop offset="50%" style="stop-color:#e9882a"/>
   <stop offset="100%" style="stop-color:#279362"/>
  </linearGradient>
  <linearGradient id="90ssummer" x1="0%" x2="0%" y1="0%" y2="100%">
   <stop offset="0%" style="stop-color:#f618c7"/>
   <stop offset="20%" style="stop-color:#94ffab"/>
   <stop offset="50%" style="stop-color:#fbfd54"/>
   <stop offset="100%" style="stop-color:#0f83ae"/>
  </linearGradient>
 </defs>
 <path fill="url(#oomox)" class="ColorScheme-Text" d="M 9 2 L 9 3.65625 L 9 4.1894531 A 6.5 6.5 0 0 0 4.1796875 9 L 6.265625 9 A 4.5 4.5 0 0 1 10.5 6 A 4.5 4.5 0 0 1 14.732422 9 L 16.808594 9 A 6.5 6.5 0 0 0 12 4.1894531 L 12 3 L 12 2 L 9 2 z M 10.5 7 A 3.5 3.5 0 0 0 7 10.5 A 3.5 3.5 0 0 0 7.0410156 11 L 7.4003906 11 L 8.0546875 11 L 12.949219 11 A 2.5 2.5 0 0 1 10.5 13 A 2.5 2.5 0 0 1 8.5019531 12 L 7.3417969 12 A 3.5 3.5 0 0 0 10.5 14 A 3.5 3.5 0 0 0 14 10.5 A 3.5 3.5 0 0 0 13.958984 10 L 13.400391 10 L 12.945312 10 L 8.0507812 10 A 2.5 2.5 0 0 1 10.5 8 A 2.5 2.5 0 0 1 12.498047 9 L 13.658203 9 A 3.5 3.5 0 0 0 10.5 7 z M 4.1835938 12 A 6.5 6.5 0 0 0 9 16.814453 L 9 17 L 9 18 L 9 19 L 12 19 L 12 18 L 12 17 L 12 16.808594 A 6.5 6.5 0 0 0 16.816406 12 L 14.736328 12 A 4.5 4.5 0 0 1 10.5 15 A 4.5 4.5 0 0 1 6.2636719 12 L 4.1835938 12 z"/>
</svg>
