<svg xmlns="http://www.w3.org/2000/svg" width="22" height="22" version="1.1">
 <defs>
  <style id="current-color-scheme" type="text/css">
   .ColorScheme-Text { color: #939597; } .ColorScheme-Highlight { color: #1AD6AB; }
  </style>
  <linearGradient id="arrongin" x1="0%" x2="0%" y1="0%" y2="100%">
   <stop offset="0%" style="stop-color:#dd9b44"/>
   <stop offset="100%" style="stop-color:#ad6c16"/>
  </linearGradient>
  <linearGradient id="aurora" x1="0%" x2="0%" y1="0%" y2="100%">
   <stop offset="0%" style="stop-color:#09D4DF"/>
   <stop offset="100%" style="stop-color:#9269F4"/>
  </linearGradient>
  <linearGradient id="cyberneon" x1="0%" x2="0%" y1="0%" y2="100%">
   <stop offset="0" style="stop-color:#0abdc6"/>
   <stop offset="1" style="stop-color:#ea00d9"/>
  </linearGradient>
  <linearGradient id="fitdance" x1="0%" x2="0%" y1="0%" y2="100%">
   <stop offset="0%" style="stop-color:#1AD6AB"/>
   <stop offset="100%" style="stop-color:#329DB6"/>
  </linearGradient>
  <linearGradient id="oomox" x1="0%" x2="0%" y1="0%" y2="100%">
   <stop offset="0%" style="stop-color:#f27979"/>
   <stop offset="100%" style="stop-color:#9e2121"/>
  </linearGradient>
  <linearGradient id="rainblue" x1="0%" x2="0%" y1="0%" y2="100%">
   <stop offset="0%" style="stop-color:#00F260"/>
   <stop offset="100%" style="stop-color:#0575E6"/>
  </linearGradient>
  <linearGradient id="sunrise" x1="0%" x2="0%" y1="0%" y2="100%">
   <stop offset="0%" style="stop-color:#FF8501"/>
   <stop offset="100%" style="stop-color:#FFCB01"/>
  </linearGradient>
  <linearGradient id="telinkrin" x1="0%" x2="0%" y1="0%" y2="100%">
   <stop offset="0%" style="stop-color:#b2ced6"/>
   <stop offset="100%" style="stop-color:#6da5b7"/>
  </linearGradient>
  <linearGradient id="60spsycho" x1="0%" x2="0%" y1="0%" y2="100%">
   <stop offset="0%" style="stop-color:#df5940"/>
   <stop offset="25%" style="stop-color:#d8d15f"/>
   <stop offset="50%" style="stop-color:#e9882a"/>
   <stop offset="100%" style="stop-color:#279362"/>
  </linearGradient>
  <linearGradient id="90ssummer" x1="0%" x2="0%" y1="0%" y2="100%">
   <stop offset="0%" style="stop-color:#f618c7"/>
   <stop offset="20%" style="stop-color:#94ffab"/>
   <stop offset="50%" style="stop-color:#fbfd54"/>
   <stop offset="100%" style="stop-color:#0f83ae"/>
  </linearGradient>
 </defs>
 <g transform="translate(-424,-422)">
  <path fill="currentColor" fill-rule="evenodd" class="ColorScheme-Text" d="m434.96 425c-0.005-0.00002-0.01-0.002-0.0154-0.002-0.687 0-1.1558 0.1941-1.2235 0.45952-0.0348 0.0546-0.0769 0.1056-0.0957 0.16913l-0.64422 3.1748c0.96505 0.69965 3.066 0.69965 4.0311 0l-0.64421-3.1748c-0.004-0.0136-0.0157-0.0226-0.0205-0.0359 0.00006-0.002 0.003-0.004 0.003-0.005-0.00001-0.0819-0.0559-0.16285-0.14355-0.23745-0.077-0.0825-0.17385-0.14845-0.28365-0.1862-0.2966-0.10208-0.60827-0.16215-0.92617-0.1657zm-2.8058 6.6003-0.65106 2.1986h-1.056c-0.28245 0.00007-0.53724 0.16987-0.64593 0.43049l-1.7498 5.7989c-0.19207 0.46083 0.14656 0.96845 0.64593 0.9686h12.599c0.49936-0.00015 0.83799-0.50777 0.64592-0.9686l-1.7498-5.7989c-0.1087-0.26062-0.36349-0.43042-0.64593-0.43049h-1.056l-0.65105-2.1986c-1.9246 0.76526-3.5418 0.96203-5.6852 0zm6.4371 2.5351 0.57587 1.9492c0.0897 0.30331-0.0346 0.62879-0.30417 0.79435-1.0985 0.67411-2.4982 1.0048-3.8927 1.0181-1.3944 0.0134-2.7952-0.28843-3.8739-1.0404-0.24703-0.17234-0.35537-0.48336-0.26999-0.77214l0.55024-1.8603c0.75371 0.44185 4.1682 1.7558 7.2146-0.0888z"/>
 </g>
</svg>
