<svg xmlns="http://www.w3.org/2000/svg" width="22" height="22" version="1.1">
 <defs>
  <style id="current-color-scheme" type="text/css">
   .ColorScheme-Text { color: #939597; } .ColorScheme-Highlight { color: #1AD6AB; }
  </style>
  <linearGradient id="arrongin" x1="0%" x2="0%" y1="0%" y2="100%">
   <stop offset="0%" style="stop-color:#dd9b44"/>
   <stop offset="100%" style="stop-color:#ad6c16"/>
  </linearGradient>
  <linearGradient id="aurora" x1="0%" x2="0%" y1="0%" y2="100%">
   <stop offset="0%" style="stop-color:#09D4DF"/>
   <stop offset="100%" style="stop-color:#9269F4"/>
  </linearGradient>
  <linearGradient id="cyberneon" x1="0%" x2="0%" y1="0%" y2="100%">
   <stop offset="0" style="stop-color:#0abdc6"/>
   <stop offset="1" style="stop-color:#ea00d9"/>
  </linearGradient>
  <linearGradient id="fitdance" x1="0%" x2="0%" y1="0%" y2="100%">
   <stop offset="0%" style="stop-color:#1AD6AB"/>
   <stop offset="100%" style="stop-color:#329DB6"/>
  </linearGradient>
  <linearGradient id="oomox" x1="0%" x2="0%" y1="0%" y2="100%">
   <stop offset="0%" style="stop-color:#f27979"/>
   <stop offset="100%" style="stop-color:#9e2121"/>
  </linearGradient>
  <linearGradient id="rainblue" x1="0%" x2="0%" y1="0%" y2="100%">
   <stop offset="0%" style="stop-color:#00F260"/>
   <stop offset="100%" style="stop-color:#0575E6"/>
  </linearGradient>
  <linearGradient id="sunrise" x1="0%" x2="0%" y1="0%" y2="100%">
   <stop offset="0%" style="stop-color:#FF8501"/>
   <stop offset="100%" style="stop-color:#FFCB01"/>
  </linearGradient>
  <linearGradient id="telinkrin" x1="0%" x2="0%" y1="0%" y2="100%">
   <stop offset="0%" style="stop-color:#b2ced6"/>
   <stop offset="100%" style="stop-color:#6da5b7"/>
  </linearGradient>
  <linearGradient id="60spsycho" x1="0%" x2="0%" y1="0%" y2="100%">
   <stop offset="0%" style="stop-color:#df5940"/>
   <stop offset="25%" style="stop-color:#d8d15f"/>
   <stop offset="50%" style="stop-color:#e9882a"/>
   <stop offset="100%" style="stop-color:#279362"/>
  </linearGradient>
  <linearGradient id="90ssummer" x1="0%" x2="0%" y1="0%" y2="100%">
   <stop offset="0%" style="stop-color:#f618c7"/>
   <stop offset="20%" style="stop-color:#94ffab"/>
   <stop offset="50%" style="stop-color:#fbfd54"/>
   <stop offset="100%" style="stop-color:#0f83ae"/>
  </linearGradient>
 </defs>
 <g transform="translate(-105.00001,-705.28997)">
  <path fill="url(#oomox)" class="ColorScheme-Text" opacity="0.3" d="M 11,4 C 8.92893,4 7.16529,5.26792 6.40625,7.0625 4.47842,7.3491 3,8.99242 3,11 c 0,2.20914 1.79086,4 4,4 l 1,0 0,-1 c 5.11e-5,-0.265199 0.1054326,-0.519519 0.2929688,-0.707031 L 10,11.585938 10,11 8,11 C 7.4477381,10.999945 7.0000552,10.552262 7,10 L 7,8 C 7.0000552,7.4477381 7.4477381,7.0000552 8,7 l 5,0 c 0.552262,5.52e-5 0.999945,0.4477381 1,1 l 0,2 0,2 c 4.67e-4,0.265876 -0.104954,0.520994 -0.292969,0.708984 L 12,14.416016 12,15 l 1,0 2.5,0 C 17.433,15 19,13.433 19,11.5 19,9.70346 17.64921,8.2313 15.90625,8.03125 15.45168,5.73786 13.42687,4 11,4 Z" transform="translate(105.00001,705.28997)"/>
  <path fill="currentColor" class="ColorScheme-Highlight" d="m 113.00001,713.28997 0,2 3,0 0,2 -2,2 0,2 2,0 0,-2 2,-2 0,-2 0,-2 z m 1,9 0,2 2,0 0,-2 z"/>
 </g>
</svg>
