<svg xmlns="http://www.w3.org/2000/svg" width="22" height="22" version="1.1">
 <defs>
  <style id="current-color-scheme" type="text/css">
   .ColorScheme-Text { color: #939597; } .ColorScheme-Highlight { color: #1AD6AB; }
  </style>
  <linearGradient id="arrongin" x1="0%" x2="0%" y1="0%" y2="100%">
   <stop offset="0%" style="stop-color:#dd9b44"/>
   <stop offset="100%" style="stop-color:#ad6c16"/>
  </linearGradient>
  <linearGradient id="aurora" x1="0%" x2="0%" y1="0%" y2="100%">
   <stop offset="0%" style="stop-color:#09D4DF"/>
   <stop offset="100%" style="stop-color:#9269F4"/>
  </linearGradient>
  <linearGradient id="cyberneon" x1="0%" x2="0%" y1="0%" y2="100%">
   <stop offset="0" style="stop-color:#0abdc6"/>
   <stop offset="1" style="stop-color:#ea00d9"/>
  </linearGradient>
  <linearGradient id="fitdance" x1="0%" x2="0%" y1="0%" y2="100%">
   <stop offset="0%" style="stop-color:#1AD6AB"/>
   <stop offset="100%" style="stop-color:#329DB6"/>
  </linearGradient>
  <linearGradient id="oomox" x1="0%" x2="0%" y1="0%" y2="100%">
   <stop offset="0%" style="stop-color:#f27979"/>
   <stop offset="100%" style="stop-color:#9e2121"/>
  </linearGradient>
  <linearGradient id="rainblue" x1="0%" x2="0%" y1="0%" y2="100%">
   <stop offset="0%" style="stop-color:#00F260"/>
   <stop offset="100%" style="stop-color:#0575E6"/>
  </linearGradient>
  <linearGradient id="sunrise" x1="0%" x2="0%" y1="0%" y2="100%">
   <stop offset="0%" style="stop-color:#FF8501"/>
   <stop offset="100%" style="stop-color:#FFCB01"/>
  </linearGradient>
  <linearGradient id="telinkrin" x1="0%" x2="0%" y1="0%" y2="100%">
   <stop offset="0%" style="stop-color:#b2ced6"/>
   <stop offset="100%" style="stop-color:#6da5b7"/>
  </linearGradient>
  <linearGradient id="60spsycho" x1="0%" x2="0%" y1="0%" y2="100%">
   <stop offset="0%" style="stop-color:#df5940"/>
   <stop offset="25%" style="stop-color:#d8d15f"/>
   <stop offset="50%" style="stop-color:#e9882a"/>
   <stop offset="100%" style="stop-color:#279362"/>
  </linearGradient>
  <linearGradient id="90ssummer" x1="0%" x2="0%" y1="0%" y2="100%">
   <stop offset="0%" style="stop-color:#f618c7"/>
   <stop offset="20%" style="stop-color:#94ffab"/>
   <stop offset="50%" style="stop-color:#fbfd54"/>
   <stop offset="100%" style="stop-color:#0f83ae"/>
  </linearGradient>
 </defs>
 <path fill="url(#oomox)" class="ColorScheme-Text" d="M 10.544922,3.0004874 A 1.9023651,1.8191537 0 0 0 9.5488281,3.2426749 L 3.9511722,6.3344717 a 1.9023651,1.8191537 0 0 0 -0.951172,1.5761718 v 6.1796875 a 1.9023651,1.8191537 0 0 0 0.951172,1.576172 l 5.5976559,3.089843 a 1.9023651,1.8191537 0 0 0 1.9023439,0 l 5.597656,-3.089843 A 1.9023651,1.8191537 0 0 0 18,14.090331 V 7.9106435 A 1.9023651,1.8191537 0 0 0 17.048828,6.3344717 L 11.451172,3.2426749 A 1.9023651,1.8191537 0 0 0 10.544922,3.0004874 Z M 10.5,5.0004873 16,8.0395498 V 13.959471 L 10.5,17.000487 5.0000002,13.959471 V 8.0395498 Z m -1.4804688,3 c -1.115353,0 -2.019531,1.0295723 -2.019531,2.2988277 0,1.979326 3.1111108,3.534505 3.4999998,4.701172 C 10.888889,13.83382 14,12.278641 14,10.299315 14,9.0300596 13.095822,8.0004873 11.980469,8.0004873 11.395527,8.0004873 10.868919,8.3568457 10.5,8.8090811 10.131081,8.3568458 9.6044721,8.0004873 9.0195312,8.0004873 Z"/>
</svg>
