<svg xmlns="http://www.w3.org/2000/svg" width="22" height="22" version="1.1">
 <defs>
  <style id="current-color-scheme" type="text/css">
   .ColorScheme-Text { color: #939597; } .ColorScheme-Highlight { color: #1AD6AB; }
  </style>
  <linearGradient id="arrongin" x1="0%" x2="0%" y1="0%" y2="100%">
   <stop offset="0%" style="stop-color:#dd9b44"/>
   <stop offset="100%" style="stop-color:#ad6c16"/>
  </linearGradient>
  <linearGradient id="aurora" x1="0%" x2="0%" y1="0%" y2="100%">
   <stop offset="0%" style="stop-color:#09D4DF"/>
   <stop offset="100%" style="stop-color:#9269F4"/>
  </linearGradient>
  <linearGradient id="cyberneon" x1="0%" x2="0%" y1="0%" y2="100%">
   <stop offset="0" style="stop-color:#0abdc6"/>
   <stop offset="1" style="stop-color:#ea00d9"/>
  </linearGradient>
  <linearGradient id="fitdance" x1="0%" x2="0%" y1="0%" y2="100%">
   <stop offset="0%" style="stop-color:#1AD6AB"/>
   <stop offset="100%" style="stop-color:#329DB6"/>
  </linearGradient>
  <linearGradient id="oomox" x1="0%" x2="0%" y1="0%" y2="100%">
   <stop offset="0%" style="stop-color:#f27979"/>
   <stop offset="100%" style="stop-color:#9e2121"/>
  </linearGradient>
  <linearGradient id="rainblue" x1="0%" x2="0%" y1="0%" y2="100%">
   <stop offset="0%" style="stop-color:#00F260"/>
   <stop offset="100%" style="stop-color:#0575E6"/>
  </linearGradient>
  <linearGradient id="sunrise" x1="0%" x2="0%" y1="0%" y2="100%">
   <stop offset="0%" style="stop-color:#FF8501"/>
   <stop offset="100%" style="stop-color:#FFCB01"/>
  </linearGradient>
  <linearGradient id="telinkrin" x1="0%" x2="0%" y1="0%" y2="100%">
   <stop offset="0%" style="stop-color:#b2ced6"/>
   <stop offset="100%" style="stop-color:#6da5b7"/>
  </linearGradient>
  <linearGradient id="60spsycho" x1="0%" x2="0%" y1="0%" y2="100%">
   <stop offset="0%" style="stop-color:#df5940"/>
   <stop offset="25%" style="stop-color:#d8d15f"/>
   <stop offset="50%" style="stop-color:#e9882a"/>
   <stop offset="100%" style="stop-color:#279362"/>
  </linearGradient>
  <linearGradient id="90ssummer" x1="0%" x2="0%" y1="0%" y2="100%">
   <stop offset="0%" style="stop-color:#f618c7"/>
   <stop offset="20%" style="stop-color:#94ffab"/>
   <stop offset="50%" style="stop-color:#fbfd54"/>
   <stop offset="100%" style="stop-color:#0f83ae"/>
  </linearGradient>
 </defs>
 <path fill="url(#oomox)" class="ColorScheme-Text" d="M 9.3046875 4 C 9.0739415 4.00494 8.892048 4.0746138 8.828125 4.0742188 C 7.3510379 4.2794534 8.2939926 5.828084 8.9199219 7.7480469 C 8.9733618 8.2395162 7.4575607 8.0342395 7.1210938 7.5195312 C 5.9863088 4.7731512 5.6835865 5.0798629 5.3671875 5 C 5.0641195 4.938194 4.0117703 5.4671249 4.0351562 6.578125 C 4.0391562 6.8972799 4.2411366 8.7011327 4.2441406 9.1679688 C 2.9137676 11.427606 2.3715755 13.664267 4.0390625 15.976562 C 5.233933 17.542265 8.1062961 18.031727 9.9902344 17.998047 C 13.999551 17.999653 15.949 15.820961 18.246094 14.042969 C 20.000601 12.608098 18.201155 10.800926 17.777344 10.548828 C 14.142252 8.1977483 11.086129 8.6873148 11.037109 8.3144531 C 11.011399 7.8834842 11.027454 6.6853945 10.964844 6.2597656 C 10.71812 4.2790946 9.8123235 3.9881432 9.3046875 4 z M 16.900391 4 C 16.155757 4.115666 15.790286 8.3331544 16.123047 8.9707031 C 17.265324 8.2527298 17.04645 5.0680574 16.900391 4 z M 19.837891 4.9785156 C 17.479943 8.0782089 18.038834 7.4988899 17.449219 9.9863281 C 17.674174 10.294128 20.725005 5.3459501 19.837891 4.9785156 z M 11 10 A 1 1 0 0 1 12 11 A 1 1 0 0 1 11 12 A 1 1 0 0 1 10 11 A 1 1 0 0 1 11 10 z"/>
</svg>
