<svg xmlns="http://www.w3.org/2000/svg" width="48" height="48" version="1.1">
 <defs>
  <style id="current-color-scheme" type="text/css">
   .ColorScheme-Text { color: #ececec; } .ColorScheme-Highlight { color: #1AD6AB; }
  </style>
  <linearGradient id="arrongin" x1="0" x2="0" y1="0" y2="1">
   <stop id="stop3" offset="0%" stop-color="#dd9b44"/>
   <stop id="stop5" offset="100%" stop-color="#ad6c16"/>
  </linearGradient>
  <linearGradient id="aurora" x1="0" x2="0" y1="0" y2="1">
   <stop id="stop8" offset="0%" stop-color="#09D4DF"/>
   <stop id="stop10" offset="100%" stop-color="#9269F4"/>
  </linearGradient>
  <linearGradient id="cyberblue" x1="0" x2="0" y1="0" y2="1">
   <stop id="stop13" offset="0%" stop-color="#07B3FF"/>
   <stop id="stop15" offset="100%" stop-color="#007DE8"/>
  </linearGradient>
  <linearGradient id="cyberneon" x1="0" x2="0" y1="0" y2="1">
   <stop id="stop18" offset="0%" stop-color="#0abdc6"/>
   <stop id="stop20" offset="100%" stop-color="#ea00d9"/>
  </linearGradient>
  <linearGradient id="cyberorange" x1="0%" x2="0%" y1="0%" y2="100%">
    <stop offset="0%"   style="stop-color: #FF9757; stop-opacity: 1"/>
    <stop offset="50%"  style="stop-color: #FF6E51; stop-opacity: 1"/>
    <stop offset="100%" style="stop-color: #F5350F; stop-opacity: 1"/>
  </linearGradient>
  <linearGradient id="fitdance" x1="0" x2="0" y1="0" y2="1">
   <stop id="stop23" offset="0%" stop-color="#1AD6AB"/>
   <stop id="stop25" offset="100%" stop-color="#329DB6"/>
  </linearGradient>
  <linearGradient id="lemon" x1="0%" x2="0%" y1="0%" y2="100%">
   <stop offset="0.1" stop-color="#6DDB0A"/>
   <stop offset="0.2" stop-color="#61D915"/>
   <stop offset="0.3" stop-color="#55D620"/>
   <stop offset="0.4" stop-color="#49D42B"/>
   <stop offset="0.5" stop-color="#3CD235"/>
   <stop offset="0.6" stop-color="#30CF40"/>
   <stop offset="0.7" stop-color="#24CD4B"/>
   <stop offset="0.8" stop-color="#18CA56"/>
   <stop offset="0.9" stop-color="#0CC861"/>
   <stop offset="1.0" stop-color="#00C66B"/>
  </linearGradient>
  <linearGradient id="purplecarbon" x1="0%" x2="0%" y1="0%" y2="100%">
   <stop offset="1e-07" stop-color="#EC57FF"/>
   <stop offset="0.5" stop-color="#C551FF"/>
   <stop offset="1" stop-color="#A90FF5"/>
  </linearGradient>
  <linearGradient id="oomox" x1="0" x2="0" y1="0" y2="1">
   <stop id="stop28" offset="0%" stop-color="#efefe7"/>
   <stop id="stop30" offset="100%" stop-color="#8f8f8b"/>
  </linearGradient>
  <linearGradient id="rainblue" x1="0" x2="0" y1="0" y2="1">
   <stop id="stop33" offset="0%" stop-color="#00F260"/>
   <stop id="stop35" offset="100%" stop-color="#0575E6"/>
  </linearGradient>
  <linearGradient id="redcarbon" x1="0" x2="1" y1="0" y2="1">
   <stop id="stop38" offset="0%" stop-color="#FF6D57"/>
   <stop id="stop40" offset="50%" stop-color="#FF5160"/>
   <stop id="stop42" offset="100%" stop-color="#F50F22"/>
  </linearGradient>
  <linearGradient id="sunrise" x1="0" x2="0" y1="0" y2="1">
   <stop id="stop45" offset="0%" stop-color="#FF8501"/>
   <stop id="stop47" offset="100%" stop-color="#FFCB01"/>
  </linearGradient>
  <linearGradient id="telinkrin" x1="0" x2="0" y1="0" y2="1">
   <stop id="stop50" offset="0%" stop-color="#b2ced6"/>
   <stop id="stop52" offset="100%" stop-color="#6da5b7"/>
  </linearGradient>
  <linearGradient id="60spsycho" x1="0" x2="0" y1="0" y2="1">
   <stop id="stop55" offset="0%" stop-color="#df5940"/>
   <stop id="stop57" offset="25%" stop-color="#d8d15f"/>
   <stop id="stop59" offset="50%" stop-color="#e9882a"/>
   <stop id="stop61" offset="100%" stop-color="#279362"/>
  </linearGradient>
  <linearGradient id="90ssummer" x1="0" x2="0" y1="0" y2="1">
   <stop id="stop64" offset="0%" stop-color="#f618c7"/>
   <stop id="stop66" offset="20%" stop-color="#94ffab"/>
   <stop id="stop68" offset="50%" stop-color="#fbfd54"/>
   <stop id="stop70" offset="100%" stop-color="#0f83ae"/>
  </linearGradient>
  <linearGradient id="pause" x1="0" x2="0" y1="0" y2="1" gradientTransform="matrix(4,0,0,12,14,5.734)" gradientUnits="userSpaceOnUse">
   <stop id="stop73" offset="0%" stop-color="#f06"/>
   <stop id="stop75" offset="100%" stop-color="#dc1499"/>
  </linearGradient>
  <linearGradient id="squircle" x1="0" x2="0" y1="0" y2="1" gradientTransform="matrix(24,0,0,22.401,0,0.533)" gradientUnits="userSpaceOnUse">
   <stop id="stop78" offset="0%" stop-color="#4c5561"/>
   <stop id="stop80" offset="100%" stop-color="#2e3842"/>
  </linearGradient>
  <clipPath id="clipPath5078" clipPathUnits="userSpaceOnUse">
   <path fill="#2095f2" d="m160 247c-7.9134 0-15.037 2.8117-20.945 7.1718l20.94 22.82 20.78-22.9c-5.88-4.31-12.93-7.09-20.78-7.09z"/>
  </clipPath>
  <filter style="color-interpolation-filters:sRGB" id="filter5060" width="1.205" height="1.288" x="-.1" y="-.14">
   <feGaussianBlur id="feGaussianBlur892" stdDeviation="1.443"/>
  </filter>
  <clipPath id="clipPath5085" clipPathUnits="userSpaceOnUse">
   <path fill="#2095f2" d="m160 247c-7.9134 0-15.037 2.8117-20.945 7.1718l20.94 22.82 20.78-22.9c-5.88-4.31-12.93-7.09-20.78-7.09z"/>
  </clipPath>
  <filter style="color-interpolation-filters:sRGB" id="filter5064" width="1.274" height="1.385" x="-.14" y="-.19">
   <feGaussianBlur id="feGaussianBlur898" stdDeviation="1.443"/>
  </filter>
 </defs>
 <g transform="translate(33.7367707,12.01628215)">
  <path fill="url(#squircle)" d="m -9.655071997,-7.016282225 c -8.020911813,0 -15.240796423,2.850562443 -21.229500713,7.2706517988 l 21.229500713,23.1294703562 21.065343327,-23.2130690162 c -5.964384667,-4.3705381518 -13.105230547,-7.1870531388 -21.065343327,-7.1870531388 z"/>
  <path fill="#7e8ca0" d="m -9.737150687,-0.9429152862 c -6.389521883,0 -12.319707093,2.0954385102 -17.083006973,5.6345499512 l 17.172685543,18.692661255 16.99332841,-18.692661255 c -4.76208389,-3.538503451 -10.6930291,-5.6340939612 -17.08300698,-5.6340939612 z"/>
  <path fill="url(#oomox)" d="m -9.737150687,5.138051535 c -4.792179413,0 -9.239780333,1.57165488 -12.811723233,4.22583646 l 12.878602163,14.020255925 12.74469232,-14.019191935 c -3.57194292,-2.65433358 -8.01969583,-4.22583647 -12.81172325,-4.22583647 z"/>
  <path fill="#efefef" opacity="0.1" d="m -9.655071997,-7.016282225 c -8.020911813,0 -15.240796423,2.851474429 -21.229500713,7.2706517988 l 0.85498634,0.9321707102 c 5.81846701,-4.072014927 12.72447663,-6.681813217 20.373754383,-6.681813217 7.5895427,0 14.4225935,2.578486791 20.214156937,6.605358437 l 0.85270637,-0.9378250102 c -5.965904647,-4.3708421508 -13.108270497,-7.1885427188 -21.066863307,-7.1885427188 z"/>
  <path fill="#efefef" opacity="0.1" d="m -9.735630717,-0.9416993062 c -6.389521883,0 -12.322139053,2.0955905102 -17.084526943,5.6345499512 l 0.85795029,0.93218591 c 4.61099831,-3.172189311 10.20998081,-5.0467753512 16.227260643,-5.0467753512 6.02001579,0 11.61763033,1.8777779902 16.23030061,5.0527032512 l 0.85270638,-0.93782501 c -4.7620839,-3.538503451 -10.69302911,-5.6343979612 -17.08148701,-5.6343979612 z"/>
  <path fill="#efefef" opacity="0.1" d="m -9.735630717,5.138051535 c -4.792179413,0 -9.240844303,1.57317486 -12.812939213,4.22735644 l 0.85795029,0.932170695 c 3.41690538,-2.289995395 7.53527956,-3.639581825 11.954912933,-3.639581825 4.42252132,0 8.53967952,1.35277838 11.95795289,3.645509735 l 0.85202238,-0.938113805 c -3.57194291,-2.65433358 -8.01787186,-4.22735644 -12.80989928,-4.22735644 z"/>
  <path opacity="0.2" d="m 10.55756496,1.110115904 -20.211116987,22.273724026 -20.375274353,-22.197725246 c -0.28347547,0.19911682 -0.57683078,0.38303388 -0.85574633,0.5882306 l 21.231780673,23.129470356 21.060783407,-23.213069016 c -0.27663558,-0.20246077 -0.56999089,-0.38470585 -0.8511864,-0.58108672 z"/>
  <rect opacity="0.2" width="18" height="14" x="-9.54" y="12.6" rx="1.5" ry="1.5"/>
  <rect fill="url(#lemon)" width="18" height="14" x="-9.54" y="11.6" rx="1.5" ry="1.5"/>
  <path fill="#efefef" d="m -7.455275143,13.74481601 v 4 2 h 2 1 c 0.554,0 1,0.446 1,1 0,0.554 -0.44718,0.9639 -1,1 h -3 v 2 h 3 c 1.662,0 3,-1.338 3,-3 0,-1.662 -1.34152,-3.1082 -3,-3 h -1 v -2 h 3 v -2 h -3 z"/>
  <path fill="#efefef" d="m 3.044724857,13.74481601 c -1.9217,0 -3.5000000005,1.5783 -3.5000000005,3.5 v 3 c 0,1.9217 1.5783000005,3.5 3.5000000005,3.5 1.9217,0 3.5,-1.5783 3.5,-3.5 v -3 c 0,-1.9217 -1.5783,-3.5 -3.5,-3.5 z m 0,2 c 0.8483,0 1.5,0.6517 1.5,1.5 v 3 c 0,0.8483 -0.6517,1.5 -1.5,1.5 -0.8483,0 -1.5,-0.6517 -1.5,-1.5 v -3 c 0,-0.8483 0.6517,-1.5 1.5,-1.5 z"/>
 </g>
</svg>
