<svg xmlns="http://www.w3.org/2000/svg" width="24" height="24" version="1.1">
 <defs>
  <style id="current-color-scheme" type="text/css">
   .ColorScheme-Text { color: #939597; } .ColorScheme-Highlight { color: #1AD6AB; }
  </style>
  <linearGradient id="arrongin" x1="0%" x2="0%" y1="0%" y2="100%">
   <stop offset="0%" style="stop-color:#dd9b44"/>
   <stop offset="100%" style="stop-color:#ad6c16"/>
  </linearGradient>
  <linearGradient id="aurora" x1="0%" x2="0%" y1="0%" y2="100%">
   <stop offset="0%" style="stop-color:#09D4DF"/>
   <stop offset="100%" style="stop-color:#9269F4"/>
  </linearGradient>
  <linearGradient id="cyberneon" x1="0%" x2="0%" y1="0%" y2="100%">
   <stop offset="0" style="stop-color:#0abdc6"/>
   <stop offset="1" style="stop-color:#ea00d9"/>
  </linearGradient>
  <linearGradient id="fitdance" x1="0%" x2="0%" y1="0%" y2="100%">
   <stop offset="0%" style="stop-color:#1AD6AB"/>
   <stop offset="100%" style="stop-color:#329DB6"/>
  </linearGradient>
  <linearGradient id="oomox" x1="0%" x2="0%" y1="0%" y2="100%">
   <stop offset="0%" style="stop-color:#f27979"/>
   <stop offset="100%" style="stop-color:#9e2121"/>
  </linearGradient>
  <linearGradient id="rainblue" x1="0%" x2="0%" y1="0%" y2="100%">
   <stop offset="0%" style="stop-color:#00F260"/>
   <stop offset="100%" style="stop-color:#0575E6"/>
  </linearGradient>
  <linearGradient id="sunrise" x1="0%" x2="0%" y1="0%" y2="100%">
   <stop offset="0%" style="stop-color:#FF8501"/>
   <stop offset="100%" style="stop-color:#FFCB01"/>
  </linearGradient>
  <linearGradient id="telinkrin" x1="0%" x2="0%" y1="0%" y2="100%">
   <stop offset="0%" style="stop-color:#b2ced6"/>
   <stop offset="100%" style="stop-color:#6da5b7"/>
  </linearGradient>
  <linearGradient id="60spsycho" x1="0%" x2="0%" y1="0%" y2="100%">
   <stop offset="0%" style="stop-color:#df5940"/>
   <stop offset="25%" style="stop-color:#d8d15f"/>
   <stop offset="50%" style="stop-color:#e9882a"/>
   <stop offset="100%" style="stop-color:#279362"/>
  </linearGradient>
  <linearGradient id="90ssummer" x1="0%" x2="0%" y1="0%" y2="100%">
   <stop offset="0%" style="stop-color:#f618c7"/>
   <stop offset="20%" style="stop-color:#94ffab"/>
   <stop offset="50%" style="stop-color:#fbfd54"/>
   <stop offset="100%" style="stop-color:#0f83ae"/>
  </linearGradient>
 </defs>
 <g transform="matrix(.046206 0 0 .045375 3.8524 3.9993)">
  <path fill="url(#oomox)" class="ColorScheme-Text" d="m7.9238 0.013672-6.7695 1.9863c-0.0924 0.032-0.1543 0.4741-0.1543 0.5703 0 2.372 0.6393 5.1146 1.7539 7.5237 0.9041 1.954 2.53 4.56 5.1406 5.881 0.0333 0.016 0.0692 0.025 0.1055 0.025s0.0722-0.009 0.1055-0.025c2.6105-1.321 4.2365-3.927 5.1405-5.881 1.115-2.4093 1.754-5.152 1.754-7.5237 0-0.0962-0.062-0.5383-0.154-0.5703l-6.7698-1.9863c-0.049718-0.017242-0.10263-0.017242-0.15234 0zm0.03125 2.9941c0.02841-0.0097 0.059481-0.0097 0.087891 0l3.8691 1.3184c0.053 0.018 0.088 0.065 0.088 0.1191 0 1.3341-0.365 2.8774-1.002 4.2324-0.517 1.0991-1.4458 2.5653-2.9375 3.3083-0.0189 0.01-0.0397 0.014-0.0605 0.014s-0.0416-0.004-0.0605-0.014c-1.4918-0.742-2.4209-2.209-2.9375-3.3083-0.637-1.3549-1.002-2.8981-1.002-4.2324 0-0.0541 0.0351-0.1011 0.0879-0.1191l3.8672-1.3184z" transform="matrix(21.642 0 0 22.04 3.1948 -.0000010886)"/>
 </g>
 <path fill="currentColor" class="ColorScheme-Highlight" d="m11 8.0004v4h2v-4h-2zm0 5v2h2v-2h-2z"/>
</svg>
