<svg xmlns="http://www.w3.org/2000/svg" width="24" height="24" version="1.1">
 <defs>
  <style id="current-color-scheme" type="text/css">
   .ColorScheme-Text { color: #939597; } .ColorScheme-Highlight { color: #1AD6AB; }
  </style>
  <linearGradient id="arrongin" x1="0%" x2="0%" y1="0%" y2="100%">
   <stop offset="0%" style="stop-color:#dd9b44"/>
   <stop offset="100%" style="stop-color:#ad6c16"/>
  </linearGradient>
  <linearGradient id="aurora" x1="0%" x2="0%" y1="0%" y2="100%">
   <stop offset="0%" style="stop-color:#09D4DF"/>
   <stop offset="100%" style="stop-color:#9269F4"/>
  </linearGradient>
  <linearGradient id="cyberneon" x1="0%" x2="0%" y1="0%" y2="100%">
   <stop offset="0" style="stop-color:#0abdc6"/>
   <stop offset="1" style="stop-color:#ea00d9"/>
  </linearGradient>
  <linearGradient id="fitdance" x1="0%" x2="0%" y1="0%" y2="100%">
   <stop offset="0%" style="stop-color:#1AD6AB"/>
   <stop offset="100%" style="stop-color:#329DB6"/>
  </linearGradient>
  <linearGradient id="oomox" x1="0%" x2="0%" y1="0%" y2="100%">
   <stop offset="0%" style="stop-color:#f27979"/>
   <stop offset="100%" style="stop-color:#9e2121"/>
  </linearGradient>
  <linearGradient id="rainblue" x1="0%" x2="0%" y1="0%" y2="100%">
   <stop offset="0%" style="stop-color:#00F260"/>
   <stop offset="100%" style="stop-color:#0575E6"/>
  </linearGradient>
  <linearGradient id="sunrise" x1="0%" x2="0%" y1="0%" y2="100%">
   <stop offset="0%" style="stop-color:#FF8501"/>
   <stop offset="100%" style="stop-color:#FFCB01"/>
  </linearGradient>
  <linearGradient id="telinkrin" x1="0%" x2="0%" y1="0%" y2="100%">
   <stop offset="0%" style="stop-color:#b2ced6"/>
   <stop offset="100%" style="stop-color:#6da5b7"/>
  </linearGradient>
  <linearGradient id="60spsycho" x1="0%" x2="0%" y1="0%" y2="100%">
   <stop offset="0%" style="stop-color:#df5940"/>
   <stop offset="25%" style="stop-color:#d8d15f"/>
   <stop offset="50%" style="stop-color:#e9882a"/>
   <stop offset="100%" style="stop-color:#279362"/>
  </linearGradient>
  <linearGradient id="90ssummer" x1="0%" x2="0%" y1="0%" y2="100%">
   <stop offset="0%" style="stop-color:#f618c7"/>
   <stop offset="20%" style="stop-color:#94ffab"/>
   <stop offset="50%" style="stop-color:#fbfd54"/>
   <stop offset="100%" style="stop-color:#0f83ae"/>
  </linearGradient>
 </defs>
 <path fill="url(#oomox)" class="ColorScheme-Text" d="m7.3532 3.9945a0.25823 0.25823 0 0 0 -0.2539 0.2617v1.5684c-0.6493 0.1087-1.1549 0.6144-1.2637 1.2636h-1.5684a0.25879 0.25879 0 1 0 0 0.51758h1.541v2.582h-1.541a0.25823 0.25823 0 1 0 0 0.51562h1.541v2.582h-1.541a0.25823 0.25823 0 1 0 0 0.51562h1.541v2.582h-1.541a0.25879 0.25879 0 1 0 0 0.51758h1.5684c0.10876 0.64926 0.61441 1.1549 1.2637 1.2637v1.5684a0.25879 0.25879 0 1 0 0.51758 0v-1.541h2.582v1.541a0.25823 0.25823 0 1 0 0.51562 0v-1.541h2.582v1.541a0.25823 0.25823 0 1 0 0.51562 0v-1.541h2.582v1.541a0.25879 0.25879 0 0 0 0.51758 0v-1.5684c0.64926-0.10876 1.1549-0.61441 1.2637-1.2637h1.5684a0.25823 0.25823 0 0 0 0.26172 -0.26172 0.25823 0.25823 0 0 0 -0.26172 -0.25586h-1.541v-2.582h1.541a0.25823 0.25823 0 0 0 0.26172 -0.26172 0.25823 0.25823 0 0 0 -0.26172 -0.25391h-1.541v-2.582h1.541a0.25823 0.25823 0 0 0 0.26172 -0.26172 0.25823 0.25823 0 0 0 -0.26172 -0.25391h-1.541v-2.582h1.541a0.25823 0.25823 0 0 0 0.261 -0.2639 0.25823 0.25823 0 0 0 -0.262 -0.2539h-1.5684c-0.109-0.6492-0.615-1.1549-1.264-1.2636v-1.5684a0.25823 0.25823 0 0 0 -0.264 -0.2617 0.25823 0.25823 0 0 0 -0.254 0.2617v1.541h-2.582v-1.541a0.25823 0.25823 0 0 0 -0.262 -0.2617 0.25823 0.25823 0 0 0 -0.253 0.2617v1.541h-2.582v-1.541a0.25823 0.25823 0 0 0 -0.262 -0.2617 0.25823 0.25823 0 0 0 -0.254 0.2617v1.541h-2.582v-1.541a0.25823 0.25823 0 0 0 -0.2638 -0.2617zm0.15234 9h9c0.277 0 0.5 0.223 0.5 0.5s-0.223 0.5-0.5 0.5h-9c-0.277 0-0.5-0.223-0.5-0.5s0.223-0.5 0.5-0.5zm0 3h9c0.277 0 0.5 0.223 0.5 0.5s-0.223 0.5-0.5 0.5h-9c-0.277 0-0.5-0.223-0.5-0.5s0.223-0.5 0.5-0.5z"/>
</svg>
