<svg xmlns="http://www.w3.org/2000/svg" width="24" height="24" version="1.1">
 <defs>
  <style id="current-color-scheme" type="text/css">
   .ColorScheme-Text { color: #939597; } .ColorScheme-Highlight { color: #1AD6AB; }
  </style>
  <linearGradient id="arrongin" x1="0%" x2="0%" y1="0%" y2="100%">
   <stop offset="0%" style="stop-color:#dd9b44"/>
   <stop offset="100%" style="stop-color:#ad6c16"/>
  </linearGradient>
  <linearGradient id="aurora" x1="0%" x2="0%" y1="0%" y2="100%">
   <stop offset="0%" style="stop-color:#09D4DF"/>
   <stop offset="100%" style="stop-color:#9269F4"/>
  </linearGradient>
  <linearGradient id="cyberneon" x1="0%" x2="0%" y1="0%" y2="100%">
   <stop offset="0" style="stop-color:#0abdc6"/>
   <stop offset="1" style="stop-color:#ea00d9"/>
  </linearGradient>
  <linearGradient id="fitdance" x1="0%" x2="0%" y1="0%" y2="100%">
   <stop offset="0%" style="stop-color:#1AD6AB"/>
   <stop offset="100%" style="stop-color:#329DB6"/>
  </linearGradient>
  <linearGradient id="oomox" x1="0%" x2="0%" y1="0%" y2="100%">
   <stop offset="0%" style="stop-color:#f27979"/>
   <stop offset="100%" style="stop-color:#9e2121"/>
  </linearGradient>
  <linearGradient id="rainblue" x1="0%" x2="0%" y1="0%" y2="100%">
   <stop offset="0%" style="stop-color:#00F260"/>
   <stop offset="100%" style="stop-color:#0575E6"/>
  </linearGradient>
  <linearGradient id="sunrise" x1="0%" x2="0%" y1="0%" y2="100%">
   <stop offset="0%" style="stop-color:#FF8501"/>
   <stop offset="100%" style="stop-color:#FFCB01"/>
  </linearGradient>
  <linearGradient id="telinkrin" x1="0%" x2="0%" y1="0%" y2="100%">
   <stop offset="0%" style="stop-color:#b2ced6"/>
   <stop offset="100%" style="stop-color:#6da5b7"/>
  </linearGradient>
  <linearGradient id="60spsycho" x1="0%" x2="0%" y1="0%" y2="100%">
   <stop offset="0%" style="stop-color:#df5940"/>
   <stop offset="25%" style="stop-color:#d8d15f"/>
   <stop offset="50%" style="stop-color:#e9882a"/>
   <stop offset="100%" style="stop-color:#279362"/>
  </linearGradient>
  <linearGradient id="90ssummer" x1="0%" x2="0%" y1="0%" y2="100%">
   <stop offset="0%" style="stop-color:#f618c7"/>
   <stop offset="20%" style="stop-color:#94ffab"/>
   <stop offset="50%" style="stop-color:#fbfd54"/>
   <stop offset="100%" style="stop-color:#0f83ae"/>
  </linearGradient>
 </defs>
 <path fill="url(#oomox)" class="ColorScheme-Text" opacity="0.3" d="M 12.5,5.0002371 A 6.5,6.5 0 0 0 6.4902344,9.0314871 5,5 0 0 0 2,14.000237 a 5,5 0 0 0 5,5 h 6.423828 A 5,5 0 0 1 13,17.000237 5,5 0 0 1 13.113281,15.953362 4.5,4.5 0 0 1 12.5,16.000237 4.5,4.5 0 0 1 8,11.500237 4.5,4.5 0 0 1 12.5,7.0002371 4.5,4.5 0 0 1 17,11.500237 4.5,4.5 0 0 1 16.951172,12.117425 5,5 0 0 1 18,12.000237 5,5 0 0 1 20.490234,12.670159 3,3 0 0 0 21,11.000237 3,3 0 0 0 18,8.0002371 a 3,3 0 0 0 -0.02344,0 6.5,6.5 0 0 0 -5.476562,-3 z m 0,3 A 3.5,3.5 0 0 0 9,11.500237 a 3.5,3.5 0 0 0 3.5,3.5 3.5,3.5 0 0 0 0.990234,-0.144531 5,5 0 0 1 2.365235,-2.365235 A 3.5,3.5 0 0 0 16,11.500237 3.5,3.5 0 0 0 12.5,8.0002371 Z m -1.5,1 h 1 1.5 a 1.5,1.5 0 0 1 1.5,1.4999999 1.5,1.5 0 0 1 -1.5,1.5 H 12 v 2 h -1 v -2 z m 1,0.9999999 v 1 h 1.5 a 0.5,0.5 0 0 0 0.5,-0.5 0.5,0.5 0 0 0 -0.5,-0.5 z"/>
 <path fill="url(#oomox)" class="ColorScheme-Text" d="M 18.279297,13.008049 C 17.510764,12.953728 16.717412,13.121168 16,13.535393 c -1.9132,1.1046 -2.567391,3.551644 -1.462891,5.464844 1.1045,1.9131 3.549791,2.567491 5.462891,1.462891 1.9132,-1.1046 2.569344,-3.549691 1.464844,-5.462891 -0.690313,-1.195688 -1.904658,-1.901651 -3.185547,-1.992188 z M 16,15.000237 h 1 v 4 h -1 z m 3,0 h 1 v 4 h -1 z"/>
</svg>
