<svg xmlns="http://www.w3.org/2000/svg" width="24" height="24" version="1.1">
 <defs>
  <style id="current-color-scheme" type="text/css">
   .ColorScheme-Text { color: #939597; } .ColorScheme-Highlight { color: #1AD6AB; }
  </style>
  <linearGradient id="arrongin" x1="0%" x2="0%" y1="0%" y2="100%">
   <stop offset="0%" style="stop-color:#dd9b44"/>
   <stop offset="100%" style="stop-color:#ad6c16"/>
  </linearGradient>
  <linearGradient id="aurora" x1="0%" x2="0%" y1="0%" y2="100%">
   <stop offset="0%" style="stop-color:#09D4DF"/>
   <stop offset="100%" style="stop-color:#9269F4"/>
  </linearGradient>
  <linearGradient id="cyberneon" x1="0%" x2="0%" y1="0%" y2="100%">
   <stop offset="0" style="stop-color:#0abdc6"/>
   <stop offset="1" style="stop-color:#ea00d9"/>
  </linearGradient>
  <linearGradient id="fitdance" x1="0%" x2="0%" y1="0%" y2="100%">
   <stop offset="0%" style="stop-color:#1AD6AB"/>
   <stop offset="100%" style="stop-color:#329DB6"/>
  </linearGradient>
  <linearGradient id="oomox" x1="0%" x2="0%" y1="0%" y2="100%">
   <stop offset="0%" style="stop-color:#f27979"/>
   <stop offset="100%" style="stop-color:#9e2121"/>
  </linearGradient>
  <linearGradient id="rainblue" x1="0%" x2="0%" y1="0%" y2="100%">
   <stop offset="0%" style="stop-color:#00F260"/>
   <stop offset="100%" style="stop-color:#0575E6"/>
  </linearGradient>
  <linearGradient id="sunrise" x1="0%" x2="0%" y1="0%" y2="100%">
   <stop offset="0%" style="stop-color:#FF8501"/>
   <stop offset="100%" style="stop-color:#FFCB01"/>
  </linearGradient>
  <linearGradient id="telinkrin" x1="0%" x2="0%" y1="0%" y2="100%">
   <stop offset="0%" style="stop-color:#b2ced6"/>
   <stop offset="100%" style="stop-color:#6da5b7"/>
  </linearGradient>
  <linearGradient id="60spsycho" x1="0%" x2="0%" y1="0%" y2="100%">
   <stop offset="0%" style="stop-color:#df5940"/>
   <stop offset="25%" style="stop-color:#d8d15f"/>
   <stop offset="50%" style="stop-color:#e9882a"/>
   <stop offset="100%" style="stop-color:#279362"/>
  </linearGradient>
  <linearGradient id="90ssummer" x1="0%" x2="0%" y1="0%" y2="100%">
   <stop offset="0%" style="stop-color:#f618c7"/>
   <stop offset="20%" style="stop-color:#94ffab"/>
   <stop offset="50%" style="stop-color:#fbfd54"/>
   <stop offset="100%" style="stop-color:#0f83ae"/>
  </linearGradient>
 </defs>
 <path fill="url(#oomox)" class="ColorScheme-Text" d="m 7.999969,4.0000226 a 2,2 0 0 0 -2,2 2,2 0 0 0 2,2 2,2 0 0 0 2,-2 2,2 0 0 0 -2,-2 z m 2.212891,0 c 0.483,0.53335 0.787109,1.2314 0.787109,2 0,1.6449999 -1.3550001,3 -3.0000001,3 -0.7686,0 -1.4667,-0.3041094 -2,-0.7871094 v 9.7871098 c 0,1.116 0.8843,2 2,2 1.1157001,0 2.0000001,-0.884 2.0000001,-2 v -3 h 0.408203 L 9.6386409,13.84182 9.6308409,13.8301 c -0.2881,-0.448 -0.6300601,-1.048125 -0.63086,-1.828125 v -0.002 c 0,-1.645 1.3550001,-3.0000005 3.0000001,-3.0000005 h 0.002 c 0.963,0.0012 1.868841,0.4663471 2.431641,1.2480475 l 0.01953,0.0293 2.009766,3.015625 c 0.947004,-0.9872 1.537113,-2.320769 1.537113,-3.7929694 0,-3.0376002 -2.5,-5.5000001 -5.5,-5.5000001 z m 1.787109,6.0000004 c -1.1046,0 -2,0.8954 -2,2 5e-4,0.472 0.218956,0.894563 0.472656,1.289063 l 3.845703,5.794921 c 0.374,0.569 1.001641,0.916016 1.681641,0.916016 1.1046,0 2,-0.89543 2,-2 -9.42e-4,-0.41214 -0.129187,-0.813911 -0.367188,-1.150391 l -4.011718,-6.017578 c -0.3753,-0.5217 -0.978394,-0.831231 -1.621094,-0.832031 z"/>
</svg>
