<svg xmlns="http://www.w3.org/2000/svg" width="24" height="24" version="1.1">
 <defs>
  <style id="current-color-scheme" type="text/css">
   .ColorScheme-Text { color: #939597; } .ColorScheme-Highlight { color: #1AD6AB; }
  </style>
  <linearGradient id="arrongin" x1="0%" x2="0%" y1="0%" y2="100%">
   <stop offset="0%" style="stop-color:#dd9b44"/>
   <stop offset="100%" style="stop-color:#ad6c16"/>
  </linearGradient>
  <linearGradient id="aurora" x1="0%" x2="0%" y1="0%" y2="100%">
   <stop offset="0%" style="stop-color:#09D4DF"/>
   <stop offset="100%" style="stop-color:#9269F4"/>
  </linearGradient>
  <linearGradient id="cyberneon" x1="0%" x2="0%" y1="0%" y2="100%">
   <stop offset="0" style="stop-color:#0abdc6"/>
   <stop offset="1" style="stop-color:#ea00d9"/>
  </linearGradient>
  <linearGradient id="fitdance" x1="0%" x2="0%" y1="0%" y2="100%">
   <stop offset="0%" style="stop-color:#1AD6AB"/>
   <stop offset="100%" style="stop-color:#329DB6"/>
  </linearGradient>
  <linearGradient id="oomox" x1="0%" x2="0%" y1="0%" y2="100%">
   <stop offset="0%" style="stop-color:#f27979"/>
   <stop offset="100%" style="stop-color:#9e2121"/>
  </linearGradient>
  <linearGradient id="rainblue" x1="0%" x2="0%" y1="0%" y2="100%">
   <stop offset="0%" style="stop-color:#00F260"/>
   <stop offset="100%" style="stop-color:#0575E6"/>
  </linearGradient>
  <linearGradient id="sunrise" x1="0%" x2="0%" y1="0%" y2="100%">
   <stop offset="0%" style="stop-color:#FF8501"/>
   <stop offset="100%" style="stop-color:#FFCB01"/>
  </linearGradient>
  <linearGradient id="telinkrin" x1="0%" x2="0%" y1="0%" y2="100%">
   <stop offset="0%" style="stop-color:#b2ced6"/>
   <stop offset="100%" style="stop-color:#6da5b7"/>
  </linearGradient>
  <linearGradient id="60spsycho" x1="0%" x2="0%" y1="0%" y2="100%">
   <stop offset="0%" style="stop-color:#df5940"/>
   <stop offset="25%" style="stop-color:#d8d15f"/>
   <stop offset="50%" style="stop-color:#e9882a"/>
   <stop offset="100%" style="stop-color:#279362"/>
  </linearGradient>
  <linearGradient id="90ssummer" x1="0%" x2="0%" y1="0%" y2="100%">
   <stop offset="0%" style="stop-color:#f618c7"/>
   <stop offset="20%" style="stop-color:#94ffab"/>
   <stop offset="50%" style="stop-color:#fbfd54"/>
   <stop offset="100%" style="stop-color:#0f83ae"/>
  </linearGradient>
 </defs>
 <g>
  <path fill="url(#oomox)" class="ColorScheme-Text" d="m20 12a8 8 0 0 0 -8 -8 8 8 0 0 0 -8 8 8 8 0 0 0 8 8 8 8 0 0 0 8 -8zm-2 0a6 6 0 0 1 -2.023 4.486 1.5 1.5 0 0 1 0.023 0.264 1.5 1.5 0 0 1 -1.5 1.5 1.5 1.5 0 0 1 -1.053 -0.434 6 6 0 0 1 -1.447 0.184 6 6 0 0 1 -3.5527 -1.174 1.5 1.5 0 0 1 -0.6973 0.174 1.5 1.5 0 0 1 -1.5 -1.5 1.5 1.5 0 0 1 0.332 -0.939 6 6 0 0 1 -0.582 -2.561 6 6 0 0 1 3.002 -5.1914 1.5 1.5 0 0 1 -0.002 -0.0586 1.5 1.5 0 0 1 1.5 -1.5 1.5 1.5 0 0 1 1.3008 0.75978 6 6 0 0 1 0.19921 -0.0098 6 6 0 0 1 6 6zm-1 0a5 5 0 0 0 -5 -5 5 5 0 0 0 -0.02148 0.0000029 1.5 1.5 0 0 1 -0.76172 1.0645l0.55273 3.4609a1.5 1.5 0 0 1 1.2305 1.4746 1.5 1.5 0 0 1 -0.22656 0.79102l1.2344 1.543a1.5 1.5 0 0 1 0.492 -0.084 1.5 1.5 0 0 1 0.965 0.352 5 5 0 0 0 1.535 -3.602zm-3.773 3.959-1.235-1.543a1.5 1.5 0 0 1 -0.492 0.084 1.5 1.5 0 0 1 -0.898 -0.301l-1.3989 0.934a1.5 1.5 0 0 1 0.0469 0.367 1.5 1.5 0 0 1 -0.1211 0.59 5 5 0 0 0 2.8711 0.91 5 5 0 0 0 1.0078 -0.10742 1.5 1.5 0 0 1 -0.0078 -0.14257 1.5 1.5 0 0 1 0.22656 -0.79102zm-2.444-4.273-0.554-3.4614a1.5 1.5 0 0 1 -0.8481 -0.4785 5 5 0 0 0 -2.3809 4.2539 5 5 0 0 0 0.4395 2.033 1.5 1.5 0 0 1 0.31055 -0.0332 1.5 1.5 0 0 1 0.89844 0.30078l1.3984-0.93359a1.5 1.5 0 0 1 -0.04687 -0.36719 1.5 1.5 0 0 1 0.7832 -1.3145z"/>
 </g>
</svg>
