<svg xmlns="http://www.w3.org/2000/svg" width="24" height="24" version="1.1">
 <defs>
  <style id="current-color-scheme" type="text/css">
   .ColorScheme-Text { color: #939597; } .ColorScheme-Highlight { color: #1AD6AB; }
  </style>
  <linearGradient id="arrongin" x1="0%" x2="0%" y1="0%" y2="100%">
   <stop offset="0%" style="stop-color:#dd9b44"/>
   <stop offset="100%" style="stop-color:#ad6c16"/>
  </linearGradient>
  <linearGradient id="aurora" x1="0%" x2="0%" y1="0%" y2="100%">
   <stop offset="0%" style="stop-color:#09D4DF"/>
   <stop offset="100%" style="stop-color:#9269F4"/>
  </linearGradient>
  <linearGradient id="cyberneon" x1="0%" x2="0%" y1="0%" y2="100%">
   <stop offset="0" style="stop-color:#0abdc6"/>
   <stop offset="1" style="stop-color:#ea00d9"/>
  </linearGradient>
  <linearGradient id="fitdance" x1="0%" x2="0%" y1="0%" y2="100%">
   <stop offset="0%" style="stop-color:#1AD6AB"/>
   <stop offset="100%" style="stop-color:#329DB6"/>
  </linearGradient>
  <linearGradient id="oomox" x1="0%" x2="0%" y1="0%" y2="100%">
   <stop offset="0%" style="stop-color:#f27979"/>
   <stop offset="100%" style="stop-color:#9e2121"/>
  </linearGradient>
  <linearGradient id="rainblue" x1="0%" x2="0%" y1="0%" y2="100%">
   <stop offset="0%" style="stop-color:#00F260"/>
   <stop offset="100%" style="stop-color:#0575E6"/>
  </linearGradient>
  <linearGradient id="sunrise" x1="0%" x2="0%" y1="0%" y2="100%">
   <stop offset="0%" style="stop-color:#FF8501"/>
   <stop offset="100%" style="stop-color:#FFCB01"/>
  </linearGradient>
  <linearGradient id="telinkrin" x1="0%" x2="0%" y1="0%" y2="100%">
   <stop offset="0%" style="stop-color:#b2ced6"/>
   <stop offset="100%" style="stop-color:#6da5b7"/>
  </linearGradient>
  <linearGradient id="60spsycho" x1="0%" x2="0%" y1="0%" y2="100%">
   <stop offset="0%" style="stop-color:#df5940"/>
   <stop offset="25%" style="stop-color:#d8d15f"/>
   <stop offset="50%" style="stop-color:#e9882a"/>
   <stop offset="100%" style="stop-color:#279362"/>
  </linearGradient>
  <linearGradient id="90ssummer" x1="0%" x2="0%" y1="0%" y2="100%">
   <stop offset="0%" style="stop-color:#f618c7"/>
   <stop offset="20%" style="stop-color:#94ffab"/>
   <stop offset="50%" style="stop-color:#fbfd54"/>
   <stop offset="100%" style="stop-color:#0f83ae"/>
  </linearGradient>
 </defs>
 <path fill="url(#oomox)" class="ColorScheme-Text" opacity="0.3" d="M 12,4 C 7.581722,4 4,7.581722 4,12 L 5.5,14 7,12 C 7,9.2385763 9.2385763,7 12,7 L 10,5.5 Z"/>
 <path fill="url(#oomox)" class="ColorScheme-Text" d="M 12,4 10,5.5 12,7 a 5,5 0 0 1 5,5 l 1.5,-2 1.5,2 A 8,8 0 0 0 12,4 Z m -8,8 a 8,8 0 0 0 8,8 L 14,18.5 12,17 A 5,5 0 0 1 7,12 l -1.5,2 z"/>
 <path fill="url(#oomox)" class="ColorScheme-Text" d="m 17.766196,12.00526 c -0.265312,0.01593 -0.534044,0.05939 -0.800781,0.13086 -2.1339,0.5718 -3.399825,2.764537 -2.828125,4.898437 0.57174,2.1338 2.764537,3.399925 4.898437,2.828125 2.1339,-0.5718 3.399825,-2.764537 2.828125,-4.898437 -0.500272,-1.867075 -2.24047,-3.070476 -4.097656,-2.958985 z m 1.710937,1.988282 a 0.50005,0.50005 0 0 1 0.470704,0.728515 l -1.5,3 a 0.50005,0.50005 0 0 1 -0.72461,0.19336 l -1.5,-1 a 0.50005,0.50005 0 1 1 0.554688,-0.832032 l 1.029297,0.685547 1.246093,-2.492187 a 0.50005,0.50005 0 0 1 0.423828,-0.283203 z"/>
</svg>
