<svg xmlns="http://www.w3.org/2000/svg" width="24" height="24" version="1.1">
 <defs>
  <style id="current-color-scheme" type="text/css">
   .ColorScheme-Text { color: #939597; } .ColorScheme-Highlight { color: #1AD6AB; }
  </style>
  <linearGradient id="arrongin" x1="0%" x2="0%" y1="0%" y2="100%">
   <stop offset="0%" style="stop-color:#dd9b44"/>
   <stop offset="100%" style="stop-color:#ad6c16"/>
  </linearGradient>
  <linearGradient id="aurora" x1="0%" x2="0%" y1="0%" y2="100%">
   <stop offset="0%" style="stop-color:#09D4DF"/>
   <stop offset="100%" style="stop-color:#9269F4"/>
  </linearGradient>
  <linearGradient id="cyberneon" x1="0%" x2="0%" y1="0%" y2="100%">
   <stop offset="0" style="stop-color:#0abdc6"/>
   <stop offset="1" style="stop-color:#ea00d9"/>
  </linearGradient>
  <linearGradient id="fitdance" x1="0%" x2="0%" y1="0%" y2="100%">
   <stop offset="0%" style="stop-color:#1AD6AB"/>
   <stop offset="100%" style="stop-color:#329DB6"/>
  </linearGradient>
  <linearGradient id="oomox" x1="0%" x2="0%" y1="0%" y2="100%">
   <stop offset="0%" style="stop-color:#f27979"/>
   <stop offset="100%" style="stop-color:#9e2121"/>
  </linearGradient>
  <linearGradient id="rainblue" x1="0%" x2="0%" y1="0%" y2="100%">
   <stop offset="0%" style="stop-color:#00F260"/>
   <stop offset="100%" style="stop-color:#0575E6"/>
  </linearGradient>
  <linearGradient id="sunrise" x1="0%" x2="0%" y1="0%" y2="100%">
   <stop offset="0%" style="stop-color:#FF8501"/>
   <stop offset="100%" style="stop-color:#FFCB01"/>
  </linearGradient>
  <linearGradient id="telinkrin" x1="0%" x2="0%" y1="0%" y2="100%">
   <stop offset="0%" style="stop-color:#b2ced6"/>
   <stop offset="100%" style="stop-color:#6da5b7"/>
  </linearGradient>
  <linearGradient id="60spsycho" x1="0%" x2="0%" y1="0%" y2="100%">
   <stop offset="0%" style="stop-color:#df5940"/>
   <stop offset="25%" style="stop-color:#d8d15f"/>
   <stop offset="50%" style="stop-color:#e9882a"/>
   <stop offset="100%" style="stop-color:#279362"/>
  </linearGradient>
  <linearGradient id="90ssummer" x1="0%" x2="0%" y1="0%" y2="100%">
   <stop offset="0%" style="stop-color:#f618c7"/>
   <stop offset="20%" style="stop-color:#94ffab"/>
   <stop offset="50%" style="stop-color:#fbfd54"/>
   <stop offset="100%" style="stop-color:#0f83ae"/>
  </linearGradient>
 </defs>
 <path fill="url(#oomox)" class="ColorScheme-Text" d="m 11,4 a 7,6.5 0 0 0 -7,6.5 7,6.5 0 0 0 2,4.546875 L 6,18 7.3203125,16.019531 a 7,6.5 0 0 0 2.2617187,0.833985 C 9.2131044,16.143061 9,15.348082 9,14.5 9,12.060117 10.723042,10.045383 13.048829,9.306641 A 1,1 0 0 1 12.999999,9 a 1,1 0 0 1 1,-1 1,1 0 0 1 1,1 c 1.061383,0 2.066598,0.261952 2.943359,0.716797 A 7,6.5 0 0 0 10.999999,4 Z M 8,8 A 1,1 0 0 1 9,9 1,1 0 0 1 8,10 1,1 0 0 1 7,9 1,1 0 0 1 8,8 Z m 7,2 A 5,4.5 0 0 0 9.9999996,14.5 5,4.5 0 0 0 15,19 5,4.5 0 0 0 17.810547,18.216797 L 19,20 19,17.191406 A 5,4.5 0 0 0 20,14.5 5,4.5 0 0 0 15,10 Z m -2,2 a 1,1 0 0 1 1,1 1,1 0 0 1 -1,1 1,1 0 0 1 -1,-1 1,1 0 0 1 1,-1 z m 4,0 a 1,1 0 0 1 1,1 1,1 0 0 1 -1,1 1,1 0 0 1 -1,-1 1,1 0 0 1 1,-1 z"/>
</svg>
