<?xml version="1.0" encoding="UTF-8" standalone="no"?>
<svg
   xmlns:dc="http://purl.org/dc/elements/1.1/"
   xmlns:cc="http://creativecommons.org/ns#"
   xmlns:rdf="http://www.w3.org/1999/02/22-rdf-syntax-ns#"
   xmlns:svg="http://www.w3.org/2000/svg"
   xmlns="http://www.w3.org/2000/svg"
   xmlns:sodipodi="http://sodipodi.sourceforge.net/DTD/sodipodi-0.dtd"
   xmlns:inkscape="http://www.inkscape.org/namespaces/inkscape"
   viewBox="0 0 512 512"
   id="svg2"
   version="1.1"
   inkscape:version="0.91 r"
   sodipodi:docname="application-script-blank.svg">
  <metadata
     id="metadata28">
    <rdf:RDF>
      <cc:Work
         rdf:about="">
        <dc:format>image/svg+xml</dc:format>
        <dc:type
           rdf:resource="http://purl.org/dc/dcmitype/StillImage" />
      </cc:Work>
    </rdf:RDF>
  </metadata>
  <defs
     id="defs26" />
  <sodipodi:namedview
     pagecolor="#ffffff"
     bordercolor="#666666"
     borderopacity="1"
     objecttolerance="10"
     gridtolerance="10"
     guidetolerance="10"
     inkscape:pageopacity="0"
     inkscape:pageshadow="2"
     inkscape:window-width="1680"
     inkscape:window-height="998"
     id="namedview24"
     showgrid="false"
     inkscape:zoom="0.4609375"
     inkscape:cx="256"
     inkscape:cy="256"
     inkscape:window-x="0"
     inkscape:window-y="0"
     inkscape:window-maximized="1"
     inkscape:current-layer="svg2" />
  <path
     d="m 98.24527,10.5 c -3.881,0 -7,3.119 -7,7 l 0,477 c 0,3.881 3.119,7 7,7 l 363.25,0 c 3.881,0 7,-3.119 7,-7 l 0,-344.7207 -139.25,-139.2793 -231,0 z m 133.05859,199.90625 c 2.173,0 7.08125,0.0145 11.15625,0.31445 l 0,23.96875 c -19.289,1.798 -21.4375,5.0935 -21.4375,30.5625 l 0,36.84375 c 0,23.372 -6.26675,33.26225 -24.46875,38.65625 17.931,4.789 24.46875,14.99714 24.46875,38.36914 l 0,36.84571 c 0,25.47 2.1485,28.7645 21.4375,30.5625 l 0,23.96875 c -4.075,0.301 -8.98325,0.3125 -11.15625,0.3125 -27.44,0 -38.8125,-12.29125 -38.8125,-41.65625 l 0,-47.0586 c 0,-17.979 -6.81529,-27.24675 -22.02929,-29.34375 l 0,-24.28125 c 15.213,-2.094 22.02929,-11.36575 22.02929,-29.34375 l 0,-47.06054 c 0,-29.364 11.3735,-41.65625 38.8125,-41.65625 l 0,-0.004 z m 97.08985,0 0,0.0137 c 27.439,0 38.84375,12.29125 38.84375,41.65625 l 0,47.06055 c 0,17.979 6.81725,27.24675 22.03125,29.34375 l 0,24.28125 c -15.213,2.094 -22.03125,11.36575 -22.03125,29.34375 l 0,47.05859 c 0,29.364 -11.40475,41.65625 -38.84375,41.65625 -2.173,0 -7.05,-0.0125 -11.125,-0.3125 l 0,-23.96875 c 19.289,-1.798 21.43945,-5.0935 21.43945,-30.5625 l 0,-36.84375 c 0,-23.372 6.26675,-33.26225 24.46875,-38.65625 -17.931,-4.799 -24.46875,-15.00886 -24.46875,-38.38086 l 0,-36.84375 c 0,-25.47 -2.15045,-28.7645 -21.43945,-30.5625 l 0,-23.96875 c 4.075,-0.301 8.952,-0.31445 11.125,-0.31445 z"
     id="path12"
     inkscape:connector-curvature="0"
     style="fill:#009688;fill-opacity:1" />
</svg>
