<?xml version="1.0" encoding="UTF-8" standalone="no"?>
<svg
   xmlns:dc="http://purl.org/dc/elements/1.1/"
   xmlns:cc="http://creativecommons.org/ns#"
   xmlns:rdf="http://www.w3.org/1999/02/22-rdf-syntax-ns#"
   xmlns:svg="http://www.w3.org/2000/svg"
   xmlns="http://www.w3.org/2000/svg"
   xmlns:sodipodi="http://sodipodi.sourceforge.net/DTD/sodipodi-0.dtd"
   xmlns:inkscape="http://www.inkscape.org/namespaces/inkscape"
   viewBox="0 0 512 512"
   id="svg2"
   version="1.1"
   inkscape:version="0.91 r"
   sodipodi:docname="application-pgp.svg">
  <metadata
     id="metadata29">
    <rdf:RDF>
      <cc:Work
         rdf:about="">
        <dc:format>image/svg+xml</dc:format>
        <dc:type
           rdf:resource="http://purl.org/dc/dcmitype/StillImage" />
      </cc:Work>
    </rdf:RDF>
  </metadata>
  <defs
     id="defs27" />
  <sodipodi:namedview
     pagecolor="#ffffff"
     bordercolor="#666666"
     borderopacity="1"
     objecttolerance="10"
     gridtolerance="10"
     guidetolerance="10"
     inkscape:pageopacity="0"
     inkscape:pageshadow="2"
     inkscape:window-width="1680"
     inkscape:window-height="998"
     id="namedview25"
     showgrid="false"
     inkscape:zoom="0.4609375"
     inkscape:cx="256"
     inkscape:cy="256"
     inkscape:window-x="0"
     inkscape:window-y="0"
     inkscape:window-maximized="1"
     inkscape:current-layer="svg2" />
  <path
     d="m 56.90519,10.500005 c -4.578,0 -8.25,3.119 -8.25,7 l 0,476.999995 c 0,3.881 3.672,7 8.25,7 l 428.56055,0 c 4.578,0 8.25,-3.119 8.25,-7 l 0,-348.06055 -135.97071,-135.939445 -300.83984,0 z m 212.90039,123.759765 -0.002,0.008 c 53.642,0 86.95117,36.74508 86.95117,68.95508 l 0,80.13086 32.32031,0 0,174.16992 -235.76953,0 0,-174.16992 31.37109,0 0,-77.97266 c 0,-42.86 42.82891,-71.12109 85.12891,-71.12109 z m -0.60742,39.06835 0.002,0.002 c -19.598,0.1 -45.76953,14.03054 -45.76953,40.31054 l 0,69.67969 -0.0371,0.0371 93.39063,0 0,-70.01953 c 0,-24.23 -24.80794,-40.12876 -47.58594,-40.00977 z m 1.05664,148.2168 c -13.033,0 -23.60352,10.57352 -23.60352,23.60352 0,7.93 3.93074,14.92998 9.92774,19.20898 l -9.2832,52.25 46.33984,0 -9.35742,-52.50976 c 5.798,-4.3 9.58593,-11.17036 9.58593,-18.94336 0,-13.033 -10.57351,-23.60352 -23.60351,-23.60352 l -0.006,-0.006 z"
     id="path12"
     style="fill:#009688;fill-opacity:1"
     inkscape:connector-curvature="0" />
</svg>
