<?xml version="1.0" encoding="UTF-8" standalone="no"?>
<svg
   xmlns:dc="http://purl.org/dc/elements/1.1/"
   xmlns:cc="http://creativecommons.org/ns#"
   xmlns:rdf="http://www.w3.org/1999/02/22-rdf-syntax-ns#"
   xmlns:svg="http://www.w3.org/2000/svg"
   xmlns="http://www.w3.org/2000/svg"
   xmlns:sodipodi="http://sodipodi.sourceforge.net/DTD/sodipodi-0.dtd"
   xmlns:inkscape="http://www.inkscape.org/namespaces/inkscape"
   viewBox="0 0 512 512"
   id="svg2"
   version="1.1"
   inkscape:version="0.91 r"
   sodipodi:docname="image-x-psd.svg">
  <metadata
     id="metadata28">
    <rdf:RDF>
      <cc:Work
         rdf:about="">
        <dc:format>image/svg+xml</dc:format>
        <dc:type
           rdf:resource="http://purl.org/dc/dcmitype/StillImage" />
      </cc:Work>
    </rdf:RDF>
  </metadata>
  <defs
     id="defs26" />
  <sodipodi:namedview
     pagecolor="#ffffff"
     bordercolor="#666666"
     borderopacity="1"
     objecttolerance="10"
     gridtolerance="10"
     guidetolerance="10"
     inkscape:pageopacity="0"
     inkscape:pageshadow="2"
     inkscape:window-width="1920"
     inkscape:window-height="1028"
     id="namedview24"
     showgrid="false"
     inkscape:zoom="0.4609375"
     inkscape:cx="256"
     inkscape:cy="256"
     inkscape:window-x="0"
     inkscape:window-y="0"
     inkscape:window-maximized="1"
     inkscape:current-layer="svg2" />
  <path
     d="m 52.572063,10.500004 c -4.57341,0.004 -8.24804,3.12179 -8.24804,7 l 0,476.999996 c 0,3.881 3.67981,7 8.25781,7 l 428.529287,0 c 4.578,0 8.25781,-3.119 8.25781,-7 l 0,-476.999996 c 0,-3.881 -3.67981,-7 -8.25781,-7 l -428.529287,0 -0.01,0 z M 320.24199,176.15234 c 14.397,0 27.7721,6.064 36.12109,16.5 6.262,7.723 8.96776,15.65575 9.59376,27.34375 l -29.625,0 c -0.835,-10.436 -6.68026,-16.28125 -16.28126,-16.28125 -9.392,0 -15.875,6.47225 -15.875,15.65625 10e-6,5.636 2.92751,10.42075 8.5625,13.96875 2.08,1.252 2.5111,1.47925 17.1211,6.90625 15.03,5.636 20.00859,8.33375 26.05859,13.96875 8.975,8.353 13.78125,19.42816 13.78125,32.16016 0,27.97 -21.49,49.4707 -49.25,49.4707 -16.281,0 -31.5035,-6.88425 -40.6875,-18.78125 -6.26,-8.14 -8.98529,-15.85875 -10.02929,-27.96875 l 29.84375,0 c 1.252,12.943 8.143,19.18946 20.875,19.18946 12.315,0 20.875,-7.72125 20.875,-18.78125 0,-6.47 -2.50175,-11.89925 -7.09375,-15.65625 -4.801,-3.548 -6.05771,-4.18325 -26.72071,-11.90625 -20.667,-7.728 -32.1582,-22.5265 -32.1582,-41.9375 0,-24.421 20.037,-43.84375 44.875,-43.84375 l 0.0137,-0.008 z m -156.21876,2.71875 0,0.006 38.18751,0 c 20.455,0 30.6715,1.87575 39.4375,7.09375 13.358,8.14 20.875,22.759 20.875,40.5 0,17.736 -7.727,33.39614 -20.25,41.11914 -8.558,5.218 -18.55275,6.875 -40.46875,6.875 l -9.1875,0 0,58.65625 -28.59376,0 0,-154.24414 -0.002,0 0.002,-0.006 z m 28.59181,27.34961 0.004,0.002 0,40.90625 8.34375,0 c 11.062,0 18.992,-1.23525 23.375,-3.53125 6.053,-3.34 9.40625,-9.20475 9.40625,-16.71875 0,-9.604 -5.026,-16.89346 -13.375,-19.18946 -4.596,-1.044 -8.76815,-1.46875 -18.16015,-1.46875 l -9.59375,0 z"
     id="path12"
     style="fill:#009688;fill-opacity:1"
     inkscape:connector-curvature="0" />
</svg>
