<?xml version="1.0" encoding="UTF-8" standalone="no"?>
<svg
   xmlns:dc="http://purl.org/dc/elements/1.1/"
   xmlns:cc="http://creativecommons.org/ns#"
   xmlns:rdf="http://www.w3.org/1999/02/22-rdf-syntax-ns#"
   xmlns:svg="http://www.w3.org/2000/svg"
   xmlns="http://www.w3.org/2000/svg"
   xmlns:sodipodi="http://sodipodi.sourceforge.net/DTD/sodipodi-0.dtd"
   xmlns:inkscape="http://www.inkscape.org/namespaces/inkscape"
   viewBox="0 0 512 512"
   id="svg2"
   version="1.1"
   inkscape:version="0.91 r"
   sodipodi:docname="text-richtext.svg">
  <metadata
     id="metadata26">
    <rdf:RDF>
      <cc:Work
         rdf:about="">
        <dc:format>image/svg+xml</dc:format>
        <dc:type
           rdf:resource="http://purl.org/dc/dcmitype/StillImage" />
      </cc:Work>
    </rdf:RDF>
  </metadata>
  <defs
     id="defs24" />
  <sodipodi:namedview
     pagecolor="#ffffff"
     bordercolor="#666666"
     borderopacity="1"
     objecttolerance="10"
     gridtolerance="10"
     guidetolerance="10"
     inkscape:pageopacity="0"
     inkscape:pageshadow="2"
     inkscape:window-width="1680"
     inkscape:window-height="998"
     id="namedview22"
     showgrid="false"
     inkscape:zoom="0.4609375"
     inkscape:cx="256"
     inkscape:cy="256"
     inkscape:window-x="0"
     inkscape:window-y="0"
     inkscape:window-maximized="1"
     inkscape:current-layer="svg2" />
  <path
     style="fill:#009688;fill-opacity:1"
     d="M 85.216797 14.839844 C 81.335797 14.839844 78.216797 17.958844 78.216797 21.839844 L 78.216797 498.83984 C 78.216797 502.72084 81.335797 505.83984 85.216797 505.83984 L 448.4668 505.83984 C 452.3478 505.83984 455.4668 502.72084 455.4668 498.83984 L 455.4668 154.11914 L 316.2168 14.839844 L 85.216797 14.839844 z M 239.13086 140.56055 L 239.13477 140.5625 L 257.75977 140.5625 L 257.75977 162.65234 C 257.75977 165.45934 257.49777 169.96834 257.00977 176.15234 L 257.75977 176.15234 C 262.11277 169.39934 268.55952 165.99609 277.10352 165.99609 C 285.15852 165.99609 291.45277 169.15884 296.00977 175.46484 C 300.56677 181.73084 302.85352 190.33334 302.85352 201.27734 C 302.85352 212.54934 300.47877 221.28475 295.75977 227.46875 C 291.07777 233.65275 284.69561 236.74805 276.59961 236.74805 C 268.58461 236.74805 262.31286 233.81605 257.75586 227.99805 L 256.47461 227.99805 L 253.34961 235.5293 L 239.13086 235.5293 L 239.13086 140.56055 z M 174.69336 145.9375 L 174.69922 145.9375 L 197.81836 145.9375 L 229.44336 235.52734 L 209.03711 235.52734 L 202.56836 214.27734 L 170.03711 214.27734 L 163.56836 235.52734 L 143.19336 235.52734 L 174.69336 145.9375 z M 186.35547 159.78125 C 185.01347 164.98925 181.17122 177.86125 174.82422 198.40625 L 198.07422 198.40625 C 192.09322 179.16325 188.72222 168.30325 187.94922 165.78125 C 187.21622 163.25925 186.68047 161.24625 186.35547 159.78125 z M 347.57422 166 L 347.57617 166 C 355.46917 166 362.56117 167.56425 368.82617 170.65625 L 363.32617 185.0625 C 360.39617 183.8825 357.66067 182.9195 355.13867 182.1875 C 352.61567 181.4145 350.09622 181.03125 347.57422 181.03125 C 337.89122 181.03125 333.04492 187.90525 333.04492 201.65625 C 333.04492 215.00025 337.89122 221.65625 347.57422 221.65625 C 351.15422 221.65625 354.49392 221.186 357.54492 220.25 C 360.59592 219.274 363.61892 217.784 366.66992 215.75 L 366.66992 231.6875 C 363.65892 233.5995 360.63692 234.92425 357.54492 235.65625 C 354.49392 236.38925 350.59892 236.75195 345.91992 236.75195 C 324.68292 236.75195 314.07422 225.09325 314.07422 201.78125 C 314.07422 190.18625 316.95347 181.32175 322.73047 175.21875 C 328.50447 169.07575 336.79322 166 347.57422 166 z M 271.10742 180.9043 C 266.51242 180.9043 263.16287 182.33755 261.04688 185.18555 C 258.93187 187.99355 257.84663 192.6453 257.76562 199.1543 L 257.76562 201.1543 C 257.76563 208.4773 258.82837 213.7313 260.98438 216.9043 C 263.18138 220.0773 266.64038 221.6543 271.35938 221.6543 C 275.18038 221.6543 278.21122 219.9033 280.44922 216.4043 C 282.72722 212.8653 283.85547 207.7423 283.85547 201.0293 C 283.85547 194.3193 282.72722 189.30475 280.44922 185.96875 C 278.17522 182.59175 275.05147 180.90625 271.10547 180.90625 L 271.10742 180.9043 z M 106.01758 271.7832 L 406.01758 271.7832 L 406.01758 297.94336 L 106.01758 297.94336 L 106.01758 271.7832 z M 106.01758 327.2832 L 406.01758 327.2832 L 406.01758 353.47461 L 106.01758 353.47461 L 106.01758 327.2832 z M 106.01758 382.81445 L 406.01758 382.81445 L 406.01758 408.97461 L 106.01758 408.97461 L 106.01758 382.81445 z M 106.01758 438.31445 L 319.23633 438.31445 L 319.23633 464.47461 L 106.01758 464.47461 L 106.01758 438.31445 z "
     id="path12" />
</svg>
