<?xml version="1.0" encoding="UTF-8" standalone="no"?>
<svg
   xmlns:dc="http://purl.org/dc/elements/1.1/"
   xmlns:cc="http://creativecommons.org/ns#"
   xmlns:rdf="http://www.w3.org/1999/02/22-rdf-syntax-ns#"
   xmlns:svg="http://www.w3.org/2000/svg"
   xmlns="http://www.w3.org/2000/svg"
   xmlns:sodipodi="http://sodipodi.sourceforge.net/DTD/sodipodi-0.dtd"
   xmlns:inkscape="http://www.inkscape.org/namespaces/inkscape"
   viewBox="0 0 512 512"
   id="svg2"
   version="1.1"
   inkscape:version="0.91 r"
   sodipodi:docname="AdobeWidgetBrowser.svg">
  <metadata
     id="metadata86">
    <rdf:RDF>
      <cc:Work
         rdf:about="">
        <dc:format>image/svg+xml</dc:format>
        <dc:type
           rdf:resource="http://purl.org/dc/dcmitype/StillImage" />
      </cc:Work>
    </rdf:RDF>
  </metadata>
  <defs
     id="defs84" />
  <sodipodi:namedview
     pagecolor="#ffffff"
     bordercolor="#666666"
     borderopacity="1"
     objecttolerance="10"
     gridtolerance="10"
     guidetolerance="10"
     inkscape:pageopacity="0"
     inkscape:pageshadow="2"
     inkscape:window-width="1920"
     inkscape:window-height="1028"
     id="namedview82"
     showgrid="false"
     inkscape:zoom="0.4609375"
     inkscape:cx="-299.38983"
     inkscape:cy="256"
     inkscape:window-x="0"
     inkscape:window-y="0"
     inkscape:window-maximized="1"
     inkscape:current-layer="svg2" />
  <g
     fill="#654641"
     id="g4">
    <text
       transform="scale(1.05082.95163)"
       font-size="84.77"
       y="221.3"
       x="681.22"
       font-family="Gentium Book Basic"
       line-height="125%"
       word-spacing="0"
       letter-spacing="0"
       id="text6">
      <tspan
         y="221.3"
         x="681.22"
         id="tspan8" />
    </text>
    <text
       transform="scale(4.21679.23715)"
       font-size="30.8"
       y="659.01"
       x="299.04"
       font-family="Arial"
       text-anchor="middle"
       id="text10" />
    <text
       transform="scale(1.05082.95163)"
       font-size="45.38"
       y="197.8"
       x="949.03"
       font-family="Gentium Book Basic"
       line-height="125%"
       word-spacing="0"
       letter-spacing="0"
       id="text12">
      <tspan
         y="197.8"
         x="949.03"
         id="tspan14" />
    </text>
    <text
       transform="scale(4.21679.23715)"
       font-size="16.488"
       y="671.14"
       x="305.7"
       font-family="Arial"
       text-anchor="middle"
       id="text16" />
    <text
       font-size="132.57"
       y="290.09"
       x="-25.07"
       font-family="Gentium Book Basic"
       line-height="125%"
       word-spacing="0"
       letter-spacing="0"
       id="text18">
      <tspan
         y="290.09"
         x="-25.07"
         id="tspan20" />
    </text>
    <text
       transform="scale(4.0128.2492)"
       font-size="48.17"
       y="805.88"
       x="195.94"
       font-family="Arial"
       text-anchor="middle"
       id="text22" />
  </g>
  <g
     fill="#654641"
     id="g46">
    <text
       transform="scale(1.05082.95163)"
       font-size="84.77"
       y="185.78"
       x="119.84"
       font-family="Gentium Book Basic"
       line-height="125%"
       word-spacing="0"
       letter-spacing="0"
       id="text48">
      <tspan
         y="185.78"
         x="119.84"
         id="tspan50" />
    </text>
    <text
       transform="scale(4.21679.23715)"
       font-size="30.8"
       y="516.46"
       x="159.14"
       font-family="Arial"
       text-anchor="middle"
       id="text52" />
    <text
       transform="scale(1.05082.95163)"
       font-size="45.38"
       y="162.28"
       x="387.65"
       font-family="Gentium Book Basic"
       line-height="125%"
       word-spacing="0"
       letter-spacing="0"
       id="text54">
      <tspan
         y="162.28"
         x="387.65"
         id="tspan56" />
    </text>
    <text
       transform="scale(4.21679.23715)"
       font-size="16.488"
       y="528.59"
       x="165.81"
       font-family="Arial"
       text-anchor="middle"
       id="text58" />
    <text
       font-size="132.57"
       y="256.28"
       x="-614.98"
       font-family="Gentium Book Basic"
       line-height="125%"
       word-spacing="0"
       letter-spacing="0"
       id="text60">
      <tspan
         y="256.28"
         x="-614.98"
         id="tspan62" />
    </text>
    <text
       transform="scale(4.0128.2492)"
       font-size="48.17"
       y="670.22"
       x="48.929"
       font-family="Arial"
       text-anchor="middle"
       id="text64" />
  </g>
  <path
     d="m245.69 88c-23.651 0-42.824 13.273-42.824 29.647 0.688 6.109 4.55 13.822 6.588 16.471 9.882 13.176 9.882 21.412 7.412 26.353h-79.882c-14.6 0-26.353 11.753-26.353 26.353v66.71c4.941 2.471 13.176 2.471 26.353-7.412 2.648-2.038 10.362-5.9 16.471-6.588 16.374 0 29.647 19.17 29.647 42.824 0 23.651-13.273 42.824-29.647 42.824-5.03-0.085-12.665-4.58-16.471-6.588-13.176-9.882-21.412-9.882-26.353-7.412v86.47c0 14.6 11.753 26.353 26.353 26.353h106.24c2.471-4.941 2.471-13.176-7.412-26.353-2.038-2.648-5.9-10.362-6.588-16.471 0-16.374 19.17-29.647 42.824-29.647 23.651 0 42.824 13.273 42.824 29.647-0.085 5.03-4.58 12.665-6.588 16.471-9.882 13.176-9.882 21.412-7.412 26.353h46.941c14.6 0 26.353-11.753 26.353-26.353v-73.29c4.941-2.471 13.176-2.471 26.353 7.412 3.806 2.01 11.445 6.503 16.471 6.588 16.374 0 29.647-19.17 29.647-42.824 0-23.651-13.273-42.824-29.647-42.824-6.109 0.688-13.822 4.55-16.471 6.588-13.176 9.882-21.412 9.882-26.353 7.412v-79.882c0-14.6-11.753-26.353-26.353-26.353h-73.29c-2.471-4.941-2.471-13.176 7.412-26.353 2.01-3.806 6.503-11.445 6.588-16.471 0-16.374-19.17-29.647-42.824-29.647"
     fill="#009688"
     id="path80"
     style="fill:#009688;fill-opacity:1" />
</svg>
