<svg xmlns="http://www.w3.org/2000/svg" width="32" height="32" version="1.1">
 <defs>
  <style id="current-color-scheme" type="text/css">
   .ColorScheme-Text { color: #ececec; } .ColorScheme-Highlight { color: #1AD6AB; }
  </style>
  <linearGradient id="arrongin" x1="0%" x2="0%" y1="0%" y2="100%">
   <stop id="stop894" offset="0%" stop-color="#dd9b44"/>
   <stop id="stop896" offset="100%" stop-color="#ad6c16"/>
  </linearGradient>
  <linearGradient id="aurora" x1="0%" x2="0%" y1="0%" y2="100%">
   <stop id="stop899" offset="0%" stop-color="#09D4DF"/>
   <stop id="stop901" offset="100%" stop-color="#9269F4"/>
  </linearGradient>
  <linearGradient id="cyberblue" x1="0%" x2="0%" y1="0%" y2="100%">
   <stop id="stop904" offset="0%" stop-color="#07B3FF"/>
   <stop id="stop906" offset="100%" stop-color="#007DE8"/>
  </linearGradient>
  <linearGradient id="cyberneon" x1="0%" x2="0%" y1="0%" y2="100%">
   <stop id="stop909" offset="0%" stop-color="#0abdc6"/>
   <stop id="stop911" offset="100%" stop-color="#ea00d9"/>
  </linearGradient>
  <linearGradient id="fitdance" x1="0%" x2="0%" y1="0%" y2="100%">
   <stop id="stop914" offset="0%" stop-color="#1AD6AB"/>
   <stop id="stop916" offset="100%" stop-color="#329DB6"/>
  </linearGradient>
  <linearGradient id="oomox" x1="0%" x2="0%" y1="0%" y2="100%">
   <stop id="stop919" offset="0%" stop-color="#efefe7"/>
   <stop id="stop921" offset="100%" stop-color="#8f8f8b"/>
  </linearGradient>
  <linearGradient id="rainblue" x1="0%" x2="0%" y1="0%" y2="100%">
   <stop id="stop924" offset="0%" stop-color="#00F260"/>
   <stop id="stop926" offset="100%" stop-color="#0575E6"/>
  </linearGradient>
  <linearGradient id="redcarbon" x1="0%" x2="100%" y1="0%" y2="100%">
   <stop id="stop929" offset="0%" stop-color="#FF6D57"/>
   <stop id="stop931" offset="50%" stop-color="#FF5160"/>
   <stop id="stop933" offset="100%" stop-color="#F50F22"/>
  </linearGradient>
  <linearGradient id="sunrise" x1="0%" x2="0%" y1="0%" y2="100%">
   <stop id="stop936" offset="0%" stop-color="#FF8501"/>
   <stop id="stop938" offset="100%" stop-color="#FFCB01"/>
  </linearGradient>
  <linearGradient id="telinkrin" x1="0%" x2="0%" y1="0%" y2="100%">
   <stop id="stop941" offset="0%" stop-color="#b2ced6"/>
   <stop id="stop943" offset="100%" stop-color="#6da5b7"/>
  </linearGradient>
  <linearGradient id="60spsycho" x1="0%" x2="0%" y1="0%" y2="100%">
   <stop id="stop946" offset="0%" stop-color="#df5940"/>
   <stop id="stop948" offset="25%" stop-color="#d8d15f"/>
   <stop id="stop950" offset="50%" stop-color="#e9882a"/>
   <stop id="stop952" offset="100%" stop-color="#279362"/>
  </linearGradient>
  <linearGradient id="90ssummer" x1="0%" x2="0%" y1="0%" y2="100%">
   <stop id="stop955" offset="0%" stop-color="#f618c7"/>
   <stop id="stop957" offset="20%" stop-color="#94ffab"/>
   <stop id="stop959" offset="50%" stop-color="#fbfd54"/>
   <stop id="stop961" offset="100%" stop-color="#0f83ae"/>
  </linearGradient>
  <linearGradient id="pause" x1="0" x2="0" y1="0" y2="1" gradientTransform="matrix(4,0,0,12,14,5.734)" gradientUnits="userSpaceOnUse">
   <stop id="stop964" offset="0%" stop-color="#f06"/>
   <stop id="stop966" offset="100%" stop-color="#dc1499"/>
  </linearGradient>
  <linearGradient id="squircle" x1="0" x2="0" y1="0" y2="1" gradientTransform="matrix(24,0,0,22.401,0,0.533)" gradientUnits="userSpaceOnUse">
   <stop id="stop969" offset="0%" stop-color="#4c5561"/>
   <stop id="stop971" offset="100%" stop-color="#2e3842"/>
  </linearGradient>
 </defs>
 <rect fill="#1e1e1e" opacity="0.2" width="21" height="16" x="-28" y="-24" rx="1.25" ry="1.25" transform="matrix(0,-1,-1,0,0,0)"/>
 <rect fill="url(#squircle)" opacity="1.0" width="21" height="16" x="-27" y="-24" rx="1.25" ry="1.25" transform="matrix(0,-1,-1,0,0,0)"/>
 <rect fill="#1e1e1e" opacity="0.2" width="20" height="26" x="-25" y="-29" rx="1.25" ry="1.25" transform="matrix(0,-1,-1,0,0,0)"/>
 <rect fill="#4c5561" opacity="1.0" width="20" height="26" x="-24" y="-29" rx="1.25" ry="1.25" transform="matrix(0,-1,-1,0,0,0)"/>
 <rect fill="url(#redcarbon)" opacity="1.0" width="16" height="22" x="-22" y="-27" rx="0" ry="0" transform="matrix(0,-1,-1,0,0,0)"/>
 <path fill="#efefef" opacity="0.1" d="M 4.25,4 C 3.5575,4 3,4.5575 3,5.25 v 1 C 3,5.5575 3.5575,5 4.25,5 h 23.5 C 28.442,5 29,5.5575 29,6.25 v -1 C 29,4.5575 28.442,4 27.75,4 Z"/>
 <rect fill="#efefef" opacity="0.1" width="22" height="1" x="5" y="22"/>
 <path fill="#1e1e1e" opacity="0.2" d="m 11,10 v 4 h 2 v -4 z m 8,0 v 4 h 2 v -4 z m -8,7 v 2 h 2 6 2 v -2 h -2 -6 z m 10,2 v 2 h 2 v -2 z m -10,0 h -2 v 2 h 2 z"/>
 <path fill="currentColor" class="ColorScheme-Text" d="m 11,9 v 4 h 2 v -4 z m 8,0 v 4 h 2 v -4 z m -8,7 v 2 h 2 6 2 v -2 h -2 -6 z m 10,2 v 2 h 2 v -2 z m -10,0 h -2 v 2 h 2 z"/>
</svg>
