<?xml version="1.0" encoding="UTF-8" standalone="no"?>
<svg
   xmlns:dc="http://purl.org/dc/elements/1.1/"
   xmlns:cc="http://creativecommons.org/ns#"
   xmlns:rdf="http://www.w3.org/1999/02/22-rdf-syntax-ns#"
   xmlns:svg="http://www.w3.org/2000/svg"
   xmlns="http://www.w3.org/2000/svg"
   xmlns:sodipodi="http://sodipodi.sourceforge.net/DTD/sodipodi-0.dtd"
   xmlns:inkscape="http://www.inkscape.org/namespaces/inkscape"
   version="1.1"
   width="512"
   height="512"
   viewBox="0 0 512 512"
   id="svg2"
   inkscape:version="0.91 r"
   sodipodi:docname="applications-ocaml.svg">
  <defs
     id="defs39" />
  <sodipodi:namedview
     pagecolor="#ffffff"
     bordercolor="#666666"
     borderopacity="1"
     objecttolerance="10"
     gridtolerance="10"
     guidetolerance="10"
     inkscape:pageopacity="0"
     inkscape:pageshadow="2"
     inkscape:window-width="647"
     inkscape:window-height="480"
     id="namedview37"
     showgrid="false"
     inkscape:zoom="0.4609375"
     inkscape:cx="256"
     inkscape:cy="256"
     inkscape:window-x="0"
     inkscape:window-y="0"
     inkscape:window-maximized="0"
     inkscape:current-layer="svg2" />
  <metadata
     id="metadata72">
    <rdf:RDF>
      <cc:Work
         rdf:about="">
        <dc:format>image/svg+xml</dc:format>
        <dc:type
           rdf:resource="http://purl.org/dc/dcmitype/StillImage" />
      </cc:Work>
    </rdf:RDF>
  </metadata>
  <text
     x="729.64"
     y="231.36"
     id="text20"
     font-family="Gentium Book Basic"
     word-spacing="0"
     line-height="125%"
     letter-spacing="0"
     font-size="129.23">
    <tspan
       x="729.64"
       y="231.36"
       id="tspan22" />
  </text>
  <text
     x="378.91"
     y="579.25"
     transform="scale(4.0128,0.2492)"
     id="text24"
     font-family="Arial"
     text-anchor="middle"
     font-size="46.954" />
  <text
     x="1310.91"
     y="151.36"
     id="text26"
     font-family="Gentium Book Basic"
     word-spacing="0"
     line-height="125%"
     letter-spacing="0"
     font-size="129.23">
    <tspan
       x="1310.91"
       y="151.36"
       id="tspan28" />
  </text>
  <text
     x="523.76"
     y="258.22"
     transform="scale(4.0128,0.2492)"
     id="text30"
     font-family="Arial"
     text-anchor="middle"
     font-size="46.954" />
  <text
     x="239.33"
     y="-29.901"
     id="text32"
     font-family="Gentium Book Basic"
     word-spacing="0"
     line-height="125%"
     letter-spacing="0"
     font-size="129.23">
    <tspan
       x="239.33"
       y="-29.901"
       id="tspan34" />
  </text>
  <text
     x="256.72"
     y="-469.14"
     transform="scale(4.0128,0.2492)"
     id="text36"
     font-family="Arial"
     text-anchor="middle"
     font-size="46.954" />
  <text
     x="1337.38"
     y="-246.37"
     id="text38"
     font-family="Gentium Book Basic"
     word-spacing="0"
     line-height="125%"
     letter-spacing="0"
     font-size="129.23">
    <tspan
       x="1337.38"
       y="-246.37"
       id="tspan40" />
  </text>
  <text
     x="530.36"
     y="-1337.81"
     transform="scale(4.0128,0.2492)"
     id="text42"
     font-family="Arial"
     text-anchor="middle"
     font-size="46.954" />
  <text
     x="1918.65"
     y="-326.38"
     id="text44"
     font-family="Gentium Book Basic"
     word-spacing="0"
     line-height="125%"
     letter-spacing="0"
     font-size="129.23">
    <tspan
       x="1918.65"
       y="-326.38"
       id="tspan46" />
  </text>
  <text
     x="675.21"
     y="-1658.85"
     transform="scale(4.0128,0.2492)"
     id="text48"
     font-family="Arial"
     text-anchor="middle"
     font-size="46.954" />
  <text
     x="1529.53"
     y="-798.78"
     id="text50"
     font-family="Gentium Book Basic"
     word-spacing="0"
     line-height="125%"
     letter-spacing="0"
     font-size="129.23">
    <tspan
       x="1529.53"
       y="-798.78"
       id="tspan52" />
  </text>
  <text
     x="578.24"
     y="-3554.51"
     transform="scale(4.0128,0.2492)"
     id="text54"
     font-family="Arial"
     text-anchor="middle"
     font-size="46.954" />
  <text
     x="2110.79"
     y="-878.78"
     id="text56"
     font-family="Gentium Book Basic"
     word-spacing="0"
     line-height="125%"
     letter-spacing="0"
     font-size="129.23">
    <tspan
       x="2110.79"
       y="-878.78"
       id="tspan58" />
  </text>
  <text
     x="723.09"
     y="-3875.54"
     transform="scale(4.0128,0.2492)"
     id="text60"
     font-family="Arial"
     text-anchor="middle"
     font-size="46.954" />
  <text
     x="277.99"
     y="535.94"
     id="text62"
     font-family="Gentium Book Basic"
     word-spacing="0"
     line-height="125%"
     letter-spacing="0"
     font-size="208.33">
    <tspan
       x="277.99"
       y="535.94"
       id="tspan64" />
  </text>
  <path
     d="m 193.58846,428.97701 c 13.3211,-1.46807 -2.34865,-12.66388 -6.76578,-14.90021 -8.52694,-4.26347 -15.45928,-9.12863 -20.8138,-17.15073 -8.45723,-12.88726 -12.66389,-29.96826 -16.27015,-44.77163 -2.38997,-10.05054 -4.30479,-15.89312 2.08267,-24.40587 6.33194,-8.47013 -4.47264,-15.45928 2.23632,-24.40586 11.25263,-15.02674 16.00417,-34.88766 27.12768,-49.74784 3.17242,-4.20795 2.02715,-8.13572 6.55531,-8.56826 2.1808,-0.22338 7.81163,4.15114 9.71483,5.41004 5.52108,3.70439 12.24425,5.45135 17.64009,9.06407 2.73988,1.80378 7.92526,0.48936 10.16158,2.23632 6.49463,5.07434 4.962,20.85255 4.30479,28.93404 -0.97871,11.53152 -10.20419,15.12358 -10.20419,26.20835 0,13.37661 2.83801,22.50396 -1.36994,36.20466 -2.40417,7.86973 -8.45722,16.81115 -9.44885,24.85261 -0.81086,6.33194 0.39123,6.16409 2.25053,12.17453 2.1808,7.1428 2.72568,13.53026 9.49146,16.7595 3.88644,1.80378 19.4968,2.57203 21.68018,-1.80377 4.319,-8.56827 -12.119,-11.51732 -14.9002,-16.75951 -6.01044,-11.25262 8.13572,-40.4139 13.53026,-50.18038 3.00587,-5.29771 8.73612,-9.56118 10.87431,-14.90021 2.89353,-7.21252 -2.94905,-12.13321 -2.02715,-17.64008 1.80378,-10.76327 6.33194,-22.16955 9.72903,-32.53772 7.91106,-24.08436 18.8835,12.49603 23.47364,21.72151 1.8593,3.60626 3.17243,7.58955 4.9762,11.30815 2.18081,4.37451 -2.62755,8.13571 -1.31442,13.54446 1.20209,5.07434 7.1002,7.91106 10.36817,11.73682 4.97621,5.84259 8.41462,13.20876 11.08477,20.36577 5.57661,14.9002 7.53403,40.88518 17.84926,52.85054 1.48228,1.74696 5.63342,0.76954 7.21253,2.29184 3.60626,3.49393 -0.9219,7.36618 6.12277,9.71483 5.39584,1.80378 19.05135,3.77412 24.1812,0.65721 9.82587,-5.95492 -2.4597,-13.26557 -8.56826,-19.43224 -8.62379,-8.58247 -18.61881,-16.438 -25.34197,-26.65639 -8.84845,-13.43214 -10.69355,-28.56088 -12.44051,-44.05503 -0.82507,-7.47851 7.25384,-11.19582 0.26598,-20.1424 -2.23632,-2.85092 -9.06408,-2.45969 -9.06408,-5.41004 0,-9.3378 -0.28018,-18.72984 0,-28.01213 0.3215,-11.30814 0.26598,-29.92953 11.08477,-37.06975 14.35791,-9.6167 32.60227,-12.1332 46.29523,-22.39291 13.6568,-10.25971 26.15283,-19.53554 34.39959,-35.92319 4.26347,-8.58246 6.49463,-16.98287 9.93821,-25.7758 2.5165,-6.49463 1.80377,-4.319 5.84258,-8.13572 2.40418,-2.23633 5.95492,-3.82964 8.62379,-6.33195 6.93363,-6.66764 8.19124,-13.2165 19.87641,-10.43272 4.64049,1.14657 12.28686,9.83104 14.9144,4.53333 1.69145,-3.38676 0.64301,-6.49463 -0.22337,-9.93821 -1.31442,-5.13243 4.90648,-6.82517 4.75283,-11.73681 -0.28019,-8.46239 -13.92149,-17.363781 -21.02298,-18.781495 -8.95949,-1.801195 -18.78665,2.074924 -28.29102,0.218209 -7.63216,-1.474526 -14.29335,-5.623085 -21.66598,-7.425571 -7.70189,-1.966465 -14.63423,-2.622384 -21.24636,2.019404 -3.00586,2.129155 -4.15114,5.952336 -6.76577,8.135719 -2.23633,1.801195 -4.20796,1.310547 -6.77869,3.167263 -7.7432,5.568851 -8.34489,13.814321 4.9762,11.302981 -5.63341,23.21023 -32.876,85.60517 -63.2936,53.35152 -14.18747,-15.06806 -27.24387,-31.78625 -40.67601,-47.45083 -11.83882,-13.81304 -18.72984,-29.374325 -38.8774,-26.699002 -19.87641,2.621093 -33.46349,16.270152 -48.86725,27.573132 -12.55156,9.28228 -27.36009,11.30298 -40.67602,18.9984 -14.14357,8.13572 -26.75581,21.84805 -31.617099,37.52167 -7.043382,22.65761 -3.003283,44.49145 -15.398601,66.00507 -7.479801,13.05511 -18.128154,22.16954 -27.573129,32.98833 -5.078207,5.84259 -8.463679,13.86598 -6.770943,21.68019 1.146567,5.39584 4.969748,6.38746 4.969748,12.66389 0,10.97243 -0.546168,21.83383 -0.05423,32.82048 0.436418,9.77035 1.200796,19.31733 2.566864,28.98955 1.200796,8.34489 4.257017,10.69354 6.989152,16.87571 4.040099,9.11572 3.38418,13.09772 13.104176,16.70398 5.514626,2.02715 14.905371,6.12277 20.800894,5.89811 8.463677,-0.37703 9.664477,-7.36618 3.167267,-14.90021 -4.204083,-4.92068 -12.013134,-6.49463 -16.707861,-11.7975 -13.705866,-15.34825 -19.60268,-61.48853 -8.135719,-77.7548 4.750247,-6.76578 10.811042,-6.8213 11.246169,-17.13653 0.43771,-9.22548 -3.329951,-12.45472 5.023978,-20.81381 26.537603,-13.53026 29.321383,-23.20378 37.949043,-18.56199 10.48954,5.68894 2.24149,37.62496 0,46.57283 -4.04139,16.06098 -19.92935,23.59501 -9.5005,39.80834 7.4798,11.57413 10.97374,23.53819 16.04807,37.06975 4.58498,12.17453 4.20795,29.60544 11.53152,39.75282 1.41126,1.97034 3.64887,3.06139 4.962,4.97621 0.97871,1.41125 2.4597,5.50687 3.17243,6.33194 3.04718,3.55074 3.70439,4.47264 8.62378,6.33194 8.73612,3.32737 19.43225,2.23632 28.87851,2.23632"
     inkscape:connector-curvature="0"
     id="path66"
     style="fill:#009688;fill-rule:evenodd" />
</svg>
