<?xml version="1.0" encoding="UTF-8" standalone="no"?>
<svg
   xmlns:dc="http://purl.org/dc/elements/1.1/"
   xmlns:cc="http://creativecommons.org/ns#"
   xmlns:rdf="http://www.w3.org/1999/02/22-rdf-syntax-ns#"
   xmlns:svg="http://www.w3.org/2000/svg"
   xmlns="http://www.w3.org/2000/svg"
   xmlns:sodipodi="http://sodipodi.sourceforge.net/DTD/sodipodi-0.dtd"
   xmlns:inkscape="http://www.inkscape.org/namespaces/inkscape"
   viewBox="0 0 512 512"
   version="1.1"
   id="svg2"
   inkscape:version="0.91 r13725"
   sodipodi:docname="applications-sports.svg">
  <defs
     id="defs14" />
  <sodipodi:namedview
     pagecolor="#474749"
     bordercolor="#666666"
     borderopacity="1"
     objecttolerance="10"
     gridtolerance="10"
     guidetolerance="10"
     inkscape:pageopacity="0"
     inkscape:pageshadow="2"
     inkscape:window-width="1680"
     inkscape:window-height="991"
     id="namedview12"
     showgrid="false"
     inkscape:zoom="0.4609375"
     inkscape:cx="259.25424"
     inkscape:cy="256"
     inkscape:window-x="0"
     inkscape:window-y="0"
     inkscape:window-maximized="1"
     inkscape:current-layer="svg2" />
  <metadata
     id="metadata998">
    <rdf:RDF>
      <cc:Work
         rdf:about="">
        <dc:format>image/svg+xml</dc:format>
        <dc:type
           rdf:resource="http://purl.org/dc/dcmitype/StillImage" />
        <dc:title></dc:title>
      </cc:Work>
    </rdf:RDF>
  </metadata>
  <path
     inkscape:connector-curvature="0"
     d="M 242.10457,430.21869 C 168.44018,425.20924 103.73142,367.14134 85.466485,296.81963 68.624183,223.98577 102.07834,141.8814 167.37235,103.8342 209.33264,78.808617 262.02373,75.634785 308.49493,88.697466 c 57.37312,17.630624 101.10173,68.701714 116.41188,125.607084 13.80423,52.50171 3.85948,112.08807 -32.76509,153.46654 -33.17578,41.2872 -86.19087,65.06242 -139.24019,62.95185 -3.59366,-0.0376 -7.22269,-0.22931 -10.8175,-0.50653 z m 43.89631,-8.23691 c 13.2475,-1.14084 10.91333,-5.19084 -1.10091,-6.25069 -21.49353,-4.14241 -44.68692,-4.23824 -65.42749,3.03465 18.26493,8.79022 42.51931,6.49027 62.95185,3.86519 z m -65.07382,-11.6332 c 9.43707,-9.62303 -0.41185,-32.5757 -8.65104,-41.69334 -18.44747,-9.4268 -32.71602,-24.75977 -49.59939,-36.35988 -12.70446,-4.64781 -25.08149,4.14241 -37.32619,7.14169 -0.0468,12.10665 -0.87046,25.80821 9.79987,34.22536 17.58042,17.30549 38.78646,32.54034 62.72026,39.44017 7.68245,0.32515 15.74138,-0.13347 23.04508,-2.75742 z m 100.99905,0.50654 c 30.61002,-13.16308 59.27947,-34.32804 76.52791,-63.13439 6.21875,-8.27341 10.77301,-22.82832 -5.43156,-17.99227 -20.37436,12.80142 -38.78647,28.62381 -59.632,40.72818 -12.64057,10.03145 -21.75592,23.78435 -30.78685,36.94628 3.13276,7.27289 13.34675,5.52854 19.3225,3.45676 z m 20.76224,-52.91242 c 15.36605,-12.60634 37.5863,-20.71775 45.69086,-39.80067 3.64158,-15.05346 3.91995,-30.59976 5.43157,-45.93044 -15.31699,-13.5715 -34.09531,-22.77356 -52.4903,-31.46794 -18.18508,1.42149 -32.86091,17.57016 -47.26523,28.02601 -7.64709,4.17892 -5.66316,13.70155 -7.77942,20.97901 -2.75857,17.02826 -5.97689,33.95954 -7.86385,51.12014 14.30164,10.53685 30.27233,20.2443 47.67023,24.3388 6.30431,0.0468 11.51113,-4.17892 16.61185,-7.26148 z m -109.65807,2.61368 c 13.93886,-5.28668 32.3464,-9.28534 38.88002,-24.0148 4.88852,-20.61507 7.54897,-41.74695 10.12614,-62.75791 -13.85328,-13.16307 -28.62381,-27.01179 -46.74614,-33.8158 -15.64441,-0.27722 -28.89305,10.76046 -42.79996,16.78754 -18.73268,5.10643 -25.25832,22.08677 -26.04892,39.66948 -5.51713,17.38649 0.7849,35.24871 16.57648,44.82382 13.80423,10.11588 31.51814,26.3079 50.01809,19.31566 z m -116.51454,-24.3388 c -11.27612,-20.84552 -19.055547,-43.67156 -22.1769,-67.17298 -11.180286,2.25203 -1.016493,29.62662 2.069494,40.76355 5.250166,15.08882 13.297696,28.9866 21.669216,42.51931 1.52417,-5.57645 2.44369,-11.09016 -1.56181,-16.10873 z m -4.82806,-92.80778 c 4.92389,-7.03331 12.73982,-12.5607 15.72883,-20.61507 5.20226,-24.29089 13.72438,-47.7615 25.91545,-69.51971 -0.50768,-14.02897 -16.24906,-22.59216 -24.08325,-7.08122 -22.26246,28.6124 -39.745914,63.5371 -40.531957,100.3944 -2.952508,12.65198 8.094299,21.81297 14.446527,6.85648 2.80648,-3.31187 5.66316,-6.6671 8.51755,-10.03145 z m 287.09376,17.44011 c 9.42681,-12.36791 22.50432,-27.04831 19.14111,-43.84726 -5.94152,-31.79308 -22.27501,-61.98213 -47.393,-82.67707 -7.50106,-3.17839 -21.12504,-14.77281 -26.33072,-3.81727 -7.68245,14.76026 -26.82698,28.70367 -19.92829,47.07129 5.89247,18.13602 10.22426,37.04439 18.82624,54.12171 15.87486,12.3314 34.19228,21.95329 52.63861,30.04644 z M 187.98742,252.613 c 14.64047,-7.40636 28.85769,-15.5463 43.1194,-23.55617 4.779,-16.80009 10.85286,-33.17579 16.46696,-49.65302 0.7849,-17.84625 -15.18351,-30.63627 -25.8082,-43.16161 -10.49008,-16.75217 -28.19942,-3.9131 -41.13889,2.21552 -28.4447,15.1858 -34.97262,48.54412 -44.68692,76.42638 1.38042,10.45357 10.94984,19.14795 17.94208,26.93308 9.61847,9.70632 20.48388,22.59217 34.09531,10.80267 z m 104.92356,-90.1382 c 7.58663,-1.05984 16.0517,-0.27722 23.04508,-2.43228 10.53913,-11.27155 19.78226,-24.48254 24.16311,-39.34434 -5.30037,-14.95648 -22.78611,-21.778739 -36.87213,-26.879459 -17.89416,-5.286678 -37.08432,-7.911763 -55.68124,-5.792072 -13.38668,6.804002 -37.45282,26.638741 -23.87219,42.052701 9.93334,11.82487 20.52038,23.05649 31.33674,34.14095 12.64057,0.14374 25.25832,-0.86705 37.87607,-1.74664 z"
     id="path992"
     style="fill:#009688;stroke:#009688;stroke-width:1.74891615" />
</svg>
