<?xml version="1.0" encoding="UTF-8" standalone="no"?>
<svg
   xmlns:dc="http://purl.org/dc/elements/1.1/"
   xmlns:cc="http://creativecommons.org/ns#"
   xmlns:rdf="http://www.w3.org/1999/02/22-rdf-syntax-ns#"
   xmlns:svg="http://www.w3.org/2000/svg"
   xmlns="http://www.w3.org/2000/svg"
   xmlns:sodipodi="http://sodipodi.sourceforge.net/DTD/sodipodi-0.dtd"
   xmlns:inkscape="http://www.inkscape.org/namespaces/inkscape"
   version="1.1"
   width="512"
   height="512"
   viewBox="0 0 512 512"
   id="svg2"
   inkscape:version="0.91 r"
   sodipodi:docname="applications-roleplaying.svg">
  <defs
     id="defs39" />
  <sodipodi:namedview
     pagecolor="#ffffff"
     bordercolor="#666666"
     borderopacity="1"
     objecttolerance="10"
     gridtolerance="10"
     guidetolerance="10"
     inkscape:pageopacity="0"
     inkscape:pageshadow="2"
     inkscape:window-width="643"
     inkscape:window-height="480"
     id="namedview37"
     showgrid="false"
     inkscape:zoom="0.4609375"
     inkscape:cx="256"
     inkscape:cy="256"
     inkscape:window-x="0"
     inkscape:window-y="0"
     inkscape:window-maximized="0"
     inkscape:current-layer="svg2" />
  <metadata
     id="metadata72">
    <rdf:RDF>
      <cc:Work
         rdf:about="">
        <dc:format>image/svg+xml</dc:format>
        <dc:type
           rdf:resource="http://purl.org/dc/dcmitype/StillImage" />
      </cc:Work>
    </rdf:RDF>
  </metadata>
  <text
     x="729.64"
     y="231.36"
     id="text20"
     font-family="Gentium Book Basic"
     word-spacing="0"
     line-height="125%"
     letter-spacing="0"
     font-size="129.23">
    <tspan
       x="729.64"
       y="231.36"
       id="tspan22" />
  </text>
  <text
     x="378.91"
     y="579.25"
     transform="scale(4.0128,0.2492)"
     id="text24"
     font-family="Arial"
     text-anchor="middle"
     font-size="46.954" />
  <text
     x="1310.91"
     y="151.36"
     id="text26"
     font-family="Gentium Book Basic"
     word-spacing="0"
     line-height="125%"
     letter-spacing="0"
     font-size="129.23">
    <tspan
       x="1310.91"
       y="151.36"
       id="tspan28" />
  </text>
  <text
     x="523.76"
     y="258.22"
     transform="scale(4.0128,0.2492)"
     id="text30"
     font-family="Arial"
     text-anchor="middle"
     font-size="46.954" />
  <text
     x="239.33"
     y="-29.901"
     id="text32"
     font-family="Gentium Book Basic"
     word-spacing="0"
     line-height="125%"
     letter-spacing="0"
     font-size="129.23">
    <tspan
       x="239.33"
       y="-29.901"
       id="tspan34" />
  </text>
  <text
     x="256.72"
     y="-469.14"
     transform="scale(4.0128,0.2492)"
     id="text36"
     font-family="Arial"
     text-anchor="middle"
     font-size="46.954" />
  <text
     x="1337.38"
     y="-246.37"
     id="text38"
     font-family="Gentium Book Basic"
     word-spacing="0"
     line-height="125%"
     letter-spacing="0"
     font-size="129.23">
    <tspan
       x="1337.38"
       y="-246.37"
       id="tspan40" />
  </text>
  <text
     x="530.36"
     y="-1337.81"
     transform="scale(4.0128,0.2492)"
     id="text42"
     font-family="Arial"
     text-anchor="middle"
     font-size="46.954" />
  <text
     x="1918.65"
     y="-326.38"
     id="text44"
     font-family="Gentium Book Basic"
     word-spacing="0"
     line-height="125%"
     letter-spacing="0"
     font-size="129.23">
    <tspan
       x="1918.65"
       y="-326.38"
       id="tspan46" />
  </text>
  <text
     x="675.21"
     y="-1658.85"
     transform="scale(4.0128,0.2492)"
     id="text48"
     font-family="Arial"
     text-anchor="middle"
     font-size="46.954" />
  <text
     x="1529.53"
     y="-798.78"
     id="text50"
     font-family="Gentium Book Basic"
     word-spacing="0"
     line-height="125%"
     letter-spacing="0"
     font-size="129.23">
    <tspan
       x="1529.53"
       y="-798.78"
       id="tspan52" />
  </text>
  <text
     x="578.24"
     y="-3554.51"
     transform="scale(4.0128,0.2492)"
     id="text54"
     font-family="Arial"
     text-anchor="middle"
     font-size="46.954" />
  <text
     x="2110.79"
     y="-878.78"
     id="text56"
     font-family="Gentium Book Basic"
     word-spacing="0"
     line-height="125%"
     letter-spacing="0"
     font-size="129.23">
    <tspan
       x="2110.79"
       y="-878.78"
       id="tspan58" />
  </text>
  <text
     x="723.09"
     y="-3875.54"
     transform="scale(4.0128,0.2492)"
     id="text60"
     font-family="Arial"
     text-anchor="middle"
     font-size="46.954" />
  <text
     x="277.99"
     y="535.94"
     id="text62"
     font-family="Gentium Book Basic"
     word-spacing="0"
     line-height="125%"
     letter-spacing="0"
     font-size="208.33">
    <tspan
       x="277.99"
       y="535.94"
       id="tspan64" />
  </text>
  <path
     d="m 210.17338,94.360667 c -1.23392,0.112891 -3.115,0.704912 -4.76636,1.547656 -4.9567,2.528231 -24.60235,17.523037 -35.22722,26.869357 -16.47551,14.49204 -37.65569,26.52936 -50.51869,28.7268 -5.05778,0.86506 -12.69629,0.96745 -28.230609,0.33999 -11.713091,-0.47257 -29.102232,-0.88213 -38.632327,-0.89788 -20.964895,-0.0354 -23.231903,0.70885 -24.299116,7.83148 -0.760045,5.06828 0.851933,18.73989 3.126816,26.46373 4.61934,15.6879 16.063329,40.82451 27.457437,60.26932 4.99608,8.52852 8.5889,12.95358 19.965942,24.64041 7.628014,7.83411 19.379172,18.74646 26.126377,24.23742 8.97876,7.30772 14.53142,12.78556 20.61572,20.43064 8.05726,10.11292 18.83572,20.58553 27.05444,26.27996 2.1935,1.52008 6.78658,3.57837 10.18381,4.54976 21.26288,6.08167 47.42732,-3.43136 55.6316,-20.18253 3.83042,-7.83148 7.47575,-23.58896 8.54296,-36.87333 1.12103,-13.94072 3.00342,-25.54486 6.53192,-40.61317 1.40326,-5.99241 3.35522,-14.46579 4.36468,-18.82128 4.65609,-20.09984 4.65216,-33.04029 -0.12339,-66.21184 -1.93359,-13.42877 -7.74353,-34.51837 -13.52722,-49.18763 -2.83015,-7.17908 -10.59337,-18.495736 -13.27913,-19.346356 -0.23891,-0.07614 -0.57889,-0.09976 -0.99108,-0.0617 m 77.94725,70.391432 c -0.466,-0.0157 -0.91363,0.003 -1.33106,0.0315 -0.445,0.0302 -0.84668,0.0761 -1.23786,0.1549 -8.22004,1.64348 -15.38992,18.07174 -17.83021,40.9164 -2.0806,19.47762 -0.96744,59.50402 2.01235,72.77527 2.29195,10.20613 12.64378,37.79877 18.72808,49.89516 5.96616,11.86668 8.6204,18.99062 11.01999,29.59318 4.3358,19.14945 13.07566,37.32489 21.63699,44.9726 13.35789,11.94543 32.86964,17.18305 49.43573,13.27912 8.37887,-1.97559 15.15626,-5.5776 20.08933,-10.6485 7.38911,-7.5952 16.43482,-19.87406 21.88509,-29.71657 6.19719,-11.19721 14.66532,-23.45506 24.48552,-35.41231 9.13891,-11.12895 19.90031,-26.70396 23.79898,-34.45799 3.70046,-7.35235 13.85802,-36.93896 16.77743,-48.84501 2.30639,-9.40408 6.09874,-37.92217 6.09874,-45.90592 0,-8.82124 -2.87872,-19.43956 -6.16043,-22.72127 -2.76321,-2.7632 -3.10975,-2.84327 -9.50253,-2.19743 -8.97614,0.90575 -23.83837,3.98268 -33.95786,7.0268 -21.36264,6.43085 -45.8324,10.27964 -56.86552,8.91445 -10.9898,-1.35995 -24.01033,-6.99793 -51.48351,-22.22508 -18.29096,-10.13918 -30.63151,-15.21796 -37.60975,-15.44636 m -78.5944,4.70466 c 1.60147,-0.31242 14.65219,16.45582 14.64169,18.82128 0,0.69966 -11.51356,8.51276 -25.59999,17.36551 -14.08642,8.85275 -26.12375,16.09615 -26.74465,16.09615 -0.62221,0 -1.14597,-0.38724 -1.14597,-0.86637 0,-1.6973 37.34458,-51.12253 38.84892,-51.41788 M 75.457747,212.80032 c 2.701506,0 58.636333,17.52697 59.867633,18.75827 0.56971,0.5697 0.79286,1.28118 0.46469,1.60935 -0.32948,0.32948 -12.33793,1.44395 -26.68295,2.47704 -14.345024,1.03177 -28.212231,1.90864 -30.800846,1.91914 l -4.704664,0 0,-12.38256 c 0,-11.47155 0.12733,-12.38256 1.857449,-12.38256 m 269.520531,38.63233 c 1.45708,-0.001 2.05041,0.37018 1.48596,0.89788 -1.49909,1.39801 -47.70298,25.84677 -48.84502,25.84677 -0.56708,0 -1.19585,-0.33474 -1.42426,-0.74298 -0.78105,-1.3967 -3.95118,-19.14158 -3.49831,-19.59445 0.51458,-0.51589 48.58248,-6.40591 52.28294,-6.40722 m 48.8844,5.29012 c 0.48832,-0.48832 50.36773,18.26864 51.44413,19.34636 0.96483,0.95957 -7.21058,18.95648 -8.60596,18.94467 -0.57758,-0.005 -10.52774,-8.53377 -22.13319,-18.94467 -11.60282,-10.41091 -20.93339,-19.12189 -20.70892,-19.34636 m -189.47298,11.51488 c 3.06774,-0.20216 4.83068,1.335 6.90341,5.47914 2.17118,4.34105 2.47704,6.25364 2.47704,15.38468 0,9.74012 -0.19297,10.8454 -3.18852,16.93232 -3.91574,7.95487 -11.93231,15.83099 -19.74278,19.40937 -6.75377,3.09268 -20.73518,4.04832 -28.13741,1.95065 -14.07986,-3.99188 -27.8158,-19.20984 -28.07571,-31.10933 -0.15884,-7.3471 0.80467,-7.70809 20.49233,-7.70809 16.54639,0 17.22243,-0.0853 22.49942,-2.69363 2.99686,-1.47808 9.24131,-5.8362 13.86721,-9.68893 4.63115,-3.85273 9.3857,-7.2539 10.55399,-7.55319 0.86637,-0.22053 1.64479,-0.35574 2.35233,-0.40299 m 149.58048,61.94561 c 1.01733,-0.0118 2.16331,0 3.43661,0 9.86877,0 11.40855,0.2691 16.40594,2.72382 6.75902,3.31978 14.15075,10.40041 17.30382,16.62254 4.30692,8.49832 5.50802,22.97724 2.41403,28.75699 -1.74063,3.25152 -5.94253,2.27751 -18.39072,-4.20978 -11.49125,-5.98978 -12.00582,-6.16568 -20.77062,-6.56211 -7.38123,-0.33474 -10.77846,0.0735 -19.00637,2.19743 -5.50934,1.42295 -11.15783,2.56893 -12.53615,2.56893 -3.48911,0 -4.85562,-3.0835 -4.36467,-9.87402 0.83355,-11.53063 9.65348,-23.49182 21.42039,-29.06285 5.41745,-2.5663 6.95986,-3.07431 14.08512,-3.15701"
     inkscape:connector-curvature="0"
     id="path66"
     style="fill:#009688" />
</svg>
