<?xml version="1.0" encoding="UTF-8" standalone="no"?>
<svg
   xmlns:dc="http://purl.org/dc/elements/1.1/"
   xmlns:cc="http://creativecommons.org/ns#"
   xmlns:rdf="http://www.w3.org/1999/02/22-rdf-syntax-ns#"
   xmlns:svg="http://www.w3.org/2000/svg"
   xmlns="http://www.w3.org/2000/svg"
   xmlns:sodipodi="http://sodipodi.sourceforge.net/DTD/sodipodi-0.dtd"
   xmlns:inkscape="http://www.inkscape.org/namespaces/inkscape"
   height="512"
   viewBox="0 0 512 512"
   width="512"
   version="1.1"
   id="svg2"
   inkscape:version="0.91 r13725"
   sodipodi:docname="applications-geography.svg">
  <defs
     id="defs20" />
  <sodipodi:namedview
     pagecolor="#44443e"
     bordercolor="#666666"
     borderopacity="1"
     objecttolerance="10"
     gridtolerance="10"
     guidetolerance="10"
     inkscape:pageopacity="0"
     inkscape:pageshadow="2"
     inkscape:window-width="1680"
     inkscape:window-height="991"
     id="namedview18"
     showgrid="false"
     inkscape:zoom="2.1567534"
     inkscape:cx="139.42047"
     inkscape:cy="206.49161"
     inkscape:window-x="0"
     inkscape:window-y="0"
     inkscape:window-maximized="1"
     inkscape:current-layer="svg2" />
  <metadata
     id="metadata80">
    <rdf:RDF>
      <cc:Work
         rdf:about="">
        <dc:format>image/svg+xml</dc:format>
        <dc:type
           rdf:resource="http://purl.org/dc/dcmitype/StillImage" />
        <dc:title></dc:title>
      </cc:Work>
    </rdf:RDF>
  </metadata>
  <path
     id="path66"
     d="m 252.75657,41.443116 c -0.89496,0.551542 -6.12938,20.271737 -11.87027,44.931519 -5.92473,25.455885 -11.56155,47.297255 -12.57445,48.509605 -0.2168,0.2619 -0.68162,0.58103 -1.24703,0.92097 -45.77792,10.28329 -81.88131,46.02073 -92.68666,91.59918 -0.0173,0.0729 -0.0382,0.14395 -0.0537,0.2168 -1.92867,4.72452 -3.46535,5.51541 -7.8586,6.66706 -3.5035,0.9175 -23.95735,5.70446 -45.424093,10.62323 -21.463275,4.91878 -39.613833,9.47333 -40.324939,10.13587 -0.711106,0.66254 18.410719,5.76517 42.492943,11.32741 24.082229,5.56397 45.389409,11.05511 47.314589,12.24491 1.06667,0.65734 2.36227,2.51488 3.63185,4.93264 10.63192,46.35374 47.39785,82.71729 93.98747,92.73869 5.81546,3.83477 6.60462,9.58779 11.1661,28.8345 3.5035,14.75806 8.48298,36.20399 11.11061,47.64239 3.54512,15.42928 5.17893,19.90405 6.23345,17.34407 0.78048,-1.89744 5.72007,-22.2004 11.00307,-45.09456 5.283,-22.89416 10.25554,-43.09132 11.00308,-44.87776 0.62611,-1.49505 3.96831,-3.48615 9.48546,-5.85362 40.16884,-11.50603 71.93448,-42.86757 83.96259,-82.81787 0.4735,-1.57484 0.88976,-3.16877 1.3008,-4.76963 -0.41278,1.60781 -0.82557,3.18958 -1.3008,4.76963 1.68931,-5.22057 4.02383,-9.83756 5.36626,-10.35267 1.38925,-0.53421 22.93924,-5.69927 47.85919,-11.49045 24.91995,-5.79117 45.58019,-10.77933 45.908,-11.1106 0.81343,-0.80477 -5.97677,-2.56692 -50.89441,-12.95428 -20.98632,-4.85286 -39.62424,-9.40395 -41.40895,-10.13587 -1.23663,-0.50644 -2.82188,-2.85483 -4.66208,-6.72082 -0.0122,-0.0243 -0.0433,-0.0312 -0.0537,-0.0537 -10.81576,-47.83318 -49.42363,-85.08995 -97.99394,-93.86605 -0.43186,-0.49604 -0.74752,-1.02677 -0.97647,-1.57137 -0.85852,-2.05701 -6.01318,-23.25144 -11.43667,-47.106467 -5.42349,-23.848083 -10.37002,-43.935972 -11.00307,-44.660954 -0.0191,-0.02255 -0.026,-0.01735 -0.0537,0 m 1.40834,91.326871 c 2.12291,0 4.24583,0.052 6.34098,0.16305 -2.09862,-0.10585 -4.21634,-0.16305 -6.34098,-0.16305 -1.70666,0 -3.40463,0.0399 -5.09569,0.10927 1.69279,-0.0711 3.38557,-0.10927 5.09569,-0.10927 m -7.42499,0.27058 c -1.72921,0.10231 -3.43933,0.2064 -5.14946,0.37983 -1.52453,0.15436 -3.04561,0.33128 -4.5528,0.54287 1.51239,-0.21333 3.02306,-0.3833 4.5528,-0.54287 1.70839,-0.17691 3.42025,-0.27403 5.14946,-0.37983 m 7.42499,32.68314 c 49.81041,0 90.18911,40.37871 90.18911,90.18912 0,49.8104 -40.3787,90.1891 -90.18911,90.1891 -49.81041,0 -90.18911,-40.3787 -90.18911,-90.1891 0,-49.81041 40.3787,-90.18912 90.18911,-90.18912 m -122.55327,78.10026 c -0.15436,1.58524 -0.28618,3.16702 -0.37984,4.76961 0.0972,-1.60606 0.22028,-3.1809 0.37984,-4.76961 m 245.0889,0.16303 c 0.1561,1.56964 0.28445,3.12887 0.37984,4.71585 -0.0919,-1.58525 -0.22894,-3.14621 -0.37984,-4.71585 m -245.52251,6.12419 c -0.0885,1.92172 -0.16303,3.85558 -0.16303,5.79985 0,1.81593 0.085,3.62317 0.16303,5.42002 -0.0797,-1.7899 -0.16303,-3.60929 -0.16303,-5.42002 0,-1.9408 0.0712,-3.87986 0.16303,-5.79985 m 246.00815,0.59663 c 0.0746,1.72054 0.10927,3.46535 0.10927,5.20322 0,-1.75175 -0.0364,-3.46881 -0.10927,-5.20322 m -245.95611,12.30387 c 0.1023,1.80379 0.25496,3.58329 0.4336,5.36626 -0.18384,-1.78991 -0.32954,-3.5538 -0.4336,-5.36626 m 245.85205,0.16305 c -0.10402,1.77776 -0.25496,3.55553 -0.43361,5.31248 -0.14915,1.46384 -0.34341,2.94155 -0.54286,4.38978 0.20118,-1.45516 0.39198,-2.91901 0.54286,-4.38978 0.17865,-1.7639 0.32954,-3.52605 0.43361,-5.31248 m -1.51761,13.27861 c -0.18385,1.0944 -0.38504,2.168 -0.59664,3.25201 0.2116,-1.07707 0.41279,-2.16454 0.59664,-3.25201 M 241.58353,378.40525 c 1.96335,0.19945 3.91976,0.38156 5.90738,0.48736 -1.98589,-0.10756 -3.9475,-0.28791 -5.90738,-0.48736 m 6.23346,0.48736 c 2.09862,0.10585 4.21634,0.16303 6.34098,0.16303 2.01711,0 4.02382,-0.0659 6.01666,-0.16303 -1.99631,0.0972 -3.99781,0.16303 -6.01666,0.16303 -2.12118,0 -4.24583,-0.0555 -6.34098,-0.16303"
     inkscape:connector-curvature="0"
     style="fill:#009688" />
  <path
     style="fill:#009688"
     inkscape:connector-curvature="0"
     d="m 237.27,238.95 c 37.435,-30.23 -0.097,-0.034 37.36,-30.13 99.78,-81.57 0.438,0.088 99.87,-81.85 -88.84,125.7 -61.965,88.4 -89.23,126.48 -7.272,10.175 -13.783,18.5 -14.468,18.5 -33.637,-32.76 -0.104,-0.121 -33.523,-33"
     id="path72" />
  <path
     style="fill:#009688"
     inkscape:connector-curvature="0"
     d="m 271.95,271.25 c -37.03,30.721 0.097,0.033 -36.956,30.626 -98.69,82.88 -0.439,-0.082 -98.78,83.16 87.17,-126.86 60.792,-89.22 87.55,-127.65 7.137,-10.27 13.537,-18.68 14.223,-18.689 34.07,32.31 0.106,0.12 33.956,32.554"
     id="path74" />
</svg>
