<?xml version="1.0" encoding="UTF-8" standalone="no"?>
<svg
   xmlns:dc="http://purl.org/dc/elements/1.1/"
   xmlns:cc="http://creativecommons.org/ns#"
   xmlns:rdf="http://www.w3.org/1999/02/22-rdf-syntax-ns#"
   xmlns:svg="http://www.w3.org/2000/svg"
   xmlns="http://www.w3.org/2000/svg"
   xmlns:sodipodi="http://sodipodi.sourceforge.net/DTD/sodipodi-0.dtd"
   xmlns:inkscape="http://www.inkscape.org/namespaces/inkscape"
   viewBox="0 0 512 512"
   height="512"
   width="512"
   version="1.1"
   id="svg2"
   inkscape:version="0.91 r13725"
   sodipodi:docname="preferences-desktop-accessibility.svg">
  <sodipodi:namedview
     pagecolor="#ffffff"
     bordercolor="#666666"
     borderopacity="1"
     objecttolerance="10"
     gridtolerance="10"
     guidetolerance="10"
     inkscape:pageopacity="0"
     inkscape:pageshadow="2"
     inkscape:window-width="1920"
     inkscape:window-height="1020"
     id="namedview24"
     showgrid="false"
     inkscape:zoom="0.91443723"
     inkscape:cx="-106.45887"
     inkscape:cy="122.19627"
     inkscape:window-x="0"
     inkscape:window-y="0"
     inkscape:window-maximized="1"
     inkscape:current-layer="svg2" />
  <metadata
     id="metadata605">
    <rdf:RDF>
      <cc:Work
         rdf:about="">
        <dc:format>image/svg+xml</dc:format>
        <dc:type
           rdf:resource="http://purl.org/dc/dcmitype/StillImage" />
        <dc:title></dc:title>
      </cc:Work>
    </rdf:RDF>
  </metadata>
  <defs
     id="defs4">
    <linearGradient
       gradientUnits="userSpaceOnUse"
       id="0-4"
       y2="471.66"
       x2="0"
       y1="33.753">
      <stop
         id="stop7-7"
         stop-color="#6a6a6a" />
      <stop
         offset="0.47"
         id="stop9-4" />
      <stop
         offset="0.494"
         id="stop11-4"
         stop-color="#ffffff" />
      <stop
         offset="0.901"
         id="stop13-9"
         stop-color="#ffffff" />
      <stop
         offset="0.955"
         id="stop15-3" />
      <stop
         offset="1"
         id="stop17-1" />
    </linearGradient>
  </defs>
  <path
     inkscape:connector-curvature="0"
     style="fill:#009688"
     id="path20"
     d="m 307.26709,109.29172 c 0,24.56542 -19.49158,44.50218 -43.50424,44.50218 -24.01636,0 -43.50423,-19.93429 -43.50423,-44.50218 0,-24.565427 19.49158,-44.502188 43.50423,-44.502188 24.01637,0 43.50424,19.934288 43.50424,44.502188 m 108.58746,47.32538 c -2.01198,0.33265 -3.72223,0.88666 -5.7342,1.22302 L 261.70141,182.68378 113.88842,156.76302 c -4.68678,-0.82235 -9.19302,-1.79433 -13.46306,0.31039 -4.270048,2.10473 -7.068515,7.09325 -7.127873,11.83939 -0.05565,4.74738 2.911,8.84058 7.127873,11.05042 l 115.82168,37.5833 -0.79267,86.27888 -40.87024,129.21425 c -3.93615,5.88383 -2.73663,13.44081 3.16822,17.36212 5.90485,3.92379 14.278,2.72798 18.21415,-3.15708 l 65.96121,-139.47819 64.71224,139.24323 c 3.49963,6.10271 11.29898,8.22351 17.42395,4.73625 6.12374,-3.48727 8.25072,-11.26065 4.75109,-17.36213 l -40.11219,-129.77073 -0.0557,-85.04225 115.92061,-40.06396 c 4.74614,-3.31661 6.80758,-9.59616 4.75232,-15.00018 -2.05526,-5.40032 -7.70413,-8.54751 -13.46306,-7.89334 z" />
</svg>
