<?xml version="1.0" encoding="UTF-8" standalone="no"?>
<svg
   xmlns:dc="http://purl.org/dc/elements/1.1/"
   xmlns:cc="http://creativecommons.org/ns#"
   xmlns:rdf="http://www.w3.org/1999/02/22-rdf-syntax-ns#"
   xmlns:svg="http://www.w3.org/2000/svg"
   xmlns="http://www.w3.org/2000/svg"
   xmlns:sodipodi="http://sodipodi.sourceforge.net/DTD/sodipodi-0.dtd"
   xmlns:inkscape="http://www.inkscape.org/namespaces/inkscape"
   height="512"
   viewBox="0 0 512 512"
   width="512"
   version="1.1"
   id="svg2"
   inkscape:version="0.91 r13725"
   sodipodi:docname="preferences-mail.svg">
  <defs
     id="defs17" />
  <sodipodi:namedview
     pagecolor="#ffffff"
     bordercolor="#666666"
     borderopacity="1"
     objecttolerance="10"
     gridtolerance="10"
     guidetolerance="10"
     inkscape:pageopacity="0"
     inkscape:pageshadow="2"
     inkscape:window-width="1920"
     inkscape:window-height="1020"
     id="namedview15"
     showgrid="false"
     inkscape:zoom="0.85183911"
     inkscape:cx="5.3570104"
     inkscape:cy="311.44793"
     inkscape:window-x="0"
     inkscape:window-y="0"
     inkscape:window-maximized="1"
     inkscape:current-layer="svg2" />
  <metadata
     id="metadata28">
    <rdf:RDF>
      <cc:Work
         rdf:about="">
        <dc:format>image/svg+xml</dc:format>
        <dc:type
           rdf:resource="http://purl.org/dc/dcmitype/StillImage" />
        <dc:title />
      </cc:Work>
    </rdf:RDF>
  </metadata>
  <g
     style="fill-opacity:0.12900002;fill-rule:evenodd"
     id="g10"
     transform="matrix(1.3601225,0,0,1.3601225,-91.284024,-86.885886)" />
  <path
     style="fill:#009688;fill-opacity:1;fill-rule:nonzero;stroke:none"
     d="m 381.17525,213.7251 0,77.10992 -92.54411,0 0,38.73692 c 8.45661,3.33945 14.46457,11.57669 14.46457,21.2041 0,12.66373 -10.23092,22.87768 -22.80329,22.87768 -12.66374,0 -22.88035,-10.23223 -22.88035,-22.87768 0,-9.02629 5.28992,-16.82247 12.94507,-20.51606 l 0,-39.42496 -36.57188,0 0,131.10837 -18.274,0 0,-131.10837 -35.79619,0 0,48.19667 c 8.08676,3.53605 13.73937,11.62411 13.73937,21.02612 0,12.5541 -10.21599,22.75017 -22.84316,22.75017 -12.5541,0 -22.84048,-10.21435 -22.84048,-22.75017 0,-9.34944 5.64622,-17.41231 13.67029,-20.97564 l 0,-48.24715 -40.43443,0 0,-73.93542 -23.626812,15.75298 0,185.82674 c 0,22.29881 0.06107,22.30654 23.196452,22.30654 l 0.0239,0 265.90927,0 c 23.11592,0 23.07161,0.004 23.07161,-22.30654 l 0,-185.82674 -28.40584,-18.92748 z m -46.09805,83.01528 c 12.62719,0 22.84048,10.21331 22.84048,22.8405 0,9.32138 -5.6362,17.38313 -13.70482,20.92252 l 0,87.80759 -18.27398,0 0,-87.80759 c -8.06836,-3.53983 -13.70484,-11.60189 -13.70484,-20.92252 0,-12.62719 10.21597,-22.8405 22.84316,-22.8405 z"
     id="path41"
     inkscape:connector-curvature="0" />
  <path
     style="fill:#009688;fill-opacity:1;fill-rule:nonzero;stroke:none"
     d="m 131.77342,41.749295 0,239.891605 29.7022,0 0,-72.61513 18.27398,0 0,72.61513 36.54799,0 0,-28.83884 c -8.06996,-3.52124 -13.70749,-11.55707 -13.70749,-20.93314 0,-12.62719 10.21597,-22.84315 22.84316,-22.84315 12.62719,0 22.84315,10.21596 22.84315,22.84315 0,9.37607 -5.63754,17.4119 -13.70749,20.93314 l 0,28.83884 36.54799,0 0,-72.61513 18.27398,0 0,72.61513 82.27413,0 0,-239.891605 -239.8916,0 z m 28.25175,23.988097 87.43038,0 c 2.33893,0 4.23976,1.924737 4.23976,4.263671 l 0,3.466708 c 0,2.338948 -1.90083,4.23976 -4.23976,4.23976 l -87.43038,0 c -2.33894,0 -4.26365,-1.900812 -4.26365,-4.23976 l 0,-3.466708 c 0,-2.338934 1.92471,-4.263671 4.26365,-4.263671 z m 0,23.9881 135.40658,0 c 2.33893,0 4.24241,1.924709 4.24241,4.263671 l 0,3.469374 c 0,2.338948 -1.90348,4.239743 -4.24241,4.239743 l -135.40658,0 c -2.33894,0 -4.26365,-1.900795 -4.26365,-4.239743 l 0,-3.469374 c 0,-2.338962 1.92471,-4.263671 4.26365,-4.263671 z m 0,23.990748 183.38543,0 c 2.33895,0 4.23976,1.92474 4.23976,4.26368 l 0,3.46672 c 0,2.33893 -1.90081,4.23974 -4.23976,4.23974 l -183.38543,0 c -2.33894,0 -4.26365,-1.90082 -4.26365,-4.23974 l 0,-3.46672 c 0,-2.33894 1.92471,-4.26368 4.26365,-4.26368 z"
     id="path43-3"
     inkscape:connector-curvature="0" />
</svg>
