<?xml version="1.0" encoding="UTF-8" standalone="no"?>
<svg
   xmlns:dc="http://purl.org/dc/elements/1.1/"
   xmlns:cc="http://creativecommons.org/ns#"
   xmlns:rdf="http://www.w3.org/1999/02/22-rdf-syntax-ns#"
   xmlns:svg="http://www.w3.org/2000/svg"
   xmlns="http://www.w3.org/2000/svg"
   xmlns:sodipodi="http://sodipodi.sourceforge.net/DTD/sodipodi-0.dtd"
   xmlns:inkscape="http://www.inkscape.org/namespaces/inkscape"
   width="512"
   height="512"
   viewBox="0 0 135.46666 135.46666"
   version="1.1"
   id="svg2"
   inkscape:version="0.91 r13725"
   sodipodi:docname="preferences-desktop-display.svg">
  <defs
     id="defs22" />
  <sodipodi:namedview
     pagecolor="#ffffff"
     bordercolor="#666666"
     borderopacity="1"
     objecttolerance="10"
     gridtolerance="10"
     guidetolerance="10"
     inkscape:pageopacity="0"
     inkscape:pageshadow="2"
     inkscape:window-width="1920"
     inkscape:window-height="1020"
     id="namedview20"
     showgrid="false"
     inkscape:zoom="0.91443723"
     inkscape:cx="-114.23013"
     inkscape:cy="167.82148"
     inkscape:window-x="0"
     inkscape:window-y="0"
     inkscape:window-maximized="1"
     inkscape:current-layer="layer1" />
  <metadata
     id="metadata9615">
    <rdf:RDF>
      <cc:Work
         rdf:about="">
        <dc:format>image/svg+xml</dc:format>
        <dc:type
           rdf:resource="http://purl.org/dc/dcmitype/StillImage" />
        <dc:title></dc:title>
      </cc:Work>
    </rdf:RDF>
  </metadata>
  <g
     inkscape:label="Layer 1"
     inkscape:groupmode="layer"
     id="layer1"
     transform="translate(0,-161.53335)">
    <g
       id="g4201"
       transform="matrix(1.1890597,0,0,1.1890597,-12.807601,-43.34515)">
      <path
         id="path12500"
         transform="matrix(0.26458333,0,0,0.26458333,0,161.53335)"
         d="m 147.90039,120.99609 c -29.551,0 -53.820312,29.04993 -53.820312,64.41993 l 0,141.16992 c 0,35.36999 24.269312,64.41992 53.820312,64.41992 l 216.2793,0 c 29.551,0 53.81836,-29.04993 53.81836,-64.41992 l 0,-141.16992 c 0,-35.37 -24.26736,-64.41993 -53.81836,-64.41993 l -216.2793,0 z m 79.45703,30.96485 c 46.07852,-0.0153 92.16758,0.15234 138.23633,0.043 l -0.008,0.002 c 15.43699,-0.648 26.33526,14.28945 28.40625,28.18945 1.27101,50.66 0.21465,101.42009 0.55859,152.1211 1.17003,15.855 -6.93484,34.76649 -23.58984,38.5625 -73.22001,1.06798 -146.56984,0.17193 -219.83985,0.46484 -16.095,1.737 -28.55699,-13.52537 -30.5,-28.40234 -1.22999,-50.96002 -0.26725,-102.00699 -0.53125,-153 -1.12599,-15.705 7.57075,-34.44528 24.34375,-37.65625 27.63376,-0.23939 55.27672,-0.31503 82.92383,-0.32422 z"
         style="fill:#009688"
         inkscape:connector-curvature="0" />
      <path
         d="m 41.842535,204.02872 c -4.659313,0.29607 -7.599892,5.26441 -7.329223,9.59114 0.237596,12.97517 -0.221985,25.32592 0.11086,36.57601 15.499292,-14.91986 33.686751,-32.37707 47.52446,-46.17774 -13.434219,0.002 -26.871084,-0.006 -40.306626,0.008"
         id="path12504"
         inkscape:connector-curvature="0"
         style="fill:#009688" />
    </g>
  </g>
</svg>
