<?xml version="1.0" encoding="UTF-8" standalone="no"?>
<svg
   xmlns:dc="http://purl.org/dc/elements/1.1/"
   xmlns:cc="http://creativecommons.org/ns#"
   xmlns:rdf="http://www.w3.org/1999/02/22-rdf-syntax-ns#"
   xmlns:svg="http://www.w3.org/2000/svg"
   xmlns="http://www.w3.org/2000/svg"
   xmlns:sodipodi="http://sodipodi.sourceforge.net/DTD/sodipodi-0.dtd"
   xmlns:inkscape="http://www.inkscape.org/namespaces/inkscape"
   height="512"
   viewBox="0 0 512 512"
   width="512"
   version="1.1"
   id="svg2"
   inkscape:version="0.91 r13725"
   sodipodi:docname="preferences-calendar-and-tasks.svg">
  <defs
     id="defs17" />
  <sodipodi:namedview
     pagecolor="#ffffff"
     bordercolor="#666666"
     borderopacity="1"
     objecttolerance="10"
     gridtolerance="10"
     guidetolerance="10"
     inkscape:pageopacity="0"
     inkscape:pageshadow="2"
     inkscape:window-width="1920"
     inkscape:window-height="1020"
     id="namedview15"
     showgrid="false"
     inkscape:zoom="1.0783767"
     inkscape:cx="131.63342"
     inkscape:cy="223.47292"
     inkscape:window-x="0"
     inkscape:window-y="0"
     inkscape:window-maximized="1"
     inkscape:current-layer="svg2" />
  <metadata
     id="metadata28">
    <rdf:RDF>
      <cc:Work
         rdf:about="">
        <dc:format>image/svg+xml</dc:format>
        <dc:type
           rdf:resource="http://purl.org/dc/dcmitype/StillImage" />
        <dc:title />
      </cc:Work>
    </rdf:RDF>
  </metadata>
  <path
     inkscape:connector-curvature="0"
     style="fill:#009688"
     id="path6191"
     d="m 82.920764,84.44857 0,64.02429 341.306496,0 0,-64.02429 -341.306496,0 z m 86.264996,15.522225 c 9.09177,0 16.49448,7.321515 16.49448,16.413675 0,9.09178 -7.40297,16.49449 -16.49448,16.49449 -9.09178,0 -16.49448,-7.40297 -16.49448,-16.49449 0,-9.09177 7.40296,-16.413675 16.49448,-16.413675 z m 168.7374,0 c 9.09178,0 16.45408,7.321515 16.45408,16.413675 0,9.09178 -7.3623,16.49449 -16.45408,16.49449 -9.09177,0 -16.45408,-7.40297 -16.45408,-16.49449 0,-9.09177 7.36231,-16.413675 16.45408,-16.413675 z M 96.31862,165.6242 l 0,261.51887 55.7966,0 c 38.22429,-21.32579 76.42774,-42.68286 114.64942,-64.02429 l 0,-27.8983 c 6.93352,3.46676 13.76278,6.06292 20.56728,7.86042 3.89841,0.98373 7.78457,1.64867 11.60739,2.07719 12.97833,-7.24005 25.99549,-14.43919 38.97629,-21.66725 -0.61579,-5.32109 -3.29954,-9.44145 -7.98267,-12.34063 -5.32864,-3.40251 -13.23885,-5.09092 -23.7043,-5.09092 l -14.82496,0 0,-23.90762 15.59912,0 c 9.30877,9e-5 16.25337,-1.42815 20.81229,-4.31716 4.55801,-2.953 6.8015,-7.38811 6.80163,-13.35876 -8e-5,-5.52101 -2.1275,-9.77105 -6.55713,-12.78856 -4.42977,-3.01726 -10.72728,-4.5614 -18.81695,-4.56153 -5.97065,1.4e-4 -12.0251,0.64761 -18.1236,1.9956 -6.09889,1.34826 -12.21134,3.35494 -18.24611,5.98707 l 0,-27.20625 c 7.31864,-2.05425 14.59949,-3.53414 21.78976,-4.56153 7.19027,-1.02703 14.3258,-1.54753 21.25933,-1.54766 18.6814,1.3e-4 32.58233,3.08229 41.8279,9.24531 9.30877,6.09902 14.0104,15.32803 14.0104,27.65458 -1.2e-4,8.41015 -2.20895,15.29676 -6.63872,20.68978 -4.42989,5.32865 -11.04554,9.05815 -19.71231,11.24091 9.69403,2.50389 17.10703,6.92779 22.11559,13.15544 2.58521,3.14172 4.48294,6.73503 5.74257,10.75218 10.31413,18.47679 20.63244,36.95749 30.95322,55.43037 l 6.59792,-1.79203 0,-202.54484 -314.497744,0 z m 84.83659,56.16413 c 17.20477,1.3e-4 30.53355,3.74697 40.03587,11.32236 9.56565,7.57566 14.37663,18.18095 14.37663,31.72738 -1.3e-4,7.8324 -2.06468,15.18858 -6.10919,21.99308 -4.04464,6.74102 -12.52752,15.72032 -25.49503,27.08374 l -30.7082,27.00294 63.29054,0 0,27.24665 -104.46679,0 0,-27.24665 52.45756,-46.30732 c 4.68651,-4.23701 8.13855,-8.41811 10.38569,-12.46275 2.24687,-4.04451 3.38035,-8.17856 3.38048,-12.5442 -9e-5,-6.74089 -2.28428,-12.22307 -6.84229,-16.33157 -4.49402,-4.10863 -10.49047,-6.14972 -18.00109,-6.14998 -5.77802,1.4e-4 -12.10994,1.24329 -18.97856,3.74697 -6.86927,2.43977 -14.20199,6.11753 -22.03348,10.99654 l 0,-31.56447 c 8.3459,-2.76037 16.60917,-4.90025 24.76257,-6.31289 8.15328,-1.47637 16.11523,-2.19918 23.94802,-2.19931 z m 184.62455,94.8146 -198.06151,110.53493 22.93014,0 206.0507,-55.19448 -30.91412,-55.33784 z" />
</svg>
