<svg xmlns="http://www.w3.org/2000/svg" width="16" height="16" version="1.1">
 <defs>
   <style id="current-color-scheme" type="text/css">
   .ColorScheme-Text { color: #939597; } .ColorScheme-Highlight { color: #5294e2; }
  </style>
  <linearGradient id="arrongin" x1="0%" x2="0%" y1="0%" y2="100%">
   <stop offset="0%" style="stop-color: #dd9b44; stop-opacity: 1"/>
   <stop offset="100%" style="stop-color: #ad6c16; stop-opacity: 1"/>
  </linearGradient>
  <linearGradient id="aurora" x1="0%" x2="0%" y1="0%" y2="100%">
   <stop offset="0%" style="stop-color: #09D4DF; stop-opacity: 1"/>
   <stop offset="100%" style="stop-color: #9269F4; stop-opacity: 1"/>
  </linearGradient>
  <linearGradient id="cyberneon" x1="0%" x2="0%" y1="0%" y2="100%">
    <stop offset="0" style="stop-color: #0abdc6; stop-opacity: 1"/>
    <stop offset="1" style="stop-color: #ea00d9; stop-opacity: 1"/>
  </linearGradient>
  <linearGradient id="fitdance" x1="0%" x2="0%" y1="0%" y2="100%">
   <stop offset="0%" style="stop-color: #1AD6AB; stop-opacity: 1"/>
   <stop offset="100%" style="stop-color: #329DB6; stop-opacity: 1"/>
  </linearGradient>
  <linearGradient id="oomox" x1="0%" x2="0%" y1="0%" y2="100%">
   <stop offset="0%" style="stop-color: #66b7ff; stop-opacity: 1"/>
   <stop offset="100%" style="stop-color: #006acc; stop-opacity: 1"/>
  </linearGradient>
  <linearGradient id="rainblue" x1="0%" x2="0%" y1="0%" y2="100%">
   <stop offset="0%" style="stop-color: #00F260; stop-opacity: 1"/>
   <stop offset="100%" style="stop-color: #0575E6; stop-opacity: 1"/>
  </linearGradient>
  <linearGradient id="sunrise" x1="0%" x2="0%" y1="0%" y2="100%">
   <stop offset="0%" style="stop-color: #FF8501; stop-opacity: 1"/>
   <stop offset="100%" style="stop-color: #FFCB01; stop-opacity: 1"/>
  </linearGradient>
  <linearGradient id="telinkrin" x1="0%" x2="0%" y1="0%" y2="100%">
   <stop offset="0%" style="stop-color: #b2ced6; stop-opacity: 1"/>
   <stop offset="100%" style="stop-color: #6da5b7; stop-opacity: 1"/>
  </linearGradient>
  <linearGradient id="60spsycho" x1="0%" x2="0%" y1="0%" y2="100%">
   <stop offset="0%" style="stop-color: #df5940; stop-opacity: 1"/>
   <stop offset="25%" style="stop-color: #d8d15f; stop-opacity: 1"/>
   <stop offset="50%" style="stop-color: #e9882a; stop-opacity: 1"/>
   <stop offset="100%" style="stop-color: #279362; stop-opacity: 1"/>
  </linearGradient>
  <linearGradient id="90ssummer" x1="0%" x2="0%" y1="0%" y2="100%">
   <stop offset="0%" style="stop-color: #f618c7; stop-opacity: 1"/>
   <stop offset="20%" style="stop-color: #94ffab; stop-opacity: 1"/>
   <stop offset="50%" style="stop-color: #fbfd54; stop-opacity: 1"/>
   <stop offset="100%" style="stop-color: #0f83ae; stop-opacity: 1"/>
  </linearGradient>
 </defs>
 <path fill="url(#oomox)" class="ColorScheme-Text" d="m 2.6303665,1.3293021e-5 c 0,0 -0.6348629,-0.007254003 -1.2864104,0.318520096979 C 0.69240857,0.64430719 6.5e-6,1.402872 6.5e-6,2.6303734 V 8.1089201 L 7.8910866,16 15.999994,7.8910934 8.1089132,1.3293021e-5 Z m 0,1.052144106979 H 7.6732599 L 14.512197,7.8910934 7.8910866,14.512203 1.0521505,7.6732667 V 2.6303734 c 0,-0.8767868 0.3597419,-1.170366 0.7603384,-1.3706642 C 2.2130855,1.059411 2.6303665,1.0521573 2.6303665,1.0521574 Z m 1.052144,1.052144 c -0.8653939,0 -1.578216,0.712822 -1.578216,1.578216 0,0.8653939 0.7128221,1.578216 1.578216,1.578216 0.8653939,0 1.578216,-0.7128221 1.578216,-1.578216 0,-0.865394 -0.7128221,-1.578216 -1.578216,-1.578216 z m 0,1.052144 c 0.2967623,0 0.526072,0.2293097 0.526072,0.526072 0,0.2967621 -0.2293097,0.526072 -0.526072,0.526072 -0.2967622,0 -0.526072,-0.2293099 -0.526072,-0.526072 0,-0.2967623 0.2293098,-0.5260721 0.526072,-0.526072 z"/>
</svg>
