<svg xmlns="http://www.w3.org/2000/svg" width="16" height="16" version="1.1">
 <defs>
   <style id="current-color-scheme" type="text/css">
   .ColorScheme-Text { color: #939597; } .ColorScheme-Highlight { color:#5294e2; }
  </style>
  <linearGradient id="arrongin" x1="0%" x2="0%" y1="0%" y2="100%">
   <stop offset="0%" style="stop-color:#dd9b44; stop-opacity:1"/>
   <stop offset="100%" style="stop-color:#ad6c16; stop-opacity:1"/>
  </linearGradient>
  <linearGradient id="aurora" x1="0%" x2="0%" y1="0%" y2="100%">
   <stop offset="0%" style="stop-color:#09D4DF; stop-opacity:1"/>
   <stop offset="100%" style="stop-color:#9269F4; stop-opacity:1"/>
  </linearGradient>
  <linearGradient id="cyberneon" x1="0%" x2="0%" y1="0%" y2="100%">
    <stop offset="0" style="stop-color:#0abdc6; stop-opacity:1"/>
    <stop offset="1" style="stop-color:#ea00d9; stop-opacity:1"/>
  </linearGradient>
  <linearGradient id="fitdance" x1="0%" x2="0%" y1="0%" y2="100%">
   <stop offset="0%" style="stop-color:#1AD6AB; stop-opacity:1"/>
   <stop offset="100%" style="stop-color:#329DB6; stop-opacity:1"/>
  </linearGradient>
  <linearGradient id="oomox" x1="0%" x2="0%" y1="0%" y2="100%">
   <stop offset="0%" style="stop-color:#f27979; stop-opacity:1"/>
   <stop offset="100%" style="stop-color:#9e2121; stop-opacity:1"/>
  </linearGradient>
  <linearGradient id="rainblue" x1="0%" x2="0%" y1="0%" y2="100%">
   <stop offset="0%" style="stop-color:#00F260; stop-opacity:1"/>
   <stop offset="100%" style="stop-color:#0575E6; stop-opacity:1"/>
  </linearGradient>
  <linearGradient id="sunrise" x1="0%" x2="0%" y1="0%" y2="100%">
   <stop offset="0%" style="stop-color: #FF8501; stop-opacity:1"/>
   <stop offset="100%" style="stop-color: #FFCB01; stop-opacity:1"/>
  </linearGradient>
  <linearGradient id="telinkrin" x1="0%" x2="0%" y1="0%" y2="100%">
   <stop offset="0%" style="stop-color: #b2ced6; stop-opacity:1"/>
   <stop offset="100%" style="stop-color: #6da5b7; stop-opacity:1"/>
  </linearGradient>
  <linearGradient id="60spsycho" x1="0%" x2="0%" y1="0%" y2="100%">
   <stop offset="0%" style="stop-color: #df5940; stop-opacity:1"/>
   <stop offset="25%" style="stop-color: #d8d15f; stop-opacity:1"/>
   <stop offset="50%" style="stop-color: #e9882a; stop-opacity:1"/>
   <stop offset="100%" style="stop-color: #279362; stop-opacity:1"/>
  </linearGradient>
  <linearGradient id="90ssummer" x1="0%" x2="0%" y1="0%" y2="100%">
   <stop offset="0%" style="stop-color: #f618c7; stop-opacity:1"/>
   <stop offset="20%" style="stop-color: #94ffab; stop-opacity:1"/>
   <stop offset="50%" style="stop-color: #fbfd54; stop-opacity:1"/>
   <stop offset="100%" style="stop-color: #0f83ae; stop-opacity:1"/>
  </linearGradient>
 </defs>
 <path fill="url(#oomox)" class="ColorScheme-Text" d="m 8.0001859,1.5e-5 c -0.9895791,0 -1.7896444,0.79495 -1.7893489,1.77621 -2.269e-4,0.7625 0.6880483,1.39233 1.3683258,1.64464 8.582e-4,0.12255 -8.583e-4,0.2455 0,0.36845 H 4.4083335 c -0.1099098,0 -0.197358,0.0875 -0.197358,0.19713 v 0.44729 c 0,0.11005 0.087444,0.19713 0.197358,0.19713 h 3.1708293 c 0.014432,2.86793 0.018019,5.7366 0,8.60465 0.00431,0.0706 -0.2317923,0.1423 -0.2894542,0.18423 -0.1631738,0.12134 -0.3520906,0.16568 -0.5525958,0.17092 -0.3188454,-0.002 -0.5238123,-0.0875 -0.8288881,-0.17092 -0.688957,-0.19995 -1.3421494,-0.48084 -1.9735437,-0.81575 -0.2658355,-0.14633 -0.5265785,-0.28379 -0.7631039,-0.47366 -0.1019419,-0.0867 -0.2213367,-0.21245 -0.2105186,-0.35515 0.013702,-0.10803 0.064367,-0.21728 0.184195,-0.23703 0.108,-0.0161 0.207093,0.0282 0.3026164,0.0657 0.082325,0.0363 0.1447453,-0.0504 0.1315831,-0.11812 -0.013343,-0.17938 -0.077636,-0.34466 -0.1710329,-0.49998 -0.1943279,-0.31766 -0.4921734,-0.55997 -0.8025751,-0.7631 -0.3314284,-0.21043 -0.6847127,-0.43997 -0.8946762,-0.77625 -0.041758,-0.0621 -0.090619,-0.16487 -0.1841951,-0.13141 -0.1301049,0.0419 -0.1994124,0.16689 -0.2631307,0.27613 -0.1792549,0.33902 -0.27441711,0.70707 -0.35522798,1.07891 -0.0664587,0.29588 -0.0758344,0.60636 -0.0526116,0.90782 0.0241588,0.30153 0.0481044,0.59987 0.17103288,0.88149 0.077421,0.18503 0.2194977,0.34185 0.355228,0.48685 0.086616,-0.0911 0.161369,-0.18705 0.2499685,-0.27614 0.1148154,-0.11448 0.2661234,-0.19309 0.434178,-0.17092 0.228729,0.0282 0.4386206,0.17092 0.6183765,0.30274 0.253214,0.19592 0.4919643,0.40191 0.749949,0.59206 0.4082223,0.30959 0.8531426,0.5299 1.3156961,0.74992 0.3853719,0.17777 0.7842136,0.35514 1.1841271,0.49998 0.071614,0.0323 0.1507658,0.0242 0.2236816,0.0528 0.7197523,0.2975 1.3306138,0.64273 1.8288202,1.26305 8.582e-4,0.008 -8.583e-4,0.0322 0,0.0403 0.00576,-0.008 0.00758,-0.008 0.01298,-0.0161 0.00576,0.008 0.00758,0.008 0.01298,0.0161 0.00397,-0.0161 -0.00361,-0.0363 0,-0.0528 0.4966447,-0.6131 1.1134348,-0.95434 1.8288202,-1.24986 0.072912,-0.0242 0.1520638,-0.0202 0.2236815,-0.0528 0.399908,-0.14472 0.798756,-0.32209 1.184126,-0.49999 0.46255,-0.2201 0.907471,-0.44 1.315696,-0.74996 0.257975,-0.18986 0.496742,-0.39626 0.749945,-0.59205 0.179758,-0.13142 0.389637,-0.27332 0.618381,-0.30234 0.168039,-0.0202 0.319349,0.0564 0.434178,0.17092 0.0886,0.0891 0.163351,0.18543 0.249968,0.27613 0.13573,-0.14512 0.277809,-0.30193 0.355227,-0.4868 0.122967,-0.28178 0.147017,-0.57992 0.171035,-0.88154 0.0231,-0.30153 0.01371,-0.61201 -0.05261,-0.90782 -0.08081,-0.37167 -0.175973,-0.73992 -0.355227,-1.07886 -0.06372,-0.10924 -0.133061,-0.23421 -0.263131,-0.27613 -0.09357,-0.0322 -0.142437,0.0693 -0.184196,0.13141 -0.209975,0.33661 -0.563266,0.56598 -0.894676,0.77625 -0.310404,0.20317 -0.608236,0.44552 -0.802575,0.7631 -0.09339,0.1552 -0.1578,0.32088 -0.171035,0.49994 -0.01334,0.0681 0.04922,0.15359 0.131582,0.11811 0.09552,-0.0363 0.19458,-0.083 0.302616,-0.0657 0.119826,0.0161 0.170422,0.12859 0.184196,0.23703 0.0108,0.1427 -0.108575,0.26848 -0.21052,0.35515 -0.236517,0.18986 -0.497272,0.32733 -0.763107,0.47362 -0.631394,0.33499 -1.284586,0.61564 -1.973543,0.81575 -0.3050667,0.0838 -0.510034,0.16931 -0.8288879,0.17092 -0.2005306,-0.008 -0.3894152,-0.0496 -0.5525958,-0.17092 -0.057662,-0.0419 -0.293961,-0.11368 -0.2894542,-0.18423 0,-5.52629 0,-6.65792 0,-8.60465 h 3.1708289 c 0.10991,0 0.197358,-0.0875 0.197358,-0.19713 v -0.44734 c 0,-0.11005 -0.08744,-0.19712 -0.197358,-0.19712 H 8.4209168 c 0,-0.0891 0,-0.27533 0,-0.36845 C 9.1011907,3.169475 9.7894732,2.539685 9.789239,1.777185 9.7895345,0.795915 8.9894656,9.75e-4 7.9998937,9.75e-4 Z m -0.039465,0.86839 c 0.4803745,0 0.8816622,0.37893 0.8815179,0.85518 1.443e-4,0.47636 -0.4011418,0.86839 -0.8815179,0.86839 -0.4803781,0 -0.8685073,-0.39183 -0.8683594,-0.86839 -1.443e-4,-0.47629 0.38798,-0.85518 0.8683594,-0.85518 z"/>
</svg>
