<svg xmlns="http://www.w3.org/2000/svg" width="16" height="16" version="1.1">
 <defs>
   <style id="current-color-scheme" type="text/css">
   .ColorScheme-Text { color: #939597; } .ColorScheme-Highlight { color:#5294e2; }
  </style>
  <linearGradient id="arrongin" x1="0%" x2="0%" y1="0%" y2="100%">
   <stop offset="0%" style="stop-color:#dd9b44; stop-opacity:1"/>
   <stop offset="100%" style="stop-color:#ad6c16; stop-opacity:1"/>
  </linearGradient>
  <linearGradient id="aurora" x1="0%" x2="0%" y1="0%" y2="100%">
   <stop offset="0%" style="stop-color:#09D4DF; stop-opacity:1"/>
   <stop offset="100%" style="stop-color:#9269F4; stop-opacity:1"/>
  </linearGradient>
  <linearGradient id="cyberneon" x1="0%" x2="0%" y1="0%" y2="100%">
    <stop offset="0" style="stop-color:#0abdc6; stop-opacity:1"/>
    <stop offset="1" style="stop-color:#ea00d9; stop-opacity:1"/>
  </linearGradient>
  <linearGradient id="fitdance" x1="0%" x2="0%" y1="0%" y2="100%">
   <stop offset="0%" style="stop-color:#1AD6AB; stop-opacity:1"/>
   <stop offset="100%" style="stop-color:#329DB6; stop-opacity:1"/>
  </linearGradient>
  <linearGradient id="oomox" x1="0%" x2="0%" y1="0%" y2="100%">
   <stop offset="0%" style="stop-color:#f27979; stop-opacity:1"/>
   <stop offset="100%" style="stop-color:#9e2121; stop-opacity:1"/>
  </linearGradient>
  <linearGradient id="rainblue" x1="0%" x2="0%" y1="0%" y2="100%">
   <stop offset="0%" style="stop-color:#00F260; stop-opacity:1"/>
   <stop offset="100%" style="stop-color:#0575E6; stop-opacity:1"/>
  </linearGradient>
  <linearGradient id="sunrise" x1="0%" x2="0%" y1="0%" y2="100%">
   <stop offset="0%" style="stop-color: #FF8501; stop-opacity:1"/>
   <stop offset="100%" style="stop-color: #FFCB01; stop-opacity:1"/>
  </linearGradient>
  <linearGradient id="telinkrin" x1="0%" x2="0%" y1="0%" y2="100%">
   <stop offset="0%" style="stop-color: #b2ced6; stop-opacity:1"/>
   <stop offset="100%" style="stop-color: #6da5b7; stop-opacity:1"/>
  </linearGradient>
  <linearGradient id="60spsycho" x1="0%" x2="0%" y1="0%" y2="100%">
   <stop offset="0%" style="stop-color: #df5940; stop-opacity:1"/>
   <stop offset="25%" style="stop-color: #d8d15f; stop-opacity:1"/>
   <stop offset="50%" style="stop-color: #e9882a; stop-opacity:1"/>
   <stop offset="100%" style="stop-color: #279362; stop-opacity:1"/>
  </linearGradient>
  <linearGradient id="90ssummer" x1="0%" x2="0%" y1="0%" y2="100%">
   <stop offset="0%" style="stop-color: #f618c7; stop-opacity:1"/>
   <stop offset="20%" style="stop-color: #94ffab; stop-opacity:1"/>
   <stop offset="50%" style="stop-color: #fbfd54; stop-opacity:1"/>
   <stop offset="100%" style="stop-color: #0f83ae; stop-opacity:1"/>
  </linearGradient>
 </defs>
 <path fill="url(#oomox)" class="ColorScheme-Text" fill-rule="evenodd" d="M 12.15625 0.001953125 C 10.420312 0.49647998 9.3370178 3.4963703 9.5234375 3.4257812 L 9.5507812 4.1210938 C 9.5620066 4.121763 9.5689345 4.1242715 9.5800781 4.125 C 8.5406678 4.0602623 7.0246923 4.3778758 6.265625 5.2949219 C 3.3866036 5.5823578 0.9353343 8.2320095 1.1582031 10.261719 C 1.3904457 12.377053 3.4598168 13.671939 3.9570312 13.800781 C 4.0755855 13.837061 4.184221 13.857241 4.2871094 13.863281 C 4.4096627 14.689629 4.9484928 15.579739 5.6113281 15.935547 C 6.1902438 16.246365 7.7109375 15.333984 7.7109375 15.333984 C 6.7132511 14.743874 6.0817511 14.165355 5.6113281 13.576172 C 6.0878567 13.544606 6.7022108 13.651157 7.3398438 13.78125 C 9.1096182 15.686763 12.094576 16.642509 13.037109 15.509766 C 12.801669 15.1413 12.387388 15.088031 11.849609 14.710938 C 11.734707 14.731098 11.634938 14.778219 11.560547 14.863281 L 11.269531 14.363281 C 11.157262 14.379411 11.063427 14.215842 10.953125 14.410156 C 10.744228 14.257368 10.757227 14.200616 10.796875 14.080078 C 10.832225 13.988968 10.876557 13.917399 10.921875 13.847656 C 11.236736 13.952472 11.57209 14.068707 11.791016 14.158203 C 11.916121 14.209403 11.812949 13.792135 11.947266 13.78125 C 12.134055 13.76512 12.17631 14.253088 12.363281 14.265625 C 12.524197 14.277725 12.592641 13.788455 12.734375 13.867188 C 12.948606 13.986113 13.765257 14.688743 13.708984 14.333984 C 13.586112 13.558952 12.618948 12.693776 12.039062 12.359375 C 11.746571 12.190864 11.184502 12.109418 10.732422 12.070312 C 10.223208 11.348297 9.3836886 10.492557 8.7265625 10.126953 C 8.6898772 10.106796 8.6549189 10.089664 8.6191406 10.070312 C 8.6817974 9.8893164 8.7492032 9.6538325 8.8144531 9.4277344 C 11.437919 8.8633389 15.444317 5.2578753 14.783203 2.1386719 C 14.611249 2.7405539 14.392907 3.1357445 14.138672 3.3886719 C 14.174672 3.2350772 14.173643 3.0658 14.126953 2.8789062 L 13.382812 3.6835938 C 13.431363 3.5465275 13.461914 3.4010759 13.427734 3.2304688 L 12.714844 3.8398438 C 12.831145 3.6906834 12.895008 3.5136982 12.878906 3.28125 C 12.882708 3.2886478 12.63701 3.4766996 12.320312 3.6835938 C 12.331873 3.5517771 12.337879 3.4226333 12.335938 3.2988281 C 12.63186 3.0484807 12.956721 2.7310845 13.046875 2.4746094 C 13.224593 1.9687544 13.385222 0.97050136 13.101562 0.57421875 C 12.958554 0.37466646 12.752266 1.2165021 12.746094 1.2851562 C 12.734764 1.4109346 12.430616 1.1525386 12.335938 1.234375 C 12.159816 1.3875667 12.327202 1.7279415 12.257812 1.71875 C 12.167053 1.702625 12.137367 1.5456309 12.046875 1.5605469 C 11.807667 1.7617118 11.673023 2.0061695 11.568359 2.2441406 C 11.501599 2.2280156 11.435368 2.2079075 11.373047 2.1796875 C 11.283087 2.1393735 11.292649 1.9009744 11.324219 1.8066406 C 11.363649 1.6885217 11.571768 1.7718252 11.626953 1.6601562 C 11.687033 1.5392154 11.57123 1.327149 11.65625 1.2226562 C 11.70636 1.1609763 11.798808 1.2480957 11.847656 1.1835938 C 12.00262 0.98470581 12.257774 -0.020761915 12.15625 0.001953125 z M 12.119141 3.8125 C 12.037045 3.8609561 11.971049 3.9029394 11.880859 3.9492188 C 11.966728 3.9051678 12.040524 3.858602 12.119141 3.8125 z M 11.822266 3.9765625 C 11.687449 4.0433504 11.549086 4.1012518 11.404297 4.1523438 C 11.547793 4.1015996 11.688548 4.0427514 11.822266 3.9765625 z M 11.277344 4.1933594 C 11.143009 4.2341827 11.009637 4.2595879 10.875 4.2753906 C 11.008784 4.2595701 11.143883 4.2339102 11.277344 4.1933594 z M 10.224609 4.2285156 C 10.232547 4.231024 10.246177 4.2298116 10.253906 4.2324219 C 10.263975 4.2358497 10.275008 4.2351409 10.285156 4.2382812 C 10.27516 4.2351842 10.263825 4.2377509 10.253906 4.234375 C 10.245503 4.2315143 10.233226 4.2312841 10.224609 4.2285156 z M 10.617188 4.2910156 C 10.655494 4.2924275 10.693642 4.2944084 10.732422 4.2929688 C 10.693319 4.2944004 10.655803 4.2924815 10.617188 4.2910156 z M 9.4042969 4.5722656 A 0.85697435 0.85697435 0 0 1 9.4277344 4.5722656 A 0.85697435 0.85697435 0 0 1 10.285156 5.4296875 A 0.85697435 0.85697435 0 0 1 9.4277344 6.2871094 A 0.85697435 0.85697435 0 0 1 8.5703125 5.4296875 A 0.85697435 0.85697435 0 0 1 9.4042969 4.5722656 z M 7.1503906 9.3886719 C 7.0429312 9.6456412 6.9214841 9.9325545 6.8671875 10.074219 C 6.3618404 10.517421 6.2078151 11.394779 6.3222656 12.087891 C 5.7203464 12.042952 5.0456317 12.116226 4.6347656 12.519531 C 4.4096384 11.991343 4.2219431 11.083332 4.6816406 10.486328 C 5.1159843 9.9222048 6.3967195 9.5083151 7.1503906 9.3886719 z"/>
</svg>
