<svg xmlns="http://www.w3.org/2000/svg" width="16" height="16" version="1.1">
 <defs>
   <style id="current-color-scheme" type="text/css">
   .ColorScheme-Text { color: #939597; } .ColorScheme-Highlight { color:#5294e2; }
  </style>
  <linearGradient id="arrongin" x1="0%" x2="0%" y1="0%" y2="100%">
   <stop offset="0%" style="stop-color:#dd9b44; stop-opacity:1"/>
   <stop offset="100%" style="stop-color:#ad6c16; stop-opacity:1"/>
  </linearGradient>
  <linearGradient id="aurora" x1="0%" x2="0%" y1="0%" y2="100%">
   <stop offset="0%" style="stop-color:#09D4DF; stop-opacity:1"/>
   <stop offset="100%" style="stop-color:#9269F4; stop-opacity:1"/>
  </linearGradient>
  <linearGradient id="cyberneon" x1="0%" x2="0%" y1="0%" y2="100%">
    <stop offset="0" style="stop-color:#0abdc6; stop-opacity:1"/>
    <stop offset="1" style="stop-color:#ea00d9; stop-opacity:1"/>
  </linearGradient>
  <linearGradient id="fitdance" x1="0%" x2="0%" y1="0%" y2="100%">
   <stop offset="0%" style="stop-color:#1AD6AB; stop-opacity:1"/>
   <stop offset="100%" style="stop-color:#329DB6; stop-opacity:1"/>
  </linearGradient>
  <linearGradient id="oomox" x1="0%" x2="0%" y1="0%" y2="100%">
   <stop offset="0%" style="stop-color:#f27979; stop-opacity:1"/>
   <stop offset="100%" style="stop-color:#9e2121; stop-opacity:1"/>
  </linearGradient>
  <linearGradient id="rainblue" x1="0%" x2="0%" y1="0%" y2="100%">
   <stop offset="0%" style="stop-color:#00F260; stop-opacity:1"/>
   <stop offset="100%" style="stop-color:#0575E6; stop-opacity:1"/>
  </linearGradient>
  <linearGradient id="sunrise" x1="0%" x2="0%" y1="0%" y2="100%">
   <stop offset="0%" style="stop-color: #FF8501; stop-opacity:1"/>
   <stop offset="100%" style="stop-color: #FFCB01; stop-opacity:1"/>
  </linearGradient>
  <linearGradient id="telinkrin" x1="0%" x2="0%" y1="0%" y2="100%">
   <stop offset="0%" style="stop-color: #b2ced6; stop-opacity:1"/>
   <stop offset="100%" style="stop-color: #6da5b7; stop-opacity:1"/>
  </linearGradient>
  <linearGradient id="60spsycho" x1="0%" x2="0%" y1="0%" y2="100%">
   <stop offset="0%" style="stop-color: #df5940; stop-opacity:1"/>
   <stop offset="25%" style="stop-color: #d8d15f; stop-opacity:1"/>
   <stop offset="50%" style="stop-color: #e9882a; stop-opacity:1"/>
   <stop offset="100%" style="stop-color: #279362; stop-opacity:1"/>
  </linearGradient>
  <linearGradient id="90ssummer" x1="0%" x2="0%" y1="0%" y2="100%">
   <stop offset="0%" style="stop-color: #f618c7; stop-opacity:1"/>
   <stop offset="20%" style="stop-color: #94ffab; stop-opacity:1"/>
   <stop offset="50%" style="stop-color: #fbfd54; stop-opacity:1"/>
   <stop offset="100%" style="stop-color: #0f83ae; stop-opacity:1"/>
  </linearGradient>
 </defs>
 <path fill="url(#oomox)" class="ColorScheme-Text" fill-rule="evenodd" d="m 11.782872,3.0018998 c -0.07698,-0.00534 -0.1674,0.00133 -0.274059,0.010689 L 6.6917017,3.764388 C 6.14822,3.8197203 6.0891235,4.073433 6.0939614,4.3895883 V 10.751132 C 5.8177368,10.569659 5.5221208,10.440497 5.1281979,10.440497 c -0.5072514,0 -0.8100707,0.194451 -0.9931869,0.450303 -0.1831028,0.255837 -0.2440569,0.578195 -0.2440569,0.827483 0,0.300611 0.1037065,0.62087 0.3262868,0.865347 0.2226341,0.244491 0.5649713,0.416355 1.0571212,0.416369 0.55575,0 0.9457706,-0.155024 1.166761,-0.458136 0.1739884,-0.238636 0.2710525,-0.558226 0.3053851,-0.951485 0.00534,-0.04771 0.00802,-0.09703 0.010688,-0.147486 0.00268,-0.0401 0.00268,-0.06802 0.00268,-0.114814 h 0.00268 V 6.1803732 C 6.7773795,5.7664644 7.1527664,5.7052782 7.1527664,5.7052782 L 11.064146,5.0944456 c 0.375481,-0.1148078 0.375868,0.3497956 0.375868,0.3497956 V 10.082923 C 11.163789,9.9014494 10.868173,9.7722874 10.47425,9.7722744 c -0.5072514,0 -0.8100704,0.194451 -0.9931874,0.4503016 -0.1831025,0.255838 -0.2440566,0.578209 -0.2440566,0.827497 0,0.300598 0.1037065,0.620857 0.3262866,0.865347 0.222634,0.244491 0.5649724,0.416355 1.0571214,0.416355 0.555751,0 0.945771,-0.15501 1.166762,-0.45812 0.173987,-0.238638 0.271051,-0.558227 0.305384,-0.951487 0.0054,-0.04771 0.0081,-0.09703 0.01064,-0.147499 0.0027,-0.0401 0.0027,-0.06803 0.0027,-0.114808 h 0.0027 V 3.5974162 C 12.1167,3.1392282 12.01478,3.0185667 11.783623,3.0022477 Z"/>
 <path fill="url(#oomox)" class="ColorScheme-Text" d="M 4.5650869,2.821478e-6 C 3.1272202,0.01657483 2.0751076,-0.03439838 1.214792,0.44030393 0.78462851,0.6776608 0.44430097,1.0791148 0.25612659,1.5804124 0.06796363,2.0817099 9.7411896e-7,2.6765764 9.7411896e-7,3.4281341 v 9.1431769 c 0,0.751558 0.067996935881,1.346973 0.25612561588104,1.848282 0.18817438,0.501297 0.52850192,0.902191 0.95866541,1.139548 0.8603156,0.474702 1.9124282,0.424243 3.3502949,0.440861 h 0.00343 6.8629711 0.0034 c 1.437867,-0.01657 2.489979,0.03383 3.350295,-0.440861 0.430163,-0.237357 0.770502,-0.638251 0.958665,-1.139548 0.188163,-0.501309 0.256126,-1.096724 0.256126,-1.848282 V 3.4281341 c 0,-0.7515577 -0.068,-1.3464242 -0.256126,-1.8477217 C 15.555712,1.0791148 15.215373,0.6776608 14.78521,0.44030393 13.924894,-0.03439838 12.872782,0.01662055 11.434915,2.821478e-6 h -0.0034 -6.8629707 z M 4.5778863,1.1423399 h 6.8501377 c 1.439443,0.016801 2.386212,0.067659 2.804559,0.298559 0.209568,0.1156383 0.329322,0.2436657 0.440837,0.5407618 0.111538,0.2970846 0.183021,0.7694097 0.183021,1.4464734 v 9.1431769 c 0,0.677064 -0.07154,1.149389 -0.183021,1.446485 -0.111537,0.297084 -0.231269,0.425112 -0.440837,0.54075 -0.418347,0.230842 -1.365116,0.28177 -2.804559,0.298559 h -0.0069 -6.8434407 -0.00571 C 3.1321914,14.840305 2.1858683,14.789446 1.7674528,14.558546 1.5578851,14.442908 1.4381305,14.31488 1.326627,14.017796 1.2150891,13.7207 1.1435952,13.248375 1.1435952,12.571311 V 3.4281341 c 0,-0.6770637 0.07154,-1.1493888 0.1830318,-1.4464734 C 1.4381648,1.6845646 1.5578851,1.5565372 1.7674528,1.4408989 2.1865883,1.2096223 3.1341685,1.1590491 4.5781492,1.1423399 Z"/>
</svg>
