<svg xmlns="http://www.w3.org/2000/svg" width="16" height="16" version="1.1">
 <defs>
   <style id="current-color-scheme" type="text/css">
   .ColorScheme-Text { color: #939597; } .ColorScheme-Highlight { color:#5294e2; }
  </style>
  <linearGradient id="arrongin" x1="0%" x2="0%" y1="0%" y2="100%">
   <stop offset="0%" style="stop-color:#dd9b44; stop-opacity:1"/>
   <stop offset="100%" style="stop-color:#ad6c16; stop-opacity:1"/>
  </linearGradient>
  <linearGradient id="aurora" x1="0%" x2="0%" y1="0%" y2="100%">
   <stop offset="0%" style="stop-color:#09D4DF; stop-opacity:1"/>
   <stop offset="100%" style="stop-color:#9269F4; stop-opacity:1"/>
  </linearGradient>
  <linearGradient id="cyberneon" x1="0%" x2="0%" y1="0%" y2="100%">
    <stop offset="0" style="stop-color:#0abdc6; stop-opacity:1"/>
    <stop offset="1" style="stop-color:#ea00d9; stop-opacity:1"/>
  </linearGradient>
  <linearGradient id="fitdance" x1="0%" x2="0%" y1="0%" y2="100%">
   <stop offset="0%" style="stop-color:#1AD6AB; stop-opacity:1"/>
   <stop offset="100%" style="stop-color:#329DB6; stop-opacity:1"/>
  </linearGradient>
  <linearGradient id="oomox" x1="0%" x2="0%" y1="0%" y2="100%">
   <stop offset="0%" style="stop-color:#f27979; stop-opacity:1"/>
   <stop offset="100%" style="stop-color:#9e2121; stop-opacity:1"/>
  </linearGradient>
  <linearGradient id="rainblue" x1="0%" x2="0%" y1="0%" y2="100%">
   <stop offset="0%" style="stop-color:#00F260; stop-opacity:1"/>
   <stop offset="100%" style="stop-color:#0575E6; stop-opacity:1"/>
  </linearGradient>
  <linearGradient id="sunrise" x1="0%" x2="0%" y1="0%" y2="100%">
   <stop offset="0%" style="stop-color: #FF8501; stop-opacity:1"/>
   <stop offset="100%" style="stop-color: #FFCB01; stop-opacity:1"/>
  </linearGradient>
  <linearGradient id="telinkrin" x1="0%" x2="0%" y1="0%" y2="100%">
   <stop offset="0%" style="stop-color: #b2ced6; stop-opacity:1"/>
   <stop offset="100%" style="stop-color: #6da5b7; stop-opacity:1"/>
  </linearGradient>
  <linearGradient id="60spsycho" x1="0%" x2="0%" y1="0%" y2="100%">
   <stop offset="0%" style="stop-color: #df5940; stop-opacity:1"/>
   <stop offset="25%" style="stop-color: #d8d15f; stop-opacity:1"/>
   <stop offset="50%" style="stop-color: #e9882a; stop-opacity:1"/>
   <stop offset="100%" style="stop-color: #279362; stop-opacity:1"/>
  </linearGradient>
  <linearGradient id="90ssummer" x1="0%" x2="0%" y1="0%" y2="100%">
   <stop offset="0%" style="stop-color: #f618c7; stop-opacity:1"/>
   <stop offset="20%" style="stop-color: #94ffab; stop-opacity:1"/>
   <stop offset="50%" style="stop-color: #fbfd54; stop-opacity:1"/>
   <stop offset="100%" style="stop-color: #0f83ae; stop-opacity:1"/>
  </linearGradient>
 </defs>
 <path fill="url(#oomox)" class="ColorScheme-Text" opacity="0.4" fill-rule="evenodd" d="m 3.804,15.402 c 0.036,0.003 0.067,0.007 0.103,0.009 0.028,0.002 0.067,0.001 0.096,0.002 L 4,14.919 5.733,13.327 v -0.531 l 0.8,-0.797 v -0.398 l 0.4,-0.398 V 10.142 L 6.4,9.611 H 5.333 L 4.8,9.08 H 3.467 L 2.933,9.611 v 1.327 L 4.004,11.871 4,13.061 3.6,13.459 v 1.725 l 0.204,0.218 v 0 0 0 0 0 0 0 0 z M 6.133,5.099 5.733,5.497 h 0.4 L 6.267,5.63 H 6.4 L 6.533,5.497 6.133,5.099 v 0 0 0 0 0 0 0 0 z M 11.2,6.957 H 9.6 L 8.667,7.886 v 1.327 l 0.666,0.663 h 0.934 l 0.4,0.398 v 0.398 l 0.266,0.266 v 1.592 l 1.013,1.066 1.672,-1.665 L 13.6,10.407 14.933,9.08 H 14.4 L 13.067,7.753 V 7.222 h -1.6 L 11.2,6.957 v 0 0 0 0 0 0 0 z M 16,7.487 V 6.09 C 16,5.488 15.989,4.95 15.961,4.471 15.947,4.231 15.928,4.006 15.904,3.794 15.88,3.582 15.851,3.384 15.816,3.198 15.781,3.013 15.74,2.84 15.692,2.68 15.643,2.519 15.588,2.37 15.526,2.232 15.486,2.145 15.437,2.069 15.39,1.99 L 15.2,2.179 H 14.4 L 13.6,2.976 13.067,2.445 h -1.6 l -0.8,0.796 v 0.663 h 0.8 V 3.506 H 12 v 0.531 l -0.267,0.265 -1.066,0.018 -0.4,0.381 H 9.733 v 0.53 l -0.4,0.399 v 0.796 h 0.8 L 10.667,5.895 H 11.2 V 6.16 l 0.533,0.531 H 12 V 6.426 L 11.467,5.895 H 12 l 0.533,0.531 H 13.2 L 12.8,6.028 13.2,5.63 h 0.4 L 14,6.028 h -0.4 l -0.4,0.398 0.393,0.391 0.007,0.405 h -0.533 l 1.6,1.593 h 0.266 L 15.2,8.549 15.733,8.018 15.2,7.487 H 16 v 0 0 0 0 0 0 z M 9.867,4.435 V 4.037 l 0.4,-0.398 v 0.796 h -0.4 v 0 0 0 0 0 z M 14,12.265 v -0.832 l 0.533,-0.495 v 1.327 H 14 v 0 0 0 0 z M 8.533,0.587 H 5.535 C 5.484,0.587 5.448,0.59 5.397,0.59 l -0.464,0.528 0.8,0.796 V 2.746 L 6.667,3.772 H 7.2 V 3.241 L 8,2.445 V 1.914 L 8.533,1.383 v -0.796 0 0 0 z M 7.867,3.506 h 0.4 l 0.4,0.398 h -0.8 v -0.398 0 0 z m -3.6,4.38 h -0.4 l -0.4,0.398 h 0.8 v -0.398 0 z M 0.71,1.824 C 0.703,1.834 0.694,1.842 0.687,1.852 0.608,1.968 0.537,2.095 0.474,2.232 0.412,2.37 0.357,2.519 0.308,2.68 0.26,2.84 0.219,3.013 0.184,3.198 0.149,3.384 0.12,3.582 0.096,3.794 0.072,4.006 0.053,4.231 0.039,4.471 0.011,4.95 0,5.488 0,6.09 v 1.397 l 0.533,0.531 h 0.8 L 2.667,9.345 V 7.753 l 0.8,-0.796 H 4 L 4.8,6.16 H 5.6 L 5.2,5.762 6,4.833 5.2,4.037 H 4 V 5.099 H 3.467 L 2.933,4.568 V 4.037 l 0.8,-0.796 H 4.4 V 2.71 L 3.6,1.914 H 2.267 V 2.71 H 1.6 L 0.71,1.824 Z M 4,0.624 C 3.972,0.625 3.935,0.624 3.907,0.626 3.666,0.64 3.439,0.658 3.226,0.682 3.013,0.706 2.814,0.734 2.627,0.769 2.461,0.801 2.308,0.839 2.161,0.88 L 2.667,1.383 H 4 Z"/>
 <path fill="url(#oomox)" class="ColorScheme-Text" opacity="1.0" d="M 12.485 7.522 L 10.008 7.522 L 10.008 1.5 L 5.993 1.5 L 5.993 7.522 L 3.515 7.522 L 8 14.5 L 12.485 7.522 Z"/>
</svg>
