<svg xmlns="http://www.w3.org/2000/svg" width="16" height="16" version="1.1">
 <defs>
   <style id="current-color-scheme" type="text/css">
   .ColorScheme-Text { color: #939597; } .ColorScheme-Highlight { color:#5294e2; }
  </style>
  <linearGradient id="arrongin" x1="0%" x2="0%" y1="0%" y2="100%">
   <stop offset="0%" style="stop-color:#dd9b44; stop-opacity:1"/>
   <stop offset="100%" style="stop-color:#ad6c16; stop-opacity:1"/>
  </linearGradient>
  <linearGradient id="aurora" x1="0%" x2="0%" y1="0%" y2="100%">
   <stop offset="0%" style="stop-color:#09D4DF; stop-opacity:1"/>
   <stop offset="100%" style="stop-color:#9269F4; stop-opacity:1"/>
  </linearGradient>
  <linearGradient id="cyberneon" x1="0%" x2="0%" y1="0%" y2="100%">
    <stop offset="0" style="stop-color:#0abdc6; stop-opacity:1"/>
    <stop offset="1" style="stop-color:#ea00d9; stop-opacity:1"/>
  </linearGradient>
  <linearGradient id="fitdance" x1="0%" x2="0%" y1="0%" y2="100%">
   <stop offset="0%" style="stop-color:#1AD6AB; stop-opacity:1"/>
   <stop offset="100%" style="stop-color:#329DB6; stop-opacity:1"/>
  </linearGradient>
  <linearGradient id="oomox" x1="0%" x2="0%" y1="0%" y2="100%">
   <stop offset="0%" style="stop-color:#f27979; stop-opacity:1"/>
   <stop offset="100%" style="stop-color:#9e2121; stop-opacity:1"/>
  </linearGradient>
  <linearGradient id="rainblue" x1="0%" x2="0%" y1="0%" y2="100%">
   <stop offset="0%" style="stop-color:#00F260; stop-opacity:1"/>
   <stop offset="100%" style="stop-color:#0575E6; stop-opacity:1"/>
  </linearGradient>
  <linearGradient id="sunrise" x1="0%" x2="0%" y1="0%" y2="100%">
   <stop offset="0%" style="stop-color: #FF8501; stop-opacity:1"/>
   <stop offset="100%" style="stop-color: #FFCB01; stop-opacity:1"/>
  </linearGradient>
  <linearGradient id="telinkrin" x1="0%" x2="0%" y1="0%" y2="100%">
   <stop offset="0%" style="stop-color: #b2ced6; stop-opacity:1"/>
   <stop offset="100%" style="stop-color: #6da5b7; stop-opacity:1"/>
  </linearGradient>
  <linearGradient id="60spsycho" x1="0%" x2="0%" y1="0%" y2="100%">
   <stop offset="0%" style="stop-color: #df5940; stop-opacity:1"/>
   <stop offset="25%" style="stop-color: #d8d15f; stop-opacity:1"/>
   <stop offset="50%" style="stop-color: #e9882a; stop-opacity:1"/>
   <stop offset="100%" style="stop-color: #279362; stop-opacity:1"/>
  </linearGradient>
  <linearGradient id="90ssummer" x1="0%" x2="0%" y1="0%" y2="100%">
   <stop offset="0%" style="stop-color: #f618c7; stop-opacity:1"/>
   <stop offset="20%" style="stop-color: #94ffab; stop-opacity:1"/>
   <stop offset="50%" style="stop-color: #fbfd54; stop-opacity:1"/>
   <stop offset="100%" style="stop-color: #0f83ae; stop-opacity:1"/>
  </linearGradient>
 </defs>
 <path    fill="url(#oomox)" class="ColorScheme-Text" d="M 3.994,1 C 2.736,1.015 1.815,0.97 1.062,1.385 A 1.88,1.88 0 0 0 0.225,2.383 C 0.06,2.821 0,3.343 0,4 v 8 c 0,0.658 0.06,1.179 0.225,1.617 0.164,0.439 0.461,0.79 0.837,0.998 0.753,0.416 1.674,0.37 2.932,0.385 h 8.012 c 1.258,-0.015 2.179,0.03 2.932,-0.385 a 1.88,1.88 0 0 0 0.838,-0.998 C 15.94,13.179 16,12.657 16,12 V 4 C 16,3.342 15.94,2.821 15.775,2.383 A 1.88,1.88 0 0 0 14.938,1.385 C 14.185,0.969 13.264,1.015 12.006,1 H 3.998 Z M 4,2 h 8 c 1.259,0.015 2.087,0.06 2.453,0.262 0.184,0.1 0.29,0.212 0.387,0.472 C 14.937,2.994 15,3.408 15,4 v 8 c 0,0.592 -0.063,1.006 -0.16,1.266 -0.098,0.26 -0.203,0.371 -0.387,0.472 C 14.087,13.94 13.259,13.985 12,14 H 4 C 2.741,13.985 1.91,13.94 1.545,13.738 1.362,13.638 1.258,13.526 1.16,13.266 1.063,13.006 1,12.592 1,12 V 4 C 1,3.408 1.063,2.994 1.16,2.734 1.258,2.474 1.362,2.363 1.545,2.262 1.911,2.06 2.741,2.015 4,2 Z"/>
 <path    fill="url(#oomox)" class="ColorScheme-Text" fill-rule="evenodd" opacity=".5" d="m 12.316,1.297 -1,0.021 c 0.02,0.936 -0.075,1.85 -0.22,2.75 0.13,-0.037 0.263,-0.064 0.404,-0.064 0.214,0 0.416,0.048 0.602,0.13 0.143,-0.928 0.234,-1.871 0.214,-2.837 z M 4.383,1.559 A 33.263,33.263 0 0 0 4.297,5.689 C 4.508,5.575 4.745,5.504 5,5.504 5.101,5.504 5.2,5.516 5.297,5.535 5.247,4.276 5.267,2.979 5.379,1.643 Z M 0.516,3.406 0.5,3.428 V 4.619 A 74.836,74.836 0 0 0 3.398,6.592 17.49,17.49 0 0 0 0.5,8.122 V 9.291 L 0.516,9.313 A 15.866,15.866 0 0 1 3.631,7.6 1.466,1.466 0 0 1 3.5,7 C 3.5,6.523 3.733,6.099 4.086,5.824 A 77.938,77.938 0 0 1 0.516,3.406 Z M 15.912,4.629 A 82.062,82.062 0 0 0 12.793,4.758 C 12.921,4.978 13,5.229 13,5.5 13,5.585 12.988,5.667 12.975,5.748 a 83.057,83.057 0 0 1 2.959,-0.12 z M 10.098,4.986 C 8.631,5.153 7.211,5.401 5.848,5.77 6.146,5.976 6.364,6.288 6.453,6.648 7.619,6.354 8.835,6.148 10.093,6 A 1.46,1.46 0 0 1 10,5.5 C 10,5.32 10.038,5.147 10.098,4.986 Z M 11.5,5.004 A 0.49,0.49 0 0 0 11,5.5 0.49,0.49 0 0 0 11.746,5.926 c 0.01,-0.036 0.022,-0.07 0.031,-0.106 0.034,-0.003 0.07,-0.003 0.104,-0.006 a 0.49,0.49 0 0 0 -0.38,-0.81 z M 5,6.504 A 0.49,0.49 0 0 0 4.5,7 0.49,0.49 0 0 0 5,7.496 0.49,0.49 0 0 0 5.5,7 0.49,0.49 0 0 0 5,6.504 Z m 5.498,0.1 C 10.346,7.077 10.175,7.544 9.986,8.002 L 10,8 c 0.351,0 0.673,0.127 0.93,0.332 0.18,-0.441 0.344,-0.888 0.492,-1.344 A 1.49,1.49 0 0 1 10.498,6.603 Z M 6.477,7.23 A 1.49,1.49 0 0 1 5.99,8.113 C 6.81,8.558 7.651,8.971 8.516,9.342 8.553,8.989 8.708,8.671 8.949,8.434 A 29.56,29.56 0 0 1 6.477,7.23 Z M 5.586,8.373 C 5.405,8.451 5.208,8.496 5,8.496 4.843,8.496 4.695,8.463 4.553,8.418 4.687,9.241 4.878,10.034 5.119,10.797 5.368,10.615 5.671,10.504 6,10.504 c 0.027,0 0.052,0.006 0.078,0.008 A 16.1,16.1 0 0 1 5.586,8.373 Z M 10,9 A 0.49,0.49 0 0 0 9.5,9.496 c 0,0.207 0.12,0.38 0.299,0.455 0.019,-0.02 0.041,-0.037 0.06,-0.058 0.08,0.029 0.164,0.051 0.245,0.08 A 0.482,0.482 0 0 0 10.5,9.496 0.49,0.49 0 0 0 10,9 Z m 1.486,0.365 c 0.004,0.044 0.014,0.086 0.014,0.131 0,0.313 -0.099,0.603 -0.266,0.844 1.502,0.437 3.06,0.713 4.678,0.748 l 0.022,-1 C 14.407,10.055 12.924,9.787 11.486,9.365 Z M 8.531,9.797 c -0.48,0.419 -1.009,0.775 -1.57,1.066 0.26,0.22 0.445,0.519 0.51,0.864 A 8.952,8.952 0 0 0 9.066,10.654 1.496,1.496 0 0 1 8.531,9.797 Z M 6,11.504 A 0.49,0.49 0 0 0 5.5,12 0.49,0.49 0 0 0 6,12.496 0.49,0.49 0 0 0 6.5,12 0.49,0.49 0 0 0 6,11.504 Z m -1.473,0.24 C 4.382,11.781 4.234,11.832 4.092,11.861 3.164,12.052 2.298,12.123 1.635,12.119 A 6.036,6.036 0 0 1 0.816,12.064 C 0.612,12.034 0.469,11.97 0.512,11.996 L 0.5,12.016 v 1.007 c 0.056,0.01 0.107,0.022 0.17,0.032 0.268,0.04 0.59,0.062 0.959,0.064 0.738,0.004 1.664,-0.072 2.664,-0.277 0.133,-0.028 0.274,-0.077 0.41,-0.11 A 1.465,1.465 0 0 1 4.5,12 c 0,-0.088 0.013,-0.173 0.027,-0.256 z m 2.618,1.207 a 1.5,1.5 0 0 1 -0.874,0.518 c 0.236,0.402 0.49,0.792 0.776,1.162 l 0.79,-0.613 A 8.761,8.761 0 0 1 7.145,12.951 Z"/>
 <ellipse fill="url(#oomox)" class="ColorScheme-Text" cx="6"     cy="12"     rx="1" ry=".996"/>
 <ellipse fill="url(#oomox)" class="ColorScheme-Text" cx="5"     cy="7"      rx="1" ry=".996"/>
 <ellipse fill="url(#oomox)" class="ColorScheme-Text" cx="11.5"  cy="5.5"    rx="1" ry=".996"/>
 <ellipse fill="url(#oomox)" class="ColorScheme-Text" cx="10"    cy="9.496"  rx="1" ry=".996"/>
</svg>
