<svg xmlns="http://www.w3.org/2000/svg" width="16" height="16" version="1.1">
 <defs>
   <style id="current-color-scheme" type="text/css">
   .ColorScheme-Text { color: #939597; } .ColorScheme-Highlight { color:#5294e2; }
  </style>
  <linearGradient id="arrongin" x1="0%" x2="0%" y1="0%" y2="100%">
   <stop offset="0%" style="stop-color:#dd9b44; stop-opacity:1"/>
   <stop offset="100%" style="stop-color:#ad6c16; stop-opacity:1"/>
  </linearGradient>
  <linearGradient id="aurora" x1="0%" x2="0%" y1="0%" y2="100%">
   <stop offset="0%" style="stop-color:#09D4DF; stop-opacity:1"/>
   <stop offset="100%" style="stop-color:#9269F4; stop-opacity:1"/>
  </linearGradient>
  <linearGradient id="cyberneon" x1="0%" x2="0%" y1="0%" y2="100%">
    <stop offset="0" style="stop-color:#0abdc6; stop-opacity:1"/>
    <stop offset="1" style="stop-color:#ea00d9; stop-opacity:1"/>
  </linearGradient>
  <linearGradient id="fitdance" x1="0%" x2="0%" y1="0%" y2="100%">
   <stop offset="0%" style="stop-color:#1AD6AB; stop-opacity:1"/>
   <stop offset="100%" style="stop-color:#329DB6; stop-opacity:1"/>
  </linearGradient>
  <linearGradient id="oomox" x1="0%" x2="0%" y1="0%" y2="100%">
   <stop offset="0%" style="stop-color:#f27979; stop-opacity:1"/>
   <stop offset="100%" style="stop-color:#9e2121; stop-opacity:1"/>
  </linearGradient>
  <linearGradient id="rainblue" x1="0%" x2="0%" y1="0%" y2="100%">
   <stop offset="0%" style="stop-color:#00F260; stop-opacity:1"/>
   <stop offset="100%" style="stop-color:#0575E6; stop-opacity:1"/>
  </linearGradient>
  <linearGradient id="sunrise" x1="0%" x2="0%" y1="0%" y2="100%">
   <stop offset="0%" style="stop-color: #FF8501; stop-opacity:1"/>
   <stop offset="100%" style="stop-color: #FFCB01; stop-opacity:1"/>
  </linearGradient>
  <linearGradient id="telinkrin" x1="0%" x2="0%" y1="0%" y2="100%">
   <stop offset="0%" style="stop-color: #b2ced6; stop-opacity:1"/>
   <stop offset="100%" style="stop-color: #6da5b7; stop-opacity:1"/>
  </linearGradient>
  <linearGradient id="60spsycho" x1="0%" x2="0%" y1="0%" y2="100%">
   <stop offset="0%" style="stop-color: #df5940; stop-opacity:1"/>
   <stop offset="25%" style="stop-color: #d8d15f; stop-opacity:1"/>
   <stop offset="50%" style="stop-color: #e9882a; stop-opacity:1"/>
   <stop offset="100%" style="stop-color: #279362; stop-opacity:1"/>
  </linearGradient>
  <linearGradient id="90ssummer" x1="0%" x2="0%" y1="0%" y2="100%">
   <stop offset="0%" style="stop-color: #f618c7; stop-opacity:1"/>
   <stop offset="20%" style="stop-color: #94ffab; stop-opacity:1"/>
   <stop offset="50%" style="stop-color: #fbfd54; stop-opacity:1"/>
   <stop offset="100%" style="stop-color: #0f83ae; stop-opacity:1"/>
  </linearGradient>
 </defs>
 <path fill="url(#oomox)" class="ColorScheme-Text" opacity="0.6" fill-rule="evenodd" d="m 3.804,15.38 c 0.036,0.003 0.067,0.007 0.103,0.009 0.028,0.001 0.067,0 0.096,0.002 L 4,14.897 5.733,13.304 v -0.531 l 0.8,-0.796 v -0.398 l 0.4,-0.398 V 10.119 L 6.4,9.588 H 5.333 L 4.8,9.058 H 3.467 l -0.534,0.53 v 1.328 L 4.004,11.849 4,13.039 3.6,13.437 v 1.725 l 0.204,0.218 v 0 0 0 0 z M 6.133,5.077 5.733,5.475 h 0.4 L 6.267,5.607 H 6.4 L 6.533,5.475 6.133,5.077 v 0 0 0 0 z M 11.2,6.934 H 9.6 L 8.667,7.863 V 9.19 l 0.666,0.664 h 0.934 l 0.4,0.398 v 0.398 l 0.266,0.266 v 1.592 l 1.013,1.065 1.672,-1.664 L 13.6,10.385 14.933,9.058 H 14.4 L 13.067,7.731 V 7.2 h -1.6 L 11.2,6.934 v 0 0 0 z M 16,7.465 V 6.068 C 16,5.466 15.989,4.928 15.961,4.448 15.947,4.209 15.928,3.983 15.904,3.771 15.88,3.56 15.851,3.362 15.816,3.176 15.781,2.991 15.74,2.818 15.692,2.657 15.643,2.497 15.588,2.348 15.526,2.21 15.486,2.122 15.437,2.047 15.39,1.968 L 15.2,2.157 H 14.4 L 13.6,2.953 13.067,2.422 h -1.6 l -0.8,0.797 v 0.663 h 0.8 V 3.484 H 12 v 0.531 l -0.267,0.265 -1.066,0.018 -0.4,0.38 H 9.733 v 0.531 l -0.4,0.398 v 0.796 h 0.8 l 0.534,-0.53 H 11.2 v 0.265 l 0.533,0.531 H 12 V 6.403 L 11.467,5.873 H 12 l 0.533,0.53 H 13.2 L 12.8,6.005 13.2,5.607 h 0.4 L 14,6.005 H 13.6 L 13.2,6.403 13.593,6.794 13.6,7.2 h -0.533 l 1.6,1.592 h 0.266 L 15.2,8.527 15.733,7.996 15.2,7.465 H 16 v 0 0 z M 9.867,4.413 V 4.015 l 0.4,-0.398 v 0.796 h -0.4 v 0 z M 14,12.243 v -0.832 l 0.533,-0.495 v 1.327 H 14 Z M 8.533,0.565 H 5.535 c -0.051,0 -0.087,0.003 -0.138,0.003 l -0.464,0.527 0.8,0.797 V 2.724 L 6.667,3.749 H 7.2 V 3.219 L 8,2.422 V 1.892 L 8.533,1.361 Z M 7.867,3.484 h 0.4 l 0.4,0.398 h -0.8 z m -3.6,4.379 h -0.4 l -0.4,0.399 h 0.8 z M 0.71,1.802 C 0.703,1.812 0.694,1.819 0.687,1.829 0.608,1.946 0.537,2.072 0.474,2.21 0.412,2.348 0.357,2.497 0.308,2.657 0.26,2.818 0.219,2.991 0.184,3.176 0.149,3.362 0.12,3.56 0.096,3.771 0.072,3.983 0.053,4.209 0.039,4.448 0.011,4.928 0,5.466 0,6.068 v 1.397 l 0.533,0.531 h 0.8 L 2.667,9.323 V 7.731 l 0.8,-0.797 H 4 L 4.8,6.138 H 5.6 L 5.2,5.74 6,4.811 5.2,4.015 H 4 V 5.077 H 3.467 L 2.933,4.546 V 4.015 l 0.8,-0.796 H 4.4 V 2.688 L 3.6,1.892 H 2.267 V 2.688 H 1.6 Z M 4,0.601 C 3.972,0.603 3.935,0.602 3.907,0.603 3.666,0.618 3.439,0.636 3.226,0.66 3.013,0.683 2.814,0.712 2.627,0.747 2.461,0.778 2.308,0.816 2.161,0.858 L 2.667,1.361 H 4 Z"/>
 <path fill="url(#oomox)" class="ColorScheme-Text" fill-rule="evenodd" d="M 8.843 7.115 L 8.843 10.341 C 8.843 10.607 9.058 10.823 9.324 10.823 L 11.058 10.823 C 11.324 10.823 11.539 10.607 11.539 10.341 L 11.539 7.115 L 12.068 7.115 C 12.24 7.115 12.4 7.034 12.486 6.903 C 12.572 6.771 12.572 6.609 12.486 6.478 L 11.547 5.049 L 10.609 3.619 C 10.523 3.488 10.363 3.407 10.191 3.407 C 10.018 3.407 9.859 3.488 9.773 3.619 L 8.834 5.049 L 7.896 6.478 C 7.856 6.539 7.834 6.608 7.832 6.678 C 7.828 6.793 7.877 6.904 7.968 6.986 C 8.059 7.069 8.184 7.115 8.314 7.115 L 8.843 7.115 Z M 4.461 9.138 L 4.461 5.911 C 4.461 5.645 4.676 5.43 4.942 5.43 L 6.676 5.43 C 6.941 5.43 7.157 5.645 7.157 5.911 L 7.157 9.138 L 7.686 9.138 C 7.858 9.138 8.018 9.218 8.104 9.35 C 8.19 9.481 8.19 9.643 8.104 9.774 L 7.165 11.204 L 6.227 12.633 C 6.141 12.764 5.981 12.845 5.809 12.845 C 5.636 12.845 5.477 12.764 5.391 12.633 L 4.452 11.204 L 3.514 9.774 C 3.474 9.714 3.452 9.645 3.45 9.575 C 3.446 9.46 3.495 9.349 3.586 9.266 C 3.677 9.184 3.802 9.137 3.932 9.138 L 4.461 9.138 Z"/>
</svg>
