<svg xmlns="http://www.w3.org/2000/svg" width="16" height="16" version="1.1">
 <defs>
   <style id="current-color-scheme" type="text/css">
   .ColorScheme-Text { color: #939597; } .ColorScheme-Highlight { color:#5294e2; }
  </style>
  <linearGradient id="arrongin" x1="0%" x2="0%" y1="0%" y2="100%">
   <stop offset="0%" style="stop-color:#dd9b44; stop-opacity:1"/>
   <stop offset="100%" style="stop-color:#ad6c16; stop-opacity:1"/>
  </linearGradient>
  <linearGradient id="aurora" x1="0%" x2="0%" y1="0%" y2="100%">
   <stop offset="0%" style="stop-color:#09D4DF; stop-opacity:1"/>
   <stop offset="100%" style="stop-color:#9269F4; stop-opacity:1"/>
  </linearGradient>
  <linearGradient id="cyberneon" x1="0%" x2="0%" y1="0%" y2="100%">
    <stop offset="0" style="stop-color:#0abdc6; stop-opacity:1"/>
    <stop offset="1" style="stop-color:#ea00d9; stop-opacity:1"/>
  </linearGradient>
  <linearGradient id="fitdance" x1="0%" x2="0%" y1="0%" y2="100%">
   <stop offset="0%" style="stop-color:#1AD6AB; stop-opacity:1"/>
   <stop offset="100%" style="stop-color:#329DB6; stop-opacity:1"/>
  </linearGradient>
  <linearGradient id="oomox" x1="0%" x2="0%" y1="0%" y2="100%">
   <stop offset="0%" style="stop-color:#f27979; stop-opacity:1"/>
   <stop offset="100%" style="stop-color:#9e2121; stop-opacity:1"/>
  </linearGradient>
  <linearGradient id="rainblue" x1="0%" x2="0%" y1="0%" y2="100%">
   <stop offset="0%" style="stop-color:#00F260; stop-opacity:1"/>
   <stop offset="100%" style="stop-color:#0575E6; stop-opacity:1"/>
  </linearGradient>
  <linearGradient id="sunrise" x1="0%" x2="0%" y1="0%" y2="100%">
   <stop offset="0%" style="stop-color: #FF8501; stop-opacity:1"/>
   <stop offset="100%" style="stop-color: #FFCB01; stop-opacity:1"/>
  </linearGradient>
  <linearGradient id="telinkrin" x1="0%" x2="0%" y1="0%" y2="100%">
   <stop offset="0%" style="stop-color: #b2ced6; stop-opacity:1"/>
   <stop offset="100%" style="stop-color: #6da5b7; stop-opacity:1"/>
  </linearGradient>
  <linearGradient id="60spsycho" x1="0%" x2="0%" y1="0%" y2="100%">
   <stop offset="0%" style="stop-color: #df5940; stop-opacity:1"/>
   <stop offset="25%" style="stop-color: #d8d15f; stop-opacity:1"/>
   <stop offset="50%" style="stop-color: #e9882a; stop-opacity:1"/>
   <stop offset="100%" style="stop-color: #279362; stop-opacity:1"/>
  </linearGradient>
  <linearGradient id="90ssummer" x1="0%" x2="0%" y1="0%" y2="100%">
   <stop offset="0%" style="stop-color: #f618c7; stop-opacity:1"/>
   <stop offset="20%" style="stop-color: #94ffab; stop-opacity:1"/>
   <stop offset="50%" style="stop-color: #fbfd54; stop-opacity:1"/>
   <stop offset="100%" style="stop-color: #0f83ae; stop-opacity:1"/>
  </linearGradient>
 </defs>
 <path fill="url(#oomox)" class="ColorScheme-Text" opacity="0.6" d="M 0,3.2 V 8 8.4 10.8 11.429 H 5.429 V 16 H 8 8.4 13.155 c 0,0 0.784,-0.054 1.2,-0.471 L 14.4,15.484 V 13.2 L 9.143,12.857 v -2 L 8.8,11.2 V 8.4 L 4,8.057 v -5.2 z"/>
 <path fill="url(#oomox)" class="ColorScheme-Text" fill-rule="evenodd" d="M 13.905 10.857 L 11.619 13.143 L 11.619 13.143 L 14.111 15.711 C 14.199 15.659 14.283 15.601 14.355 15.529 L 15.476 14.409 C 16.003 14.006 16 13.2 16 13.156 L 16 12.8 L 13.905 10.857 Z M 8.571 13.143 L 8.571 13.143 L 8.571 10.857 L 10.857 8.571 L 10.857 8.571 L 10.857 8.571 L 10.857 10.857 L 10.857 10.857 L 13.905 10.857 L 11.619 13.143 L 11.619 13.143 L 8.571 13.143 L 8.571 13.143 Z M 6.476 8.571 L 8.571 10.857 L 10.857 8.571 L 10.857 8.571 L 8.762 6.286 L 8.762 6.286 L 5.714 6.286 L 5.714 6.286 L 5.714 4 L 1.889 0.289 C 1.801 0.341 1.717 0.399 1.645 0.471 L 0.524 1.591 C -0.003 1.994 0 2.8 0 2.845 L 0 3.2 L 3.429 6.286 L 3.429 8.571 L 3.429 8.571 L 6.476 8.571 L 6.476 8.571 L 6.476 8.571 Z"/>
</svg>
