<svg xmlns="http://www.w3.org/2000/svg" width="48" height="48">
<defs>
<defs
     id="defs2385" />
  <g
     id="layer1">
    <path
       d="M 11,3 L 11,33 L 37,33 L 37,14.71875 L 26.6875,3 L 11,3 z M 23.8125,10.75 C 28.814999,10.75 32.875,14.81 32.875,19.8125 C 32.874999,24.815 28.815,28.875 23.8125,28.875 C 18.809999,28.875 14.75,24.815 14.75,19.8125 C 14.75,14.81 18.81,10.75 23.8125,10.75 z M 22.1875,13.09375 L 22.1875,18.28125 L 22.65625,22.0625 L 25,22.0625 L 25.4375,18.28125 L 25.4375,13.09375 L 22.1875,13.09375 z M 22.1875,23.40625 L 22.1875,26.625 L 25.4375,26.625 L 25.4375,23.40625 L 22.1875,23.40625 z M 4,35 L 4,45 L 44,45 L 44,35 L 4,35 z M 36.34375,40.21875 L 41.03125,40.21875 L 41.03125,42.40625 L 36.34375,42.40625 L 36.34375,40.21875 z"
       id="path-main"
        />
  </g>
</defs>

<use id="1" style="fill:#009688" xlink:href="#path-main" />



</svg>
