<?xml version="1.0" encoding="UTF-8" standalone="no"?>
<svg
   xmlns:dc="http://purl.org/dc/elements/1.1/"
   xmlns:cc="http://creativecommons.org/ns#"
   xmlns:rdf="http://www.w3.org/1999/02/22-rdf-syntax-ns#"
   xmlns:svg="http://www.w3.org/2000/svg"
   xmlns="http://www.w3.org/2000/svg"
   xmlns:sodipodi="http://sodipodi.sourceforge.net/DTD/sodipodi-0.dtd"
   xmlns:inkscape="http://www.inkscape.org/namespaces/inkscape"
   height="512"
   viewBox="0 0 512 512"
   width="512"
   version="1.1"
   id="svg2"
   inkscape:version="0.91 r"
   sodipodi:docname="changes-allow.svg">
  <defs
     id="defs54" />
  <sodipodi:namedview
     pagecolor="#ffffff"
     bordercolor="#666666"
     borderopacity="1"
     objecttolerance="10"
     gridtolerance="10"
     guidetolerance="10"
     inkscape:pageopacity="0"
     inkscape:pageshadow="2"
     inkscape:window-width="647"
     inkscape:window-height="480"
     id="namedview52"
     showgrid="false"
     inkscape:zoom="0.4609375"
     inkscape:cx="576"
     inkscape:cy="256"
     inkscape:window-x="0"
     inkscape:window-y="0"
     inkscape:window-maximized="0"
     inkscape:current-layer="svg2" />
  <metadata
     id="metadata102">
    <rdf:RDF>
      <cc:Work
         rdf:about="">
        <dc:format>image/svg+xml</dc:format>
        <dc:type
           rdf:resource="http://purl.org/dc/dcmitype/StillImage" />
      </cc:Work>
    </rdf:RDF>
  </metadata>
  <text
     id="text20"
     font-size="129.23"
     line-height="125%"
     y="231.36"
     x="729.64"
     font-family="Gentium Book Basic"
     word-spacing="0"
     letter-spacing="0">
    <tspan
       id="tspan22"
       y="231.36"
       x="729.64" />
  </text>
  <text
     id="text24"
     font-size="46.954"
     transform="scale(4.0128 .2492)"
     y="579.25"
     x="378.91"
     font-family="Arial"
     text-anchor="middle" />
  <text
     id="text26"
     font-size="129.23"
     line-height="125%"
     y="151.36"
     x="1310.91"
     font-family="Gentium Book Basic"
     word-spacing="0"
     letter-spacing="0">
    <tspan
       id="tspan28"
       y="151.36"
       x="1310.91" />
  </text>
  <text
     id="text30"
     font-size="46.954"
     transform="scale(4.0128 .2492)"
     y="258.22"
     x="523.76"
     font-family="Arial"
     text-anchor="middle" />
  <text
     id="text32"
     font-size="129.23"
     line-height="125%"
     y="-29.901"
     x="239.33"
     font-family="Gentium Book Basic"
     word-spacing="0"
     letter-spacing="0">
    <tspan
       id="tspan34"
       y="-29.901"
       x="239.33" />
  </text>
  <text
     id="text36"
     font-size="46.954"
     transform="scale(4.0128 .2492)"
     y="-469.14"
     x="256.72"
     font-family="Arial"
     text-anchor="middle" />
  <text
     id="text38"
     font-size="129.23"
     line-height="125%"
     y="-246.37"
     x="1337.38"
     font-family="Gentium Book Basic"
     word-spacing="0"
     letter-spacing="0">
    <tspan
       id="tspan40"
       y="-246.37"
       x="1337.38" />
  </text>
  <text
     id="text42"
     font-size="46.954"
     transform="scale(4.0128 .2492)"
     y="-1337.81"
     x="530.36"
     font-family="Arial"
     text-anchor="middle" />
  <text
     id="text44"
     font-size="129.23"
     line-height="125%"
     y="-326.38"
     x="1918.65"
     font-family="Gentium Book Basic"
     word-spacing="0"
     letter-spacing="0">
    <tspan
       id="tspan46"
       y="-326.38"
       x="1918.65" />
  </text>
  <text
     id="text48"
     font-size="46.954"
     transform="scale(4.0128 .2492)"
     y="-1658.85"
     x="675.21"
     font-family="Arial"
     text-anchor="middle" />
  <text
     id="text50"
     font-size="129.23"
     line-height="125%"
     y="-798.78"
     x="1529.53"
     font-family="Gentium Book Basic"
     word-spacing="0"
     letter-spacing="0">
    <tspan
       id="tspan52"
       y="-798.78"
       x="1529.53" />
  </text>
  <text
     id="text54"
     font-size="46.954"
     transform="scale(4.0128 .2492)"
     y="-3554.51"
     x="578.24"
     font-family="Arial"
     text-anchor="middle" />
  <text
     id="text56"
     font-size="129.23"
     line-height="125%"
     y="-878.78"
     x="2110.79"
     font-family="Gentium Book Basic"
     word-spacing="0"
     letter-spacing="0">
    <tspan
       id="tspan58"
       y="-878.78"
       x="2110.79" />
  </text>
  <text
     id="text60"
     font-size="46.954"
     transform="scale(4.0128 .2492)"
     y="-3875.54"
     x="723.09"
     font-family="Arial"
     text-anchor="middle" />
  <g
     id="g62"
     font-family="Gentium Book Basic"
     font-size="208.33"
     line-height="125%"
     word-spacing="0"
     letter-spacing="0">
    <text
       id="text64"
       y="535.94"
       x="277.99">
      <tspan
         id="tspan66"
         y="535.94"
         x="277.99" />
    </text>
    <text
       id="text68"
       y="11.553"
       x="-860.84">
      <tspan
         id="tspan70"
         y="11.553"
         x="-860.84" />
    </text>
    <text
       id="text72"
       y="289.67"
       x="-3219.67">
      <tspan
         id="tspan74"
         y="289.67"
         x="-3219.67" />
    </text>
    <text
       id="text76"
       y="62.38"
       x="-2931.46">
      <tspan
         id="tspan78"
         y="62.38"
         x="-2931.46" />
    </text>
    <text
       id="text80"
       y="-194.52"
       x="1263.14">
      <tspan
         id="tspan82"
         y="-194.52"
         x="1263.14" />
    </text>
    <text
       id="text84"
       y="-49.48"
       x="-864.79">
      <tspan
         id="tspan86"
         y="-49.48"
         x="-864.79" />
    </text>
    <text
       id="text88"
       y="228.64"
       x="-3223.62">
      <tspan
         id="tspan90"
         y="228.64"
         x="-3223.62" />
    </text>
    <text
       id="text92"
       y="1.35"
       x="-2935.41">
      <tspan
         id="tspan94"
         y="1.35"
         x="-2935.41" />
    </text>
  </g>
  <path
     id="path96"
     d="m254.75 109.38c-38.38 0-77.25 25.62-77.25 64.5v70.75h-28.438v158h213.88v-158c-50.635-0.013-103.95-0.001-150.31 0l0.063-0.031v-63.22c0-23.843 23.723-36.469 41.5-36.563 20.665-0.108 43.19 14.299 43.19 36.28v10.219h33.5c0.931 0 1.849 0.07 2.75 0.188v-19.57c0-29.22-30.21-62.56-78.875-62.56m0.406 169.91c11.824 0 21.406 9.582 21.406 21.406 0 7.05-3.427 13.287-8.688 17.188l8.5 47.625h-42.06l8.438-47.37c-5.441-3.882-9-10.244-9-17.438 0-11.824 9.582-21.406 21.406-21.406"
     fill-rule="evenodd"
     fill="#009688" />
</svg>
