<?xml version="1.0" encoding="UTF-8" standalone="no"?>
<svg
   xmlns:dc="http://purl.org/dc/elements/1.1/"
   xmlns:cc="http://creativecommons.org/ns#"
   xmlns:rdf="http://www.w3.org/1999/02/22-rdf-syntax-ns#"
   xmlns:svg="http://www.w3.org/2000/svg"
   xmlns="http://www.w3.org/2000/svg"
   xmlns:sodipodi="http://sodipodi.sourceforge.net/DTD/sodipodi-0.dtd"
   xmlns:inkscape="http://www.inkscape.org/namespaces/inkscape"
   height="512"
   width="512"
   version="1.1"
   viewBox="0 0 512 512"
   id="svg2"
   inkscape:version="0.91 r"
   sodipodi:docname="task-attention.svg">
  <defs
     id="defs39" />
  <sodipodi:namedview
     pagecolor="#ffffff"
     bordercolor="#666666"
     borderopacity="1"
     objecttolerance="10"
     gridtolerance="10"
     guidetolerance="10"
     inkscape:pageopacity="0"
     inkscape:pageshadow="2"
     inkscape:window-width="640"
     inkscape:window-height="480"
     id="namedview37"
     showgrid="false"
     inkscape:zoom="0.4609375"
     inkscape:cx="256"
     inkscape:cy="256"
     inkscape:window-x="0"
     inkscape:window-y="0"
     inkscape:window-maximized="0"
     inkscape:current-layer="svg2" />
  <metadata
     id="metadata72">
    <rdf:RDF>
      <cc:Work
         rdf:about="">
        <dc:format>image/svg+xml</dc:format>
        <dc:type
           rdf:resource="http://purl.org/dc/dcmitype/StillImage" />
      </cc:Work>
    </rdf:RDF>
  </metadata>
  <path
     id="path8"
     d="m256 98.84-77.28 133.84-77.28 133.88h309.12l-77.28-133.87-77.28-133.84m0 77.19c6.548 0 11.888 2.076 16.03 6.219 4.41 4.677 6.625 11.291 6.625 19.844 0 8.687-2.076 18.811-6.219 30.438l-5 14.25c-2.406 7.216-4.428 17.13-6.03 29.688h-10.813c-0.267-1.871-0.545-3.7-0.813-5.438-0.134-1.737-0.327-3.396-0.594-5-0.668-4.01-1.417-7.636-2.219-10.844-0.668-3.207-1.471-6-2.406-8.406l-5-14.25c-4.143-11.626-6.219-21.751-6.219-30.438 0-8.152 2.547-14.765 7.625-19.844 4.143-4.143 9.151-6.219 15.03-6.219m-0.406 121.66c5.613 0 10.236 1.883 13.844 5.625 3.742 3.742 5.625 8.28 5.625 13.625s-1.883 9.883-5.625 13.625c-3.608 3.608-8.231 5.406-13.844 5.406-5.346 0-9.883-1.798-13.625-5.406-3.742-3.742-5.625-8.28-5.625-13.625s1.883-9.883 5.625-13.625 8.279-5.625 13.625-5.625"
     fill="#009688" />
  <text
     id="text22"
     font-size="129.23"
     line-height="125%"
     y="231.36"
     x="729.64"
     font-family="Gentium Book Basic"
     word-spacing="0"
     letter-spacing="0">
    <tspan
       id="tspan24"
       y="231.36"
       x="729.64" />
  </text>
  <text
     id="text26"
     transform="scale(4.0128 .2492)"
     font-size="46.954"
     y="579.26"
     x="378.91"
     font-family="Arial"
     text-anchor="middle" />
  <text
     id="text28"
     font-size="129.23"
     line-height="125%"
     y="151.36"
     x="1310.91"
     font-family="Gentium Book Basic"
     word-spacing="0"
     letter-spacing="0">
    <tspan
       id="tspan30"
       y="151.36"
       x="1310.91" />
  </text>
  <text
     id="text32"
     transform="scale(4.0128 .2492)"
     font-size="46.954"
     y="258.22"
     x="523.76"
     font-family="Arial"
     text-anchor="middle" />
  <text
     id="text34"
     font-size="129.23"
     line-height="125%"
     y="-29.9"
     x="239.33"
     font-family="Gentium Book Basic"
     word-spacing="0"
     letter-spacing="0">
    <tspan
       id="tspan36"
       y="-29.9"
       x="239.33" />
  </text>
  <text
     id="text38"
     transform="scale(4.0128 .2492)"
     font-size="46.954"
     y="-469.13"
     x="256.72"
     font-family="Arial"
     text-anchor="middle" />
  <text
     id="text40"
     font-size="129.23"
     line-height="125%"
     y="-246.37"
     x="1337.38"
     font-family="Gentium Book Basic"
     word-spacing="0"
     letter-spacing="0">
    <tspan
       id="tspan42"
       y="-246.37"
       x="1337.38" />
  </text>
  <text
     id="text44"
     transform="scale(4.0128 .2492)"
     font-size="46.954"
     y="-1337.8"
     x="530.36"
     font-family="Arial"
     text-anchor="middle" />
  <text
     id="text46"
     font-size="129.23"
     line-height="125%"
     y="-326.37"
     x="1918.65"
     font-family="Gentium Book Basic"
     word-spacing="0"
     letter-spacing="0">
    <tspan
       id="tspan48"
       y="-326.37"
       x="1918.65" />
  </text>
  <text
     id="text50"
     transform="scale(4.0128 .2492)"
     font-size="46.954"
     y="-1658.83"
     x="675.21"
     font-family="Arial"
     text-anchor="middle" />
  <text
     id="text52"
     font-size="129.23"
     line-height="125%"
     y="-798.77"
     x="1529.53"
     font-family="Gentium Book Basic"
     word-spacing="0"
     letter-spacing="0">
    <tspan
       id="tspan54"
       y="-798.77"
       x="1529.53" />
  </text>
  <text
     id="text56"
     transform="scale(4.0128 .2492)"
     font-size="46.954"
     y="-3554.48"
     x="578.24"
     font-family="Arial"
     text-anchor="middle" />
  <text
     id="text58"
     font-size="129.23"
     line-height="125%"
     y="-878.78"
     x="2110.79"
     font-family="Gentium Book Basic"
     word-spacing="0"
     letter-spacing="0">
    <tspan
       id="tspan60"
       y="-878.78"
       x="2110.79" />
  </text>
  <text
     id="text62"
     transform="scale(4.0128 .2492)"
     font-size="46.954"
     y="-3875.52"
     x="723.09"
     font-family="Arial"
     text-anchor="middle" />
  <text
     id="text64"
     font-size="208.33"
     line-height="125%"
     y="535.94"
     x="277.99"
     font-family="Gentium Book Basic"
     word-spacing="0"
     letter-spacing="0">
    <tspan
       id="tspan66"
       y="535.94"
       x="277.99" />
  </text>
</svg>
