<svg xmlns="http://www.w3.org/2000/svg" width="16" height="16" version="1.1">
 <defs>
   <style id="current-color-scheme" type="text/css">
   .ColorScheme-Text { color: #939597; } .ColorScheme-Highlight { color:#5294e2; }
  </style>
  <linearGradient id="arrongin" x1="0%" x2="0%" y1="0%" y2="100%">
   <stop offset="0%" style="stop-color:#dd9b44; stop-opacity:1"/>
   <stop offset="100%" style="stop-color:#ad6c16; stop-opacity:1"/>
  </linearGradient>
  <linearGradient id="aurora" x1="0%" x2="0%" y1="0%" y2="100%">
   <stop offset="0%" style="stop-color:#09D4DF; stop-opacity:1"/>
   <stop offset="100%" style="stop-color:#9269F4; stop-opacity:1"/>
  </linearGradient>
  <linearGradient id="cyberneon" x1="0%" x2="0%" y1="0%" y2="100%">
    <stop offset="0" style="stop-color:#0abdc6; stop-opacity:1"/>
    <stop offset="1" style="stop-color:#ea00d9; stop-opacity:1"/>
  </linearGradient>
  <linearGradient id="fitdance" x1="0%" x2="0%" y1="0%" y2="100%">
   <stop offset="0%" style="stop-color:#1AD6AB; stop-opacity:1"/>
   <stop offset="100%" style="stop-color:#329DB6; stop-opacity:1"/>
  </linearGradient>
  <linearGradient id="oomox" x1="0%" x2="0%" y1="0%" y2="100%">
   <stop offset="0%" style="stop-color:#66b7ff; stop-opacity:1"/>
   <stop offset="100%" style="stop-color:#006acc; stop-opacity:1"/>
  </linearGradient>
  <linearGradient id="rainblue" x1="0%" x2="0%" y1="0%" y2="100%">
   <stop offset="0%" style="stop-color:#00F260; stop-opacity:1"/>
   <stop offset="100%" style="stop-color:#0575E6; stop-opacity:1"/>
  </linearGradient>
  <linearGradient id="sunrise" x1="0%" x2="0%" y1="0%" y2="100%">
   <stop offset="0%" style="stop-color: #FF8501; stop-opacity:1"/>
   <stop offset="100%" style="stop-color: #FFCB01; stop-opacity:1"/>
  </linearGradient>
  <linearGradient id="telinkrin" x1="0%" x2="0%" y1="0%" y2="100%">
   <stop offset="0%" style="stop-color: #b2ced6; stop-opacity:1"/>
   <stop offset="100%" style="stop-color: #6da5b7; stop-opacity:1"/>
  </linearGradient>
  <linearGradient id="60spsycho" x1="0%" x2="0%" y1="0%" y2="100%">
   <stop offset="0%" style="stop-color: #df5940; stop-opacity:1"/>
   <stop offset="25%" style="stop-color: #d8d15f; stop-opacity:1"/>
   <stop offset="50%" style="stop-color: #e9882a; stop-opacity:1"/>
   <stop offset="100%" style="stop-color: #279362; stop-opacity:1"/>
  </linearGradient>
  <linearGradient id="90ssummer" x1="0%" x2="0%" y1="0%" y2="100%">
   <stop offset="0%" style="stop-color: #f618c7; stop-opacity:1"/>
   <stop offset="20%" style="stop-color: #94ffab; stop-opacity:1"/>
   <stop offset="50%" style="stop-color: #fbfd54; stop-opacity:1"/>
   <stop offset="100%" style="stop-color: #0f83ae; stop-opacity:1"/>
  </linearGradient>
 </defs>
 <path fill="url(#oomox)" class="ColorScheme-Text" d="M 3.9941406 1 C 2.7361406 1.014 1.8145 0.96876562 1.0625 1.3847656 C 0.6855 1.5917656 0.38860938 1.9438125 0.22460938 2.3828125 C 0.059609375 2.8208125 1.8503717e-17 3.342 0 4 L 0 12 C 0 12.658 0.059609375 13.179188 0.22460938 13.617188 C 0.38860938 14.056188 0.6855 14.408234 1.0625 14.615234 C 1.8145 15.031234 2.7361406 14.985 3.9941406 15 L 3.9980469 15 L 12.001953 15 L 12.005859 15 C 13.263859 14.986 14.1845 15.031234 14.9375 14.615234 C 15.3135 14.408234 15.610391 14.056188 15.775391 13.617188 C 15.939391 13.179187 16 12.658 16 12 L 16 4 C 16 3.342 15.940391 2.8208125 15.775391 2.3828125 C 15.611391 1.9438125 15.3135 1.5917656 14.9375 1.3847656 C 14.1845 0.96876562 13.263859 1.015 12.005859 1 L 12.001953 1 L 3.9980469 1 L 3.9941406 1 z M 1 4.2695312 L 15 4.2695312 L 15 12 C 15 12.592 14.936844 13.005625 14.839844 13.265625 C 14.741844 13.525625 14.637125 13.637281 14.453125 13.738281 C 14.087125 13.940281 13.259 13.985 12 14 L 4.0058594 14 L 4 14 C 2.741 13.985 1.9109219 13.940281 1.5449219 13.738281 C 1.3619219 13.637281 1.2581562 13.525625 1.1601562 13.265625 C 1.0631563 13.005625 1 12.592 1 12 L 1 4.2695312 z"/>
</svg>
