<svg xmlns="http://www.w3.org/2000/svg" width="16" height="16" version="1.1">
 <defs>
   <style id="current-color-scheme" type="text/css">
   .ColorScheme-Text { color: #939597; } .ColorScheme-Highlight { color:#5294e2; }
  </style>
  <linearGradient id="arrongin" x1="0%" x2="0%" y1="0%" y2="100%">
   <stop offset="0%" style="stop-color:#dd9b44; stop-opacity:1"/>
   <stop offset="100%" style="stop-color:#ad6c16; stop-opacity:1"/>
  </linearGradient>
  <linearGradient id="aurora" x1="0%" x2="0%" y1="0%" y2="100%">
   <stop offset="0%" style="stop-color:#09D4DF; stop-opacity:1"/>
   <stop offset="100%" style="stop-color:#9269F4; stop-opacity:1"/>
  </linearGradient>
  <linearGradient id="cyberneon" x1="0%" x2="0%" y1="0%" y2="100%">
    <stop offset="0" style="stop-color:#0abdc6; stop-opacity:1"/>
    <stop offset="1" style="stop-color:#ea00d9; stop-opacity:1"/>
  </linearGradient>
  <linearGradient id="fitdance" x1="0%" x2="0%" y1="0%" y2="100%">
   <stop offset="0%" style="stop-color:#1AD6AB; stop-opacity:1"/>
   <stop offset="100%" style="stop-color:#329DB6; stop-opacity:1"/>
  </linearGradient>
  <linearGradient id="oomox" x1="0%" x2="0%" y1="0%" y2="100%">
   <stop offset="0%" style="stop-color:#66b7ff; stop-opacity:1"/>
   <stop offset="100%" style="stop-color:#006acc; stop-opacity:1"/>
  </linearGradient>
  <linearGradient id="rainblue" x1="0%" x2="0%" y1="0%" y2="100%">
   <stop offset="0%" style="stop-color:#00F260; stop-opacity:1"/>
   <stop offset="100%" style="stop-color:#0575E6; stop-opacity:1"/>
  </linearGradient>
  <linearGradient id="sunrise" x1="0%" x2="0%" y1="0%" y2="100%">
   <stop offset="0%" style="stop-color: #FF8501; stop-opacity:1"/>
   <stop offset="100%" style="stop-color: #FFCB01; stop-opacity:1"/>
  </linearGradient>
  <linearGradient id="telinkrin" x1="0%" x2="0%" y1="0%" y2="100%">
   <stop offset="0%" style="stop-color: #b2ced6; stop-opacity:1"/>
   <stop offset="100%" style="stop-color: #6da5b7; stop-opacity:1"/>
  </linearGradient>
  <linearGradient id="60spsycho" x1="0%" x2="0%" y1="0%" y2="100%">
   <stop offset="0%" style="stop-color: #df5940; stop-opacity:1"/>
   <stop offset="25%" style="stop-color: #d8d15f; stop-opacity:1"/>
   <stop offset="50%" style="stop-color: #e9882a; stop-opacity:1"/>
   <stop offset="100%" style="stop-color: #279362; stop-opacity:1"/>
  </linearGradient>
  <linearGradient id="90ssummer" x1="0%" x2="0%" y1="0%" y2="100%">
   <stop offset="0%" style="stop-color: #f618c7; stop-opacity:1"/>
   <stop offset="20%" style="stop-color: #94ffab; stop-opacity:1"/>
   <stop offset="50%" style="stop-color: #fbfd54; stop-opacity:1"/>
   <stop offset="100%" style="stop-color: #0f83ae; stop-opacity:1"/>
  </linearGradient>
 </defs>
 <path fill="url(#oomox)" class="ColorScheme-Text" d="m 14.929531,4.00256 c 0.18615,0.37239 0.279234,0.71712 0.27925,1.03425 -1.6e-5,0.3655 -0.0931,0.71023 -0.27925,1.03431 -0.186182,0.31713 -0.437852,0.56885 -0.755008,0.75501 -0.324084,0.18616 -0.668836,0.27924 -1.034259,0.27924 -0.372347,0 -0.717099,-0.0931 -1.034258,-0.27924 -0.131019,-0.0759 -0.25513,-0.16551 -0.372334,-0.26895 L 9.2411095,7.99482 11.733672,9.44277 c 0.117204,-0.10343 0.241315,-0.19306 0.372334,-0.2689 0.317159,-0.18616 0.661911,-0.27924 1.034258,-0.27924 0.365423,0 0.710175,0.0931 1.034259,0.27924 0.317156,0.18616 0.568826,0.43788 0.755008,0.75501 0.18615,0.32408 0.279234,0.66881 0.27925,1.03425 -1.6e-5,0.35856 -0.0931,0.69988 -0.27925,1.0239 -0.193078,0.32408 -0.444747,0.5792 -0.755008,0.76536 -0.324084,0.18616 -0.668836,0.27924 -1.034259,0.27924 -0.351661,0 -0.696413,-0.0931 -1.034258,-0.27924 -0.324081,-0.17928 -0.579198,-0.43093 -0.765352,-0.75501 -0.179283,-0.31713 -0.268919,-0.66193 -0.268906,-1.03425 -1.3e-5,-0.15168 0.01378,-0.2999 0.04137,-0.4447 l -2.4925625,-1.448 v 2.88559 c 0.144786,0.0482 0.282688,0.11029 0.413703,0.18616 0.317162,0.18616 0.568832,0.43788 0.755009,0.75501 0.186155,0.3172 0.2792395,0.66192 0.2792495,1.03425 -10e-6,0.37239 -0.093101,0.71712 -0.2792495,1.03425 -0.186177,0.31719 -0.437847,0.56885 -0.755009,0.75506 C 8.7170765,15.90691 8.3723245,16 7.9999995,16 c -0.372341,0 -0.717093,-0.0931 -1.034258,-0.27925 -0.317179,-0.18621 -0.568849,-0.43787 -0.755008,-0.75506 -0.186174,-0.31713 -0.279257,-0.66186 -0.27925,-1.03425 -7e-6,-0.37233 0.09307,-0.71705 0.27925,-1.03425 0.186159,-0.31713 0.437829,-0.56885 0.755008,-0.75501 0.130998,-0.0759 0.2689,-0.13786 0.413704,-0.18616 V 9.07043 l -2.492563,1.448 c 0.02758,0.1448 0.04136,0.29302 0.04137,0.4447 -6e-6,0.37232 -0.08965,0.71712 -0.268907,1.03425 -0.186172,0.32408 -0.441288,0.57573 -0.765351,0.75501 -0.324072,0.18616 -0.668824,0.27924 -1.034258,0.27924 -0.372336,0 -0.71709,-0.0931 -1.034259,-0.27924 -0.317175,-0.17928 -0.568844,-0.43093 -0.755009,-0.75501 -0.186168,-0.31713 -0.279251,-0.66193 -0.279249,-1.03425 -2e-6,-0.36544 0.09309,-0.71017 0.279249,-1.03425 0.186165,-0.31713 0.437834,-0.56885 0.755009,-0.75501 0.324064,-0.18616 0.668817,-0.27924 1.034259,-0.27924 0.365434,0 0.710186,0.0931 1.034258,0.27924 0.131001,0.0759 0.255112,0.16551 0.372332,0.2689 L 6.7588895,7.99482 4.2663265,6.55718 c -0.110331,0.10343 -0.234436,0.19311 -0.372332,0.26895 -0.337862,0.18616 -0.682615,0.27924 -1.034258,0.27924 -0.372336,0 -0.71709,-0.0931 -1.034259,-0.27924 C 1.5083025,6.63997 1.2566335,6.38825 1.0704685,6.07112 0.8843005,5.75393 0.7912175,5.4092 0.7912195,5.03681 c -2e-6,-0.37226 0.09309,-0.71705 0.279249,-1.03425 0.186165,-0.32402 0.437834,-0.57573 0.755009,-0.75501 0.324064,-0.18616 0.668817,-0.27924 1.034259,-0.27924 0.351643,0 0.696396,0.0931 1.034258,0.27924 0.324063,0.17928 0.579179,0.43099 0.765351,0.75501 0.179265,0.3172 0.268901,0.66199 0.268907,1.03425 -6e-6,0.15174 -0.01379,0.29996 -0.04137,0.44476 l 2.492563,1.44794 V 4.04392 C 7.2346415,3.99572 7.0967395,3.93363 6.9657415,3.85776 6.6485625,3.67166 6.3968925,3.41994 6.2107335,3.10275 6.0245595,2.78562 5.9314765,2.44089 5.9314835,2.0685 c -7e-6,-0.37233 0.09307,-0.71705 0.27925,-1.03425 0.186159,-0.31713 0.437829,-0.56884 0.755008,-0.755 C 7.2898015,0.09309 7.6345545,0 7.9999995,0 c 0.372325,0 0.717077,0.0931 1.034259,0.27925 0.317162,0.18616 0.568832,0.43787 0.755009,0.755 0.186155,0.3172 0.2792395,0.66192 0.2792495,1.03425 -10e-6,0.37239 -0.093101,0.71712 -0.2792495,1.03425 -0.186177,0.31719 -0.437847,0.56891 -0.755009,0.75501 -0.131015,0.0759 -0.268917,0.13792 -0.413703,0.18616 V 6.92951 L 11.113118,5.48157 c -0.0276,-0.1448 -0.04138,-0.29302 -0.04137,-0.44476 -1.3e-5,-0.37226 0.08962,-0.71705 0.268906,-1.03425 0.179259,-0.31025 0.434376,-0.5619 0.765352,-0.75501 0.317159,-0.18616 0.661911,-0.27924 1.034258,-0.27924 0.365423,0 0.710175,0.0931 1.034259,0.27924 0.351632,0.20687 0.603301,0.45859 0.755008,0.75501"/>
</svg>
