<svg xmlns="http://www.w3.org/2000/svg" width="16" height="16" version="1.1">
 <defs>
   <style id="current-color-scheme" type="text/css">
   .ColorScheme-Text { color: #939597; } .ColorScheme-Highlight { color:#5294e2; }
  </style>
  <linearGradient id="arrongin" x1="0%" x2="0%" y1="0%" y2="100%">
   <stop offset="0%" style="stop-color:#dd9b44; stop-opacity:1"/>
   <stop offset="100%" style="stop-color:#ad6c16; stop-opacity:1"/>
  </linearGradient>
  <linearGradient id="aurora" x1="0%" x2="0%" y1="0%" y2="100%">
   <stop offset="0%" style="stop-color:#09D4DF; stop-opacity:1"/>
   <stop offset="100%" style="stop-color:#9269F4; stop-opacity:1"/>
  </linearGradient>
  <linearGradient id="cyberneon" x1="0%" x2="0%" y1="0%" y2="100%">
    <stop offset="0" style="stop-color:#0abdc6; stop-opacity:1"/>
    <stop offset="1" style="stop-color:#ea00d9; stop-opacity:1"/>
  </linearGradient>
  <linearGradient id="fitdance" x1="0%" x2="0%" y1="0%" y2="100%">
   <stop offset="0%" style="stop-color:#1AD6AB; stop-opacity:1"/>
   <stop offset="100%" style="stop-color:#329DB6; stop-opacity:1"/>
  </linearGradient>
  <linearGradient id="oomox" x1="0%" x2="0%" y1="0%" y2="100%">
   <stop offset="0%" style="stop-color:#66b7ff; stop-opacity:1"/>
   <stop offset="100%" style="stop-color:#006acc; stop-opacity:1"/>
  </linearGradient>
  <linearGradient id="rainblue" x1="0%" x2="0%" y1="0%" y2="100%">
   <stop offset="0%" style="stop-color:#00F260; stop-opacity:1"/>
   <stop offset="100%" style="stop-color:#0575E6; stop-opacity:1"/>
  </linearGradient>
  <linearGradient id="sunrise" x1="0%" x2="0%" y1="0%" y2="100%">
   <stop offset="0%" style="stop-color: #FF8501; stop-opacity:1"/>
   <stop offset="100%" style="stop-color: #FFCB01; stop-opacity:1"/>
  </linearGradient>
  <linearGradient id="telinkrin" x1="0%" x2="0%" y1="0%" y2="100%">
   <stop offset="0%" style="stop-color: #b2ced6; stop-opacity:1"/>
   <stop offset="100%" style="stop-color: #6da5b7; stop-opacity:1"/>
  </linearGradient>
  <linearGradient id="60spsycho" x1="0%" x2="0%" y1="0%" y2="100%">
   <stop offset="0%" style="stop-color: #df5940; stop-opacity:1"/>
   <stop offset="25%" style="stop-color: #d8d15f; stop-opacity:1"/>
   <stop offset="50%" style="stop-color: #e9882a; stop-opacity:1"/>
   <stop offset="100%" style="stop-color: #279362; stop-opacity:1"/>
  </linearGradient>
  <linearGradient id="90ssummer" x1="0%" x2="0%" y1="0%" y2="100%">
   <stop offset="0%" style="stop-color: #f618c7; stop-opacity:1"/>
   <stop offset="20%" style="stop-color: #94ffab; stop-opacity:1"/>
   <stop offset="50%" style="stop-color: #fbfd54; stop-opacity:1"/>
   <stop offset="100%" style="stop-color: #0f83ae; stop-opacity:1"/>
  </linearGradient>
 </defs>
 <path fill="url(#oomox)" class="ColorScheme-Text" d="M 4.4453125 1.3398438 A 4.4444438 4.4401154 0 0 0 0 5.7792969 A 4.4444438 4.4401154 0 0 0 3.6386719 10.144531 C 3.6660722 10.21049 3.6968168 10.275257 3.7402344 10.335938 C 3.7444644 10.345937 3.7490422 10.346526 3.7539062 10.353516 C 3.7719892 10.376496 3.7898949 10.403754 3.8105469 10.427734 L 7.3730469 14.380859 C 7.553995 14.581364 7.7759327 14.659757 7.9941406 14.660156 L 7.9980469 14.660156 L 8.0019531 14.660156 C 8.2202667 14.659857 8.443962 14.581166 8.625 14.380859 L 12.189453 10.427734 C 12.210123 10.405754 12.226081 10.378496 12.244141 10.353516 C 12.248941 10.343516 12.255316 10.342928 12.259766 10.335938 C 12.303218 10.274926 12.331968 10.210303 12.359375 10.144531 A 4.4444438 4.4401154 0 0 0 16 5.7792969 A 4.4444438 4.4401154 0 0 0 11.554688 1.3398438 A 4.4444438 4.4401154 0 0 0 8 3.1152344 A 4.4444438 4.4401154 0 0 0 4.4453125 1.3398438 z M 4.4453125 4.890625 A 1.3333331 1.3320346 0 0 1 5.7773438 6.2226562 A 1.3333331 1.3320346 0 0 1 4.4453125 7.5546875 A 1.3333331 1.3320346 0 0 1 3.1113281 6.2226562 A 1.3333331 1.3320346 0 0 1 4.4453125 4.890625 z M 11.554688 4.890625 A 1.3333331 1.3320346 0 0 1 12.888672 6.2226562 A 1.3333331 1.3320346 0 0 1 11.554688 7.5546875 A 1.3333331 1.3320346 0 0 1 10.222656 6.2226562 A 1.3333331 1.3320346 0 0 1 11.554688 4.890625 z"/>
</svg>
