<svg xmlns="http://www.w3.org/2000/svg" width="16" height="16" version="1.1">
 <defs>
   <style id="current-color-scheme" type="text/css">
   .ColorScheme-Text { color: #939597; } .ColorScheme-Highlight { color:#5294e2; }
  </style>
  <linearGradient id="arrongin" x1="0%" x2="0%" y1="0%" y2="100%">
   <stop offset="0%" style="stop-color:#dd9b44; stop-opacity:1"/>
   <stop offset="100%" style="stop-color:#ad6c16; stop-opacity:1"/>
  </linearGradient>
  <linearGradient id="aurora" x1="0%" x2="0%" y1="0%" y2="100%">
   <stop offset="0%" style="stop-color:#09D4DF; stop-opacity:1"/>
   <stop offset="100%" style="stop-color:#9269F4; stop-opacity:1"/>
  </linearGradient>
  <linearGradient id="cyberneon" x1="0%" x2="0%" y1="0%" y2="100%">
    <stop offset="0" style="stop-color:#0abdc6; stop-opacity:1"/>
    <stop offset="1" style="stop-color:#ea00d9; stop-opacity:1"/>
  </linearGradient>
  <linearGradient id="fitdance" x1="0%" x2="0%" y1="0%" y2="100%">
   <stop offset="0%" style="stop-color:#1AD6AB; stop-opacity:1"/>
   <stop offset="100%" style="stop-color:#329DB6; stop-opacity:1"/>
  </linearGradient>
  <linearGradient id="oomox" x1="0%" x2="0%" y1="0%" y2="100%">
   <stop offset="0%" style="stop-color:#66b7ff; stop-opacity:1"/>
   <stop offset="100%" style="stop-color:#006acc; stop-opacity:1"/>
  </linearGradient>
  <linearGradient id="rainblue" x1="0%" x2="0%" y1="0%" y2="100%">
   <stop offset="0%" style="stop-color:#00F260; stop-opacity:1"/>
   <stop offset="100%" style="stop-color:#0575E6; stop-opacity:1"/>
  </linearGradient>
  <linearGradient id="sunrise" x1="0%" x2="0%" y1="0%" y2="100%">
   <stop offset="0%" style="stop-color: #FF8501; stop-opacity:1"/>
   <stop offset="100%" style="stop-color: #FFCB01; stop-opacity:1"/>
  </linearGradient>
  <linearGradient id="telinkrin" x1="0%" x2="0%" y1="0%" y2="100%">
   <stop offset="0%" style="stop-color: #b2ced6; stop-opacity:1"/>
   <stop offset="100%" style="stop-color: #6da5b7; stop-opacity:1"/>
  </linearGradient>
  <linearGradient id="60spsycho" x1="0%" x2="0%" y1="0%" y2="100%">
   <stop offset="0%" style="stop-color: #df5940; stop-opacity:1"/>
   <stop offset="25%" style="stop-color: #d8d15f; stop-opacity:1"/>
   <stop offset="50%" style="stop-color: #e9882a; stop-opacity:1"/>
   <stop offset="100%" style="stop-color: #279362; stop-opacity:1"/>
  </linearGradient>
  <linearGradient id="90ssummer" x1="0%" x2="0%" y1="0%" y2="100%">
   <stop offset="0%" style="stop-color: #f618c7; stop-opacity:1"/>
   <stop offset="20%" style="stop-color: #94ffab; stop-opacity:1"/>
   <stop offset="50%" style="stop-color: #fbfd54; stop-opacity:1"/>
   <stop offset="100%" style="stop-color: #0f83ae; stop-opacity:1"/>
  </linearGradient>
 </defs>
 <path fill="url(#oomox)" class="ColorScheme-Text" d="M 7.6464844 2.6054688 C 7.4542464 2.6054688 7.3007812 2.7555535 7.3007812 2.9433594 L 7.3007812 4.3007812 C 7.3007812 4.4885872 7.4542464 4.640625 7.6464844 4.640625 L 8.3417969 4.640625 C 8.5340349 4.640625 8.6875 4.4885873 8.6875 4.3007812 L 8.6875 2.9433594 C 8.6875 2.7555535 8.5340349 2.6054688 8.3417969 2.6054688 L 7.6464844 2.6054688 z M 11.421875 3.8574219 C 11.333205 3.8574219 11.243725 3.8906174 11.175781 3.9570312 L 10.195312 4.9160156 C 10.059426 5.0488434 10.059426 5.2636566 10.195312 5.3964844 L 10.685547 5.8769531 C 10.821433 6.0097809 11.039895 6.0097809 11.175781 5.8769531 L 12.158203 4.9160156 C 12.29409 4.7831879 12.29409 4.5703277 12.158203 4.4375 L 11.666016 3.9570312 C 11.598072 3.8906174 11.510545 3.8574219 11.421875 3.8574219 z M 4.5527344 3.8613281 C 4.4640647 3.8613281 4.376537 3.8945236 4.3085938 3.9609375 L 3.8164062 4.4414062 C 3.6805197 4.574234 3.6805197 4.7890473 3.8164062 4.921875 L 4.7988281 5.8808594 C 4.9347147 6.0136871 5.153176 6.0136871 5.2890625 5.8808594 L 5.7792969 5.4003906 C 5.9151834 5.2675629 5.9151834 5.0547027 5.7792969 4.921875 L 4.7988281 3.9609375 C 4.7308849 3.8945236 4.641404 3.8613281 4.5527344 3.8613281 z M 2.7871094 7.359375 C 2.5948714 7.359375 2.4394531 7.5114127 2.4394531 7.6992188 L 2.4394531 8.3789062 C 2.4394531 8.5667123 2.5948714 8.7167969 2.7871094 8.7167969 L 4.1757812 8.7167969 C 4.3680192 8.7167969 4.5234375 8.5667123 4.5234375 8.3789062 L 4.5234375 7.6992188 C 4.5234375 7.5114128 4.3680192 7.359375 4.1757812 7.359375 L 2.7871094 7.359375 z M 11.806641 7.359375 C 11.614403 7.359375 11.460938 7.5114127 11.460938 7.6992188 L 11.460938 8.3789062 C 11.460937 8.5667123 11.614403 8.7167969 11.806641 8.7167969 L 13.195312 8.7167969 C 13.387551 8.7167969 13.542969 8.5667123 13.542969 8.3789062 L 13.542969 7.6992188 C 13.542969 7.5114128 13.38755 7.359375 13.195312 7.359375 L 11.806641 7.359375 z M 5.0429688 10.091797 C 4.9542991 10.091797 4.8648183 10.124992 4.796875 10.191406 L 3.8164062 11.152344 C 3.6805197 11.285171 3.6805197 11.498032 3.8164062 11.630859 L 4.3066406 12.111328 C 4.4425272 12.244156 4.6609885 12.244156 4.796875 12.111328 L 5.7792969 11.152344 C 5.9151834 11.019516 5.9151834 10.804703 5.7792969 10.671875 L 5.2890625 10.191406 C 5.2211192 10.124992 5.1316384 10.091797 5.0429688 10.091797 z M 10.931641 10.097656 C 10.842971 10.097656 10.75349 10.130852 10.685547 10.197266 L 10.195312 10.677734 C 10.059426 10.810562 10.059426 11.023422 10.195312 11.15625 L 11.177734 12.117188 C 11.313621 12.250015 11.532082 12.250015 11.667969 12.117188 L 12.158203 11.636719 C 12.29409 11.503891 12.29409 11.289078 12.158203 11.15625 L 11.177734 10.197266 C 11.109791 10.130852 11.02031 10.097656 10.931641 10.097656 z M 7.6464844 11.423828 C 7.4542464 11.423828 7.3007812 11.575866 7.3007812 11.763672 L 7.3007812 13.121094 C 7.3007812 13.3089 7.4542464 13.460938 7.6464844 13.460938 L 8.3417969 13.460938 C 8.5340349 13.460938 8.6875 13.3089 8.6875 13.121094 L 8.6875 11.763672 C 8.6875 11.575866 8.5340349 11.423828 8.3417969 11.423828 L 7.6464844 11.423828 z"/>
 <path fill="url(#oomox)" class="ColorScheme-Text" d="m 6.42521,5.69964 v 4.68792 h 0.42057 0.0437 c 0.0811,4.5e-4 0.16137,-0.0176 0.23205,-0.0586 l 3.24866,-1.87517 c 0.14419,-0.0807 0.21756,-0.24538 0.21756,-0.41019 0,-0.1648 -0.0734,-0.3296 -0.21756,-0.41021 L 7.12153,5.75822 C 7.05093,5.71782 6.97063,5.69912 6.88948,5.69962 h -0.0437 z"/>
 <path fill="url(#oomox)" class="ColorScheme-Text" d="M 8,0 C 3.59114,0 0,3.59113 0,8 c 0,4.40881 3.59114,8 8,8 4.40881,0 8,-3.59119 8,-8 C 16,3.59113 12.40881,0 8,0 Z m 0,1.14286 c 3.79121,0 6.85714,3.06587 6.85714,6.85714 0,3.79121 -3.06593,6.85714 -6.85714,6.85714 C 4.20874,14.85714 1.14286,11.79121 1.14286,8 1.14286,4.20873 4.20874,1.14286 8,1.14286 Z"/>
</svg>
