<svg xmlns="http://www.w3.org/2000/svg" width="16" height="16" version="1.1">
 <defs>
   <style id="current-color-scheme" type="text/css">
   .ColorScheme-Text { color: #939597; } .ColorScheme-Highlight { color:#5294e2; }
  </style>
  <linearGradient id="arrongin" x1="0%" x2="0%" y1="0%" y2="100%">
   <stop offset="0%" style="stop-color:#dd9b44; stop-opacity:1"/>
   <stop offset="100%" style="stop-color:#ad6c16; stop-opacity:1"/>
  </linearGradient>
  <linearGradient id="aurora" x1="0%" x2="0%" y1="0%" y2="100%">
   <stop offset="0%" style="stop-color:#09D4DF; stop-opacity:1"/>
   <stop offset="100%" style="stop-color:#9269F4; stop-opacity:1"/>
  </linearGradient>
  <linearGradient id="cyberneon" x1="0%" x2="0%" y1="0%" y2="100%">
    <stop offset="0" style="stop-color:#0abdc6; stop-opacity:1"/>
    <stop offset="1" style="stop-color:#ea00d9; stop-opacity:1"/>
  </linearGradient>
  <linearGradient id="fitdance" x1="0%" x2="0%" y1="0%" y2="100%">
   <stop offset="0%" style="stop-color:#1AD6AB; stop-opacity:1"/>
   <stop offset="100%" style="stop-color:#329DB6; stop-opacity:1"/>
  </linearGradient>
  <linearGradient id="oomox" x1="0%" x2="0%" y1="0%" y2="100%">
   <stop offset="0%" style="stop-color:#66b7ff; stop-opacity:1"/>
   <stop offset="100%" style="stop-color:#006acc; stop-opacity:1"/>
  </linearGradient>
  <linearGradient id="rainblue" x1="0%" x2="0%" y1="0%" y2="100%">
   <stop offset="0%" style="stop-color:#00F260; stop-opacity:1"/>
   <stop offset="100%" style="stop-color:#0575E6; stop-opacity:1"/>
  </linearGradient>
  <linearGradient id="sunrise" x1="0%" x2="0%" y1="0%" y2="100%">
   <stop offset="0%" style="stop-color: #FF8501; stop-opacity:1"/>
   <stop offset="100%" style="stop-color: #FFCB01; stop-opacity:1"/>
  </linearGradient>
  <linearGradient id="telinkrin" x1="0%" x2="0%" y1="0%" y2="100%">
   <stop offset="0%" style="stop-color: #b2ced6; stop-opacity:1"/>
   <stop offset="100%" style="stop-color: #6da5b7; stop-opacity:1"/>
  </linearGradient>
  <linearGradient id="60spsycho" x1="0%" x2="0%" y1="0%" y2="100%">
   <stop offset="0%" style="stop-color: #df5940; stop-opacity:1"/>
   <stop offset="25%" style="stop-color: #d8d15f; stop-opacity:1"/>
   <stop offset="50%" style="stop-color: #e9882a; stop-opacity:1"/>
   <stop offset="100%" style="stop-color: #279362; stop-opacity:1"/>
  </linearGradient>
  <linearGradient id="90ssummer" x1="0%" x2="0%" y1="0%" y2="100%">
   <stop offset="0%" style="stop-color: #f618c7; stop-opacity:1"/>
   <stop offset="20%" style="stop-color: #94ffab; stop-opacity:1"/>
   <stop offset="50%" style="stop-color: #fbfd54; stop-opacity:1"/>
   <stop offset="100%" style="stop-color: #0f83ae; stop-opacity:1"/>
  </linearGradient>
 </defs>
 <path fill="url(#oomox)" class="ColorScheme-Text" fill-rule="evenodd" d="m 9.3393593,15.999962 c 1.2928017,-0.0378 2.4857607,-0.86578 2.9212437,-2.16255 0.557409,-1.65975 -0.336378,-3.45923 -1.996175,-4.0166304 -0.192175,-0.0661 -0.3864297,-0.1115 -0.5802127,-0.13834 -0.09859,-0.008 -0.194164,-0.0302 -0.292095,-0.0567 -0.393246,-0.13153 -0.678052,-0.44375 -0.795193,-0.81184 -0.120831,-0.27553 -0.143728,-0.59328 -0.04069,-0.90078 0.05205,-0.1561 0.130574,-0.29632 0.231253,-0.41348 0.0075,-0.008 0.01705,-0.0189 0.0246,-0.0302 0.0092,-0.008 0.01893,-0.0189 0.02839,-0.0264 0.691866,-0.62922 1.1686317,-1.48895 1.3064487,-2.45863 0.01039,-0.0567 0.02648,-0.1115 0.04447,-0.16668 0.217059,-0.65666 0.925861,-1.01227 1.58234,-0.7948 0.112978,0.0378 0.214505,0.0945 0.30837,0.1542 h 0.0041 c 0.16625,0.11075 0.348963,0.20145 0.54776,0.26797 1.194595,0.39459 2.485787,-0.2536 2.880668,-1.44843 0.394852,-1.1946 -0.253868,-2.48580996 -1.448454,-2.88065996 -1.115936,-0.36888 -2.316425,0.17046 -2.791403,1.21712996 -0.244404,0.60839 -0.926904,0.93105 -1.5579947,0.72193 -0.227375,-0.0756 -0.415953,-0.20712 -0.559872,-0.37758 -0.754124,-0.85439996 -1.855942,-1.39158996 -3.083524,-1.39158996 -2.270185,0 -4.110027,1.84388996 -4.110027,4.11403996 0,0.84968 0.260206,1.63741 0.701895,2.29237 0.133132,0.23282 0.193971,0.50529 0.154138,0.79102 -0.02649,0.19124 -0.09462,0.36813 -0.19473,0.51946 l -0.255569,0.34545 c -0.183565,0.22224 -0.438945,0.37849 -0.726213,0.43431 l -0.0041,0.004 c -0.63961495,0.13152 -1.15839195,0.65571 -1.25367495,1.3388604 -0.121022,0.86767 0.483701,1.66825 1.35106895,1.78928 0.867388,0.12094 1.672364,-0.48348 1.793327,-1.35108 0.0246,-0.17802 0.01988,-0.35679 -0.01228,-0.52324 -0.01421,-0.1088504 -0.0161,-0.2184604 0,-0.3329804 0.02744,-0.19767 0.100959,-0.38132 0.206934,-0.53552 l 0.247526,-0.33676 c 0.268061,-0.32088 0.687798,-0.50052 1.131975,-0.43808 0.02177,0.002 0.04352,0.008 0.06529,0.008 0.24327,0.0567 0.493067,0.085 0.750624,0.0975 0.0161,8e-5 0.03216,0.002 0.0492,0.004 0.0161,2.9e-4 0.03216,-2.9e-4 0.0492,0 0.09755,0.008 0.195196,0.0265 0.292088,0.0567 0.392014,0.13153 0.673321,0.43714 0.791218,0.80334 0.122252,0.27629 0.148273,0.59612 0.04447,0.9045604 -0.04542,0.13531 -0.116006,0.26193 -0.198797,0.36889 -0.30657,0.32353 -0.546623,0.71815 -0.697827,1.16844 -0.557411,1.65975 0.336375,3.45927 1.996172,4.01668 0.36306,0.12208 0.733499,0.17235 1.095472,0.1629 z m -0.11761,-1.03458 c -0.209585,-0.004 -0.41974,-0.0378 -0.628852,-0.1096 -1.115169,-0.37456 -1.717466,-1.58292 -1.342948,-2.69811 0.374509,-1.11512 1.582907,-1.71746 2.698086,-1.34295 1.1151727,0.37456 1.7174697,1.58291 1.3429607,2.69811 -0.304298,0.90644 -1.161079,1.47277 -2.0692117,1.45251 z m -7.213851,-3.69209 c -0.06151,0.004 -0.119601,5.9e-4 -0.182617,-0.008 -0.50376,-0.0661 -0.85735695,-0.53462 -0.787149,-1.03866 0.07002,-0.5034004 0.534891,-0.8534904 1.038669,-0.7834604 0.503762,0.0661 0.857358,0.53462 0.78715,1.0386604 -0.0615,0.44092 -0.428442,0.76358 -0.856127,0.79102 z m 4.065395,-3.9639504 c -1.605012,0 -2.905015,-1.30001 -2.905015,-2.90503 1e-5,-1.60498 1.300003,-2.90904 2.905015,-2.90904 1.605015,0 2.909074,1.30406 2.909074,2.90904 0,1.60502 -1.304059,2.90503 -2.909074,2.90503 z m 7.3315007,-3.6231 c -0.04731,0.002 -0.09368,-10e-4 -0.142028,-0.004 -0.773714,-0.0472 -1.367163,-0.70681 -1.322662,-1.4809 0.04447,-0.77402 0.707193,-1.36312996 1.480906,-1.31864996 0.773714,0.0473 1.367166,0.70682996 1.322665,1.48091996 -0.04163,0.72575 -0.628282,1.29147 -1.338901,1.32269 z"/>
</svg>
