<svg xmlns="http://www.w3.org/2000/svg" width="16" height="16" version="1.1">
 <defs>
   <style id="current-color-scheme" type="text/css">
   .ColorScheme-Text { color: #939597; } .ColorScheme-Highlight { color:#5294e2; }
  </style>
  <linearGradient id="arrongin" x1="0%" x2="0%" y1="0%" y2="100%">
   <stop offset="0%" style="stop-color:#dd9b44; stop-opacity:1"/>
   <stop offset="100%" style="stop-color:#ad6c16; stop-opacity:1"/>
  </linearGradient>
  <linearGradient id="aurora" x1="0%" x2="0%" y1="0%" y2="100%">
   <stop offset="0%" style="stop-color:#09D4DF; stop-opacity:1"/>
   <stop offset="100%" style="stop-color:#9269F4; stop-opacity:1"/>
  </linearGradient>
  <linearGradient id="cyberneon" x1="0%" x2="0%" y1="0%" y2="100%">
    <stop offset="0" style="stop-color:#0abdc6; stop-opacity:1"/>
    <stop offset="1" style="stop-color:#ea00d9; stop-opacity:1"/>
  </linearGradient>
  <linearGradient id="fitdance" x1="0%" x2="0%" y1="0%" y2="100%">
   <stop offset="0%" style="stop-color:#1AD6AB; stop-opacity:1"/>
   <stop offset="100%" style="stop-color:#329DB6; stop-opacity:1"/>
  </linearGradient>
  <linearGradient id="oomox" x1="0%" x2="0%" y1="0%" y2="100%">
   <stop offset="0%" style="stop-color:#66b7ff; stop-opacity:1"/>
   <stop offset="100%" style="stop-color:#006acc; stop-opacity:1"/>
  </linearGradient>
  <linearGradient id="rainblue" x1="0%" x2="0%" y1="0%" y2="100%">
   <stop offset="0%" style="stop-color:#00F260; stop-opacity:1"/>
   <stop offset="100%" style="stop-color:#0575E6; stop-opacity:1"/>
  </linearGradient>
  <linearGradient id="sunrise" x1="0%" x2="0%" y1="0%" y2="100%">
   <stop offset="0%" style="stop-color: #FF8501; stop-opacity:1"/>
   <stop offset="100%" style="stop-color: #FFCB01; stop-opacity:1"/>
  </linearGradient>
  <linearGradient id="telinkrin" x1="0%" x2="0%" y1="0%" y2="100%">
   <stop offset="0%" style="stop-color: #b2ced6; stop-opacity:1"/>
   <stop offset="100%" style="stop-color: #6da5b7; stop-opacity:1"/>
  </linearGradient>
  <linearGradient id="60spsycho" x1="0%" x2="0%" y1="0%" y2="100%">
   <stop offset="0%" style="stop-color: #df5940; stop-opacity:1"/>
   <stop offset="25%" style="stop-color: #d8d15f; stop-opacity:1"/>
   <stop offset="50%" style="stop-color: #e9882a; stop-opacity:1"/>
   <stop offset="100%" style="stop-color: #279362; stop-opacity:1"/>
  </linearGradient>
  <linearGradient id="90ssummer" x1="0%" x2="0%" y1="0%" y2="100%">
   <stop offset="0%" style="stop-color: #f618c7; stop-opacity:1"/>
   <stop offset="20%" style="stop-color: #94ffab; stop-opacity:1"/>
   <stop offset="50%" style="stop-color: #fbfd54; stop-opacity:1"/>
   <stop offset="100%" style="stop-color: #0f83ae; stop-opacity:1"/>
  </linearGradient>
 </defs>
 <path fill="url(#oomox)" class="ColorScheme-Text" d="m 9.072701,3.4171069 c 0.021368,0.1899573 0.071416,0.3738548 0.071416,0.5695187 0,2.8308494 -2.3021114,5.1256678 -5.1419574,5.1256678 -0.1344793,0 -0.2609143,-0.025514 -0.3927884,-0.035538 v 2.5272956 c 0,1.143708 0.9237013,2.064506 2.0710662,2.064506 L 7.445957,13.6685 9.7312714,15.999995 12.088002,13.6685 h 1.840935 c 1.147342,0 2.071066,-0.920775 2.071066,-2.064506 V 5.481669 c 0,-1.1437074 -0.92369,-2.0645051 -2.071066,-2.0645051 z"/>
 <path fill="url(#oomox)" class="ColorScheme-Text" d="M 3.999303,-5e-6 C 1.7905466,-5e-6 2.7999999e-6,1.7848664 2.7999999e-6,3.9866256 2.7999999e-6,6.1883847 1.7905466,7.9732561 3.999303,7.9732561 c 2.2087564,0 3.9993002,-1.7848714 3.9993002,-3.9866305 C 7.9986032,1.7848664 6.2080594,-5e-6 3.999303,-5e-6 Z M 3.3922664,1.1390323 h 1.1783081 l -0.071416,1.5661763 a 0.22798296,0.22726072 0 0 0 0,0.07119 0.22798296,0.22726072 0 0 0 0,0.035538 0.22798296,0.22726072 0 0 0 0.1428321,0.1423796 0.22798296,0.22726072 0 0 0 0.035651,0 0.22798296,0.22726072 0 0 0 0.071416,0 0.22798296,0.22726072 0 0 0 0.071416,0 0.22798296,0.22726072 0 0 0 0.035651,-0.035538 L 6.1772648,2.0645001 6.7485934,3.0967527 5.3559228,3.808651 a 0.22798296,0.22726072 0 0 0 -0.035651,0 0.22798296,0.22726072 0 0 0 -0.035651,0.035538 0.22798296,0.22726072 0 0 0 -0.035651,0.1067278 0.22798296,0.22726072 0 0 0 0,0.07119 0.22798296,0.22726072 0 0 0 0,0.035538 0.22798296,0.22726072 0 0 0 0.035651,0.07119 0.22798296,0.22726072 0 0 0 0.035651,0.035538 0.22798296,0.22726072 0 0 0 0.035651,0.035538 L 6.7842443,4.9118086 6.1772076,5.9440612 4.8560674,5.054473 a 0.22798296,0.22726072 0 0 0 -0.035651,0 0.22798296,0.22726072 0 0 0 -0.071416,-0.035538 0.22798296,0.22726072 0 0 0 -0.071416,0 0.22798296,0.22726072 0 0 0 -0.1428321,0.1067278 0.22798296,0.22726072 0 0 0 -0.035651,0.035538 0.22798296,0.22726072 0 0 0 0,0.035538 0.22798296,0.22726072 0 0 0 0,0.07119 L 4.5705173,6.834219 H 3.3922092 l 0.107067,-1.5661763 a 0.22798296,0.22726072 0 0 0 -0.035651,-0.1067278 0.22798296,0.22726072 0 0 0 -0.035651,-0.07119 0.22798296,0.22726072 0 0 0 -0.071416,-0.035538 0.22798296,0.22726072 0 0 0 -0.071416,-0.035538 0.22798296,0.22726072 0 0 0 -0.035651,0 0.22798296,0.22726072 0 0 0 -0.1070669,0.035538 L 1.7855189,5.9444598 1.2141903,4.9122073 2.6425118,4.2003089 a 0.22798296,0.22726072 0 0 0 0.035651,-0.035538 0.22798296,0.22726072 0 0 0 0.035651,-0.035538 0.22798296,0.22726072 0 0 0 0.035651,-0.07119 0.22798296,0.22726072 0 0 0 0,-0.035538 0.22798296,0.22726072 0 0 0 0,-0.07119 0.22798296,0.22726072 0 0 0 0,-0.035538 0.22798296,0.22726072 0 0 0 -0.035651,-0.07119 0.22798296,0.22726072 0 0 0 -0.035651,-0.035538 0.22798296,0.22726072 0 0 0 -0.035651,0 L 1.2141903,3.0971513 1.7855189,2.0648988 3.1424244,2.9191767 a 0.22798296,0.22726072 0 0 0 0.035651,0.035538 0.22798296,0.22726072 0 0 0 0.071416,0 0.22798296,0.22726072 0 0 0 0.071416,0 0.22798296,0.22726072 0 0 0 0.035651,0 0.22798296,0.22726072 0 0 0 0.035651,-0.035538 0.22798296,0.22726072 0 0 0 0.035651,-0.035538 0.22798296,0.22726072 0 0 0 0.035651,-0.035538 0.22798296,0.22726072 0 0 0 0,-0.035538 0.22798296,0.22726072 0 0 0 0.035651,-0.07119 0.22798296,0.22726072 0 0 0 0,-0.035538 L 3.3963228,1.1339636 Z"/>
</svg>
