<svg xmlns="http://www.w3.org/2000/svg" width="16" height="16" version="1.1">
 <defs>
   <style id="current-color-scheme" type="text/css">
   .ColorScheme-Text { color: #939597; } .ColorScheme-Highlight { color:#5294e2; }
  </style>
  <linearGradient id="arrongin" x1="0%" x2="0%" y1="0%" y2="100%">
   <stop offset="0%" style="stop-color:#dd9b44; stop-opacity:1"/>
   <stop offset="100%" style="stop-color:#ad6c16; stop-opacity:1"/>
  </linearGradient>
  <linearGradient id="aurora" x1="0%" x2="0%" y1="0%" y2="100%">
   <stop offset="0%" style="stop-color:#09D4DF; stop-opacity:1"/>
   <stop offset="100%" style="stop-color:#9269F4; stop-opacity:1"/>
  </linearGradient>
  <linearGradient id="cyberneon" x1="0%" x2="0%" y1="0%" y2="100%">
    <stop offset="0" style="stop-color:#0abdc6; stop-opacity:1"/>
    <stop offset="1" style="stop-color:#ea00d9; stop-opacity:1"/>
  </linearGradient>
  <linearGradient id="fitdance" x1="0%" x2="0%" y1="0%" y2="100%">
   <stop offset="0%" style="stop-color:#1AD6AB; stop-opacity:1"/>
   <stop offset="100%" style="stop-color:#329DB6; stop-opacity:1"/>
  </linearGradient>
  <linearGradient id="oomox" x1="0%" x2="0%" y1="0%" y2="100%">
   <stop offset="0%" style="stop-color:#66b7ff; stop-opacity:1"/>
   <stop offset="100%" style="stop-color:#006acc; stop-opacity:1"/>
  </linearGradient>
  <linearGradient id="rainblue" x1="0%" x2="0%" y1="0%" y2="100%">
   <stop offset="0%" style="stop-color:#00F260; stop-opacity:1"/>
   <stop offset="100%" style="stop-color:#0575E6; stop-opacity:1"/>
  </linearGradient>
  <linearGradient id="sunrise" x1="0%" x2="0%" y1="0%" y2="100%">
   <stop offset="0%" style="stop-color: #FF8501; stop-opacity:1"/>
   <stop offset="100%" style="stop-color: #FFCB01; stop-opacity:1"/>
  </linearGradient>
  <linearGradient id="telinkrin" x1="0%" x2="0%" y1="0%" y2="100%">
   <stop offset="0%" style="stop-color: #b2ced6; stop-opacity:1"/>
   <stop offset="100%" style="stop-color: #6da5b7; stop-opacity:1"/>
  </linearGradient>
  <linearGradient id="60spsycho" x1="0%" x2="0%" y1="0%" y2="100%">
   <stop offset="0%" style="stop-color: #df5940; stop-opacity:1"/>
   <stop offset="25%" style="stop-color: #d8d15f; stop-opacity:1"/>
   <stop offset="50%" style="stop-color: #e9882a; stop-opacity:1"/>
   <stop offset="100%" style="stop-color: #279362; stop-opacity:1"/>
  </linearGradient>
  <linearGradient id="90ssummer" x1="0%" x2="0%" y1="0%" y2="100%">
   <stop offset="0%" style="stop-color: #f618c7; stop-opacity:1"/>
   <stop offset="20%" style="stop-color: #94ffab; stop-opacity:1"/>
   <stop offset="50%" style="stop-color: #fbfd54; stop-opacity:1"/>
   <stop offset="100%" style="stop-color: #0f83ae; stop-opacity:1"/>
  </linearGradient>
 </defs>
 <path fill="url(#oomox)" class="ColorScheme-Text" d="M 6.42349,5e-7 3.4493,1.2229422 4.14893,2.8997024 C 3.67,3.2606144 3.25179,3.6832157 2.89937,4.1503368 L 1.22362,3.4504053 2e-5,6.4223601 1.6498,7.1223017 C 1.5708,7.6961054 1.5906,8.285125 1.6728,8.8728455 L 1e-4,9.5727871 1.22369,12.549375 2.89945,11.849433 c 0.36086,0.478883 0.78243,0.896711 1.24956,1.249094 l -0.69964,1.673667 2.9742,1.225994 0.70269,-1.649017 c 0.57387,0.07915 1.15821,0.05609 1.74603,-0.02437 L 9.57345,16 12.54918,14.774007 11.84955,13.100338 c 0.47892,-0.360902 0.89712,-0.782023 1.24956,-1.249083 l 1.67727,0.699891 1.2236,-2.9765876 -1.64979,-0.6999013 c 0.0792,-0.5738439 0.0577,-1.1628232 -0.0246,-1.750584 L 15.99982,6.4241727 14.77622,3.4521676 13.09894,4.1521092 C 12.73808,3.6732262 12.31651,3.2538976 11.84937,2.9014748 L 12.54902,1.2247749 9.57328,0.00181312 8.87213,1.6524213 C 8.29825,1.5732705 7.7139,1.5931085 7.1261,1.676791 Z m 1.57647,3.9995468 c 2.20917,0 3.9992,1.7905926 3.9992,3.999567 0,2.2089837 -1.79003,3.9995567 -3.9992,3.9995567 -2.20917,0 -4.00074,-1.790573 -4.00074,-3.9995567 0,-2.2089744 1.79157,-3.999567 4.00074,-3.999567 z"/>
</svg>
