<svg xmlns="http://www.w3.org/2000/svg" width="16" height="16" version="1.1">
 <defs>
   <style id="current-color-scheme" type="text/css">
   .ColorScheme-Text { color: #939597; } .ColorScheme-Highlight { color:#5294e2; }
  </style>
  <linearGradient id="arrongin" x1="0%" x2="0%" y1="0%" y2="100%">
   <stop offset="0%" style="stop-color:#dd9b44; stop-opacity:1"/>
   <stop offset="100%" style="stop-color:#ad6c16; stop-opacity:1"/>
  </linearGradient>
  <linearGradient id="aurora" x1="0%" x2="0%" y1="0%" y2="100%">
   <stop offset="0%" style="stop-color:#09D4DF; stop-opacity:1"/>
   <stop offset="100%" style="stop-color:#9269F4; stop-opacity:1"/>
  </linearGradient>
  <linearGradient id="cyberneon" x1="0%" x2="0%" y1="0%" y2="100%">
    <stop offset="0" style="stop-color:#0abdc6; stop-opacity:1"/>
    <stop offset="1" style="stop-color:#ea00d9; stop-opacity:1"/>
  </linearGradient>
  <linearGradient id="fitdance" x1="0%" x2="0%" y1="0%" y2="100%">
   <stop offset="0%" style="stop-color:#1AD6AB; stop-opacity:1"/>
   <stop offset="100%" style="stop-color:#329DB6; stop-opacity:1"/>
  </linearGradient>
  <linearGradient id="oomox" x1="0%" x2="0%" y1="0%" y2="100%">
   <stop offset="0%" style="stop-color:#66b7ff; stop-opacity:1"/>
   <stop offset="100%" style="stop-color:#006acc; stop-opacity:1"/>
  </linearGradient>
  <linearGradient id="rainblue" x1="0%" x2="0%" y1="0%" y2="100%">
   <stop offset="0%" style="stop-color:#00F260; stop-opacity:1"/>
   <stop offset="100%" style="stop-color:#0575E6; stop-opacity:1"/>
  </linearGradient>
  <linearGradient id="sunrise" x1="0%" x2="0%" y1="0%" y2="100%">
   <stop offset="0%" style="stop-color: #FF8501; stop-opacity:1"/>
   <stop offset="100%" style="stop-color: #FFCB01; stop-opacity:1"/>
  </linearGradient>
  <linearGradient id="telinkrin" x1="0%" x2="0%" y1="0%" y2="100%">
   <stop offset="0%" style="stop-color: #b2ced6; stop-opacity:1"/>
   <stop offset="100%" style="stop-color: #6da5b7; stop-opacity:1"/>
  </linearGradient>
  <linearGradient id="60spsycho" x1="0%" x2="0%" y1="0%" y2="100%">
   <stop offset="0%" style="stop-color: #df5940; stop-opacity:1"/>
   <stop offset="25%" style="stop-color: #d8d15f; stop-opacity:1"/>
   <stop offset="50%" style="stop-color: #e9882a; stop-opacity:1"/>
   <stop offset="100%" style="stop-color: #279362; stop-opacity:1"/>
  </linearGradient>
  <linearGradient id="90ssummer" x1="0%" x2="0%" y1="0%" y2="100%">
   <stop offset="0%" style="stop-color: #f618c7; stop-opacity:1"/>
   <stop offset="20%" style="stop-color: #94ffab; stop-opacity:1"/>
   <stop offset="50%" style="stop-color: #fbfd54; stop-opacity:1"/>
   <stop offset="100%" style="stop-color: #0f83ae; stop-opacity:1"/>
  </linearGradient>
 </defs>
 <path fill="url(#oomox)" class="ColorScheme-Text" d="M 12.006,10 C 13.264,9.985 14.185,10.031 14.938,9.615 15.314,9.408 15.611,9.056 15.775,8.617 15.94,8.179 16,7.658 16,7 V 5 C 16,4.342 15.94,3.821 15.775,3.383 15.611,2.944 15.314,2.592 14.938,2.385 14.185,1.969 13.264,2.015 12.006,2 H 12.002 9.998 9.994 C 8.736,2.015 7.815,1.969 7.062,2.385 6.686,2.592 6.389,2.944 6.224,3.383 6.06,3.821 6,4.342 6,5 V 7 C 6,7.658 6.06,8.179 6.225,8.617 6.389,9.056 6.686,9.408 7.063,9.615 7.815,10.031 8.736,9.985 9.994,10 h 0.004 2.004 z M 12,9 H 11.994 10 C 8.741,8.985 7.913,8.94 7.547,8.738 7.363,8.637 7.258,8.526 7.16,8.266 7.063,8.006 7,7.592 7,7 V 5 C 7,4.408 7.063,3.994 7.16,3.734 7.258,3.474 7.362,3.363 7.545,3.262 7.911,3.06 8.741,3.015 10,3 H 11.994 12 c 1.259,0.015 2.089,0.06 2.455,0.262 0.183,0.101 0.287,0.212 0.385,0.472 C 14.937,3.994 15,4.408 15,5 V 7 C 15,7.592 14.937,8.006 14.84,8.266 14.742,8.526 14.638,8.637 14.455,8.738 14.089,8.94 13.259,8.985 12,9 Z"/>
 <path fill="url(#oomox)" class="ColorScheme-Text" opacity="0.6" d="m 9.006,15 c 1.258,-0.015 2.179,0.031 2.932,-0.385 0.376,-0.207 0.673,-0.559 0.837,-0.998 C 12.94,13.179 13,12.658 13,12 v -1 h -1 v 1 c 0,0.592 -0.063,1.006 -0.16,1.266 -0.098,0.26 -0.202,0.371 -0.385,0.472 C 11.089,13.94 10.259,13.985 9,14 H 5.5 4 C 2.741,13.985 1.913,13.94 1.547,13.738 1.363,13.637 1.258,13.526 1.16,13.266 1.063,13.006 1,12.592 1,12 V 8 C 1,7.408 1.063,6.994 1.16,6.734 1.258,6.474 1.362,6.363 1.545,6.262 1.912,6.059 2.742,6.015 4.006,6 H 5 V 5 H 3.998 3.994 C 2.736,5.015 1.815,4.969 1.062,5.385 0.686,5.592 0.389,5.944 0.225,6.383 0.06,6.821 0,7.342 0,8 v 4 c 0,0.658 0.06,1.179 0.225,1.617 0.164,0.439 0.461,0.791 0.838,0.998 0.752,0.416 1.673,0.37 2.931,0.385 H 3.998 5.5 9.002 Z"/>
</svg>
