<svg height="38.4pt" width="38.4pt" xmlns="http://www.w3.org/2000/svg">
 <rect fill="#004D45" fill-rule="evenodd" height="24.012pt" rx="1.555pt" ry="1.628pt" transform="translate(4.54304 8.02025)" width="30.893pt"/>
 <rect fill="#009688" fill-rule="evenodd" height="17.013pt" transform="translate(6.32342 11.5443)" width="28.093pt"/>
 <rect fill="#95a5a6" fill-rule="evenodd" height="2.868pt" rx="1.369pt" ry="1.361pt" transform="translate(.920916 35.7873)" width="36.934pt"/>
 <rect fill="#95a5a6" fill-rule="evenodd" height="1.262pt" transform="translate(.915283 35.7826)" width="36.934pt"/>
 <rect fill="#bdc3c7" fill-rule="evenodd" height=".838pt" transform="translate(18.3563 35.7722)" width="8.988pt"/>
 <circle cx=".709pt" cy=".709pt" fill="#009688" fill-rule="evenodd" r=".709pt" transform="translate(22.8745 8.79924)"/>
 <path d="m .850633.425316c0-.234895-.190421-.425316-.425317-.425316-.234895 0-.425316.190421-.425316.425316 0 .234896.190421.425317.425316.425317.234896 0 .425317-.190421.425317-.425317" fill="#004D45" fill-rule="evenodd" transform="translate(23.3468 9.25063)"/>
 <path d="m .621671.310836c0-.17167-.139166-.310836-.310835-.310836-.17167 0-.310836.139166-.310836.310836 0 .171669.139166.310835.310836.310835.171669 0 .310835-.139166.310835-.310835" fill="#bdc3c7" fill-rule="evenodd" transform="translate(23.6708 9.11417)"/>
</svg>
