<svg height="513" width="512" xmlns="http://www.w3.org/2000/svg">
 <path d="m33.692795 71.733047h183.68008v44.56144h-183.68008z" fill="#00756A" fill-rule="evenodd"/>
 <path d="m8.6949148 115.20763h493.43646v326.0593h-493.43646z" fill="#009688" fill-rule="evenodd"/>
 <g fill="#383C4A" transform="matrix(3.4156853 0 0 3.4156853 160.87878 196.48303)">
  <path d="m28 6c-9.941406 0-18 8.058594-18 18h4c0-7.730469 6.269531-14 14-14 7.730469 0 14 6.269531 14 14 0 7.730469-6.269531 14-14 14v4c9.941406 0 18-8.058594 18-18 0-9.941406-8.058594-18-18-18z" fill-rule="evenodd"/>
  <path d="m2 24h20l-10 10z"/>
 </g>
</svg>
