<svg height="513" width="512" xmlns="http://www.w3.org/2000/svg">
 <path d="m33.692795 71.733047h183.68008v44.56144h-183.68008z" fill="#00756A" fill-rule="evenodd"/>
 <path d="m8.6949148 115.20763h493.43646v326.0593h-493.43646z" fill="#009688" fill-rule="evenodd"/>
 <path d="m332.26172 201.16797c0 29.40755 0 58.8151 0 88.22265-30.07422 0-60.14844.00001-90.22266 0 0 11.92058 0 23.84115 0 35.76172 30.07422 0 60.14844 0 90.22266 0 0 30.07357 0 60.14714 0 90.22071 11.92057 0 23.84114 0 35.76172 0 0-30.07357 0-60.14714 0-90.22071 30.07357 0 60.14713 0 90.2207 0 0-11.92057 0-23.84114 0-35.76172-30.07357 0-60.14713 0-90.2207 0 0-30.07421 0-60.14843 0-90.22265-11.92058 0-23.84115 0-35.76172 0v1z" fill="#383C4A" fill-rule="evenodd"/>
</svg>
