<svg height="513" width="512" xmlns="http://www.w3.org/2000/svg">
 <path d="m33.692795 71.733047h183.68008v44.56144h-183.68008z" fill="#00756A" fill-rule="evenodd"/>
 <path d="m8.6949148 115.20763h493.43646v326.0593h-493.43646z" fill="#009688" fill-rule="evenodd"/>
 <g fill="#383C4A" transform="matrix(3.3502348 0 0 3.3502348 173.82928 207.11655)">
  <path d="m12.3125 11.996094c-.402344 0-.75.351562-.75.75v1.875c-.886719.230468-1.671875.667968-2.4375 1.125l-1.40625-1.5c-.28125-.28125-.75-.28125-1.03125 0l-2.4375 2.4375c-.28125.28125-.28125.75 0 1.03125l1.5 1.40625c-.460938.769531-.894531 1.554687-1.125 2.4375h-1.875c-.402344 0-.75.351562-.75.75v3.375c0 .402344.347656.75.75.75h1.875c.230469.886718.664062 1.671875 1.125 2.4375l-1.5 1.40625c-.28125.28125-.28125.75 0 1.03125l2.4375 2.4375c.28125.28125.75.28125 1.03125 0l1.40625-1.5c.765625.460937 1.550781.898437 2.4375 1.125v1.875c0 .402344.347656.75.75.75h3.375c.402344 0 .75-.347656.75-.75v-1.875c.886719-.226563 1.671875-.664063 2.4375-1.125l1.40625 1.5c.28125.28125.75.28125 1.03125 0l2.4375-2.4375c.28125-.28125.28125-.75 0-1.03125l-1.5-1.40625c.460938-.765625.894531-1.550782 1.125-2.4375h1.875c.402344 0 .75-.347656.75-.75v-3.375c0-.398438-.347656-.75-.75-.75h-1.875c-.230469-.882813-.664062-1.667969-1.125-2.4375l1.5-1.40625c.28125-.28125.28125-.75 0-1.03125l-2.4375-2.4375c-.28125-.28125-.75-.28125-1.03125 0l-1.40625 1.5c-.765625-.457032-1.550781-.894532-2.4375-1.125v-1.875c0-.398438-.347656-.75-.75-.75zm1.6875 9c1.652344 0 3 1.347656 3 3 0 1.65625-1.347656 3-3 3-1.652344 0-3-1.34375-3-3 0-1.652344 1.347656-3 3-3z"/>
  <path d="m12.3125 11.996094c-.402344 0-.75.351562-.75.75v1.875c-.886719.230468-1.671875.667968-2.4375 1.125l-1.40625-1.5c-.28125-.28125-.75-.28125-1.03125 0l-2.4375 2.4375c-.28125.28125-.28125.75 0 1.03125l1.5 1.40625c-.460938.769531-.894531 1.554687-1.125 2.4375h-1.875c-.402344 0-.75.351562-.75.75v3.375c0 .402344.347656.75.75.75h1.875c.230469.886718.664062 1.671875 1.125 2.4375l-1.5 1.40625c-.28125.28125-.28125.75 0 1.03125l2.4375 2.4375c.28125.28125.75.28125 1.03125 0l1.40625-1.5c.765625.460937 1.550781.898437 2.4375 1.125v1.875c0 .402344.347656.75.75.75h3.375c.402344 0 .75-.347656.75-.75v-1.875c.886719-.226563 1.671875-.664063 2.4375-1.125l1.40625 1.5c.28125.28125.75.28125 1.03125 0l2.4375-2.4375c.28125-.28125.28125-.75 0-1.03125l-1.5-1.40625c.460938-.765625.894531-1.550782 1.125-2.4375h1.875c.402344 0 .75-.347656.75-.75v-3.375c0-.398438-.347656-.75-.75-.75h-1.875c-.230469-.882813-.664062-1.667969-1.125-2.4375l1.5-1.40625c.28125-.28125.28125-.75 0-1.03125l-2.4375-2.4375c-.28125-.28125-.75-.28125-1.03125 0l-1.40625 1.5c-.765625-.457032-1.550781-.894532-2.4375-1.125v-1.875c0-.398438-.347656-.75-.75-.75zm1.6875 9c1.652344 0 3 1.347656 3 3 0 1.65625-1.347656 3-3 3-1.652344 0-3-1.34375-3-3 0-1.652344 1.347656-3 3-3z"/>
  <path d="m32.3125 1.996094c-.402344 0-.75.351562-.75.75v1.875c-.886719.230468-1.671875.667968-2.4375 1.125l-1.40625-1.5c-.28125-.28125-.75-.28125-1.03125 0l-2.4375 2.4375c-.28125.28125-.28125.75 0 1.03125l1.5 1.40625c-.460938.769531-.894531 1.554687-1.125 2.4375h-1.875c-.402344 0-.75.351562-.75.75v3.375c0 .402344.347656.75.75.75h1.875c.230469.886718.664062 1.671875 1.125 2.4375l-1.5 1.40625c-.28125.28125-.28125.75 0 1.03125l2.4375 2.4375c.28125.28125.75.28125 1.03125 0l1.40625-1.5c.765625.460937 1.550781.898437 2.4375 1.125v1.875c0 .402344.347656.75.75.75h3.375c.402344 0 .75-.347656.75-.75v-1.875c.886719-.226563 1.671875-.664063 2.4375-1.125l1.40625 1.5c.28125.28125.75.28125 1.03125 0l2.4375-2.4375c.28125-.28125.28125-.75 0-1.03125l-1.5-1.40625c.460938-.765625.894531-1.550782 1.125-2.4375h1.875c.402344 0 .75-.347656.75-.75v-3.375c0-.398438-.347656-.75-.75-.75h-1.875c-.230469-.882813-.664062-1.667969-1.125-2.4375l1.5-1.40625c.28125-.28125.28125-.75 0-1.03125l-2.4375-2.4375c-.28125-.28125-.75-.28125-1.03125 0l-1.40625 1.5c-.765625-.457032-1.550781-.894532-2.4375-1.125v-1.875c0-.398438-.347656-.75-.75-.75zm1.6875 9c1.652344 0 3 1.347656 3 3 0 1.65625-1.347656 3-3 3-1.652344 0-3-1.34375-3-3 0-1.652344 1.347656-3 3-3z"/>
  <path d="m32.3125 1.996094c-.402344 0-.75.351562-.75.75v1.875c-.886719.230468-1.671875.667968-2.4375 1.125l-1.40625-1.5c-.28125-.28125-.75-.28125-1.03125 0l-2.4375 2.4375c-.28125.28125-.28125.75 0 1.03125l1.5 1.40625c-.460938.769531-.894531 1.554687-1.125 2.4375h-1.875c-.402344 0-.75.351562-.75.75v3.375c0 .402344.347656.75.75.75h1.875c.230469.886718.664062 1.671875 1.125 2.4375l-1.5 1.40625c-.28125.28125-.28125.75 0 1.03125l2.4375 2.4375c.28125.28125.75.28125 1.03125 0l1.40625-1.5c.765625.460937 1.550781.898437 2.4375 1.125v1.875c0 .402344.347656.75.75.75h3.375c.402344 0 .75-.347656.75-.75v-1.875c.886719-.226563 1.671875-.664063 2.4375-1.125l1.40625 1.5c.28125.28125.75.28125 1.03125 0l2.4375-2.4375c.28125-.28125.28125-.75 0-1.03125l-1.5-1.40625c.460938-.765625.894531-1.550782 1.125-2.4375h1.875c.402344 0 .75-.347656.75-.75v-3.375c0-.398438-.347656-.75-.75-.75h-1.875c-.230469-.882813-.664062-1.667969-1.125-2.4375l1.5-1.40625c.28125-.28125.28125-.75 0-1.03125l-2.4375-2.4375c-.28125-.28125-.75-.28125-1.03125 0l-1.40625 1.5c-.765625-.457032-1.550781-.894532-2.4375-1.125v-1.875c0-.398438-.347656-.75-.75-.75zm1.6875 9c1.652344 0 3 1.347656 3 3 0 1.65625-1.347656 3-3 3-1.652344 0-3-1.34375-3-3 0-1.652344 1.347656-3 3-3z"/>
  <path d="m29.296875 18c-.105469-.0078-.152344.03906-.261719.08984l-3.769531 1.488281c-.429687.183594-.613281.789063-.4375 1.226563l.789063 2.1875c-.871094.652343-1.46875 1.347656-2.105469 2.191406l-2.191407-.96484c-.429687-.183594-1.042968.08984-1.226562.527344l-1.492188 3.589844c-.175781.4375.09766.957031.527344 1.140624l2.191406.960938c-.144531 1.042969-.152343 2.078125 0 3.15625l-2.191406.960938c-.429687.183593-.613281.527343-.4375.964843l1.402344 3.765625c.183594.4375.796875.621094 1.226562.4375l2.191407-.875c.652343.867188 1.433593 1.550782 2.277343 2.1875l-.960937 2.191406c-.175781.4375.0078 1.042969.4375 1.226563l3.769531 1.488281c.4375.183594.789063-.085937.964844-.523437l.960938-2.191407c1.054687.152344 2.089843.152344 3.15625 0l .878906 2.191407c.183594.4375.796875.621093 1.226562.4375l3.59375-1.402344c.4375-.183594.707032-.789063.527344-1.226563l-.964844-2.191406c.867188-.652344 1.5625-1.34375 2.191406-2.1875l2.277344.875c.4375.183594.878906 0 1.050782-.4375l1.578124-3.765625c.183594-.4375 0-.78125-.4375-.964843l-2.277343-.960938c.148437-1.054688.160156-2.082031 0-3.15625l2.191406-.960938c.4375-.183593.707031-.527343.523437-.964843l-1.578124-3.765625c-.171876-.4375-.699219-.710938-1.136719-.527344l-2.191407.964844c-.648437-.867188-1.339843-1.554688-2.191406-2.191406l.964844-2.363282c.179688-.4375-.08984-.867187-.527344-1.050781l-3.59375-1.488281c-.429687-.183594-1.042968.08594-1.226562.523437l-.878906 2.191407c-1.042969-.152344-2.078126-.152344-3.15625 0l-.960938-2.191407c-.136719-.324219-.382812-.597656-.703125-.613281zm3.242187 8.410156c3.101563 0 5.613282 2.507813 5.613282 5.605469 0 3.097656-2.511719 5.605469-5.613282 5.605469-3.089843 0-5.609374-2.507813-5.609374-5.605469 0-3.097656 2.519531-5.605469 5.609374-5.605469z"/>
 </g>
</svg>
