<svg height="513" width="512" xmlns="http://www.w3.org/2000/svg">
 <path d="m33.692795 71.733047h183.68008v44.56144h-183.68008z" fill="#00756A" fill-rule="evenodd"/>
 <path d="m8.6949148 115.20763h493.43646v326.0593h-493.43646z" fill="#009688" fill-rule="evenodd"/>
 <g fill="#383C4A" transform="matrix(8.9938447 0 0 8.9938447 -168.6997 -6865.4053)">
  <path d="m291 178.03125a1.96875 1.96875 0 1 1 -3.9375 0 1.96875 1.96875 0 1 1 3.9375 0z" transform="matrix(1.50794 0 0 1.50794 -391.84057 531.50893)"/>
  <path d="m47.0002 787l-4.00436 2.60053 2.33814.36339-2.00985 5.80655c2.24125-.43289 4.38456.75975 4.89844 3.25272l4.64422-4.60121 1.13341 1.69492 1-5.1169-4.81381.19547 1.27128 1.56728-4.45747 2.74488.60769-4.98335 2.21537.45428z"/>
 </g>
</svg>
