<svg height="513" width="512" xmlns="http://www.w3.org/2000/svg">
 <path d="m33.692795 71.733047h183.68008v44.56144h-183.68008z" fill="#00756A" fill-rule="evenodd"/>
 <path d="m8.6949148 115.20763h493.43646v326.0593h-493.43646z" fill="#009688" fill-rule="evenodd"/>
 <path d="m249.65167 356.00928c-14.95902-.60506-25.08306-1.75033-32.9075-3.72371-8.95738-2.25906-15.34803-5.68116-17.98569-9.63115-1.82326-2.73029-2.12911-4.14217-2.01417-9.29913.0968-4.34249.10414-4.38567 1.13523-6.52982 2.52013-5.24167 7.17427-9.6852 15.7981-15.08325 4.26401-2.66905 13.02406-6.97829 19.28208-9.48535 6.22514-2.49381 7.61411-3.48474 8.98251-6.40898.68979-1.47488.83439-2.15978.83439-3.96149 0-3.44265-.63084-5.18385-2.73888-7.55803-8.87496-9.99629-14.56062-24.81331-14.56062-37.94567 0-14.53016 6.23187-25.88722 17.19893-31.34376 4.63314-2.30528 8.70413-3.30846 14.31438-3.52746 15.36773-.59953 28.03851 7.99143 32.36349 21.94368 2.28173 7.36048 2.33716 17.20916.14554 25.88299-2.12809 8.42352-6.93527 18.00879-11.88614 23.70044-2.58662 2.97372-2.83169 3.40609-3.36196 5.93295-.63452 3.02454-.46691 6.07754.43929 8.00644 1.0098 2.14836 2.33365 3.111 6.20084 4.50908 20.28506 7.33348 34.61344 17.03583 38.17037 25.84697.60782 1.50591.66584 2.08941.66676 6.68626.00027 4.8888-.0189 5.08568-.78833 6.71979-3.28423 7.01072-13.58987 11.52109-31.63698 13.84635-7.95079 1.02446-28.39557 1.79702-37.65179 1.42285z" fill="#383C4A"/>
</svg>
