<?xml version="1.0" encoding="UTF-8" standalone="no"?>
<svg xmlns="http://www.w3.org/2000/svg" height="513" width="512" version="1.1">
 <path d="m33.692795 71.733047h183.68008v44.56144h-183.68008z" fill="#00756A" fill-rule="evenodd"/>
 <path d="m8.6949148 115.20763h493.43646v326.0593h-493.43646z" fill="#009688" fill-rule="evenodd"/>
 <g fill="#383C4A" stroke="#ff5400" transform="matrix(.4322744 0 0 .42779991 153.51326 186.72063)">
  <path d="m383.434 172.502c-25.336-58.241-81.998-95.648-145.861-95.648-65.309 0-125 40.928-148.514 101.827l49.5 19.117c15.672-40.617 55.469-67.894 99.014-67.894 42.02 0 79.197 24.386 96.408 62.332l-36.117 14.428 92.352 53.279 27.01-100.933z"/>
  <path d="m237.573 342.101c-41.639 0-79.615-25.115-96.592-62.819l35.604-13.763-91.387-52.119-27.975 98.249 34.08-13.172c24.852 58.018 82.859 96.671 146.27 96.671 65.551 0 123.598-39.336 147.871-100.196l-49.268-19.652c-16.195 40.577-54.888 66.801-98.603 66.801z"/>
 </g>
</svg>
