<svg xmlns="http://www.w3.org/2000/svg" width="48" height="48">
<defs>
<defs
   id="defs31">
</defs>
    <path
   d="m 16.523077,9.7057692 c -6.106711,-1e-7 -7.2615385,12.2153848 -7.2615385,12.2153848 l -7.2615385,0 0,4.615384 7.1384615,0 c -2e-7,1e-6 1.1548275,12.215385 7.2615385,12.215385 6.106711,0 6.092308,0 6.092308,0 l 0,-29.0461538 c -0.0024,-1e-7 0.01411,0 -5.969231,0 z m 9.2,0 0,29.1692308 c 0,10e-7 -0.228479,0 6.8,0 6.913256,10e-7 7.261538,-12.215385 7.261538,-12.215385 l 6.215385,0 0,-4.615384 -6.215385,0 0,-0.123077 c -2e-6,0 -0.463502,-12.2153848 -7.261538,-12.2153848 -6.798037,-1e-7 -6.8,0 -6.8,0 z"
   id="path-main"
    />

</defs>

<use id="1" style="fill:#009688" xlink:href="#path-main" />



</svg>
