<?xml version="1.0" encoding="UTF-8" standalone="no"?>
<svg
   xmlns:dc="http://purl.org/dc/elements/1.1/"
   xmlns:cc="http://creativecommons.org/ns#"
   xmlns:rdf="http://www.w3.org/1999/02/22-rdf-syntax-ns#"
   xmlns:svg="http://www.w3.org/2000/svg"
   xmlns="http://www.w3.org/2000/svg"
   xmlns:sodipodi="http://sodipodi.sourceforge.net/DTD/sodipodi-0.dtd"
   xmlns:inkscape="http://www.inkscape.org/namespaces/inkscape"
   version="1.1"
   width="22"
   height="22"
   viewBox="0 0 128 128"
   style="overflow:visible;enable-background:new 0 0 128 128;"
   xml:space="preserve"
   id="svg2"
   sodipodi:version="0.32"
   inkscape:version="0.91 r13725"
   sodipodi:docname="start-here-sardi15.svg"
   inkscape:output_extension="org.inkscape.output.svg.inkscape"><metadata
     id="metadata51"><rdf:RDF><cc:Work
         rdf:about=""><dc:format>image/svg+xml</dc:format><dc:type
           rdf:resource="http://purl.org/dc/dcmitype/StillImage" /><dc:title></dc:title></cc:Work></rdf:RDF></metadata><defs
     id="defs49"><inkscape:perspective
       sodipodi:type="inkscape:persp3d"
       inkscape:vp_x="0 : 64 : 1"
       inkscape:vp_y="0 : 1000 : 0"
       inkscape:vp_z="128 : 64 : 1"
       inkscape:persp3d-origin="64 : 42.666667 : 1"
       id="perspective53" /></defs><sodipodi:namedview
     inkscape:window-height="1021"
     inkscape:window-width="1920"
     inkscape:pageshadow="2"
     inkscape:pageopacity="0"
     guidetolerance="10.0"
     gridtolerance="10.0"
     objecttolerance="10.0"
     borderopacity="1.0"
     bordercolor="#00756A"
     pagecolor="#bfbdbf"
     id="base"
     showgrid="false"
     inkscape:zoom="4.5564884"
     inkscape:cx="43.792746"
     inkscape:cy="47.416403"
     inkscape:window-x="0"
     inkscape:window-y="0"
     inkscape:current-layer="svg2"
     inkscape:window-maximized="1" /><path
     style="fill:#009688"
     d="M 40.602,21.938 C 32.334,28.306 26.119,37.266 23.1,47.168 C 22.982,47.555 23.112,47.975 23.431,48.227 C 27.586,51.518 30.066,56.584 30.066,61.78 C 30.066,66.976 27.585,72.044 23.429,75.335 C 23.112,75.586 22.98,76.005 23.098,76.393 C 26.093,86.212 32.238,95.121 40.404,101.475 C 40.623,101.646 40.903,101.716 41.177,101.668 C 41.45,101.621 41.691,101.46 41.84,101.227 L 52.049,85.205 C 52.31,84.796 52.234,84.258 51.869,83.937 C 45.46,78.298 41.785,70.222 41.785,61.781 C 41.785,53.277 45.499,45.165 51.975,39.524 C 52.34,39.205 52.42,38.668 52.161,38.257 L 42.036,22.192 C 41.888,21.958 41.648,21.796 41.375,21.748 C 41.102,21.7 40.819,21.769 40.602,21.938 z"
     id="path10" /><ellipse
     style="fill:#009688;fill-rule:evenodd"
     cx="12.803"
     cy="62.015999"
     rx="12.803"
     ry="12.794"
     id="ellipse14"
     sodipodi:cx="12.803"
     sodipodi:cy="62.015999"
     sodipodi:rx="12.803"
     sodipodi:ry="12.794" /><path
     style="fill:#009688"
     d="M49.054,16.696c-0.25,0.124-0.436,0.348-0.511,0.616c-0.076,0.268-0.034,0.555,0.114,0.791  l10.122,16.059c0.257,0.408,0.772,0.57,1.217,0.383c3.754-1.587,7.654-2.392,11.59-2.392c14.478,0,27.107,10.734,29.377,24.969  c0.076,0.478,0.488,0.829,0.971,0.829l19.08,0.029c0.278,0,0.543-0.117,0.73-0.323s0.277-0.479,0.251-0.757  c-1.028-10.562-5.524-20.75-12.659-28.685c-0.322-0.36-0.859-0.432-1.266-0.169c-2.877,1.858-6.145,2.842-9.447,2.842  c-9.633,0-17.469-7.79-17.47-17.364c0.001-0.005,0.019-0.366,0.019-0.382c0-0.477-0.343-0.888-0.816-0.97  c-3.012-0.522-5.962-0.888-8.77-0.888C63.875,11.285,56.084,13.222,49.054,16.696z"
     id="path18" /><ellipse
     style="fill-rule:evenodd;clip-rule:evenodd;fill:#009688"
     cx="98"
     cy="14"
     rx="12.51"
     ry="12.5"
     id="ellipse22" /><path
     style="fill:#009688"
     d="M 120.994,65.733 L 101.916,65.795 C 101.435,65.796 101.024,66.147 100.947,66.621 C 98.646,80.75 86.024,91.405 71.586,91.405 C 67.604,91.405 63.66,90.581 59.864,88.955 C 59.42,88.766 58.906,88.925 58.645,89.33 L 48.442,105.345 C 48.293,105.58 48.25,105.867 48.324,106.136 C 48.398,106.404 48.583,106.629 48.832,106.753 C 55.917,110.3 63.786,112.174 71.586,112.174 C 74.479,112.174 77.492,111.901 80.541,111.36 C 80.969,111.285 81.297,110.936 81.348,110.505 C 82.364,101.73 89.791,95.112 98.623,95.112 C 101.361,95.112 104.147,95.81 106.679,97.13 C 107.064,97.331 107.533,97.257 107.838,96.946 C 115.823,88.803 120.846,78.104 121.978,66.817 C 122.006,66.54 121.915,66.264 121.727,66.057 C 121.539,65.85 121.272,65.732 120.994,65.733 z"
     id="path26" /><ellipse
     style="fill:#009688;fill-rule:evenodd"
     cx="98.486"
     cy="112.272"
     rx="12.803"
     ry="12.728"
     id="ellipse28"
     sodipodi:cx="98.486"
     sodipodi:cy="112.272"
     sodipodi:rx="12.803"
     sodipodi:ry="12.728" /><linearGradient
     id="XMLID_3_"
     gradientUnits="userSpaceOnUse"
     x1="75.5039"
     y1="11.96"
     x2="85.5969"
     y2="36.3307"><stop
       offset="0"
       style="stop-color:#F99D77"
       id="stop33" /><stop
       offset="1"
       style="stop-color:#F7804E"
       id="stop35" /></linearGradient><linearGradient
     id="XMLID_4_"
     gradientUnits="userSpaceOnUse"
     x1="37.6743"
     y1="25.6035"
     x2="37.6743"
     y2="47.5006"><stop
       offset="0"
       style="stop-color:#FCB462"
       id="stop40" /><stop
       offset="1"
       style="stop-color:#FCAF55"
       id="stop42" /></linearGradient></svg>
