<?xml version="1.0" encoding="UTF-8" standalone="no"?>
<svg
   xmlns:dc="http://purl.org/dc/elements/1.1/"
   xmlns:cc="http://creativecommons.org/ns#"
   xmlns:rdf="http://www.w3.org/1999/02/22-rdf-syntax-ns#"
   xmlns:svg="http://www.w3.org/2000/svg"
   xmlns="http://www.w3.org/2000/svg"
   xmlns:sodipodi="http://sodipodi.sourceforge.net/DTD/sodipodi-0.dtd"
   xmlns:inkscape="http://www.inkscape.org/namespaces/inkscape"
   height="22"
   viewBox="0 0 512 512"
   width="22"
   version="1.1"
   id="svg2"
   inkscape:version="0.91 r13725"
   sodipodi:docname="start-here-symbolic-14.svg">
  <defs
     id="defs17" />
  <sodipodi:namedview
     pagecolor="#d4d0d0"
     bordercolor="#00756A"
     borderopacity="1"
     objecttolerance="10"
     gridtolerance="10"
     guidetolerance="10"
     inkscape:pageopacity="0"
     inkscape:pageshadow="2"
     inkscape:window-width="1920"
     inkscape:window-height="1052"
     id="namedview15"
     showgrid="false"
     inkscape:zoom="17.274398"
     inkscape:cx="47.906024"
     inkscape:cy="23.772122"
     inkscape:window-x="1920"
     inkscape:window-y="0"
     inkscape:window-maximized="1"
     inkscape:current-layer="svg2" />
  <metadata
     id="metadata74">
    <rdf:RDF>
      <cc:Work
         rdf:about="">
        <dc:format>image/svg+xml</dc:format>
        <dc:type
           rdf:resource="http://purl.org/dc/dcmitype/StillImage" />
        <dc:title />
      </cc:Work>
    </rdf:RDF>
  </metadata>
  <g
     id="g66"
     transform="matrix(1.6355748,0,0,1.6355748,-162.70254,-162.70514)"
     style="fill:#009688">
    <path
       id="path68"
       d="m 352.31,106 c -62.41,0 -74.14,88.91 -39.03,88.91 35.1,0 101.44,-88.91 39.03,-88.91 m -96.44,10.875 c -0.991,-0.003 -2.027,0.076 -3.125,0.219 -35.12,4.559 -22.764,65.64 -4.063,66.781 18.11,1.106 37.909,-66.894 7.188,-67 m -60.844,24.19 c -1.857,0.041 -3.889,0.465 -6.094,1.375 -28.23,11.649 -4.283,59.732 11.531,56.5 14.591,-2.975 16.471,-58.36 -5.438,-57.875 m -45.906,37.688 c -2.191,0.127 -4.559,0.98 -7.03,2.688 -22.598,15.614 7.611,53.32 20.906,47.47 11.841,-5.212 3.965,-51.19 -13.875,-50.16 m 126.31,28.844 c -47.947,0.425 -108.97,24.725 -119.59,72.31 -11.804,52.818 48.58,126.09 111.59,126.09 30.999,0 66.748,-27.978 73.44,-63.44 5.109,-27.04 -60.13,-16.204 -57.781,1.688 2.808,21.446 -15.717,32.01 -33.875,18.19 -57.806,-44.01 95.71,-65.967 85.59,-126.09 -3.281,-19.496 -28.64,-29.02 -59.37,-28.75"
       transform="matrix(0.92352,0,0,0.92352,19.579,19.578)"
       inkscape:connector-curvature="0" />
  </g>
</svg>
