<svg xmlns="http://www.w3.org/2000/svg" width="22" height="22" version="1.1">
 <defs>
   <style id="current-color-scheme" type="text/css">
   .ColorScheme-Text { color: #d3dae3; } .ColorScheme-Highlight { color: #1AD6AB; }
  </style>
  <linearGradient id="arrongin" x1="0%" x2="0%" y1="0%" y2="100%">
   <stop offset="0%"    stop-color= "#dd9b44" stop-opacity="1"/>
   <stop offset="100%"  stop-color= "#ad6c16" stop-opacity="1"/>
  </linearGradient>
  <linearGradient id="aurora" x1="0%" x2="0%" y1="0%" y2="100%">
   <stop offset="0%"    stop-color= "#09D4DF" stop-opacity="1"/>
   <stop offset="100%"  stop-color= "#9269F4" stop-opacity="1"/>
  </linearGradient> 
  <linearGradient id="cyberblue" x1="0%" x2="0%" y1="0%" y2="100%">
   <stop offset="0%"    stop-color= "#07B3FF" stop-opacity="1"/>
   <stop offset="100%"  stop-color= "#007DE8" stop-opacity="1"/>
  </linearGradient>
  <linearGradient id="cyberneon" x1="0%" x2="0%" y1="0%" y2="100%">
    <stop offset="0%"   stop-color= "#0abdc6" stop-opacity="1"/>
    <stop offset="100%" stop-color= "#ea00d9" stop-opacity="1"/>
  </linearGradient>
  <linearGradient id="fitdance" x1="0%" x2="0%" y1="0%" y2="100%">
   <stop offset="0%"    stop-color= "#1AD6AB" stop-opacity="1"/>
   <stop offset="100%"  stop-color= "#329DB6" stop-opacity="1"/>
  </linearGradient>
  <linearGradient id="oomox" x1="0%" x2="0%" y1="0%" y2="100%">
   <stop offset="0%"    stop-color= "#a4d8d4" stop-opacity="1"/>
   <stop offset="100%"  stop-color= "#318c85" stop-opacity="1"/>
  </linearGradient>
  <linearGradient id="rainblue" x1="0%" x2="0%" y1="0%" y2="100%">
   <stop offset="0%"    stop-color= "#00F260" stop-opacity="1"/>
   <stop offset="100%"  stop-color= "#0575E6" stop-opacity="1"/>
  </linearGradient>
  <linearGradient id="redcarbon" x1="0%" x2="0%" y1="0%" y2="100%">
   <stop offset="0%"    stop-color= "#FF6D57" stop-opacity="1"/>
   <stop offset="50%"   stop-color= "#FF5160" stop-opacity="1"/>
   <stop offset="100%"  stop-color= "#F50F22" stop-opacity="1"/>
  </linearGradient>
  <linearGradient id="sunrise" x1="0%" x2="0%" y1="0%" y2="100%">
   <stop offset="0%"    stop-color= "#FF8501" stop-opacity="1"/>
   <stop offset="100%"  stop-color= "#FFCB01" stop-opacity="1"/>
  </linearGradient>
  <linearGradient id="telinkrin" x1="0%" x2="0%" y1="0%" y2="100%">
   <stop offset="0%"    stop-color= "#b2ced6" stop-opacity="1"/>
   <stop offset="100%"  stop-color= "#6da5b7" stop-opacity="1"/>
  </linearGradient>
  <linearGradient id="60spsycho" x1="0%" x2="0%" y1="0%" y2="100%">
   <stop offset="0%"    stop-color= "#df5940" stop-opacity="1"/>
   <stop offset="25%"   stop-color= "#d8d15f" stop-opacity="1"/>
   <stop offset="50%"   stop-color= "#e9882a" stop-opacity="1"/>
   <stop offset="100%"  stop-color= "#279362" stop-opacity="1"/>
  </linearGradient>
  <linearGradient id="90ssummer" x1="0%" x2="0%" y1="0%" y2="100%">
   <stop offset="0%"    stop-color= "#f618c7" stop-opacity="1"/>
   <stop offset="20%"   stop-color= "#94ffab" stop-opacity="1"/>
   <stop offset="50%"   stop-color= "#fbfd54" stop-opacity="1"/>
   <stop offset="100%"  stop-color= "#0f83ae" stop-opacity="1"/>
  </linearGradient>
 </defs>
 <path fill="url(#oomox)" class="ColorScheme-Text" d="M 5.5,2 3.75,4.5 2,7 h 2 v 5 H 7 V 7 H 9 L 7.25,4.5 Z M 11,6 v 1.4003906 c -0.933494,0.05304 -1.676904,0.3025149 -2.2285156,0.7480469 -0.5410033,0.445533 -0.8105469,1.0607176 -0.8105469,1.8457031 0,0.7531624 0.2444579,1.3463254 0.7324219,1.7812504 C 9.1813238,12.210316 9.9498188,12.571009 11,12.857422 v 3.214844 C 10.458999,16.061656 9.9079227,15.992526 9.3457031,15.865234 8.7834836,15.73794 8.3216065,15.589649 7.9609375,15.419922 v 1.351562 c 0.339454,0.159119 0.7843256,0.287342 1.3359375,0.382813 0.5516116,0.08486 1.119692,0.13197 1.703125,0.142578 V 19 h 1.017578 v -1.765625 c 1.007752,-0.106079 1.788233,-0.387609 2.339844,-0.84375 0.551612,-0.466748 0.828125,-1.071899 0.828125,-1.814453 0,-0.530396 -0.123206,-0.960217 -0.367188,-1.289063 -0.233374,-0.339453 -0.58208,-0.620984 -1.048828,-0.84375 C 13.302782,12.209985 12.7177,11.992566 12.017578,11.791016 V 8.59375 c 0.424316,0.03182 0.839087,0.1009523 1.242188,0.2070312 0.413709,0.09547 0.789453,0.2117064 1.128906,0.3496094 L 14.818359,7.9726562 C 14.436474,7.8135373 14.013619,7.682251 13.546875,7.5761719 13.090733,7.4700916 12.579797,7.4059816 12.017578,7.3847656 V 6 Z m -0.03906,2.625 v 2.816406 C 10.324458,11.282288 9.8846071,11.091908 9.640625,10.869141 9.4072509,10.635767 9.2910156,10.30713 9.2910156,9.8828125 9.2910156,9.532751 9.4223021,9.2462035 9.6875,9.0234375 9.9633057,8.8006715 10.388109,8.667431 10.960938,8.625 Z M 17,14 16,15.5 15,17 h 1 v 3 h 2 v -3 h 1 l -1,-1.5 z m -4.982422,-0.808594 c 0.689514,0.180334 1.163379,0.372668 1.417969,0.574219 0.25459,0.201551 0.380859,0.503149 0.380859,0.90625 0,0.360669 -0.143273,0.65725 -0.429687,0.890625 -0.286414,0.222767 -0.743275,0.366036 -1.369141,0.429688 z"/>
</svg>
