<svg xmlns="http://www.w3.org/2000/svg" width="22" height="22" version="1.1">
 <defs>
   <style id="current-color-scheme" type="text/css">
   .ColorScheme-Text { color: #d3dae3; } .ColorScheme-Highlight { color: #1AD6AB; }
  </style>
  <linearGradient id="arrongin" x1="0%" x2="0%" y1="0%" y2="100%">
   <stop offset="0%"    stop-color= "#dd9b44" stop-opacity="1"/>
   <stop offset="100%"  stop-color= "#ad6c16" stop-opacity="1"/>
  </linearGradient>
  <linearGradient id="aurora" x1="0%" x2="0%" y1="0%" y2="100%">
   <stop offset="0%"    stop-color= "#09D4DF" stop-opacity="1"/>
   <stop offset="100%"  stop-color= "#9269F4" stop-opacity="1"/>
  </linearGradient> 
  <linearGradient id="cyberblue" x1="0%" x2="0%" y1="0%" y2="100%">
   <stop offset="0%"    stop-color= "#07B3FF" stop-opacity="1"/>
   <stop offset="100%"  stop-color= "#007DE8" stop-opacity="1"/>
  </linearGradient>
  <linearGradient id="cyberneon" x1="0%" x2="0%" y1="0%" y2="100%">
    <stop offset="0%"   stop-color= "#0abdc6" stop-opacity="1"/>
    <stop offset="100%" stop-color= "#ea00d9" stop-opacity="1"/>
  </linearGradient>
  <linearGradient id="fitdance" x1="0%" x2="0%" y1="0%" y2="100%">
   <stop offset="0%"    stop-color= "#1AD6AB" stop-opacity="1"/>
   <stop offset="100%"  stop-color= "#329DB6" stop-opacity="1"/>
  </linearGradient>
  <linearGradient id="oomox" x1="0%" x2="0%" y1="0%" y2="100%">
   <stop offset="0%"    stop-color= "#a4d8d4" stop-opacity="1"/>
   <stop offset="100%"  stop-color= "#318c85" stop-opacity="1"/>
  </linearGradient>
  <linearGradient id="rainblue" x1="0%" x2="0%" y1="0%" y2="100%">
   <stop offset="0%"    stop-color= "#00F260" stop-opacity="1"/>
   <stop offset="100%"  stop-color= "#0575E6" stop-opacity="1"/>
  </linearGradient>
  <linearGradient id="redcarbon" x1="0%" x2="0%" y1="0%" y2="100%">
   <stop offset="0%"    stop-color= "#FF6D57" stop-opacity="1"/>
   <stop offset="50%"   stop-color= "#FF5160" stop-opacity="1"/>
   <stop offset="100%"  stop-color= "#F50F22" stop-opacity="1"/>
  </linearGradient>
  <linearGradient id="sunrise" x1="0%" x2="0%" y1="0%" y2="100%">
   <stop offset="0%"    stop-color= "#FF8501" stop-opacity="1"/>
   <stop offset="100%"  stop-color= "#FFCB01" stop-opacity="1"/>
  </linearGradient>
  <linearGradient id="telinkrin" x1="0%" x2="0%" y1="0%" y2="100%">
   <stop offset="0%"    stop-color= "#b2ced6" stop-opacity="1"/>
   <stop offset="100%"  stop-color= "#6da5b7" stop-opacity="1"/>
  </linearGradient>
  <linearGradient id="60spsycho" x1="0%" x2="0%" y1="0%" y2="100%">
   <stop offset="0%"    stop-color= "#df5940" stop-opacity="1"/>
   <stop offset="25%"   stop-color= "#d8d15f" stop-opacity="1"/>
   <stop offset="50%"   stop-color= "#e9882a" stop-opacity="1"/>
   <stop offset="100%"  stop-color= "#279362" stop-opacity="1"/>
  </linearGradient>
  <linearGradient id="90ssummer" x1="0%" x2="0%" y1="0%" y2="100%">
   <stop offset="0%"    stop-color= "#f618c7" stop-opacity="1"/>
   <stop offset="20%"   stop-color= "#94ffab" stop-opacity="1"/>
   <stop offset="50%"   stop-color= "#fbfd54" stop-opacity="1"/>
   <stop offset="100%"  stop-color= "#0f83ae" stop-opacity="1"/>
  </linearGradient>
 </defs>
 <g transform="translate(-285 419)">
  <g transform="translate(2.9092,-3)">
   <path fill="url(#oomox)" class="ColorScheme-Text" d="m296.79-405c0-1.3-0.72-2.42-1.79-3v6c1.06-0.58 1.79-1.7 1.79-3zm-10.699-2.909v5.818h2.909l4 4.091v-14l-4 4.091z"/>
   <path fill="url(#oomox)" class="ColorScheme-Text" opacity=".3" d="m295-412v1.5c2.32 0.74 4 2.93 4 5.5s-1.68 4.76-4 5.5v1.5c3.15-0.78 5.5-3.6 5.5-7s-2.35-6.22-5.5-7z"/>
  </g>
 </g>
</svg>
