<svg xmlns="http://www.w3.org/2000/svg" width="22" height="22" version="1.1">
 <defs>
   <style id="current-color-scheme" type="text/css">
   .ColorScheme-Text { color: #d3dae3; } .ColorScheme-Highlight { color: #1AD6AB; }
  </style>
  <linearGradient id="arrongin" x1="0%" x2="0%" y1="0%" y2="100%">
   <stop offset="0%"    stop-color= "#dd9b44" stop-opacity="1"/>
   <stop offset="100%"  stop-color= "#ad6c16" stop-opacity="1"/>
  </linearGradient>
  <linearGradient id="aurora" x1="0%" x2="0%" y1="0%" y2="100%">
   <stop offset="0%"    stop-color= "#09D4DF" stop-opacity="1"/>
   <stop offset="100%"  stop-color= "#9269F4" stop-opacity="1"/>
  </linearGradient> 
  <linearGradient id="cyberblue" x1="0%" x2="0%" y1="0%" y2="100%">
   <stop offset="0%"    stop-color= "#07B3FF" stop-opacity="1"/>
   <stop offset="100%"  stop-color= "#007DE8" stop-opacity="1"/>
  </linearGradient>
  <linearGradient id="cyberneon" x1="0%" x2="0%" y1="0%" y2="100%">
    <stop offset="0%"   stop-color= "#0abdc6" stop-opacity="1"/>
    <stop offset="100%" stop-color= "#ea00d9" stop-opacity="1"/>
  </linearGradient>
  <linearGradient id="fitdance" x1="0%" x2="0%" y1="0%" y2="100%">
   <stop offset="0%"    stop-color= "#1AD6AB" stop-opacity="1"/>
   <stop offset="100%"  stop-color= "#329DB6" stop-opacity="1"/>
  </linearGradient>
  <linearGradient id="oomox" x1="0%" x2="0%" y1="0%" y2="100%">
   <stop offset="0%"    stop-color= "#a4d8d4" stop-opacity="1"/>
   <stop offset="100%"  stop-color= "#318c85" stop-opacity="1"/>
  </linearGradient>
  <linearGradient id="rainblue" x1="0%" x2="0%" y1="0%" y2="100%">
   <stop offset="0%"    stop-color= "#00F260" stop-opacity="1"/>
   <stop offset="100%"  stop-color= "#0575E6" stop-opacity="1"/>
  </linearGradient>
  <linearGradient id="redcarbon" x1="0%" x2="0%" y1="0%" y2="100%">
   <stop offset="0%"    stop-color= "#FF6D57" stop-opacity="1"/>
   <stop offset="50%"   stop-color= "#FF5160" stop-opacity="1"/>
   <stop offset="100%"  stop-color= "#F50F22" stop-opacity="1"/>
  </linearGradient>
  <linearGradient id="sunrise" x1="0%" x2="0%" y1="0%" y2="100%">
   <stop offset="0%"    stop-color= "#FF8501" stop-opacity="1"/>
   <stop offset="100%"  stop-color= "#FFCB01" stop-opacity="1"/>
  </linearGradient>
  <linearGradient id="telinkrin" x1="0%" x2="0%" y1="0%" y2="100%">
   <stop offset="0%"    stop-color= "#b2ced6" stop-opacity="1"/>
   <stop offset="100%"  stop-color= "#6da5b7" stop-opacity="1"/>
  </linearGradient>
  <linearGradient id="60spsycho" x1="0%" x2="0%" y1="0%" y2="100%">
   <stop offset="0%"    stop-color= "#df5940" stop-opacity="1"/>
   <stop offset="25%"   stop-color= "#d8d15f" stop-opacity="1"/>
   <stop offset="50%"   stop-color= "#e9882a" stop-opacity="1"/>
   <stop offset="100%"  stop-color= "#279362" stop-opacity="1"/>
  </linearGradient>
  <linearGradient id="90ssummer" x1="0%" x2="0%" y1="0%" y2="100%">
   <stop offset="0%"    stop-color= "#f618c7" stop-opacity="1"/>
   <stop offset="20%"   stop-color= "#94ffab" stop-opacity="1"/>
   <stop offset="50%"   stop-color= "#fbfd54" stop-opacity="1"/>
   <stop offset="100%"  stop-color= "#0f83ae" stop-opacity="1"/>
  </linearGradient>
 </defs>
 <path fill="url(#oomox)" class="ColorScheme-Text" d="M 4.226563 5 L 4.226563 17 L 6.226563 17 L 6.226563 5 L 4.226563 5 Z"/>
 <path fill="url(#oomox)" class="ColorScheme-Text" fill-rule="evenodd" d="M 17.773438 16.621 L 15.133747 16.621 L 15.133747 15.719 L 15.133747 15.719 Q 13.952835 16.885 11.984645 16.885 L 11.984645 16.885 L 11.984645 16.885 Q 10.085921 16.885 8.893429 15.906 L 8.893429 15.906 L 8.893429 15.906 Q 7.700938 14.927 7.700938 13.145 L 7.700938 13.145 L 7.700938 13.145 Q 7.700938 11.319 9.055516 10.373 L 9.055516 10.373 L 9.055516 10.373 Q 10.410093 9.427 12.331972 9.427 L 12.331972 9.427 L 12.331972 9.427 Q 14.0223 9.427 15.133747 10.021 L 15.133747 10.021 L 15.133747 9.427 L 15.133747 9.427 Q 15.133747 8.349 14.566447 7.865 L 14.566447 7.865 L 14.566447 7.865 Q 13.999145 7.381 12.818231 7.381 L 12.818231 7.381 L 12.818231 7.381 Q 10.896352 7.381 9.298645 8.437 L 9.298645 8.437 L 8.465059 6.347 L 8.465059 6.347 Q 10.386938 5.115 13.096093 5.115 L 13.096093 5.115 L 13.096093 5.115 Q 14.0223 5.115 14.728533 5.258 L 14.728533 5.258 L 14.728533 5.258 Q 15.434765 5.401 16.187309 5.819 L 16.187309 5.819 L 16.187309 5.819 Q 16.939852 6.237 17.356645 7.139 L 17.356645 7.139 L 17.356645 7.139 Q 17.773438 8.041 17.773438 9.383 L 17.773438 9.383 L 17.773438 16.621 Z M 12.494059 14.619 L 12.494059 14.619 L 12.494059 14.619 Q 14.045455 14.619 15.133747 13.541 L 15.133747 13.541 L 15.133747 12.089 L 15.133747 12.089 Q 14.114921 11.627 12.771921 11.627 L 12.771921 11.627 L 12.771921 11.627 Q 11.683628 11.627 11.012128 12.001 L 11.012128 12.001 L 11.012128 12.001 Q 10.340628 12.375 10.340628 13.145 L 10.340628 13.145 L 10.340628 13.145 Q 10.340628 13.827 10.896352 14.223 L 10.896352 14.223 L 10.896352 14.223 Q 11.452076 14.619 12.494059 14.619 Z"/>
</svg>
