<svg xmlns="http://www.w3.org/2000/svg" width="22" height="22" version="1.1">
 <defs>
  <style id="current-color-scheme" type="text/css">
   .ColorScheme-Text { color: #d3dae3; } .ColorScheme-Highlight { color: #1AD6AB; }
  </style>
  <linearGradient id="arrongin" x1="0%" x2="0%" y1="0%" y2="100%">
   <stop offset="0%" stop-color="#dd9b44"/>
   <stop offset="100%" stop-color="#ad6c16"/>
  </linearGradient>
  <linearGradient id="aurora" x1="0%" x2="0%" y1="0%" y2="100%">
   <stop offset="0%" stop-color="#09D4DF"/>
   <stop offset="100%" stop-color="#9269F4"/>
  </linearGradient>
  <linearGradient id="cyberblue" x1="0%" x2="0%" y1="0%" y2="100%">
   <stop offset="0%" stop-color="#07B3FF"/>
   <stop offset="100%" stop-color="#007DE8"/>
  </linearGradient>
  <linearGradient id="cyberneon" x1="0%" x2="0%" y1="0%" y2="100%">
   <stop offset="0%" stop-color="#0abdc6"/>
   <stop offset="100%" stop-color="#ea00d9"/>
  </linearGradient>
  <linearGradient id="fitdance" x1="0%" x2="0%" y1="0%" y2="100%">
   <stop offset="0%" stop-color="#1AD6AB"/>
   <stop offset="100%" stop-color="#329DB6"/>
  </linearGradient>
  <linearGradient id="oomox" x1="0%" x2="0%" y1="0%" y2="100%">
   <stop offset="0%" stop-color="#a4d8d4"/>
   <stop offset="100%" stop-color="#318c85"/>
  </linearGradient>
  <linearGradient id="rainblue" x1="0%" x2="0%" y1="0%" y2="100%">
   <stop offset="0%" stop-color="#00F260"/>
   <stop offset="100%" stop-color="#0575E6"/>
  </linearGradient>
  <linearGradient id="redcarbon" x1="0%" x2="0%" y1="0%" y2="100%">
   <stop offset="0%" stop-color="#FF6D57"/>
   <stop offset="50%" stop-color="#FF5160"/>
   <stop offset="100%" stop-color="#F50F22"/>
  </linearGradient>
  <linearGradient id="sunrise" x1="0%" x2="0%" y1="0%" y2="100%">
   <stop offset="0%" stop-color="#FF8501"/>
   <stop offset="100%" stop-color="#FFCB01"/>
  </linearGradient>
  <linearGradient id="telinkrin" x1="0%" x2="0%" y1="0%" y2="100%">
   <stop offset="0%" stop-color="#b2ced6"/>
   <stop offset="100%" stop-color="#6da5b7"/>
  </linearGradient>
  <linearGradient id="60spsycho" x1="0%" x2="0%" y1="0%" y2="100%">
   <stop offset="0%" stop-color="#df5940"/>
   <stop offset="25%" stop-color="#d8d15f"/>
   <stop offset="50%" stop-color="#e9882a"/>
   <stop offset="100%" stop-color="#279362"/>
  </linearGradient>
  <linearGradient id="90ssummer" x1="0%" x2="0%" y1="0%" y2="100%">
   <stop offset="0%" stop-color="#f618c7"/>
   <stop offset="20%" stop-color="#94ffab"/>
   <stop offset="50%" stop-color="#fbfd54"/>
   <stop offset="100%" stop-color="#0f83ae"/>
  </linearGradient>
 </defs>
 <g transform="matrix(1,0,0,1,3,3)">
  <path fill="url(#oomox)" class="ColorScheme-Text" d="M 2,0 C 0.892,0 0,0.892 0,2 V 14 C 0,15.108 0.892,16 2,16 H 14 C 15.108,16 16,15.108 16,14 V 2 C 16,0.892 15.108,0 14,0 Z M 6,2 H 13 C 12.772,5.0343 11.964,7.674 10.561,9.8359 11.585,11.126 12.931,12.245 14.6,13.193 L 14.031,14.273 C 12.4,13.401 11.017,12.283 9.8789,10.918 8.779,12.283 7.3748,13.401 5.668,14.273 L 4.9844,13.25 C 6.7291,12.378 8.0959,11.258 9.082,9.8926 7.8304,8.0341 6.9579,5.655 6.4649,3 H 6 Z M 2.3516,2.377 C 3.1974,2.8383 3.9662,3.3972 4.6582,4.0508 L 3.9082,5.0312 C 3.1393,4.3008 2.3504,3.6854 1.543,3.1855 Z M 7.6016,3 C 8.0567,5.2757 8.7962,7.3141 9.8203,8.8691 10.844,7.0486 11.49,5.0102 11.756,3 Z M 1.7754,5.6523 C 2.5443,6.0753 3.2546,6.5555 3.9082,7.0937 L 3.1016,8.0742 C 2.448,7.4206 1.7357,6.8819 0.9668,6.459 Z M 3.1016,8.9863 4.082,9.6797 C 3.6207,11.487 2.9468,13.236 2.0625,14.928 L 0.91016,14.119 C 1.8329,12.504 2.5633,10.793 3.1016,8.9863 Z"/>
 </g>
</svg>
