<svg xmlns="http://www.w3.org/2000/svg" width="22" height="22" version="1.1">
 <defs>
   <style id="current-color-scheme" type="text/css">
   .ColorScheme-Text { color: #d3dae3; } .ColorScheme-Highlight { color: #1AD6AB; }
  </style>
  <linearGradient id="arrongin" x1="0%" x2="0%" y1="0%" y2="100%">
   <stop offset="0%"    stop-color= "#dd9b44" stop-opacity="1"/>
   <stop offset="100%"  stop-color= "#ad6c16" stop-opacity="1"/>
  </linearGradient>
  <linearGradient id="aurora" x1="0%" x2="0%" y1="0%" y2="100%">
   <stop offset="0%"    stop-color= "#09D4DF" stop-opacity="1"/>
   <stop offset="100%"  stop-color= "#9269F4" stop-opacity="1"/>
  </linearGradient> 
  <linearGradient id="cyberblue" x1="0%" x2="0%" y1="0%" y2="100%">
   <stop offset="0%"    stop-color= "#07B3FF" stop-opacity="1"/>
   <stop offset="100%"  stop-color= "#007DE8" stop-opacity="1"/>
  </linearGradient>
  <linearGradient id="cyberneon" x1="0%" x2="0%" y1="0%" y2="100%">
    <stop offset="0%"   stop-color= "#0abdc6" stop-opacity="1"/>
    <stop offset="100%" stop-color= "#ea00d9" stop-opacity="1"/>
  </linearGradient>
  <linearGradient id="fitdance" x1="0%" x2="0%" y1="0%" y2="100%">
   <stop offset="0%"    stop-color= "#1AD6AB" stop-opacity="1"/>
   <stop offset="100%"  stop-color= "#329DB6" stop-opacity="1"/>
  </linearGradient>
  <linearGradient id="oomox" x1="0%" x2="0%" y1="0%" y2="100%">
   <stop offset="0%"    stop-color= "#a4d8d4" stop-opacity="1"/>
   <stop offset="100%"  stop-color= "#318c85" stop-opacity="1"/>
  </linearGradient>
  <linearGradient id="rainblue" x1="0%" x2="0%" y1="0%" y2="100%">
   <stop offset="0%"    stop-color= "#00F260" stop-opacity="1"/>
   <stop offset="100%"  stop-color= "#0575E6" stop-opacity="1"/>
  </linearGradient>
  <linearGradient id="redcarbon" x1="0%" x2="0%" y1="0%" y2="100%">
   <stop offset="0%"    stop-color= "#FF6D57" stop-opacity="1"/>
   <stop offset="50%"   stop-color= "#FF5160" stop-opacity="1"/>
   <stop offset="100%"  stop-color= "#F50F22" stop-opacity="1"/>
  </linearGradient>
  <linearGradient id="sunrise" x1="0%" x2="0%" y1="0%" y2="100%">
   <stop offset="0%"    stop-color= "#FF8501" stop-opacity="1"/>
   <stop offset="100%"  stop-color= "#FFCB01" stop-opacity="1"/>
  </linearGradient>
  <linearGradient id="telinkrin" x1="0%" x2="0%" y1="0%" y2="100%">
   <stop offset="0%"    stop-color= "#b2ced6" stop-opacity="1"/>
   <stop offset="100%"  stop-color= "#6da5b7" stop-opacity="1"/>
  </linearGradient>
  <linearGradient id="60spsycho" x1="0%" x2="0%" y1="0%" y2="100%">
   <stop offset="0%"    stop-color= "#df5940" stop-opacity="1"/>
   <stop offset="25%"   stop-color= "#d8d15f" stop-opacity="1"/>
   <stop offset="50%"   stop-color= "#e9882a" stop-opacity="1"/>
   <stop offset="100%"  stop-color= "#279362" stop-opacity="1"/>
  </linearGradient>
  <linearGradient id="90ssummer" x1="0%" x2="0%" y1="0%" y2="100%">
   <stop offset="0%"    stop-color= "#f618c7" stop-opacity="1"/>
   <stop offset="20%"   stop-color= "#94ffab" stop-opacity="1"/>
   <stop offset="50%"   stop-color= "#fbfd54" stop-opacity="1"/>
   <stop offset="100%"  stop-color= "#0f83ae" stop-opacity="1"/>
  </linearGradient>
 </defs>
 <path fill="url(#oomox)" class="ColorScheme-Text" d="M 11.007812 3 C 10.841504 3.00989 10.67618 3.1128756 10.408203 3.2734375 L 7.5 5.015625 L 4.6015625 6.7519531 C 3.9633645 7.1101681 4.049715 6.9484752 4 7.6347656 L 4 8.8925781 C 4 8.9521561 4.0380375 9 4.0859375 9 L 5 9 L 5 9.4277344 L 5 16.572266 L 5 17 L 4.7675781 17 C 4.3425911 17 4 17.378053 4 17.847656 L 4 19 L 13.541016 19 A 4 4 0 0 1 13 17 A 4 4 0 0 1 13.132812 16 L 12 16 L 12 10 L 15 10 L 15 13.541016 A 4 4 0 0 1 17 13 L 17 9.4277344 L 17 9 L 17.914062 9 C 17.961962 9 18 8.952156 18 8.8925781 L 18 7.6621094 C 17.9986 6.9382548 17.98313 7.1026425 17.375 6.7382812 L 14.5 5.015625 L 11.607422 3.2832031 C 11.339759 3.0735795 11.174122 2.9901146 11.007812 3 z M 7 10 L 10 10 L 10 16 L 7 16 L 7 10 z"/>
 <path fill="url(#oomox)" class="ColorScheme-Text" d="m 17,14 c -1.656857,0 -3,1.343143 -3,3 0,1.656857 1.343143,3 3,3 1.656857,0 3,-1.343143 3,-3 0,-1.656857 -1.343143,-3 -3,-3 z m -0.214286,0.830357 c 0.02867,-0.003 0.06482,0.0017 0.09375,0 0.0034,0.01371 -0.02087,0.06252 -0.05357,0.133929 -0.208226,0.454885 -0.220037,0.987578 -0.02679,1.272321 0.03497,0.05163 0.06696,0.100757 0.06696,0.107143 0,0.0064 -0.03771,0.01339 -0.08036,0.01339 -0.100105,0 -0.194837,-0.06102 -0.388393,-0.214286 -0.08598,-0.06809 -0.197764,-0.125271 -0.241071,-0.133928 -0.06801,-0.01359 -0.08613,-0.0076 -0.174107,0.08036 -0.08185,0.08184 -0.107143,0.12597 -0.107143,0.200893 0,0.284117 0.33732,0.509957 0.964286,0.642857 0.851443,0.180458 1.061335,0.342458 1.084821,0.790178 0.02949,0.561429 -0.269421,0.984772 -0.924107,1.3125 -0.07814,0.03913 -0.127929,0.05432 -0.160714,0.06696 -0.01453,-0.0013 -0.02569,0.0013 -0.04018,0 -0.0056,-0.01736 -0.01339,-0.05763 -0.01339,-0.133928 0,-0.298192 -0.117535,-0.605143 -0.294643,-0.776786 -0.04754,-0.04608 -0.180651,-0.143721 -0.294642,-0.214286 -0.113988,-0.07056 -0.228836,-0.152528 -0.254465,-0.1875 -0.04247,-0.05803 -0.04602,-0.09369 -0.01339,-0.200893 0.05947,-0.195801 0.130252,-0.304855 0.267858,-0.428571 0.07214,-0.06486 0.144732,-0.11925 0.160714,-0.120536 0.01599,-0.0013 -0.09221,-0.03377 -0.254464,-0.06696 -0.162249,-0.03326 -0.399609,-0.102908 -0.522322,-0.147321 -0.224391,-0.08119 -0.527357,-0.25164 -0.642857,-0.375 -0.0049,-0.0052 -0.0091,-0.0088 -0.01339,-0.01339 0.165484,-0.659186 0.629893,-1.199464 1.245536,-1.459822 0.128816,-0.05448 0.261608,-0.09186 0.401786,-0.120535 0.06982,-0.01427 0.142191,-0.01946 0.214285,-0.02679 z m 2.008929,1.004465 c 0.05034,0.03111 0.24039,0.442285 0.294643,0.642857 0.07005,0.258938 0.06498,0.707057 0,0.964285 -0.02473,0.0979 -0.05642,0.189493 -0.06696,0.200893 -0.01054,0.0114 -0.04878,-0.05423 -0.09375,-0.133928 -0.04498,-0.07969 -0.18864,-0.249022 -0.308035,-0.375 -0.344632,-0.363656 -0.398825,-0.553522 -0.254465,-0.84375 0.0728,-0.146353 0.389615,-0.4794 0.428572,-0.455357 z"/>
</svg>
