<svg xmlns="http://www.w3.org/2000/svg" width="22" height="22" version="1.1">
 <defs>
   <style id="current-color-scheme" type="text/css">
   .ColorScheme-Text { color: #d3dae3; } .ColorScheme-Highlight { color: #1AD6AB; }
  </style>
  <linearGradient id="arrongin" x1="0%" x2="0%" y1="0%" y2="100%">
   <stop offset="0%"    stop-color= "#dd9b44" stop-opacity="1"/>
   <stop offset="100%"  stop-color= "#ad6c16" stop-opacity="1"/>
  </linearGradient>
  <linearGradient id="aurora" x1="0%" x2="0%" y1="0%" y2="100%">
   <stop offset="0%"    stop-color= "#09D4DF" stop-opacity="1"/>
   <stop offset="100%"  stop-color= "#9269F4" stop-opacity="1"/>
  </linearGradient> 
  <linearGradient id="cyberblue" x1="0%" x2="0%" y1="0%" y2="100%">
   <stop offset="0%"    stop-color= "#07B3FF" stop-opacity="1"/>
   <stop offset="100%"  stop-color= "#007DE8" stop-opacity="1"/>
  </linearGradient>
  <linearGradient id="cyberneon" x1="0%" x2="0%" y1="0%" y2="100%">
    <stop offset="0%"   stop-color= "#0abdc6" stop-opacity="1"/>
    <stop offset="100%" stop-color= "#ea00d9" stop-opacity="1"/>
  </linearGradient>
  <linearGradient id="fitdance" x1="0%" x2="0%" y1="0%" y2="100%">
   <stop offset="0%"    stop-color= "#1AD6AB" stop-opacity="1"/>
   <stop offset="100%"  stop-color= "#329DB6" stop-opacity="1"/>
  </linearGradient>
  <linearGradient id="oomox" x1="0%" x2="0%" y1="0%" y2="100%">
   <stop offset="0%"    stop-color= "#a4d8d4" stop-opacity="1"/>
   <stop offset="100%"  stop-color= "#318c85" stop-opacity="1"/>
  </linearGradient>
  <linearGradient id="rainblue" x1="0%" x2="0%" y1="0%" y2="100%">
   <stop offset="0%"    stop-color= "#00F260" stop-opacity="1"/>
   <stop offset="100%"  stop-color= "#0575E6" stop-opacity="1"/>
  </linearGradient>
  <linearGradient id="redcarbon" x1="0%" x2="0%" y1="0%" y2="100%">
   <stop offset="0%"    stop-color= "#FF6D57" stop-opacity="1"/>
   <stop offset="50%"   stop-color= "#FF5160" stop-opacity="1"/>
   <stop offset="100%"  stop-color= "#F50F22" stop-opacity="1"/>
  </linearGradient>
  <linearGradient id="sunrise" x1="0%" x2="0%" y1="0%" y2="100%">
   <stop offset="0%"    stop-color= "#FF8501" stop-opacity="1"/>
   <stop offset="100%"  stop-color= "#FFCB01" stop-opacity="1"/>
  </linearGradient>
  <linearGradient id="telinkrin" x1="0%" x2="0%" y1="0%" y2="100%">
   <stop offset="0%"    stop-color= "#b2ced6" stop-opacity="1"/>
   <stop offset="100%"  stop-color= "#6da5b7" stop-opacity="1"/>
  </linearGradient>
  <linearGradient id="60spsycho" x1="0%" x2="0%" y1="0%" y2="100%">
   <stop offset="0%"    stop-color= "#df5940" stop-opacity="1"/>
   <stop offset="25%"   stop-color= "#d8d15f" stop-opacity="1"/>
   <stop offset="50%"   stop-color= "#e9882a" stop-opacity="1"/>
   <stop offset="100%"  stop-color= "#279362" stop-opacity="1"/>
  </linearGradient>
  <linearGradient id="90ssummer" x1="0%" x2="0%" y1="0%" y2="100%">
   <stop offset="0%"    stop-color= "#f618c7" stop-opacity="1"/>
   <stop offset="20%"   stop-color= "#94ffab" stop-opacity="1"/>
   <stop offset="50%"   stop-color= "#fbfd54" stop-opacity="1"/>
   <stop offset="100%"  stop-color= "#0f83ae" stop-opacity="1"/>
  </linearGradient>
 </defs>
 <path fill="url(#oomox)" class="ColorScheme-Text" d="M 7.9941406 2 C 6.1241406 2 4.6002219 3.5344719 4.5449219 5.4511719 C 4.4989919 5.4626419 4.4533762 5.4810563 4.4101562 5.5039062 C 3.9801062 5.7309462 3.8698125 6.4401031 4.1640625 7.0957031 C 4.4007725 7.6231531 4.821585 7.9495631 5.203125 7.9394531 C 5.490345 9.6922531 6.6335406 11 7.9941406 11 C 7.9982406 11 8.0017294 11.00002 8.0058594 11 C 9.3664594 11 10.509675 9.6923531 10.796875 7.9394531 C 11.178415 7.9495431 11.597254 7.6231531 11.833984 7.0957031 C 12.128224 6.4400631 12.019884 5.7309063 11.589844 5.5039062 C 11.546564 5.4810563 11.501068 5.4626419 11.455078 5.4511719 C 11.399758 3.5344719 9.8758594 2 8.0058594 2 C 8.0017594 1.99998 7.9982706 2 7.9941406 2 z M 10.394531 11 C 10.105641 11.70052 9.1205125 12.226562 7.9453125 12.226562 C 6.7755125 12.226562 5.7996594 11.707439 5.5058594 11.011719 C 3.0367594 11.269869 1.2376844 11.901218 1.0214844 12.648438 C 1.0184844 12.655538 1.0234844 12.664745 1.0214844 12.671875 C 1.0144844 12.698765 1.0127656 12.7227 1.0097656 12.75 C 1.0087656 12.76233 1 12.770573 1 12.783203 C 0.99991 12.787303 1 12.788969 1 12.792969 L 1 14.642578 C 1 14.840118 1.1557094 15 1.3496094 15 L 14.650391 15 C 14.844291 15 15 14.840108 15 14.642578 L 15 12.792969 C 15 12.784769 15.00035 12.779634 15 12.771484 C 14.998 12.728184 14.979197 12.691027 14.966797 12.648438 C 14.745797 11.892437 12.908531 11.252 10.394531 11 z" transform="translate(3 3)"/>
</svg>
