<svg xmlns="http://www.w3.org/2000/svg" width="48" height="48" version="1.1">
 <defs>
  <style id="current-color-scheme" type="text/css">
   .ColorScheme-Text { color: #ececec; } .ColorScheme-Highlight { color: #1AD6AB; }
  </style>
  <linearGradient id="arrongin" x1="0" x2="0" y1="0" y2="1">
   <stop id="stop3" offset="0%" stop-color="#dd9b44"/>
   <stop id="stop5" offset="100%" stop-color="#ad6c16"/>
  </linearGradient>
  <linearGradient id="aurora" x1="0" x2="0" y1="0" y2="1">
   <stop id="stop8" offset="0%" stop-color="#09D4DF"/>
   <stop id="stop10" offset="100%" stop-color="#9269F4"/>
  </linearGradient>
  <linearGradient id="cyberblue" x1="0" x2="0" y1="0" y2="1">
   <stop id="stop13" offset="0%" stop-color="#07B3FF"/>
   <stop id="stop15" offset="100%" stop-color="#007DE8"/>
  </linearGradient>
  <linearGradient id="cyberneon" x1="0" x2="0" y1="0" y2="1">
   <stop id="stop18" offset="0%" stop-color="#0abdc6"/>
   <stop id="stop20" offset="100%" stop-color="#ea00d9"/>
  </linearGradient>
  <linearGradient id="cyberorange" x1="0%" x2="0%" y1="0%" y2="100%">
    <stop offset="0%"   style="stop-color: #FF9757; stop-opacity: 1"/>
    <stop offset="50%"  style="stop-color: #FF6E51; stop-opacity: 1"/>
    <stop offset="100%" style="stop-color: #F5350F; stop-opacity: 1"/>
  </linearGradient>
  <linearGradient id="fitdance" x1="0" x2="0" y1="0" y2="1">
   <stop id="stop23" offset="0%" stop-color="#1AD6AB"/>
   <stop id="stop25" offset="100%" stop-color="#329DB6"/>
  </linearGradient>
  <linearGradient id="lemon" x1="0%" x2="0%" y1="0%" y2="100%">
   <stop offset="0.1" stop-color="#6DDB0A"/>
   <stop offset="0.2" stop-color="#61D915"/>
   <stop offset="0.3" stop-color="#55D620"/>
   <stop offset="0.4" stop-color="#49D42B"/>
   <stop offset="0.5" stop-color="#3CD235"/>
   <stop offset="0.6" stop-color="#30CF40"/>
   <stop offset="0.7" stop-color="#24CD4B"/>
   <stop offset="0.8" stop-color="#18CA56"/>
   <stop offset="0.9" stop-color="#0CC861"/>
   <stop offset="1.0" stop-color="#00C66B"/>
  </linearGradient>
  <linearGradient id="purplecarbon" x1="0%" x2="0%" y1="0%" y2="100%">
   <stop offset="1e-07" stop-color="#EC57FF"/>
   <stop offset="0.5" stop-color="#C551FF"/>
   <stop offset="1" stop-color="#A90FF5"/>
  </linearGradient>
  <linearGradient id="oomox" x1="0" x2="0" y1="0" y2="1">
   <stop id="stop28" offset="0%" stop-color="#efefe7"/>
   <stop id="stop30" offset="100%" stop-color="#8f8f8b"/>
  </linearGradient>
  <linearGradient id="rainblue" x1="0" x2="0" y1="0" y2="1">
   <stop id="stop33" offset="0%" stop-color="#00F260"/>
   <stop id="stop35" offset="100%" stop-color="#0575E6"/>
  </linearGradient>
  <linearGradient id="redcarbon" x1="0" x2="1" y1="0" y2="1">
   <stop id="stop38" offset="0%" stop-color="#FF6D57"/>
   <stop id="stop40" offset="50%" stop-color="#FF5160"/>
   <stop id="stop42" offset="100%" stop-color="#F50F22"/>
  </linearGradient>
  <linearGradient id="sunrise" x1="0" x2="0" y1="0" y2="1">
   <stop id="stop45" offset="0%" stop-color="#FF8501"/>
   <stop id="stop47" offset="100%" stop-color="#FFCB01"/>
  </linearGradient>
  <linearGradient id="telinkrin" x1="0" x2="0" y1="0" y2="1">
   <stop id="stop50" offset="0%" stop-color="#b2ced6"/>
   <stop id="stop52" offset="100%" stop-color="#6da5b7"/>
  </linearGradient>
  <linearGradient id="60spsycho" x1="0" x2="0" y1="0" y2="1">
   <stop id="stop55" offset="0%" stop-color="#df5940"/>
   <stop id="stop57" offset="25%" stop-color="#d8d15f"/>
   <stop id="stop59" offset="50%" stop-color="#e9882a"/>
   <stop id="stop61" offset="100%" stop-color="#279362"/>
  </linearGradient>
  <linearGradient id="90ssummer" x1="0" x2="0" y1="0" y2="1">
   <stop id="stop64" offset="0%" stop-color="#f618c7"/>
   <stop id="stop66" offset="20%" stop-color="#94ffab"/>
   <stop id="stop68" offset="50%" stop-color="#fbfd54"/>
   <stop id="stop70" offset="100%" stop-color="#0f83ae"/>
  </linearGradient>
  <linearGradient id="pause" x1="0" x2="0" y1="0" y2="1" gradientTransform="matrix(4,0,0,12,14,5.734)" gradientUnits="userSpaceOnUse">
   <stop id="stop73" offset="0%" stop-color="#f06"/>
   <stop id="stop75" offset="100%" stop-color="#dc1499"/>
  </linearGradient>
  <linearGradient id="squircle" x1="0" x2="0" y1="0" y2="1" gradientTransform="matrix(24,0,0,22.401,0,0.533)" gradientUnits="userSpaceOnUse">
   <stop id="stop78" offset="0%" stop-color="#4c5561"/>
   <stop id="stop80" offset="100%" stop-color="#2e3842"/>
  </linearGradient>
 </defs>
 <path fill="currentColor" class="ColorScheme-Text" d="m29 4v4c6.3273 2.1143 11 8.6571 11 16s-4.6727 13.886-11 16v4c8.591-2.229 15-10.286 15-20s-6.409-17.771-15-20z"/>
 <path fill="currentColor" class="ColorScheme-Text" d="m4 14v20h9.0912l10.909 10v-40l-10.909 10z"/>
 <path fill="currentColor" class="ColorScheme-Text" d="m34 24c0-3.9-2.011-7.26-5-9v18c2.9609-1.74 5-5.1 5-9z"/>
 <path opacity=".2" d="m29 8v1c6.1827 2.066 10.773 8.3626 10.98 15.5 0.005-0.167 0.02-0.332 0.02-0.5 0-7.343-4.673-13.886-11-16zm4.9668 16.494c-0.166 3.686-2.133 6.841-4.967 8.506v1c2.9609-1.74 5-5.1 5-9 0-0.1718-0.02549-0.33624-0.0332-0.50586zm10.012 0.006c-0.218 9.488-6.537 17.31-14.979 19.5v1c8.5909-2.2286 15-10.286 15-20 0-0.16859-0.01765-0.33243-0.02148-0.5zm-39.979 9.5v1h9.092l10.908 10v-1l-10.908-10h-9.092z"/>
 <path fill="currentColor" class="ColorScheme-Text" opacity=".2" d="m24 4l-10.908 10h-9.092v1h9.092l10.908-10v-1zm5 0v1c8.442 2.1899 14.761 10.012 14.979 19.5 0.003-0.168 0.021-0.331 0.021-0.5 0-9.714-6.409-17.771-15-20zm0 11v1c2.857 1.663 4.799 4.813 4.967 8.494 0.007-0.166 0.033-0.326 0.033-0.494 0-3.9-2.011-7.26-5-9zm10.98 9.5c-0.207 7.137-4.797 13.434-10.98 15.5v1c6.327-2.114 11-8.657 11-16 0-0.168-0.015-0.333-0.02-0.5z"/>
</svg>
