<?xml version="1.0" encoding="UTF-8" standalone="no"?>
<svg
   xmlns:dc="http://purl.org/dc/elements/1.1/"
   xmlns:cc="http://creativecommons.org/ns#"
   xmlns:rdf="http://www.w3.org/1999/02/22-rdf-syntax-ns#"
   xmlns:svg="http://www.w3.org/2000/svg"
   xmlns="http://www.w3.org/2000/svg"
   xmlns:sodipodi="http://sodipodi.sourceforge.net/DTD/sodipodi-0.dtd"
   xmlns:inkscape="http://www.inkscape.org/namespaces/inkscape"
   height="100%"
   width="100%"
   version="1.1"
   id="svg2"
   viewBox="0 0 512 512"
   inkscape:version="0.91 r"
   sodipodi:docname="addressbook.svg">
  <sodipodi:namedview
     pagecolor="#ffffff"
     bordercolor="#666666"
     borderopacity="1"
     objecttolerance="10"
     gridtolerance="10"
     guidetolerance="10"
     inkscape:pageopacity="0"
     inkscape:pageshadow="2"
     inkscape:window-width="1920"
     inkscape:window-height="1028"
     id="namedview8"
     showgrid="false"
     inkscape:zoom="0.4609375"
     inkscape:cx="-56.40678"
     inkscape:cy="256"
     inkscape:window-x="0"
     inkscape:window-y="0"
     inkscape:window-maximized="1"
     inkscape:current-layer="svg2" />
  <metadata
     id="metadata508">
    <rdf:RDF>
      <cc:Work
         rdf:about="">
        <dc:format>image/svg+xml</dc:format>
        <dc:type
           rdf:resource="http://purl.org/dc/dcmitype/StillImage" />
        <dc:title />
      </cc:Work>
    </rdf:RDF>
  </metadata>
  <defs
     id="defs506" />
  <path
     d="m 121.55243,51.23344 c -3.30374,0.53782 -7.27336,1.69028 -12.01128,3.99522 -9.57829,4.25133 -20.46272,17.05653 -20.00174,34.4204 l 0,345.74053 C 89.53941,461 115.14982,461 115.14982,461 l 307.32492,0 0,-358.54574 -25.61041,0 0,-25.61041 25.61041,0 0,-25.61041 -294.51971,0 c -0.53782,0.0256 -3.09886,-0.53782 -6.4026,0 m 3.99522,25.61041 c 1.51101,-0.25611 2.38178,0.0768 2.40738,0 l 243.29889,0 0,25.61041 -243.29889,0 c -0.15366,0 -1.17808,-0.58904 -2.40738,-0.79392 -2.25372,-0.35855 -5.35257,-1.58784 -7.19652,-3.20131 -1.74151,-1.7159 -2.99642,-2.40737 -3.20131,-8.80997 0.40978,-8.29778 2.33055,-9.01487 5.60868,-11.21737 1.63908,-0.84514 3.32936,-1.35735 4.81477,-1.61345 m 143.26463,67.22732 c 34.36917,0 61.61865,27.24948 61.61865,61.61865 0,34.36918 -27.24948,62.43818 -61.61865,62.43818 -34.36918,0 -62.41258,-28.069 -62.41258,-62.43818 0,-34.36917 28.06902,-61.61865 62.41258,-61.61865 m -52.80867,140.06333 c 10.42344,-0.99879 21.02615,2.79154 31.2191,12.01129 20.15538,18.23461 22.25544,18.23461 42.41083,0 40.74616,-36.87899 92.53041,17.41508 80.03253,84.02775 l -7.19652,38.41562 -93.63166,0 -94.42559,0 -7.19652,-38.41562 c -9.37341,-49.9659 17.59435,-93.06822 48.81344,-96.03904"
     id="path228"
     style="fill:#009688" />
</svg>
