<?xml version="1.0" encoding="UTF-8" standalone="no"?>
<svg
   xmlns:dc="http://purl.org/dc/elements/1.1/"
   xmlns:cc="http://creativecommons.org/ns#"
   xmlns:rdf="http://www.w3.org/1999/02/22-rdf-syntax-ns#"
   xmlns:svg="http://www.w3.org/2000/svg"
   xmlns="http://www.w3.org/2000/svg"
   xmlns:sodipodi="http://sodipodi.sourceforge.net/DTD/sodipodi-0.dtd"
   xmlns:inkscape="http://www.inkscape.org/namespaces/inkscape"
   height="100%"
   width="100%"
   version="1.1"
   id="svg2"
   viewBox="0 0 512 512"
   inkscape:version="0.91 r"
   sodipodi:docname="color-picker.svg">
  <sodipodi:namedview
     pagecolor="#ffffff"
     bordercolor="#666666"
     borderopacity="1"
     objecttolerance="10"
     gridtolerance="10"
     guidetolerance="10"
     inkscape:pageopacity="0"
     inkscape:pageshadow="2"
     inkscape:window-width="647"
     inkscape:window-height="480"
     id="namedview8"
     showgrid="false"
     inkscape:zoom="0.4609375"
     inkscape:cx="256"
     inkscape:cy="256"
     inkscape:window-x="0"
     inkscape:window-y="0"
     inkscape:window-maximized="0"
     inkscape:current-layer="svg2" />
  <metadata
     id="metadata508">
    <rdf:RDF>
      <cc:Work
         rdf:about="">
        <dc:format>image/svg+xml</dc:format>
        <dc:type
           rdf:resource="http://purl.org/dc/dcmitype/StillImage" />
        <dc:title />
      </cc:Work>
    </rdf:RDF>
  </metadata>
  <defs
     id="defs506" />
  <path
     style="fill:#009688;fill-rule:evenodd;stroke:none"
     id="path94"
     d="m 363.28265,61.05537 c -18.11648,-10.45431 -41.36271,-4.09081 -52.33648,13.52784 -0.23809,0.36795 -0.45454,0.7792 -0.67099,1.1688 l -5.41113,9.37209 -26.03837,45.10721 66.77338,38.54891 26.03838,-45.10721 5.41114,-9.37208 c 0.21643,-0.3896 0.47618,-0.77921 0.67097,-1.16881 9.78333,-18.31127 3.65793,-41.62244 -14.45854,-52.07675 m -103.41759,66.81668 c -9.37208,-5.41113 -21.3848,-2.18609 -26.79594,7.18599 -5.41113,9.37208 -1.83978,20.80039 7.51066,26.21152 l 97.83329,56.4706 c 9.37209,5.41113 21.06014,2.7705 26.44963,-6.60159 5.41113,-9.37208 2.18609,-21.38479 -7.18599,-26.79593 z m 3.85273,56.90348 c -7.25093,-4.19904 -16.14683,-1.81814 -20.32422,5.45443 L 131.77271,383.53729 c -1.66663,2.87872 -2.35925,5.90895 -2.05623,8.96084 1.7965,14.004 4.30726,28.59242 6.515,42.81289 l -3.72286,6.45006 c -2.64063,4.58865 -1.12551,10.28116 3.46313,12.94343 4.58864,2.64064 10.28116,1.12553 12.94343,-3.46312 l 3.72286,-6.45007 c 14.24211,-5.7791 28.7223,-11.21187 41.25448,-16.01696 2.44583,-1.27703 4.91331,-3.09517 6.40678,-5.67086 L 311.89853,229.79617 c 4.19904,-7.25093 1.23373,-16.4715 -6.03883,-20.67054 z" />
</svg>
