<?xml version="1.0" encoding="UTF-8" standalone="no"?>
<svg
   xmlns:dc="http://purl.org/dc/elements/1.1/"
   xmlns:cc="http://creativecommons.org/ns#"
   xmlns:rdf="http://www.w3.org/1999/02/22-rdf-syntax-ns#"
   xmlns:svg="http://www.w3.org/2000/svg"
   xmlns="http://www.w3.org/2000/svg"
   xmlns:sodipodi="http://sodipodi.sourceforge.net/DTD/sodipodi-0.dtd"
   xmlns:inkscape="http://www.inkscape.org/namespaces/inkscape"
   height="100%"
   width="100%"
   version="1.1"
   id="svg2"
   viewBox="0 0 512 512"
   inkscape:version="0.91 r"
   sodipodi:docname="configure-toolbars.svg">
  <sodipodi:namedview
     pagecolor="#ffffff"
     bordercolor="#666666"
     borderopacity="1"
     objecttolerance="10"
     gridtolerance="10"
     guidetolerance="10"
     inkscape:pageopacity="0"
     inkscape:pageshadow="2"
     inkscape:window-width="647"
     inkscape:window-height="480"
     id="namedview8"
     showgrid="false"
     inkscape:zoom="0.4609375"
     inkscape:cx="256"
     inkscape:cy="256"
     inkscape:window-x="0"
     inkscape:window-y="0"
     inkscape:window-maximized="0"
     inkscape:current-layer="svg2" />
  <metadata
     id="metadata508">
    <rdf:RDF>
      <cc:Work
         rdf:about="">
        <dc:format>image/svg+xml</dc:format>
        <dc:type
           rdf:resource="http://purl.org/dc/dcmitype/StillImage" />
        <dc:title />
      </cc:Work>
    </rdf:RDF>
  </metadata>
  <defs
     id="defs506" />
  <path
     id="path3329"
     d="m 233.29885,56 c -8.47747,0 -14.4441,6.17502 -15.31609,13.7069 l -4.88506,42.29885 c -9.86144,2.93515 -19.2938,6.87474 -28.18965,11.66666 L 151.54598,97.2069 c -5.93991,-4.70633 -14.52055,-4.84888 -20.51724,1.14942 l -31.89655,31.86782 c -5.9943,5.99431 -5.68455,14.44853 -1.14942,20.51724 l 25.63217,34.25287 c -9.47424,21.75165 -11.63399,27.87775 -11.60919,27.78736 l -42.29885,4.88506 c -7.52787,0.87199 -13.70689,6.86416 -13.70689,15.34482 l 0,45.05748 c 0,8.47746 6.20302,14.20417 13.70689,15.28735 l 42.47126,6.17816 c 2.94075,9.73825 6.85487,19.02344 11.6092,27.81609 l -26.20689,33.10345 c -4.70633,5.9399 -4.87362,14.52054 1.12069,20.51724 l 31.86781,31.86782 c 5.9943,5.9943 14.41339,5.68455 20.4885,1.14943 L 185.16667,388.5 c 8.82386,4.72873 18.16559,8.64457 27.93103,11.55172 l 4.88506,42.24138 C 218.85475,449.82098 224.81818,456 233.29885,456 l 45.11494,0 c 8.47747,0 14.17544,-6.18228 15.25862,-13.67816 l 6.14943,-42.52874 c 9.49424,-2.88955 18.59285,-6.73464 27.18391,-11.35057 l 34.45402,25.77586 c 6.0711,4.53593 14.54927,4.84888 20.54598,-1.14942 l 31.86781,-31.86782 c 5.99431,-5.99431 5.82782,-14.57813 1.12069,-20.51724 l -26.60919,-33.59196 c 4.69112,-8.71746 8.5823,-17.91442 11.49425,-27.55747 l 42.41379,-6.17816 C 449.79298,292.27074 456,286.52089 456,278.04023 l 0,-45.08621 c 0,-8.47747 -6.18302,-14.38663 -13.7069,-15.25862 l -42.38505,-4.94253 c -2.87916,-9.58545 -6.65958,-18.77066 -11.29311,-27.44253 l 25.91954,-34.77011 c 4.53593,-6.0711 4.84889,-14.52054 -1.14942,-20.51724 L 381.51724,98.12644 c -5.99431,-5.99431 -14.5494,-5.82782 -20.4885,-1.12069 l -33.76437,26.75287 c -8.67586,-4.68393 -17.84749,-8.54477 -27.44253,-11.46552 l -6.14943,-42.5862 c -1.08558,-7.49988 -6.78435,-13.67816 -15.25862,-13.67816 l -45.0862,0 -0.0287,-0.0287 z m -61.26437,144.39655 c 15.46375,0 27.98851,12.52476 27.98851,27.98851 0,15.46376 -12.52476,28.01724 -27.98851,28.01724 -15.46375,0 -28.01724,-12.55348 -28.01724,-28.01724 0,-15.46375 12.55349,-27.98851 28.01724,-27.98851 z m 83.99426,0 c 15.46375,0 27.9885,12.52476 27.9885,27.98851 0,15.46376 -12.52475,28.01724 -27.9885,28.01724 -15.46376,0 -28.01725,-12.55348 -28.01725,-28.01724 0,-15.46375 12.55349,-27.98851 28.01725,-27.98851 z m 83.99425,0 c 15.46375,0 27.9885,12.52476 27.9885,27.98851 0,15.46376 -12.52475,28.01724 -27.9885,28.01724 -15.46375,0 -28.01724,-12.55348 -28.01724,-28.01724 0,-15.46375 12.55349,-27.98851 28.01724,-27.98851 z m -183.90805,80.83334 199.79885,0 c 7.05189,0 12.72989,5.13343 12.72989,11.55172 0,6.4159 -5.6788,11.60919 -12.72989,11.60919 l -199.79885,0 c -7.05189,0 -12.70115,-5.19089 -12.70115,-11.60919 0,-6.41589 5.65006,-11.55172 12.70115,-11.55172 z"
     style="fill:#009688" />
</svg>
