<?xml version="1.0" encoding="UTF-8" standalone="no"?>
<svg
   xmlns:dc="http://purl.org/dc/elements/1.1/"
   xmlns:cc="http://creativecommons.org/ns#"
   xmlns:rdf="http://www.w3.org/1999/02/22-rdf-syntax-ns#"
   xmlns:svg="http://www.w3.org/2000/svg"
   xmlns="http://www.w3.org/2000/svg"
   xmlns:sodipodi="http://sodipodi.sourceforge.net/DTD/sodipodi-0.dtd"
   xmlns:inkscape="http://www.inkscape.org/namespaces/inkscape"
   height="100%"
   width="100%"
   version="1.1"
   id="svg2"
   viewBox="0 0 512 512"
   inkscape:version="0.91 r"
   sodipodi:docname="configure.svg">
  <sodipodi:namedview
     pagecolor="#ffffff"
     bordercolor="#666666"
     borderopacity="1"
     objecttolerance="10"
     gridtolerance="10"
     guidetolerance="10"
     inkscape:pageopacity="0"
     inkscape:pageshadow="2"
     inkscape:window-width="647"
     inkscape:window-height="480"
     id="namedview8"
     showgrid="false"
     inkscape:zoom="0.4609375"
     inkscape:cx="256"
     inkscape:cy="256"
     inkscape:window-x="0"
     inkscape:window-y="0"
     inkscape:window-maximized="0"
     inkscape:current-layer="svg2" />
  <metadata
     id="metadata508">
    <rdf:RDF>
      <cc:Work
         rdf:about="">
        <dc:format>image/svg+xml</dc:format>
        <dc:type
           rdf:resource="http://purl.org/dc/dcmitype/StillImage" />
        <dc:title />
      </cc:Work>
    </rdf:RDF>
  </metadata>
  <defs
     id="defs506" />
  <path
     d="m 233.30208,56 c -8.4774,0 -14.44767,6.16466 -15.31965,13.6957 l -4.88709,42.31027 c -9.86139,2.93513 -19.27958,6.87505 -28.17538,11.66694 L 151.54709,97.20949 c -5.93987,-4.70629 -14.51968,-4.84789 -20.51714,1.14478 l -31.87611,31.8761 c -5.99426,5.99426 -5.68067,14.44768 -1.14478,20.51714 l 25.62344,34.25365 c -9.47418,21.75153 -11.64774,27.87219 -11.62293,27.78179 l -42.31028,4.88709 c -7.52783,0.87198 -13.6957,6.84465 -13.6957,15.31966 l 0,45.08702 c 0,8.47741 6.19267,14.19169 13.6957,15.27966 l 42.48706,6.16386 c 2.94074,9.73819 6.86865,19.03238 11.62295,27.82579 L 97.56907,360.4573 c -4.70629,5.93987 -4.84788,14.51968 1.14479,20.51715 l 31.87609,31.8761 c 5.99427,5.99427 14.39969,5.68068 20.47315,1.14477 l 34.12164,-25.49223 c 8.82382,4.72869 18.1476,8.62861 27.9138,11.53494 l 4.88708,42.26627 C 218.85761,449.83213 224.82948,456 233.30528,456 l 45.08702,0 c 8.47742,0 14.19169,-6.19266 15.27966,-13.6957 l 6.16386,-42.52707 c 9.4942,-2.88953 18.5676,-6.69904 27.16501,-11.31174 l 34.47125,25.75943 c 6.07106,4.5359 14.51968,4.8479 20.51715,-1.14478 l 31.87609,-31.87609 c 5.99426,-5.99427 5.85108,-14.57727 1.14478,-20.51715 l -26.63941,-33.59287 c 4.6911,-8.7174 8.57901,-17.91879 11.49094,-27.56098 l 42.43907,-6.16387 c 7.49983,-1.08557 13.6957,-6.84385 13.6957,-15.31967 l 0,-45.08701 c 0,-8.47741 -6.16467,-14.40767 -13.6957,-15.27966 l -42.39826,-4.93109 c -2.87913,-9.58538 -6.67825,-18.75479 -11.31176,-27.4314 l 25.93223,-34.78163 c 4.53591,-6.07108 4.8479,-14.51968 -1.14477,-20.51714 L 381.50205,98.14547 c -5.99427,-5.99426 -14.53569,-5.85106 -20.47316,-1.14477 l -33.76725,26.76901 c -8.67582,-4.68389 -17.83321,-8.571 -27.4314,-11.49095 L 293.66638,69.7037 C 292.58079,62.20386 286.86651,56.008 278.3867,56.008 Z m 22.71791,136.97299 c 34.81844,0 63.04662,28.23138 63.04662,63.04661 0,34.81844 -28.23138,63.04661 -63.04662,63.04661 -34.81843,0 -63.04662,-28.23137 -63.04662,-63.04661 0,-34.81843 28.23139,-63.04661 63.04662,-63.04661"
     id="path104"
     style="fill:#009688" />
</svg>
