<?xml version="1.0" encoding="UTF-8" standalone="no"?>
<svg
   xmlns:dc="http://purl.org/dc/elements/1.1/"
   xmlns:cc="http://creativecommons.org/ns#"
   xmlns:rdf="http://www.w3.org/1999/02/22-rdf-syntax-ns#"
   xmlns:svg="http://www.w3.org/2000/svg"
   xmlns="http://www.w3.org/2000/svg"
   xmlns:sodipodi="http://sodipodi.sourceforge.net/DTD/sodipodi-0.dtd"
   xmlns:inkscape="http://www.inkscape.org/namespaces/inkscape"
   sodipodi:docname="document-preview.svg"
   inkscape:version="0.91 r13725"
   id="svg2"
   version="1.1"
   width="512"
   viewBox="0 0 512 512"
   height="512">
  <defs
     id="defs17" />
  <sodipodi:namedview
     showguides="false"
     inkscape:current-layer="svg2"
     inkscape:window-maximized="1"
     inkscape:window-y="0"
     inkscape:window-x="0"
     inkscape:cy="159.67197"
     inkscape:cx="346.30317"
     inkscape:zoom="1.0082714"
     showgrid="false"
     id="namedview15"
     inkscape:window-height="1022"
     inkscape:window-width="1920"
     inkscape:pageshadow="2"
     inkscape:pageopacity="0"
     guidetolerance="10"
     gridtolerance="10"
     objecttolerance="10"
     borderopacity="1"
     bordercolor="#666666"
     pagecolor="#ffffff" />
  <metadata
     id="metadata28">
    <rdf:RDF>
      <cc:Work
         rdf:about="">
        <dc:format>image/svg+xml</dc:format>
        <dc:type
           rdf:resource="http://purl.org/dc/dcmitype/StillImage" />
        <dc:title></dc:title>
      </cc:Work>
    </rdf:RDF>
  </metadata>
  <path
     inkscape:connector-curvature="0"
     id="path10"
     d="m 80.450693,61.081074 c -11.816802,0 -21.401568,9.581074 -21.401568,21.401568 l 0,299.506958 c 0,11.82171 9.585996,21.40155 21.401568,21.40155 l 235.991727,0 c 7.5453,0 14.26226,-4.13137 18.06924,-10.02569 l -12.6973,-15.39763 -3.36104,-3.99304 c -15.34923,7.11019 -32.12323,12.03658 -50.1285,12.03658 -33.55306,0 -64.23726,-13.91878 -86.23826,-36.10976 l -90.920732,0 0,-24.07316 72.190782,0 c -7.44969,-12.80716 -12.44312,-27.54407 -14.70819,-42.77439 l -57.482592,0 0,-24.7339 56.821862,0 c 0.95236,-15.20582 4.5715,-29.60254 10.68642,-42.80312 l -67.508282,0 0,-24.07316 81.555762,0 c 16.6325,-21.30115 40.51071,-36.92307 67.53701,-43.43512 l 0,-86.927686 -159.807907,0 z m 181.180747,0 0,76.873266 76.21255,0 -76.21255,-76.873266 z M 91.165828,124.5963 l 107.639812,0 0,24.07317 -107.639812,0 0,-24.07317 z m 181.669122,41.62533 c -57.77867,0 -104.62348,46.82833 -104.62348,104.59474 0,57.77866 46.85706,104.62349 104.62348,104.62349 57.77866,0 104.62346,-46.84483 104.62346,-104.62349 0,-57.76641 -46.85706,-104.59474 -104.62346,-104.59474 z m 0,26.1415 c 43.26045,0 78.45323,35.18666 78.45323,78.45324 0,43.26537 -35.18664,78.45325 -78.45323,78.45325 -43.26045,0 -78.45327,-35.18667 -78.45327,-78.45325 0,-43.26535 35.18668,-78.45324 78.45327,-78.45324 z M 374.72937,337.2905 c -9.36544,14.40176 -21.57906,26.60068 -35.96613,35.96612 l 55.04081,65.89955 c 6.12841,7.359 17.179,7.86597 23.95825,1.09163 l 24.50407,-24.50407 c 6.77925,-6.77066 6.29119,-17.28402 -1.0629,-23.41244 l -66.4741,-55.04079 z"
     style="fill:#009688" />
</svg>
