<?xml version="1.0" encoding="UTF-8" standalone="no"?>
<svg
   xmlns:dc="http://purl.org/dc/elements/1.1/"
   xmlns:cc="http://creativecommons.org/ns#"
   xmlns:rdf="http://www.w3.org/1999/02/22-rdf-syntax-ns#"
   xmlns:svg="http://www.w3.org/2000/svg"
   xmlns="http://www.w3.org/2000/svg"
   xmlns:sodipodi="http://sodipodi.sourceforge.net/DTD/sodipodi-0.dtd"
   xmlns:inkscape="http://www.inkscape.org/namespaces/inkscape"
   height="100%"
   width="100%"
   version="1.1"
   id="svg2"
   viewBox="0 0 512 512"
   inkscape:version="0.91 r"
   sodipodi:docname="document-share.svg">
  <sodipodi:namedview
     pagecolor="#ffffff"
     bordercolor="#666666"
     borderopacity="1"
     objecttolerance="10"
     gridtolerance="10"
     guidetolerance="10"
     inkscape:pageopacity="0"
     inkscape:pageshadow="2"
     inkscape:window-width="640"
     inkscape:window-height="480"
     id="namedview8"
     showgrid="false"
     inkscape:zoom="0.4609375"
     inkscape:cx="256"
     inkscape:cy="256"
     inkscape:window-x="0"
     inkscape:window-y="0"
     inkscape:window-maximized="0"
     inkscape:current-layer="svg2" />
  <metadata
     id="metadata100">
    <rdf:RDF>
      <cc:Work
         rdf:about="">
        <dc:format>image/svg+xml</dc:format>
        <dc:type
           rdf:resource="http://purl.org/dc/dcmitype/StillImage" />
        <dc:title />
      </cc:Work>
    </rdf:RDF>
  </metadata>
  <defs
     id="defs98" />
  <path
     id="path10"
     d="m 386.09329,56.74953 c -38.61126,0 -69.9375,31.29213 -69.9375,69.90625 0,1.24868 0.0291,2.48617 0.0937,3.71875 l -144.65621,72.81249 c -12.25577,-10.59611 -28.21476,-17.03124 -45.6875,-17.03124 -38.611252,0 -69.90624,31.29213 -69.90624,69.90624 0,38.61129 31.292128,69.93751 69.90624,69.93751 17.74428,0 33.95235,-6.6378 46.28125,-17.53125 29.36944,13.36297 127.87911,64.22616 144.125,72.625 -0.0847,1.40802 -0.15624,2.82075 -0.15624,4.25 0,38.61128 31.32339,69.90626 69.9375,69.90626 38.61128,0 69.90626,-31.29214 69.90626,-69.90626 0,-38.61125 -31.29214,-69.90625 -69.90626,-69.90625 -17.07344,0 -32.70243,6.11441 -44.84375,16.28125 l -145.46875,-73.1875 c 0.0287,-0.82196 0.0625,-1.63982 0.0625,-2.46876 0,-1.03884 -0.0489,-2.06594 -0.0937,-3.09374 11.92274,-6.16648 113.48604,-58.63573 145,-73.12501 12.20907,10.41612 28.03733,16.71875 45.34375,16.71875 38.61123,0 69.90621,-31.29212 69.90621,-69.90624 0,-38.61126 -31.29214,-69.90625 -69.90626,-69.90625 z"
     style="fill:#009688" />
</svg>
