<?xml version="1.0" encoding="UTF-8" standalone="no"?>
<svg
   xmlns:dc="http://purl.org/dc/elements/1.1/"
   xmlns:cc="http://creativecommons.org/ns#"
   xmlns:rdf="http://www.w3.org/1999/02/22-rdf-syntax-ns#"
   xmlns:svg="http://www.w3.org/2000/svg"
   xmlns="http://www.w3.org/2000/svg"
   xmlns:sodipodi="http://sodipodi.sourceforge.net/DTD/sodipodi-0.dtd"
   xmlns:inkscape="http://www.inkscape.org/namespaces/inkscape"
   height="100%"
   width="100%"
   version="1.1"
   id="svg2"
   viewBox="0 0 512 512"
   inkscape:version="0.91 r13725"
   sodipodi:docname="document-terminal.svg">
  <sodipodi:namedview
     pagecolor="#b4b4ad"
     bordercolor="#666666"
     borderopacity="1"
     objecttolerance="10"
     gridtolerance="10"
     guidetolerance="10"
     inkscape:pageopacity="0"
     inkscape:pageshadow="2"
     inkscape:window-width="1680"
     inkscape:window-height="991"
     id="namedview10"
     showgrid="false"
     inkscape:zoom="0.4609375"
     inkscape:cx="256"
     inkscape:cy="256"
     inkscape:window-x="0"
     inkscape:window-y="0"
     inkscape:window-maximized="1"
     inkscape:current-layer="svg2" />
  <metadata
     id="metadata100">
    <rdf:RDF>
      <cc:Work
         rdf:about="">
        <dc:format>image/svg+xml</dc:format>
        <dc:type
           rdf:resource="http://purl.org/dc/dcmitype/StillImage" />
        <dc:title></dc:title>
      </cc:Work>
    </rdf:RDF>
  </metadata>
  <defs
     id="defs98" />
  <path
     style="fill:#009688"
     inkscape:connector-curvature="0"
     id="path94"
     d="m 263.93516,317.15119 c 0,20.80065 -7.74309,38.03457 -23.22596,51.70343 -15.33542,13.66554 -37.27583,22.24357 -65.81957,25.73575 l 0,51.92707 -29.83591,0 0,-49.88113 c -17.30847,-0.30317 -33.93441,-1.74609 -49.881137,-4.32712 -15.790999,-2.73344 -28.848558,-6.45258 -39.172677,-11.15906 l 0,-38.26816 c 11.387676,5.31447 25.280176,9.93978 41.680815,13.8925 16.549739,3.79534 32.340739,5.84625 47.371339,6.14941 l 0,-97.47612 c -31.12642,-9.86854 -53.144695,-21.40863 -66.048187,-34.6186 -12.90515,-13.36901 -19.359381,-30.44224 -19.359381,-51.24289 0,-20.04522 7.666885,-36.51212 23.00231,-49.42224 15.335426,-12.90515 36.136078,-20.80065 62.403608,-23.6865 l 0,-40.994974 29.83591,0 0,40.539394 c 28.84855,0.75874 56.25419,6.52878 82.2169,17.30848 l -12.7544,32.11212 c -23.53409,-9.26222 -46.68384,-14.72745 -69.46416,-16.39733 l 0,96.11768 c 24.29282,8.19867 42.36169,15.94341 54.20494,23.22596 11.994,7.28752 20.80065,15.63859 26.41828,25.04825 5.61763,9.26222 8.42728,20.49748 8.42728,33.70745 m -41.44889,2.9604 c 0,-10.9321 -3.56838,-19.58634 -10.70349,-25.96271 -7.13676,-6.52878 -19.43558,-12.82894 -36.89481,-18.9038 l 0,85.39928 c 31.74104,-4.85889 47.59996,-18.37203 47.59996,-40.53939 M 101.32199,179.1191 c 0,11.08452 3.26357,20.04523 9.794,26.87386 6.52878,6.83194 17.84025,13.13376 33.93442,18.90381 l 0,-84.952 c -14.27187,2.43028 -25.12777,7.06056 -32.5677,13.8925 -7.43992,6.83194 -11.15906,15.25922 -11.15906,25.28018" />
  <path
     inkscape:connector-curvature="0"
     style="fill:#009688;fill-opacity:1;fill-rule:evenodd"
     id="path96"
     d="m 278.34287,65.48587 177.65702,0 0,381.02495 -177.65702,0 z" />
</svg>
