<?xml version="1.0" encoding="UTF-8" standalone="no"?>
<svg
   xmlns:dc="http://purl.org/dc/elements/1.1/"
   xmlns:cc="http://creativecommons.org/ns#"
   xmlns:rdf="http://www.w3.org/1999/02/22-rdf-syntax-ns#"
   xmlns:svg="http://www.w3.org/2000/svg"
   xmlns="http://www.w3.org/2000/svg"
   xmlns:sodipodi="http://sodipodi.sourceforge.net/DTD/sodipodi-0.dtd"
   xmlns:inkscape="http://www.inkscape.org/namespaces/inkscape"
   height="100%"
   width="100%"
   version="1.1"
   id="svg2"
   viewBox="0 0 512 512"
   inkscape:version="0.91 r"
   sodipodi:docname="download-later.svg">
  <sodipodi:namedview
     pagecolor="#ffffff"
     bordercolor="#666666"
     borderopacity="1"
     objecttolerance="10"
     gridtolerance="10"
     guidetolerance="10"
     inkscape:pageopacity="0"
     inkscape:pageshadow="2"
     inkscape:window-width="640"
     inkscape:window-height="480"
     id="namedview8"
     showgrid="false"
     inkscape:zoom="0.4609375"
     inkscape:cx="256"
     inkscape:cy="256"
     inkscape:window-x="0"
     inkscape:window-y="0"
     inkscape:window-maximized="0"
     inkscape:current-layer="svg2" />
  <metadata
     id="metadata100">
    <rdf:RDF>
      <cc:Work
         rdf:about="">
        <dc:format>image/svg+xml</dc:format>
        <dc:type
           rdf:resource="http://purl.org/dc/dcmitype/StillImage" />
        <dc:title />
      </cc:Work>
    </rdf:RDF>
  </metadata>
  <defs
     id="defs98" />
  <path
     id="path94"
     d="m 219.39062,69.82793 c -102.81424,0 -186.1875,83.34201 -186.1875,186.15625 0,102.81424 83.37326,186.1875 186.1875,186.1875 8.65706,0 17.24721,-0.64891 25.625,-1.8125 0,-12.10127 -0.10971,-9.71922 -0.15625,-20.75 l 0,-20.34375 c -8.14508,1.3963 -16.90478,2.1875 -25.46875,2.1875 -80.51998,0 -145.4375,-64.94876 -145.4375,-145.46875 0,-80.51998 64.91752,-145.43749 145.4375,-145.43749 56.89923,0 106.26423,32.54906 130.1875,79.99999 0.44216,-0.0233 1.02659,0 1.46875,0 l 40,0 c 1.00068,0 1.88229,0.55585 2.90625,0.71875 -26.29699,-70.90877 -94.4767,-121.4375 -174.53125,-121.4375 l -0.0312,0 z m -3.71875,81.09375 c -8.05137,0 -14.53125,7.04013 -14.53125,15.78125 l 0,113.40625 c 0,0.0641 -6.9e-4,0.12363 0,0.1875 -0.0191,0.32953 -0.0312,0.66467 -0.0312,1 0,8.05138 5.56383,14.53125 12.5,14.53125 l 1.09375,0 c 0.32625,0.0236 0.63683,0.0625 0.96875,0.0625 0.33547,0 0.67033,-0.0385 1,-0.0625 l 86.96875,0 c 6.93617,0 12.5,-6.47987 12.5,-14.53125 0,-8.05137 -5.56383,-14.53125 -12.5,-14.53125 l -73.4375,0 0,-100.0625 c 0,-8.74112 -6.47987,-15.78125 -14.53125,-15.78125 z m 135.6875,57.03125 c -6.4977,0 -5.375,4.3125 -5.375,4.3125 l 0,76.1875 0,12.375 -28.375,0 c -8.3057,0 -0.65625,7.21875 -0.65625,7.21875 l 50.34375,60.8125 c 0,0 4.13198,4.8538 8.4375,0.53125 5.96936,-5.96399 48.78125,-62.84375 48.78125,-62.84375 0,0 7.60913,-7.5625 -2.46875,-7.5625 l -26.1875,0 0,-11.0625 0,-76.34375 c 0,0 0.087,-3.625 -4.59375,-3.625 l -39.90625,0 z m -89.125,145.21875 0,66.15625 c 0,8.29675 6.72904,15.03125 15.0625,15.03125 l 186.4375,0 c 8.3263,0 15.0625,-6.72644 15.0625,-15.03125 l 0,-66.15625 -30.0625,0 0,51.125 -156.4375,0 0,-51.125 -30.0625,0 z"
     style="fill:#009688;stroke:none" />
</svg>
