<?xml version="1.0" encoding="UTF-8" standalone="no"?>
<svg
   xmlns:dc="http://purl.org/dc/elements/1.1/"
   xmlns:cc="http://creativecommons.org/ns#"
   xmlns:rdf="http://www.w3.org/1999/02/22-rdf-syntax-ns#"
   xmlns:svg="http://www.w3.org/2000/svg"
   xmlns="http://www.w3.org/2000/svg"
   xmlns:sodipodi="http://sodipodi.sourceforge.net/DTD/sodipodi-0.dtd"
   xmlns:inkscape="http://www.inkscape.org/namespaces/inkscape"
   width="48"
   height="48"
   viewBox="0 0 48 48"
   id="svg2"
   version="1.1"
   inkscape:version="0.91 r13725"
   sodipodi:docname="go-right.svg">
  <metadata
     id="metadata12">
    <rdf:RDF>
      <cc:Work
         rdf:about="">
        <dc:format>image/svg+xml</dc:format>
        <dc:type
           rdf:resource="http://purl.org/dc/dcmitype/StillImage" />
      </cc:Work>
    </rdf:RDF>
  </metadata>
  <defs
     id="defs10" />
  <sodipodi:namedview
     pagecolor="#ffffff"
     bordercolor="#666666"
     borderopacity="1"
     objecttolerance="10"
     gridtolerance="10"
     guidetolerance="10"
     inkscape:pageopacity="0"
     inkscape:pageshadow="2"
     inkscape:window-width="753"
     inkscape:window-height="480"
     id="namedview8"
     showgrid="false"
     inkscape:zoom="4.9166667"
     inkscape:cx="24"
     inkscape:cy="24"
     inkscape:window-x="0"
     inkscape:window-y="0"
     inkscape:window-maximized="0"
     inkscape:current-layer="svg2" />
  <path
     style="fill:#009688;fill-opacity:1"
     d="M 36 24.007812 C 36 23.394531 35.738281 22.8125 35.3125 22.382812 L 27.875 14.695312 C 27.472656 14.269531 26.898438 14.023438 26.3125 14.007812 C 25.382812 13.976562 24.550781 14.503906 24.1875 15.382812 C 23.824219 16.257812 24.019531 17.285156 24.6875 17.945312 L 28.625 22.007812 L 12 22.007812 L 12 26.007812 L 28.625 26.007812 L 24.6875 30.070312 C 23.8125 30.96875 23.8125 32.417969 24.6875 33.320312 C 25.5625 34.21875 27 34.21875 27.875 33.320312 L 35.3125 25.632812 C 35.738281 25.199219 36 24.617188 36 24.007812 Z "
     id="path6" />
</svg>
