<?xml version="1.0" encoding="UTF-8" standalone="no"?>
<svg
   xmlns:dc="http://purl.org/dc/elements/1.1/"
   xmlns:cc="http://creativecommons.org/ns#"
   xmlns:rdf="http://www.w3.org/1999/02/22-rdf-syntax-ns#"
   xmlns:svg="http://www.w3.org/2000/svg"
   xmlns="http://www.w3.org/2000/svg"
   xmlns:sodipodi="http://sodipodi.sourceforge.net/DTD/sodipodi-0.dtd"
   xmlns:inkscape="http://www.inkscape.org/namespaces/inkscape"
   height="512"
   viewBox="0 0 512 512"
   width="512"
   version="1.1"
   id="svg2"
   inkscape:version="0.91 r13725"
   sodipodi:docname="edit-find.svg">
  <sodipodi:namedview
     pagecolor="#b1b2b1"
     bordercolor="#666666"
     borderopacity="1"
     objecttolerance="10"
     gridtolerance="10"
     guidetolerance="10"
     inkscape:pageopacity="0"
     inkscape:pageshadow="2"
     inkscape:window-width="1680"
     inkscape:window-height="993"
     id="namedview15"
     showgrid="false"
     inkscape:zoom="0.42793276"
     inkscape:cx="-434.25324"
     inkscape:cy="686.03987"
     inkscape:window-x="0"
     inkscape:window-y="0"
     inkscape:window-maximized="1"
     inkscape:current-layer="svg2" />
  <defs
     id="defs17" />
  <metadata
     id="metadata28">
    <rdf:RDF>
      <cc:Work
         rdf:about="">
        <dc:format>image/svg+xml</dc:format>
        <dc:type
           rdf:resource="http://purl.org/dc/dcmitype/StillImage" />
        <dc:title></dc:title>
      </cc:Work>
    </rdf:RDF>
  </metadata>
  <path
     inkscape:connector-curvature="0"
     id="path6-3"
     d="m 235.59714,106.96823 c -66.85705,0 -121.01037,54.09424 -121.01037,121.01037 0,66.85705 54.15332,121.01038 121.01037,121.01038 18.46472,0 35.80679,-4.077 51.52396,-11.34473 l 45.37888,45.3789 c 21.33044,21.47816 21.53725,21.47816 43.01541,0 21.33044,-21.33044 21.33044,-21.53724 0,-43.01541 l -41.59732,-41.59732 c 14.21045,-19.97144 22.68945,-44.10851 22.68945,-70.43182 0,-66.91613 -54.15332,-121.01037 -121.01038,-121.01037 z m -1.89078,60.50518 c 16.36712,-0.50226 32.26155,5.64283 44.01988,17.04663 11.75834,11.40382 18.37609,27.09144 18.37609,43.45856 0,33.41376 -27.09143,60.47565 -60.50519,60.47565 -33.41375,0 -60.50518,-27.06189 -60.50518,-60.47565 -0.0295,-32.67516 25.93923,-59.47116 58.6144,-60.50519 z"
     style="fill:#009688;fill-rule:evenodd;fill-opacity:1" />
</svg>
