<?xml version="1.0" encoding="UTF-8" standalone="no"?>
<svg
   xmlns:dc="http://purl.org/dc/elements/1.1/"
   xmlns:cc="http://creativecommons.org/ns#"
   xmlns:rdf="http://www.w3.org/1999/02/22-rdf-syntax-ns#"
   xmlns:svg="http://www.w3.org/2000/svg"
   xmlns="http://www.w3.org/2000/svg"
   xmlns:sodipodi="http://sodipodi.sourceforge.net/DTD/sodipodi-0.dtd"
   xmlns:inkscape="http://www.inkscape.org/namespaces/inkscape"
   height="100%"
   width="100%"
   version="1.1"
   id="svg2"
   viewBox="0 0 512 512"
   inkscape:version="0.91 r"
   sodipodi:docname="fork.svg">
  <sodipodi:namedview
     pagecolor="#ffffff"
     bordercolor="#666666"
     borderopacity="1"
     objecttolerance="10"
     gridtolerance="10"
     guidetolerance="10"
     inkscape:pageopacity="0"
     inkscape:pageshadow="2"
     inkscape:window-width="640"
     inkscape:window-height="480"
     id="namedview8"
     showgrid="false"
     inkscape:zoom="0.4609375"
     inkscape:cx="256"
     inkscape:cy="256"
     inkscape:window-x="0"
     inkscape:window-y="0"
     inkscape:window-maximized="0"
     inkscape:current-layer="svg2" />
  <metadata
     id="metadata100">
    <rdf:RDF>
      <cc:Work
         rdf:about="">
        <dc:format>image/svg+xml</dc:format>
        <dc:type
           rdf:resource="http://purl.org/dc/dcmitype/StillImage" />
        <dc:title />
      </cc:Work>
    </rdf:RDF>
  </metadata>
  <defs
     id="defs98" />
  <path
     d="m 449.96186,56.03336 c -9.3498,0.15 -28.3994,1.99996 -40.72415,4.22491 -63.04869,11.34976 -112.64764,30.62436 -152.54681,59.24875 -25.24947,18.09963 -42.72409,36.39925 -60.14874,62.89869 -4.42491,6.72485 -8.49982,12.89973 -9.07481,13.69972 -0.54999,0.79998 -7.29985,1.62496 -14.94968,1.87496 -15.59967,0.5 -16.27467,0.82498 -38.5992,18.07462 -25.34946,19.59959 -52.223899,50.89893 -71.073509,82.84826 -11.99975,20.32458 -8.89981,22.82452 20.44958,16.27467 9.4748,-2.12496 19.974579,-4.47492 23.374499,-5.22489 22.77453,-5.0999 35.37426,-7.37485 36.22424,-6.54987 0.52499,0.52498 -0.42498,4.9749 -2.14995,9.84979 -2.32495,6.52487 -2.72495,10.02479 -1.47497,13.34973 0.92498,2.47495 11.19976,14.0747 22.82452,25.77446 l 21.09955,21.32455 8.79983,-1.04998 c 4.8499,-0.57499 11.14975,-1.57497 13.9747,-2.19995 3.94991,-0.89998 4.8749,-0.62499 4.17492,1.27497 -3.12493,8.47482 -17.62464,79.04835 -16.69966,81.4233 0.6,1.57497 2.44996,2.84994 4.07492,2.84994 1.62497,0 12.92473,-6.57487 24.99948,-14.6247 39.32417,-25.92445 62.79868,-47.97399 83.07326,-77.99837 8.44982,-12.52474 8.57482,-12.97471 8.62482,-26.44944 l 0.05,-13.74972 17.19964,-10.94976 c 39.64917,-25.24947 67.84858,-60.37375 91.57308,-114.44761 11.54976,-26.29944 18.62461,-49.22398 26.44944,-85.69821 3.27493,-15.22467 7.42485,-54.09886 5.92488,-55.57383 -0.375,-0.37499 -2.42495,-0.54999 -5.54988,-0.49999 m -103.29783,78.94835 c 13.02473,0 21.34955,4.5249 27.04942,14.67469 9.14982,16.27466 1.34998,35.32426 -17.64962,43.2741 -6.54986,2.72493 -9.09981,2.97493 -17.04965,1.47497 -2.32495,-0.45 -8.44982,-5.0499 -13.62472,-10.22479 -8.9998,-8.99981 -9.39979,-9.77481 -9.39979,-18.74961 0,-11.02477 3.72492,-18.04963 13.34971,-25.39947 5.59989,-4.27491 8.24983,-5.07489 17.32465,-5.04989 M 122.49371,339.72742 c -6.29987,-0.0749 -19.79959,5.87488 -26.924429,13.02473 -8.57482,8.57482 -11.74975,19.52458 -13.02473,44.42406 -1.42497,27.89942 1.27498,32.89932 16.97465,31.39935 3.374929,-0.32499 13.449709,-0.97497 22.324529,-1.42497 22.14953,-1.12498 33.37429,-7.34985 41.39913,-22.92452 4.04991,-7.84983 6.34987,-26.27446 3.52492,-28.02442 -3.44993,-2.12495 -9.99979,2.02496 -15.99967,10.0498 -7.02484,9.4248 -15.07467,13.19972 -31.49934,14.72469 l -11.49974,1.04997 1.27497,-12.14973 c 0.89998,-8.94982 3.29993,-16.59966 9.07481,-28.9744 4.3249,-9.24982 7.79983,-17.77463 7.79983,-18.89961 0,-1.52496 -1.29997,-2.22495 -3.39993,-2.24996"
     id="path550"
     style="fill:#009688;fill-rule:evenodd" />
</svg>
