<?xml version="1.0" encoding="UTF-8" standalone="no"?>
<svg
   xmlns:dc="http://purl.org/dc/elements/1.1/"
   xmlns:cc="http://creativecommons.org/ns#"
   xmlns:rdf="http://www.w3.org/1999/02/22-rdf-syntax-ns#"
   xmlns:svg="http://www.w3.org/2000/svg"
   xmlns="http://www.w3.org/2000/svg"
   xmlns:sodipodi="http://sodipodi.sourceforge.net/DTD/sodipodi-0.dtd"
   xmlns:inkscape="http://www.inkscape.org/namespaces/inkscape"
   height="100%"
   width="100%"
   version="1.1"
   id="svg2"
   viewBox="0 0 512 512"
   inkscape:version="0.91 r"
   sodipodi:docname="fill-color.svg">
  <sodipodi:namedview
     pagecolor="#ffffff"
     bordercolor="#666666"
     borderopacity="1"
     objecttolerance="10"
     gridtolerance="10"
     guidetolerance="10"
     inkscape:pageopacity="0"
     inkscape:pageshadow="2"
     inkscape:window-width="640"
     inkscape:window-height="480"
     id="namedview16"
     showgrid="false"
     inkscape:zoom="0.4609375"
     inkscape:cx="256"
     inkscape:cy="256"
     inkscape:window-x="0"
     inkscape:window-y="0"
     inkscape:window-maximized="0"
     inkscape:current-layer="svg2" />
  <metadata
     id="metadata100">
    <rdf:RDF>
      <cc:Work
         rdf:about="">
        <dc:format>image/svg+xml</dc:format>
        <dc:type
           rdf:resource="http://purl.org/dc/dcmitype/StillImage" />
        <dc:title />
      </cc:Work>
    </rdf:RDF>
  </metadata>
  <defs
     id="defs98" />
  <path
     id="path2997"
     d="m 204.57744,403.03168 c -6.6565,-0.95127 -15.50102,-3.23172 -20.09892,-5.18226 -12.11737,-5.14049 -14.78057,-7.50518 -66.24073,-58.81602 -27.16758,-27.08874 -51.03557,-51.35688 -53.03996,-53.9292 -5.06214,-6.49641 -9.10036,-14.21562 -11.82884,-22.61128 -2.08348,-6.41098 -2.32431,-8.3753 -2.36766,-19.31166 -0.0557,-14.05996 1.38924,-20.62888 6.98656,-31.76138 4.21461,-8.38247 8.05535,-13.21548 21.13345,-26.59342 l 10.67065,-10.91529 -5.00733,-5.45764 c -11.82241,-12.88564 -17.62501,-27.67462 -17.62501,-44.9206 0,-9.62117 1.56134,-17.35415 5.06331,-25.0776 14.89022,-32.83966 56.82406,-53.14673 119.13689,-57.69375 11.51579,-0.84032 26.73058,-0.72479 30.69404,0.23306 0.83784,0.20249 20.10752,18.9425 42.82151,41.64449 l 41.29816,41.27631 10.74899,4.21163 c 29.62016,11.60564 61.27234,31.17676 84.70829,52.37667 33.75022,30.53009 53.05188,65.12937 58.18719,104.30373 2.77774,21.18982 0.42772,66.47839 -4.63674,89.35722 -4.21165,19.02621 -9.68126,27.99555 -15.465,25.3603 -5.03803,-2.29548 -7.78387,-13.49226 -8.89606,-36.27558 -1.02995,-21.09908 -2.50413,-31.77989 -5.76245,-41.75076 -8.65717,-26.49195 -25.53693,-41.47889 -50.50163,-44.83861 l -6.86869,-0.92439 -55.94607,55.79246 c -30.77035,30.68585 -57.87741,57.17129 -60.23793,58.85654 -5.97389,4.26492 -15.53442,8.64569 -23.04469,10.55941 -6.40169,1.63124 -19.22862,2.75252 -23.88133,2.08762 z m 17.38836,-34.33926 c 2.17479,-0.62372 5.76424,-2.16573 7.97655,-3.42665 2.62466,-1.49596 27.07165,-25.29037 70.35375,-68.47572 l 66.33135,-66.18311 -71.57715,-71.58665 -71.57714,-71.58664 -29.31958,29.31059 -29.31958,29.3106 -10.77819,-2.62808 c -8.74383,-2.13204 -22.81457,-6.89132 -24.58879,-8.3169 -0.21047,-0.16912 13.39165,-14.10911 30.22694,-30.97775 l 30.60963,-30.67027 -3.77837,0.45964 c -37.31532,4.53946 -59.77869,12.12919 -74.38559,25.13275 -8.70812,7.75227 -12.17811,14.75074 -12.18572,24.57687 -0.009,11.5414 4.82016,20.1913 15.88737,28.4576 19.93781,14.89191 54.88656,23.88824 105.91223,27.26342 l 12.97791,0.85844 2.9752,-2.80937 c 11.4086,-10.77269 28.1654,-10.47692 39.0171,0.68867 12.43739,12.79712 8.65494,34.55586 -7.49421,43.11103 -3.68295,1.95107 -5.17715,2.22556 -12.17475,2.23646 -9.2367,0.0144 -13.4849,-1.56713 -19.25742,-7.16918 l -3.40036,-3.29993 -13.37501,-0.84902 c -41.03654,-2.60492 -72.1787,-8.48146 -96.52139,-18.21363 l -5.34913,-2.13859 -12.5787,12.48284 c -6.9183,6.86557 -14.02414,14.27678 -15.79075,16.46936 -6.09134,7.56013 -8.90507,19.87369 -6.68876,29.27159 2.66066,11.28204 2.31488,10.88286 55.70079,64.30277 45.61936,45.6484 50.115,49.90904 55.12758,52.24604 9.05704,4.22265 17.48734,4.89373 27.04419,2.15282 z"
     style="fill:#009688" />
</svg>
