<?xml version="1.0" encoding="UTF-8" standalone="no"?>
<svg
   xmlns:dc="http://purl.org/dc/elements/1.1/"
   xmlns:cc="http://creativecommons.org/ns#"
   xmlns:rdf="http://www.w3.org/1999/02/22-rdf-syntax-ns#"
   xmlns:svg="http://www.w3.org/2000/svg"
   xmlns="http://www.w3.org/2000/svg"
   xmlns:sodipodi="http://sodipodi.sourceforge.net/DTD/sodipodi-0.dtd"
   xmlns:inkscape="http://www.inkscape.org/namespaces/inkscape"
   height="100%"
   width="100%"
   version="1.1"
   id="svg2"
   viewBox="0 0 512 512"
   inkscape:version="0.91 r"
   sodipodi:docname="zoom-in.svg">
  <sodipodi:namedview
     pagecolor="#ffffff"
     bordercolor="#666666"
     borderopacity="1"
     objecttolerance="10"
     gridtolerance="10"
     guidetolerance="10"
     inkscape:pageopacity="0"
     inkscape:pageshadow="2"
     inkscape:window-width="706"
     inkscape:window-height="480"
     id="namedview8"
     showgrid="false"
     inkscape:zoom="0.4609375"
     inkscape:cx="327.59322"
     inkscape:cy="256"
     inkscape:window-x="0"
     inkscape:window-y="0"
     inkscape:window-maximized="0"
     inkscape:current-layer="svg2" />
  <metadata
     id="metadata133">
    <rdf:RDF>
      <cc:Work
         rdf:about="">
        <dc:format>image/svg+xml</dc:format>
        <dc:type
           rdf:resource="http://purl.org/dc/dcmitype/StillImage" />
        <dc:title />
      </cc:Work>
    </rdf:RDF>
  </metadata>
  <defs
     id="defs4" />
  <path
     id="path3217"
     d="M 293.72563,27.322025 C 180.37106,27.321994 88.982949,116.0516 88.982949,225.1622 c 1.1e-5,9.42699 0.169203,18.36233 1.493802,27.43704 0.08442,0.13156 -0.118969,0.54329 -0.03044,0.67491 6.44198,47.95447 22.659629,94.5229 -5.091126,128.08847 l -43.045952,41.46367 -1.249924,1.20313 c -11.081133,11.91227 -10.64576,30.13075 1.249924,41.58106 l 3.810725,3.66805 c 11.895684,11.45032 30.792274,11.84006 43.167891,1.17378 l 0.03045,0.0294 1.249924,-1.20312 43.045967,-41.43433 c 36.29224,-26.76727 84.27706,-10.12113 137.4605,-5.63413 7.39519,0.78074 15.04125,0.0294 22.65095,0.0294 3.83835,0 7.18747,0.16165 10.97489,-0.0294 108.04542,-5.71166 193.76776,-92.33233 193.76776,-197.75215 0,-54.56171 -22.78884,-102.93533 -59.93508,-138.681779 C 401.3924,50.020565 350.40556,27.380717 293.72563,27.380717 l 0,-0.05871 z m 0,52.819987 c 41.65495,0 79.49552,15.953626 106.79178,42.226638 27.29492,26.26784 43.83857,62.69814 43.83857,102.79355 0,80.17789 -67.3339,144.99084 -150.63035,144.99084 -83.29647,0 -150.63037,-65.51853 -150.63037,-145.69511 0,-80.1779 67.3339,-144.315918 150.63037,-144.315918 z m -35.30257,43.664508 0,67.2281 -69.81248,-0.0294 -0.42681,67.63892 70.23929,0.0587 0,67.25744 70.81853,0.5282 -0.15243,-67.6976 70.17832,0.0586 -0.39631,-67.78564 -69.93443,-0.0294 -0.15244,-67.16941 -70.36124,-0.0587 z"
     style="fill:#009688"
     inkscape:connector-curvature="0" />
</svg>
