<?xml version="1.0" encoding="UTF-8" standalone="no"?>
<svg
   xmlns:dc="http://purl.org/dc/elements/1.1/"
   xmlns:cc="http://creativecommons.org/ns#"
   xmlns:rdf="http://www.w3.org/1999/02/22-rdf-syntax-ns#"
   xmlns:svg="http://www.w3.org/2000/svg"
   xmlns="http://www.w3.org/2000/svg"
   xmlns:sodipodi="http://sodipodi.sourceforge.net/DTD/sodipodi-0.dtd"
   xmlns:inkscape="http://www.inkscape.org/namespaces/inkscape"
   height="100%"
   width="100%"
   version="1.1"
   id="svg2"
   viewBox="0 0 512 512"
   inkscape:version="0.91 r"
   sodipodi:docname="format-text-superscript.svg">
  <sodipodi:namedview
     pagecolor="#ffffff"
     bordercolor="#666666"
     borderopacity="1"
     objecttolerance="10"
     gridtolerance="10"
     guidetolerance="10"
     inkscape:pageopacity="0"
     inkscape:pageshadow="2"
     inkscape:window-width="640"
     inkscape:window-height="480"
     id="namedview8"
     showgrid="false"
     inkscape:zoom="0.4609375"
     inkscape:cx="256"
     inkscape:cy="256"
     inkscape:window-x="0"
     inkscape:window-y="0"
     inkscape:window-maximized="0"
     inkscape:current-layer="svg2" />
  <metadata
     id="metadata102">
    <rdf:RDF>
      <cc:Work
         rdf:about="">
        <dc:format>image/svg+xml</dc:format>
        <dc:type
           rdf:resource="http://purl.org/dc/dcmitype/StillImage" />
        <dc:title />
      </cc:Work>
    </rdf:RDF>
  </metadata>
  <defs
     id="defs100" />
  <path
     id="path3014"
     d="m 420.87478,48.65584 c -34.20554,0 -55.53125,15.9948 -55.53125,44.3125 0,20.46725 16.5459,33.93518 41.21875,43.1875 14.29903,5.04672 28.0625,13.16708 28.0625,26.625 0,10.65418 -7.03857,17.09375 -19.375,17.09375 -18.50463,0 -33.33529,-19.35314 -40.625,-42.34375 l -10.65625,0 3.34375,41.78125 c 10.65418,9.81306 31.70535,13.46875 47.40625,13.46875 34.20553,0 57.75,-15.43844 57.75,-45.71875 0,-24.1121 -15.14316,-35.59319 -40.9375,-45.40625 -16.26165,-5.88784 -28.3125,-12.62882 -28.3125,-23.84375 0,-8.69157 6.16094,-16.25 17.65625,-16.25 14.29903,0 26.36041,12.91039 31.6875,34.21875 l 10.375,0 0,-37.3125 c -11.49531,-7.00933 -27.4831,-9.8125 -42.0625,-9.8125 z m -234.59375,60.75 c -83.84128,0 -135.15625,33.08357 -135.15625,70.15625 0,25.66569 36.51468,35.9375 51.34375,35.9375 12.54767,0 18.81221,-9.12413 23.375,-22.8125 15.96977,-48.47965 34.21773,-57.03125 50.1875,-57.03125 16.54011,0 33.09375,9.70887 33.09375,42.21875 l 0,30.21875 c -19.96221,13.68838 -67.89608,27.95233 -104.96875,40.5 -45.05756,15.39942 -60.4375,38.77137 -60.4375,71.28125 0,42.77616 28.51977,82.71875 86.125,82.71875 36.50232,0 61.60029,-19.97572 81.5625,-33.09375 7.41453,17.68082 17.09201,33.09375 44.46875,33.09375 29.65814,0 65.58474,-9.71047 84.40625,-17.125 l -1.6875,-18.8125 c -7.41454,0.57035 -18.85102,-0.0233 -27.40625,-2.875 -7.41454,-2.28139 -18.25,-9.09942 -18.25,-42.75 l 0,-131.75 c 0,-35.36163 -5.70452,-79.875 -106.65625,-79.875 z m 22.84375,127.1875 0,82.71875 c -1.1407,30.79884 -19.97558,38.78125 -35.375,38.78125 -22.2436,0 -42.21875,-17.67776 -42.21875,-47.90625 0,-26.80639 9.13953,-39.92907 26.25,-49.625 17.68081,-9.69593 37.65538,-17.69491 51.34375,-23.96875 z"
     style="font-style:normal;font-variant:normal;font-weight:bold;font-stretch:normal;font-size:570.34936523px;line-height:125%;font-family:Serif;-inkscape-font-specification:'Serif Bold';letter-spacing:0px;word-spacing:0px;fill:#009688;fill-opacity:1;stroke:none" />
</svg>
