<?xml version="1.0" encoding="UTF-8" standalone="no"?>
<svg
   xmlns:dc="http://purl.org/dc/elements/1.1/"
   xmlns:cc="http://creativecommons.org/ns#"
   xmlns:rdf="http://www.w3.org/1999/02/22-rdf-syntax-ns#"
   xmlns:svg="http://www.w3.org/2000/svg"
   xmlns="http://www.w3.org/2000/svg"
   xmlns:sodipodi="http://sodipodi.sourceforge.net/DTD/sodipodi-0.dtd"
   xmlns:inkscape="http://www.inkscape.org/namespaces/inkscape"
   height="100%"
   width="100%"
   version="1.1"
   id="svg2"
   viewBox="0 0 512 512"
   inkscape:version="0.91 r"
   sodipodi:docname="get-hot-new-stuff.svg">
  <sodipodi:namedview
     pagecolor="#ffffff"
     bordercolor="#666666"
     borderopacity="1"
     objecttolerance="10"
     gridtolerance="10"
     guidetolerance="10"
     inkscape:pageopacity="0"
     inkscape:pageshadow="2"
     inkscape:window-width="640"
     inkscape:window-height="480"
     id="namedview8"
     showgrid="false"
     inkscape:zoom="0.4609375"
     inkscape:cx="256"
     inkscape:cy="256"
     inkscape:window-x="0"
     inkscape:window-y="0"
     inkscape:window-maximized="0"
     inkscape:current-layer="svg2" />
  <metadata
     id="metadata102">
    <rdf:RDF>
      <cc:Work
         rdf:about="">
        <dc:format>image/svg+xml</dc:format>
        <dc:type
           rdf:resource="http://purl.org/dc/dcmitype/StillImage" />
        <dc:title />
      </cc:Work>
    </rdf:RDF>
  </metadata>
  <defs
     id="defs100" />
  <path
     style="fill:#009688;fill-rule:evenodd"
     id="path87"
     d="m 470.98972,207.68 c 0.885,2.728 -91.56,106.95 -92.43,109.68 -0.885,2.728 12.66,141.38 10.339,143.07 -2.322,1.681 -130.02,-54.02 -132.88,-54.02 -2.872,-0.005 -130.55,55.734 -132.87,54.05 -2.322,-1.686 11.2,-140.34 10.309,-143.07 -0.885,-2.723 -93.35,-106.93 -92.46,-109.66 0.885,-2.728 136.94,-32.713 139.25,-34.402 2.317,-1.686 72.863,-121.83 75.72,-121.83 2.872,0.005 73.42,120.13 75.75,121.8 2.322,1.686 138.37,31.644 139.26,34.37" />
</svg>
