<?xml version="1.0" encoding="UTF-8" standalone="no"?>
<svg
   xmlns:dc="http://purl.org/dc/elements/1.1/"
   xmlns:cc="http://creativecommons.org/ns#"
   xmlns:rdf="http://www.w3.org/1999/02/22-rdf-syntax-ns#"
   xmlns:svg="http://www.w3.org/2000/svg"
   xmlns="http://www.w3.org/2000/svg"
   xmlns:sodipodi="http://sodipodi.sourceforge.net/DTD/sodipodi-0.dtd"
   xmlns:inkscape="http://www.inkscape.org/namespaces/inkscape"
   sodipodi:docname="system-reboot.svg"
   inkscape:version="0.91 r13725"
   id="svg2"
   version="1.1"
   width="512"
   viewBox="0 0 512 512"
   height="512">
  <defs
     id="defs82" />
  <sodipodi:namedview
     inkscape:current-layer="svg2"
     inkscape:window-maximized="1"
     inkscape:window-y="0"
     inkscape:window-x="0"
     inkscape:cy="256"
     inkscape:cx="62.17833"
     inkscape:zoom="1.8331929"
     showgrid="false"
     id="namedview80"
     inkscape:window-height="1022"
     inkscape:window-width="1920"
     inkscape:pageshadow="2"
     inkscape:pageopacity="0"
     guidetolerance="10"
     gridtolerance="10"
     objecttolerance="10"
     borderopacity="1"
     bordercolor="#666666"
     pagecolor="#ffffff" />
  <metadata
     id="metadata158">
    <rdf:RDF>
      <cc:Work
         rdf:about="">
        <dc:format>image/svg+xml</dc:format>
        <dc:type
           rdf:resource="http://purl.org/dc/dcmitype/StillImage" />
        <dc:title></dc:title>
      </cc:Work>
    </rdf:RDF>
  </metadata>
  <text
     style="font-size:208.33000183px;line-height:125%;font-family:'Gentium Book Basic';letter-spacing:0;word-spacing:0"
     sodipodi:linespacing="125%"
     letter-spacing="0"
     word-spacing="0"
     x="-1160.48"
     y="549.52002"
     line-height="125%"
     font-size="208.33"
     id="text8">
    <tspan
       x="-1160.48"
       y="549.52002"
       id="tspan10" />
  </text>
  <text
     style="font-size:75.69999695px;font-family:Arial;text-anchor:middle"
     x="28.533854"
     y="1642.2427"
     transform="scale(4.0128205,0.24920128)"
     font-size="75.7"
     id="text12" />
  <text
     style="font-size:208.33000183px;line-height:125%;font-family:'Gentium Book Basic';letter-spacing:0;word-spacing:0"
     sodipodi:linespacing="125%"
     letter-spacing="0"
     word-spacing="0"
     x="-454.14001"
     y="393.89001"
     line-height="125%"
     font-size="208.33"
     id="text14">
    <tspan
       x="-454.14001"
       y="393.89001"
       id="tspan16" />
  </text>
  <text
     style="font-size:75.69999695px;font-family:Arial;text-anchor:middle"
     x="204.54895"
     y="1017.7161"
     transform="scale(4.0128205,0.24920128)"
     font-size="75.7"
     id="text18" />
  <text
     style="font-size:208.33000183px;line-height:125%;font-family:'Gentium Book Basic';letter-spacing:0;word-spacing:0"
     sodipodi:linespacing="125%"
     letter-spacing="0"
     word-spacing="0"
     x="-420.76999"
     y="385.77002"
     line-height="125%"
     font-size="208.33"
     id="text20">
    <tspan
       x="-420.76999"
       y="385.77002"
       id="tspan22" />
  </text>
  <text
     style="font-size:75.69999695px;font-family:Arial;text-anchor:middle"
     x="212.86891"
     y="985.11615"
     transform="scale(4.0128205,0.24920128)"
     font-size="75.7"
     id="text24" />
  <text
     style="font-size:61.50999832px;line-height:125%;font-family:'Gentium Book Basic';letter-spacing:0;word-spacing:0"
     sodipodi:linespacing="125%"
     letter-spacing="0"
     word-spacing="0"
     x="-163.95"
     y="117.31999"
     line-height="125%"
     font-size="61.51"
     id="text26">
    <tspan
       x="-163.95"
       y="117.31999"
       id="tspan28" />
  </text>
  <text
     style="font-size:22.34900093px;font-family:Arial;text-anchor:middle"
     x="52.950729"
     y="304.60962"
     transform="scale(4.0128205,0.24920128)"
     font-size="22.349"
     id="text30" />
  <text
     style="font-size:208.33000183px;line-height:125%;font-family:'Gentium Book Basic';letter-spacing:0;word-spacing:0"
     sodipodi:linespacing="125%"
     letter-spacing="0"
     word-spacing="0"
     x="-474.79001"
     y="484.08997"
     line-height="125%"
     font-size="208.33"
     id="text32">
    <tspan
       x="-474.79001"
       y="484.08997"
       id="tspan34" />
  </text>
  <text
     style="font-size:75.69999695px;font-family:Arial;text-anchor:middle"
     x="199.40898"
     y="1379.6842"
     transform="scale(4.0128205,0.24920128)"
     font-size="75.7"
     id="text36" />
  <text
     style="font-size:208.33000183px;line-height:125%;font-family:'Gentium Book Basic';letter-spacing:0;word-spacing:0"
     sodipodi:linespacing="125%"
     letter-spacing="0"
     word-spacing="0"
     x="231.56"
     y="328.46002"
     line-height="125%"
     font-size="208.33"
     id="text38">
    <tspan
       x="231.56"
       y="328.46002"
       id="tspan40" />
  </text>
  <text
     style="font-size:75.69999695px;font-family:Arial;text-anchor:middle"
     x="375.42807"
     y="755.16736"
     transform="scale(4.0128205,0.24920128)"
     font-size="75.7"
     id="text42" />
  <text
     style="font-size:208.33000183px;line-height:125%;font-family:'Gentium Book Basic';letter-spacing:0;word-spacing:0"
     sodipodi:linespacing="125%"
     letter-spacing="0"
     word-spacing="0"
     x="264.92999"
     y="320.34003"
     line-height="125%"
     font-size="208.33"
     id="text44">
    <tspan
       x="264.92999"
       y="320.34003"
       id="tspan46" />
  </text>
  <text
     style="font-size:75.69999695px;font-family:Arial;text-anchor:middle"
     x="383.74805"
     y="722.56744"
     transform="scale(4.0128205,0.24920128)"
     font-size="75.7"
     id="text48" />
  <text
     style="font-size:208.33000183px;line-height:125%;font-family:'Gentium Book Basic';letter-spacing:0;word-spacing:0"
     sodipodi:linespacing="125%"
     letter-spacing="0"
     word-spacing="0"
     x="-1157.49"
     y="509.78003"
     line-height="125%"
     font-size="208.33"
     id="text52">
    <tspan
       x="-1157.49"
       y="509.78003"
       id="tspan54" />
  </text>
  <text
     style="font-size:75.69999695px;font-family:Arial;text-anchor:middle"
     x="29.27985"
     y="1482.7535"
     transform="scale(4.0128205,0.24920128)"
     font-size="75.7"
     id="text56" />
  <text
     style="font-size:208.33000183px;line-height:125%;font-family:'Gentium Book Basic';letter-spacing:0;word-spacing:0"
     sodipodi:linespacing="125%"
     letter-spacing="0"
     word-spacing="0"
     x="-451.14999"
     y="354.15002"
     line-height="125%"
     font-size="208.33"
     id="text58">
    <tspan
       x="-451.14999"
       y="354.15002"
       id="tspan60" />
  </text>
  <text
     style="font-size:75.69999695px;font-family:Arial;text-anchor:middle"
     x="205.29895"
     y="858.23694"
     transform="scale(4.0128205,0.24920128)"
     font-size="75.7"
     id="text62" />
  <text
     style="font-size:208.33000183px;line-height:125%;font-family:'Gentium Book Basic';letter-spacing:0;word-spacing:0"
     sodipodi:linespacing="125%"
     letter-spacing="0"
     word-spacing="0"
     x="-417.78"
     y="346.02002"
     line-height="125%"
     font-size="208.33"
     id="text64">
    <tspan
       x="-417.78"
       y="346.02002"
       id="tspan66" />
  </text>
  <text
     style="font-size:75.69999695px;font-family:Arial;text-anchor:middle"
     x="213.6189"
     y="825.63696"
     transform="scale(4.0128205,0.24920128)"
     font-size="75.7"
     id="text68" />
  <text
     style="font-size:208.33000183px;line-height:125%;font-family:'Gentium Book Basic';letter-spacing:0;word-spacing:0"
     sodipodi:linespacing="125%"
     letter-spacing="0"
     word-spacing="0"
     line-height="125%"
     x="-1065.35"
     y="389.69449"
     font-size="208.33"
     transform="matrix(0.8660254,0.5,-0.5,0.8660254,0,0)"
     id="text70">
    <tspan
       x="-1065.35"
       y="389.69449"
       id="tspan72" />
  </text>
  <text
     style="font-size:75.69999695px;font-family:Arial;text-anchor:middle"
     x="52.239307"
     y="1000.8642"
     transform="matrix(3.4752341,2.0064197,-0.12460122,0.21581212,0,0)"
     font-size="75.7"
     id="text74" />
  <text
     style="font-size:208.33000183px;line-height:125%;font-family:'Gentium Book Basic';letter-spacing:0;word-spacing:0"
     sodipodi:linespacing="125%"
     letter-spacing="0"
     word-spacing="0"
     line-height="125%"
     x="-359.01001"
     y="234.06454"
     font-size="208.33"
     transform="matrix(0.8660254,0.5,-0.5,0.8660254,0,0)"
     id="text76">
    <tspan
       x="-359.01001"
       y="234.06454"
       id="tspan78" />
  </text>
  <text
     style="font-size:75.69999695px;font-family:Arial;text-anchor:middle"
     x="228.25757"
     y="376.35034"
     transform="matrix(3.4752341,2.0064197,-0.12460122,0.21581212,0,0)"
     font-size="75.7"
     id="text80" />
  <text
     style="font-size:208.33000183px;line-height:125%;font-family:'Gentium Book Basic';letter-spacing:0;word-spacing:0"
     sodipodi:linespacing="125%"
     letter-spacing="0"
     word-spacing="0"
     line-height="125%"
     x="-325.63"
     y="225.94449"
     font-size="208.33"
     transform="matrix(0.8660254,0.5,-0.5,0.8660254,0,0)"
     id="text82">
    <tspan
       x="-325.63"
       y="225.94449"
       id="tspan84" />
  </text>
  <text
     style="font-size:75.69999695px;font-family:Arial;text-anchor:middle"
     x="236.5775"
     y="343.75055"
     transform="matrix(3.4752341,2.0064197,-0.12460122,0.21581212,0,0)"
     font-size="75.7"
     id="text86" />
  <text
     style="font-size:61.50999832px;line-height:125%;font-family:'Gentium Book Basic';letter-spacing:0;word-spacing:0"
     sodipodi:linespacing="125%"
     letter-spacing="0"
     word-spacing="0"
     line-height="125%"
     x="-68.82"
     y="-42.495487"
     font-size="61.51"
     transform="matrix(0.8660254,0.5,-0.5,0.8660254,0,0)"
     id="text88">
    <tspan
       x="-68.82"
       y="-42.495487"
       id="tspan90" />
  </text>
  <text
     style="font-size:22.34900093px;font-family:Arial;text-anchor:middle"
     x="76.659073"
     y="-336.75266"
     transform="matrix(3.4752341,2.0064197,-0.12460122,0.21581212,0,0)"
     font-size="22.349"
     id="text92" />
  <text
     style="font-size:129.22999573px;line-height:125%;font-family:'Gentium Book Basic';letter-spacing:0;word-spacing:0"
     sodipodi:linespacing="125%"
     letter-spacing="0"
     word-spacing="0"
     x="729.64001"
     y="231.35997"
     line-height="125%"
     font-size="129.23"
     id="text106">
    <tspan
       x="729.64001"
       y="231.35997"
       id="tspan108" />
  </text>
  <text
     style="font-size:46.95399857px;font-family:Arial;text-anchor:middle"
     x="378.90805"
     y="579.25812"
     transform="scale(4.0128205,0.24920128)"
     font-size="46.954"
     id="text110" />
  <text
     style="font-size:129.22999573px;line-height:125%;font-family:'Gentium Book Basic';letter-spacing:0;word-spacing:0"
     sodipodi:linespacing="125%"
     letter-spacing="0"
     word-spacing="0"
     x="1310.91"
     y="151.35997"
     line-height="125%"
     font-size="129.23"
     id="text112">
    <tspan
       x="1310.91"
       y="151.35997"
       id="tspan114" />
  </text>
  <text
     style="font-size:46.95399857px;font-family:Arial;text-anchor:middle"
     x="523.75732"
     y="258.21997"
     transform="scale(4.0128205,0.24920128)"
     font-size="46.954"
     id="text116" />
  <text
     style="font-size:129.22999573px;line-height:125%;font-family:'Gentium Book Basic';letter-spacing:0;word-spacing:0"
     sodipodi:linespacing="125%"
     letter-spacing="0"
     word-spacing="0"
     x="239.33"
     y="-29.900009"
     line-height="125%"
     font-size="129.23"
     id="text118">
    <tspan
       x="239.33"
       y="-29.900009"
       id="tspan120" />
  </text>
  <text
     style="font-size:46.95399857px;font-family:Arial;text-anchor:middle"
     x="256.71869"
     y="-469.1264"
     transform="scale(4.0128205,0.24920128)"
     font-size="46.954"
     id="text122" />
  <text
     style="font-size:129.22999573px;line-height:125%;font-family:'Gentium Book Basic';letter-spacing:0;word-spacing:0"
     sodipodi:linespacing="125%"
     letter-spacing="0"
     word-spacing="0"
     x="1337.38"
     y="-246.37001"
     line-height="125%"
     font-size="129.23"
     id="text124">
    <tspan
       x="1337.38"
       y="-246.37001"
       id="tspan126" />
  </text>
  <text
     style="font-size:46.95399857px;font-family:Arial;text-anchor:middle"
     x="530.3573"
     y="-1337.802"
     transform="scale(4.0128205,0.24920128)"
     font-size="46.954"
     id="text128" />
  <text
     style="font-size:129.22999573px;line-height:125%;font-family:'Gentium Book Basic';letter-spacing:0;word-spacing:0"
     sodipodi:linespacing="125%"
     letter-spacing="0"
     word-spacing="0"
     x="1918.65"
     y="-326.37"
     line-height="125%"
     font-size="129.23"
     id="text130">
    <tspan
       x="1918.65"
       y="-326.37"
       id="tspan132" />
  </text>
  <text
     style="font-size:46.95399857px;font-family:Arial;text-anchor:middle"
     x="675.20654"
     y="-1658.8303"
     transform="scale(4.0128205,0.24920128)"
     font-size="46.954"
     id="text134" />
  <text
     style="font-size:129.22999573px;line-height:125%;font-family:'Gentium Book Basic';letter-spacing:0;word-spacing:0"
     sodipodi:linespacing="125%"
     letter-spacing="0"
     word-spacing="0"
     x="1529.53"
     y="-798.77002"
     line-height="125%"
     font-size="129.23"
     id="text136">
    <tspan
       x="1529.53"
       y="-798.77002"
       id="tspan138" />
  </text>
  <text
     style="font-size:46.95399857px;font-family:Arial;text-anchor:middle"
     x="578.237"
     y="-3554.4807"
     transform="scale(4.0128205,0.24920128)"
     font-size="46.954"
     id="text140" />
  <text
     style="font-size:129.22999573px;line-height:125%;font-family:'Gentium Book Basic';letter-spacing:0;word-spacing:0"
     sodipodi:linespacing="125%"
     letter-spacing="0"
     word-spacing="0"
     x="2110.79"
     y="-878.78003"
     line-height="125%"
     font-size="129.23"
     id="text142">
    <tspan
       x="2110.79"
       y="-878.78003"
       id="tspan144" />
  </text>
  <text
     style="font-size:46.95399857px;font-family:Arial;text-anchor:middle"
     x="723.0863"
     y="-3875.519"
     transform="scale(4.0128205,0.24920128)"
     font-size="46.954"
     id="text146" />
  <text
     style="font-size:208.33000183px;line-height:125%;font-family:'Gentium Book Basic';letter-spacing:0;word-spacing:0"
     sodipodi:linespacing="125%"
     letter-spacing="0"
     word-spacing="0"
     x="277.98999"
     y="535.94006"
     line-height="125%"
     font-size="208.33"
     id="text148">
    <tspan
       x="277.98999"
       y="535.94006"
       id="tspan150" />
  </text>
  <path
     style="fill:#009688"
     inkscape:connector-curvature="0"
     d="m 151.38452,400.7142 c 10.93179,7.36115 18.95934,11.7336 32.0445,17.45761 5.95061,2.60121 25.60986,8.69662 32.52854,10.08706 11.47483,2.30489 24.61229,3.69265 35.18339,3.71678 10.24126,0.0228 29.79325,-2.21103 39.70199,-4.53737 6.55532,-1.53927 27.9724,-8.77439 33.11046,-11.18654 19.66328,-9.22894 31.05363,-16.87301 44.27422,-29.72621 l 10.22919,-9.93689 -0.3513,-2.742 c -0.33252,-2.58914 -1.55402,-3.94338 -22.00704,-24.40311 -19.61501,-19.61501 -21.87565,-21.68123 -23.99684,-21.85956 -3.3132,-0.28828 -6.81008,1.3167 -10.1997,4.68084 -5.30835,5.26946 -19.1846,14.58689 -26.43179,17.74857 -5.41695,2.36254 -19.99312,7.0997 -22.64394,7.35848 -1.70822,0.16626 -5.20913,0.70527 -7.7795,1.19602 -8.98222,1.71626 -29.57871,0.66103 -38.60116,-1.97907 -1.05389,-0.30839 -3.87366,-1.10752 -6.26704,-1.7766 -17.0862,-4.77335 -38.07556,-19.00761 -49.51284,-33.57439 -8.42042,-10.7253 -15.67967,-24.2288 -18.54637,-34.48347 -0.66907,-2.39338 -1.46284,-5.21985 -1.76453,-6.27911 -1.26172,-4.42742 -2.67227,-16.42517 -2.7849,-23.67906 -0.10995,-7.10775 1.40116,-21.23205 2.77417,-25.92496 0.3084,-1.05255 1.10753,-3.87366 1.7766,-6.26704 3.7369,-13.37478 14.41125,-31.22257 25.27466,-42.26029 4.78542,-4.86185 17.69896,-14.60298 22.31946,-16.8368 1.96431,-0.94931 3.92729,-2.07293 4.36172,-2.49797 1.19602,-1.1692 15.50938,-6.49766 22.34359,-8.31851 4.72911,-1.26038 16.28707,-2.84524 16.82474,-2.30757 0.32314,0.32314 0.85679,0.31778 1.1853,-0.0107 1.08339,-1.08339 16.95211,-0.41431 24.32266,1.02708 3.97958,0.77768 7.9538,1.43603 8.83339,1.46419 0.87958,0.0281 1.86643,0.32045 2.19494,0.64762 0.3285,0.3285 1.82621,0.85276 3.33062,1.16652 1.50441,0.31375 4.09489,1.18261 5.75887,1.93079 8.4365,3.79858 16.63434,8.11203 19.29991,10.14473 l 2.98066,2.27807 -19.00359,19.00359 c -14.50242,14.50242 -19.07197,19.44874 -19.29588,20.88611 -0.1609,1.03512 0.70393,3.18715 1.92141,4.78274 1.8423,2.41349 3.16301,3.16034 7.87469,4.45692 48.73918,9.62448 85.97404,17.06475 138.49436,27.49775 6.91735,1.94018 9.79209,1.58754 12.97119,-1.59157 3.77578,-3.77578 3.72483,-5.17694 -0.92249,-25.62326 L 407.99932,94.325088 c -1.31401,-4.365743 -2.21907,-5.927811 -4.42339,-7.625302 -1.52453,-1.174567 -3.61891,-2.0032 -4.65403,-1.842301 -1.42798,0.221237 -6.10748,4.517258 -19.39779,17.807565 l -17.51124,17.51125 -3.52773,-3.52773 c -6.42257,-6.42258 -28.4256,-19.222141 -41.31098,-24.024995 -11.566,-4.312111 -15.43698,-5.55372 -24.36288,-7.813019 -5.43171,-1.374351 -10.18495,-2.468468 -10.56307,-2.429584 -0.37811,0.03888 -3.458,-0.480017 -6.84225,-1.150432 -8.01146,-1.588884 -40.35899,-1.59827 -48.2833,-0.01341 -3.39096,0.67846 -6.5218,1.179931 -6.95489,1.11423 -1.49905,-0.2266 -16.83546,3.883045 -24.96894,6.690743 -4.49044,1.55 -9.27452,3.18045 -10.63278,3.621583 -5.13941,1.673356 -25.38326,12.744593 -33.48188,18.311723 -7.16808,4.92755 -10.72664,8.09861 -23.73806,21.1221 -16.157,16.18382 -22.3932,24.04645 -28.656222,36.16085 -1.422621,2.75004 -2.999437,5.41695 -3.50493,5.91976 -0.787068,0.78707 -2.786246,4.96912 -5.703892,11.93205 -1.209429,2.88413 -7.953806,22.70696 -8.797188,25.85121 -3.412413,12.7285 -5.630146,31.1609 -5.47461,45.49303 0.107266,9.8122 2.007223,28.45242 3.289057,32.2872 0.442474,1.32339 0.887629,3.25419 0.988192,4.29065 0.312413,3.22738 7.355795,25.17543 10.020024,31.22392 4.708996,10.68776 9.070717,18.53429 16.460029,29.61894 5.52557,8.28499 7.45904,10.47591 22.04594,24.97833 13.18706,13.11063 17.28464,16.76842 23.38408,20.87538"
     id="path152" />
</svg>
