<svg xmlns="http://www.w3.org/2000/svg" width="48" height="48">
<defs>
<defs
     id="defs4">
  </defs>
  <path
     id="path-main"
     d="M 6.5517241,2 C 4.0280033,2 2,4.1398146 2,6.7838542 L 2,41.244792 C 2,43.888831 4.0280033,46 6.5517241,46 L 41.448276,46 C 43.971996,46.000001 46,43.888831 46,41.244792 L 46,6.7838542 C 46,4.1398146 43.971996,2 41.448276,2 L 6.5517241,2 z m 1.5744958,4.2109375 31.7761871,0 c 1.05885,0 1.918022,0.8977238 1.918022,2.0338545 l 0,31.539062 c 0,1.136131 -0.859173,2.062499 -1.918022,2.0625 l -31.7761871,0 c -1.0588503,0 -1.9180221,-0.926369 -1.9180221,-2.0625 l 0,-31.539062 c 0,-1.1361307 0.8591718,-2.0338545 1.9180221,-2.0338545 z m 11.6798961,2.9218755 0,4.411458 18.865322,0 0,-4.411458 -18.865322,0 z m 0,7.533854 0,4.411458 18.865322,0 0,-4.411458 -18.865322,0 z m -9.217957,0.171875 0,20.653646 11.336369,-10.341146 -11.336369,-10.3125 z" />
</defs>

<use id="1" style="fill:#009688" xlink:href="#path-main" />



</svg>
