<?xml version="1.0" encoding="UTF-8" standalone="no"?>
<svg
   xmlns:dc="http://purl.org/dc/elements/1.1/"
   xmlns:cc="http://creativecommons.org/ns#"
   xmlns:rdf="http://www.w3.org/1999/02/22-rdf-syntax-ns#"
   xmlns:svg="http://www.w3.org/2000/svg"
   xmlns="http://www.w3.org/2000/svg"
   xmlns:sodipodi="http://sodipodi.sourceforge.net/DTD/sodipodi-0.dtd"
   xmlns:inkscape="http://www.inkscape.org/namespaces/inkscape"
   height="100%"
   width="100%"
   version="1.1"
   id="svg2"
   viewBox="0 0 512 512"
   inkscape:version="0.91 r"
   sodipodi:docname="insert-table.svg">
  <sodipodi:namedview
     pagecolor="#ffffff"
     bordercolor="#666666"
     borderopacity="1"
     objecttolerance="10"
     gridtolerance="10"
     guidetolerance="10"
     inkscape:pageopacity="0"
     inkscape:pageshadow="2"
     inkscape:window-width="640"
     inkscape:window-height="480"
     id="namedview8"
     showgrid="false"
     inkscape:zoom="0.4609375"
     inkscape:cx="256"
     inkscape:cy="256"
     inkscape:window-x="0"
     inkscape:window-y="0"
     inkscape:window-maximized="0"
     inkscape:current-layer="svg2" />
  <metadata
     id="metadata102">
    <rdf:RDF>
      <cc:Work
         rdf:about="">
        <dc:format>image/svg+xml</dc:format>
        <dc:type
           rdf:resource="http://purl.org/dc/dcmitype/StillImage" />
        <dc:title />
      </cc:Work>
    </rdf:RDF>
  </metadata>
  <defs
     id="defs100" />
  <path
     id="path3063"
     d="m 108.84375,40.99967 0,23.78125 -52.843754,0 0,30.84375 52.843754,0 0,39.21875 -52.843754,0 0,30.84375 52.843754,0 0,39.25 -52.843754,0 0,30.875 52.843754,0 0,23.75 31.40625,0 0,-23.75 100,0 0,23.75 31.46875,0 0,-23.75 100,0 0,23.75 31.4375,0 0,-23.75 52.84375,0 0,-30.875 -52.84375,0 0,-39.25 52.84375,0 0,-30.84375 -52.84375,0 0,-39.21875 52.84375,0 0,-30.84375 -52.84375,0 0,-23.78125 -31.4375,0 0,23.78125 -100,0 0,-23.78125 -31.46875,0 0,23.78125 -100,0 0,-23.78125 -31.40625,0 z m 31.40625,54.625 100,0 0,39.21875 -100,0 0,-39.21875 z m 131.46875,0 100,0 0,39.21875 -100,0 0,-39.21875 z m -131.46875,70.0625 100,0 0,39.25 -100,0 0,-39.25 z m 131.46875,0 100,0 0,39.25 -100,0 0,-39.25 z m -157.375,116.3125 0,58 -58.000004,0 -0.34375,58.375 58.343754,0.0625 0,58.03125 58.84375,0.46875 -0.125,-58.46875 58.28125,0.0625 -0.3125,-58.5 -58.09375,0 -0.125,-58 -58.46875,-0.0312 z"
     style="fill:#009688" />
</svg>
