<?xml version="1.0" encoding="UTF-8" standalone="no"?>
<svg
   xmlns:dc="http://purl.org/dc/elements/1.1/"
   xmlns:cc="http://creativecommons.org/ns#"
   xmlns:rdf="http://www.w3.org/1999/02/22-rdf-syntax-ns#"
   xmlns:svg="http://www.w3.org/2000/svg"
   xmlns="http://www.w3.org/2000/svg"
   xmlns:sodipodi="http://sodipodi.sourceforge.net/DTD/sodipodi-0.dtd"
   xmlns:inkscape="http://www.inkscape.org/namespaces/inkscape"
   width="48"
   height="48"
   viewBox="0 0 48 48"
   id="svg2"
   version="1.1"
   inkscape:version="0.91 r13725"
   sodipodi:docname="go-last-rtl.svg">
  <metadata
     id="metadata16">
    <rdf:RDF>
      <cc:Work
         rdf:about="">
        <dc:format>image/svg+xml</dc:format>
        <dc:type
           rdf:resource="http://purl.org/dc/dcmitype/StillImage" />
        <dc:title />
      </cc:Work>
    </rdf:RDF>
  </metadata>
  <defs
     id="defs14" />
  <sodipodi:namedview
     pagecolor="#ffffff"
     bordercolor="#666666"
     borderopacity="1"
     objecttolerance="10"
     gridtolerance="10"
     guidetolerance="10"
     inkscape:pageopacity="0"
     inkscape:pageshadow="2"
     inkscape:window-width="1920"
     inkscape:window-height="1020"
     id="namedview12"
     showgrid="true"
     inkscape:zoom="8.562548"
     inkscape:cx="6.5297461"
     inkscape:cy="28.002327"
     inkscape:window-x="0"
     inkscape:window-y="0"
     inkscape:window-maximized="1"
     inkscape:current-layer="svg2">
    <inkscape:grid
       type="xygrid"
       id="grid4147" />
  </sodipodi:namedview>
  <path
     inkscape:connector-curvature="0"
     id="path8"
     d="m 12,8 c -6,4 -8,9.921875 -8,16 0,6.066406 2,12 8,16"
     style="fill:#009688;fill-opacity:1;fill-rule:evenodd" />
  <path
     style="fill:#009688;fill-opacity:1"
     d="m 11.999682,23.992506 c 0,0.613281 0.261719,1.195312 0.6875,1.625 l 7.4375,7.6875 c 0.402344,0.425781 0.976562,0.671874 1.5625,0.6875 0.929688,0.03125 1.761719,-0.496094 2.125,-1.375 0.363281,-0.875 0.167969,-1.902344 -0.5,-2.5625 l -3.9375,-4.0625 16.625,0 0,-4 -16.625,0 3.9375,-4.0625 c 0.875,-0.898438 0.875,-2.347657 0,-3.25 -0.875,-0.898438 -2.3125,-0.898438 -3.1875,0 l -7.4375,7.6875 c -0.425781,0.433593 -0.6875,1.015624 -0.6875,1.625 z"
     id="path10"
     inkscape:connector-curvature="0" />
</svg>
