<?xml version="1.0" encoding="UTF-8" standalone="no"?>
<svg
   xmlns:dc="http://purl.org/dc/elements/1.1/"
   xmlns:cc="http://creativecommons.org/ns#"
   xmlns:rdf="http://www.w3.org/1999/02/22-rdf-syntax-ns#"
   xmlns:svg="http://www.w3.org/2000/svg"
   xmlns="http://www.w3.org/2000/svg"
   xmlns:sodipodi="http://sodipodi.sourceforge.net/DTD/sodipodi-0.dtd"
   xmlns:inkscape="http://www.inkscape.org/namespaces/inkscape"
   height="100%"
   width="100%"
   version="1.1"
   id="svg2"
   viewBox="0 0 512 512"
   inkscape:version="0.91 r13725"
   sodipodi:docname="lock-broken.svg">
  <sodipodi:namedview
     pagecolor="#ffffff"
     bordercolor="#666666"
     borderopacity="1"
     objecttolerance="10"
     gridtolerance="10"
     guidetolerance="10"
     inkscape:pageopacity="0"
     inkscape:pageshadow="2"
     inkscape:window-width="711"
     inkscape:window-height="480"
     id="namedview8"
     showgrid="false"
     inkscape:zoom="0.4609375"
     inkscape:cx="256"
     inkscape:cy="256"
     inkscape:window-x="0"
     inkscape:window-y="25"
     inkscape:window-maximized="0"
     inkscape:current-layer="svg2" />
  <metadata
     id="metadata102">
    <rdf:RDF>
      <cc:Work
         rdf:about="">
        <dc:format>image/svg+xml</dc:format>
        <dc:type
           rdf:resource="http://purl.org/dc/dcmitype/StillImage" />
        <dc:title />
      </cc:Work>
    </rdf:RDF>
  </metadata>
  <defs
     id="defs100" />
  <path
     d="m 254.43881,55.99998 c -52.3446,0 -105.4712,35.25208 -105.4712,88.28416 l 0,96.08996 -39.05759,0 0,215.6259 292.17991,0 0,-215.6259 c -69.98999,-1.19737 -144.65772,-0.0903 -205.45691,0 l 0,-85.93527 c 0,-32.51647 32.78001,-49.8711 57.02665,-49.99428 25.93813,-0.13463 53.48039,16.17445 57.80579,42.18418 44.41421,-2.89315 41.40647,-2.57375 50.78344,-5.4712 0,-39.85105 -41.43512,-85.14752 -107.80578,-85.14752 m 0.77771,232.02523 c 16.13004,0 28.90289,12.77856 28.90289,28.90289 0,9.61759 -4.54311,18.11514 -11.72156,23.43598 l 11.72156,64.83815 -57.80579,0 11.71584,-64.83815 c -7.41906,-5.29792 -12.49929,-13.62934 -12.49929,-23.43598 0,-16.13005 13.56201,-28.90289 29.68635,-28.90289"
     id="path10"
     style="fill:#009688;fill-rule:evenodd" />
</svg>
