<?xml version="1.0" encoding="UTF-8" standalone="no"?>
<svg
   xmlns:dc="http://purl.org/dc/elements/1.1/"
   xmlns:cc="http://creativecommons.org/ns#"
   xmlns:rdf="http://www.w3.org/1999/02/22-rdf-syntax-ns#"
   xmlns:svg="http://www.w3.org/2000/svg"
   xmlns="http://www.w3.org/2000/svg"
   xmlns:sodipodi="http://sodipodi.sourceforge.net/DTD/sodipodi-0.dtd"
   xmlns:inkscape="http://www.inkscape.org/namespaces/inkscape"
   height="100%"
   width="100%"
   version="1.1"
   id="svg2"
   viewBox="0 0 512 512"
   inkscape:version="0.91 r"
   sodipodi:docname="lpi-bug.svg">
  <sodipodi:namedview
     pagecolor="#ffffff"
     bordercolor="#666666"
     borderopacity="1"
     objecttolerance="10"
     gridtolerance="10"
     guidetolerance="10"
     inkscape:pageopacity="0"
     inkscape:pageshadow="2"
     inkscape:window-width="640"
     inkscape:window-height="480"
     id="namedview8"
     showgrid="false"
     inkscape:zoom="0.4609375"
     inkscape:cx="256"
     inkscape:cy="256"
     inkscape:window-x="0"
     inkscape:window-y="0"
     inkscape:window-maximized="0"
     inkscape:current-layer="svg2" />
  <metadata
     id="metadata100">
    <rdf:RDF>
      <cc:Work
         rdf:about="">
        <dc:format>image/svg+xml</dc:format>
        <dc:type
           rdf:resource="http://purl.org/dc/dcmitype/StillImage" />
        <dc:title />
      </cc:Work>
    </rdf:RDF>
  </metadata>
  <defs
     id="defs98" />
  <path
     id="path10"
     d="m 180.22406,58.12559 c -23.88544,0.50307 -45.55026,20.5838 -50.51724,50.43103 -0.72556,3.85313 0.7012,7.80356 3.70689,10.31609 3.00571,2.51255 7.14703,3.21612 10.80461,1.81035 3.66464,-1.40011 6.28072,-4.68175 6.83907,-8.56322 3.59237,-21.56137 17.78646,-32.13565 29.62644,-32.38506 5.91785,-0.12754 11.55143,1.94909 16.81034,7.70115 4.98824,5.45305 9.56352,14.6182 11.55172,28.62069 -31.96298,12.88156 -53.79309,38.69316 -53.79309,68.44828 0,42.64094 44.80281,77.18391 100.05747,77.18391 55.2504,0 100.05747,-34.54723 100.05747,-77.18391 0,-29.20528 -21.04088,-54.61592 -52.04023,-67.72988 1.93721,-14.40922 6.56749,-23.79251 11.63793,-29.33909 5.25891,-5.74639 10.8939,-7.79428 16.81035,-7.67241 11.83996,0.25508 26.06279,10.79495 29.65518,32.35632 0.97922,5.89519 6.55301,9.85995 12.44252,8.87931 5.8952,-0.97923 9.85994,-6.54734 8.8793,-12.44253 -4.97124,-29.8444 -26.63747,-49.93221 -50.51723,-50.43103 -0.37129,-0.0113 -0.74941,0 -1.1207,0 -11.58066,0.0779 -23.29175,5.08619 -32.0977,14.71264 -8.14271,8.90089 -13.90068,21.3964 -16.58044,37.32758 -8.63589,-1.87058 -17.71965,-2.87356 -27.12645,-2.87356 -8.7691,0 -17.27051,0.89622 -25.37356,2.52874 -2.70103,-15.7583 -8.41247,-28.15273 -16.49427,-36.98276 -9.08936,-9.93396 -21.28488,-14.96772 -33.21838,-14.71264 z M 107.69532,178.7003 c -3.44216,0.0227 -6.88636,0.7908 -10.0862,2.38507 -12.79228,6.40536 -17.07014,23.61126 -9.5977,38.56321 l 22.75862,45.51724 c -1.73313,4.13514 -3.13257,8.42807 -4.19541,12.87356 l -20.4023,0 c -16.71768,0 -30.17241,11.53467 -30.17241,25.83334 0,14.31 13.45473,25.83333 30.17241,25.83333 l 20.77587,0 c 2.2362,10.54616 5.65773,21.14753 10.08621,31.46553 l -24.05173,22.01149 c -12.32888,11.29156 -14.46356,28.88055 -4.79885,39.42528 9.66471,10.55184 27.35644,9.96548 39.68391,-1.32182 l 16.58046,-15.20117 c 25.63557,30.84631 60.91911,51.60287 98.36208,47.21265 l 0,-175.6322 c -39.35747,-6.19276 -73.23394,-14.52255 -93.50576,-51.55171 -0.0892,0.0439 -0.16936,0.0767 -0.25861,0.11494 l -14.8276,-29.68391 C 128.6108,185.3301 118.036,178.63937 107.69532,178.7003 Z m 296.60922,0 c -10.34067,-0.0609 -20.91549,6.6298 -26.523,17.84483 l -14.8276,29.68391 c -0.0892,-0.0383 -0.16932,-0.0711 -0.25861,-0.11494 -20.27182,37.02916 -54.14828,45.35895 -93.50576,51.55172 l 0,175.6322 c 37.44297,4.39023 72.7265,-16.36633 98.36208,-47.21264 l 16.58046,15.20115 c 12.32748,11.2873 30.01921,11.87366 39.68392,1.32184 9.66471,-10.54474 7.53002,-28.13374 -4.79885,-39.4253 l -24.05172,-22.01148 c 4.42848,-10.31801 7.85,-20.91936 10.0862,-31.46552 l 20.77586,0 c 16.71769,0 30.17242,-11.52334 30.17242,-25.83335 0,-14.29867 -13.45473,-25.83332 -30.17242,-25.83332 l -20.40229,0 c -1.06285,-4.4455 -2.46227,-8.73844 -4.19541,-12.87358 l 22.75861,-45.51724 c 7.47246,-14.95195 3.1946,-32.15785 -9.59769,-38.56321 -3.19984,-1.59426 -6.64403,-2.36239 -10.0862,-2.38507 z"
     style="fill:#009688" />
</svg>
