<?xml version="1.0" encoding="UTF-8" standalone="no"?>
<svg
   xmlns:dc="http://purl.org/dc/elements/1.1/"
   xmlns:cc="http://creativecommons.org/ns#"
   xmlns:rdf="http://www.w3.org/1999/02/22-rdf-syntax-ns#"
   xmlns:svg="http://www.w3.org/2000/svg"
   xmlns="http://www.w3.org/2000/svg"
   xmlns:sodipodi="http://sodipodi.sourceforge.net/DTD/sodipodi-0.dtd"
   xmlns:inkscape="http://www.inkscape.org/namespaces/inkscape"
   height="100%"
   width="100%"
   version="1.1"
   id="svg2"
   viewBox="0 0 512 512"
   inkscape:version="0.91 r"
   sodipodi:docname="mail-replied.svg">
  <sodipodi:namedview
     pagecolor="#ffffff"
     bordercolor="#666666"
     borderopacity="1"
     objecttolerance="10"
     gridtolerance="10"
     guidetolerance="10"
     inkscape:pageopacity="0"
     inkscape:pageshadow="2"
     inkscape:window-width="640"
     inkscape:window-height="480"
     id="namedview8"
     showgrid="false"
     inkscape:zoom="0.4609375"
     inkscape:cx="256"
     inkscape:cy="256"
     inkscape:window-x="0"
     inkscape:window-y="0"
     inkscape:window-maximized="0"
     inkscape:current-layer="svg2" />
  <metadata
     id="metadata102">
    <rdf:RDF>
      <cc:Work
         rdf:about="">
        <dc:format>image/svg+xml</dc:format>
        <dc:type
           rdf:resource="http://purl.org/dc/dcmitype/StillImage" />
        <dc:title />
      </cc:Work>
    </rdf:RDF>
  </metadata>
  <defs
     id="defs100" />
  <path
     id="path10"
     d="m 118.10396,62.28124 0,106.8081 -47.49152,35.63458 0,40.03312 c 17.76076,-10.61431 38.00299,-17.05233 60.08155,-17.05233 3.8255,0 7.38947,0.37134 11.12386,0.73309 l 0,-142.4108 166.15655,0 0,71.2054 71.2054,0 0,81.59616 -58.58349,45.99347 129.7889,124.62538 0,-204.72349 -47.45964,-35.6027 0,-35.6027 -71.20541,-71.20541 -213.6162,-0.0319 z m -0.0319,136.51421 0,21.51462 -14.08808,-11.15574 14.08808,-10.35888 z m 284.85349,0 14.08808,10.35888 -14.08808,11.15574 0,-21.51462 z M 130.59834,245.522 c -55.62139,0 -100.87963,45.26096 -100.87963,100.87963 0,55.62138 45.26096,100.87963 100.87963,100.87963 55.60778,0 100.87964,-45.26096 100.87964,-100.87963 0,-55.60779 -45.26097,-100.87963 -100.87964,-100.87963 z m 129.88452,14.82118 -27.44308,26.71 c 10.29471,17.56221 16.31923,37.6262 16.31923,59.34845 0,39.12536 -19.52188,74.03406 -48.9577,95.68425 l 249.98388,0 -189.90233,-181.7427 z m -150.66603,33.37156 0,31.90537 c 47.14898,0 83.62033,9.92796 104.57694,62.3127 -31.43218,-26.18966 -62.66372,-31.26256 -104.57694,-20.78154 l 0,31.90538 -63.0458,-52.65502 63.0458,-52.68689 z"
     style="fill:#009688" />
</svg>
