<?xml version="1.0" encoding="UTF-8" standalone="no"?>
<svg
   xmlns:dc="http://purl.org/dc/elements/1.1/"
   xmlns:cc="http://creativecommons.org/ns#"
   xmlns:rdf="http://www.w3.org/1999/02/22-rdf-syntax-ns#"
   xmlns:svg="http://www.w3.org/2000/svg"
   xmlns="http://www.w3.org/2000/svg"
   xmlns:sodipodi="http://sodipodi.sourceforge.net/DTD/sodipodi-0.dtd"
   xmlns:inkscape="http://www.inkscape.org/namespaces/inkscape"
   height="100%"
   width="100%"
   version="1.1"
   id="svg2"
   viewBox="0 0 512 512"
   inkscape:version="0.91 r"
   sodipodi:docname="mail-forwarded.svg">
  <sodipodi:namedview
     pagecolor="#ffffff"
     bordercolor="#666666"
     borderopacity="1"
     objecttolerance="10"
     gridtolerance="10"
     guidetolerance="10"
     inkscape:pageopacity="0"
     inkscape:pageshadow="2"
     inkscape:window-width="640"
     inkscape:window-height="480"
     id="namedview8"
     showgrid="false"
     inkscape:zoom="0.4609375"
     inkscape:cx="256"
     inkscape:cy="256"
     inkscape:window-x="0"
     inkscape:window-y="0"
     inkscape:window-maximized="0"
     inkscape:current-layer="svg2" />
  <metadata
     id="metadata102">
    <rdf:RDF>
      <cc:Work
         rdf:about="">
        <dc:format>image/svg+xml</dc:format>
        <dc:type
           rdf:resource="http://purl.org/dc/dcmitype/StillImage" />
        <dc:title />
      </cc:Work>
    </rdf:RDF>
  </metadata>
  <defs
     id="defs100" />
  <path
     id="path10"
     d="m 92.61644,63.5 0,106.80809 -47.49152,35.63457 0,204.72349 129.82077,-124.62538 -58.61537,-45.99347 0,-152.80154 166.15656,0 0,71.20538 71.20541,0 0,71.2054 c 4.21308,-0.46237 8.28778,-0.73309 12.6219,-0.73309 21.47746,0 41.14911,6.23123 58.58349,16.31924 l 0,-39.33191 -47.45964,-35.60269 0,-35.6027 L 306.23265,63.5 92.61644,63.5 Z m -0.0319,136.48231 0,21.51462 -14.08809,-11.12385 14.08809,-10.39077 z m 284.85348,0 14.08809,10.39077 -14.08809,11.12385 0,-21.51462 z m -11.44259,46.75843 c -55.61865,0 -100.87963,45.27185 -100.87963,100.87964 0,55.61867 45.25826,100.87963 100.87963,100.87963 55.61867,0 100.87963,-45.25826 100.87963,-100.87963 0,-55.61867 -45.27184,-100.87964 -100.87963,-100.87964 z m -130.9682,14.82118 -189.90234,181.74271 251.45004,0 c -29.43036,-21.6529 -48.95768,-56.56433 -48.95768,-95.68424 0,-21.48293 6.23122,-41.18099 16.31923,-58.61538 l -28.90925,-27.44309 z m 151.74974,33.37156 63.04577,52.6869 -63.04577,52.65501 0,-31.90537 c -41.90779,-10.48103 -73.17121,-5.40812 -104.60884,20.78153 20.95661,-52.38473 57.45985,-62.3127 104.60884,-62.3127 l 0,-31.90537 z"
     style="fill:#009688" />
</svg>
