<?xml version="1.0" encoding="UTF-8" standalone="no"?>
<svg
   xmlns:dc="http://purl.org/dc/elements/1.1/"
   xmlns:cc="http://creativecommons.org/ns#"
   xmlns:rdf="http://www.w3.org/1999/02/22-rdf-syntax-ns#"
   xmlns:svg="http://www.w3.org/2000/svg"
   xmlns="http://www.w3.org/2000/svg"
   xmlns:sodipodi="http://sodipodi.sourceforge.net/DTD/sodipodi-0.dtd"
   xmlns:inkscape="http://www.inkscape.org/namespaces/inkscape"
   height="100%"
   width="100%"
   version="1.1"
   id="svg2"
   viewBox="0 0 512 512"
   inkscape:version="0.91 r"
   sodipodi:docname="media-repeat-album-amarok.svg">
  <sodipodi:namedview
     pagecolor="#ffffff"
     bordercolor="#666666"
     borderopacity="1"
     objecttolerance="10"
     gridtolerance="10"
     guidetolerance="10"
     inkscape:pageopacity="0"
     inkscape:pageshadow="2"
     inkscape:window-width="640"
     inkscape:window-height="480"
     id="namedview8"
     showgrid="false"
     inkscape:zoom="0.4609375"
     inkscape:cx="256"
     inkscape:cy="256"
     inkscape:window-x="0"
     inkscape:window-y="0"
     inkscape:window-maximized="0"
     inkscape:current-layer="svg2" />
  <metadata
     id="metadata102">
    <rdf:RDF>
      <cc:Work
         rdf:about="">
        <dc:format>image/svg+xml</dc:format>
        <dc:type
           rdf:resource="http://purl.org/dc/dcmitype/StillImage" />
        <dc:title />
      </cc:Work>
    </rdf:RDF>
  </metadata>
  <defs
     id="defs100" />
  <path
     style="fill:#009688"
     id="path8"
     d="m 124.35745,80.48255 c -40.5128,0 -73.35795,32.84515 -73.35795,73.35794 l 0,146.03711 c 0,40.51279 32.84515,73.35795 73.35795,73.35795 l 44.56407,0 c -0.3042,-2.26886 -0.68254,-4.48745 -0.68254,-6.8594 l 0,-52.10601 -14.40134,0 c -24.31019,0 -43.88153,-19.57134 -43.88153,-43.88153 l 0,-87.75801 c 0,-24.3102 19.57134,-43.88154 43.88153,-43.88154 l 204.32374,0 c 24.31019,0 43.88154,19.57134 43.88154,43.88154 l 0,87.75801 c 0,24.31019 -19.57135,43.88153 -43.88154,43.88153 l -14.40133,0 0,-58.27406 -117.23947,87.75802 117.23947,87.76305 0,-58.27406 43.88152,0 c 40.5128,0 73.35795,-32.84515 73.35795,-73.35794 l 0,-146.03711 c 0,-40.51279 -32.84515,-73.35795 -73.35795,-73.35795 m -233.10882,82.96135 c -9.49656,1.9056 -16.366,10.19796 -16.454,19.88559 l 0,80.89988 c 0,11.36318 9.2062,20.56813 20.56813,20.56813 11.36319,0 20.56814,-9.21123 20.56814,-20.56813 l 0,-60.33553 82.27,0 c 7.98817,1.26956 15.9776,-2.28773 20.38712,-9.07421 4.40952,-6.78146 4.40952,-15.52635 0,-22.31157 -4.40952,-6.78524 -12.39769,-10.33624 -20.38712,-9.06919 l -102.84694,0 c -1.37012,-0.13701 -2.75029,-0.13701 -4.11412,0" />
</svg>
