<?xml version="1.0" encoding="UTF-8" standalone="no"?>
<svg
   xmlns:dc="http://purl.org/dc/elements/1.1/"
   xmlns:cc="http://creativecommons.org/ns#"
   xmlns:rdf="http://www.w3.org/1999/02/22-rdf-syntax-ns#"
   xmlns:svg="http://www.w3.org/2000/svg"
   xmlns="http://www.w3.org/2000/svg"
   xmlns:sodipodi="http://sodipodi.sourceforge.net/DTD/sodipodi-0.dtd"
   xmlns:inkscape="http://www.inkscape.org/namespaces/inkscape"
   height="100%"
   width="100%"
   version="1.1"
   id="svg2"
   viewBox="0 0 512 512"
   inkscape:version="0.91 r"
   sodipodi:docname="audio-cd-new.svg">
  <sodipodi:namedview
     pagecolor="#ffffff"
     bordercolor="#666666"
     borderopacity="1"
     objecttolerance="10"
     gridtolerance="10"
     guidetolerance="10"
     inkscape:pageopacity="0"
     inkscape:pageshadow="2"
     inkscape:window-width="647"
     inkscape:window-height="480"
     id="namedview8"
     showgrid="false"
     inkscape:zoom="0.4609375"
     inkscape:cx="256"
     inkscape:cy="256"
     inkscape:window-x="0"
     inkscape:window-y="0"
     inkscape:window-maximized="0"
     inkscape:current-layer="svg2" />
  <metadata
     id="metadata102">
    <rdf:RDF>
      <cc:Work
         rdf:about="">
        <dc:format>image/svg+xml</dc:format>
        <dc:type
           rdf:resource="http://purl.org/dc/dcmitype/StillImage" />
        <dc:title />
      </cc:Work>
    </rdf:RDF>
  </metadata>
  <defs
     id="defs100" />
  <path
     style="fill:#009688"
     id="path8"
     d="m 256.71141,98.249147 c -0.93034,0.01 -1.85823,0.0275 -2.78791,0.0593 -59.48798,2.036093 -117.83665,49.900273 -139.42493,134.590583 -0.0595,0.21765 0.0544,0.48909 0,0.71181 -6.04497,4.15695 -10.35084,10.70651 -10.35084,18.62558 l 0,138.74278 c 0,12.79352 9.98552,22.77777 22.77778,22.77777 12.79351,0 23.45993,-9.98552 23.45993,-22.77777 l 0,-138.74278 c 0,-7.2813 -3.75145,-13.71689 -8.98655,-17.94343 21.07704,-55.56512 68.7533,-94.62981 120.1172,-93.18722 48.26357,1.28568 86.24077,43.87483 102.85591,87.64106 l 3.44038,7.5926 c -3.79124,4.11265 -5.51649,9.83684 -5.51649,15.89699 l 0,138.74278 c 0,12.79352 9.98552,22.77777 22.77779,22.77777 12.79351,0 23.45992,-9.98552 23.45992,-22.77777 l 0,-138.74278 c 0,-6.6043 -3.17876,-12.3817 -7.59259,-16.57914 -0.0595,-0.21765 0.0595,-0.46449 0,-0.68216 C 374.89924,141.32642 315.32166,97.647987 256.71141,98.249147 Z M 99.31338,229.45864 c -26.83982,0.69219 -48.31381,41.72906 -48.31381,92.47541 0,50.75648 21.47779,91.12187 48.31381,91.82292 l 0,-184.29833 z m 313.37242,0 0,184.29833 c 26.83981,-0.69725 48.3138,-41.06769 48.3138,-91.82292 0,-50.74383 -21.47777,-91.77942 -48.3138,-92.47541 z" />
</svg>
