<?xml version="1.0" encoding="UTF-8" standalone="no"?>
<svg
   xmlns:dc="http://purl.org/dc/elements/1.1/"
   xmlns:cc="http://creativecommons.org/ns#"
   xmlns:rdf="http://www.w3.org/1999/02/22-rdf-syntax-ns#"
   xmlns:svg="http://www.w3.org/2000/svg"
   xmlns="http://www.w3.org/2000/svg"
   xmlns:sodipodi="http://sodipodi.sourceforge.net/DTD/sodipodi-0.dtd"
   xmlns:inkscape="http://www.inkscape.org/namespaces/inkscape"
   height="100%"
   width="100%"
   version="1.1"
   id="svg2"
   viewBox="0 0 512 512"
   inkscape:version="0.91 r"
   sodipodi:docname="media-repeat-playlist-amarok.svg">
  <sodipodi:namedview
     pagecolor="#ffffff"
     bordercolor="#666666"
     borderopacity="1"
     objecttolerance="10"
     gridtolerance="10"
     guidetolerance="10"
     inkscape:pageopacity="0"
     inkscape:pageshadow="2"
     inkscape:window-width="640"
     inkscape:window-height="480"
     id="namedview8"
     showgrid="false"
     inkscape:zoom="0.4609375"
     inkscape:cx="256"
     inkscape:cy="256"
     inkscape:window-x="0"
     inkscape:window-y="0"
     inkscape:window-maximized="0"
     inkscape:current-layer="svg2" />
  <metadata
     id="metadata102">
    <rdf:RDF>
      <cc:Work
         rdf:about="">
        <dc:format>image/svg+xml</dc:format>
        <dc:type
           rdf:resource="http://purl.org/dc/dcmitype/StillImage" />
        <dc:title />
      </cc:Work>
    </rdf:RDF>
  </metadata>
  <defs
     id="defs100" />
  <path
     id="path10"
     d="m 127.58003,84.764363 c -39.524681,0 -71.58047,32.055777 -71.58047,71.580457 l 0,142.47127 c 0,39.52468 32.055789,71.55173 71.58047,71.55173 l 43.47701,0 c -0.29676,-2.21353 -0.68966,-4.38132 -0.68966,-6.6954 l 0,-50.83335 -14.05172,0 c -23.71726,0 -42.78736,-19.07008 -42.78736,-42.78735 l 0,-85.63217 c 0,-23.71727 19.0701,-42.81611 42.78736,-42.81611 l 199.36782,0 c 23.71727,0 42.78735,19.09884 42.78735,42.81611 l 0,85.63217 c 0,23.71727 -19.07008,42.78735 -42.78735,42.78735 l -14.05172,0 0,-56.83907 -114.39656,85.60345 114.39656,85.63219 0,-56.83908 42.78737,0 c 39.52468,0 71.58045,-32.05579 71.58045,-71.58047 l 0,-142.47127 c 0,-39.52467 -32.05577,-71.580457 -71.58045,-71.580457 l -256.8391,0 z m 33.04598,80.373567 c -10.41243,0.52783 -18.7069,9.14034 -18.7069,19.68391 0,10.88369 8.82895,19.71264 19.71264,19.71264 l 103.50574,0 c 10.8837,0 19.71266,-8.82895 19.71266,-19.71264 0,-10.88368 -8.82896,-19.68391 -19.71266,-19.68391 l -103.50574,0 c -0.34012,0 -0.66986,-0.0171 -1.00574,0 z m 1.00574,66.75287 c -10.88369,0 -19.71264,8.82895 -19.71264,19.71264 0,10.8886 8.82895,19.71266 19.71264,19.71266 l 103.50574,0 c 10.8837,0 19.71266,-8.82896 19.71266,-19.71266 0,-10.88369 -8.82896,-19.71264 -19.71266,-19.71264 l -103.50574,0 z"
     style="fill:#009688" />
</svg>
