<?xml version="1.0" encoding="UTF-8" standalone="no"?>
<svg
   xmlns:dc="http://purl.org/dc/elements/1.1/"
   xmlns:cc="http://creativecommons.org/ns#"
   xmlns:rdf="http://www.w3.org/1999/02/22-rdf-syntax-ns#"
   xmlns:svg="http://www.w3.org/2000/svg"
   xmlns="http://www.w3.org/2000/svg"
   xmlns:sodipodi="http://sodipodi.sourceforge.net/DTD/sodipodi-0.dtd"
   xmlns:inkscape="http://www.inkscape.org/namespaces/inkscape"
   height="100%"
   width="100%"
   version="1.1"
   id="svg2"
   viewBox="0 0 512 512"
   inkscape:version="0.91 r"
   sodipodi:docname="merge.svg">
  <sodipodi:namedview
     pagecolor="#ffffff"
     bordercolor="#666666"
     borderopacity="1"
     objecttolerance="10"
     gridtolerance="10"
     guidetolerance="10"
     inkscape:pageopacity="0"
     inkscape:pageshadow="2"
     inkscape:window-width="640"
     inkscape:window-height="480"
     id="namedview8"
     showgrid="false"
     inkscape:zoom="0.4609375"
     inkscape:cx="256"
     inkscape:cy="256"
     inkscape:window-x="0"
     inkscape:window-y="0"
     inkscape:window-maximized="0"
     inkscape:current-layer="svg2" />
  <metadata
     id="metadata100">
    <rdf:RDF>
      <cc:Work
         rdf:about="">
        <dc:format>image/svg+xml</dc:format>
        <dc:type
           rdf:resource="http://purl.org/dc/dcmitype/StillImage" />
        <dc:title />
      </cc:Work>
    </rdf:RDF>
  </metadata>
  <defs
     id="defs98" />
  <path
     style="fill:#009688;stroke:none"
     id="path94"
     d="m 256.77561,56 c -5.33236,0 -11.02829,1.26038 -15.14876,5.30813 -1.62394,1.57546 -2.2299,2.88432 -3.78113,5.30812 -1.55123,2.39956 -3.92656,5.50203 -6.05951,9.08926 -4.26589,7.17445 -9.11349,16.50609 -13.64599,24.98939 -0.79986,1.47852 -9.40436,16.11829 -18.17852,31.82452 -12.40987,22.17779 -18.63904,33.4727 -21.95964,40.13816 -1.67243,3.3206 -2.49651,5.5505 -3.02975,7.58649 -0.53324,2.036 -0.16967,4.07199 0,5.30813 0.94527,7.07751 5.9383,12.70072 12.87038,14.39738 2.44804,0.58172 5.86561,0.53324 9.84063,-0.75137 3.85385,-1.23614 9.50131,-3.73266 18.9299,-7.58651 -0.14543,2.27838 0.0727,4.82338 0,8.33788 l 0,18.92989 c -0.60595,36.89027 -2.49652,50.22118 -7.5865,74.99243 -8.4833,41.22887 -25.98316,78.77356 -52.25716,110.59808 l -3.02976,3.02975 -2.27837,3.78112 3.02975,3.02977 34.07866,34.85426 3.78112,3.78113 3.78113,-3.78113 c 1.04224,-1.30886 1.28461,-1.79361 2.27838,-3.02975 26.32248,-33.15761 45.39781,-71.98692 56.81391,-112.10084 4.70217,16.48186 11.80391,36.84179 18.17851,50.00304 10.83439,22.37169 23.24426,42.00448 38.6354,61.34642 2.20566,2.76314 2.30261,2.81161 3.78113,5.30812 l 3.02976,5.30813 4.55674,-3.78112 35.60565,-35.60565 1.527,-1.52701 0,-2.27836 0,-5.30813 -3.02976,0 c -0.097,-0.097 -0.63019,0.12119 -0.75137,0 -0.12119,-0.12119 0.14543,-0.60595 0,-0.75138 -1.13919,-1.16343 -2.76314,-2.47227 -4.55675,-4.55675 -3.56299,-4.12046 -8.07126,-9.6952 -11.36763,-14.39738 -18.97837,-27.02538 -32.69709,-59.81943 -39.38678,-92.41956 -5.38084,-26.22553 -6.20493,-39.50797 -6.81089,-76.49519 -0.14542,-8.96806 -0.60594,-15.14875 -0.75137,-19.70551 0,-4.19317 -0.0243,-7.24716 0,-9.84062 0.65442,0.43628 0.92104,1.11494 1.52699,1.52699 0.58172,0.3878 0.77562,0.96952 2.27838,1.52699 4.31436,1.7209 8.74992,3.1267 12.119,4.55675 3.36909,1.43004 5.11423,2.47228 6.81089,3.02975 6.03527,1.93904 11.90087,-0.7029 15.90014,-4.55675 4.02351,-3.85384 6.3746,-9.86487 4.55674,-15.90013 -0.43628,-1.45428 -0.21814,-1.18766 -0.75137,-2.27838 -0.53324,-1.09071 -1.35733,-2.83585 -2.27838,-4.55675 -1.81785,-3.4418 -4.60522,-8.16821 -7.58649,-13.646 -5.96255,-10.9071 -13.33091,-24.52887 -21.20827,-38.6354 -7.87736,-14.10653 -15.8759,-28.69781 -21.95964,-39.38677 -3.054,-5.33237 -5.64746,-9.6225 -7.58651,-12.87039 -0.96952,-1.62396 -1.64818,-2.78738 -2.27837,-3.78113 -0.31509,-0.48476 -0.50899,-1.16343 -0.75138,-1.527 -0.24238,-0.36357 -0.67867,-0.7029 -1.52699,-1.52699 C 267.02829,57.26038 262.08374,56 256.75138,56" />
</svg>
