<?xml version="1.0" encoding="UTF-8" standalone="no"?>
<svg
   xmlns:dc="http://purl.org/dc/elements/1.1/"
   xmlns:cc="http://creativecommons.org/ns#"
   xmlns:rdf="http://www.w3.org/1999/02/22-rdf-syntax-ns#"
   xmlns:svg="http://www.w3.org/2000/svg"
   xmlns="http://www.w3.org/2000/svg"
   xmlns:sodipodi="http://sodipodi.sourceforge.net/DTD/sodipodi-0.dtd"
   xmlns:inkscape="http://www.inkscape.org/namespaces/inkscape"
   height="100%"
   width="100%"
   version="1.1"
   id="svg2"
   viewBox="0 0 512 512"
   inkscape:version="0.91 r"
   sodipodi:docname="mixer-microphone-front-boost.svg">
  <sodipodi:namedview
     pagecolor="#ffffff"
     bordercolor="#666666"
     borderopacity="1"
     objecttolerance="10"
     gridtolerance="10"
     guidetolerance="10"
     inkscape:pageopacity="0"
     inkscape:pageshadow="2"
     inkscape:window-width="640"
     inkscape:window-height="480"
     id="namedview8"
     showgrid="false"
     inkscape:zoom="0.4609375"
     inkscape:cx="256"
     inkscape:cy="256"
     inkscape:window-x="0"
     inkscape:window-y="0"
     inkscape:window-maximized="0"
     inkscape:current-layer="svg2" />
  <metadata
     id="metadata100">
    <rdf:RDF>
      <cc:Work
         rdf:about="">
        <dc:format>image/svg+xml</dc:format>
        <dc:type
           rdf:resource="http://purl.org/dc/dcmitype/StillImage" />
        <dc:title />
      </cc:Work>
    </rdf:RDF>
  </metadata>
  <defs
     id="defs98" />
  <path
     id="path176"
     d="m 145.35059,67.58846 c -25.95209,0 -47.13118,21.17908 -47.13118,46.89568 l 0,0.20607 23.55087,0 0,-23.55088 23.58031,0 0,23.55088 23.52144,0 0,-23.55088 23.55087,0 0,23.55088 23.31537,0 0,-0.20607 c 0,-25.905 -20.93772,-46.89568 -47.10175,-46.89568 l -23.28593,0 z m 70.38768,47.10175 0,23.55087 0.2355,0 0,-23.55087 -0.2355,0 z m 0,23.55087 -23.31537,0 0,23.55087 23.31537,0 0,-23.55087 z m 0,23.55087 0,23.55087 0.2355,0 0,-23.55087 -0.2355,0 z m 0,23.55087 -23.31537,0 0,23.55088 -23.55087,0 0,-23.55088 -23.52144,0 0,23.55088 -23.58031,0 0,-23.55088 -23.55087,0 0,94.46844 c 0,25.90498 20.96715,46.92512 47.13118,46.92512 l 23.28593,0 c 25.95208,0 47.10175,-21.20854 47.10175,-46.92512 l 0,-94.46844 z m -93.96799,0 23.58031,0 0,-23.55087 -23.58031,0 0,23.55087 z m 0,-23.55087 0,-23.55087 -23.55087,0 0,23.55087 23.55087,0 z m 0,-23.55087 23.58031,0 0,-23.55087 -23.58031,0 0,23.55087 z m 23.58031,0 0,23.55087 23.52144,0 0,-23.55087 -23.52144,0 z m 23.52144,0 23.55087,0 0,-23.55087 -23.55087,0 0,23.55087 z m 0,23.55087 0,23.55087 23.55087,0 0,-23.55087 -23.55087,0 z m -117.87212,47.10175 0,70.65262 c 0,47.09997 47.10351,94.20349 94.20349,94.20349 l 0,47.10174 -70.65262,0 0,23.55088 164.88555,0 0,-23.55088 -70.65262,0 0,-47.10174 c 47.09999,0 94.17406,-47.10352 94.17406,-94.20349 l 0,-70.65262 -23.52144,0 0,70.65262 c 0,35.32498 -35.32763,70.65262 -70.65262,70.65262 l -23.58031,0 c -35.32498,0 -70.65262,-35.32764 -70.65262,-70.65262 l 0,-70.65262 -23.55087,0 z m 311.19535,97.4123 c -3.63562,0 -7.28476,1.36797 -10.068,4.1214 l -26.28866,26.3181 -57.78796,58.34729 c -2.76337,2.76336 -3.97421,6.11639 -3.97421,9.71473 l -0.11775,0 c 0,3.59834 1.26017,6.95138 4.00365,9.71474 l 25.75876,25.75876 c 5.50686,5.50685 14.51064,5.50685 20.07712,0 l 48.63256,-48.63255 48.60311,48.63255 c 5.50685,5.50685 14.51063,5.50685 20.07712,0 l 25.75877,-25.75876 c 5.50685,-5.50684 5.50685,-13.92262 0,-19.42947 L 397.96315,336.18617 372.20438,310.4274 c -2.75342,-2.75342 -6.37351,-4.1214 -10.00912,-4.1214 z"
     style="fill:#009688" />
</svg>
