<?xml version="1.0" encoding="UTF-8" standalone="no"?>
<svg
   xmlns:dc="http://purl.org/dc/elements/1.1/"
   xmlns:cc="http://creativecommons.org/ns#"
   xmlns:rdf="http://www.w3.org/1999/02/22-rdf-syntax-ns#"
   xmlns:svg="http://www.w3.org/2000/svg"
   xmlns="http://www.w3.org/2000/svg"
   xmlns:sodipodi="http://sodipodi.sourceforge.net/DTD/sodipodi-0.dtd"
   xmlns:inkscape="http://www.inkscape.org/namespaces/inkscape"
   height="100%"
   width="100%"
   version="1.1"
   id="svg2"
   viewBox="0 0 512 512"
   inkscape:version="0.91 r"
   sodipodi:docname="mixer-microphone-front.svg">
  <sodipodi:namedview
     pagecolor="#ffffff"
     bordercolor="#666666"
     borderopacity="1"
     objecttolerance="10"
     gridtolerance="10"
     guidetolerance="10"
     inkscape:pageopacity="0"
     inkscape:pageshadow="2"
     inkscape:window-width="640"
     inkscape:window-height="480"
     id="namedview8"
     showgrid="false"
     inkscape:zoom="0.4609375"
     inkscape:cx="256"
     inkscape:cy="256"
     inkscape:window-x="0"
     inkscape:window-y="0"
     inkscape:window-maximized="0"
     inkscape:current-layer="svg2" />
  <metadata
     id="metadata100">
    <rdf:RDF>
      <cc:Work
         rdf:about="">
        <dc:format>image/svg+xml</dc:format>
        <dc:type
           rdf:resource="http://purl.org/dc/dcmitype/StillImage" />
        <dc:title />
      </cc:Work>
    </rdf:RDF>
  </metadata>
  <defs
     id="defs98" />
  <path
     d="m 243.5,55.99963 c -27.55,0 -50,22.7 -50,50 l 25,0 0,-25 25,0 0,25 25.00001,0 0,-25 25,0 0,25 24.99999,0 c 0,-27.5 -22.225,-50 -49.99999,-50 l -25.00001,0 m 50.00001,50 -25,0 0,25 25,0 0,-25 m 0,25 0,25 24.99999,0 0,-25 -24.99999,0 m 0,25 -25,0 0,25 25,0 0,-25 m 0,25 0,25 -25,0 0,-25 -25.00001,0 0,25 -25,0 0,-25 -25,0 0,100 c 0,27.5 22.22501,50 50,50 l 25.00001,0 c 27.55,0 49.99999,-22.7 49.99999,-50 l 0,-100 -24.99999,0 m -75.00001,0 25,0 0,-25 -25,0 0,25 m 0,-25 0,-25 -25,0 0,25 25,0 m 0,-25 25,0 0,-25 -25,0 0,25 m 25,0 0,25 25,0 0,-25 -25,0 m -99.99999,75 0,75 c 0,50 49.99999,100 99.99999,100 l 0,50 -74.99999,0 0,25 175,0 0,-25 -75,0 0,-50 c 49.99999,0 99.99999,-50 99.99999,-100 l 0,-75 -24.99999,0 0,75 c 0,37.5 -37.50001,75 -75,75 l -25.00001,0 c -9.37499,0 -18.55,-2.15 -27.34999,-6.25 -4.40001,-2.05 -8.47501,-4.95 -12.50001,-7.825 -20.15,-14.275 -35.14999,-37.5 -35.14999,-60.95 l 0,-75 -25,0"
     id="path92"
     style="fill:#009688;stroke:none" />
</svg>
