<?xml version="1.0" encoding="UTF-8" standalone="no"?>
<svg
   xmlns:dc="http://purl.org/dc/elements/1.1/"
   xmlns:cc="http://creativecommons.org/ns#"
   xmlns:rdf="http://www.w3.org/1999/02/22-rdf-syntax-ns#"
   xmlns:svg="http://www.w3.org/2000/svg"
   xmlns="http://www.w3.org/2000/svg"
   xmlns:sodipodi="http://sodipodi.sourceforge.net/DTD/sodipodi-0.dtd"
   xmlns:inkscape="http://www.inkscape.org/namespaces/inkscape"
   height="100%"
   width="100%"
   version="1.1"
   id="svg2"
   viewBox="0 0 512 512"
   inkscape:version="0.91 r"
   sodipodi:docname="mixer-microphone.svg">
  <sodipodi:namedview
     pagecolor="#ffffff"
     bordercolor="#666666"
     borderopacity="1"
     objecttolerance="10"
     gridtolerance="10"
     guidetolerance="10"
     inkscape:pageopacity="0"
     inkscape:pageshadow="2"
     inkscape:window-width="640"
     inkscape:window-height="480"
     id="namedview8"
     showgrid="false"
     inkscape:zoom="0.4609375"
     inkscape:cx="256"
     inkscape:cy="256"
     inkscape:window-x="0"
     inkscape:window-y="0"
     inkscape:window-maximized="0"
     inkscape:current-layer="svg2" />
  <metadata
     id="metadata100">
    <rdf:RDF>
      <cc:Work
         rdf:about="">
        <dc:format>image/svg+xml</dc:format>
        <dc:type
           rdf:resource="http://purl.org/dc/dcmitype/StillImage" />
        <dc:title />
      </cc:Work>
    </rdf:RDF>
  </metadata>
  <defs
     id="defs98" />
  <path
     style="fill:#009688;stroke:none"
     id="path94"
     d="m 368.5,206 0,75 c 0,50 -50,100 -100,100 l 0,50 75,0 0,25 -175,0 0,-25 75,0 0,-50 c -50,0 -100,-50 -100,-100 l 0,-75 25,0 0,75 c 0,37.50001 37.50001,75 75,75 l 25,0 c 37.50001,0 75,-37.49999 75,-75 l 0,-75 z M 243.625,56.00001 l 24.75,0 c 27.77499,0 50,22.29999 50,49.79999 l 0,175.5 c 0,27.3 -22.45,49.8 -50,49.8 l -24.75,0 c -27.77499,0 -50,-22.3 -50,-49.8 l 0,-175.5 c 0,-27.3 22.45,-49.79999 50,-49.79999 m -25,24.99999 0,25 25,0 0,-25 -25,0 m 50,0 0,25 25,0 0,-25 -25,0 m -75,25 0,25 25,0 0,-25 -25,0 m 50,0 0,25 25,0 0,-25 -25,0 m 50,0 0,25 25,0 0,-25 -25,0 m -75,25 0,25 25,0 0,-25 -25,0 m 50,0 0,25 25,0 0,-25 -25,0 m -75,25 0,25 25,0 0,-25 -25,0 m 50,0 0,25 25,0 0,-25 -25,0 m 50,0 0,25 25,0 0,-25 -25,0 m -75,25 0,25 25,0 0,-25 -25,0 m 50,0 0,25 25,0 0,-25 -25,0" />
</svg>
