<?xml version="1.0" encoding="UTF-8" standalone="no"?>
<svg
   xmlns:dc="http://purl.org/dc/elements/1.1/"
   xmlns:cc="http://creativecommons.org/ns#"
   xmlns:rdf="http://www.w3.org/1999/02/22-rdf-syntax-ns#"
   xmlns:svg="http://www.w3.org/2000/svg"
   xmlns="http://www.w3.org/2000/svg"
   xmlns:sodipodi="http://sodipodi.sourceforge.net/DTD/sodipodi-0.dtd"
   xmlns:inkscape="http://www.inkscape.org/namespaces/inkscape"
   height="100%"
   width="100%"
   version="1.1"
   id="svg2"
   viewBox="0 0 512 512"
   inkscape:version="0.91 r"
   sodipodi:docname="network-connect.svg">
  <sodipodi:namedview
     pagecolor="#ffffff"
     bordercolor="#666666"
     borderopacity="1"
     objecttolerance="10"
     gridtolerance="10"
     guidetolerance="10"
     inkscape:pageopacity="0"
     inkscape:pageshadow="2"
     inkscape:window-width="640"
     inkscape:window-height="480"
     id="namedview8"
     showgrid="false"
     inkscape:zoom="0.4609375"
     inkscape:cx="256"
     inkscape:cy="256"
     inkscape:window-x="0"
     inkscape:window-y="0"
     inkscape:window-maximized="0"
     inkscape:current-layer="svg2" />
  <metadata
     id="metadata100">
    <rdf:RDF>
      <cc:Work
         rdf:about="">
        <dc:format>image/svg+xml</dc:format>
        <dc:type
           rdf:resource="http://purl.org/dc/dcmitype/StillImage" />
        <dc:title />
      </cc:Work>
    </rdf:RDF>
  </metadata>
  <defs
     id="defs98" />
  <path
     d="m 69.50747,455.57727 c -0.84996,-0.175 -2.34989,-0.49999 -3.29986,-0.69997 -2.04991,-0.42499 -6.92472,-4.54981 -8.19967,-6.89972 -1.57493,-2.92489 -2.09991,-7.77468 -1.24994,-11.42453 0.77496,-3.24987 3.79984,-6.49974 38.74841,-41.5733 l 37.92344,-38.04845 -1.62493,-2.29991 c -0.89996,-1.24994 -3.04987,-5.12479 -4.7748,-8.57465 -12.42449,-24.89897 -12.52449,-53.42281 -0.24999,-78.0218 5.14979,-10.34958 9.8746,-16.29934 25.34896,-32.0737 l 15.37438,-15.64936 -8.17467,-8.34966 c -8.87464,-9.07462 -10.47458,-11.77451 -10.47458,-17.82427 0,-12.42449 13.29946,-19.07421 23.64904,-11.82451 1.82493,1.27495 38.19843,37.27347 80.82169,79.99673 72.69704,72.87201 77.57183,77.89681 78.4968,81.39667 2.72489,10.19958 -3.74985,19.22422 -13.92443,19.4742 -5.59978,0.125 -8.97463,-1.87492 -18.09926,-10.77456 l -8.19967,-7.97467 -15.64936,15.37437 c -15.74936,15.47437 -21.72411,20.17418 -32.07369,25.34896 -24.59899,12.2745 -53.12283,12.1745 -78.02181,-0.24999 -3.44986,-1.72492 -7.3247,-3.87483 -8.57464,-4.7748 l -2.29992,-1.62493 -38.04844,37.89845 c -32.52366,32.39867 -38.52341,38.02344 -41.27331,38.82341 -3.32486,0.94997 -3.54985,0.94997 -6.17474,0.39998 M 343.97125,332.00732 c -0.84997,-0.22499 -2.97488,-1.37495 -4.69981,-2.5749 -1.72493,-1.19995 -37.99844,-37.14848 -80.6217,-79.87174 -72.69703,-72.87201 -77.57183,-77.89681 -78.4968,-81.39666 -2.72488,-10.19959 3.74985,-19.22422 13.92443,-19.4742 5.59978,-0.125 8.97464,1.87492 18.09926,10.77455 l 8.19967,7.97468 15.64937,-15.37438 c 15.74935,-15.47436 21.72411,-20.17417 32.07368,-25.34896 24.59899,-12.27449 53.12283,-12.17451 78.02181,0.24999 3.44986,1.72493 7.3247,3.87484 8.57465,4.7748 l 2.29991,1.62494 38.04844,-37.89846 c 32.92366,-32.79866 38.49843,-38.02345 41.34831,-38.82341 1.79993,-0.52499 4.09984,-0.77498 5.07479,-0.57498 0.97497,0.19999 2.74989,0.57498 3.92484,0.82496 2.3749,0.49999 7.22471,4.44982 8.59965,6.99972 1.57493,2.92488 2.09992,7.77468 1.24995,11.42453 -0.77497,3.24987 -3.79984,6.49974 -38.74842,41.57331 l -37.92344,38.04844 1.62493,2.29992 c 0.89996,1.24994 3.04987,5.12479 4.77481,8.57464 12.42449,24.89898 12.52448,53.42282 0.24998,78.02181 -5.14979,10.34958 -9.8746,16.29934 -25.34896,32.07369 l -15.37437,15.64936 8.17467,8.34966 c 4.49981,4.59981 8.67464,9.59961 9.32461,11.09955 2.3999,5.72476 0.84997,14.07442 -3.29986,17.82427 -3.39987,3.07487 -9.72461,4.42481 -14.7244,3.17487"
     id="path92"
     style="fill:#009688" />
</svg>
