<?xml version="1.0" encoding="UTF-8" standalone="no"?>
<svg
   xmlns:dc="http://purl.org/dc/elements/1.1/"
   xmlns:cc="http://creativecommons.org/ns#"
   xmlns:rdf="http://www.w3.org/1999/02/22-rdf-syntax-ns#"
   xmlns:svg="http://www.w3.org/2000/svg"
   xmlns="http://www.w3.org/2000/svg"
   xmlns:sodipodi="http://sodipodi.sourceforge.net/DTD/sodipodi-0.dtd"
   xmlns:inkscape="http://www.inkscape.org/namespaces/inkscape"
   height="512"
   viewBox="0 0 512 512"
   width="512"
   version="1.1"
   id="svg2"
   inkscape:version="0.91 r13725"
   sodipodi:docname="accessories-text-editor.svg">
  <sodipodi:namedview
     pagecolor="#ffffff"
     bordercolor="#666666"
     borderopacity="1"
     objecttolerance="10"
     gridtolerance="10"
     guidetolerance="10"
     inkscape:pageopacity="0"
     inkscape:pageshadow="2"
     inkscape:window-width="1680"
     inkscape:window-height="1019"
     id="namedview17"
     showgrid="false"
     inkscape:zoom="0.42744908"
     inkscape:cx="19.6537"
     inkscape:cy="-97.543554"
     inkscape:window-x="1680"
     inkscape:window-y="0"
     inkscape:window-maximized="1"
     inkscape:current-layer="svg2" />
  <defs
     id="defs19" />
  <metadata
     id="metadata32">
    <rdf:RDF>
      <cc:Work
         rdf:about="">
        <dc:format>image/svg+xml</dc:format>
        <dc:type
           rdf:resource="http://purl.org/dc/dcmitype/StillImage" />
      </cc:Work>
    </rdf:RDF>
  </metadata>
  <g
     id="g4147"
     transform="matrix(1.3302703,0,0,1.3302703,-82.050813,-81.549975)"
     style="fill:#009688;fill-opacity:1">
    <path
       id="path22"
       d="m 258.93,169.91 -100.81,100.81 -12.391,12.391 -3.153,3.153 -25.15,78.83 a 10.261,11.432 45 0 0 3.3012,11.354 10.261,11.432 45 0 0 9.2078,1.2435 l 79.939,-25.23 2.605,-2.605 12.04,-12.04 101.17,-101.17 -66.749,-66.749 m -66.616,134.21 a 2.8635,2.8635 0 0 1 0.97704,2.2798 l -1.11,23.878 4.367,4.367 a 2.8635,2.8635 0 0 1 -1.2879,4.7816 l -37.705,10.08 a 2.8635,2.8635 0 0 1 -2.7683,-0.72537 l -7.313,-7.313 a 2.8635,2.8635 0 0 1 -0.74017,-2.8127 l 10.999,-38.741 a 2.8635,2.8635 0 0 1 4.7816,-1.2583 l 5.877,5.877 21.894,-1.11 a 2.8635,2.8635 0 0 1 2.0281,0.69577"
       inkscape:connector-curvature="0"
       style="fill:#009688;fill-rule:evenodd;fill-opacity:1" />
    <path
       id="path24"
       d="m 319.45,115.6 c -3.813,-0.084 -7.07,0.931 -9.38,3.166 l -0.118,0.118 -15.624,15.653 66.756,66.756 15.417,-15.446 0.237,-0.207 c 0.035,-0.035 0.054,-0.083 0.089,-0.118 7.256,-7.474 1.711,-24.831 -12.517,-39.06 l -15.15,-15.15 c -9.829,-9.829 -21.18,-15.525 -29.709,-15.712"
       inkscape:connector-curvature="0"
       style="fill:#009688;fill-rule:evenodd;fill-opacity:1" />
    <path
       id="path26"
       d="m 285.67,143.18 66.757,66.757 -16.532,16.532 -66.757,-66.757 z"
       inkscape:connector-curvature="0"
       style="fill:#009688;fill-rule:evenodd;fill-opacity:1" />
  </g>
</svg>
