<?xml version="1.0" encoding="UTF-8" standalone="no"?>
<svg
   xmlns:dc="http://purl.org/dc/elements/1.1/"
   xmlns:cc="http://creativecommons.org/ns#"
   xmlns:rdf="http://www.w3.org/1999/02/22-rdf-syntax-ns#"
   xmlns:svg="http://www.w3.org/2000/svg"
   xmlns="http://www.w3.org/2000/svg"
   xmlns:sodipodi="http://sodipodi.sourceforge.net/DTD/sodipodi-0.dtd"
   xmlns:inkscape="http://www.inkscape.org/namespaces/inkscape"
   height="100%"
   width="100%"
   version="1.1"
   id="svg2"
   viewBox="0 0 512 512"
   inkscape:version="0.91 r"
   sodipodi:docname="run-build-file.svg">
  <sodipodi:namedview
     pagecolor="#ffffff"
     bordercolor="#666666"
     borderopacity="1"
     objecttolerance="10"
     gridtolerance="10"
     guidetolerance="10"
     inkscape:pageopacity="0"
     inkscape:pageshadow="2"
     inkscape:window-width="640"
     inkscape:window-height="480"
     id="namedview8"
     showgrid="false"
     inkscape:zoom="0.4609375"
     inkscape:cx="256"
     inkscape:cy="256"
     inkscape:window-x="0"
     inkscape:window-y="0"
     inkscape:window-maximized="0"
     inkscape:current-layer="svg2" />
  <metadata
     id="metadata100">
    <rdf:RDF>
      <cc:Work
         rdf:about="">
        <dc:format>image/svg+xml</dc:format>
        <dc:type
           rdf:resource="http://purl.org/dc/dcmitype/StillImage" />
        <dc:title />
      </cc:Work>
    </rdf:RDF>
  </metadata>
  <defs
     id="defs98" />
  <path
     id="path112"
     d="m 186.09951,68.65625 0,0.0312 c -4.72394,0.0233 -10.50556,1.48944 -18.90625,4.375 -22.59576,7.74911 -24.34906,10.45135 -24,29.8125 0.32579,17.63912 -2.54437,22.71251 -19.625,37.09375 -15.49823,13.07808 -20.1579,14.81572 -31.28126,10.90625 -13.49696,-4.7472 -26.36593,2.54971 -34.90625,20.375 -9.63403,20.08253 -8.65918,25.52298 5.09375,38.53125 12.33343,11.65857 13.83571,17.98336 11.625,40.71875 -1.67548,17.22025 -3.71311,21.30079 -16,30.5625 -13.96236,10.54158 -15.35351,16.357 -8,37.8125 7.35352,21.43223 11.72853,24.5844 28.34375,23.28125 17.45295,-1.37297 21.69125,0.84555 36.37501,17.4375 16.01018,18.10453 15.02785,16.73718 12.375,33.46875 -3.25788,20.52468 -0.60244,24.22504 21.0625,34.90625 21.64166,10.65794 25.76102,9.86926 39.28125,-5.09375 11.05354,-12.24034 14.03785,-12.86632 35.65625,-11.65625 19.26807,1.09372 28.57388,4.60262 31.25,12.375 2.02454,5.93401 7.36924,11.62513 15.28125,16 4.02582,2.21071 8.12925,1.44008 17.4375,-1.46875 -0.60504,-2.35033 -0.71875,-4.74475 -0.71875,-7.28125 l 0,-149.8125 c -3.11826,6.39941 -7.53208,12.74218 -13.09375,18.1875 -39.32734,38.46632 -105.44278,8.63539 -104,-46.5625 0.90755,-34.95245 28.52018,-59.64563 59.65625,-60.34375 9.54095,-0.20944 19.64588,1.76078 29.09375,6.53125 18.54667,9.37806 29.76075,25.24385 33.4375,42.90625 5.3057,-8.65667 14.16187,-15.25 24.75,-15.25 l 93.09375,0 1.4375,0 c 8.49377,-5.60822 8.84823,-11.75721 2.9375,-31.28125 -7.91201,-26.17944 -11.19872,-29.1662 -31.28125,-28.375 -18.08127,0.72139 -20.91797,-0.72921 -35.625,-17.4375 -13.86928,-15.77748 -16.31308,-21.76093 -13.125,-32 4.84029,-15.45169 -0.54832,-26.64519 -16,-34.90625 -22.73539,-12.14726 -28.59482,-11.61725 -42.90625,3.625 -10.70448,11.4026 -15.20647,13.13495 -27.65625,12.34375 -25.78384,-1.65222 -32.90234,-2.48217 -35.625,-6.53125 C 200.27403,75.18261 195.10523,68.6562 186.09951,68.6562 Z M 316.63076,244.3125 c -6.86958,0 -12.4375,5.5617 -12.4375,12.4375 l 0,174.15625 c 0,6.8758 5.56792,12.4375 12.4375,12.4375 l 137.21875,0 c 6.87581,0 12.4375,-5.5617 12.4375,-12.4375 l 0,-127.8125 -50.65625,0 c -3.43791,0 -6.21875,-2.78084 -6.21875,-6.21875 l 0,-52.5625 -92.78125,0 z m 105.4375,0 0,44.75 44.21875,0 -44.21875,-44.75 z m -99.1875,36.96875 62.34375,0 0,14 -62.34375,0 0,-14 z m 0,38.9375 121.5625,0 0,14.03125 -121.5625,0 0,-14.03125 z m 0,38.96875 62.34375,0 0,14.03125 -62.34375,0 0,-14.03125 z m 82.625,0 38.9375,0 0,53 -38.9375,0 0,-53 z m -82.625,38.96875 62.34375,0 0,14.03125 -62.34375,0 0,-14.03125 z"
     style="fill:#009688;fill-opacity:0.969" />
</svg>
