<?xml version="1.0" encoding="UTF-8" standalone="no"?>
<svg
   xmlns:dc="http://purl.org/dc/elements/1.1/"
   xmlns:cc="http://creativecommons.org/ns#"
   xmlns:rdf="http://www.w3.org/1999/02/22-rdf-syntax-ns#"
   xmlns:svg="http://www.w3.org/2000/svg"
   xmlns="http://www.w3.org/2000/svg"
   xmlns:sodipodi="http://sodipodi.sourceforge.net/DTD/sodipodi-0.dtd"
   xmlns:inkscape="http://www.inkscape.org/namespaces/inkscape"
   height="100%"
   width="100%"
   version="1.1"
   id="svg2"
   viewBox="0 0 512 512"
   inkscape:version="0.91 r"
   sodipodi:docname="run-build-install-root.svg">
  <sodipodi:namedview
     pagecolor="#ffffff"
     bordercolor="#666666"
     borderopacity="1"
     objecttolerance="10"
     gridtolerance="10"
     guidetolerance="10"
     inkscape:pageopacity="0"
     inkscape:pageshadow="2"
     inkscape:window-width="640"
     inkscape:window-height="480"
     id="namedview8"
     showgrid="false"
     inkscape:zoom="0.4609375"
     inkscape:cx="256"
     inkscape:cy="256"
     inkscape:window-x="0"
     inkscape:window-y="0"
     inkscape:window-maximized="0"
     inkscape:current-layer="svg2" />
  <metadata
     id="metadata100">
    <rdf:RDF>
      <cc:Work
         rdf:about="">
        <dc:format>image/svg+xml</dc:format>
        <dc:type
           rdf:resource="http://purl.org/dc/dcmitype/StillImage" />
        <dc:title />
      </cc:Work>
    </rdf:RDF>
  </metadata>
  <defs
     id="defs98" />
  <path
     id="path112"
     d="m 181.35714,51.97057 c -4.71281,0.0355 -10.47923,1.50187 -18.84375,4.375 -22.59576,7.74912 -24.34906,10.45135 -24,29.8125 0.32579,17.63912 -2.54437,22.71251 -19.625,37.09375 -15.49823,13.07808 -20.15791,14.81572 -31.28126,10.90625 -13.49696,-4.7472 -26.36593,2.54971 -34.90625,20.375 -9.63403,20.08253 -8.65918,25.52298 5.09375,38.53125 12.33343,11.65857 13.83571,17.98336 11.625,40.71875 -1.67548,17.22025 -3.71311,21.30079 -16,30.5625 -13.96236,10.54158 -15.35351,16.357 -8,37.8125 7.35352,21.43223 11.72854,24.5844 28.34375,23.28125 17.45295,-1.37297 21.69124,0.84555 36.37501,17.4375 16.01018,18.10453 15.02785,16.73718 12.375,33.46875 -3.25788,20.52468 -0.60244,24.22504 21.0625,34.90625 21.64166,10.65794 25.76102,9.86926 39.28125,-5.09375 11.05354,-12.24034 14.03785,-12.86632 35.65625,-11.65625 19.26807,1.09372 28.57388,4.60262 31.25,12.375 2.02454,5.93401 7.36924,11.62513 15.28125,16 5.1428,2.83902 7.03307,2.42536 24.71875,-3.625 11.49568,-3.93274 18.32989,-7.13641 21.84375,-10.90625 l -30.5625,-37.09375 c 0,0 -1.28258,-1.30585 -1.46875,-1.46875 -1.02391,-0.86101 -4.09319,-2.87518 -7.28125,-9.4375 -1.86165,-3.83965 -4.74984,-11.99494 0.71875,-21.09375 5.46859,-9.09881 14.34792,-10.1875 20.375,-10.1875 l 27.625,0 0,-90.90625 0,-17.4375 17.46875,0 52.34375,0 c 2.90882,-2.97863 6.81333,-5.79463 12.375,-8.75 11.89128,-6.3296 12.44463,-11.49332 5.8125,-33.4375 -7.912,-26.17944 -11.19871,-29.1662 -31.28125,-28.375 -18.08126,0.72139 -20.91797,-0.76046 -35.625,-17.46875 -13.86928,-15.77748 -16.28183,-21.76093 -13.09375,-32 4.84028,-15.45169 -0.54832,-26.64518 -16,-34.90625 -22.73539,-12.14725 -28.62607,-11.586 -42.9375,3.65625 -10.70448,11.4026 -15.17523,13.13495 -27.625,12.34375 -25.78384,-1.65221 -32.90233,-2.48216 -35.625,-6.53125 C 195.5894,58.53638 190.38634,52.00116 181.41964,51.97057 l -0.0312,0 -0.0312,0 z m 42.90625,123.625 c 9.54095,-0.20943 19.64589,1.79203 29.09375,6.5625 39.14117,19.80329 46.5104,69.78944 15.28125,100.34375 -39.32733,38.46632 -105.44278,8.66664 -104,-46.53125 0.90755,-34.95245 28.48893,-59.67688 59.625,-60.375 z m 114.53125,62.53125 0,108.34375 -45.09375,0 c -13.40388,0 -0.75,12.375 -0.75,12.375 l 81.46875,97.46875 c 0,0 3.925,4.39293 8.71875,3.625 1.60566,-0.25597 3.34845,-1.16096 5.09375,-2.90625 9.65729,-9.63403 78.53125,-101.09375 78.53125,-101.09375 0,0 11.91443,-12.375 -4.375,-12.375 l -34.90625,0 -7.28125,0 -0.71875,0 0,-105.4375 -80.6875,0 z"
     style="fill:#009688;fill-opacity:0.969" />
</svg>
