<?xml version="1.0" encoding="UTF-8" standalone="no"?>
<svg
   xmlns:dc="http://purl.org/dc/elements/1.1/"
   xmlns:cc="http://creativecommons.org/ns#"
   xmlns:rdf="http://www.w3.org/1999/02/22-rdf-syntax-ns#"
   xmlns:svg="http://www.w3.org/2000/svg"
   xmlns="http://www.w3.org/2000/svg"
   xmlns:sodipodi="http://sodipodi.sourceforge.net/DTD/sodipodi-0.dtd"
   xmlns:inkscape="http://www.inkscape.org/namespaces/inkscape"
   height="100%"
   width="100%"
   version="1.1"
   id="svg2"
   viewBox="0 0 512 512"
   inkscape:version="0.91 r"
   sodipodi:docname="show-menu.svg">
  <sodipodi:namedview
     pagecolor="#ffffff"
     bordercolor="#666666"
     borderopacity="1"
     objecttolerance="10"
     gridtolerance="10"
     guidetolerance="10"
     inkscape:pageopacity="0"
     inkscape:pageshadow="2"
     inkscape:window-width="640"
     inkscape:window-height="480"
     id="namedview8"
     showgrid="false"
     inkscape:zoom="0.4609375"
     inkscape:cx="256"
     inkscape:cy="256"
     inkscape:window-x="0"
     inkscape:window-y="0"
     inkscape:window-maximized="0"
     inkscape:current-layer="svg2" />
  <metadata
     id="metadata100">
    <rdf:RDF>
      <cc:Work
         rdf:about="">
        <dc:format>image/svg+xml</dc:format>
        <dc:type
           rdf:resource="http://purl.org/dc/dcmitype/StillImage" />
        <dc:title />
      </cc:Work>
    </rdf:RDF>
  </metadata>
  <defs
     id="defs98" />
  <path
     id="rect3009"
     d="m 238.28125,121.78125 0,268.4375 220.21875,0 0,-268.4375 -220.21875,0 z m -33.375,39 c -13.37365,1.9e-4 -20.03128,5.99615 -20.03125,18 -3e-5,12.08475 6.6576,18.12515 20.03125,18.125 6.68675,1.5e-4 11.69682,-1.5766 15,-4.71875 3.38362,-3.2224 5.06243,-7.68604 5.0625,-13.40625 -7e-5,-12.00385 -6.68895,-17.99981 -20.0625,-18 z m 56.9375,0 36.84375,0 0,188.03125 -36.84375,0 0,-188.03125 z M 53.5,172.125 l 0,176.6875 36.84376,0 0,-69.84375 59.96874,0 0,-30.59375 -59.96874,0 0,-45.5625 64.43749,0 0,-30.6875 -101.28125,0 z m 339.46875,39.03125 c 19.09356,1.4e-4 33.9592,5.4365 44.59375,16.3125 10.63431,10.87624 15.93736,25.91962 15.9375,45.09375 l 0,17.875 -87.125,0 c 0.40276,10.47336 3.51184,18.65013 9.3125,24.53125 5.80054,5.8812 13.93286,8.81252 24.40625,8.8125 8.13686,2e-5 15.81164,-0.83938 23.0625,-2.53125 7.25063,-1.69181 14.82335,-4.38778 22.71875,-8.09375 l 0,28.53125 c -6.44525,3.22256 -13.32505,5.59429 -20.65625,7.125 -7.33142,1.61128 -16.25872,2.40625 -26.8125,2.40625 -21.75232,0 -38.75433,-5.99597 -51,-18 -12.24573,-12.004 -18.375,-29.006 -18.375,-51 0,-22.63838 5.62727,-40.11111 16.90625,-52.4375 11.35948,-12.40672 27.05133,-18.62486 47.03125,-18.625 z m -206.53125,2.5625 0,135.09375 36.84375,0 0,-135.09375 -36.84375,0 z m 206.75,23.65625 c -7.81478,1.1e-4 -13.91281,2.50514 -18.34375,7.5 -4.43107,4.9145 -6.98055,11.92762 -7.625,21.03125 l 51.71875,0 c -0.16123,-9.10363 -2.53296,-16.11675 -7.125,-21.03125 -4.59222,-4.99486 -10.81039,-7.49989 -18.625,-7.5 z"
     style="fill:#009688;fill-opacity:1;stroke:none" />
</svg>
