<?xml version="1.0" encoding="UTF-8" standalone="no"?>
<svg
   xmlns:dc="http://purl.org/dc/elements/1.1/"
   xmlns:cc="http://creativecommons.org/ns#"
   xmlns:rdf="http://www.w3.org/1999/02/22-rdf-syntax-ns#"
   xmlns:svg="http://www.w3.org/2000/svg"
   xmlns="http://www.w3.org/2000/svg"
   xmlns:sodipodi="http://sodipodi.sourceforge.net/DTD/sodipodi-0.dtd"
   xmlns:inkscape="http://www.inkscape.org/namespaces/inkscape"
   height="100%"
   width="100%"
   version="1.1"
   id="svg2"
   viewBox="0 0 512 512"
   inkscape:version="0.91 r"
   sodipodi:docname="speaker.svg">
  <sodipodi:namedview
     pagecolor="#ffffff"
     bordercolor="#666666"
     borderopacity="1"
     objecttolerance="10"
     gridtolerance="10"
     guidetolerance="10"
     inkscape:pageopacity="0"
     inkscape:pageshadow="2"
     inkscape:window-width="640"
     inkscape:window-height="480"
     id="namedview8"
     showgrid="false"
     inkscape:zoom="0.4609375"
     inkscape:cx="256"
     inkscape:cy="256"
     inkscape:window-x="0"
     inkscape:window-y="0"
     inkscape:window-maximized="0"
     inkscape:current-layer="svg2" />
  <metadata
     id="metadata100">
    <rdf:RDF>
      <cc:Work
         rdf:about="">
        <dc:format>image/svg+xml</dc:format>
        <dc:type
           rdf:resource="http://purl.org/dc/dcmitype/StillImage" />
        <dc:title />
      </cc:Work>
    </rdf:RDF>
  </metadata>
  <defs
     id="defs98" />
  <path
     id="path3060"
     d="m 111.90605,55.99957 c -24.52975,0 -44.4375,19.93901 -44.4375,44.46875 0,24.1933 19.42904,43.90225 43.5,44.4375 -24.08625,31.44211 -38.71875,70.53705 -38.71875,113.25 0,40.9084 13.10859,78.69886 35.375,109.4375 -22.40404,2.27864 -40.15625,20.96829 -40.15625,43.96875 0,24.52975 19.90775,44.4375 44.4375,44.4375 23.71922,0 42.69944,-18.66443 43.96875,-42.0625 29.27053,19.29958 64.52318,30.59375 102.28125,30.59375 32.7726,0 63.55,-8.54159 90.3125,-23.40625 4.31259,20.01835 22.19705,34.875 43.5,34.875 24.52974,0 44.4375,-19.90775 44.4375,-44.4375 0,-19.31488 -12.38994,-35.46131 -29.625,-41.59375 23.50513,-31.19743 37.75,-69.78839 37.75,-111.84375 0,-43.53877 -15.09059,-83.42357 -40.125,-115.15625 18.47377,-5.39838 32,-22.32939 32,-42.53125 0,-24.52975 -19.90776,-44.4375 -44.4375,-44.4375 -22.60285,0 -41.17016,16.88055 -43.96875,38.71875 -26.62486,-14.66585 -57.30055,-22.9375 -89.84375,-22.9375 -37.60514,0 -72.58719,11.40054 -101.78125,30.5625 0.0306,-0.62701 0,-1.26395 0,-1.90625 0,-24.52975 -19.90775,-44.4375 -44.4375,-44.4375 l -0.0312,0 z m 0.0312,26.75 c 9.60392,0 17.6875,8.09888 17.6875,17.6875 0,9.60391 -8.09888,17.21875 -17.6875,17.21875 -9.60391,0 -17.21875,-7.61484 -17.21875,-17.21875 0,-9.60392 7.61484,-17.6875 17.21875,-17.6875 z m 280.06255,0 c 9.60392,0 17.65625,8.09888 17.65625,17.6875 0,9.60391 -8.06763,17.21875 -17.65625,17.21875 -9.60391,0 -17.21875,-7.61484 -17.21875,-17.21875 0,-9.60392 7.61484,-17.6875 17.21875,-17.6875 z m -133.8125,18.1875 c 86.92461,0 157.71875,70.30944 157.71875,157.21875 0,86.92461 -70.79414,157.21875 -157.71875,157.21875 -86.9246,0 -157.21875,-70.30944 -157.21875,-157.21875 0,-86.9246 70.30944,-157.21875 157.21875,-157.21875 z m -0.0937,25.875 c -72.51873,0 -130.9375,58.91877 -130.9375,131.4375 0,72.51873 58.40347,131.4375 130.9375,131.4375 72.51873,0 131.4375,-58.91877 131.4375,-131.4375 0,-72.51873 -58.91877,-131.4375 -131.4375,-131.4375 z m 0,58.3125 c 40.52607,0 73.625,32.59893 73.625,73.125 0,40.52607 -33.09893,73.59375 -73.625,73.59375 -40.52612,0 -73.0938,-33.06768 -73.0938,-73.59375 0,-40.52607 32.56768,-73.125 73.09375,-73.125 z m 0.3125,24.90625 c -26.66246,0 -48.28125,21.61879 -48.28125,48.28125 0,26.66246 21.61879,48.25 48.28125,48.25 26.66245,0 48.28125,-21.58754 48.28125,-48.25 0,-26.66246 -21.6188,-48.28125 -48.28125,-48.28125 z M 111.9373,393.93707 c 9.60392,0 17.6875,8.09888 17.6875,17.6875 0,9.60392 -8.09888,17.1875 -17.6875,17.1875 -9.60391,0 -17.21875,-7.58358 -17.21875,-17.1875 0,-9.60391 7.61484,-17.6875 17.21875,-17.6875 z m 280.0625,0 c 9.60392,0 17.65625,8.09888 17.65625,17.6875 0,9.60392 -8.06763,17.1875 -17.65625,17.1875 -9.60391,0 -17.21875,-7.58358 -17.21875,-17.1875 0,-9.60391 7.61484,-17.6875 17.21875,-17.6875 z"
     style="fill:#009688;fill-rule:evenodd" />
</svg>
