<?xml version="1.0" encoding="UTF-8" standalone="no"?>
<svg
   xmlns:dc="http://purl.org/dc/elements/1.1/"
   xmlns:cc="http://creativecommons.org/ns#"
   xmlns:rdf="http://www.w3.org/1999/02/22-rdf-syntax-ns#"
   xmlns:svg="http://www.w3.org/2000/svg"
   xmlns="http://www.w3.org/2000/svg"
   xmlns:sodipodi="http://sodipodi.sourceforge.net/DTD/sodipodi-0.dtd"
   xmlns:inkscape="http://www.inkscape.org/namespaces/inkscape"
   height="100%"
   width="100%"
   version="1.1"
   id="svg2"
   viewBox="0 0 512 512"
   inkscape:version="0.91 r"
   sodipodi:docname="document-save-all.svg">
  <sodipodi:namedview
     pagecolor="#ffffff"
     bordercolor="#666666"
     borderopacity="1"
     objecttolerance="10"
     gridtolerance="10"
     guidetolerance="10"
     inkscape:pageopacity="0"
     inkscape:pageshadow="2"
     inkscape:window-width="640"
     inkscape:window-height="480"
     id="namedview8"
     showgrid="false"
     inkscape:zoom="0.4609375"
     inkscape:cx="256"
     inkscape:cy="256"
     inkscape:window-x="0"
     inkscape:window-y="0"
     inkscape:window-maximized="0"
     inkscape:current-layer="svg2" />
  <metadata
     id="metadata100">
    <rdf:RDF>
      <cc:Work
         rdf:about="">
        <dc:format>image/svg+xml</dc:format>
        <dc:type
           rdf:resource="http://purl.org/dc/dcmitype/StillImage" />
        <dc:title />
      </cc:Work>
    </rdf:RDF>
  </metadata>
  <defs
     id="defs98" />
  <path
     id="path3211"
     d="m 166.59373,51.85914 c -11.54604,0 -9.53124,7.6875 -9.53124,7.6875 l 0,135.34376 0,22.00002 -50.43749,0 c -14.765453,0 -1.15626,12.8437 -1.15626,12.8437 l 89.46874,108.125 c 0,0 7.34348,8.5902 15,0.9063 4.54264,-4.5291 21.0774,-25.6745 38.50001,-48.3125 -24.07549,-29.4023 -47.53237,-59.3801 -73.25001,-87.375 23.50426,0.418 46.99336,0.223 70.50001,0.2187 l 0,-9.31248 0,-135.625 c 0,0 0.19444,-6.5 -8.125,-6.5 l -70.96876,0 z m 110.68752,0 c -11.54604,0 -9.59376,7.6875 -9.59376,7.6875 l 0,135.34376 0,22.00002 -50.37501,0 c -14.76544,0 -1.15624,12.8437 -1.15624,12.8437 l 89.4375,108.125 c 0,0 7.31223,8.5902 14.96875,0.9063 10.62377,-10.5921 86.75,-111.6563 86.75,-111.6563 0,0 13.5378,-13.4687 -4.375,-13.4687 l -46.59375,0 0,-19.65628 0,-135.625 c 0,0 0.19444,-6.5 -8.125,-6.5 l -70.93749,0 z M 97.156237,359.95292 c -25.9495,0 -46.15625,21.0257 -46.15625,46.9687 l 0,7 c 0,25.9496 20.20675,46.2188 46.15625,46.2188 l 317.656253,0 c 25.94953,0 46.18751,-20.2692 46.18751,-46.2188 l 0,-7 c 0,-25.9387 -20.23798,-46.9687 -46.18751,-46.9687 l -317.656253,0 z m 295.000013,17.9375 c 17.66706,0 32.15624,14.4867 32.15624,32.1562 0,17.6671 -14.48668,32.125 -32.15624,32.125 -17.66704,0 -32.09376,-14.4554 -32.09376,-32.125 0,-17.667 14.4242,-32.1562 32.09376,-32.1562 z"
     style="fill:#009688" />
</svg>
