<?xml version="1.0" encoding="UTF-8" standalone="no"?>
<svg
   xmlns:dc="http://purl.org/dc/elements/1.1/"
   xmlns:cc="http://creativecommons.org/ns#"
   xmlns:rdf="http://www.w3.org/1999/02/22-rdf-syntax-ns#"
   xmlns:svg="http://www.w3.org/2000/svg"
   xmlns="http://www.w3.org/2000/svg"
   xmlns:sodipodi="http://sodipodi.sourceforge.net/DTD/sodipodi-0.dtd"
   xmlns:inkscape="http://www.inkscape.org/namespaces/inkscape"
   height="100%"
   width="100%"
   version="1.1"
   id="svg2"
   viewBox="0 0 512 512"
   inkscape:version="0.91 r"
   sodipodi:docname="mail-mark-junk.svg">
  <sodipodi:namedview
     pagecolor="#ffffff"
     bordercolor="#666666"
     borderopacity="1"
     objecttolerance="10"
     gridtolerance="10"
     guidetolerance="10"
     inkscape:pageopacity="0"
     inkscape:pageshadow="2"
     inkscape:window-width="640"
     inkscape:window-height="480"
     id="namedview8"
     showgrid="false"
     inkscape:zoom="0.4609375"
     inkscape:cx="256"
     inkscape:cy="256"
     inkscape:window-x="0"
     inkscape:window-y="0"
     inkscape:window-maximized="0"
     inkscape:current-layer="svg2" />
  <metadata
     id="metadata102">
    <rdf:RDF>
      <cc:Work
         rdf:about="">
        <dc:format>image/svg+xml</dc:format>
        <dc:type
           rdf:resource="http://purl.org/dc/dcmitype/StillImage" />
        <dc:title />
      </cc:Work>
    </rdf:RDF>
  </metadata>
  <defs
     id="defs100" />
  <path
     id="path10"
     d="m 206.60139,64.18021 c -12.26155,0 -22.6074,6.91378 -28.56371,16.66695 -5.48376,8.89187 -18.93644,32.19585 -30.46029,52.29975 -10.62959,18.55026 -4.17384,42.29525 14.33933,52.98941 l 15.00026,8.64956 c 18.51729,10.68866 42.19129,4.32715 52.87446,-14.19564 19.07638,-33.05088 46.37322,-80.33324 53.47793,-92.55905 7.32449,-12.61593 19.34565,-20.99467 33.33389,-23.24752 4.22822,-0.68135 4.25439,-0.60346 -0.0287,-0.60346 l -109.97314,0 z m 117.44453,9.65534 c -13.44152,0.0165 -25.87674,7.38797 -32.47183,19.08078 -0.0275,0.022 -10.95942,18.85634 -21.95439,38.0179 l 22.18428,38.4202 -24.1096,13.50596 c -3.72407,2.08801 -3.34837,4.32193 0.89081,4.88515 19.56955,2.6457 71.05379,8.45664 87.64518,-1.12072 16.56667,-9.5732 37.27055,-57.01723 44.77087,-75.28863 1.62096,-3.95484 -0.12533,-5.45173 -3.82189,-3.30465 l -23.85099,13.82207 c 0.0164,0 -11.92623,-20.87433 -16.69568,-29.13843 -6.75031,-11.60627 -19.16586,-18.91809 -32.58676,-18.87963 z m 68.70807,122.73197 c -6.2406,0.16454 -12.52084,1.8576 -18.30492,5.20124 l -14.7129,8.47716 c -18.51728,10.68865 -24.84055,34.36815 -14.13817,52.87446 l 28.27635,48.9951 c 22.10262,0 43.88684,0.0287 43.9088,0.0287 13.4635,0.1016 25.98564,-7.11869 32.73044,-18.73596 6.7022,-11.62274 6.64793,-26.09287 -0.17241,-37.67305 0,-0.0164 -10.48276,-18.12814 -23.01765,-39.82827 -7.356,-12.72775 -20.84024,-19.70131 -34.56954,-19.33936 z m -279.94731,7.58634 c -19.31199,0.19097 -40.40415,2.67929 -51.40892,4.16674 -4.24469,0.5742 -4.65587,2.84624 -0.94829,4.97134 l 23.90845,13.73588 -23.79351,41.17887 c -5.81619,9.87404 -6.28944,22.4608 -0.17242,33.07527 l 55.00094,95.26024 c 2.13609,3.70757 2.06529,3.71007 0.54599,-0.28736 -5.07028,-13.43604 -3.9216,-28.67797 3.47707,-41.26507 l 46.66746,-80.80598 23.87971,13.87955 c 3.7021,2.14707 5.44835,0.64882 3.82191,-3.30465 -7.48521,-18.2714 -28.16724,-65.74964 -44.74214,-75.31738 -7.25993,-4.18588 -21.21581,-5.43597 -36.23625,-5.28745 z m 208.30814,86.58194 c -0.76241,0.13389 -1.69214,0.82793 -2.67244,2.09773 -12.07885,15.6202 -42.84557,57.28616 -42.84557,76.43808 0,19.14096 30.75987,60.82341 42.84557,76.43809 2.61275,3.38614 4.78119,2.6096 4.77019,-1.6667 l -0.0575,-27.5292 47.55829,0 c 11.46753,0.0811 22.63134,-5.78972 28.76485,-16.40832 l 54.9722,-95.28899 c 2.1361,-3.70759 2.1643,-3.65541 -0.54598,-0.34483 l 0.0287,0.0287 c -9.10617,11.13372 -22.91211,17.74437 -37.50064,17.61524 0,0 -93.27746,-0.022 -93.27746,0 l 0.0575,-27.61541 c 0.007,-2.66924 -0.82703,-3.98758 -2.09772,-3.76443 z m -171.72705,32.38561 c -11.01697,19.13545 -21.93791,38.01503 -21.9544,38.04663 -6.80387,11.56369 -6.88162,26.00093 -0.14368,37.64431 6.7187,11.64886 19.24794,18.83761 32.67298,18.73595 l 46.00652,0 c 21.3828,0 38.7363,-17.32887 38.7363,-38.70755 l 0,-17.01179 c 0,-21.37868 -17.32339,-38.70755 -38.70757,-38.70755 l -56.61015,0 z"
     style="fill:#009688" />
</svg>
