<?xml version="1.0" encoding="UTF-8" standalone="no"?>
<svg
   xmlns:dc="http://purl.org/dc/elements/1.1/"
   xmlns:cc="http://creativecommons.org/ns#"
   xmlns:rdf="http://www.w3.org/1999/02/22-rdf-syntax-ns#"
   xmlns:svg="http://www.w3.org/2000/svg"
   xmlns="http://www.w3.org/2000/svg"
   xmlns:sodipodi="http://sodipodi.sourceforge.net/DTD/sodipodi-0.dtd"
   xmlns:inkscape="http://www.inkscape.org/namespaces/inkscape"
   height="100%"
   width="100%"
   version="1.1"
   id="svg2"
   viewBox="0 0 512 512"
   inkscape:version="0.91 r"
   sodipodi:docname="mail-send-receive.svg">
  <sodipodi:namedview
     pagecolor="#ffffff"
     bordercolor="#666666"
     borderopacity="1"
     objecttolerance="10"
     gridtolerance="10"
     guidetolerance="10"
     inkscape:pageopacity="0"
     inkscape:pageshadow="2"
     inkscape:window-width="640"
     inkscape:window-height="480"
     id="namedview8"
     showgrid="false"
     inkscape:zoom="0.4609375"
     inkscape:cx="256"
     inkscape:cy="256"
     inkscape:window-x="0"
     inkscape:window-y="0"
     inkscape:window-maximized="0"
     inkscape:current-layer="svg2" />
  <metadata
     id="metadata102">
    <rdf:RDF>
      <cc:Work
         rdf:about="">
        <dc:format>image/svg+xml</dc:format>
        <dc:type
           rdf:resource="http://purl.org/dc/dcmitype/StillImage" />
        <dc:title />
      </cc:Work>
    </rdf:RDF>
  </metadata>
  <defs
     id="defs100" />
  <path
     id="path20726"
     d="m 84.27997,112.13716 c 169.89152,148.23637 0.39266,0.74148 171.03904,148.93067 57.81785,-51.18921 120.76174,-105.17216 171.00737,-148.93067 l -342.04641,0 z m -17.67403,15.48854 0,71.45631 c 17.66853,-10.59168 37.71989,-16.94554 59.70529,-16.94554 1.01436,0 1.93132,-0.0236 2.94567,0 L 66.60594,127.6257 Z m 377.42615,0 -62.65097,54.54245 c 1.50973,-0.0471 2.90102,0 4.43435,0 21.34849,0 40.91002,6.22317 58.24829,16.24871 l -0.0317,-70.79116 z M 126.24788,199.3354 C 70.9777,199.3354 26,244.34478 26,299.61496 c 0,55.27018 44.9777,100.24788 100.24788,100.24788 55.27017,0 100.24789,-44.9777 100.24789,-100.24788 0,-55.27018 -44.97772,-100.27956 -100.24789,-100.27956 z m 259.50424,0 c -55.27017,0 -100.27956,45.00938 -100.27956,100.27956 0,55.27018 45.00939,100.24788 100.27956,100.24788 C 441.0223,399.86284 486,354.88514 486,299.61496 486,244.34478 441.0223,199.3354 385.75212,199.3354 Z m -259.50424,26.54273 52.35695,62.65096 -29.48839,0 -2.21718,0 -0.7285,0 0,94.35654 -39.81408,0 0,-94.35654 -0.7285,0 -22.86856,0 -8.83701,0 52.32527,-62.65096 z m 239.58136,0 39.81408,0 0,94.35653 0.7285,0 2.21718,0 29.48839,0 -52.32527,62.65097 -52.35695,-62.65097 8.83701,0 22.86856,0 0.7285,0 0,-94.35653 z m -96.51037,54.32073 -13.99986,12.54286 -12.54286,-11.05419 c 0.89639,5.8502 1.48867,12.31644 1.48867,18.40254 0,39.22932 -19.70402,73.64219 -49.3796,95.08503 l 121.62776,0 c -29.25097,-21.51361 -48.68278,-56.23314 -48.68278,-95.08503 0,-6.84096 0.35638,-13.35692 1.48867,-19.89121 z"
     style="fill:#009688" />
</svg>
