<?xml version="1.0" encoding="UTF-8" standalone="no"?>
<svg
   xmlns:dc="http://purl.org/dc/elements/1.1/"
   xmlns:cc="http://creativecommons.org/ns#"
   xmlns:rdf="http://www.w3.org/1999/02/22-rdf-syntax-ns#"
   xmlns:svg="http://www.w3.org/2000/svg"
   xmlns="http://www.w3.org/2000/svg"
   xmlns:sodipodi="http://sodipodi.sourceforge.net/DTD/sodipodi-0.dtd"
   xmlns:inkscape="http://www.inkscape.org/namespaces/inkscape"
   height="100%"
   width="100%"
   version="1.1"
   id="svg2"
   viewBox="0 0 512 512"
   inkscape:version="0.91 r"
   sodipodi:docname="media-seek-backward-rtl.svg">
  <sodipodi:namedview
     pagecolor="#ffffff"
     bordercolor="#666666"
     borderopacity="1"
     objecttolerance="10"
     gridtolerance="10"
     guidetolerance="10"
     inkscape:pageopacity="0"
     inkscape:pageshadow="2"
     inkscape:window-width="640"
     inkscape:window-height="480"
     id="namedview8"
     showgrid="false"
     inkscape:zoom="0.4609375"
     inkscape:cx="256"
     inkscape:cy="256"
     inkscape:window-x="0"
     inkscape:window-y="0"
     inkscape:window-maximized="0"
     inkscape:current-layer="svg2" />
  <metadata
     id="metadata102">
    <rdf:RDF>
      <cc:Work
         rdf:about="">
        <dc:format>image/svg+xml</dc:format>
        <dc:type
           rdf:resource="http://purl.org/dc/dcmitype/StillImage" />
        <dc:title />
      </cc:Work>
    </rdf:RDF>
  </metadata>
  <defs
     id="defs100" />
  <path
     id="path12"
     d="m 273.25794,130.44281 c 13.67879,0.35376 89.6519,50.64995 96.88318,55.42799 7.59063,5.01872 90.85889,60.08947 90.85889,70.13543 0,10.04596 -83.27199,65.10959 -90.85889,70.13543 -7.58567,5.01871 -90.82631,60.1132 -98.42562,55.09448 -7.59062,-5.0187 -7.56672,-115.18252 -7.56672,-125.22991 0,-10.04596 -0.0252,-120.20694 7.56672,-125.22993 0.3558,-0.2355 0.86972,-0.35089 1.54244,-0.33349 z m -213.14878,0 c 13.67879,0.35376 89.6519,50.64995 96.88318,55.42799 7.58565,5.01872 90.85888,60.08947 90.85888,70.13543 0,10.04596 -83.27199,65.10959 -90.85888,70.13543 -7.59064,5.01871 -90.83873,60.1132 -98.42562,55.09448 -7.58567,-5.0187 -7.56673,-115.18252 -7.56673,-125.22991 0,-10.04596 -0.0252,-120.20694 7.56673,-125.22993 0.3558,-0.2355 0.86971,-0.35089 1.54244,-0.33349 z"
     style="fill:#009688;fill-rule:evenodd" />
</svg>
