<?xml version="1.0" encoding="UTF-8" standalone="no"?>
<svg
   xmlns:dc="http://purl.org/dc/elements/1.1/"
   xmlns:cc="http://creativecommons.org/ns#"
   xmlns:rdf="http://www.w3.org/1999/02/22-rdf-syntax-ns#"
   xmlns:svg="http://www.w3.org/2000/svg"
   xmlns="http://www.w3.org/2000/svg"
   xmlns:sodipodi="http://sodipodi.sourceforge.net/DTD/sodipodi-0.dtd"
   xmlns:inkscape="http://www.inkscape.org/namespaces/inkscape"
   height="100%"
   width="100%"
   version="1.1"
   id="svg2"
   viewBox="0 0 512 512"
   inkscape:version="0.91 r"
   sodipodi:docname="mail_replyall.svg">
  <sodipodi:namedview
     pagecolor="#ffffff"
     bordercolor="#666666"
     borderopacity="1"
     objecttolerance="10"
     gridtolerance="10"
     guidetolerance="10"
     inkscape:pageopacity="0"
     inkscape:pageshadow="2"
     inkscape:window-width="640"
     inkscape:window-height="480"
     id="namedview8"
     showgrid="false"
     inkscape:zoom="0.4609375"
     inkscape:cx="256"
     inkscape:cy="256"
     inkscape:window-x="0"
     inkscape:window-y="0"
     inkscape:window-maximized="0"
     inkscape:current-layer="svg2" />
  <metadata
     id="metadata102">
    <rdf:RDF>
      <cc:Work
         rdf:about="">
        <dc:format>image/svg+xml</dc:format>
        <dc:type
           rdf:resource="http://purl.org/dc/dcmitype/StillImage" />
        <dc:title />
      </cc:Work>
    </rdf:RDF>
  </metadata>
  <defs
     id="defs100" />
  <path
     id="path1484"
     d="m 90.78621,97.86785 177.21734,155.75743 177.97552,-155.75743 -355.19286,0 z m -19.18536,16.87785 0,0.033 0,123.48515 c 18.36309,-10.97367 39.30704,-17.63603 62.13815,-17.63603 22.21739,0 42.60238,6.44427 60.62178,16.87785 l 7.68074,-9.19711 L 71.60085,114.7457 Z m 392.80539,0 -129.64952,113.56282 129.64952,145.76917 0,-259.33199 z M 133.739,239.022 c -57.51969,0 -104.33275,46.81305 -104.33275,104.33275 0,57.51968 46.81306,104.33275 104.33275,104.33275 57.5197,0 104.33275,-46.81307 104.33275,-104.33275 0,-57.5197 -46.81305,-104.33275 -104.33275,-104.33275 z m 86.69673,5.37321 -6.1314,6.92256 c 25.65433,22.53651 42.1946,55.40898 42.1946,92.03698 0,17.50385 -4.06895,34.01915 -10.74644,49.11715 l 202.53409,0 -132.71521,-148.04372 -47.53485,42.1946 -47.60079,-42.22757 z m -111.25531,37.61254 0,17.63602 -54.45741,45.26031 54.45741,45.29327 0,17.63603 -77.46666,-62.9293 77.46666,-62.89633 z m 21.49288,8.40595 0,0.033 0,33.75568 c 38.56741,3.48605 68.99362,18.34153 87.45491,64.44567 -27.00455,-22.51197 -54.28841,-30.25679 -87.45491,-26.10791 l 0,36.82138 -65.20385,-54.45744 65.20385,-54.49038 z"
     style="fill:#009688;fill-rule:evenodd" />
</svg>
