<?xml version="1.0" encoding="UTF-8" standalone="no"?>
<svg
   xmlns:dc="http://purl.org/dc/elements/1.1/"
   xmlns:cc="http://creativecommons.org/ns#"
   xmlns:rdf="http://www.w3.org/1999/02/22-rdf-syntax-ns#"
   xmlns:svg="http://www.w3.org/2000/svg"
   xmlns="http://www.w3.org/2000/svg"
   xmlns:sodipodi="http://sodipodi.sourceforge.net/DTD/sodipodi-0.dtd"
   xmlns:inkscape="http://www.inkscape.org/namespaces/inkscape"
   height="100%"
   width="100%"
   version="1.1"
   id="svg2"
   viewBox="0 0 512 512"
   inkscape:version="0.91 r"
   sodipodi:docname="svn-update.svg">
  <sodipodi:namedview
     pagecolor="#ffffff"
     bordercolor="#666666"
     borderopacity="1"
     objecttolerance="10"
     gridtolerance="10"
     guidetolerance="10"
     inkscape:pageopacity="0"
     inkscape:pageshadow="2"
     inkscape:window-width="640"
     inkscape:window-height="480"
     id="namedview8"
     showgrid="false"
     inkscape:zoom="0.4609375"
     inkscape:cx="256"
     inkscape:cy="256"
     inkscape:window-x="0"
     inkscape:window-y="0"
     inkscape:window-maximized="0"
     inkscape:current-layer="svg2" />
  <metadata
     id="metadata100">
    <rdf:RDF>
      <cc:Work
         rdf:about="">
        <dc:format>image/svg+xml</dc:format>
        <dc:type
           rdf:resource="http://purl.org/dc/dcmitype/StillImage" />
        <dc:title />
      </cc:Work>
    </rdf:RDF>
  </metadata>
  <defs
     id="defs98" />
  <path
     id="path292"
     d="m 255.94967,56 c -86.12344,0 -155.37021,15.31569 -155.37021,33.84036 0,18.52466 69.27177,33.03463 155.37021,33.03463 86.12343,0 156.47807,-14.50997 156.47807,-33.03463 C 412.42774,71.31569 342.0481,56 255.94967,56 Z m -155.37021,45.38905 c -2.774949,3.24994 -4.397899,6.42873 -4.397899,9.90367 l 0,31.38962 c 0,24.47455 71.528279,44.58332 159.801679,44.58332 88.3484,0 159.80167,-20.10877 159.80167,-44.58332 l 0,-31.38962 c 0,-3.47494 -1.67294,-6.65373 -4.3979,-9.90367 -3.04994,17.92467 -71.24673,32.19533 -155.3702,32.19533 -84.14847,0 -152.29525,-14.24566 -155.3702,-32.19533 l -0.0671,0 z m 0.0671,62.74565 c -3.049939,3.39994 -4.397909,7.05947 -4.397909,10.7094 l 0,32.19534 c 0,24.49955 71.494719,43.74403 159.768109,43.74403 88.3484,0 159.80168,-19.24448 159.80168,-43.74403 l 0,-32.19534 c 0,-3.64993 -1.37296,-7.33446 -4.39791,-10.7094 -17.17469,19.37465 -80.22156,33.84036 -155.3702,33.84036 -74.99864,0 -138.22051,-14.46571 -155.3702,-33.84036 l -0.0336,0 z m 110.04829,124.55131 0,23.76882 0,21.45237 -49.11551,0 c -14.42474,0 -0.77215,13.05942 -0.77215,13.05942 l 87.45449,105.11325 c 0,0 4.04875,4.62717 9.19867,3.82718 l 0.0336,0.0336 c 1.72496,-0.27499 3.49651,-1.18006 5.37148,-3.05503 10.37481,-10.34981 84.39946,-108.974 84.39946,-108.974 0,0 12.87534,-13.02585 -4.59933,-13.02585 l -45.28834,0 0,-19.20306 0,-22.99667 -86.68234,0 z"
     style="fill:#009688" />
</svg>
