<?xml version="1.0" encoding="UTF-8" standalone="no"?>
<svg
   xmlns:dc="http://purl.org/dc/elements/1.1/"
   xmlns:cc="http://creativecommons.org/ns#"
   xmlns:rdf="http://www.w3.org/1999/02/22-rdf-syntax-ns#"
   xmlns:svg="http://www.w3.org/2000/svg"
   xmlns="http://www.w3.org/2000/svg"
   xmlns:xlink="http://www.w3.org/1999/xlink"
   xmlns:sodipodi="http://sodipodi.sourceforge.net/DTD/sodipodi-0.dtd"
   xmlns:inkscape="http://www.inkscape.org/namespaces/inkscape"
   height="100%"
   width="100%"
   version="1.1"
   id="svg2"
   viewBox="0 0 512 512"
   inkscape:version="0.91 r"
   sodipodi:docname="gnome-session-switch.svg">
  <sodipodi:namedview
     pagecolor="#ffffff"
     bordercolor="#666666"
     borderopacity="1"
     objecttolerance="10"
     gridtolerance="10"
     guidetolerance="10"
     inkscape:pageopacity="0"
     inkscape:pageshadow="2"
     inkscape:window-width="640"
     inkscape:window-height="480"
     id="namedview10"
     showgrid="false"
     inkscape:zoom="0.4609375"
     inkscape:cx="256"
     inkscape:cy="256"
     inkscape:window-x="0"
     inkscape:window-y="0"
     inkscape:window-maximized="0"
     inkscape:current-layer="svg2" />
  <metadata
     id="metadata100">
    <rdf:RDF>
      <cc:Work
         rdf:about="">
        <dc:format>image/svg+xml</dc:format>
        <dc:type
           rdf:resource="http://purl.org/dc/dcmitype/StillImage" />
        <dc:title />
      </cc:Work>
    </rdf:RDF>
  </metadata>
  <defs
     id="defs98" />
  <path
     style="fill:#009688"
     id="0"
     d="m 300.43966,41 c -0.356,0.019 -0.74,0.105 -1.125,0.156 -2.13,0.277 -4.404,1.243 -5.094,2.188 -0.952,1.302 -1.281,8.393 -1.281,29.375 0,10.1 -0.023,19.485 -0.063,28.563 l -192.69,0 c -20.731002,0 -37.409997,16.707 -37.409997,37.438 l 0,8.313 c 0,20.731 16.674995,37.438 37.409997,37.438 l 192.34,0 c 0.05,9.285 0.168,17.97 0.406,26.19 0,22.897 0.323,30.405 1.281,31.719 0.69,0.945 3.061,1.952 5.281,2.25 3.36,0.451 4.977,0.04 9.719,-2.656 46.08,-30.881 81.34,-54.41 131.03,-87.62 6.992,-3.929 8.969,-6.481 8.969,-11.5 0,-5.962 -1.158,-7.03 -20.969,-19.5 l -119.41,-79.66 c -3.923,-2.109 -5.91,-2.792 -8.406,-2.656 l 0,-0.031" />
  <path
     style="fill:#009688"
     id="path250"
     d="m 210.21966,259.77 c 0.356,0.019 0.74,0.105 1.125,0.156 2.13,0.277 4.404,1.243 5.094,2.188 0.952,1.302 1.281,8.393 1.281,29.375 0,10.1 0.023,19.485 0.063,28.563 l 192.69,0 c 20.731,0 37.41,16.707 37.41,37.438 l 0,8.313 c 0,20.731 -16.675,37.438 -37.41,37.438 l -192.34,0 c -0.05,9.285 -0.168,17.97 -0.406,26.19 0,22.897 -0.323,30.405 -1.281,31.719 -0.69,0.945 -3.061,1.952 -5.281,2.25 -3.36,0.451 -4.977,0.039 -9.719,-2.656 -46.08,-30.881 -81.34,-54.41 -131.029997,-87.62 -6.992,-3.929 -8.969,-6.481 -8.969,-11.5 0,-5.962 1.158,-7.03 20.968995,-19.5 l 119.410002,-79.66 c 3.923,-2.109 5.91,-2.792 8.406,-2.656 l 0,-0.031" />
  <use
     xlink:href="#0"
     height="1"
     width="1"
     y="0"
     x="0"
     id="use252" />
</svg>
