<?xml version="1.0" encoding="UTF-8" standalone="no"?>
<svg
   xmlns:dc="http://purl.org/dc/elements/1.1/"
   xmlns:cc="http://creativecommons.org/ns#"
   xmlns:rdf="http://www.w3.org/1999/02/22-rdf-syntax-ns#"
   xmlns:svg="http://www.w3.org/2000/svg"
   xmlns="http://www.w3.org/2000/svg"
   xmlns:sodipodi="http://sodipodi.sourceforge.net/DTD/sodipodi-0.dtd"
   xmlns:inkscape="http://www.inkscape.org/namespaces/inkscape"
   height="512"
   viewBox="0 0 512 512"
   width="512"
   version="1.1"
   id="svg2"
   inkscape:version="0.91 r13725"
   sodipodi:docname="system-reboot.svg">
  <defs
     id="defs82" />
  <sodipodi:namedview
     pagecolor="#ffffff"
     bordercolor="#666666"
     borderopacity="1"
     objecttolerance="10"
     gridtolerance="10"
     guidetolerance="10"
     inkscape:pageopacity="0"
     inkscape:pageshadow="2"
     inkscape:window-width="1920"
     inkscape:window-height="1018"
     id="namedview80"
     showgrid="false"
     inkscape:zoom="0.4609375"
     inkscape:cx="-517.42372"
     inkscape:cy="256"
     inkscape:window-x="0"
     inkscape:window-y="0"
     inkscape:window-maximized="1"
     inkscape:current-layer="svg2" />
  <metadata
     id="metadata158">
    <rdf:RDF>
      <cc:Work
         rdf:about="">
        <dc:format>image/svg+xml</dc:format>
        <dc:type
           rdf:resource="http://purl.org/dc/dcmitype/StillImage" />
      </cc:Work>
    </rdf:RDF>
  </metadata>
  <text
     style="font-size:208.33000183px;line-height:125%;font-family:'Gentium Book Basic';letter-spacing:0;word-spacing:0"
     sodipodi:linespacing="125%"
     letter-spacing="0"
     word-spacing="0"
     x="-1160.48"
     y="549.52002"
     line-height="125%"
     font-size="208.33"
     id="text8">
    <tspan
       x="-1160.48"
       y="549.52002"
       id="tspan10" />
  </text>
  <text
     style="font-size:75.69999695px;font-family:Arial;text-anchor:middle"
     x="28.533854"
     y="1642.2427"
     transform="scale(4.0128205,0.24920128)"
     font-size="75.7"
     id="text12" />
  <text
     style="font-size:208.33000183px;line-height:125%;font-family:'Gentium Book Basic';letter-spacing:0;word-spacing:0"
     sodipodi:linespacing="125%"
     letter-spacing="0"
     word-spacing="0"
     x="-454.14001"
     y="393.89001"
     line-height="125%"
     font-size="208.33"
     id="text14">
    <tspan
       x="-454.14001"
       y="393.89001"
       id="tspan16" />
  </text>
  <text
     style="font-size:75.69999695px;font-family:Arial;text-anchor:middle"
     x="204.54895"
     y="1017.7161"
     transform="scale(4.0128205,0.24920128)"
     font-size="75.7"
     id="text18" />
  <text
     style="font-size:208.33000183px;line-height:125%;font-family:'Gentium Book Basic';letter-spacing:0;word-spacing:0"
     sodipodi:linespacing="125%"
     letter-spacing="0"
     word-spacing="0"
     x="-420.76999"
     y="385.77002"
     line-height="125%"
     font-size="208.33"
     id="text20">
    <tspan
       x="-420.76999"
       y="385.77002"
       id="tspan22" />
  </text>
  <text
     style="font-size:75.69999695px;font-family:Arial;text-anchor:middle"
     x="212.86891"
     y="985.11615"
     transform="scale(4.0128205,0.24920128)"
     font-size="75.7"
     id="text24" />
  <text
     style="font-size:61.50999832px;line-height:125%;font-family:'Gentium Book Basic';letter-spacing:0;word-spacing:0"
     sodipodi:linespacing="125%"
     letter-spacing="0"
     word-spacing="0"
     x="-163.95"
     y="117.31999"
     line-height="125%"
     font-size="61.51"
     id="text26">
    <tspan
       x="-163.95"
       y="117.31999"
       id="tspan28" />
  </text>
  <text
     style="font-size:22.34900093px;font-family:Arial;text-anchor:middle"
     x="52.950729"
     y="304.60962"
     transform="scale(4.0128205,0.24920128)"
     font-size="22.349"
     id="text30" />
  <text
     style="font-size:208.33000183px;line-height:125%;font-family:'Gentium Book Basic';letter-spacing:0;word-spacing:0"
     sodipodi:linespacing="125%"
     letter-spacing="0"
     word-spacing="0"
     x="-474.79001"
     y="484.08997"
     line-height="125%"
     font-size="208.33"
     id="text32">
    <tspan
       x="-474.79001"
       y="484.08997"
       id="tspan34" />
  </text>
  <text
     style="font-size:75.69999695px;font-family:Arial;text-anchor:middle"
     x="199.40898"
     y="1379.6842"
     transform="scale(4.0128205,0.24920128)"
     font-size="75.7"
     id="text36" />
  <text
     style="font-size:208.33000183px;line-height:125%;font-family:'Gentium Book Basic';letter-spacing:0;word-spacing:0"
     sodipodi:linespacing="125%"
     letter-spacing="0"
     word-spacing="0"
     x="231.56"
     y="328.46002"
     line-height="125%"
     font-size="208.33"
     id="text38">
    <tspan
       x="231.56"
       y="328.46002"
       id="tspan40" />
  </text>
  <text
     style="font-size:75.69999695px;font-family:Arial;text-anchor:middle"
     x="375.42807"
     y="755.16736"
     transform="scale(4.0128205,0.24920128)"
     font-size="75.7"
     id="text42" />
  <text
     style="font-size:208.33000183px;line-height:125%;font-family:'Gentium Book Basic';letter-spacing:0;word-spacing:0"
     sodipodi:linespacing="125%"
     letter-spacing="0"
     word-spacing="0"
     x="264.92999"
     y="320.34003"
     line-height="125%"
     font-size="208.33"
     id="text44">
    <tspan
       x="264.92999"
       y="320.34003"
       id="tspan46" />
  </text>
  <text
     style="font-size:75.69999695px;font-family:Arial;text-anchor:middle"
     x="383.74805"
     y="722.56744"
     transform="scale(4.0128205,0.24920128)"
     font-size="75.7"
     id="text48" />
  <text
     style="font-size:208.33000183px;line-height:125%;font-family:'Gentium Book Basic';letter-spacing:0;word-spacing:0"
     sodipodi:linespacing="125%"
     letter-spacing="0"
     word-spacing="0"
     x="-1157.49"
     y="509.78003"
     line-height="125%"
     font-size="208.33"
     id="text52">
    <tspan
       x="-1157.49"
       y="509.78003"
       id="tspan54" />
  </text>
  <text
     style="font-size:75.69999695px;font-family:Arial;text-anchor:middle"
     x="29.27985"
     y="1482.7535"
     transform="scale(4.0128205,0.24920128)"
     font-size="75.7"
     id="text56" />
  <text
     style="font-size:208.33000183px;line-height:125%;font-family:'Gentium Book Basic';letter-spacing:0;word-spacing:0"
     sodipodi:linespacing="125%"
     letter-spacing="0"
     word-spacing="0"
     x="-451.14999"
     y="354.15002"
     line-height="125%"
     font-size="208.33"
     id="text58">
    <tspan
       x="-451.14999"
       y="354.15002"
       id="tspan60" />
  </text>
  <text
     style="font-size:75.69999695px;font-family:Arial;text-anchor:middle"
     x="205.29895"
     y="858.23694"
     transform="scale(4.0128205,0.24920128)"
     font-size="75.7"
     id="text62" />
  <text
     style="font-size:208.33000183px;line-height:125%;font-family:'Gentium Book Basic';letter-spacing:0;word-spacing:0"
     sodipodi:linespacing="125%"
     letter-spacing="0"
     word-spacing="0"
     x="-417.78"
     y="346.02002"
     line-height="125%"
     font-size="208.33"
     id="text64">
    <tspan
       x="-417.78"
       y="346.02002"
       id="tspan66" />
  </text>
  <text
     style="font-size:75.69999695px;font-family:Arial;text-anchor:middle"
     x="213.6189"
     y="825.63696"
     transform="scale(4.0128205,0.24920128)"
     font-size="75.7"
     id="text68" />
  <text
     style="font-size:208.33000183px;line-height:125%;font-family:'Gentium Book Basic';letter-spacing:0;word-spacing:0"
     sodipodi:linespacing="125%"
     letter-spacing="0"
     word-spacing="0"
     line-height="125%"
     x="-1065.35"
     y="389.69449"
     font-size="208.33"
     transform="matrix(0.8660254,0.5,-0.5,0.8660254,0,0)"
     id="text70">
    <tspan
       x="-1065.35"
       y="389.69449"
       id="tspan72" />
  </text>
  <text
     style="font-size:75.69999695px;font-family:Arial;text-anchor:middle"
     x="52.239307"
     y="1000.8642"
     transform="matrix(3.4752341,2.0064197,-0.12460122,0.21581212,0,0)"
     font-size="75.7"
     id="text74" />
  <text
     style="font-size:208.33000183px;line-height:125%;font-family:'Gentium Book Basic';letter-spacing:0;word-spacing:0"
     sodipodi:linespacing="125%"
     letter-spacing="0"
     word-spacing="0"
     line-height="125%"
     x="-359.01001"
     y="234.06454"
     font-size="208.33"
     transform="matrix(0.8660254,0.5,-0.5,0.8660254,0,0)"
     id="text76">
    <tspan
       x="-359.01001"
       y="234.06454"
       id="tspan78" />
  </text>
  <text
     style="font-size:75.69999695px;font-family:Arial;text-anchor:middle"
     x="228.25757"
     y="376.35034"
     transform="matrix(3.4752341,2.0064197,-0.12460122,0.21581212,0,0)"
     font-size="75.7"
     id="text80" />
  <text
     style="font-size:208.33000183px;line-height:125%;font-family:'Gentium Book Basic';letter-spacing:0;word-spacing:0"
     sodipodi:linespacing="125%"
     letter-spacing="0"
     word-spacing="0"
     line-height="125%"
     x="-325.63"
     y="225.94449"
     font-size="208.33"
     transform="matrix(0.8660254,0.5,-0.5,0.8660254,0,0)"
     id="text82">
    <tspan
       x="-325.63"
       y="225.94449"
       id="tspan84" />
  </text>
  <text
     style="font-size:75.69999695px;font-family:Arial;text-anchor:middle"
     x="236.5775"
     y="343.75055"
     transform="matrix(3.4752341,2.0064197,-0.12460122,0.21581212,0,0)"
     font-size="75.7"
     id="text86" />
  <text
     style="font-size:61.50999832px;line-height:125%;font-family:'Gentium Book Basic';letter-spacing:0;word-spacing:0"
     sodipodi:linespacing="125%"
     letter-spacing="0"
     word-spacing="0"
     line-height="125%"
     x="-68.82"
     y="-42.495487"
     font-size="61.51"
     transform="matrix(0.8660254,0.5,-0.5,0.8660254,0,0)"
     id="text88">
    <tspan
       x="-68.82"
       y="-42.495487"
       id="tspan90" />
  </text>
  <text
     style="font-size:22.34900093px;font-family:Arial;text-anchor:middle"
     x="76.659073"
     y="-336.75266"
     transform="matrix(3.4752341,2.0064197,-0.12460122,0.21581212,0,0)"
     font-size="22.349"
     id="text92" />
  <text
     style="font-size:129.22999573px;line-height:125%;font-family:'Gentium Book Basic';letter-spacing:0;word-spacing:0"
     sodipodi:linespacing="125%"
     letter-spacing="0"
     word-spacing="0"
     x="729.64001"
     y="231.35997"
     line-height="125%"
     font-size="129.23"
     id="text106">
    <tspan
       x="729.64001"
       y="231.35997"
       id="tspan108" />
  </text>
  <text
     style="font-size:46.95399857px;font-family:Arial;text-anchor:middle"
     x="378.90805"
     y="579.25812"
     transform="scale(4.0128205,0.24920128)"
     font-size="46.954"
     id="text110" />
  <text
     style="font-size:129.22999573px;line-height:125%;font-family:'Gentium Book Basic';letter-spacing:0;word-spacing:0"
     sodipodi:linespacing="125%"
     letter-spacing="0"
     word-spacing="0"
     x="1310.91"
     y="151.35997"
     line-height="125%"
     font-size="129.23"
     id="text112">
    <tspan
       x="1310.91"
       y="151.35997"
       id="tspan114" />
  </text>
  <text
     style="font-size:46.95399857px;font-family:Arial;text-anchor:middle"
     x="523.75732"
     y="258.21997"
     transform="scale(4.0128205,0.24920128)"
     font-size="46.954"
     id="text116" />
  <text
     style="font-size:129.22999573px;line-height:125%;font-family:'Gentium Book Basic';letter-spacing:0;word-spacing:0"
     sodipodi:linespacing="125%"
     letter-spacing="0"
     word-spacing="0"
     x="239.33"
     y="-29.900009"
     line-height="125%"
     font-size="129.23"
     id="text118">
    <tspan
       x="239.33"
       y="-29.900009"
       id="tspan120" />
  </text>
  <text
     style="font-size:46.95399857px;font-family:Arial;text-anchor:middle"
     x="256.71869"
     y="-469.1264"
     transform="scale(4.0128205,0.24920128)"
     font-size="46.954"
     id="text122" />
  <text
     style="font-size:129.22999573px;line-height:125%;font-family:'Gentium Book Basic';letter-spacing:0;word-spacing:0"
     sodipodi:linespacing="125%"
     letter-spacing="0"
     word-spacing="0"
     x="1337.38"
     y="-246.37001"
     line-height="125%"
     font-size="129.23"
     id="text124">
    <tspan
       x="1337.38"
       y="-246.37001"
       id="tspan126" />
  </text>
  <text
     style="font-size:46.95399857px;font-family:Arial;text-anchor:middle"
     x="530.3573"
     y="-1337.802"
     transform="scale(4.0128205,0.24920128)"
     font-size="46.954"
     id="text128" />
  <text
     style="font-size:129.22999573px;line-height:125%;font-family:'Gentium Book Basic';letter-spacing:0;word-spacing:0"
     sodipodi:linespacing="125%"
     letter-spacing="0"
     word-spacing="0"
     x="1918.65"
     y="-326.37"
     line-height="125%"
     font-size="129.23"
     id="text130">
    <tspan
       x="1918.65"
       y="-326.37"
       id="tspan132" />
  </text>
  <text
     style="font-size:46.95399857px;font-family:Arial;text-anchor:middle"
     x="675.20654"
     y="-1658.8303"
     transform="scale(4.0128205,0.24920128)"
     font-size="46.954"
     id="text134" />
  <text
     style="font-size:129.22999573px;line-height:125%;font-family:'Gentium Book Basic';letter-spacing:0;word-spacing:0"
     sodipodi:linespacing="125%"
     letter-spacing="0"
     word-spacing="0"
     x="1529.53"
     y="-798.77002"
     line-height="125%"
     font-size="129.23"
     id="text136">
    <tspan
       x="1529.53"
       y="-798.77002"
       id="tspan138" />
  </text>
  <text
     style="font-size:46.95399857px;font-family:Arial;text-anchor:middle"
     x="578.237"
     y="-3554.4807"
     transform="scale(4.0128205,0.24920128)"
     font-size="46.954"
     id="text140" />
  <text
     style="font-size:129.22999573px;line-height:125%;font-family:'Gentium Book Basic';letter-spacing:0;word-spacing:0"
     sodipodi:linespacing="125%"
     letter-spacing="0"
     word-spacing="0"
     x="2110.79"
     y="-878.78003"
     line-height="125%"
     font-size="129.23"
     id="text142">
    <tspan
       x="2110.79"
       y="-878.78003"
       id="tspan144" />
  </text>
  <text
     style="font-size:46.95399857px;font-family:Arial;text-anchor:middle"
     x="723.0863"
     y="-3875.519"
     transform="scale(4.0128205,0.24920128)"
     font-size="46.954"
     id="text146" />
  <text
     style="font-size:208.33000183px;line-height:125%;font-family:'Gentium Book Basic';letter-spacing:0;word-spacing:0"
     sodipodi:linespacing="125%"
     letter-spacing="0"
     word-spacing="0"
     x="277.98999"
     y="535.94006"
     line-height="125%"
     font-size="208.33"
     id="text148">
    <tspan
       x="277.98999"
       y="535.94006"
       id="tspan150" />
  </text>
  <path
     style="fill:#009688"
     inkscape:connector-curvature="0"
     d="m 162.19038,385.76862 c 9.80275,6.60091 17.00122,10.52177 28.73495,15.6546 5.33601,2.33255 22.96486,7.79844 29.169,9.04528 10.28971,2.06683 22.07032,3.31127 31.54965,3.33291 9.18353,0.0204 26.7162,-1.98267 35.60158,-4.06875 5.87828,-1.3803 25.0834,-7.86818 29.69081,-10.0312 17.63245,-8.27578 27.84641,-15.13037 39.70158,-26.6561 l 9.17272,-8.91061 -0.31502,-2.4588 c -0.29817,-2.32174 -1.39351,-3.53612 -19.73416,-21.88276 -17.58916,-17.58918 -19.61632,-19.442 -21.51845,-19.6019 -2.97101,-0.25851 -6.10672,1.18069 -9.14626,4.19739 -4.76011,4.72524 -17.20322,13.08036 -23.70192,15.91551 -4.8575,2.11853 -17.92824,6.36644 -20.30528,6.59849 -1.5318,0.14909 -4.67114,0.63244 -6.97604,1.07249 -8.05454,1.53901 -26.52382,0.59277 -34.61445,-1.77466 -0.94503,-0.27654 -3.47357,-0.99314 -5.61977,-1.59312 -15.32155,-4.28037 -34.14312,-17.0445 -44.39916,-30.10683 -7.55076,-9.61759 -14.06028,-21.72645 -16.6309,-30.92203 -0.59997,-2.14619 -1.31176,-4.68074 -1.58229,-5.63061 -1.13141,-3.97015 -2.39629,-14.72877 -2.49729,-21.23348 -0.0986,-6.37366 1.25647,-19.0392 2.48766,-23.24743 0.27654,-0.94384 0.99315,-3.47359 1.59312,-5.61978 3.35095,-11.99344 12.92285,-27.99791 22.66428,-37.89565 4.2912,-4.35972 15.87102,-13.0948 20.01431,-15.09791 1.76145,-0.85126 3.5217,-1.85883 3.91126,-2.23997 1.07249,-1.04846 13.90757,-5.82659 20.03595,-7.45937 4.24069,-1.13022 14.60494,-2.5514 15.08708,-2.06926 0.28977,0.28977 0.7683,0.28497 1.06288,-0.01 0.9715,-0.9715 15.20129,-0.37152 21.81062,0.92101 3.56857,0.69736 7.13233,1.28771 7.92108,1.31296 0.78874,0.0253 1.67367,0.28736 1.96823,0.58073 0.29458,0.29458 1.6376,0.76471 2.98664,1.04604 1.34905,0.28136 3.67199,1.06048 5.1641,1.7314 7.56518,3.40624 14.91634,7.2742 17.30661,9.09696 l 2.67283,2.0428 -17.04091,17.0409 c -13.0046,13.00461 -17.10221,17.44008 -17.30299,18.729 -0.14429,0.92821 0.63123,2.85798 1.72296,4.28878 1.65202,2.16423 2.83634,2.83393 7.0614,3.99661 43.70541,8.63047 77.09465,15.30231 124.19068,24.65779 6.20293,1.7398 8.78076,1.42357 11.63152,-1.4272 3.38583,-3.38582 3.34014,-4.64227 -0.8272,-22.9769 L 392.30205,111.02334 c -1.17831,-3.91485 -1.9899,-5.31559 -3.96656,-6.83777 -1.36707,-1.05325 -3.24515,-1.7963 -4.17336,-1.65202 -1.2805,0.19838 -5.4767,4.05071 -17.3944,15.9684 l -15.70267,15.70269 -3.16338,-3.16338 c -5.75926,-5.75926 -25.48982,-17.23688 -37.0444,-21.5437 -10.37146,-3.86676 -13.84265,-4.98013 -21.84669,-7.00609 -4.87071,-1.23241 -9.13304,-2.21353 -9.4721,-2.17866 -0.33907,0.0349 -3.10087,-0.430442 -6.13559,-1.031617 -7.18404,-1.424789 -36.19073,-1.433201 -43.29661,-0.01205 -3.04074,0.608393 -5.84823,1.058064 -6.23658,0.999154 -1.34423,-0.2032 -15.0967,3.48201 -22.39016,5.99973 -4.02666,1.38991 -8.31665,2.85196 -9.53463,3.24754 -4.60861,1.50053 -22.76168,11.42834 -30.02387,16.4205 -6.42776,4.41862 -9.6188,7.26218 -21.28641,18.9406 -14.4883,14.51236 -20.08043,21.56294 -25.69661,32.42617 -1.27569,2.46601 -2.68965,4.85749 -3.14294,5.30837 -0.70578,0.70578 -2.49848,4.45591 -5.11479,10.69971 -1.08452,2.58625 -7.132343,20.36179 -7.888623,23.1813 -3.059976,11.4139 -5.048664,27.94259 -4.90919,40.79452 0.09618,8.79879 1.799922,25.51386 2.949365,28.95257 0.396778,1.18672 0.795955,2.91811 0.886138,3.84752 0.280142,2.89405 6.59608,22.57531 8.98515,27.99912 4.22265,9.58392 8.1339,16.62008 14.76005,26.55989 4.95487,7.42932 6.68866,9.39396 19.76903,22.39858 11.82511,11.75657 15.49948,15.03658 20.96897,18.71938"
     id="path152" />
</svg>
