<?xml version="1.0" encoding="UTF-8" standalone="no"?>
<svg
   xmlns:dc="http://purl.org/dc/elements/1.1/"
   xmlns:cc="http://creativecommons.org/ns#"
   xmlns:rdf="http://www.w3.org/1999/02/22-rdf-syntax-ns#"
   xmlns:svg="http://www.w3.org/2000/svg"
   xmlns="http://www.w3.org/2000/svg"
   xmlns:sodipodi="http://sodipodi.sourceforge.net/DTD/sodipodi-0.dtd"
   xmlns:inkscape="http://www.inkscape.org/namespaces/inkscape"
   height="100%"
   width="100%"
   version="1.1"
   id="svg2"
   viewBox="0 0 512 512"
   inkscape:version="0.91 r"
   sodipodi:docname="tab-detach.svg">
  <sodipodi:namedview
     pagecolor="#ffffff"
     bordercolor="#666666"
     borderopacity="1"
     objecttolerance="10"
     gridtolerance="10"
     guidetolerance="10"
     inkscape:pageopacity="0"
     inkscape:pageshadow="2"
     inkscape:window-width="640"
     inkscape:window-height="480"
     id="namedview8"
     showgrid="false"
     inkscape:zoom="0.4609375"
     inkscape:cx="256"
     inkscape:cy="256"
     inkscape:window-x="0"
     inkscape:window-y="0"
     inkscape:window-maximized="0"
     inkscape:current-layer="svg2" />
  <metadata
     id="metadata100">
    <rdf:RDF>
      <cc:Work
         rdf:about="">
        <dc:format>image/svg+xml</dc:format>
        <dc:type
           rdf:resource="http://purl.org/dc/dcmitype/StillImage" />
        <dc:title />
      </cc:Work>
    </rdf:RDF>
  </metadata>
  <defs
     id="defs98" />
  <path
     id="path652"
     d="m 224.63147,80.03723 c -12.93948,0 -20.84084,11.80396 -23.44541,25.38937 l -7.80531,40.38147 130.86422,0 c 12.93948,0 20.96586,11.76229 23.4454,25.38937 l 31.25072,171.27513 c 27.58754,0.0625 54.95061,-0.14791 82.05891,-0.64799 L 417.37859,105.45606 C 414.87821,91.82897 407.52066,80.03723 394.58118,80.03723 l -169.94971,0 z m 65.35847,89.27515 0,0.0294 -169.74353,0 c -12.91864,0 -20.98811,11.53888 -23.59268,25.12429 L 51,431.92444 c 108.76658,-2.0003 208.28401,1.2826 305.67385,-0.53018 L 313.0819,194.43665 c -2.50038,-13.60623 -10.15249,-25.12427 -23.09196,-25.12427 z"
     style="fill:#009688" />
</svg>
