<?xml version="1.0" encoding="UTF-8" standalone="no"?>
<svg
   xmlns:dc="http://purl.org/dc/elements/1.1/"
   xmlns:cc="http://creativecommons.org/ns#"
   xmlns:rdf="http://www.w3.org/1999/02/22-rdf-syntax-ns#"
   xmlns:svg="http://www.w3.org/2000/svg"
   xmlns="http://www.w3.org/2000/svg"
   xmlns:sodipodi="http://sodipodi.sourceforge.net/DTD/sodipodi-0.dtd"
   xmlns:inkscape="http://www.inkscape.org/namespaces/inkscape"
   height="100%"
   width="100%"
   version="1.1"
   id="svg2"
   viewBox="0 0 512 512"
   inkscape:version="0.91 r"
   sodipodi:docname="user-properties.svg">
  <sodipodi:namedview
     pagecolor="#ffffff"
     bordercolor="#666666"
     borderopacity="1"
     objecttolerance="10"
     gridtolerance="10"
     guidetolerance="10"
     inkscape:pageopacity="0"
     inkscape:pageshadow="2"
     inkscape:window-width="640"
     inkscape:window-height="480"
     id="namedview8"
     showgrid="false"
     inkscape:zoom="0.4609375"
     inkscape:cx="256"
     inkscape:cy="256"
     inkscape:window-x="0"
     inkscape:window-y="0"
     inkscape:window-maximized="0"
     inkscape:current-layer="svg2" />
  <metadata
     id="metadata100">
    <rdf:RDF>
      <cc:Work
         rdf:about="">
        <dc:format>image/svg+xml</dc:format>
        <dc:type
           rdf:resource="http://purl.org/dc/dcmitype/StillImage" />
        <dc:title />
      </cc:Work>
    </rdf:RDF>
  </metadata>
  <defs
     id="defs98" />
  <path
     id="path3504"
     d="m 215.00591,54.73162 c -50.03331,0 -90.71875,40.21542 -90.71875,90.25001 0,50.03331 40.68544,90.71875 90.71875,90.71875 50.03331,0 90.75,-40.68544 90.75,-90.71875 0,-50.03332 -40.71669,-90.25001 -90.75,-90.25001 z m -70.875,203.65626 c -1.91401,-0.0274 -3.82331,0.0695 -5.71875,0.25 -45.47408,4.33208 -84.36973,67.2658 -70.71875,140 l 10.25,56.09375 137.0625,0 88.9375,0 c -2.61928,-5.41297 -3.54108,-11.76939 -2.375,-17.59375 -4.98831,1.63404 -10.72414,3.48344 -16.28125,2.625 -13.7834,-1.57024 -19.70814,-15.99779 -25.625,-26.53125 -8.71676,-11.27887 -3.08848,-27.77067 7.65625,-35.4375 -5.41248,-2.23636 -10.42267,-5.74564 -13.84375,-10.53125 -8.13735,-10.64965 -1.89869,-24.70282 1.1875,-36.0625 1.82593,-14.19729 17.34903,-21.90615 30.5,-19.53125 -2.24442,-5.62575 -3.19292,-11.93694 -1.96875,-17.9375 2.68121,-13.84817 17.62939,-19.08686 28.5,-24.90625 1.30435,-0.92957 2.66144,-1.65067 4.0625,-2.1875 -21.5395,-12.50094 -47.03891,-11.74439 -70.03125,9.0625 -29.35,26.56346 -32.11368,26.56346 -61.46875,0 -12.97497,-11.74254 -26.72694,-17.12077 -40.125,-17.3125 z m 223.5,17.0625 c -2.86734,0.0529 -5.27934,1.85988 -6.3125,4.46875 l -7.125,18.03125 c -4.68511,0.12883 -9.30206,0.75283 -13.78125,1.8125 l -11.5625,-15.5625 c -2.05873,-2.77113 -5.81077,-3.86722 -9.15625,-1.9375 l -17.78125,10.28125 c -3.34422,1.93081 -4.21775,5.66961 -2.9375,8.875 l 7.25,18.09375 c -6.73324,8.45386 -8.42781,10.91186 -8.40625,10.875 l -19.1875,-2.84375 c -3.4151,-0.50384 -6.81329,1.39592 -7.8125,5.125 l -5.3125,19.84375 c -0.99948,3.73013 1.04564,6.98042 4.21875,8.34375 l 17.96875,7.71875 c 0.14584,4.6316 0.75732,9.16405 1.8125,13.59375 l -15.4375,11.46875 c -2.77112,2.05872 -3.836,5.84202 -1.90625,9.1875 l 10.25,17.78125 c 1.93083,3.34425 5.66783,4.18602 8.875,2.90625 l 18.03125,-7.1875 c 3.32508,3.12101 6.95167,5.94474 10.90625,8.375 l -2.8125,19.15625 c -0.50385,3.41513 1.39557,6.84445 5.125,7.84375 l 19.84375,5.3125 c 3.73015,0.99949 6.94918,-1.04562 8.3125,-4.21875 l 7.75,-18 c 4.5182,-0.15205 8.95448,-0.76526 13.28125,-1.78125 l 12.125,15.40625 c 2.13655,2.71161 5.81076,3.83599 9.15625,1.90625 l 17.78125,-10.25 c 3.34425,-1.93081 4.30799,-5.73779 2.9375,-8.90625 l -7.78125,-17.90625 c 3.0919,-3.28265 5.89441,-6.88193 8.3125,-10.78125 l 19.40625,2.28125 c 3.42798,0.40657 6.84445,-1.39557 7.84375,-5.125 l 5.3125,-19.8125 c 0.99949,-3.73014 -1.00783,-7.07215 -4.21875,-8.34375 l -18.09375,-7.1875 c -0.13674,-4.5571 -0.73419,-9.04218 -1.75,-13.40625 l 15.53125,-12.21875 c 2.71161,-2.13654 3.83598,-5.84204 1.90625,-9.1875 l -10.25,-17.78125 c -1.93082,-3.34425 -5.7076,-4.27703 -8.875,-2.90625 l -18.03125,7.78125 c -3.26521,-3.08383 -6.83973,-5.86481 -10.71875,-8.28125 l 2.3125,-19.46875 c 0.40656,-3.42798 -1.36256,-6.81273 -5.09375,-7.8125 l -19.84375,-5.3125 c -0.6994,-0.1874 -1.40081,-0.2622 -2.0625,-0.25 z m -12.6875,62.21875 c 2.82302,-0.11234 5.72144,0.19912 8.59375,0.96875 15.32042,4.10509 24.41721,19.8685 20.3125,35.1875 -4.10509,15.32042 -19.8685,24.38597 -35.1875,20.28125 -15.32041,-4.10509 -24.41722,-19.83724 -20.3125,-35.15625 3.33539,-12.44783 14.36065,-20.79446 26.59375,-21.28125 z"
     style="fill:#009688;fill-rule:evenodd" />
</svg>
