<?xml version="1.0" encoding="UTF-8" standalone="no"?>
<svg
   xmlns:dc="http://purl.org/dc/elements/1.1/"
   xmlns:cc="http://creativecommons.org/ns#"
   xmlns:rdf="http://www.w3.org/1999/02/22-rdf-syntax-ns#"
   xmlns:svg="http://www.w3.org/2000/svg"
   xmlns="http://www.w3.org/2000/svg"
   xmlns:sodipodi="http://sodipodi.sourceforge.net/DTD/sodipodi-0.dtd"
   xmlns:inkscape="http://www.inkscape.org/namespaces/inkscape"
   height="100%"
   width="100%"
   version="1.1"
   id="svg2"
   viewBox="0 0 512 512"
   inkscape:version="0.91 r"
   sodipodi:docname="view-calendar-upcoming-events.svg">
  <sodipodi:namedview
     pagecolor="#ffffff"
     bordercolor="#666666"
     borderopacity="1"
     objecttolerance="10"
     gridtolerance="10"
     guidetolerance="10"
     inkscape:pageopacity="0"
     inkscape:pageshadow="2"
     inkscape:window-width="640"
     inkscape:window-height="480"
     id="namedview8"
     showgrid="false"
     inkscape:zoom="0.4609375"
     inkscape:cx="256"
     inkscape:cy="256"
     inkscape:window-x="0"
     inkscape:window-y="0"
     inkscape:window-maximized="0"
     inkscape:current-layer="svg2" />
  <metadata
     id="metadata100">
    <rdf:RDF>
      <cc:Work
         rdf:about="">
        <dc:format>image/svg+xml</dc:format>
        <dc:type
           rdf:resource="http://purl.org/dc/dcmitype/StillImage" />
        <dc:title />
      </cc:Work>
    </rdf:RDF>
  </metadata>
  <defs
     id="defs98" />
  <path
     id="path3251"
     d="m 161.63994,50.91942 c -3.56212,-0.0513 -7.17105,1.19743 -10.22061,3.88885 -5.56116,4.8702 -5.52058,4.72125 -5.8025,32.58387 -0.15372,16.14853 0.0292,26.58515 0.61854,29.22531 1.10192,5.15215 4.11087,9.10746 8.36501,11.10679 7.50862,3.51168 16.98167,0.346 20.44126,-6.80549 1.69138,-3.48604 1.76243,-4.25252 1.53162,-31.93572 l -0.26509,-28.4004 -2.26797,-3.00502 c -3.30586,-4.33191 -7.80929,-6.57746 -12.37078,-6.62873 l -0.0294,-0.0295 z m 188.80175,0.0295 c -4.56157,0.0513 -9.03549,2.29682 -12.34134,6.62873 l -2.32688,3.00502 0,29.40208 0,29.34315 2.1207,3.24071 c 1.25572,1.89681 3.60126,3.89469 5.62577,4.91999 6.58607,3.25533 15.17812,1.50048 19.3809,-4.03616 3.43397,-4.51133 3.84585,-8.78337 3.56396,-36.0308 -0.28189,-27.86263 -0.24149,-27.71367 -5.80249,-32.58387 -3.04958,-2.69142 -6.65851,-3.94011 -10.22062,-3.88885 z M 110.41901,82.73734 c -14.60742,0 -20.16019,0.34788 -23.79904,1.29629 -15.4786,4.02431 -28.13352,15.91684 -33.48948,31.55272 l -1.79671,5.18514 -0.23563,148.07098 c -0.23045,165.04824 -0.55139,154.06528 5.41958,166.18949 6.04797,12.25237 18.446,21.7995 32.10513,24.74724 7.99535,1.71739 326.21921,1.74704 334.39411,0.0294 14.01781,-2.92211 26.39272,-12.34106 32.51749,-24.74724 5.97103,-12.12421 5.5913,-1.14124 5.36069,-166.18949 l -0.17672,-148.07098 -1.76727,-5.18513 c -5.35597,-15.63587 -18.01094,-27.55788 -33.48948,-31.58219 -3.63901,-0.94841 -9.22125,-1.23736 -23.82849,-1.23736 l -19.08637,0 0,15.4081 c 0,8.48438 -0.33015,17.47406 -0.7658,20.06294 -2.02452,12.40618 -10.45999,22.28202 -22.12014,25.89621 -5.20222,1.58923 -13.48475,1.52264 -18.37945,-0.11784 -9.81503,-3.28096 -17.34542,-10.78361 -20.67688,-20.65216 -1.07632,-3.2297 -1.296,-7.24032 -1.296,-22.18413 l 0,-18.32474 -63.32662,0 -63.26774,0 0,18.32474 c 0,14.94381 -0.28233,18.95443 -1.38436,22.18413 -7.79052,23.09497 -36.74467,29.67712 -53.01765,11.99063 -4.12585,-4.48571 -7.10436,-10.66775 -8.12937,-16.999 -0.4101,-2.56326 -0.76981,-11.63748 -0.79527,-20.12186 l 0,-15.4081 -19.02743,0 0.0589,-0.11785 z m -28.24663,109.86006 173.80954,0 173.839,0 0,111.21527 c 0,78.97401 -0.24296,112.08631 -0.88363,114.3676 -1.15321,4.17811 -6.51474,9.59981 -10.6919,10.75326 -2.3064,0.64082 -48.24873,0.90948 -162.64637,0.88383 -135.36035,-0.0256 -159.90054,-0.23385 -162.61693,-1.2079 -4.04913,-1.43541 -8.85743,-6.49326 -9.98499,-10.51757 -0.58946,-2.15314 -0.82472,-37.35581 -0.82472,-114.27922 l 0,-111.21527 z m 173.80954,14.99565 c -7.61536,2e-4 -14.10398,2.67649 -19.46926,8.04285 -6.57689,6.57857 -9.83774,15.15964 -9.83772,25.71946 -2e-5,11.25263 2.67565,24.41689 8.04101,39.47773 l 6.47993,18.44259 c 1.2115,3.11618 2.25675,6.74591 3.12215,10.90057 1.03843,4.15485 1.99166,8.83009 2.85707,14.02343 0.34613,2.07747 0.59269,4.23101 0.76581,6.48142 0.34611,2.25057 0.71416,4.58819 1.06036,7.01172 l 13.99076,0 c 2.07684,-16.27271 4.68997,-29.06883 7.80538,-38.41714 l 6.47992,-18.44259 c 5.36527,-15.06084 8.04093,-28.2251 8.04102,-39.47773 -9e-5,-11.07918 -2.83031,-19.66025 -8.54172,-25.71946 -5.36541,-5.36636 -12.31408,-8.04265 -20.7947,-8.04285 z m -0.50074,157.61634 c -6.92304,6e-5 -12.79703,2.42969 -17.64309,7.27687 -4.84612,4.84725 -7.27521,10.75203 -7.2752,17.6766 -2e-5,6.92462 2.42907,12.79992 7.2752,17.64714 4.84606,4.6741 10.72005,7.01172 17.64309,7.01172 7.26911,0 13.23509,-2.33762 17.90819,-7.01172 4.84605,-4.84722 7.27513,-10.72252 7.27521,-17.64714 -9e-5,-6.92457 -2.42917,-12.82935 -7.27521,-17.6766 -4.67309,-4.84718 -10.63907,-7.27681 -17.90817,-7.27687 z"
     style="fill:#009688" />
</svg>
