<?xml version="1.0" encoding="UTF-8" standalone="no"?>
<svg
   xmlns:dc="http://purl.org/dc/elements/1.1/"
   xmlns:cc="http://creativecommons.org/ns#"
   xmlns:rdf="http://www.w3.org/1999/02/22-rdf-syntax-ns#"
   xmlns:svg="http://www.w3.org/2000/svg"
   xmlns="http://www.w3.org/2000/svg"
   xmlns:sodipodi="http://sodipodi.sourceforge.net/DTD/sodipodi-0.dtd"
   xmlns:inkscape="http://www.inkscape.org/namespaces/inkscape"
   height="100%"
   width="100%"
   version="1.1"
   id="svg2"
   viewBox="0 0 512 512"
   inkscape:version="0.91 r"
   sodipodi:docname="view-list-group.svg">
  <sodipodi:namedview
     pagecolor="#ffffff"
     bordercolor="#666666"
     borderopacity="1"
     objecttolerance="10"
     gridtolerance="10"
     guidetolerance="10"
     inkscape:pageopacity="0"
     inkscape:pageshadow="2"
     inkscape:window-width="640"
     inkscape:window-height="480"
     id="namedview8"
     showgrid="false"
     inkscape:zoom="0.4609375"
     inkscape:cx="256"
     inkscape:cy="256"
     inkscape:window-x="0"
     inkscape:window-y="0"
     inkscape:window-maximized="0"
     inkscape:current-layer="svg2" />
  <metadata
     id="metadata133">
    <rdf:RDF>
      <cc:Work
         rdf:about="">
        <dc:format>image/svg+xml</dc:format>
        <dc:type
           rdf:resource="http://purl.org/dc/dcmitype/StillImage" />
        <dc:title />
      </cc:Work>
    </rdf:RDF>
  </metadata>
  <defs
     id="defs4" />
  <path
     style="fill:#009688"
     id="path8"
     d="m 106.92122,75.85745 c -30.87955,0 -55.92123,25.01828 -55.92123,55.88786 0,30.87954 25.04595,55.92122 55.92123,55.92122 30.87527,0 55.88786,-25.04594 55.88786,-55.92122 0,-30.87528 -25.01828,-55.88786 -55.88786,-55.88786 z m 149.07878,0 c -30.87953,0 -55.92123,25.01828 -55.92123,55.88786 0,30.87954 25.04595,55.92122 55.92123,55.92122 30.87955,0 55.92123,-25.04594 55.92123,-55.92122 0,-30.87528 -25.04595,-55.88786 -55.92123,-55.88786 z m 149.0788,0 c -30.87528,0 -55.88787,25.01828 -55.88787,55.88786 0,30.87954 25.01828,55.92122 55.88787,55.92122 30.87955,0 55.92121,-25.04594 55.92121,-55.92122 0,-30.87528 -25.04594,-55.88786 -55.92121,-55.88786 z m -323.01517,155.28483 0,49.68182 347.87274,0 0,-49.68182 -347.87274,0 z m 24.85759,93.19093 c -30.87955,0 -55.92123,25.01259 -55.92123,55.88785 0,30.87529 25.04595,55.92123 55.92123,55.92123 30.87527,0 55.88786,-25.05164 55.88786,-55.92123 0,-30.87954 -25.01828,-55.88785 -55.88786,-55.88785 z m 149.07878,0 c -30.87953,0 -55.88785,25.01259 -55.88785,55.88785 0,30.87529 25.01257,55.92123 55.88785,55.92123 30.87955,0 55.92123,-25.05164 55.92123,-55.92123 0,-30.87954 -25.04595,-55.88785 -55.92123,-55.88785 z m 149.11216,0 c -30.87527,0 -55.92123,25.01259 -55.92123,55.88785 0,30.87529 25.05164,55.92123 55.92123,55.92123 30.87955,0 55.88785,-25.05164 55.88785,-55.92123 0,-30.87954 -25.01258,-55.88785 -55.88785,-55.88785 z" />
</svg>
