<?xml version="1.0" encoding="UTF-8" standalone="no"?>
<svg
   xmlns:dc="http://purl.org/dc/elements/1.1/"
   xmlns:cc="http://creativecommons.org/ns#"
   xmlns:rdf="http://www.w3.org/1999/02/22-rdf-syntax-ns#"
   xmlns:svg="http://www.w3.org/2000/svg"
   xmlns="http://www.w3.org/2000/svg"
   xmlns:sodipodi="http://sodipodi.sourceforge.net/DTD/sodipodi-0.dtd"
   xmlns:inkscape="http://www.inkscape.org/namespaces/inkscape"
   height="100%"
   width="100%"
   version="1.1"
   id="svg2"
   viewBox="0 0 512 512"
   inkscape:version="0.91 r"
   sodipodi:docname="view-history.svg">
  <sodipodi:namedview
     pagecolor="#ffffff"
     bordercolor="#666666"
     borderopacity="1"
     objecttolerance="10"
     gridtolerance="10"
     guidetolerance="10"
     inkscape:pageopacity="0"
     inkscape:pageshadow="2"
     inkscape:window-width="640"
     inkscape:window-height="480"
     id="namedview8"
     showgrid="false"
     inkscape:zoom="0.4609375"
     inkscape:cx="256"
     inkscape:cy="256"
     inkscape:window-x="0"
     inkscape:window-y="0"
     inkscape:window-maximized="0"
     inkscape:current-layer="svg2" />
  <metadata
     id="metadata133">
    <rdf:RDF>
      <cc:Work
         rdf:about="">
        <dc:format>image/svg+xml</dc:format>
        <dc:type
           rdf:resource="http://purl.org/dc/dcmitype/StillImage" />
        <dc:title />
      </cc:Work>
    </rdf:RDF>
  </metadata>
  <defs
     id="defs4" />
  <path
     d="m 78.82325,55.99964 c -2.32486,0 -4.24974,1.69989 -4.24974,3.74976 l 0,19.2738 c 0,2.04987 1.92488,3.64977 4.24974,3.64977 l 25.97337,0 0,346.65334 -23.84851,0 c -3.52478,0 -6.3746,1.24992 -6.3746,2.82482 l 0,21.14868 c 0,1.5499 2.84982,2.69983 6.3746,2.69983 l 350.22811,0 c 3.52479,0 6.24961,-1.14993 6.24961,-2.69983 l 0,-21.14868 c 0,-1.54991 -2.74982,-2.82482 -6.24961,-2.82482 l -23.9735,0 0,-346.65334 26.09838,0 c 2.32485,0 4.12473,-1.5999 4.12473,-3.64977 l 0,-19.2738 c 0,-2.04987 -1.82488,-3.74976 -4.12473,-3.74976 l -354.42786,0 m 56.22148,26.67333 30.22312,0 0,17.39891 0,6.57459 c 0,1.54991 1.42491,2.69983 3.1998,2.69983 l 9.32442,0 c -6.94956,9.6744 -10.97431,21.99863 -10.97431,37.49766 0,35.07281 58.12136,63.14606 68.97068,98.84382 -8.87444,29.24818 -68.97068,64.47098 -68.97068,99.99375 0,28.42323 13.07418,46.79708 33.19791,56.97145 l -24.67345,0 c -7.37454,0 -13.22418,5.27467 -13.22418,11.77426 l 0,14.89907 -27.0483,0 0,-346.65334 m 211.63677,0 30.22311,0 0,346.65334 -29.99812,0 0,-14.89907 c 0,-6.49959 -5.97463,-11.77426 -13.34917,-11.77426 l -33.77289,0 c 20.12375,-10.17437 33.19793,-28.54822 33.19793,-56.97145 0,-35.52277 -59.32129,-67.82076 -69.09569,-99.99375 10.72434,-35.27279 69.09569,-63.79601 69.09569,-98.84382 0,-15.49903 -4.04975,-27.82326 -10.97431,-37.49766 l 21.62364,0 c 1.7499,0 3.07481,-1.14992 3.07481,-2.69983 l 0,-23.9485"
     id="path92"
     style="fill:#009688;stroke:none" />
</svg>
