<?xml version="1.0" encoding="UTF-8" standalone="no"?>
<svg
   xmlns:dc="http://purl.org/dc/elements/1.1/"
   xmlns:cc="http://creativecommons.org/ns#"
   xmlns:rdf="http://www.w3.org/1999/02/22-rdf-syntax-ns#"
   xmlns:svg="http://www.w3.org/2000/svg"
   xmlns="http://www.w3.org/2000/svg"
   xmlns:sodipodi="http://sodipodi.sourceforge.net/DTD/sodipodi-0.dtd"
   xmlns:inkscape="http://www.inkscape.org/namespaces/inkscape"
   height="100%"
   width="100%"
   version="1.1"
   id="svg2"
   viewBox="0 0 512 512"
   inkscape:version="0.91 r"
   sodipodi:docname="view-calendar-wedding-anniversary.svg">
  <sodipodi:namedview
     pagecolor="#ffffff"
     bordercolor="#666666"
     borderopacity="1"
     objecttolerance="10"
     gridtolerance="10"
     guidetolerance="10"
     inkscape:pageopacity="0"
     inkscape:pageshadow="2"
     inkscape:window-width="640"
     inkscape:window-height="480"
     id="namedview11"
     showgrid="false"
     inkscape:zoom="0.4609375"
     inkscape:cx="256"
     inkscape:cy="256"
     inkscape:window-x="0"
     inkscape:window-y="0"
     inkscape:window-maximized="0"
     inkscape:current-layer="svg2" />
  <metadata
     id="metadata100">
    <rdf:RDF>
      <cc:Work
         rdf:about="">
        <dc:format>image/svg+xml</dc:format>
        <dc:type
           rdf:resource="http://purl.org/dc/dcmitype/StillImage" />
        <dc:title />
      </cc:Work>
    </rdf:RDF>
  </metadata>
  <defs
     id="defs98" />
  <path
     id="path3224"
     d="m 161.63995,50.96639 c -3.56213,-0.0513 -7.17105,1.19715 -10.22062,3.88796 -5.56116,4.86908 -5.52058,4.72017 -5.80249,32.5764 -0.15373,16.14484 0.0292,26.57907 0.61854,29.21862 1.10192,5.15097 4.11087,9.10538 8.365,11.10425 7.50862,3.51088 16.98168,0.34592 20.44125,-6.80393 1.69139,-3.48524 1.76245,-4.25155 1.53163,-31.92841 l -0.26509,-28.3939 -2.26798,-3.00433 C 170.73434,53.29214 166.2309,51.0471 161.6694,50.99584 l -0.0294,-0.0294 z"
     style="fill:#009688" />
  <path
     id="path3222"
     d="m 350.4417,50.99584 c -4.56156,0.0513 -9.03549,2.29629 -12.34133,6.62721 l -2.32689,3.00433 0,29.39535 0,29.33643 2.12071,3.23997 c 1.25571,1.89637 3.60125,3.8938 5.62576,4.91886 6.58607,3.25459 15.17812,1.50014 19.3809,-4.03523 3.43398,-4.5103 3.84586,-8.78136 3.56396,-36.02256 -0.28189,-27.85624 -0.24148,-27.70732 -5.80248,-32.5764 -3.04959,-2.69081 -6.65852,-3.93921 -10.22063,-3.88796 z"
     style="fill:#009688" />
  <path
     id="path3220"
     d="m 110.40625,82.78125 c -14.607416,0 -20.142396,0.33306 -23.781246,1.28125 C 71.14639,88.08589 58.48096,99.9927 53.125,115.625 l -1.78125,5.1875 -0.25,148.03125 C 50.8633,433.85419 50.56028,422.87856 56.53125,435 c 6.04797,12.24956 18.43461,21.77168 32.093754,24.71875 7.99534,1.717 326.231326,1.74849 334.406246,0.0312 14.01781,-2.92144 26.37522,-12.31542 32.5,-24.71875 5.97103,-12.12144 5.60563,-1.14581 5.375,-166.15625 l -0.1875,-148.03125 -1.78125,-5.1875 C 453.58152,100.02391 440.94728,88.08584 425.46875,84.06245 421.82975,83.11426 416.23223,82.8437 401.625,82.8437 l -19.09375,0 0,15.40625 c 0,8.48244 -0.31434,17.47421 -0.75,20.0625 -2.02451,12.40334 -10.46485,22.26163 -22.125,25.875 -5.20222,1.58886 -13.4803,1.51511 -18.375,-0.125 -9.81503,-3.28021 -17.35603,-10.75871 -20.6875,-20.625 -1.07632,-3.22896 -1.28125,-7.24712 -1.28125,-22.1875 l 0,-18.3125 -63.34375,0 -63.25,0 0,18.3125 c 0,14.94038 -0.27299,18.95854 -1.375,22.1875 -7.79054,23.08968 -36.75827,29.65119 -53.03125,11.96875 -4.12585,-4.48468 -7.09999,-10.67021 -8.125,-17 -0.4101,-2.56267 -0.78706,-11.61131 -0.8125,-20.09375 l 0,-15.40625 -19,0 0.0312,-0.125 z M 82.1875,192.625 l 173.78125,0 173.84375,0 0,111.1875 c 0,78.95593 -0.23433,112.06298 -0.875,114.34375 -1.1532,4.17715 -6.51034,9.5968 -10.6875,10.75 -2.30641,0.64067 -48.2586,0.90063 -162.65625,0.875 -135.36033,-0.0256 -159.908606,-0.24493 -162.624996,-1.21875 -4.04914,-1.43509 -8.841194,-6.4766 -9.968754,-10.5 -0.58946,-2.15265 -0.8125,-37.34421 -0.8125,-114.25 l 0,-111.1875 z"
     style="fill:#009688" />
  <path
     id="path3227"
     d="m 204.11094,225.27297 c -48.71598,0 -88.19307,39.51376 -88.19307,88.22974 0,48.71598 39.47709,88.19307 88.19307,88.19307 19.39225,0 37.28842,-6.30163 51.85239,-16.9052 14.5613,10.61426 32.48607,16.9052 51.88906,16.9052 48.71598,0 88.22974,-39.47709 88.22974,-88.19307 0,-48.71598 -39.51376,-88.22974 -88.22974,-88.22974 -19.40299,0 -37.32776,6.28394 -51.88906,16.9052 -14.56397,-10.61057 -32.46014,-16.9052 -51.85239,-16.9052 z m 0,19.72885 c 13.63872,0 26.32282,4.01499 37.00075,10.8912 -13.34693,15.46259 -21.45237,35.5821 -21.45237,57.60969 0,22.03228 8.10035,42.15401 21.45237,57.60969 -10.67607,6.86658 -23.36585,10.85453 -37.00075,10.85453 -37.81935,0 -68.46422,-30.64487 -68.46422,-68.46422 0,-37.81935 30.64487,-68.50089 68.46422,-68.50089 z m 103.74145,0 c 37.81935,0 68.50089,30.68154 68.50089,68.50089 0,37.81935 -30.68154,68.46422 -68.50089,68.46422 -13.62392,0 -26.29943,-3.99812 -36.96408,-10.85453 13.35527,-15.45441 21.45237,-35.582 21.45237,-57.60969 0,-22.03303 -8.09131,-42.18226 -21.45237,-57.64636 10.66303,-6.85941 23.3435,-10.85453 36.96408,-10.85453 z M 256,268.80111 c 10.34805,11.99991 16.61183,27.62064 16.61183,44.7016 0,17.07541 -6.2698,32.67477 -16.61183,44.66493 -10.33906,-11.99151 -16.61183,-27.58468 -16.61183,-44.66493 0,-17.08563 6.26692,-32.7004 16.61183,-44.7016 z"
     style="fill:#009688;fill-opacity:1;stroke:none" />
</svg>
