<?xml version="1.0" encoding="UTF-8" standalone="no"?>
<svg
   xmlns:dc="http://purl.org/dc/elements/1.1/"
   xmlns:cc="http://creativecommons.org/ns#"
   xmlns:rdf="http://www.w3.org/1999/02/22-rdf-syntax-ns#"
   xmlns:svg="http://www.w3.org/2000/svg"
   xmlns="http://www.w3.org/2000/svg"
   xmlns:sodipodi="http://sodipodi.sourceforge.net/DTD/sodipodi-0.dtd"
   xmlns:inkscape="http://www.inkscape.org/namespaces/inkscape"
   viewBox="0 0 512 512"
   id="svg2"
   version="1.1"
   width="100%"
   height="100%"
   inkscape:version="0.91 r"
   sodipodi:docname="view-calendar-month.svg">
  <sodipodi:namedview
     pagecolor="#ffffff"
     bordercolor="#666666"
     borderopacity="1"
     objecttolerance="10"
     gridtolerance="10"
     guidetolerance="10"
     inkscape:pageopacity="0"
     inkscape:pageshadow="2"
     inkscape:window-width="1920"
     inkscape:window-height="1028"
     id="namedview229"
     showgrid="false"
     inkscape:zoom="0.4609375"
     inkscape:cx="-338.44068"
     inkscape:cy="219.11864"
     inkscape:window-x="0"
     inkscape:window-y="0"
     inkscape:window-maximized="1"
     inkscape:current-layer="svg2" />
  <metadata
     id="metadata10">
    <rdf:RDF>
      <cc:Work
         rdf:about="">
        <dc:format>image/svg+xml</dc:format>
        <dc:type
           rdf:resource="http://purl.org/dc/dcmitype/StillImage" />
        <dc:title />
      </cc:Work>
    </rdf:RDF>
  </metadata>
  <defs
     id="defs8" />
  <path
     inkscape:connector-curvature="0"
     id="path3251"
     d="m 161.63995,50.9664 c -3.56213,-0.0513 -7.17105,1.19716 -10.22062,3.88796 -5.56116,4.86908 -5.52058,4.72017 -5.80249,32.57641 -0.15373,16.14482 0.0292,26.57906 0.61854,29.21861 1.10192,5.15097 4.11087,9.10538 8.365,11.10425 7.50862,3.51087 16.98168,0.34592 20.44125,-6.80393 1.69139,-3.48524 1.76245,-4.25155 1.53163,-31.92841 l -0.26509,-28.39389 -2.26798,-3.00434 c -3.30585,-4.33091 -7.80929,-6.57595 -12.37079,-6.6272 l -0.0294,-0.0294 z m 188.80175,0.0294 c -4.56156,0.0513 -9.03549,2.29629 -12.34133,6.62721 l -2.32689,3.00433 0,29.39535 0,29.33643 2.12071,3.23997 c 1.25571,1.89637 3.60125,3.89379 5.62576,4.91886 6.58607,3.25459 15.17812,1.50014 19.3809,-4.03523 3.43398,-4.5103 3.84586,-8.78136 3.56396,-36.02255 -0.28189,-27.85625 -0.24148,-27.70733 -5.80248,-32.57641 -3.04959,-2.6908 -6.65852,-3.93921 -10.22063,-3.88796 z M 110.41901,82.77694 c -14.60742,0 -20.16018,0.3478 -23.79903,1.29599 -15.47861,4.02339 -28.13352,15.9132 -33.48948,31.5455 l -1.79671,5.18395 -0.23564,148.03707 c -0.23045,165.01044 -0.55138,154.02999 5.41958,166.15143 6.04798,12.24956 18.446,21.7945 32.10514,24.74157 7.99534,1.717 326.21919,1.74659 334.39411,0.0294 14.01781,-2.92145 26.39271,-12.33824 32.51749,-24.74157 5.97103,-12.12144 5.5913,-1.14099 5.36067,-166.15143 l -0.17672,-148.03707 -1.76726,-5.18394 c -5.35598,-15.63224 -18.01095,-27.55152 -33.48948,-31.57491 -3.639,-0.94819 -9.22126,-1.23708 -23.82849,-1.23708 l -19.08636,0 0,15.40457 c 0,8.48244 -0.33015,17.47006 -0.76581,20.05835 -2.02451,12.40334 -10.45999,22.27692 -22.12014,25.89028 -5.20222,1.58887 -13.48475,1.52229 -18.37945,-0.11781 -9.81503,-3.28022 -17.34542,-10.78114 -20.67689,-20.64743 -1.07632,-3.22896 -1.29598,-7.23867 -1.29598,-22.17905 l 0,-18.32054 -63.32664,0 -63.26773,0 0,18.32054 c 0,14.94038 -0.28234,18.95009 -1.38435,22.17905 -7.79054,23.08968 -36.74468,29.67032 -53.01766,11.98788 -4.12585,-4.48468 -7.10436,-10.66531 -8.12937,-16.9951 -0.4101,-2.56268 -0.76982,-11.63482 -0.79526,-20.11726 l 0,-15.40457 -19.02745,0 0.0589,-0.11782 z m -28.24662,109.8349 173.80953,0 173.83899,0 0,111.1898 c 0,78.95593 -0.24296,112.06064 -0.88363,114.3414 -1.1532,4.17716 -6.51473,9.59761 -10.69189,10.75081 -2.30641,0.64067 -48.24873,0.90926 -162.64638,0.88362 -135.36033,-0.0256 -159.90052,-0.2338 -162.61691,-1.20762 -4.04914,-1.43509 -8.85744,-6.49177 -9.98499,-10.51517 -0.58947,-2.15265 -0.82472,-37.34725 -0.82472,-114.25304 l 0,-111.1898 z m 187.97702,14.90385 0,56.55217 56.55216,0 0,-56.55217 -56.55216,0 z m 84.82825,0 0,56.55217 56.55216,0 0,-56.55217 -56.55216,0 z m -254.48473,75.40289 0,56.55216 56.55216,0 0,-56.55216 -56.55216,0 z m 84.82824,0 0,56.55216 56.55216,0 0,-56.55216 -56.55216,0 z m 84.82824,0 0,56.55216 56.55216,0 0,-56.55216 -56.55216,0 z m 84.82825,0 0,56.55216 56.55216,0 0,-56.55216 -56.55216,0 z m -254.48473,75.40288 0,56.55216 56.55216,0 0,-56.55216 -56.55216,0 z m 84.82824,0 0,56.55216 56.55216,0 0,-56.55216 -56.55216,0 z m 84.82824,0 0,56.55216 56.55216,0 0,-56.55216 -56.55216,0 z"
     style="fill:#009688" />
</svg>
