<?xml version="1.0" encoding="UTF-8" standalone="no"?>
<svg
   xmlns:dc="http://purl.org/dc/elements/1.1/"
   xmlns:cc="http://creativecommons.org/ns#"
   xmlns:rdf="http://www.w3.org/1999/02/22-rdf-syntax-ns#"
   xmlns:svg="http://www.w3.org/2000/svg"
   xmlns="http://www.w3.org/2000/svg"
   xmlns:sodipodi="http://sodipodi.sourceforge.net/DTD/sodipodi-0.dtd"
   xmlns:inkscape="http://www.inkscape.org/namespaces/inkscape"
   height="100%"
   width="100%"
   version="1.1"
   id="svg2"
   viewBox="0 0 512 512"
   inkscape:version="0.91 r"
   sodipodi:docname="view-calendar-holiday.svg">
  <sodipodi:namedview
     pagecolor="#ffffff"
     bordercolor="#666666"
     borderopacity="1"
     objecttolerance="10"
     gridtolerance="10"
     guidetolerance="10"
     inkscape:pageopacity="0"
     inkscape:pageshadow="2"
     inkscape:window-width="640"
     inkscape:window-height="480"
     id="namedview11"
     showgrid="false"
     inkscape:zoom="0.4609375"
     inkscape:cx="256"
     inkscape:cy="256"
     inkscape:window-x="0"
     inkscape:window-y="0"
     inkscape:window-maximized="0"
     inkscape:current-layer="svg2" />
  <metadata
     id="metadata100">
    <rdf:RDF>
      <cc:Work
         rdf:about="">
        <dc:format>image/svg+xml</dc:format>
        <dc:type
           rdf:resource="http://purl.org/dc/dcmitype/StillImage" />
        <dc:title />
      </cc:Work>
    </rdf:RDF>
  </metadata>
  <defs
     id="defs98" />
  <path
     id="path3224"
     d="m 161.63995,50.96639 c -3.56213,-0.0513 -7.17105,1.19716 -10.22062,3.88796 -5.56116,4.86908 -5.52058,4.72017 -5.80249,32.57641 -0.15373,16.14483 0.0292,26.57906 0.61854,29.21861 1.10192,5.15097 4.11087,9.10538 8.365,11.10425 7.50862,3.51088 16.98168,0.34592 20.44125,-6.80393 1.69139,-3.48524 1.76245,-4.25155 1.53163,-31.92841 l -0.26509,-28.39389 -2.26798,-3.00434 c -3.30585,-4.33091 -7.80929,-6.57595 -12.37079,-6.6272 l -0.0294,-0.0294 z"
     style="fill:#009688" />
  <path
     id="path3222"
     d="m 350.4417,50.99584 c -4.56156,0.0513 -9.03549,2.29629 -12.34133,6.62721 l -2.32689,3.00433 0,29.39535 0,29.33643 2.12071,3.23997 c 1.25571,1.89637 3.60125,3.8938 5.62576,4.91886 6.58607,3.25459 15.17812,1.50014 19.3809,-4.03523 3.43398,-4.5103 3.84586,-8.78136 3.56396,-36.02255 -0.28189,-27.85625 -0.24148,-27.70733 -5.80248,-32.57641 -3.04959,-2.6908 -6.65852,-3.93921 -10.22063,-3.88796 z"
     style="fill:#009688" />
  <path
     id="path3220"
     d="m 110.40625,82.78125 c -14.60741,0 -20.1424,0.33306 -23.78125,1.28125 -15.47861,4.02339 -28.14404,15.9302 -33.5,31.5625 l -1.78125,5.1875 -0.25,148.03125 C 50.8633,433.85419 50.56029,422.87856 56.53125,435 c 6.04797,12.24956 18.43461,21.77168 32.09375,24.71875 7.99535,1.717 326.23133,1.74849 334.40625,0.0312 14.01781,-2.92144 26.37522,-12.31542 32.5,-24.71875 5.97103,-12.12144 5.60563,-1.14581 5.375,-166.15625 l -0.1875,-148.03125 -1.78125,-5.1875 C 453.58152,100.02391 440.94728,88.08584 425.46875,84.06245 421.82975,83.11426 416.23223,82.8437 401.625,82.8437 l -19.09375,0 0,15.40625 c 0,8.48244 -0.31434,17.47421 -0.75,20.0625 -2.02451,12.40334 -10.46485,22.26163 -22.125,25.875 -5.20222,1.58886 -13.4803,1.51511 -18.375,-0.125 -9.81503,-3.28021 -17.35603,-10.75871 -20.6875,-20.625 -1.07632,-3.22896 -1.28125,-7.24712 -1.28125,-22.1875 l 0,-18.3125 -63.34375,0 -63.25,0 0,18.3125 c 0,14.94038 -0.27299,18.95854 -1.375,22.1875 -7.79054,23.08968 -36.75827,29.65119 -53.03125,11.96875 -4.12585,-4.48468 -7.09999,-10.67021 -8.125,-17 -0.4101,-2.56267 -0.78706,-11.61131 -0.8125,-20.09375 l 0,-15.40625 -19,0 0.0312,-0.125 z M 82.1875,192.625 l 173.78125,0 173.84375,0 0,111.1875 c 0,78.95593 -0.23433,112.06298 -0.875,114.34375 -1.1532,4.17715 -6.51034,9.5968 -10.6875,10.75 -2.30641,0.64067 -48.2586,0.90063 -162.65625,0.875 -135.36033,-0.0256 -159.90861,-0.24493 -162.625,-1.21875 -4.04913,-1.43509 -8.84119,-6.4766 -9.96875,-10.5 -0.58946,-2.15265 -0.8125,-37.34421 -0.8125,-114.25 l 0,-111.1875 z"
     style="fill:#009688" />
  <path
     id="path3267"
     d="m 193.34791,215.21437 c -11.7156,0 -21.10097,9.38537 -21.10097,21.10098 -0.0532,3.37626 -0.16678,6.6538 -0.24185,10.03657 l 36.8209,0 0,-31.13755 -15.47808,0 z m 29.56556,0 0,31.13755 117.11345,0 c -0.072,-3.35737 -0.12923,-6.72074 -0.12092,-10.03657 0,-11.71561 -9.38536,-21.10098 -21.10097,-21.10098 l -95.89156,0 z m -51.15022,45.28549 c -0.12905,8.7598 -0.10083,16.99516 0.42322,23.76127 3.18756,38.21625 17.6948,74.61693 36.63952,98.73323 l 0,-122.4945 -37.06274,0 z m 51.15022,0 0,137.42843 c 10.47514,8.97569 21.68153,14.14794 32.70954,14.14794 37.51136,0 84.64577,-79.84729 84.64577,-143.41411 0.0581,-2.71611 0.0259,-5.43544 0,-8.16226 l -117.35531,0 z"
     style="fill:#009688" />
</svg>
