<?xml version="1.0" encoding="UTF-8" standalone="no"?>
<svg
   xmlns:dc="http://purl.org/dc/elements/1.1/"
   xmlns:cc="http://creativecommons.org/ns#"
   xmlns:rdf="http://www.w3.org/1999/02/22-rdf-syntax-ns#"
   xmlns:svg="http://www.w3.org/2000/svg"
   xmlns="http://www.w3.org/2000/svg"
   xmlns:sodipodi="http://sodipodi.sourceforge.net/DTD/sodipodi-0.dtd"
   xmlns:inkscape="http://www.inkscape.org/namespaces/inkscape"
   height="100%"
   width="100%"
   version="1.1"
   id="svg2"
   viewBox="0 0 512 512"
   inkscape:version="0.91 r"
   sodipodi:docname="window-duplicate.svg">
  <sodipodi:namedview
     pagecolor="#ffffff"
     bordercolor="#666666"
     borderopacity="1"
     objecttolerance="10"
     gridtolerance="10"
     guidetolerance="10"
     inkscape:pageopacity="0"
     inkscape:pageshadow="2"
     inkscape:window-width="640"
     inkscape:window-height="480"
     id="namedview8"
     showgrid="false"
     inkscape:zoom="0.4609375"
     inkscape:cx="256"
     inkscape:cy="256"
     inkscape:window-x="0"
     inkscape:window-y="0"
     inkscape:window-maximized="0"
     inkscape:current-layer="svg2" />
  <metadata
     id="metadata133">
    <rdf:RDF>
      <cc:Work
         rdf:about="">
        <dc:format>image/svg+xml</dc:format>
        <dc:type
           rdf:resource="http://purl.org/dc/dcmitype/StillImage" />
        <dc:title />
      </cc:Work>
    </rdf:RDF>
  </metadata>
  <defs
     id="defs4" />
  <path
     style="fill:#009688;fill-rule:evenodd"
     id="path293"
     d="m 62.38,56.93798 c -0.415,0.015 -0.807,0.044 -1.219,0.125 l 0.125,0.031 c -11.593,2.342 -20.281,13.06 -20.281,25.375 l 0,253.58999 c 0,14 11.299,25.375 25.375,25.375 l 25.375,0 0,-208.69 c 0,-12.28899 8.688,-23.00999 20.281,-25.37499 1.647,-0.32399 3.3,0 5.063,0 l 278.93999,0 0,-44.938 c 0,-14.04999 -11.338,-25.375 -25.34399,-25.375 l -304.47,0 c -1.322,0 -2.597,-0.171 -3.844,-0.125 m 74.69,94.06 c -0.457,0.015 -0.87,0.044 -1.281,0.125 -11.593,2.34201 -20.22,12.836 -20.22,25.12999 l 0,253.72002 c 0,14 11.646,25.08999 25.719,25.08999 l 303.97,0 c 13.93499,0 25.75,-11.11001 25.75,-25.08999 l 0,-253.72 c 0,-14.05 -11.77101,-25.12 -25.75,-25.12 l -303.97,0 c -1.322,0 -2.848,-0.17101 -4.219,-0.125 m 4.219,63.87498 303.97,0 0,215.09002 -303.97,0 0,-215.09002" />
</svg>
