<?xml version="1.0" encoding="UTF-8" standalone="no"?>
<svg
   xmlns:dc="http://purl.org/dc/elements/1.1/"
   xmlns:cc="http://creativecommons.org/ns#"
   xmlns:rdf="http://www.w3.org/1999/02/22-rdf-syntax-ns#"
   xmlns:svg="http://www.w3.org/2000/svg"
   xmlns="http://www.w3.org/2000/svg"
   xmlns:sodipodi="http://sodipodi.sourceforge.net/DTD/sodipodi-0.dtd"
   xmlns:inkscape="http://www.inkscape.org/namespaces/inkscape"
   height="100%"
   width="100%"
   version="1.1"
   id="svg2"
   viewBox="0 0 512 512"
   inkscape:version="0.91 r"
   sodipodi:docname="zoom-2-to-1.svg">
  <sodipodi:namedview
     pagecolor="#ffffff"
     bordercolor="#666666"
     borderopacity="1"
     objecttolerance="10"
     gridtolerance="10"
     guidetolerance="10"
     inkscape:pageopacity="0"
     inkscape:pageshadow="2"
     inkscape:window-width="640"
     inkscape:window-height="480"
     id="namedview8"
     showgrid="false"
     inkscape:zoom="0.4609375"
     inkscape:cx="256"
     inkscape:cy="256"
     inkscape:window-x="0"
     inkscape:window-y="0"
     inkscape:window-maximized="0"
     inkscape:current-layer="svg2" />
  <metadata
     id="metadata133">
    <rdf:RDF>
      <cc:Work
         rdf:about="">
        <dc:format>image/svg+xml</dc:format>
        <dc:type
           rdf:resource="http://purl.org/dc/dcmitype/StillImage" />
        <dc:title />
      </cc:Work>
    </rdf:RDF>
  </metadata>
  <defs
     id="defs4" />
  <path
     id="path3217"
     d="m 282.26877,35.99999 c -106.48542,-3e-5 -192.33551,86.59474 -192.33552,193.08011 1e-5,9.20019 0.15896,17.92054 1.40328,26.77691 0.0793,0.1284 -0.11176,0.53021 -0.0286,0.65868 6.0516,46.80067 21.28647,92.24866 -4.78261,125.00663 l -40.43742,40.46605 -1.17418,1.17417 c -10.40963,11.62567 -10.00064,29.4058 1.17418,40.58062 l 3.5798,3.5798 c 11.17481,11.17481 28.9263,11.55517 40.55197,1.14553 l 0.0286,0.0287 1.17418,-1.17418 40.43743,-40.43741 c 34.09297,-26.12324 79.16996,-9.87762 129.13055,-5.49858 6.94706,0.76196 14.12978,0.0287 21.27834,0.0287 3.60574,0 6.75192,0.15776 10.30982,-0.0287 101.49801,-5.57424 182.02568,-90.1108 182.02568,-192.99419 0,-53.24895 -21.40787,-100.4587 -56.3031,-135.34509 C 383.41107,58.15243 335.51397,36.0573 282.26877,36.0573 l 0,-0.0573 z m 0,51.54912 c 39.13071,1e-5 74.67819,15.5698 100.32032,41.21067 25.64088,25.63584 41.18202,61.18961 41.18202,100.32032 0,78.2488 -63.25355,141.50234 -141.50234,141.50234 -78.24881,0 -141.50236,-63.94214 -141.50236,-142.18966 0,-78.2488 63.25355,-140.84367 141.50236,-140.84367 z m -73.85845,89.06544 c -23.59538,0 -40.63788,12.31715 -40.63788,29.383 0,8.31032 5.49078,14.0901 13.05911,14.0901 6.67795,0 12.31451,-5.19399 12.31451,-11.42672 0,-2.52279 -0.59619,-4.3166 -2.37699,-6.98778 -1.03879,-1.63238 -1.48919,-2.79876 -1.48919,-3.83754 0,-4.30356 7.26115,-8.30514 14.97788,-8.30514 9.64592,0 15.89431,5.78238 15.89431,14.8347 0,10.53629 -6.37597,22.41086 -18.09947,33.39237 -8.60712,8.01352 -11.72356,10.39056 -34.28016,25.23043 l 2.34835,16.61027 75.6913,0 9.04973,-32.2182 -11.99949,-3.26478 c -6.67795,13.8011 -8.1698,14.69151 -26.71963,14.69151 l -18.55768,0 c 18.40144,-9.94272 27.29501,-15.70428 36.19893,-23.56942 11.2783,-10.2395 15.89432,-18.2661 15.89432,-28.20882 0,-18.25303 -16.33696,-30.41398 -41.26795,-30.41398 z m 159.83093,1.91877 c -0.8904,0.1484 -1.92659,0.453 -2.52017,0.6014 -13.6527,3.11638 -15.87091,3.56419 -22.25204,4.00939 -10.23952,0.59359 -10.23694,0.57276 -10.68214,0.57276 -0.59358,0 -1.33818,0.005 -2.37698,-0.14318 l 0,11.5699 2.06197,0.17184 c 16.62065,0.89039 16.92529,1.0362 16.92529,10.68212 l 0,50.00265 c 0,8.90392 -1.46838,10.10154 -15.12108,11.14034 l -3.86618,0.28638 0,12.17132 63.94956,0 0,-12.17132 -3.40797,-0.28638 c -0.29679,0 -1.78079,-0.16663 -3.26478,-0.31502 -10.3879,-0.74199 -12.31452,-2.36658 -12.31452,-10.82532 l 0,-77.46688 -7.13096,0 z m -83.8246,24.48583 c -7.41994,0 -13.48868,5.93078 -13.48868,13.20231 0,7.56833 5.92556,13.66052 13.34549,13.66052 7.41992,0 13.51732,-6.0974 13.51732,-13.51733 0,-7.41992 -5.9542,-13.3455 -13.37413,-13.3455 z m 0,51.63505 c -7.41994,0 -13.48868,5.95941 -13.48868,13.23094 0,7.56833 5.92556,13.63187 13.34549,13.63187 7.41992,0 13.51732,-6.06876 13.51732,-13.48868 0,-7.41994 -5.9542,-13.37413 -13.37413,-13.37413 z"
     style="fill:#009688" />
</svg>
