<?xml version="1.0" encoding="UTF-8" standalone="no"?>
<svg
   xmlns:dc="http://purl.org/dc/elements/1.1/"
   xmlns:cc="http://creativecommons.org/ns#"
   xmlns:rdf="http://www.w3.org/1999/02/22-rdf-syntax-ns#"
   xmlns:svg="http://www.w3.org/2000/svg"
   xmlns="http://www.w3.org/2000/svg"
   xmlns:sodipodi="http://sodipodi.sourceforge.net/DTD/sodipodi-0.dtd"
   xmlns:inkscape="http://www.inkscape.org/namespaces/inkscape"
   height="100%"
   width="100%"
   version="1.1"
   id="svg2"
   viewBox="0 0 512 512"
   inkscape:version="0.91 r"
   sodipodi:docname="gtk-zoom-fit.svg">
  <sodipodi:namedview
     pagecolor="#ffffff"
     bordercolor="#666666"
     borderopacity="1"
     objecttolerance="10"
     gridtolerance="10"
     guidetolerance="10"
     inkscape:pageopacity="0"
     inkscape:pageshadow="2"
     inkscape:window-width="640"
     inkscape:window-height="480"
     id="namedview8"
     showgrid="false"
     inkscape:zoom="0.4609375"
     inkscape:cx="256"
     inkscape:cy="256"
     inkscape:window-x="0"
     inkscape:window-y="0"
     inkscape:window-maximized="0"
     inkscape:current-layer="svg2" />
  <metadata
     id="metadata133">
    <rdf:RDF>
      <cc:Work
         rdf:about="">
        <dc:format>image/svg+xml</dc:format>
        <dc:type
           rdf:resource="http://purl.org/dc/dcmitype/StillImage" />
        <dc:title />
      </cc:Work>
    </rdf:RDF>
  </metadata>
  <defs
     id="defs4" />
  <path
     id="path12403"
     d="m 282.26878,35.99982 c -106.48542,-4e-5 -192.335508,86.59473 -192.335508,193.0801 0,9.20019 0.15895,17.92054 1.40328,26.77691 0.0793,0.1284 -0.11176,0.53021 -0.0286,0.65868 6.05159,46.80067 21.286458,92.24866 -4.78261,125.00663 l -40.437432,40.46606 -1.17417,1.17417 c -10.40963,11.62567 -10.00065,29.4058 1.17417,40.58062 l 3.5798,3.5798 c 11.174822,11.17481 28.926302,11.55517 40.551982,1.14553 l 0.0286,0.0287 1.17417,-1.17418 40.437428,-40.43741 c 34.09297,-26.12324 79.16996,-9.87762 129.13055,-5.49858 6.94706,0.76196 14.12978,0.0287 21.27834,0.0287 3.60574,0 6.75192,0.15765 10.30982,-0.0287 101.49801,-5.57424 182.02568,-90.1108 182.02568,-192.99419 0,-53.24884 -21.40787,-100.45869 -56.3031,-135.34509 -34.8901,-34.89531 -82.7872,-56.99044 -136.0324,-56.99044 l 0,-0.0573 z m 0,51.54912 c 39.13071,1e-5 74.67819,15.56979 100.32032,41.21066 0.33864,0.33858 0.66723,0.68896 1.00235,1.03099 l 49.94536,0 0,207.74296 -60.31247,0 c -24.58284,20.63039 -56.29229,33.04871 -90.95556,33.04871 -34.50307,0 -66.0771,-12.43979 -90.6119,-33.04871 l -58.25052,0 -1.20281,0 -1.23145,0 0,-207.74296 50.05993,0 c 25.67954,-26.1108 61.52285,-42.24165 101.23675,-42.24165 z m -131.73665,61.80167 0,168.62292 263.47329,0 0,-168.62292 -263.47329,0 z"
     style="fill:#009688" />
</svg>
