<?xml version="1.0" encoding="UTF-8" standalone="no"?>
<svg
   xmlns:dc="http://purl.org/dc/elements/1.1/"
   xmlns:cc="http://creativecommons.org/ns#"
   xmlns:rdf="http://www.w3.org/1999/02/22-rdf-syntax-ns#"
   xmlns:svg="http://www.w3.org/2000/svg"
   xmlns="http://www.w3.org/2000/svg"
   xmlns:sodipodi="http://sodipodi.sourceforge.net/DTD/sodipodi-0.dtd"
   xmlns:inkscape="http://www.inkscape.org/namespaces/inkscape"
   height="100%"
   width="100%"
   version="1.1"
   id="svg2"
   viewBox="0 0 512 512"
   inkscape:version="0.91 r"
   sodipodi:docname="zoom-previous.svg">
  <sodipodi:namedview
     pagecolor="#ffffff"
     bordercolor="#666666"
     borderopacity="1"
     objecttolerance="10"
     gridtolerance="10"
     guidetolerance="10"
     inkscape:pageopacity="0"
     inkscape:pageshadow="2"
     inkscape:window-width="640"
     inkscape:window-height="480"
     id="namedview8"
     showgrid="false"
     inkscape:zoom="0.4609375"
     inkscape:cx="256"
     inkscape:cy="256"
     inkscape:window-x="0"
     inkscape:window-y="0"
     inkscape:window-maximized="0"
     inkscape:current-layer="svg2" />
  <metadata
     id="metadata133">
    <rdf:RDF>
      <cc:Work
         rdf:about="">
        <dc:format>image/svg+xml</dc:format>
        <dc:type
           rdf:resource="http://purl.org/dc/dcmitype/StillImage" />
        <dc:title />
      </cc:Work>
    </rdf:RDF>
  </metadata>
  <defs
     id="defs4" />
  <path
     id="path12403"
     d="m 282.26837,36 c -106.48542,-4e-5 -192.33551,86.59472 -192.33551,193.08009 10e-6,9.20019 0.15895,17.92054 1.40328,26.77691 0.0793,0.1284 -0.11176,0.53022 -0.0286,0.65868 6.0516,46.80067 21.28647,92.24866 -4.78261,125.00664 l -40.43742,40.46605 -1.17418,1.17417 c -10.40963,11.62567 -10.00064,29.40581 1.17418,40.58062 l 3.5798,3.5798 c 11.17481,11.17481 28.9263,11.55517 40.55197,1.14553 l 0.0286,0.0287 1.17418,-1.17417 40.43742,-40.43742 c 34.09298,-26.12324 79.16997,-9.87761 129.13056,-5.49857 6.94705,0.76196 14.12977,0.0287 21.27833,0.0287 3.60575,0 6.75192,0.15766 10.30983,-0.0287 101.498,-5.57424 182.02567,-90.11081 182.02567,-192.9942 0,-53.24884 -21.40786,-100.45869 -56.30309,-135.34508 C 383.41067,58.1524 335.51357,36.05727 282.26837,36.05727 l 0,-0.0573 z m 0,51.54912 c 39.13071,0 74.67819,15.56978 100.32033,41.21066 25.64088,25.63583 41.18201,61.18961 41.18201,100.32031 0,78.24881 -63.25355,141.50235 -141.50234,141.50235 -78.2488,0 -141.50235,-63.94214 -141.50235,-142.18967 0,-78.2488 63.25355,-140.84365 141.50235,-140.84365 z m 31.07267,42.04118 c -3.79524,0 -7.34564,1.32668 -10.25255,4.23847 l -61.54392,60.94252 -27.75062,27.75062 c -5.8187,5.8187 -5.8187,15.28779 0,21.10649 l 27.14921,27.1492 62.14533,62.17398 c 5.81504,5.81871 14.68639,5.81871 20.5051,0 l 27.1492,-27.1492 c 5.81383,-5.81871 5.81383,-15.31644 0,-21.13515 l -51.29138,-51.29137 51.29138,-51.29138 c 5.81383,-5.81871 5.81383,-15.28779 0,-21.10651 l -27.1492,-27.1492 c -2.90203,-2.91179 -6.45854,-4.23847 -10.25255,-4.23847 z"
     style="fill:#009688" />
</svg>
