<?xml version="1.0" encoding="UTF-8" standalone="no"?>
<svg
   xmlns:dc="http://purl.org/dc/elements/1.1/"
   xmlns:cc="http://creativecommons.org/ns#"
   xmlns:rdf="http://www.w3.org/1999/02/22-rdf-syntax-ns#"
   xmlns:svg="http://www.w3.org/2000/svg"
   xmlns="http://www.w3.org/2000/svg"
   xmlns:sodipodi="http://sodipodi.sourceforge.net/DTD/sodipodi-0.dtd"
   xmlns:inkscape="http://www.inkscape.org/namespaces/inkscape"
   height="100%"
   width="100%"
   version="1.1"
   id="svg2"
   viewBox="0 0 512 512"
   inkscape:version="0.91 r"
   sodipodi:docname="zoom-fit-width.svg">
  <sodipodi:namedview
     pagecolor="#ffffff"
     bordercolor="#666666"
     borderopacity="1"
     objecttolerance="10"
     gridtolerance="10"
     guidetolerance="10"
     inkscape:pageopacity="0"
     inkscape:pageshadow="2"
     inkscape:window-width="640"
     inkscape:window-height="480"
     id="namedview8"
     showgrid="false"
     inkscape:zoom="0.4609375"
     inkscape:cx="256"
     inkscape:cy="256"
     inkscape:window-x="0"
     inkscape:window-y="0"
     inkscape:window-maximized="0"
     inkscape:current-layer="svg2" />
  <metadata
     id="metadata133">
    <rdf:RDF>
      <cc:Work
         rdf:about="">
        <dc:format>image/svg+xml</dc:format>
        <dc:type
           rdf:resource="http://purl.org/dc/dcmitype/StillImage" />
        <dc:title />
      </cc:Work>
    </rdf:RDF>
  </metadata>
  <defs
     id="defs4" />
  <path
     id="path12403-5"
     d="m 282.26877,35.99979 c -106.48542,-3e-5 -192.335506,86.59473 -192.335506,193.0801 0,9.20019 0.15895,17.92054 1.40328,26.77691 0.0793,0.1284 -0.11176,0.53022 -0.0286,0.65868 6.05159,46.80067 21.286456,92.24866 -4.78261,125.00664 l -40.437427,40.46605 -1.17417,1.17417 c -10.40963,11.62567 -10.00065,29.40581 1.17417,40.58062 l 3.5798,3.5798 c 11.17482,11.17481 28.926297,11.55517 40.551977,1.14553 l 0.0286,0.0287 1.17417,-1.17417 40.437426,-40.43742 c 34.09297,-26.12324 79.16996,-9.87761 129.13055,-5.49857 6.94706,0.76196 14.12978,0.0287 21.27834,0.0287 3.60574,0 6.75192,0.15766 10.30982,-0.0287 101.49801,-5.57424 182.02568,-90.11081 182.02568,-192.9942 0,-53.24884 -21.40787,-100.45869 -56.3031,-135.345076 C 383.41107,58.15223 335.51397,36.0571 282.26877,36.0571 l 0,-0.0573 z m 0,51.549134 c 39.13071,0 74.67819,15.569776 100.32032,41.210646 24.22762,24.22285 39.4357,57.29354 41.03883,93.87668 4.58273,3.67491 9.16391,7.35063 13.74643,11.02579 -4.8419,3.88316 -9.67754,7.77295 -14.51967,11.65583 -8.03427,70.57919 -67.82868,125.26437 -140.58591,125.26437 -72.49015,0 -132.08852,-54.88915 -140.47137,-125.17845 -4.08545,-3.2758 -8.17197,-6.54693 -12.25723,-9.82297 l -2.37699,-1.91878 c 4.57206,-3.66675 9.14553,-7.33064 13.71779,-10.99715 2.99312,-75.55792 65.0547,-135.115966 141.3878,-135.115966 z m -53.38198,83.309106 -78.35467,62.80401 78.35467,62.80402 0,-34.10834 13.3455,0 93.41845,0 0,34.10834 78.35467,-62.80402 -78.35467,-62.80401 0,34.10833 -93.41845,0 -13.3455,0 0,-34.10833 z"
     style="fill:#009688" />
</svg>
