<?xml version="1.0" encoding="UTF-8" standalone="no"?>
<svg
   xmlns:dc="http://purl.org/dc/elements/1.1/"
   xmlns:cc="http://creativecommons.org/ns#"
   xmlns:rdf="http://www.w3.org/1999/02/22-rdf-syntax-ns#"
   xmlns:svg="http://www.w3.org/2000/svg"
   xmlns="http://www.w3.org/2000/svg"
   xmlns:sodipodi="http://sodipodi.sourceforge.net/DTD/sodipodi-0.dtd"
   xmlns:inkscape="http://www.inkscape.org/namespaces/inkscape"
   height="100%"
   width="100%"
   version="1.1"
   id="svg2"
   viewBox="0 0 512 512"
   inkscape:version="0.91 r"
   sodipodi:docname="zoom-fit-selection.svg">
  <sodipodi:namedview
     pagecolor="#ffffff"
     bordercolor="#666666"
     borderopacity="1"
     objecttolerance="10"
     gridtolerance="10"
     guidetolerance="10"
     inkscape:pageopacity="0"
     inkscape:pageshadow="2"
     inkscape:window-width="640"
     inkscape:window-height="480"
     id="namedview8"
     showgrid="false"
     inkscape:zoom="0.4609375"
     inkscape:cx="256"
     inkscape:cy="256"
     inkscape:window-x="0"
     inkscape:window-y="0"
     inkscape:window-maximized="0"
     inkscape:current-layer="svg2" />
  <metadata
     id="metadata133">
    <rdf:RDF>
      <cc:Work
         rdf:about="">
        <dc:format>image/svg+xml</dc:format>
        <dc:type
           rdf:resource="http://purl.org/dc/dcmitype/StillImage" />
        <dc:title />
      </cc:Work>
    </rdf:RDF>
  </metadata>
  <defs
     id="defs4" />
  <path
     id="path12403"
     d="m 282.26878,35.99983 c -106.48542,-3e-5 -192.3355,86.59473 -192.33551,193.0801 1e-5,9.20019 0.15896,17.92054 1.40329,26.77691 0.0793,0.1284 -0.11176,0.53022 -0.0286,0.65868 6.05159,46.80067 21.28645,92.24866 -4.78262,125.00664 l -40.43742,40.46605 -1.17418,1.17417 C 34.50411,434.78805 34.9131,452.56819 46.08792,463.743 l 3.5798,3.5798 c 11.17482,11.17481 28.9263,11.55517 40.55198,1.14553 l 0.0286,0.0287 1.17417,-1.17417 40.43742,-40.43742 c 34.09297,-26.12324 79.16996,-9.87761 129.13056,-5.49857 6.94705,0.76196 14.12977,0.0287 21.27833,0.0287 3.60574,0 6.75193,0.15766 10.30982,-0.0287 101.49801,-5.57424 182.02568,-90.11081 182.02568,-192.9942 0,-53.24884 -21.40787,-100.45869 -56.3031,-135.34508 -34.89011,-34.89532 -82.7872,-56.99045 -136.0324,-56.99045 l 0,-0.0573 z m 0,51.54913 c 39.13071,0 74.67819,15.56978 100.32032,41.21065 25.64088,25.63584 41.18202,61.18962 41.18202,100.32032 0,78.24881 -63.25355,141.50235 -141.50234,141.50235 -78.24881,0 -141.50236,-63.94214 -141.50236,-142.18967 0,-78.2488 63.25356,-140.84365 141.50236,-140.84365 z m -84.45464,61.40073 0,33.39238 168.90928,0 0,-33.39238 -168.90928,0 z m 0,68.0162 0,33.39238 168.90928,0 0,-33.39238 -168.90928,0 z m 0,67.98757 0,33.42101 168.90928,0 0,-33.42101 -168.90928,0 z"
     style="fill:#009688" />
</svg>
