<?xml version="1.0" encoding="UTF-8" standalone="no"?>
<svg
   xmlns:dc="http://purl.org/dc/elements/1.1/"
   xmlns:cc="http://creativecommons.org/ns#"
   xmlns:rdf="http://www.w3.org/1999/02/22-rdf-syntax-ns#"
   xmlns:svg="http://www.w3.org/2000/svg"
   xmlns="http://www.w3.org/2000/svg"
   xmlns:sodipodi="http://sodipodi.sourceforge.net/DTD/sodipodi-0.dtd"
   xmlns:inkscape="http://www.inkscape.org/namespaces/inkscape"
   height="100%"
   width="100%"
   version="1.1"
   id="svg2"
   viewBox="0 0 512 512"
   inkscape:version="0.91 r"
   sodipodi:docname="zoom-double-size.svg">
  <sodipodi:namedview
     pagecolor="#ffffff"
     bordercolor="#666666"
     borderopacity="1"
     objecttolerance="10"
     gridtolerance="10"
     guidetolerance="10"
     inkscape:pageopacity="0"
     inkscape:pageshadow="2"
     inkscape:window-width="640"
     inkscape:window-height="480"
     id="namedview8"
     showgrid="false"
     inkscape:zoom="0.4609375"
     inkscape:cx="256"
     inkscape:cy="256"
     inkscape:window-x="0"
     inkscape:window-y="0"
     inkscape:window-maximized="0"
     inkscape:current-layer="svg2" />
  <metadata
     id="metadata133">
    <rdf:RDF>
      <cc:Work
         rdf:about="">
        <dc:format>image/svg+xml</dc:format>
        <dc:type
           rdf:resource="http://purl.org/dc/dcmitype/StillImage" />
        <dc:title />
      </cc:Work>
    </rdf:RDF>
  </metadata>
  <defs
     id="defs4" />
  <path
     id="path9287"
     d="m 282.26877,36 c -106.48542,-4e-5 -192.33551,86.59472 -192.33551,193.0801 10e-6,9.20018 0.15895,17.92053 1.40328,26.77691 0.0793,0.1284 -0.11176,0.53021 -0.0286,0.65868 6.05159,46.80066 21.28647,92.24865 -4.78261,125.00663 l -40.43743,40.46605 -1.17417,1.17418 c -10.40963,11.62566 -10.00065,29.4058 1.17417,40.58061 l 3.5798,3.5798 c 11.17482,11.17482 28.9263,11.55518 40.55198,1.14554 l 0.0286,0.0287 1.17417,-1.17417 40.43743,-40.43742 c 34.09298,-26.12324 79.16997,-9.87761 129.13056,-5.49857 6.94705,0.76196 14.12977,0.0287 21.27833,0.0287 3.60575,0 6.75192,0.1577 10.30983,-0.0287 101.498,-5.57424 182.02567,-90.1108 182.02567,-192.9942 0,-53.24888 -21.40787,-100.45869 -56.30309,-135.34508 C 383.41107,58.15245 335.51397,36.05731 282.26877,36.05731 l 0,-0.0573 z m 0,51.54912 c 39.13071,0 74.67819,15.56978 100.32032,41.21065 25.64089,25.63584 41.18202,61.18962 41.18202,100.32033 0,78.2488 -63.25355,141.50234 -141.50234,141.50234 -78.2488,0 -141.50235,-63.94214 -141.50235,-142.18966 0,-78.24881 63.25355,-140.84366 141.50235,-140.84366 z m -5.44129,44.64727 c -44.38035,0 -76.49318,23.17311 -76.49318,55.27211 0,15.63081 10.33655,26.51916 24.57175,26.51916 12.56048,0 23.16846,-9.7557 23.16846,-21.4788 0,-4.74507 -1.11812,-8.0922 -4.46758,-13.11639 -1.95386,-3.07033 -2.77792,-5.32029 -2.77792,-7.27415 0,-8.09453 13.66585,-15.63658 28.18019,-15.63658 18.1429,0 29.86984,10.89603 29.86984,27.92245 0,19.81764 -12.00044,42.14903 -34.05106,62.80402 -16.18905,15.07257 -22.06719,19.54168 -64.49368,47.45382 l 4.4676,31.27314 142.36149,0 17.03985,-60.57022 -22.62433,-6.15725 c -12.56048,25.95831 -15.34157,27.63605 -50.23177,27.63605 l -34.91021,0 c 34.61109,-18.70114 51.38347,-29.59608 68.13076,-44.38952 21.21324,-19.25939 29.84122,-34.30853 29.84122,-53.00968 0,-34.33197 -30.68899,-57.24816 -77.58143,-57.24816 z"
     style="fill:#009688" />
</svg>
