<svg xmlns="http://www.w3.org/2000/svg" width="22" height="22" version="1.1">
 <defs>
  <style id="current-color-scheme" type="text/css">
   .ColorScheme-Text { color: #d3dae3; } .ColorScheme-Highlight { color: #1AD6AB; }
  </style>
  <linearGradient id="arrongin" x1="0%" x2="0%" y1="0%" y2="100%">
   <stop offset="0%" style="stop-color:#dd9b44"/>
   <stop offset="100%" style="stop-color:#ad6c16"/>
  </linearGradient>
  <linearGradient id="aurora" x1="0%" x2="0%" y1="0%" y2="100%">
   <stop offset="0%" style="stop-color:#09D4DF"/>
   <stop offset="100%" style="stop-color:#9269F4"/>
  </linearGradient>
  <linearGradient id="cyberneon" x1="0%" x2="0%" y1="0%" y2="100%">
   <stop offset="0" style="stop-color:#0abdc6"/>
   <stop offset="1" style="stop-color:#ea00d9"/>
  </linearGradient>
  <linearGradient id="fitdance" x1="0%" x2="0%" y1="0%" y2="100%">
   <stop offset="0%" style="stop-color:#1AD6AB"/>
   <stop offset="100%" style="stop-color:#329DB6"/>
  </linearGradient>
  <linearGradient id="oomox" x1="0%" x2="0%" y1="0%" y2="100%">
   <stop offset="0%" style="stop-color:#a4d8d4"/>
   <stop offset="100%" style="stop-color:#318c85"/>
  </linearGradient>
  <linearGradient id="rainblue" x1="0%" x2="0%" y1="0%" y2="100%">
   <stop offset="0%" style="stop-color:#00F260"/>
   <stop offset="100%" style="stop-color:#0575E6"/>
  </linearGradient>
  <linearGradient id="sunrise" x1="0%" x2="0%" y1="0%" y2="100%">
   <stop offset="0%" style="stop-color:#FF8501"/>
   <stop offset="100%" style="stop-color:#FFCB01"/>
  </linearGradient>
  <linearGradient id="telinkrin" x1="0%" x2="0%" y1="0%" y2="100%">
   <stop offset="0%" style="stop-color:#b2ced6"/>
   <stop offset="100%" style="stop-color:#6da5b7"/>
  </linearGradient>
  <linearGradient id="60spsycho" x1="0%" x2="0%" y1="0%" y2="100%">
   <stop offset="0%" style="stop-color:#df5940"/>
   <stop offset="25%" style="stop-color:#d8d15f"/>
   <stop offset="50%" style="stop-color:#e9882a"/>
   <stop offset="100%" style="stop-color:#279362"/>
  </linearGradient>
  <linearGradient id="90ssummer" x1="0%" x2="0%" y1="0%" y2="100%">
   <stop offset="0%" style="stop-color:#f618c7"/>
   <stop offset="20%" style="stop-color:#94ffab"/>
   <stop offset="50%" style="stop-color:#fbfd54"/>
   <stop offset="100%" style="stop-color:#0f83ae"/>
  </linearGradient>
 </defs>
 <path fill="url(#oomox)" class="ColorScheme-Text" d="m8.25 3c-0.1385 0-0.25 0.1115-0.25 0.25v1.5c0 0.1385 0.1115 0.25 0.25 0.25h0.5c0.1385 0 0.25-0.1115 0.25-0.25v-1.5c0-0.1385-0.1115-0.25-0.25-0.25h-0.5zm4 0c-0.138 0-0.25 0.1115-0.25 0.25v1.5c0 0.1385 0.112 0.25 0.25 0.25h0.5c0.138 0 0.25-0.1115 0.25-0.25v-1.5c0-0.1385-0.112-0.25-0.25-0.25h-0.5zm4 0c-0.138 0-0.25 0.1115-0.25 0.25v1.5c0 0.1385 0.112 0.25 0.25 0.25h0.5c0.138 0 0.25-0.1115 0.25-0.25v-1.5c0-0.1385-0.112-0.25-0.25-0.25h-0.5zm-10 2c-0.6925 0-1.25 0.5575-1.25 1.25v0.7754c0.5716 0.1154 1 0.618 1 1.2246v0.5c0 0.6066-0.4284 1.1092-1 1.2246v1.0504c0.5716 0.116 1 0.618 1 1.225v0.5c0 0.607-0.4284 1.109-1 1.225v1.05c0.5716 0.116 1 0.618 1 1.225v0.5c0 0.599-0.418 1.095-0.9785 1.219 0.1034 0.587 0.6111 1.031 1.2285 1.031h11.5c0.692 0 1.25-0.558 1.25-1.25v-11.5c0-0.6086-0.431-1.1113-1.006-1.2246-0.014 0.5414-0.449 0.9746-0.994 0.9746h-1c-0.554 0-1-0.446-1-1h-1c0 0.554-0.446 1-1 1h-1c-0.554 0-1-0.446-1-1h-1c0 0.554-0.446 1-1 1h-1c-0.554 0-1-0.446-1-1h-0.75zm1.75 2h9c0.554 0 1 0.446 1 1v9c0 0.554-0.446 1-1 1h-9c-0.554 0-1-0.446-1-1v-9c0-0.554 0.446-1 1-1zm-4.75 1c-0.1385 0-0.25 0.1115-0.25 0.25v0.5c0 0.1385 0.1115 0.25 0.25 0.25h1.5c0.1385 0 0.25-0.1115 0.25-0.25v-0.5c0-0.1385-0.1115-0.25-0.25-0.25h-1.5zm5 0c-0.1385 0-0.25 0.1115-0.25 0.25v8.5c0 0.138 0.1115 0.25 0.25 0.25h8.5c0.138 0 0.25-0.112 0.25-0.25v-8.5c0-0.1385-0.112-0.25-0.25-0.25h-8.5zm-5 4c-0.1385 0-0.25 0.112-0.25 0.25v0.5c0 0.138 0.1115 0.25 0.25 0.25h1.5c0.1385 0 0.25-0.112 0.25-0.25v-0.5c0-0.138-0.1115-0.25-0.25-0.25h-1.5zm0 4c-0.1385 0-0.25 0.112-0.25 0.25v0.5c0 0.138 0.1115 0.25 0.25 0.25h1.5c0.1385 0 0.25-0.112 0.25-0.25v-0.5c0-0.138-0.1115-0.25-0.25-0.25h-1.5z"/>
</svg>
