<svg xmlns="http://www.w3.org/2000/svg" width="22" height="22" version="1.1">
 <defs>
  <style id="current-color-scheme" type="text/css">
   .ColorScheme-Text { color: #d3dae3; } .ColorScheme-Highlight { color: #1AD6AB; }
  </style>
  <linearGradient id="arrongin" x1="0%" x2="0%" y1="0%" y2="100%">
   <stop offset="0%" style="stop-color:#dd9b44"/>
   <stop offset="100%" style="stop-color:#ad6c16"/>
  </linearGradient>
  <linearGradient id="aurora" x1="0%" x2="0%" y1="0%" y2="100%">
   <stop offset="0%" style="stop-color:#09D4DF"/>
   <stop offset="100%" style="stop-color:#9269F4"/>
  </linearGradient>
  <linearGradient id="cyberneon" x1="0%" x2="0%" y1="0%" y2="100%">
   <stop offset="0" style="stop-color:#0abdc6"/>
   <stop offset="1" style="stop-color:#ea00d9"/>
  </linearGradient>
  <linearGradient id="fitdance" x1="0%" x2="0%" y1="0%" y2="100%">
   <stop offset="0%" style="stop-color:#1AD6AB"/>
   <stop offset="100%" style="stop-color:#329DB6"/>
  </linearGradient>
  <linearGradient id="oomox" x1="0%" x2="0%" y1="0%" y2="100%">
   <stop offset="0%" style="stop-color:#a4d8d4"/>
   <stop offset="100%" style="stop-color:#318c85"/>
  </linearGradient>
  <linearGradient id="rainblue" x1="0%" x2="0%" y1="0%" y2="100%">
   <stop offset="0%" style="stop-color:#00F260"/>
   <stop offset="100%" style="stop-color:#0575E6"/>
  </linearGradient>
  <linearGradient id="sunrise" x1="0%" x2="0%" y1="0%" y2="100%">
   <stop offset="0%" style="stop-color:#FF8501"/>
   <stop offset="100%" style="stop-color:#FFCB01"/>
  </linearGradient>
  <linearGradient id="telinkrin" x1="0%" x2="0%" y1="0%" y2="100%">
   <stop offset="0%" style="stop-color:#b2ced6"/>
   <stop offset="100%" style="stop-color:#6da5b7"/>
  </linearGradient>
  <linearGradient id="60spsycho" x1="0%" x2="0%" y1="0%" y2="100%">
   <stop offset="0%" style="stop-color:#df5940"/>
   <stop offset="25%" style="stop-color:#d8d15f"/>
   <stop offset="50%" style="stop-color:#e9882a"/>
   <stop offset="100%" style="stop-color:#279362"/>
  </linearGradient>
  <linearGradient id="90ssummer" x1="0%" x2="0%" y1="0%" y2="100%">
   <stop offset="0%" style="stop-color:#f618c7"/>
   <stop offset="20%" style="stop-color:#94ffab"/>
   <stop offset="50%" style="stop-color:#fbfd54"/>
   <stop offset="100%" style="stop-color:#0f83ae"/>
  </linearGradient>
 </defs>
 <g transform="translate(-57.000007,-681.28997)">
  <path fill="url(#oomox)" class="ColorScheme-Text" d="M 10 3.0019531 L 9.5 4.0332031 C 9.66191 4.0199031 9.8348 4.0019531 10 4.0019531 L 10.5 4.0019531 L 10 3.0019531 z M 10 5.0019531 C 7.23858 5.0019531 5 7.2405431 5 10.001953 C 5 10.471533 5.0786899 10.919076 5.2011719 11.347656 C 5.7160869 10.815636 6.3722774 10.416699 7.1152344 10.224609 C 7.9386744 8.8192494 9.3554503 7.7832031 11.097656 7.7832031 C 12.740088 7.7832031 14.156699 8.6455475 14.996094 9.9296875 C 14.956904 7.2020675 12.736948 5.0019531 10 5.0019531 z M 5.0625 5.0644531 L 5.40625 6.1269531 C 5.6253 5.8677331 5.86578 5.6272531 6.125 5.4082031 L 5.0625 5.0644531 z M 14.9375 5.0644531 L 13.84375 5.4394531 L 13.78125 5.4394531 C 13.92042 5.5504031 14.05623 5.6645631 14.1875 5.7832031 C 14.31877 5.9018431 14.44549 6.0249531 14.5625 6.1582031 L 14.9375 5.0644531 z M 11.097656 8.7832031 C 9.5443533 8.7832031 8.2216237 9.7341381 7.6523438 11.080078 C 6.2064717 11.295028 5.0976562 12.527523 5.0976562 14.033203 C 5.0976562 15.690063 6.4408012 17.033203 8.0976562 17.033203 L 14.472656 17.033203 C 15.922406 17.033203 17.097656 15.857953 17.097656 14.408203 C 17.097656 13.060803 16.084564 11.956681 14.777344 11.806641 C 14.436417 10.086601 12.917808 8.7832031 11.097656 8.7832031 z M 4 9.5019531 L 3 10.001953 L 4.03125 10.501953 C 4.01645 10.332643 4 10.175553 4 10.001953 C 4 9.9744531 3.998 9.9183531 4 9.8457031 C 4.006 9.7298731 4.02235 9.6134631 4.03125 9.5019531 L 4 9.5019531 z M 15.96875 9.5019531 C 15.98355 9.6712631 16 9.8283531 16 10.001953 C 16 10.029453 16.002 10.085553 16 10.158203 C 15.994 10.274033 15.97765 10.390443 15.96875 10.501953 L 16 10.501953 L 17 10.001953 L 15.96875 9.5019531 z" transform="translate(57.000007,681.28997)"/>
 </g>
</svg>
