<svg xmlns="http://www.w3.org/2000/svg" width="24" height="24" version="1.1">
<defs>
  <linearGradient id="carbon" x1="0%" x2="0%" y1="0%" y2="100%">
   <stop offset="0%" style="stop-color: #525c66; stop-opacity: 1"/>
   <stop offset="100%" style="stop-color: #36424e; stop-opacity: 1"/>
  </linearGradient>
  <linearGradient id="cyberblue" x1="0%" x2="0%" y1="0%" y2="100%">
   <stop stop-color="#07B3FF"/>
   <stop offset="1" stop-color="#007DE8"/>
  </linearGradient>
  <linearGradient id="cyberneon" x1="0%" x2="0%" y1="0%" y2="100%">
    <stop offset="0" style="stop-color: #0abdc6; stop-opacity: 1"/>
    <stop offset="1" style="stop-color: #ea00d9; stop-opacity: 1"/>
  </linearGradient>
  <linearGradient id="cyberorange" x1="0%" x2="0%" y1="0%" y2="100%">
    <stop offset="0%"   style="stop-color: #FF9757; stop-opacity: 1"/>
    <stop offset="50%"  style="stop-color: #FF6E51; stop-opacity: 1"/>
    <stop offset="100%" style="stop-color: #F5350F; stop-opacity: 1"/>
  </linearGradient>
  <linearGradient id="cyberturquoise"  x1="0%" x2="0%" y1="0%" y2="100%">
   <stop stop-color="#037164"/>
   <stop offset="1" stop-color="#00AC98"/>
  </linearGradient>
  <linearGradient id="fitdance" x1="0%" x2="0%" y1="0%" y2="100%">
   <stop offset="0%" style="stop-color: #1ad6ab; stop-opacity: 1"/>
   <stop offset="100%" style="stop-color: #329db6; stop-opacity: 1"/>
  </linearGradient>
  <linearGradient id="goldcarbon" x1="0%" x2="0%" y1="0%" y2="100%">
   <stop offset="1e-07" stop-color="#EDC268"/>
   <stop offset="1" stop-color="#9B7424"/>
  </linearGradient>
  <linearGradient id="lemon" x1="0%" x2="0%" y1="0%" y2="100%">
   <stop offset="0.1" stop-color="#6DDB0A"/>
   <stop offset="0.2" stop-color="#61D915"/>
   <stop offset="0.3" stop-color="#55D620"/>
   <stop offset="0.4" stop-color="#49D42B"/>
   <stop offset="0.5" stop-color="#3CD235"/>
   <stop offset="0.6" stop-color="#30CF40"/>
   <stop offset="0.7" stop-color="#24CD4B"/>
   <stop offset="0.8" stop-color="#18CA56"/>
   <stop offset="0.9" stop-color="#0CC861"/>
   <stop offset="1.0" stop-color="#00C66B"/>
  </linearGradient>
  <linearGradient id="purplecarbon" x1="0%" x2="0%" y1="0%" y2="100%">
   <stop offset="1e-07" stop-color="#EC57FF"/>
   <stop offset="0.5" stop-color="#C551FF"/>
   <stop offset="1" stop-color="#A90FF5"/>
  </linearGradient>
  <linearGradient id="redcarbon" x1="0%" x2="0%" y1="0%" y2="100%">
   <stop offset="0%" style="stop-color: #FF6D57; stop-opacity: 1"/>
   <stop offset="50%" style="stop-color: #FF5160; stop-opacity: 1"/>
   <stop offset="100%" style="stop-color: #F50F22; stop-opacity: 1"/>
  </linearGradient>
  <linearGradient id="silvercarbon" x1="0%" x2="0%" y1="0%" y2="100%">
   <stop offset="0%" stop-color="#DFDFDF"/>
   <stop offset="100%" stop-color="#A0A0A0"/>
  </linearGradient>
  <linearGradient id="ubuntu" x1="0%" x2="0%" y1="0%" y2="100%">
   <stop offset="1e-07" stop-color="#AD4F8D"/>
   <stop offset="1" stop-color="#6B8CCB"/>
  </linearGradient>
</defs>
 <path fill="url(#lemon)" d="M 10,2 C 8.892,2 8,2.892 8,4 V 6 H 4 C 2.892,6 2,6.892 2,8 V 12 H 4 C 5.108,12 6,12.892 6,14 6,15.108 5.108,16 4,16 H 2 V 20 C 2,21.108 2.892,22 4,22 H 8 V 20 C 8,18.892 8.892,18 10,18 11.108,18 12,18.892 12,20 V 22 H 16 C 17.108,22 18,21.108 18,20 V 16 H 20 C 21.108,16 22,15.108 22,14 22,12.892 21.108,12 20,12 H 18 V 8 C 18,6.892 17.108,6 16,6 H 12 V 4 C 12,2.892 11.108,2 10,2 Z"/>
</svg>
