<svg xmlns="http://www.w3.org/2000/svg" width="16" height="16" version="1.1">
<defs>
  <linearGradient id="carbon" x1="0%" x2="0%" y1="0%" y2="100%">
   <stop offset="0%" style="stop-color: #525c66; stop-opacity: 1"/>
   <stop offset="100%" style="stop-color: #36424e; stop-opacity: 1"/>
  </linearGradient>
  <linearGradient id="cyberneon" x1="0%" x2="0%" y1="0%" y2="100%">
    <stop offset="0" style="stop-color: #0abdc6; stop-opacity: 1"/>
    <stop offset="1" style="stop-color: #ea00d9; stop-opacity: 1"/>
  </linearGradient>
  <linearGradient id="fitdance" x1="0%" x2="0%" y1="0%" y2="100%">
   <stop offset="0%" style="stop-color: #1ad6ab; stop-opacity: 1"/>
   <stop offset="100%" style="stop-color: #329db6; stop-opacity: 1"/>
  </linearGradient>
</defs>
 <circle fill="url(#carbon)" cx="8" cy="8" r="7"/>
 <path fill="#ececec" d="M 7 3 L 7 5.5859375 L 5.171875 3.7578125 L 3.7578125 5.171875 L 5.5859375 7 L 3 7 L 3 9 L 5.5859375 9 L 3.7578125 10.828125 L 5.171875 12.242188 L 7 10.414062 L 7 13 L 9 13 L 9 10.414062 L 10.828125 12.242188 L 12.242188 10.828125 L 10.414062 9 L 13 9 L 13 7 L 10.414062 7 L 12.242188 5.171875 L 10.828125 3.7578125 L 9 5.5859375 L 9 3 L 7 3 z"/>
</svg>
