<?xml version="1.0" encoding="UTF-8" standalone="no"?>
<svg
   xmlns:dc="http://purl.org/dc/elements/1.1/"
   xmlns:cc="http://creativecommons.org/ns#"
   xmlns:rdf="http://www.w3.org/1999/02/22-rdf-syntax-ns#"
   xmlns:svg="http://www.w3.org/2000/svg"
   xmlns="http://www.w3.org/2000/svg"
   xmlns:sodipodi="http://sodipodi.sourceforge.net/DTD/sodipodi-0.dtd"
   xmlns:inkscape="http://www.inkscape.org/namespaces/inkscape"
   sodipodi:docname="advert-block.svg"
   inkscape:version="0.91 r13725"
   id="svg2"
   version="1.1"
   width="512"
   viewBox="0 0 512 512"
   height="512">
  <defs
     id="defs17" />
  <sodipodi:namedview
     inkscape:current-layer="svg2"
     inkscape:window-maximized="1"
     inkscape:window-y="0"
     inkscape:window-x="0"
     inkscape:cy="348.771"
     inkscape:cx="6.6457994"
     inkscape:zoom="0.88455375"
     showgrid="false"
     id="namedview15"
     inkscape:window-height="1022"
     inkscape:window-width="1920"
     inkscape:pageshadow="2"
     inkscape:pageopacity="0"
     guidetolerance="10"
     gridtolerance="10"
     objecttolerance="10"
     borderopacity="1"
     bordercolor="#666666"
     pagecolor="#ffffff" />
  <metadata
     id="metadata28">
    <rdf:RDF>
      <cc:Work
         rdf:about="">
        <dc:format>image/svg+xml</dc:format>
        <dc:type
           rdf:resource="http://purl.org/dc/dcmitype/StillImage" />
        <dc:title></dc:title>
      </cc:Work>
    </rdf:RDF>
  </metadata>
  <path
     style="fill:#009688;fill-opacity:1;fill-rule:evenodd"
     d="m 259.83386,47.716554 c -120.89,0 -218.900388,98.000386 -218.900388,218.900386 0,120.89 98.000388,218.89844 218.900388,218.89844 120.89,0 218.89844,-97.99844 218.89844,-218.89844 0,-120.89 -97.99844,-218.900386 -218.89844,-218.900386 z m -118.89258,179.896486 237.76368,0 c 14.61986,0 26.38867,8.79431 26.38867,19.71874 l 0,38.56641 c 0,10.92443 -11.76881,19.71875 -26.38867,19.71875 l -237.76368,0 c -14.61986,0 -26.38867,-8.79432 -26.38867,-19.71875 l 0,-38.56641 c 0,-10.92443 11.76881,-19.71874 26.38867,-19.71874 z"
     id="path6"
     inkscape:connector-curvature="0" />
</svg>
