<?xml version="1.0" encoding="UTF-8" standalone="no"?>
<svg
   xmlns:dc="http://purl.org/dc/elements/1.1/"
   xmlns:cc="http://creativecommons.org/ns#"
   xmlns:rdf="http://www.w3.org/1999/02/22-rdf-syntax-ns#"
   xmlns:svg="http://www.w3.org/2000/svg"
   xmlns="http://www.w3.org/2000/svg"
   xmlns:sodipodi="http://sodipodi.sourceforge.net/DTD/sodipodi-0.dtd"
   xmlns:inkscape="http://www.inkscape.org/namespaces/inkscape"
   height="512"
   viewBox="0 0 512 512"
   width="512"
   version="1.1"
   id="svg2"
   inkscape:version="0.91 r"
   sodipodi:docname="aim.svg">
  <defs
     id="defs14" />
  <sodipodi:namedview
     pagecolor="#ffffff"
     bordercolor="#666666"
     borderopacity="1"
     objecttolerance="10"
     gridtolerance="10"
     guidetolerance="10"
     inkscape:pageopacity="0"
     inkscape:pageshadow="2"
     inkscape:window-width="647"
     inkscape:window-height="480"
     id="namedview12"
     showgrid="false"
     inkscape:zoom="0.4609375"
     inkscape:cx="256"
     inkscape:cy="256"
     inkscape:window-x="0"
     inkscape:window-y="0"
     inkscape:window-maximized="0"
     inkscape:current-layer="svg2" />
  <metadata
     id="metadata70">
    <rdf:RDF>
      <cc:Work
         rdf:about="">
        <dc:format>image/svg+xml</dc:format>
        <dc:type
           rdf:resource="http://purl.org/dc/dcmitype/StillImage" />
      </cc:Work>
    </rdf:RDF>
  </metadata>
  <path
     id="path874"
     d="m 225.22733,417.0495 c 9.92866,-2.75686 28.41553,-14.14383 41.08333,-25.29003 l 23.03042,-20.27077 4.63924,12.19613 c 6.06136,15.94774 28.61808,33.44999 43.10497,33.44999 28.57883,0 61.94147,-23.28612 61.94147,-43.23155 0,-9.83638 -2.53647,-11.5866 -16.83133,-11.5866 -32.41069,0 -37.89581,-24.27479 -20.75687,-91.83557 9.6608,-38.08696 11.19658,-50.93958 6.72886,-56.32216 -8.72872,-10.52098 -31.87648,-21.26956 -45.79245,-21.26956 -11.38938,0 -13.01846,3.04663 -20.64421,38.62243 -14.14763,65.99613 -17.19591,75.07893 -30.49919,90.89374 -24.11528,28.65732 -57.86782,37.96037 -80.4172,22.16581 -41.75172,-29.23836 -32.46132,-125.09061 15.99838,-165.03463 23.26207,-19.1707 47.80016,-26.51036 88.64804,-26.51036 38.95536,0 60.05149,6.4077 84.93011,25.80019 15.60974,12.17892 19.23653,13.31594 21.72654,6.82406 4.67077,-12.17044 -2.24316,-39.8782 -14.4236,-57.79947 -19.36312,-28.490213 -43.36953,-37.119814 -103.27925,-37.119814 -47.04949,0 -55.14868,1.388686 -80.35137,13.765334 C 129.72865,140.99873 84.674206,233.82043 99.081349,320.76204 111.57471,396.1549 161.96211,434.61151 225.22771,417.04089 Z"
     inkscape:connector-curvature="0"
     style="fill:#009688" />
</svg>
