<?xml version="1.0" encoding="UTF-8" standalone="no"?>
<svg
   xmlns:dc="http://purl.org/dc/elements/1.1/"
   xmlns:cc="http://creativecommons.org/ns#"
   xmlns:rdf="http://www.w3.org/1999/02/22-rdf-syntax-ns#"
   xmlns:svg="http://www.w3.org/2000/svg"
   xmlns="http://www.w3.org/2000/svg"
   xmlns:sodipodi="http://sodipodi.sourceforge.net/DTD/sodipodi-0.dtd"
   xmlns:inkscape="http://www.inkscape.org/namespaces/inkscape"
   height="512"
   viewBox="0 0 512 512"
   width="512"
   version="1.1"
   id="svg2"
   inkscape:version="0.91 r"
   sodipodi:docname="AirPortUtility.svg">
  <defs
     id="defs14" />
  <sodipodi:namedview
     pagecolor="#ffffff"
     bordercolor="#666666"
     borderopacity="1"
     objecttolerance="10"
     gridtolerance="10"
     guidetolerance="10"
     inkscape:pageopacity="0"
     inkscape:pageshadow="2"
     inkscape:window-width="647"
     inkscape:window-height="480"
     id="namedview12"
     showgrid="false"
     inkscape:zoom="0.4609375"
     inkscape:cx="256"
     inkscape:cy="256"
     inkscape:window-x="0"
     inkscape:window-y="0"
     inkscape:window-maximized="0"
     inkscape:current-layer="svg2" />
  <metadata
     id="metadata70">
    <rdf:RDF>
      <cc:Work
         rdf:about="">
        <dc:format>image/svg+xml</dc:format>
        <dc:type
           rdf:resource="http://purl.org/dc/dcmitype/StillImage" />
      </cc:Work>
    </rdf:RDF>
  </metadata>
  <path
     id="path440-1"
     fill="#009688"
     d="m256 119.49c-61.517 0-123.04 20.505-173.35 61.503l34.189 41.689c37.923-30.9 86.369-49.49 139.15-49.49 52.742 0 101.19 18.589 139.17 49.535l34.189-41.734c-50.32-41-111.83-61.5-173.35-61.5zm0 66.485c-49.708 0-95.347 17.513-131.1 46.628l34.198 41.69c26.434-21.536 60.161-34.498 96.905-34.498 36.707 0 70.467 12.962 96.905 34.498l34.153-41.69c-35.76-29.12-81.39-46.64-131.06-46.64zm0 66.729c-33.627 0-64.532 11.877-88.707 31.589l36.046 43.991c14.21-12.62 32.56-20.29 52.66-20.29 20.065 0 38.444 7.6721 52.661 20.284l36.064-43.991c-24.23-19.71-55.08-31.59-88.72-31.59zm-0.009 68.215c-17.027 0-32.585 6.5038-44.589 17.168l44.589 54.427 44.598-54.39c-12-10.72-27.6-17.21-44.6-17.21z" />
</svg>
