<?xml version="1.0" encoding="UTF-8" standalone="no"?>
<svg
   xmlns:dc="http://purl.org/dc/elements/1.1/"
   xmlns:cc="http://creativecommons.org/ns#"
   xmlns:rdf="http://www.w3.org/1999/02/22-rdf-syntax-ns#"
   xmlns:svg="http://www.w3.org/2000/svg"
   xmlns="http://www.w3.org/2000/svg"
   xmlns:sodipodi="http://sodipodi.sourceforge.net/DTD/sodipodi-0.dtd"
   xmlns:inkscape="http://www.inkscape.org/namespaces/inkscape"
   height="512"
   viewBox="0 0 512 512"
   width="512"
   version="1.1"
   id="svg2"
   inkscape:version="0.91 r"
   sodipodi:docname="androidstudio.svg">
  <defs
     id="defs15" />
  <sodipodi:namedview
     pagecolor="#ffffff"
     bordercolor="#666666"
     borderopacity="1"
     objecttolerance="10"
     gridtolerance="10"
     guidetolerance="10"
     inkscape:pageopacity="0"
     inkscape:pageshadow="2"
     inkscape:window-width="1920"
     inkscape:window-height="1028"
     id="namedview13"
     showgrid="false"
     inkscape:zoom="0.4609375"
     inkscape:cx="256"
     inkscape:cy="256"
     inkscape:window-x="0"
     inkscape:window-y="0"
     inkscape:window-maximized="1"
     inkscape:current-layer="svg2" />
  <metadata
     id="metadata72">
    <rdf:RDF>
      <cc:Work
         rdf:about="">
        <dc:format>image/svg+xml</dc:format>
        <dc:type
           rdf:resource="http://purl.org/dc/dcmitype/StillImage" />
      </cc:Work>
    </rdf:RDF>
  </metadata>
  <path
     id="path66"
     d="m308.52 103.73c-2.165-0.011-5.599 3.582-11.337 11.73-4.04 5.743-7.513 10.68-7.705 10.945-0.193 0.264-4.833-0.705-10.258-2.11-12.973-3.362-34.69-3.285-46.92 0.147-5.268 1.478-9.797 2.398-10.06 2.061-0.265-0.336-3.844-5.359-7.951-11.19-4.782-6.789-8.531-10.601-10.454-10.601-4.72 0-3.678 4.849 3.239 14.724 3.456 4.932 6.282 9.616 6.282 10.405s-3.091 3.233-6.871 5.448c-9.173 5.376-21.706 18.859-26.699 28.712-4.503 8.887-7.455 20.05-6.184 23.362 0.69 1.798 14.606 2.16 82.4 2.16 72.15 0 81.63-0.304 82.45-2.454 1.349-3.516-5.083-21.957-10.307-29.546-5.552-8.07-18.434-20.245-25.03-23.656-2.727-1.41-4.957-2.891-4.957-3.337 0-0.447 2.827-5.186 6.282-10.503 5.951-9.157 7.471-13.633 5.35-15.755-0.377-0.377-0.776-0.537-1.276-0.54m-86.04 45.06c5.214 0 9.423 4.209 9.423 9.423s-4.21 9.423-9.423 9.423c-5.215 0-9.472-4.209-9.472-9.423s4.258-9.423 9.472-9.423m67.926 0c5.214 0 9.423 4.209 9.423 9.423s-4.21 9.423-9.423 9.423c-5.214 0-9.423-4.209-9.423-9.423s4.209-9.423 9.423-9.423m-145.28 49.28c-10.66 0-19.239 8.656-19.239 19.435v72.64c0 10.779 8.579 19.435 19.239 19.435 10.659 0 19.239-8.656 19.239-19.435v-72.64c0-10.779-8.58-19.435-19.239-19.435m221.69 0c-10.66 0-19.239 8.656-19.239 19.435v72.64c0 10.779 8.58 19.435 19.239 19.435 10.66 0 19.288-8.656 19.288-19.435v-72.64c0-10.779-8.629-19.435-19.288-19.435m-27.828 0.834-82.85 0.393-82.85 0.442-0.393 68.17c-0.445 74.21-0.667 72.17 8.442 78.13 2.236 1.465 7.371 2.814 11.386 2.994 4.02 0.18 8.148 0.396 9.227 0.491 0.926-0.014 1.399-0.036 2.307-0.049v39.31c0 10.779 8.58 19.485 19.239 19.485 10.66 0 19.239-8.705 19.239-19.485v-39.754c10.967-0.102 19.655-0.128 27.24-0.147v39.902c0 10.779 8.579 19.485 19.239 19.485 10.659 0 19.239-8.705 19.239-19.485v-39.853c0.47 0.001 1 0 1.472 0l10.552-0.491c10.617 0 18.503-4.847 18.503-9.963v-139.57m-150.77 14.13 67.926 0.393 67.926 0.442 0.442 60.07 0.393 60.07h-136.69v-120.99m63.951 7.215c-1.562 0.052-3.088 0.226-4.466 0.491-0.549 0.106-1.456 3.213-2.01 6.92-0.836 5.572-1.778 7.02-5.546 8.442-3.892 1.469-5.372 1.206-9.963-1.914l-5.35-3.632-5.742 3.877c-6.581 4.472-7.218 8.182-2.454 14.626 3.096 4.188 3.183 4.734 0.834 9.276-1.941 3.754-3.973 5.106-9.178 6.135l-6.724 1.325v15.608l7.264 1.374c6.513 1.259 7.489 1.993 9.03 7.02 1.491 4.857 1.31 6.076-1.374 8.932-4.02 4.28-3.944 8.298 0.295 12.81 4.138 4.405 8.998 4.601 14.04 0.638 3.546-2.788 4.131-2.789 9.669-0.393 3.484 1.508 5.841 3.619 5.84 5.202 0 1.468 0.709 4.507 1.571 6.773 1.399 3.68 2.279 4.113 8.245 3.681 6.365-0.46 6.788-0.845 8.834-7.313 1.606-5.074 3.443-7.405 7.264-9.227 4.848-2.312 5.376-2.249 10.01 1.178 4.287 3.169 5.326 3.392 8.638 1.62 2.078-1.112 4.69-3.734 5.792-5.791 2.034-3.802 1.242-6.847-3.436-13.301-2.876-3.97 1.469-11.304 7.411-12.515 7.495-1.528 8.491-2.742 8.491-10.159 0-6.637-0.225-6.967-5.89-8.54-3.239-0.9-6.596-1.608-7.46-1.62-0.863-0.011-2.44-1.965-3.534-4.319-1.731-3.728-1.579-4.81 1.178-8.54 4.109-5.557 3.979-9.422-0.393-13.399-5.303-4.825-7.677-5.02-13.791-1.178-5.05 3.173-5.965 3.294-9.816 1.276-3.124-1.637-4.27-3.425-4.27-6.773 0-2.502-0.932-5.496-2.11-6.675-1.296-1.296-6.209-2.07-10.896-1.914m1.963 38.33c4.311 0.053 8.842 1.094 10.945 2.798 7.211 5.842 6.472 21.254-1.227 25.374-1.741 0.932-5.737 1.718-8.883 1.718-7.521 0-14.92-6.974-14.92-14.09 0-5.909 3.661-13.428 7.166-14.773 1.858-0.713 4.334-1.063 6.92-1.031"
     fill-rule="evenodd"
     fill="#009688" />
</svg>
