<?xml version="1.0" encoding="UTF-8" standalone="no"?>
<svg
   xmlns:dc="http://purl.org/dc/elements/1.1/"
   xmlns:cc="http://creativecommons.org/ns#"
   xmlns:rdf="http://www.w3.org/1999/02/22-rdf-syntax-ns#"
   xmlns:svg="http://www.w3.org/2000/svg"
   xmlns="http://www.w3.org/2000/svg"
   xmlns:sodipodi="http://sodipodi.sourceforge.net/DTD/sodipodi-0.dtd"
   xmlns:inkscape="http://www.inkscape.org/namespaces/inkscape"
   height="512"
   viewBox="0 0 512 512"
   width="512"
   version="1.1"
   id="svg2"
   inkscape:version="0.91 r"
   sodipodi:docname="android-sdk.svg">
  <defs
     id="defs17" />
  <sodipodi:namedview
     pagecolor="#ffffff"
     bordercolor="#666666"
     borderopacity="1"
     objecttolerance="10"
     gridtolerance="10"
     guidetolerance="10"
     inkscape:pageopacity="0"
     inkscape:pageshadow="2"
     inkscape:window-width="1920"
     inkscape:window-height="1028"
     id="namedview15"
     showgrid="false"
     inkscape:zoom="1.3037281"
     inkscape:cx="59.342963"
     inkscape:cy="244.919"
     inkscape:window-x="0"
     inkscape:window-y="0"
     inkscape:window-maximized="1"
     inkscape:current-layer="svg2" />
  <metadata
     id="metadata28">
    <rdf:RDF>
      <cc:Work
         rdf:about="">
        <dc:format>image/svg+xml</dc:format>
        <dc:type
           rdf:resource="http://purl.org/dc/dcmitype/StillImage" />
        <dc:title />
      </cc:Work>
    </rdf:RDF>
  </metadata>
  <path
     inkscape:connector-curvature="0"
     style="fill:#009688"
     d="m 214.05784,82.177025 c -0.35,0.004 -0.712,0.071 -1.063,0.188 -1.855,0.627 -2.844,2.638 -2.219,4.5 l 5.125,15.160005 2.281,6.75 2.313,6.844 c -32.81,5.766 -59.42,26.2 -67.31,55.656 l 192.38,51.563 c 7.89,-29.447 -4.938,-60.48 -30.469,-81.87 l 5.438,-4.75 5.344,-4.719 12.03,-10.563 c 1.473,-1.3 1.596,-3.524 0.313,-5 -1.312,-1.484 -3.55,-1.649 -5.03,-0.344 l -12.875,11.313 -5.406,4.781 -5.5,4.813 c -11.13,-8.141 -24.25,-14.55 -38.875,-18.469 -14.61,-3.915 -29.17,-4.923 -42.875,-3.438 l -2.344,-6.906 -2.281,-6.844 -5.5,-16.219005 c -0.391,-1.164 -1.334,-2.01 -2.438,-2.313 -0.331,-0.091 -0.682,-0.129 -1.031,-0.125 m 3.781,55.380005 c 1.051,-0.041 2.118,0.057 3.188,0.344 5.692,1.525 9.06,7.401 7.531,13.09 -1.525,5.692 -7.339,9.06 -13.03,7.531 -5.707,-1.529 -9.119,-7.37 -7.594,-13.06 1.239,-4.625 5.351,-7.727 9.906,-7.906 m 178.22,9.75 c -9.09,0.359 -17.268,6.551 -19.75,15.813 l -23.625,88.19 c -3.049,11.378 3.702,23.07 15.09,26.13 11.378,3.049 23.08,-3.716 26.13,-15.09 l 23.625,-88.19 c 3.052,-11.392 -3.685,-23.08 -15.06,-26.12 -2.136,-0.572 -4.308,-0.802 -6.406,-0.719 m -95.78,12.344 c 1.049,-0.042 2.151,0.058 3.219,0.344 5.706,1.529 9.06,7.401 7.531,13.09 -1.525,5.692 -7.356,9.06 -13.06,7.531 -5.692,-1.525 -9.09,-7.37 -7.563,-13.06 1.239,-4.625 5.329,-7.725 9.875,-7.906 m -191.53001,15.438 c -9.089996,0.36 -17.299996,6.551 -19.780996,15.813 l -10.219,38.16 c 5.207,23.429 14.14,45.44 26.189996,65.38 0.693,-1.34 1.25,-2.766 1.656,-4.281 l 23.62501,-88.19 c 3.052,-11.392 -3.70901,-23.11 -15.09001,-26.16 -2.135,-0.572 -4.277,-0.802 -6.375,-0.719 m 40.75001,9.938 -4.594,17.16 -3.75,13.969 -25.34401,94.56 c 39.83701,54.3 104.09001,89.56 176.59001,89.56 l 0.281,0 c 4.115,-2.931 7.281,-7.249 8.688,-12.5 l 32.19,-120.06 3.719,-13.969 4.594,-17.16 -1.469,-0.406 -189.44,-50.75 -1.469,-0.406"
     id="path17" />
</svg>
