<?xml version="1.0" encoding="UTF-8" standalone="no"?>
<svg xmlns:dc="http://purl.org/dc/elements/1.1/" xmlns:cc="http://creativecommons.org/ns#" xmlns:rdf="http://www.w3.org/1999/02/22-rdf-syntax-ns#" xmlns:svg="http://www.w3.org/2000/svg" xmlns="http://www.w3.org/2000/svg" xmlns:sodipodi="http://sodipodi.sourceforge.net/DTD/sodipodi-0.dtd" xmlns:inkscape="http://www.inkscape.org/namespaces/inkscape" height="512" viewBox="0 0 512 512" width="512" version="1.1" id="svg2" inkscape:version="0.91 r" sodipodi:docname="chrome-app-list.svg">
<defs id="defs17" />
<sodipodi:namedview pagecolor="#ffffff" bordercolor="#666666" borderopacity="1" objecttolerance="10" gridtolerance="10" guidetolerance="10" inkscape:pageopacity="0" inkscape:pageshadow="2" inkscape:window-width="1680" inkscape:window-height="1022" id="namedview15" showgrid="false" inkscape:zoom="1.3037281" inkscape:cx="40.167185" inkscape:cy="244.919" inkscape:window-x="1680" inkscape:window-y="0" inkscape:window-maximized="1" inkscape:current-layer="svg2" />
<metadata id="metadata28">
<rdf:RDF>
<cc:Work rdf:about="">
<dc:format>image/svg+xml</dc:format>
<dc:type rdf:resource="http://purl.org/dc/dcmitype/StillImage" />
<dc:title />
</cc:Work>
</rdf:RDF>
</metadata>
<path inkscape:connector-curvature="0" style="fill:#009688" d="m 372.15192,32.960123 -27.89978,61.335051 -60.53545,10.491716 43.21414,48.75869 -9.7956,67.96483 54.59332,-31.1628 54.45367,31.47683 -9.47027,-68.01661 43.45182,-48.44131 -60.44334,-10.909318 -27.57594,-61.490397 m -236.06595,5.01117 c -43.93462,0 -79.565115,40.015863 -79.565115,89.415975 0,49.40179 35.633466,89.46609 79.565115,89.46609 43.93462,0 79.56512,-40.06764 79.56512,-89.46609 0,-49.401782 -35.63347,-89.415975 -79.56512,-89.415975 m 163.2303,255.669895 c -3.84307,0 -6.91664,3.45604 -6.91664,7.77734 l 0,163.33073 c 0,4.3213 3.07357,7.77734 6.91664,7.77734 l 145.25536,0 c 3.84307,0 6.91664,-3.45604 6.91664,-7.77734 l 0,-163.33073 c 0,-4.3213 -3.07357,-7.77734 -6.91664,-7.77734 l -145.25536,0 m -163.21544,11.53571 -40.480762,76.98828 -39.087328,77.93371 79.56511,0.88698 79.56512,-0.88698 -39.08881,-77.93371 -40.48076,-76.98828" id="path3726" />
</svg>
