<?xml version="1.0" encoding="UTF-8" standalone="no"?>
<svg
   xmlns:dc="http://purl.org/dc/elements/1.1/"
   xmlns:cc="http://creativecommons.org/ns#"
   xmlns:rdf="http://www.w3.org/1999/02/22-rdf-syntax-ns#"
   xmlns:svg="http://www.w3.org/2000/svg"
   xmlns="http://www.w3.org/2000/svg"
   xmlns:sodipodi="http://sodipodi.sourceforge.net/DTD/sodipodi-0.dtd"
   xmlns:inkscape="http://www.inkscape.org/namespaces/inkscape"
   version="1.1"
   width="512"
   height="512"
   viewBox="0 0 512 512"
   id="svg2"
   inkscape:version="0.91 r"
   sodipodi:docname="applications-cardgames.svg">
  <defs
     id="defs39" />
  <sodipodi:namedview
     pagecolor="#ffffff"
     bordercolor="#666666"
     borderopacity="1"
     objecttolerance="10"
     gridtolerance="10"
     guidetolerance="10"
     inkscape:pageopacity="0"
     inkscape:pageshadow="2"
     inkscape:window-width="640"
     inkscape:window-height="480"
     id="namedview37"
     showgrid="false"
     inkscape:zoom="0.4609375"
     inkscape:cx="256"
     inkscape:cy="256"
     inkscape:window-x="0"
     inkscape:window-y="0"
     inkscape:window-maximized="0"
     inkscape:current-layer="svg2" />
  <metadata
     id="metadata72">
    <rdf:RDF>
      <cc:Work
         rdf:about="">
        <dc:format>image/svg+xml</dc:format>
        <dc:type
           rdf:resource="http://purl.org/dc/dcmitype/StillImage" />
      </cc:Work>
    </rdf:RDF>
  </metadata>
  <text
     x="729.64"
     y="231.36"
     id="text20"
     font-family="Gentium Book Basic"
     word-spacing="0"
     line-height="125%"
     letter-spacing="0"
     font-size="129.23">
    <tspan
       x="729.64"
       y="231.36"
       id="tspan22" />
  </text>
  <text
     x="378.91"
     y="579.25"
     transform="scale(4.0128,0.2492)"
     id="text24"
     font-family="Arial"
     text-anchor="middle"
     font-size="46.954" />
  <text
     x="1310.91"
     y="151.36"
     id="text26"
     font-family="Gentium Book Basic"
     word-spacing="0"
     line-height="125%"
     letter-spacing="0"
     font-size="129.23">
    <tspan
       x="1310.91"
       y="151.36"
       id="tspan28" />
  </text>
  <text
     x="523.76"
     y="258.22"
     transform="scale(4.0128,0.2492)"
     id="text30"
     font-family="Arial"
     text-anchor="middle"
     font-size="46.954" />
  <text
     x="239.33"
     y="-29.901"
     id="text32"
     font-family="Gentium Book Basic"
     word-spacing="0"
     line-height="125%"
     letter-spacing="0"
     font-size="129.23">
    <tspan
       x="239.33"
       y="-29.901"
       id="tspan34" />
  </text>
  <text
     x="256.72"
     y="-469.14"
     transform="scale(4.0128,0.2492)"
     id="text36"
     font-family="Arial"
     text-anchor="middle"
     font-size="46.954" />
  <text
     x="1337.38"
     y="-246.37"
     id="text38"
     font-family="Gentium Book Basic"
     word-spacing="0"
     line-height="125%"
     letter-spacing="0"
     font-size="129.23">
    <tspan
       x="1337.38"
       y="-246.37"
       id="tspan40" />
  </text>
  <text
     x="530.36"
     y="-1337.81"
     transform="scale(4.0128,0.2492)"
     id="text42"
     font-family="Arial"
     text-anchor="middle"
     font-size="46.954" />
  <text
     x="1918.65"
     y="-326.38"
     id="text44"
     font-family="Gentium Book Basic"
     word-spacing="0"
     line-height="125%"
     letter-spacing="0"
     font-size="129.23">
    <tspan
       x="1918.65"
       y="-326.38"
       id="tspan46" />
  </text>
  <text
     x="675.21"
     y="-1658.85"
     transform="scale(4.0128,0.2492)"
     id="text48"
     font-family="Arial"
     text-anchor="middle"
     font-size="46.954" />
  <text
     x="1529.53"
     y="-798.78"
     id="text50"
     font-family="Gentium Book Basic"
     word-spacing="0"
     line-height="125%"
     letter-spacing="0"
     font-size="129.23">
    <tspan
       x="1529.53"
       y="-798.78"
       id="tspan52" />
  </text>
  <text
     x="578.24"
     y="-3554.51"
     transform="scale(4.0128,0.2492)"
     id="text54"
     font-family="Arial"
     text-anchor="middle"
     font-size="46.954" />
  <text
     x="2110.79"
     y="-878.78"
     id="text56"
     font-family="Gentium Book Basic"
     word-spacing="0"
     line-height="125%"
     letter-spacing="0"
     font-size="129.23">
    <tspan
       x="2110.79"
       y="-878.78"
       id="tspan58" />
  </text>
  <text
     x="723.09"
     y="-3875.54"
     transform="scale(4.0128,0.2492)"
     id="text60"
     font-family="Arial"
     text-anchor="middle"
     font-size="46.954" />
  <text
     x="277.99"
     y="535.94"
     id="text62"
     font-family="Gentium Book Basic"
     word-spacing="0"
     line-height="125%"
     letter-spacing="0"
     font-size="208.33">
    <tspan
       x="277.99"
       y="535.94"
       id="tspan64" />
  </text>
  <path
     d="m 161.28,126.39 c -16.579,0 -30.03,13.452 -30.03,30.03 v 160.19 c 0,16.579 13.452,30.03 30.03,30.03 h 110.13 c 16.579,0 30.06,-13.452 30.06,-30.03 V 156.42 c 0,-16.579 -13.483,-30.03 -30.06,-30.03 H 161.29 m 92.13,30.03 h 5.688 c 0.621,0 1.019,0.135 1.219,0.375 0.2,0.24 0.361,0.579 0.531,1 l 9.09,27.594 c 0.11,0.37 0.091,0.611 0.031,0.781 -0.06,0.17 -0.263,0.281 -0.594,0.281 h -5.594 c -0.511,0 -0.861,-0.113 -1.031,-0.344 -0.18,-0.21 -0.35,-0.561 -0.5,-1.031 l -1.5,-5.406 h -8.969 l -1.625,5.531 c -0.15,0.491 -0.363,0.789 -0.594,0.969 -0.25,0.17 -0.559,0.281 -1,0.281 h -5 c -0.33,0 -0.567,-0.047 -0.688,-0.188 -0.12,-0.14 -0.108,-0.448 0.063,-0.969 l 8.688,-27.563 c 0.15,-0.421 0.352,-0.758 0.563,-0.969 0.2,-0.22 0.608,-0.344 1.219,-0.344 m 57.719,2.75 c -0.163,132.94 -0.096,0.294 0,132.13 v 25.313 c 0,21.811 -17.92,39.688 -39.719,39.688 h -75.5 l 105.56,28.28 c 16.01,4.291 32.521,-5.204 36.813,-21.22 l 41.44,-154.72 c 4.291,-16.01 -5.236,-32.49 -21.25,-36.781 L 311.14,159.17 m -54.969,4.531 -1.5,5.469 -1.344,5.063 h 5.875 l -1.375,-5 -1.438,-5.531 h -0.219 m -40.03,23.469 h 0.25 c 0,0 43.866,30.31 43.906,53.5 0,13.866 -9.276,22.657 -22.531,22.688 -6.858,0 -13.784,-4.624 -17.719,-8.469 0,0 3.688,17.04 10.406,29.938 0.871,1.672 -28.635,1.723 -27.844,0.031 6.538,-13.976 10.188,-29.969 10.188,-29.969 -3.945,3.664 -11.506,8.521 -17.844,8.531 -13.226,0.01 -22.574,-8.779 -22.594,-22.625 -0.02,-23.21 43.781,-53.625 43.781,-53.625 m 116.41,8.906 c 0.212,-0.004 0.486,0.046 0.781,0.125 l 5.469,1.469 c 0.6,0.161 0.963,0.404 1.094,0.688 0.131,0.284 0.194,0.644 0.25,1.094 l 1.656,29 c 0.011,0.386 -0.085,0.601 -0.188,0.75 -0.102,0.149 -0.306,0.211 -0.625,0.125 l -5.406,-1.438 c -0.493,-0.132 -0.801,-0.327 -0.906,-0.594 -0.12,-0.25 -0.195,-0.632 -0.219,-1.125 l -0.063,-5.625 -8.656,-2.313 -3,4.906 c -0.272,0.435 -0.575,0.667 -0.844,0.781 -0.286,0.1 -0.606,0.145 -1.031,0.031 l -4.813,-1.313 c -0.319,-0.085 -0.545,-0.177 -0.625,-0.344 -0.08,-0.166 0.013,-0.447 0.313,-0.906 l 15.531,-24.375 c 0.254,-0.367 0.524,-0.664 0.781,-0.813 0.125,-0.081 0.288,-0.121 0.5,-0.125 m 1.531,7.875 -2.844,4.875 -2.625,4.563 5.688,1.5 -0.031,-5.188 0.031,-5.719 -0.219,-0.031 m -170.59,82.62 h 5 c 0.441,0 0.76,0.111 1,0.281 0.24,0.18 0.444,0.478 0.594,0.969 l 1.594,5.531 h 9 l 1.5,-5.375 c 0.15,-0.471 0.32,-0.842 0.5,-1.063 0.17,-0.22 0.511,-0.344 1.031,-0.344 h 5.594 c 0.33,0 0.534,0.111 0.594,0.281 0.06,0.17 0.048,0.442 -0.063,0.813 l -9.06,27.594 c -0.17,0.42 -0.331,0.77 -0.531,1 -0.2,0.24 -0.588,0.344 -1.219,0.344 h -5.688 c -0.601,0 -1.019,-0.102 -1.219,-0.313 -0.21,-0.22 -0.381,-0.548 -0.531,-0.969 l -8.719,-27.563 c -0.17,-0.521 -0.173,-0.829 -0.063,-0.969 0.11,-0.14 0.357,-0.219 0.688,-0.219 m 9.75,12.25 1.344,5.03 1.5,5.5 h 0.219 l 1.469,-5.531 1.344,-5 h -5.875"
     inkscape:connector-curvature="0"
     id="path66"
     fill="#009688" />
</svg>
