<?xml version="1.0" encoding="UTF-8" standalone="no"?>
<svg
   xmlns:dc="http://purl.org/dc/elements/1.1/"
   xmlns:cc="http://creativecommons.org/ns#"
   xmlns:rdf="http://www.w3.org/1999/02/22-rdf-syntax-ns#"
   xmlns:svg="http://www.w3.org/2000/svg"
   xmlns="http://www.w3.org/2000/svg"
   xmlns:sodipodi="http://sodipodi.sourceforge.net/DTD/sodipodi-0.dtd"
   xmlns:inkscape="http://www.inkscape.org/namespaces/inkscape"
   version="1.1"
   width="512"
   height="512"
   viewBox="0 0 512 512"
   id="svg2"
   inkscape:version="0.91 r"
   sodipodi:docname="applications-arcade.svg">
  <defs
     id="defs40" />
  <sodipodi:namedview
     pagecolor="#ffffff"
     bordercolor="#666666"
     borderopacity="1"
     objecttolerance="10"
     gridtolerance="10"
     guidetolerance="10"
     inkscape:pageopacity="0"
     inkscape:pageshadow="2"
     inkscape:window-width="640"
     inkscape:window-height="480"
     id="namedview38"
     showgrid="false"
     inkscape:zoom="0.4609375"
     inkscape:cx="256"
     inkscape:cy="256"
     inkscape:window-x="0"
     inkscape:window-y="0"
     inkscape:window-maximized="0"
     inkscape:current-layer="svg2" />
  <metadata
     id="metadata74">
    <rdf:RDF>
      <cc:Work
         rdf:about="">
        <dc:format>image/svg+xml</dc:format>
        <dc:type
           rdf:resource="http://purl.org/dc/dcmitype/StillImage" />
      </cc:Work>
    </rdf:RDF>
  </metadata>
  <text
     x="729.64"
     y="231.36"
     id="text20"
     font-family="Gentium Book Basic"
     word-spacing="0"
     line-height="125%"
     letter-spacing="0"
     font-size="129.23">
    <tspan
       x="729.64"
       y="231.36"
       id="tspan22" />
  </text>
  <text
     x="378.91"
     y="579.25"
     transform="scale(4.0128,0.2492)"
     id="text24"
     font-family="Arial"
     text-anchor="middle"
     font-size="46.954" />
  <text
     x="1310.91"
     y="151.36"
     id="text26"
     font-family="Gentium Book Basic"
     word-spacing="0"
     line-height="125%"
     letter-spacing="0"
     font-size="129.23">
    <tspan
       x="1310.91"
       y="151.36"
       id="tspan28" />
  </text>
  <text
     x="523.76"
     y="258.22"
     transform="scale(4.0128,0.2492)"
     id="text30"
     font-family="Arial"
     text-anchor="middle"
     font-size="46.954" />
  <text
     x="239.33"
     y="-29.901"
     id="text32"
     font-family="Gentium Book Basic"
     word-spacing="0"
     line-height="125%"
     letter-spacing="0"
     font-size="129.23">
    <tspan
       x="239.33"
       y="-29.901"
       id="tspan34" />
  </text>
  <text
     x="256.72"
     y="-469.14"
     transform="scale(4.0128,0.2492)"
     id="text36"
     font-family="Arial"
     text-anchor="middle"
     font-size="46.954" />
  <text
     x="1337.38"
     y="-246.37"
     id="text38"
     font-family="Gentium Book Basic"
     word-spacing="0"
     line-height="125%"
     letter-spacing="0"
     font-size="129.23">
    <tspan
       x="1337.38"
       y="-246.37"
       id="tspan40" />
  </text>
  <text
     x="530.36"
     y="-1337.81"
     transform="scale(4.0128,0.2492)"
     id="text42"
     font-family="Arial"
     text-anchor="middle"
     font-size="46.954" />
  <text
     x="1918.65"
     y="-326.38"
     id="text44"
     font-family="Gentium Book Basic"
     word-spacing="0"
     line-height="125%"
     letter-spacing="0"
     font-size="129.23">
    <tspan
       x="1918.65"
       y="-326.38"
       id="tspan46" />
  </text>
  <text
     x="675.21"
     y="-1658.85"
     transform="scale(4.0128,0.2492)"
     id="text48"
     font-family="Arial"
     text-anchor="middle"
     font-size="46.954" />
  <text
     x="1529.53"
     y="-798.78"
     id="text50"
     font-family="Gentium Book Basic"
     word-spacing="0"
     line-height="125%"
     letter-spacing="0"
     font-size="129.23">
    <tspan
       x="1529.53"
       y="-798.78"
       id="tspan52" />
  </text>
  <text
     x="578.24"
     y="-3554.51"
     transform="scale(4.0128,0.2492)"
     id="text54"
     font-family="Arial"
     text-anchor="middle"
     font-size="46.954" />
  <text
     x="2110.79"
     y="-878.78"
     id="text56"
     font-family="Gentium Book Basic"
     word-spacing="0"
     line-height="125%"
     letter-spacing="0"
     font-size="129.23">
    <tspan
       x="2110.79"
       y="-878.78"
       id="tspan58" />
  </text>
  <text
     x="723.09"
     y="-3875.54"
     transform="scale(4.0128,0.2492)"
     id="text60"
     font-family="Arial"
     text-anchor="middle"
     font-size="46.954" />
  <text
     x="277.99"
     y="535.94"
     id="text62"
     font-family="Gentium Book Basic"
     word-spacing="0"
     line-height="125%"
     letter-spacing="0"
     font-size="208.33">
    <tspan
       x="277.99"
       y="535.94"
       id="tspan64" />
  </text>
  <g
     transform="matrix(6.0554466,0,0,6.0554466,97.03816,73.874839)"
     id="g66"
     style="fill:#009688">
    <path
       d="m 11.26,52.47 c -2.07,0 -3.747,-1.678 -3.747,-3.748 0,-2.07 1.677,-3.748 3.747,-3.748 2.068,0 3.747,1.678 3.747,3.748 0,2.07 -1.679,3.748 -3.747,3.748 m 8.742,-14.815 -17.484,0 C 1.136,37.655 0,38.599 0,39.98 l 0,17.485 c 0,1.381 1.136,2.69 2.518,2.69 l 47.47,0 c 1.38,0 2.517,-1.309 2.517,-2.69 l 0,-17.485 c 0,-1.381 -1.137,-2.325 -2.517,-2.325 l -17.487,0 c -1.38,0 -2.497,-1.295 -2.497,-2.675 l 0,-10.643 c 0,-1.38 1.076,-2.851 2.243,-3.589 3.154,-1.989 5.25,-5.496 5.25,-9.501 0,-6.209 -5.03,-11.243 -11.242,-11.243 -6.209,0 -11.244,5.03 -11.244,11.243 0,4.01 2.097,7.512 5.25,9.501 1.168,0.736 2.243,2.208 2.243,3.589 l 0,10.644 c 0,1.379 -1.116,2.674 -2.498,2.674"
       inkscape:connector-curvature="0"
       id="path68" />
  </g>
</svg>
