<?xml version="1.0" encoding="UTF-8" standalone="no"?>
<svg
   xmlns:dc="http://purl.org/dc/elements/1.1/"
   xmlns:cc="http://creativecommons.org/ns#"
   xmlns:rdf="http://www.w3.org/1999/02/22-rdf-syntax-ns#"
   xmlns:svg="http://www.w3.org/2000/svg"
   xmlns="http://www.w3.org/2000/svg"
   xmlns:sodipodi="http://sodipodi.sourceforge.net/DTD/sodipodi-0.dtd"
   xmlns:inkscape="http://www.inkscape.org/namespaces/inkscape"
   height="512"
   viewBox="0 0 512 512"
   width="512"
   version="1.1"
   id="svg2"
   inkscape:version="0.91 r"
   sodipodi:docname="applications-php.svg">
  <defs
     id="defs14" />
  <sodipodi:namedview
     pagecolor="#ffffff"
     bordercolor="#666666"
     borderopacity="1"
     objecttolerance="10"
     gridtolerance="10"
     guidetolerance="10"
     inkscape:pageopacity="0"
     inkscape:pageshadow="2"
     inkscape:window-width="647"
     inkscape:window-height="480"
     id="namedview12"
     showgrid="false"
     inkscape:zoom="0.4609375"
     inkscape:cx="576"
     inkscape:cy="256"
     inkscape:window-x="0"
     inkscape:window-y="0"
     inkscape:window-maximized="0"
     inkscape:current-layer="svg2" />
  <metadata
     id="metadata70">
    <rdf:RDF>
      <cc:Work
         rdf:about="">
        <dc:format>image/svg+xml</dc:format>
        <dc:type
           rdf:resource="http://purl.org/dc/dcmitype/StillImage" />
      </cc:Work>
    </rdf:RDF>
  </metadata>
  <path
     id="path3446"
     fill-rule="evenodd"
     fill="#009688"
     d="m228.62 177.59-25.46 124.41h30.25l14.344-69.125h23.844c11.187 0 11.175 4.6468 9.5938 12.312l-11.19 56.87h31.906l11.125-63c3.1979-15.378-6.3644-27.637-31.844-29.219h-28.656l6.3438-32.25h-30.25zm-113.09 32.281-25.5 124.53h30.219l6.4062-32.281h28.688c27.061 1.4316 57.312-19.989 57.312-56.875 0-21.519-12.708-33.793-38.188-35.375h-58.938zm209.34 0-25.531 124.53h30.25l6.375-32.281h28.688c27.11 1.44 57.35-19.98 57.35-56.87 0-21.519-12.708-33.793-38.188-35.375h-58.938zm-183.87 23.13h20.688c11.187 0 19.125 4.5651 19.125 13.812-1.6278 26.114-14.349 30.715-28.688 32.25h-19.094l7.96-46.06zm209.34 0h20.688c11.141 0 19.094 4.5651 19.094 13.812-1.5816 26.114-14.303 30.715-28.688 32.25h-19.062l7.96-46.06z" />
</svg>
