<?xml version="1.0" encoding="UTF-8" standalone="no"?>
<svg
   xmlns:dc="http://purl.org/dc/elements/1.1/"
   xmlns:cc="http://creativecommons.org/ns#"
   xmlns:rdf="http://www.w3.org/1999/02/22-rdf-syntax-ns#"
   xmlns:svg="http://www.w3.org/2000/svg"
   xmlns="http://www.w3.org/2000/svg"
   xmlns:sodipodi="http://sodipodi.sourceforge.net/DTD/sodipodi-0.dtd"
   xmlns:inkscape="http://www.inkscape.org/namespaces/inkscape"
   version="1.1"
   width="512"
   height="512"
   viewBox="0 0 512 512"
   id="svg2"
   inkscape:version="0.91 r"
   sodipodi:docname="applications-perl.svg">
  <defs
     id="defs39" />
  <sodipodi:namedview
     pagecolor="#ffffff"
     bordercolor="#666666"
     borderopacity="1"
     objecttolerance="10"
     gridtolerance="10"
     guidetolerance="10"
     inkscape:pageopacity="0"
     inkscape:pageshadow="2"
     inkscape:window-width="643"
     inkscape:window-height="480"
     id="namedview37"
     showgrid="false"
     inkscape:zoom="0.4609375"
     inkscape:cx="256"
     inkscape:cy="256"
     inkscape:window-x="0"
     inkscape:window-y="0"
     inkscape:window-maximized="0"
     inkscape:current-layer="svg2" />
  <metadata
     id="metadata72">
    <rdf:RDF>
      <cc:Work
         rdf:about="">
        <dc:format>image/svg+xml</dc:format>
        <dc:type
           rdf:resource="http://purl.org/dc/dcmitype/StillImage" />
      </cc:Work>
    </rdf:RDF>
  </metadata>
  <text
     x="729.64"
     y="231.36"
     id="text20"
     font-family="Gentium Book Basic"
     word-spacing="0"
     line-height="125%"
     letter-spacing="0"
     font-size="129.23">
    <tspan
       x="729.64"
       y="231.36"
       id="tspan22" />
  </text>
  <text
     x="378.91"
     y="579.25"
     transform="scale(4.0128,0.2492)"
     id="text24"
     font-family="Arial"
     text-anchor="middle"
     font-size="46.954" />
  <text
     x="1310.91"
     y="151.36"
     id="text26"
     font-family="Gentium Book Basic"
     word-spacing="0"
     line-height="125%"
     letter-spacing="0"
     font-size="129.23">
    <tspan
       x="1310.91"
       y="151.36"
       id="tspan28" />
  </text>
  <text
     x="523.76"
     y="258.22"
     transform="scale(4.0128,0.2492)"
     id="text30"
     font-family="Arial"
     text-anchor="middle"
     font-size="46.954" />
  <text
     x="239.33"
     y="-29.901"
     id="text32"
     font-family="Gentium Book Basic"
     word-spacing="0"
     line-height="125%"
     letter-spacing="0"
     font-size="129.23">
    <tspan
       x="239.33"
       y="-29.901"
       id="tspan34" />
  </text>
  <text
     x="256.72"
     y="-469.14"
     transform="scale(4.0128,0.2492)"
     id="text36"
     font-family="Arial"
     text-anchor="middle"
     font-size="46.954" />
  <text
     x="1337.38"
     y="-246.37"
     id="text38"
     font-family="Gentium Book Basic"
     word-spacing="0"
     line-height="125%"
     letter-spacing="0"
     font-size="129.23">
    <tspan
       x="1337.38"
       y="-246.37"
       id="tspan40" />
  </text>
  <text
     x="530.36"
     y="-1337.81"
     transform="scale(4.0128,0.2492)"
     id="text42"
     font-family="Arial"
     text-anchor="middle"
     font-size="46.954" />
  <text
     x="1918.65"
     y="-326.38"
     id="text44"
     font-family="Gentium Book Basic"
     word-spacing="0"
     line-height="125%"
     letter-spacing="0"
     font-size="129.23">
    <tspan
       x="1918.65"
       y="-326.38"
       id="tspan46" />
  </text>
  <text
     x="675.21"
     y="-1658.85"
     transform="scale(4.0128,0.2492)"
     id="text48"
     font-family="Arial"
     text-anchor="middle"
     font-size="46.954" />
  <text
     x="1529.53"
     y="-798.78"
     id="text50"
     font-family="Gentium Book Basic"
     word-spacing="0"
     line-height="125%"
     letter-spacing="0"
     font-size="129.23">
    <tspan
       x="1529.53"
       y="-798.78"
       id="tspan52" />
  </text>
  <text
     x="578.24"
     y="-3554.51"
     transform="scale(4.0128,0.2492)"
     id="text54"
     font-family="Arial"
     text-anchor="middle"
     font-size="46.954" />
  <text
     x="2110.79"
     y="-878.78"
     id="text56"
     font-family="Gentium Book Basic"
     word-spacing="0"
     line-height="125%"
     letter-spacing="0"
     font-size="129.23">
    <tspan
       x="2110.79"
       y="-878.78"
       id="tspan58" />
  </text>
  <text
     x="723.09"
     y="-3875.54"
     transform="scale(4.0128,0.2492)"
     id="text60"
     font-family="Arial"
     text-anchor="middle"
     font-size="46.954" />
  <text
     x="277.99"
     y="535.94"
     id="text62"
     font-family="Gentium Book Basic"
     word-spacing="0"
     line-height="125%"
     letter-spacing="0"
     font-size="208.33">
    <tspan
       x="277.99"
       y="535.94"
       id="tspan64" />
  </text>
  <path
     d="m 314.80362,69.034434 c -2.50167,0.08515 -5.0493,0.154073 -7.88344,0.302741 -8.39297,1.751576 -16.20749,5.652076 -24.25581,8.488926 -12.4516,4.884409 -24.42205,13.234128 -29.5619,25.922239 -1.288,2.81252 -6.93062,11.93261 -9.85397,16.06963 -5.47367,6.39001 -12.42186,11.62987 -19.40519,16.21829 -8.67003,5.15742 -15.74391,11.9637 -24.25581,23.34624 -8.60245,11.82584 -9.35255,22.10283 -13.65039,35.47752 -6.61572,6.99684 -11.84071,-2.6544 -10.15671,-9.39986 4.04917,-16.32641 11.32307,-31.04181 10.30943,-48.36025 -2.50708,-22.80562 -11.90288,-53.250064 -38.96175,-55.031374 -6.04672,0.01892 -7.76451,0.974449 -14.55322,7.125238 -4.54518,4.118095 -7.57124,5.519626 -15.00192,7.427979 -8.88087,2.182712 -18.351001,0.670356 -26.681798,4.547877 -3.984295,2.33544 -8.79437,9.44986 -9.853966,14.55322 -0.883897,4.2573 1.236645,8.47541 5.46016,10.76354 8.511901,4.00186 23.029974,1.0177 24.862644,12.88544 -2.89361,12.57053 -10.76624,21.25812 -10.30943,33.80162 -0.55953,13.72744 1.18799,25.07214 2.1219,38.50629 1.23529,16.46562 13.1287,25.19918 21.37571,38.96175 12.4151,15.84527 34.45036,32.39469 55.64226,25.92224 7.35365,-2.37733 10.29727,-1.95701 13.03816,1.97052 1.86916,2.68008 2.13,5.14931 1.06095,11.06629 -1.30287,7.22119 -1.29071,20.94187 0,28.65232 0.95688,5.71154 1.66913,14.39914 1.66778,19.25381 -0.001,3.96943 0.78659,8.93358 1.81915,13.03816 0.67306,2.67602 0.79064,5.47773 1.06095,14.55322 0.1838,6.12781 0.50412,12.11506 0.7582,13.3409 0.85822,4.15458 0.66901,7.53745 -1.21232,20.46208 -0.79604,5.47097 -3.55991,15.4709 -5.46015,19.70793 -1.02446,2.28678 -3.65993,7.63206 -5.91292,11.97586 -0.18922,0.36626 -0.3095,0.619 -0.45412,0.90957 0.9677,-0.0581 2.08,-0.0919 3.03147,-0.15137 7.50772,-0.46762 14.63972,-1.10014 21.67846,-1.66778 -2.22732,0.15002 -4.44111,0.28382 -6.66978,0.45411 1.1042,-5.43312 2.19623,-11.25279 2.42599,-15.31142 0.21624,-3.8167 0.73793,-8.20375 1.36504,-11.219 0.56629,-2.73278 1.13393,-7.30094 1.36504,-10.15671 0.54196,-6.71167 1.06635,-8.65922 4.24514,-15.46279 1.44613,-3.09499 3.08283,-7.18065 3.6383,-9.09576 0.9704,-3.34908 0.99743,-3.99916 0.90958,-13.79501 -0.0797,-8.9079 0.12299,-10.73786 0.90957,-15.46279 1.56101,-9.38499 2.28273,-12.17724 5.30609,-18.34425 4.10999,-8.37675 4.45733,-9.65799 4.85062,-17.28194 0.45952,-8.89168 1.91646,-13.49903 5.00334,-16.67646 1.73671,-1.78672 3.23826,-2.73008 6.0643,-3.03147 0.94201,-0.10137 2.06512,0.004 3.33556,0 5.34933,-0.0149 7.74559,0.71225 9.39985,2.8801 1.5502,2.03269 1.72049,4.53571 0.45411,10.00533 -0.56764,2.45167 -1.27719,6.89413 -1.51641,9.85397 -0.52304,6.48732 -1.65426,10.17698 -4.54788,15.31142 -3.68831,6.54543 -3.78562,7.12118 -3.78967,18.04015 -0.005,8.77004 0.0703,9.66745 0.90957,12.28536 0.50142,1.55966 1.49884,3.65182 2.27462,4.69925 1.71914,2.32462 6.84547,6.71843 12.28536,10.61217 5.26419,3.7721 11.24739,9.57285 14.85731,14.40184 3.83292,5.08174 9.31741,10.10265 10.00533,16.67647 0.0108,4.80331 -2.78684,10.86625 -6.8252,14.8573 -2.06918,2.04486 -3.48828,3.00444 -7.57935,5.00335 -5.63315,2.75035 -7.75775,4.53842 -8.19023,6.8252 -0.16489,0.87579 0.14055,1.5529 0.45411,2.27461 10.0229,-0.0108 19.50655,0.15813 28.50365,0.45412 1.74887,-1.29341 3.12473,-2.95849 4.24514,-5.30609 1.53668,-3.21798 2.71656,-4.83035 4.24514,-4.69925 1.52587,0.1311 3.27204,2.05972 5.60882,5.60883 1.56777,2.38003 3.0531,4.05322 4.54789,5.30608 3.40584,0.20138 6.90358,0.36221 10.1567,0.60684 1.87051,-1.75699 3.13148,-4.7398 3.78968,-9.24713 0.39329,-2.68684 0.37842,-3.90321 -0.15137,-6.97387 -1.21502,-7.0428 -2.88686,-9.77963 -7.88345,-13.94773 -1.6867,-1.40694 -3.52748,-3.23826 -4.09512,-4.09512 -1.50424,-2.27057 -1.97592,-5.27906 -1.36504,-8.19024 0.74469,-3.54235 4.20595,-9.82288 8.19024,-15.16005 3.56532,-4.78035 5.43313,-7.76586 8.33756,-13.3409 1.08662,-2.08946 2.70034,-4.13837 5.15471,-6.66978 1.96512,-2.02863 4.11945,-4.86819 4.85062,-6.21566 l 1.21232,-2.42598 0,-13.79501 c -0.0487,-9.8337 0.51899,-19.37005 1.81915,-29.10779 1.07717,-11.67852 5.21689,-20.89457 10.92032,-30.92693 3.25853,-6.72925 4.78845,-8.64165 7.57935,-8.64165 3.74508,0 6.02239,4.14647 7.12524,12.88543 1.26097,8.57813 5.43313,15.91826 8.03481,24.10444 1.58534,5.83048 2.71657,8.45379 6.36703,15.76689 3.46261,6.93872 6.38055,14.68026 7.27661,19.40519 0.47439,2.50032 0.60413,5.96833 0.60684,13.18953 0.004,10.63784 0.35545,14.88028 1.66778,20.31341 0.99607,4.13296 1.48397,15.98313 1.06095,23.95307 -0.24733,4.66141 -0.33924,5.26824 -2.8801,12.73406 -3.72616,10.95141 -4.58032,14.15046 -5.30609,19.70793 -0.69874,5.35339 -1.17042,6.6495 -3.6383,11.97586 -0.35275,0.76226 -0.51629,1.42045 -0.75821,2.1219 8.97683,1.74211 16.9792,3.62749 24.5572,5.60882 0.20814,-0.40545 0.4852,-0.78253 0.60684,-1.21231 0.95012,-4.24109 -0.39735,-8.60381 -0.15137,-12.88544 0.59737,-0.96634 -0.81362,-7.84425 -3.1842,-15.16005 -3.76805,-11.63392 -4.05457,-13.49092 -2.12189,-21.37571 0.33653,-1.3691 0.85822,-5.92373 1.06095,-10.15671 0.39059,-8.13618 0.75685,-10.17833 2.8801,-15.46279 1.90429,-4.7398 2.46518,-6.8252 2.73008,-11.67312 0.30679,-5.63045 -0.35816,-8.93628 -2.42599,-13.79501 -2.04621,-4.80602 -2.31246,-7.0009 -1.36504,-12.12858 1.02581,-5.55071 1.0231,-18.58211 0,-22.7394 -1.0177,-4.13567 -1.53668,-19.13353 -1.36504,-38.35492 l 2.12189,-23.4976 c 3.26934,-12.71379 5.26149,-17.28195 7.88345,-17.28195 2.40166,0 4.6614,3.92888 6.21566,11.06629 0.95147,6.61976 0.47168,13.41658 1.66778,20.01067 1.5502,9.10522 -0.9312,18.2172 -5.60883,26.07496 -2.77603,4.86954 -3.73426,8.3727 -3.03147,10.92032 0.55953,2.02864 2.63007,4.29379 4.24514,4.69925 0.70144,0.1757 1.57858,-0.10407 2.57736,-0.60683 1.23664,-0.62171 2.49356,-2.17055 6.8252,-8.64165 2.93416,-4.3857 5.72911,-9.02143 6.21566,-10.30943 4.037,-17.70497 4.20189,-30.76881 1.97052,-48.20888 0,-11.32713 -1.56777,-15.57092 -9.39985,-24.10444 -14.65458,-18.25099 -23.11107,-34.27331 -31.53242,-55.79094 -2.90172,-4.82223 -7.13064,-10.67298 -10.30943,-14.25047 -4.95063,-5.57234 -7.90642,-11.09061 -10.61217,-19.40519 -3.90185,-9.90127 -7.24282,-21.597361 -13.03816,-30.16873 -5.46016,-6.111594 -10.54324,-12.824616 -18.49561,-15.918256 -7.55502,-3.540994 -14.02342,-3.891039 -21.52708,-3.638304 m -8.19024,210.12152 c 0.59737,0.0392 1.15961,0.39059 1.81915,0.90958 1.8624,1.46505 2.3057,3.11391 3.33556,14.25047 0.53656,5.81291 1.23394,13.10168 1.66778,16.2183 1.91511,13.76798 2.21785,18.07934 1.66778,22.7394 -0.28382,2.4003 -0.57169,7.34824 -0.7582,10.92031 -0.52304,10.04859 -1.9462,14.50186 -7.42798,23.95307 -1.67319,2.88416 -3.7248,6.60761 -4.54788,8.33756 -1.63805,3.44368 -3.39773,5.76155 -5.15471,6.66977 -1.72455,0.89201 -3.98024,0.72983 -6.21567,-0.45411 -3.08012,-1.63264 -8.67543,-5.97104 -11.37037,-8.79302 -2.88416,-3.02066 -4.10729,-4.65195 -7.42798,-10.61217 -3.77481,-6.77114 -4.24244,-8.19835 -4.24514,-11.219 -0.003,-3.95051 1.44073,-6.87926 5.30609,-10.61217 1.68805,-1.62994 5.33987,-5.24933 8.03481,-8.03482 5.57774,-5.7656 5.72776,-6.05618 7.12524,-14.25047 1.26638,-7.42528 1.29476,-7.55097 6.5184,-15.16005 1.87051,-2.73008 2.75981,-5.20067 5.00334,-13.6504 2.07324,-7.8037 3.00715,-9.73774 4.69925,-10.61217 0.80957,-0.41898 1.37315,-0.64468 1.97053,-0.60684"
     inkscape:connector-curvature="0"
     id="path66"
     style="fill:#009688;fill-rule:evenodd" />
</svg>
