<?xml version="1.0" encoding="UTF-8" standalone="no"?>
<svg xmlns:dc="http://purl.org/dc/elements/1.1/" xmlns:cc="http://creativecommons.org/ns#" xmlns:rdf="http://www.w3.org/1999/02/22-rdf-syntax-ns#" xmlns:svg="http://www.w3.org/2000/svg" xmlns="http://www.w3.org/2000/svg" xmlns:sodipodi="http://sodipodi.sourceforge.net/DTD/sodipodi-0.dtd" xmlns:inkscape="http://www.inkscape.org/namespaces/inkscape" height="512" viewBox="0 0 512 512" width="512" version="1.1" id="svg2" inkscape:version="0.91 r" sodipodi:docname="clementine.svg">
<defs id="defs16" />
<sodipodi:namedview pagecolor="#ffffff" bordercolor="#666666" borderopacity="1" objecttolerance="10" gridtolerance="10" guidetolerance="10" inkscape:pageopacity="0" inkscape:pageshadow="2" inkscape:window-width="766" inkscape:window-height="480" id="namedview14" showgrid="false" inkscape:zoom="0.4609375" inkscape:cx="354.71186" inkscape:cy="256" inkscape:window-x="0" inkscape:window-y="0" inkscape:window-maximized="0" inkscape:current-layer="svg2" />
<metadata id="metadata102">
<rdf:RDF>
<cc:Work rdf:about="">
<dc:format>image/svg+xml</dc:format>
<dc:type rdf:resource="http://purl.org/dc/dcmitype/StillImage" />
<dc:title></dc:title>
</cc:Work>
</rdf:RDF>
</metadata>
<g id="g4" font-family="Gentium Book Basic" font-size="208.33" word-spacing="0" letter-spacing="0" />
<path id="path96" d="m 228.05333,35.035323 c -2.57811,0.04834 -5.04073,0.239012 -7.42682,0.545162 -18.93296,2.434429 -22.67659,2.344464 -40.82806,12.756249 -8.51715,4.884972 -12.27285,12.111724 -10.78239,21.819901 58.28935,125.910895 -0.1007,-0.04834 58.28935,126.098885 1.79662,2.1068 2.97019,4.61642 5.70674,4.19613 l 19.80576,-3.06284 c 2.73655,-0.42028 3.12192,-3.15415 4.19613,-5.70674 16.96313,-138.291175 0.12085,-0.50488 17.49621,-137.673504 -1.48913,-9.705492 -10.05193,-14.101699 -19.67954,-16.029907 -10.3245,-2.066512 -19.03904,-3.082984 -26.77201,-2.937965 m 113.63804,19.176 c -6.45332,-0.01477 -11.92373,2.874856 -16.27429,8.812554 -47.81982,130.248022 -0.008,-0.147704 -47.92053,130.328592 -0.21887,2.76072 -1.18297,5.36836 1.0487,7.00788 l 16.15344,11.83377 c 2.23302,1.63817 4.44321,-0.003 7.00788,-1.0487 109.78432,-85.79182 0.44714,-0.26452 109.73061,-84.97005 5.81013,-7.91559 2.88559,-17.08935 -2.55931,-25.2614 C 401.0979,89.237299 394.00542,80.909482 386.39196,75.029522 371.28587,63.366282 368.6554,60.655243 348.4589,55.182141 346.08892,54.5403 343.85456,54.222065 341.7048,54.216694 M 117.00682,96.258607 c -5.33614,-0.07788 -10.8361,2.345807 -15.94531,5.748373 -11.682043,7.78534 -19.966891,14.87781 -25.848193,22.49128 -11.663241,15.10608 -14.37428,17.69359 -19.847382,37.89277 -2.568706,9.47991 -0.11145,17.22631 7.805482,23.04182 130.248023,47.81982 -0.106078,0.0497 130.368873,47.96216 2.76072,0.21887 5.32674,1.14134 6.96625,-1.09167 l 11.8754,-16.15344 c 1.63817,-2.23302 -0.0456,-4.40158 -1.09167,-6.96626 -85.79182,-109.78431 -0.26452,-0.49011 -84.97005,-109.770882 -2.96885,-2.179305 -6.1136,-3.10044 -9.31609,-3.147437 m 329.01725,73.684129 c -1.13598,0.0242 -2.31089,0.14904 -3.52475,0.33569 -125.9109,58.28935 0.0483,-0.10071 -126.09889,58.28935 -2.10679,1.79661 -4.57345,2.97019 -4.15451,5.70674 l 3.02122,19.80575 c 0.42029,2.73656 3.15415,3.0803 5.70674,4.15451 138.29118,16.96313 0.50488,0.16382 137.67351,17.53649 9.70549,-1.48912 14.14332,-10.05192 16.07153,-19.67954 2.75535,-13.766 3.57712,-24.65447 2.34983,-34.19883 -2.43442,-18.93296 -2.34446,-22.71955 -12.75625,-40.87102 -4.27535,-7.45234 -10.34061,-11.2443 -18.29514,-11.0778 m -189.54445,50.01793 c -19.46469,0 -35.24753,15.78283 -35.24753,35.24753 0,19.46469 15.78284,35.24753 35.24753,35.24753 19.4647,0 35.24754,-15.78284 35.24754,-35.24753 0,-19.4647 -15.78284,-35.24753 -35.24754,-35.24753 M 53.377303,234.2772 c -9.705492,1.48912 -14.143324,10.05193 -16.071532,19.67954 -2.75535,13.766 -3.577121,24.65447 -2.349836,34.19883 2.43443,18.93296 2.344465,22.67658 12.75625,40.82806 4.884972,8.51714 12.111723,12.27285 21.819901,10.78238 125.910894,-58.28934 -0.04834,0.10071 126.098884,-58.28934 2.1068,-1.79662 4.57479,-2.9702 4.15451,-5.70675 l -3.02122,-19.80575 c -0.42028,-2.73655 -3.15415,-3.12193 -5.70674,-4.19614 -138.291175,-16.96312 -0.50488,-0.12085 -137.673504,-17.4962 M 315.51823,275.3107 c -1.20043,0.0174 -2.24375,0.3518 -3.06284,1.46898 l -11.8754,16.15344 c -1.63817,2.23302 0.0457,4.44321 1.09167,7.00788 85.79182,109.78432 0.26452,0.44714 84.97005,109.73061 7.91559,5.81013 17.08935,2.88559 25.2614,-2.55931 11.68204,-7.78534 19.96689,-14.87782 25.84819,-22.49128 11.66324,-15.10609 14.37563,-17.73656 19.84738,-37.93306 2.56871,-9.47991 0.11145,-17.22631 -7.80548,-23.04182 -130.24802,-47.81982 0.10608,-0.008 -130.36887,-47.92053 -1.38036,-0.1101 -2.69895,-0.4364 -3.90207,-0.42028 M 215.8221,299.181 c -1.41527,0.17993 -2.88694,1.06615 -4.4902,1.72008 -109.78431,85.79182 -0.49011,0.26452 -109.77089,84.97005 -5.810131,7.91559 -2.843968,17.08934 2.60228,25.2614 7.78534,11.68204 14.87781,20.00986 22.49128,25.88982 15.10609,11.66324 17.69359,14.37428 37.89278,19.84738 9.4799,2.5687 17.26927,0.0685 23.07941,-7.84711 47.81982,-130.24802 0.008,0.14771 47.92053,-130.32859 0.21887,-2.76072 1.14135,-5.36836 -1.09167,-7.00788 l -16.11315,-11.83377 c -0.83655,-0.61499 -1.66772,-0.7788 -2.51768,-0.67138 m 62.64795,12.37893 -19.76413,3.06284 c -2.73655,0.42029 -3.12327,3.15416 -4.19613,5.70675 -16.96313,138.29117 -0.12085,0.50488 -17.49621,137.6735 1.48913,9.70549 10.0103,14.1017 19.63791,16.02991 13.76601,2.75535 24.65448,3.62009 34.19884,2.39146 18.93296,-2.43443 22.71955,-2.34447 40.87102,-12.75625 8.51715,-4.88497 12.23123,-12.11172 10.74211,-21.8199 -58.28935,-125.9109 0.14233,0.0483 -58.23564,-126.09889 -1.79662,-2.10679 -3.01182,-4.61642 -5.74837,-4.19613" inkscape:connector-curvature="0" style="fill:#009688" />
</svg>
