<?xml version="1.0" encoding="UTF-8" standalone="no"?>
<svg
   xmlns:dc="http://purl.org/dc/elements/1.1/"
   xmlns:cc="http://creativecommons.org/ns#"
   xmlns:rdf="http://www.w3.org/1999/02/22-rdf-syntax-ns#"
   xmlns:svg="http://www.w3.org/2000/svg"
   xmlns="http://www.w3.org/2000/svg"
   xmlns:sodipodi="http://sodipodi.sourceforge.net/DTD/sodipodi-0.dtd"
   xmlns:inkscape="http://www.inkscape.org/namespaces/inkscape"
   height="512"
   viewBox="0 0 512 512"
   width="512"
   version="1.1"
   id="svg2"
   inkscape:version="0.91 r"
   sodipodi:docname="ask.svg">
  <defs
     id="defs14" />
  <sodipodi:namedview
     pagecolor="#ffffff"
     bordercolor="#666666"
     borderopacity="1"
     objecttolerance="10"
     gridtolerance="10"
     guidetolerance="10"
     inkscape:pageopacity="0"
     inkscape:pageshadow="2"
     inkscape:window-width="647"
     inkscape:window-height="480"
     id="namedview12"
     showgrid="false"
     inkscape:zoom="0.4609375"
     inkscape:cx="576"
     inkscape:cy="256"
     inkscape:window-x="0"
     inkscape:window-y="0"
     inkscape:window-maximized="0"
     inkscape:current-layer="svg2" />
  <metadata
     id="metadata70">
    <rdf:RDF>
      <cc:Work
         rdf:about="">
        <dc:format>image/svg+xml</dc:format>
        <dc:type
           rdf:resource="http://purl.org/dc/dcmitype/StillImage" />
      </cc:Work>
    </rdf:RDF>
  </metadata>
  <path
     id="use3094"
     d="m 364.67998,110.35791 -51.45837,237.56923 -2.10511,10.01873 9.90183,-1.32545 22.06535,-3.50852 4.71696,-0.35085 1.36448,-4.83397 7.67971,-34.46151 8.69341,30.60182 1.7542,6.08144 5.92551,-0.85764 22.96602,-3.48045 8.18656,-0.85764 -21.5963,-70.44369 59.13783,-63.97179 -20.19414,3.46947 -20.34882,3.46948 -2.10511,0 -1.71528,1.7542 -25.06178,27.25734 28.52976,-134.37806 -36.33896,-1.75894 z m -174.09768,50.59761 -23.73946,3.86717 -96.754196,236.82075 12.512179,-2.5698 20.310147,-3.46948 3.85944,-0.85764 1.32544,-3.46948 15.5161,-39.72461 30.25128,-4.32724 0,31.10954 -0.42882,8.18656 8.18656,-1.2864 23.77938,-3.89836 6.04252,-0.85764 -0.42882,-6.04252 -0.42882,-213.43058 0,-0.0389 z m 96.40615,61.04895 c -1.47451,0.0322 -3.06841,0.12541 -4.79504,0.2339 -24.20228,0.86791 -46.23768,15.53981 -50.09363,32.82358 -3.02525,13.82452 0.85684,23.31781 15.98266,40.19241 15.9814,16.8247 19.85606,24.17982 17.69918,34.11097 -1.28952,6.45968 -12.11498,14.67655 -24.63764,16.41179 -6.4845,0.84312 -10.80364,0.84312 -14.69651,0 l -4.2882,-1.2864 -2.61196,3.46948 -10.36964,12.51343 -7.32892,8.65436 11.22728,2.57292 c 6.9185,1.72338 17.25134,1.7285 28.49733,-0.42882 25.04556,-3.88078 54.89141,-22.02668 60.07343,-44.47999 4.76111,-20.7555 -3.91296,-33.70928 -22.06535,-51.84758 -14.24617,-14.25864 -13.38167,-17.71914 -12.51343,-20.31014 0.43323,-2.99544 6.04652,-7.31146 13.79958,-7.7578 l 0.0389,0 c 6.88893,0.001 10.34444,0.4204 12.94256,1.28639 l 3.85944,0.85764 3.04072,-3.04072 9.51824,-9.94238 7.7578,-8.18656 -11.22728,-3.04072 c -4.91456,-1.50795 -9.48181,-3.03249 -19.80368,-2.80682 z m -129.22598,23.66461 -4.756,69.97589 -19.88227,2.61197 24.63764,-72.58811 z"
     inkscape:connector-curvature="0"
     style="fill:#009688" />
</svg>
