<?xml version="1.0" encoding="UTF-8" standalone="no"?>
<svg
   xmlns:dc="http://purl.org/dc/elements/1.1/"
   xmlns:cc="http://creativecommons.org/ns#"
   xmlns:rdf="http://www.w3.org/1999/02/22-rdf-syntax-ns#"
   xmlns:svg="http://www.w3.org/2000/svg"
   xmlns="http://www.w3.org/2000/svg"
   xmlns:sodipodi="http://sodipodi.sourceforge.net/DTD/sodipodi-0.dtd"
   xmlns:inkscape="http://www.inkscape.org/namespaces/inkscape"
   height="512"
   viewBox="0 0 512 512"
   width="512"
   version="1.1"
   id="svg2"
   inkscape:version="0.91 r"
   sodipodi:docname="autoplus.svg">
  <defs
     id="defs16" />
  <sodipodi:namedview
     pagecolor="#ffffff"
     bordercolor="#666666"
     borderopacity="1"
     objecttolerance="10"
     gridtolerance="10"
     guidetolerance="10"
     inkscape:pageopacity="0"
     inkscape:pageshadow="2"
     inkscape:window-width="1920"
     inkscape:window-height="1028"
     id="namedview14"
     showgrid="false"
     inkscape:zoom="0.4609375"
     inkscape:cx="-66.169492"
     inkscape:cy="256"
     inkscape:window-x="0"
     inkscape:window-y="0"
     inkscape:window-maximized="1"
     inkscape:current-layer="svg2" />
  <metadata
     id="metadata72">
    <rdf:RDF>
      <cc:Work
         rdf:about="">
        <dc:format>image/svg+xml</dc:format>
        <dc:type
           rdf:resource="http://purl.org/dc/dcmitype/StillImage" />
      </cc:Work>
    </rdf:RDF>
  </metadata>
  <path
     id="path66"
     d="m 217.19018,69.979661 c -23.65459,4.922847 -45.84594,14.15704 -65.38317,26.966464 0.56911,14.221275 -4.3319,28.764995 -15.18606,39.606315 -10.85287,10.84131 -25.41587,15.73718 -39.651274,15.16807 -12.827409,19.51411 -22.070595,41.68105 -26.990873,65.30866 10.553547,9.64529 16.86769,23.35526 16.86769,38.75843 0,15.41345 -6.320566,29.53966 -16.86769,39.18494 4.929271,23.62762 14.169887,45.37447 26.990873,64.88858 14.234124,-0.56911 28.798404,4.74813 39.651274,15.58944 10.85288,10.84132 15.75517,24.96624 15.18606,39.18494 19.53594,12.81328 41.72858,22.46371 65.38317,27.38784 9.65685,-10.5407 23.38096,-17.27493 38.80982,-17.27493 15.42886,0 29.15168,6.73423 38.80982,17.27493 23.57879,-4.90743 45.89347,-14.63879 65.38317,-27.38784 -0.027,-0.7618 0,-1.34504 0,-2.10685 0,-13.50058 4.87275,-26.77762 15.18606,-37.07809 10.85287,-10.84131 25.41587,-16.15855 39.65127,-15.58944 12.82741,-19.51411 22.0706,-41.26353 26.99088,-64.88858 -10.55227,-9.64528 -16.86769,-23.77149 -16.86769,-39.18494 0,-15.41344 6.32056,-29.11828 16.86769,-38.75843 -4.92927,-23.62761 -14.16989,-45.79455 -26.99088,-65.30866 -14.23412,0.56911 -28.7984,-4.32676 -39.65127,-15.16807 -10.31588,-10.30304 -15.18606,-23.57751 -15.18606,-37.078089 0,-0.761808 -0.027,-1.766418 0,-2.528226 C 340.70329,84.197081 318.38861,74.888377 294.80982,69.979661 285.15297,80.520361 271.42886,87.25459 256,87.25459 c -15.42886,0 -29.15168,-6.734229 -38.80982,-17.274929 m 93.64458,59.415889 c 6.02124,0 10.45592,0.65004 16.02881,2.10686 8.12809,2.12869 14.75955,8.69078 14.7634,16.43218 0.005,9.35881 -6.70854,16.01082 -16.86769,16.01082 -4.84191,0 -6.83058,-0.84274 -13.92066,-0.84274 -20.92467,0 -37.92854,17.02056 -37.96451,37.92082 l 0,32.86566 c 0,2.95731 2.52566,5.05646 5.48425,5.05646 l 24.88787,0 c 9.28173,0 16.86769,7.55898 16.86769,16.85484 0,9.29843 -7.59496,16.85484 -16.86769,16.85484 l -30.37083,0 0,37.92083 c 0,39.63843 -32.02677,72.04418 -71.71016,72.04418 -6.02124,0 -10.45592,-0.64876 -16.02881,-2.10686 -8.12809,-2.12741 -14.76083,-9.11472 -14.7634,-16.85484 0,-9.35624 7.12605,-16.01082 17.2942,-16.01082 4.83677,0 6.41178,0.84274 13.49801,0.84274 20.92467,0 37.9311,-16.6069 37.9645,-37.49945 l 0,-33.28703 c 0,-2.95217 -2.52566,-5.05646 -5.48425,-5.05646 l -24.88787,0 c -9.28429,0 -16.86769,-7.55256 -16.86769,-16.85484 -0.003,-9.35367 7.91227,-16.85484 17.2942,-16.85484 l 29.94947,0 0,-37.92083 c 0,-39.64228 32.02034,-71.62923 71.71016,-71.62923"
     style="color:#000000;fill:#009688;fill-opacity:1"
     inkscape:connector-curvature="0" />
</svg>
