<?xml version="1.0" encoding="UTF-8" standalone="no"?>
<svg
   xmlns:dc="http://purl.org/dc/elements/1.1/"
   xmlns:cc="http://creativecommons.org/ns#"
   xmlns:rdf="http://www.w3.org/1999/02/22-rdf-syntax-ns#"
   xmlns:svg="http://www.w3.org/2000/svg"
   xmlns="http://www.w3.org/2000/svg"
   xmlns:sodipodi="http://sodipodi.sourceforge.net/DTD/sodipodi-0.dtd"
   xmlns:inkscape="http://www.inkscape.org/namespaces/inkscape"
   viewBox="0 0 512 512"
   id="svg2"
   version="1.1"
   inkscape:version="0.91 r"
   sodipodi:docname="avastgui.svg">
  <metadata
     id="metadata72">
    <rdf:RDF>
      <cc:Work
         rdf:about="">
        <dc:format>image/svg+xml</dc:format>
        <dc:type
           rdf:resource="http://purl.org/dc/dcmitype/StillImage" />
      </cc:Work>
    </rdf:RDF>
  </metadata>
  <defs
     id="defs70" />
  <sodipodi:namedview
     pagecolor="#ffffff"
     bordercolor="#666666"
     borderopacity="1"
     objecttolerance="10"
     gridtolerance="10"
     guidetolerance="10"
     inkscape:pageopacity="0"
     inkscape:pageshadow="2"
     inkscape:window-width="640"
     inkscape:window-height="480"
     id="namedview68"
     showgrid="false"
     inkscape:zoom="0.4609375"
     inkscape:cx="256"
     inkscape:cy="256"
     inkscape:window-x="0"
     inkscape:window-y="0"
     inkscape:window-maximized="0"
     inkscape:current-layer="svg2" />
  <text
     font-size="129.23"
     y="231.36"
     x="729.64"
     font-family="Gentium Book Basic"
     line-height="125%"
     word-spacing="0"
     letter-spacing="0"
     id="text20">
    <tspan
       y="231.36"
       x="729.64"
       id="tspan22" />
  </text>
  <text
     transform="scale(4.0128.2492)"
     font-size="46.954"
     y="579.26"
     x="378.91"
     font-family="Arial"
     text-anchor="middle"
     id="text24" />
  <text
     font-size="129.23"
     y="151.36"
     x="1310.91"
     font-family="Gentium Book Basic"
     line-height="125%"
     word-spacing="0"
     letter-spacing="0"
     id="text26">
    <tspan
       y="151.36"
       x="1310.91"
       id="tspan28" />
  </text>
  <text
     transform="scale(4.0128.2492)"
     font-size="46.954"
     y="258.22"
     x="523.76"
     font-family="Arial"
     text-anchor="middle"
     id="text30" />
  <text
     font-size="129.23"
     y="-29.9"
     x="239.33"
     font-family="Gentium Book Basic"
     line-height="125%"
     word-spacing="0"
     letter-spacing="0"
     id="text32">
    <tspan
       y="-29.9"
       x="239.33"
       id="tspan34" />
  </text>
  <text
     transform="scale(4.0128.2492)"
     font-size="46.954"
     y="-469.13"
     x="256.72"
     font-family="Arial"
     text-anchor="middle"
     id="text36" />
  <text
     font-size="129.23"
     y="-246.37"
     x="1337.38"
     font-family="Gentium Book Basic"
     line-height="125%"
     word-spacing="0"
     letter-spacing="0"
     id="text38">
    <tspan
       y="-246.37"
       x="1337.38"
       id="tspan40" />
  </text>
  <text
     transform="scale(4.0128.2492)"
     font-size="46.954"
     y="-1337.8"
     x="530.36"
     font-family="Arial"
     text-anchor="middle"
     id="text42" />
  <text
     font-size="129.23"
     y="-326.37"
     x="1918.65"
     font-family="Gentium Book Basic"
     line-height="125%"
     word-spacing="0"
     letter-spacing="0"
     id="text44">
    <tspan
       y="-326.37"
       x="1918.65"
       id="tspan46" />
  </text>
  <text
     transform="scale(4.0128.2492)"
     font-size="46.954"
     y="-1658.83"
     x="675.21"
     font-family="Arial"
     text-anchor="middle"
     id="text48" />
  <text
     font-size="129.23"
     y="-798.77"
     x="1529.53"
     font-family="Gentium Book Basic"
     line-height="125%"
     word-spacing="0"
     letter-spacing="0"
     id="text50">
    <tspan
       y="-798.77"
       x="1529.53"
       id="tspan52" />
  </text>
  <text
     transform="scale(4.0128.2492)"
     font-size="46.954"
     y="-3554.48"
     x="578.24"
     font-family="Arial"
     text-anchor="middle"
     id="text54" />
  <text
     font-size="129.23"
     y="-878.78"
     x="2110.79"
     font-family="Gentium Book Basic"
     line-height="125%"
     word-spacing="0"
     letter-spacing="0"
     id="text56">
    <tspan
       y="-878.78"
       x="2110.79"
       id="tspan58" />
  </text>
  <text
     transform="scale(4.0128.2492)"
     font-size="46.954"
     y="-3875.52"
     x="723.09"
     font-family="Arial"
     text-anchor="middle"
     id="text60" />
  <text
     font-size="208.33"
     y="535.94"
     x="277.99"
     font-family="Gentium Book Basic"
     line-height="125%"
     word-spacing="0"
     letter-spacing="0"
     id="text62">
    <tspan
       y="535.94"
       x="277.99"
       id="tspan64" />
  </text>
  <path
     d="m343.15 112.63c-4.966-0.373-10.09 0.289-15.13 1.96-6.04 2.01-10.206 4.601-14.852 9.246-6.02 6.02-9.18 12.42-10.648 21.01-0.812 4.75-1.397 6.547-2.802 9.525-5.385 11.42-17.13 19.332-28.863 19.332-0.975 0-4.086-0.177-7.01-0.55-11.779-1.545-17.15-1.734-29.423-0.55-3.314 0.317-7.339 0.55-8.687 0.55-5.827 0.004-9.373-2.192-11.769-7-1.49-2.992-2.023-4.491-1.962-9.806 0.05-4.45 0.15-4.98-0.56-7-1.147-3.269-2.23-4.762-4.764-7.285-3.683-3.668-7.552-5.323-12.61-5.323-3.302 0.006-5.636 0.512-8.407 1.963-5.839 3.035-9.483 8.653-9.808 15.13-0.226 4.495 0.638 7.185 3.082 10.928 1.775 2.717 3.915 4.684 7.846 6.724 4.242 2.198 6.502 4.282 8.407 8.125 1.207 2.43 1.121 2.655 1.121 5.322 0 2.518-0.002 2.783-0.841 4.482-0.505 1.025-1.946 2.94-3.082 4.202-10.505 11.666-16.897 24.265-19.616 37.823-1.287 6.409-1.667 9.878-1.401 16.81 0.127 3.319 0.298 7.01 0.28 8.124-0.096 6.346-4.619 10.72-14.291 14.01-2.334 0.792-3.392 1-6.445 1.122-2.37 0.102-4.256-0.003-5.604-0.279-1.209-0.233-3.686-0.279-6.165-0.279-4.708 0-6.936 0.522-10.648 2.24-13.754 6.354-19.795 22.325-13.451 35.862 8.106 17.294 31.09 21.02 44.28 7.284 1.951-2.032 2.929-3.578 5.04-7.284 0.676-1.183 2.044-2.842 3.082-3.924 4.676-4.867 11.06-7.284 18.495-7.284 5.318 0 8.465 1.125 12.61 4.483 6.891 5.58 16.508 10.438 24.94 12.886 9.335 2.719 14.616 3.142 30.26 2.802 4.594-0.102 6.01 0.149 8.126 0.55 5.863 1.174 11.587 3.442 16.533 6.725 3.642 2.417 9.639 8.416 12.05 12.05 3.255 4.904 5.664 11.07 6.445 15.968 1.312 8.234 2.872 13.13 5.604 18.491 7.401 14.515 20.622 24.24 36.989 27.18 4.507 0.801 14.228 0.634 18.775-0.279 15.557-3.176 28.511-12.981 35.588-26.895 3.846-7.562 5.596-14.475 5.604-23.25 0.022-20.498-11.894-38.672-30.824-46.788-4.342-1.861-7.527-2.631-13.451-3.642-5.886-1.01-9.807-2.293-14.01-4.483-9.838-5.124-17.815-14.548-21.297-24.933-1.929-5.755-2.716-11.414-2.242-18.211 0.299-4.292 0.127-18.644-0.28-28.576-0.261-6.367 0.668-10.287 3.363-15.69 3.089-6.193 8.207-11.348 14.572-14.567 3.312-1.677 5.693-2.277 10.368-3.083 4.946-0.848 8.476-1.941 12.33-3.923 8.884-4.56 15.592-12.332 18.775-21.852 1.355-4.054 1.681-7.4 1.681-12.05 0-4.664-0.588-7.941-1.962-12.05-5.03-15.06-18.449-24.922-33.35-26.06zm-103.12 82.37c17.306-1.158 34.688 7.089 44.555 21.852 3.558 5.325 6.391 12.46 7.566 18.772 0.822 4.415 0.607 14.367-0.28 18.49-2.583 11.999-8.854 22.13-18.214 29.417-7.773 6.05-16.45 9.27-26.621 10.08-2.035 0.168-4.154 0.307-4.484 0.279-3.67-0.233-6.515-0.634-8.967-1.12-20.489-4.178-35.608-20.28-38.951-41.18-0.479-2.979-0.481-11.795 0-14.57 1.949-11.244 6.075-19.534 13.731-27.18 4.44-4.434 8.08-7.01 13.17-9.525 4.242-2.101 6.868-3.218 11.209-4.202 2.456-0.559 4.814-0.956 7.286-1.121m5.324 18.771c-14.541-0.857-27.793 8.407-31.665 22.972-0.683 2.57-0.841 3.196-0.841 7.565 0 4.378 0.154 5.269 0.841 7.844 1.588 5.951 5.351 11.938 9.808 15.69 3.422 2.876 7.555 5.073 10.648 5.602 8.411 1.463 16.681-4.277 17.934-12.608v-1.12h-5.324c-3.834 0-5.835-0.003-7.01-0.279-6.824-1.779-11.489-7.949-11.489-14.849 0-4.228 1.427-7.874 4.483-10.927 2.888-2.883 6.774-4.481 10.648-4.481 6.897 0 13.691 5.245 15.13 12.04 0.323 1.527 0.276 4.873 0.28 15.689v13.73h1.681c3.484-0.391 7.27-2.127 9.527-4.483 1.339-1.397 2.719-4.361 3.363-6.444 0.506-1.64 0.56-2.682 0.56-10.365 0-11.02-0.376-13.573-3.363-19.331-3.743-7.216-11.225-13.09-19.06-15.13-2.104-0.55-4.088-0.997-6.165-1.119z"
     fill="#009688"
     id="path66" />
</svg>
