<?xml version="1.0" encoding="UTF-8" standalone="no"?>
<svg
   xmlns:dc="http://purl.org/dc/elements/1.1/"
   xmlns:cc="http://creativecommons.org/ns#"
   xmlns:rdf="http://www.w3.org/1999/02/22-rdf-syntax-ns#"
   xmlns:svg="http://www.w3.org/2000/svg"
   xmlns="http://www.w3.org/2000/svg"
   xmlns:sodipodi="http://sodipodi.sourceforge.net/DTD/sodipodi-0.dtd"
   xmlns:inkscape="http://www.inkscape.org/namespaces/inkscape"
   viewBox="0 0 512 512"
   id="svg2"
   version="1.1"
   inkscape:version="0.91 r"
   sodipodi:docname="blogger.svg">
  <metadata
     id="metadata72">
    <rdf:RDF>
      <cc:Work
         rdf:about="">
        <dc:format>image/svg+xml</dc:format>
        <dc:type
           rdf:resource="http://purl.org/dc/dcmitype/StillImage" />
      </cc:Work>
    </rdf:RDF>
  </metadata>
  <defs
     id="defs70" />
  <sodipodi:namedview
     pagecolor="#ffffff"
     bordercolor="#666666"
     borderopacity="1"
     objecttolerance="10"
     gridtolerance="10"
     guidetolerance="10"
     inkscape:pageopacity="0"
     inkscape:pageshadow="2"
     inkscape:window-width="647"
     inkscape:window-height="480"
     id="namedview68"
     showgrid="false"
     inkscape:zoom="0.4609375"
     inkscape:cx="263.59322"
     inkscape:cy="256"
     inkscape:window-x="0"
     inkscape:window-y="0"
     inkscape:window-maximized="0"
     inkscape:current-layer="svg2" />
  <text
     font-size="129.23"
     y="231.36"
     x="729.64"
     font-family="'Gentium Book Basic'"
     line-height="125%"
     word-spacing="0"
     letter-spacing="0"
     id="text20">
    <tspan
       y="231.36"
       x="729.64"
       id="tspan22" />
  </text>
  <text
     transform="scale(4.0128.2492)"
     font-size="46.954"
     y="579.26"
     x="378.91"
     font-family="Arial"
     text-anchor="middle"
     id="text24" />
  <text
     font-size="129.23"
     y="151.36"
     x="1310.91"
     font-family="'Gentium Book Basic'"
     line-height="125%"
     word-spacing="0"
     letter-spacing="0"
     id="text26">
    <tspan
       y="151.36"
       x="1310.91"
       id="tspan28" />
  </text>
  <text
     transform="scale(4.0128.2492)"
     font-size="46.954"
     y="258.22"
     x="523.76"
     font-family="Arial"
     text-anchor="middle"
     id="text30" />
  <text
     font-size="129.23"
     y="-29.9"
     x="239.33"
     font-family="'Gentium Book Basic'"
     line-height="125%"
     word-spacing="0"
     letter-spacing="0"
     id="text32">
    <tspan
       y="-29.9"
       x="239.33"
       id="tspan34" />
  </text>
  <text
     transform="scale(4.0128.2492)"
     font-size="46.954"
     y="-469.13"
     x="256.72"
     font-family="Arial"
     text-anchor="middle"
     id="text36" />
  <text
     font-size="129.23"
     y="-246.37"
     x="1337.38"
     font-family="'Gentium Book Basic'"
     line-height="125%"
     word-spacing="0"
     letter-spacing="0"
     id="text38">
    <tspan
       y="-246.37"
       x="1337.38"
       id="tspan40" />
  </text>
  <text
     transform="scale(4.0128.2492)"
     font-size="46.954"
     y="-1337.8"
     x="530.36"
     font-family="Arial"
     text-anchor="middle"
     id="text42" />
  <text
     font-size="129.23"
     y="-326.37"
     x="1918.65"
     font-family="'Gentium Book Basic'"
     line-height="125%"
     word-spacing="0"
     letter-spacing="0"
     id="text44">
    <tspan
       y="-326.37"
       x="1918.65"
       id="tspan46" />
  </text>
  <text
     transform="scale(4.0128.2492)"
     font-size="46.954"
     y="-1658.83"
     x="675.21"
     font-family="Arial"
     text-anchor="middle"
     id="text48" />
  <text
     font-size="129.23"
     y="-798.77"
     x="1529.53"
     font-family="'Gentium Book Basic'"
     line-height="125%"
     word-spacing="0"
     letter-spacing="0"
     id="text50">
    <tspan
       y="-798.77"
       x="1529.53"
       id="tspan52" />
  </text>
  <text
     transform="scale(4.0128.2492)"
     font-size="46.954"
     y="-3554.48"
     x="578.24"
     font-family="Arial"
     text-anchor="middle"
     id="text54" />
  <text
     font-size="129.23"
     y="-878.78"
     x="2110.79"
     font-family="'Gentium Book Basic'"
     line-height="125%"
     word-spacing="0"
     letter-spacing="0"
     id="text56">
    <tspan
       y="-878.78"
       x="2110.79"
       id="tspan58" />
  </text>
  <text
     transform="scale(4.0128.2492)"
     font-size="46.954"
     y="-3875.52"
     x="723.09"
     font-family="Arial"
     text-anchor="middle"
     id="text60" />
  <text
     font-size="208.33"
     y="535.94"
     x="277.99"
     font-family="'Gentium Book Basic'"
     line-height="125%"
     word-spacing="0"
     letter-spacing="0"
     id="text62">
    <tspan
       y="535.94"
       x="277.99"
       id="tspan64" />
  </text>
  <path
     d="m250.28 119.8c-5.939-0.049-13.286-0.001-22.63 0.078-34.775 0.303-34.779 0.304-42.866 2.484-16.476 4.439-33.854 15.905-44.543 28.44-11.794 13.832-20.466 29.581-20.466 48.44v96.98c1.869 73.3 44.507 94.2 79.45 96h113.51c43.42-3.498 78.35-43.96 79.45-73.08v-40.441c0.113-33.63 0.103-45.27-3.693-49.783-3.999-4.752-7.02-6.971-19.01-6.976-11.772-0.004-15.954 0.53-19.825-2.391-4.888-3.689-6.161-6.902-6.917-17.448-2.692-37.555-26.04-67.69-60.921-78.62-8.559-2.683-13.724-3.559-31.542-3.69zm-44.24 68.08h49.943c10.06 0 18.16 8.102 18.16 18.17 0 10.06-8.1 15.899-18.16 15.899h-49.943c-10.06 0-18.16-5.835-18.16-15.899 0-10.06 8.1-18.17 18.16-18.17m0 102.18h99.89c10.06 0 18.16 5.843 18.16 15.907 0 10.06-8.1 18.17-18.16 18.17h-99.89c-10.06 0-18.16-8.102-18.16-18.17 0-10.06 8.1-15.907 18.16-15.907"
     fill="#009688"
     id="path66" />
</svg>
