<?xml version="1.0" encoding="UTF-8" standalone="no"?>
<svg
   xmlns:dc="http://purl.org/dc/elements/1.1/"
   xmlns:cc="http://creativecommons.org/ns#"
   xmlns:rdf="http://www.w3.org/1999/02/22-rdf-syntax-ns#"
   xmlns:svg="http://www.w3.org/2000/svg"
   xmlns="http://www.w3.org/2000/svg"
   xmlns:sodipodi="http://sodipodi.sourceforge.net/DTD/sodipodi-0.dtd"
   xmlns:inkscape="http://www.inkscape.org/namespaces/inkscape"
   height="512"
   viewBox="0 0 512 512"
   width="512"
   version="1.1"
   id="svg2"
   inkscape:version="0.91 r13725"
   sodipodi:docname="blueman-trust.svg">
  <defs
     id="defs17" />
  <sodipodi:namedview
     pagecolor="#ffffff"
     bordercolor="#666666"
     borderopacity="1"
     objecttolerance="10"
     gridtolerance="10"
     guidetolerance="10"
     inkscape:pageopacity="0"
     inkscape:pageshadow="2"
     inkscape:window-width="1920"
     inkscape:window-height="1022"
     id="namedview15"
     showgrid="false"
     inkscape:zoom="0.75173395"
     inkscape:cx="-30.894487"
     inkscape:cy="316.53225"
     inkscape:window-x="0"
     inkscape:window-y="0"
     inkscape:window-maximized="1"
     inkscape:current-layer="svg2" />
  <metadata
     id="metadata28">
    <rdf:RDF>
      <cc:Work
         rdf:about="">
        <dc:format>image/svg+xml</dc:format>
        <dc:type
           rdf:resource="http://purl.org/dc/dcmitype/StillImage" />
        <dc:title />
      </cc:Work>
    </rdf:RDF>
  </metadata>
  <path
     inkscape:connector-curvature="0"
     style="fill:#009688"
     id="path66"
     d="m 423.8993,207.99051 c 4.02512,10.77547 -75.73957,72.70482 -78.8087,83.78636 -3.07686,11.08325 33.34433,105.26166 24.33983,112.42297 -9.0045,7.15786 -92.5467,-49.56257 -104.04089,-49.06308 -11.49161,0.49862 -89.81286,64.23678 -99.39852,57.89219 -9.58995,-6.35146 18.53857,-103.33593 14.51346,-114.10798 -4.02512,-10.77548 -88.849996,-65.56072 -85.77227,-76.64225 3.076867,-11.08325 104.0065,-14.30025 113.00756,-21.45811 9.0045,-7.15787 34.89695,-104.763047 46.38942,-105.261667 11.49161,-0.49863 45.73604,94.498217 55.33029,100.842807 9.58995,6.35146 110.41987,0.81671 114.44326,11.59219" />
</svg>
