<?xml version="1.0" encoding="UTF-8" standalone="no"?>
<svg
   xmlns:dc="http://purl.org/dc/elements/1.1/"
   xmlns:cc="http://creativecommons.org/ns#"
   xmlns:rdf="http://www.w3.org/1999/02/22-rdf-syntax-ns#"
   xmlns:svg="http://www.w3.org/2000/svg"
   xmlns="http://www.w3.org/2000/svg"
   xmlns:sodipodi="http://sodipodi.sourceforge.net/DTD/sodipodi-0.dtd"
   xmlns:inkscape="http://www.inkscape.org/namespaces/inkscape"
   sodipodi:docname="bluej.svg"
   inkscape:version="0.91 r13725"
   id="svg2"
   version="1.1"
   width="512"
   viewBox="0 0 512 512"
   height="512">
  <defs
     id="defs17" />
  <sodipodi:namedview
     inkscape:current-layer="g4322"
     inkscape:window-maximized="1"
     inkscape:window-y="0"
     inkscape:window-x="0"
     inkscape:cy="383.8244"
     inkscape:cx="-127.0409"
     inkscape:zoom="1.0936547"
     showgrid="false"
     id="namedview15"
     inkscape:window-height="991"
     inkscape:window-width="1680"
     inkscape:pageshadow="2"
     inkscape:pageopacity="0"
     guidetolerance="10"
     gridtolerance="10"
     objecttolerance="10"
     borderopacity="1"
     bordercolor="#666666"
     pagecolor="#b1afb1" />
  <metadata
     id="metadata28">
    <rdf:RDF>
      <cc:Work
         rdf:about="">
        <dc:format>image/svg+xml</dc:format>
        <dc:type
           rdf:resource="http://purl.org/dc/dcmitype/StillImage" />
        <dc:title />
      </cc:Work>
    </rdf:RDF>
  </metadata>
  <g
     id="g4322"
     transform="matrix(1.168717,0,0,1.168717,-41.498351,-39.022522)">
    <path
       inkscape:connector-curvature="0"
       d="m 167.0595,293.98962 c 4.31421,-7.1701 8.26384,-32.99459 6.79336,-47.80873 -1.09374,-11.2534 -4.46004,-19.5537 -9.88015,-24.63353 -2.56422,-2.36978 -4.46004,-3.41491 -10.68222,-5.8333 -6.59892,-2.56422 -12.52944,-6.40447 -18.4235,-11.90964 l -4.88539,-4.55727 1.27604,-3.03817 c 0.71701,-1.71353 1.89582,-6.12496 2.66144,-9.88015 7.26732,-37.35741 21.02417,-60.76351 63.23051,-79.61235 9.0173,1.76214 28.3401,-4.08331 37.1265,-5.93052 18.99468,-4.083307 16.38185,11.05896 34.6109,14.57109 12.00687,2.32117 16.66135,3.70657 22.45819,6.64753 5.07983,2.51561 12.27423,9.21175 14.91137,13.81762 3.75518,6.55031 3.41491,15.71344 -1.47048,39.77579 -4.75171,23.45472 -4.65448,25.07103 3.18401,50.70108 5.88191,19.32279 17.7551,32.04667 18.18044,41.73238 -10.30549,42.7289 -32.89736,68.8329 -57.3486,108.04967 -38.64559,3.18401 -57.96839,-1.99304 -96.65044,-1.71353 22.98076,-37.26019 2.61283,-48.23408 -5.07983,-80.36582 m 0,0"
       style="fill:#009688;fill-opacity:1;fill-rule:nonzero;stroke:none"
       id="path41" />
    <path
       inkscape:connector-curvature="0"
       d="m 127.42331,199.80321 c 16.75858,19.46863 25.30193,16.95302 31.18384,21.02417 5.55378,3.84026 13.34366,12.29854 13.14922,34.6109 -0.19444,22.64048 -7.1701,41.06398 -7.83849,41.06398 -62.56211,-50.55524 -167.5736092,2.51561 -99.457714,-50.1299 19.031131,-12.34714 36.579634,-25.67866 55.829514,-40.01885 m 7.12148,-6.5503"
       style="fill:#009688;fill-opacity:1;fill-rule:nonzero;stroke:none"
       id="path43" />
    <path
       inkscape:connector-curvature="0"
       d="m 197.14959,106.71648 c 0,0 10.39056,8.92008 28.81406,17.94954 26.15261,12.86971 40.96675,54.78438 39.49628,89.67479 -1.32465,21.21862 28.1092,66.83986 24.42693,96.07926 -5.97913,47.23755 -21.26723,65.69751 -21.26723,65.69751 0,0 68.35895,-21.21862 121.38119,-27.62309 33.74805,-4.08331 53.26529,2.46699 56.48576,-8.78641 -37.9772,-85.19044 -135.96443,-174.02669 -85.4335,-204.6515 4.60587,-2.79512 12.29854,-1.61631 17.65788,-6.87843 9.63709,-76.756465 -149.29595,-27.96337 -181.53707,-21.46167 m 0,0"
       style="fill:#009688;fill-opacity:1;fill-rule:nonzero;stroke:none"
       id="path45" />
    <path
       inkscape:connector-curvature="0"
       d="m 365.58604,95.706131 c -22.6891,-1.373255 -48.85386,17.232529 -69.87804,35.704639 -20.98771,18.47211 -36.4581,37.22373 -36.4581,37.22373 l -0.76562,0.76562 0,1.14235 c 0,0 1.04513,13.62318 0.76562,30.00502 -0.27952,16.38184 -1.89583,35.60742 -6.84198,45.57263 -6.50169,13.10062 -13.34366,23.83145 -20.51376,30.38176 -2.46699,2.2361 -5.69961,5.12844 -7.97217,7.59544 -1.14235,1.23957 -2.04165,2.41839 -2.66144,3.80379 -0.14583,0.32813 -0.32812,0.52257 -0.37673,1.14236 -0.0486,0.61979 0.14583,1.51909 0.76562,2.28471 0.61978,0.76562 1.32464,1.04513 1.89582,1.14235 0.57117,0.0972 1.09374,0.0486 1.51909,0 12.48082,-2.18749 25.44775,-10.68223 35.70463,-18.60579 10.25688,-7.92356 17.47559,-15.56761 17.47559,-15.56761 l 0.37673,0 68.35895,-88.87271 0.37674,-0.76562 0,-0.76562 c 0,0 0.42534,-6.3194 1.89582,-13.29505 0.71701,-3.46352 1.76214,-7.31593 3.03817,-10.25689 1.27604,-2.94095 3.03818,-4.83677 4.55727,-5.69961 4.9826,-2.94096 11.15618,-4.7031 15.56761,-6.45309 1.32464,-0.52256 2.36977,-0.94791 3.41491,-1.51908 1.04513,-0.57118 1.99304,-1.51909 2.66144,-2.66145 2.2361,-3.80379 1.04513,-7.87495 0.76562,-10.63361 -0.19444,-1.89582 -0.8993,-3.93748 -1.51909,-5.69962 -0.61979,-1.76214 -1.14235,-3.03817 -1.14235,-3.03817 0,0 -1.99305,-4.80032 -4.18053,-7.59544 -0.42535,-0.57118 -1.27604,-1.567701 -2.28471,-2.661444 -0.99652,-1.093743 -2.41839,-2.515609 -4.55726,-2.661442 M 211.00367,163.32377 c -2.84373,0.27951 -5.93052,1.04513 -8.73779,2.2847 -5.55379,2.41839 -9.96522,6.45309 -12.52944,11.01035 -2.56422,4.55726 -3.18401,9.6857 -1.14235,14.43741 2.04165,4.75171 6.35586,8.26384 11.39923,9.49126 5.03122,1.23958 11.15618,0.52257 16.70997,-1.89582 5.55378,-2.41839 9.96521,-6.45308 12.52943,-11.01035 2.56422,-4.55726 3.18401,-10.06244 1.14236,-14.81414 -2.04166,-4.75171 -6.35587,-7.87495 -11.39924,-9.11453 -2.51561,-0.61979 -5.12844,-0.6684 -7.97217,-0.37673 m 0,0"
       style="fill:#009688;fill-opacity:1;fill-rule:nonzero;stroke:none"
       id="path47" />
  </g>
</svg>
