<?xml version="1.0" encoding="UTF-8" standalone="no"?>
<svg
   xmlns:dc="http://purl.org/dc/elements/1.1/"
   xmlns:cc="http://creativecommons.org/ns#"
   xmlns:rdf="http://www.w3.org/1999/02/22-rdf-syntax-ns#"
   xmlns:svg="http://www.w3.org/2000/svg"
   xmlns="http://www.w3.org/2000/svg"
   xmlns:sodipodi="http://sodipodi.sourceforge.net/DTD/sodipodi-0.dtd"
   xmlns:inkscape="http://www.inkscape.org/namespaces/inkscape"
   width="1814.17"
   height="1814.17"
   viewBox="0 0 512 512"
   version="1.1"
   id="svg2"
   inkscape:version="0.91 r"
   sodipodi:docname="braindump.svg">
  <defs
     id="defs18" />
  <sodipodi:namedview
     pagecolor="#ffffff"
     bordercolor="#666666"
     borderopacity="1"
     objecttolerance="10"
     gridtolerance="10"
     guidetolerance="10"
     inkscape:pageopacity="0"
     inkscape:pageshadow="2"
     inkscape:window-width="640"
     inkscape:window-height="480"
     id="namedview16"
     showgrid="false"
     inkscape:zoom="0.13008703"
     inkscape:cx="907.08502"
     inkscape:cy="907.08502"
     inkscape:window-x="0"
     inkscape:window-y="0"
     inkscape:window-maximized="0"
     inkscape:current-layer="layer1" />
  <metadata
     id="metadata7305">
    <rdf:RDF>
      <cc:Work
         rdf:about="">
        <dc:format>image/svg+xml</dc:format>
        <dc:type
           rdf:resource="http://purl.org/dc/dcmitype/StillImage" />
      </cc:Work>
    </rdf:RDF>
  </metadata>
  <g
     inkscape:label="Layer 1"
     inkscape:groupmode="layer"
     id="layer1"
     transform="translate(0,215.00001)">
    <path
       style="fill:#009688;fill-rule:evenodd"
       inkscape:connector-curvature="0"
       id="path7900"
       d="m 255.99997,-116.02001 c -19.799,0 -35.738,15.09 -35.738,33.823996 l 0,126.85 -23.1,0 c -5.196,0 -9.361,2.413001 -9.361,5.401001 l 0,52.859993 c 0,16.28301 13.803,29.873 32.513,33.588 l 0,0.0261 6.162,9.05 -6.843,11.537 6.765,13.55599 -6.765,8.993 72.05,-0.0522 -6.135,-10.724 6.765,-10.95999 -6.24,-12.979 5.821,-8.207 0,-0.288 c 18.602,-3.774 32.3,-17.314 32.3,-33.535 l 0,-52.860002 c 0,-2.988 -4.165,-5.400997 -9.361,-5.400997 l -23.1,0 0,-126.850001 c 0.01,-18.74 -15.93,-33.829 -35.73,-33.829 z m -2.57,18.248994 5.139,0 c 4.288,0 7.735,6.06 7.735,13.582 l 0,128.850001 -20.609,0 0,-128.850001 c 0,-7.524997 3.447,-13.582 7.735,-13.582 m -25.591,280.970006 c 6.25,9.1 15.415,14.81401 25.669,14.81401 l 2.176,0 c 10.254,0 19.419,-5.71801 25.669,-14.81401 l -53.51,0" />
  </g>
</svg>
