<?xml version="1.0" encoding="UTF-8" standalone="no"?>
<svg
   xmlns:dc="http://purl.org/dc/elements/1.1/"
   xmlns:cc="http://creativecommons.org/ns#"
   xmlns:rdf="http://www.w3.org/1999/02/22-rdf-syntax-ns#"
   xmlns:svg="http://www.w3.org/2000/svg"
   xmlns="http://www.w3.org/2000/svg"
   xmlns:sodipodi="http://sodipodi.sourceforge.net/DTD/sodipodi-0.dtd"
   xmlns:inkscape="http://www.inkscape.org/namespaces/inkscape"
   height="512"
   viewBox="0 0 512 512"
   width="512"
   version="1.1"
   id="svg2"
   inkscape:version="0.91 r"
   sodipodi:docname="tor-browser-en.svg">
  <defs
     id="defs20" />
  <sodipodi:namedview
     pagecolor="#ffffff"
     bordercolor="#666666"
     borderopacity="1"
     objecttolerance="10"
     gridtolerance="10"
     guidetolerance="10"
     inkscape:pageopacity="0"
     inkscape:pageshadow="2"
     inkscape:window-width="640"
     inkscape:window-height="480"
     id="namedview18"
     showgrid="false"
     inkscape:zoom="0.4609375"
     inkscape:cx="256"
     inkscape:cy="256"
     inkscape:window-x="0"
     inkscape:window-y="0"
     inkscape:window-maximized="0"
     inkscape:current-layer="svg2" />
  <metadata
     id="metadata80">
    <rdf:RDF>
      <cc:Work
         rdf:about="">
        <dc:format>image/svg+xml</dc:format>
        <dc:type
           rdf:resource="http://purl.org/dc/dcmitype/StillImage" />
      </cc:Work>
    </rdf:RDF>
  </metadata>
  <path
     id="path66"
     fill="#009688"
     d="m254.13 132.34c-0.516 0.318-3.534 11.688-6.844 25.906-3.416 14.677-6.666 27.27-7.25 27.969-0.125 0.151-0.393 0.335-0.719 0.531-26.394 5.929-47.21 26.534-53.44 52.813-0.01 0.042-0.022 0.083-0.031 0.125-1.112 2.724-1.998 3.18-4.531 3.844-2.02 0.529-13.813 3.289-26.19 6.125-12.375 2.836-22.84 5.462-23.25 5.844s10.615 3.324 24.5 6.531c13.885 3.208 26.17 6.374 27.28 7.06 0.615 0.379 1.362 1.45 2.094 2.844 6.13 26.726 27.328 47.692 54.19 53.47 3.353 2.211 3.808 5.528 6.438 16.625 2.02 8.509 4.891 20.874 6.406 27.469 2.044 8.896 2.986 11.476 3.594 10 0.45-1.094 3.298-12.8 6.344-26s5.913-24.845 6.344-25.875c0.361-0.862 2.288-2.01 5.469-3.375 23.16-6.634 41.475-24.716 48.41-47.75 0.273-0.908 0.513-1.827 0.75-2.75-0.238 0.927-0.476 1.839-0.75 2.75 0.974-3.01 2.32-5.672 3.094-5.969 0.801-0.308 13.226-3.286 27.594-6.625s26.28-6.215 26.469-6.406c0.469-0.464-3.446-1.48-29.344-7.469-12.1-2.798-22.846-5.422-23.875-5.844-0.713-0.292-1.627-1.646-2.688-3.875-0.007-0.014-0.025-0.018-0.031-0.031-6.236-27.579-28.496-49.06-56.5-54.12-0.249-0.286-0.431-0.592-0.563-0.906-0.495-1.186-3.467-13.406-6.594-27.16-3.127-13.75-5.979-25.332-6.344-25.75-0.011-0.013-0.015-0.01-0.031 0m0.812 52.656c1.224 0 2.448 0.03 3.656 0.094-1.21-0.061-2.431-0.094-3.656-0.094-0.984 0-1.963 0.023-2.938 0.063 0.976-0.041 1.952-0.063 2.938-0.063m-4.281 0.156c-0.997 0.059-1.983 0.119-2.969 0.219-0.879 0.089-1.756 0.191-2.625 0.313 0.872-0.123 1.743-0.221 2.625-0.313 0.985-0.102 1.972-0.158 2.969-0.219m4.281 18.844c28.719 0 52 23.281 52 52s-23.281 52-52 52-52-23.281-52-52 23.281-52 52-52m-70.66 45.03c-0.089 0.914-0.165 1.826-0.219 2.75 0.056-0.926 0.127-1.834 0.219-2.75m141.31 0.094c0.09 0.905 0.164 1.804 0.219 2.719-0.053-0.914-0.132-1.814-0.219-2.719m-141.56 3.531c-0.051 1.108-0.094 2.223-0.094 3.344 0 1.047 0.049 2.089 0.094 3.125-0.046-1.032-0.094-2.081-0.094-3.125 0-1.119 0.041-2.237 0.094-3.344m141.84 0.344c0.043 0.992 0.063 1.998 0.063 3 0-1.01-0.021-2-0.063-3m-141.81 7.094c0.059 1.04 0.147 2.066 0.25 3.094-0.106-1.032-0.19-2.049-0.25-3.094m141.75 0.094c-0.06 1.025-0.147 2.05-0.25 3.063-0.086 0.844-0.198 1.696-0.313 2.531 0.116-0.839 0.226-1.683 0.313-2.531 0.103-1.017 0.19-2.033 0.25-3.063m-0.875 7.656c-0.106 0.631-0.222 1.25-0.344 1.875 0.122-0.621 0.238-1.248 0.344-1.875m-77.25 58.781c1.132 0.115 2.26 0.22 3.406 0.281-1.145-0.062-2.276-0.166-3.406-0.281m3.594 0.281c1.21 0.061 2.431 0.094 3.656 0.094 1.163 0 2.32-0.038 3.469-0.094-1.151 0.056-2.305 0.094-3.469 0.094-1.223 0-2.448-0.032-3.656-0.094" />
  <g
     id="g70"
     fill="#009688">
    <path
       id="path72"
       d="m237.27 238.95c37.435-30.23-0.097-0.034 37.36-30.13 99.78-81.57 0.438 0.088 99.87-81.85-88.84 125.7-61.965 88.4-89.23 126.48-7.272 10.175-13.783 18.5-14.468 18.5-33.637-32.76-0.104-0.121-33.523-33" />
    <path
       id="path74"
       d="m271.95 271.25c-37.03 30.721 0.097 0.033-36.956 30.626-98.69 82.88-0.439-0.082-98.78 83.16 87.17-126.86 60.792-89.22 87.55-127.65 7.137-10.27 13.537-18.68 14.223-18.689 34.07 32.31 0.106 0.12 33.956 32.554" />
  </g>
</svg>
