<?xml version="1.0" encoding="UTF-8" standalone="no"?>
<svg
   xmlns:dc="http://purl.org/dc/elements/1.1/"
   xmlns:cc="http://creativecommons.org/ns#"
   xmlns:rdf="http://www.w3.org/1999/02/22-rdf-syntax-ns#"
   xmlns:svg="http://www.w3.org/2000/svg"
   xmlns="http://www.w3.org/2000/svg"
   xmlns:sodipodi="http://sodipodi.sourceforge.net/DTD/sodipodi-0.dtd"
   xmlns:inkscape="http://www.inkscape.org/namespaces/inkscape"
   width="1814.17"
   height="1814.17"
   viewBox="0 0 512 512"
   version="1.1"
   id="svg2"
   inkscape:version="0.91 r"
   sodipodi:docname="btsync-user.svg">
  <defs
     id="defs18" />
  <sodipodi:namedview
     pagecolor="#ffffff"
     bordercolor="#666666"
     borderopacity="1"
     objecttolerance="10"
     gridtolerance="10"
     guidetolerance="10"
     inkscape:pageopacity="0"
     inkscape:pageshadow="2"
     inkscape:window-width="640"
     inkscape:window-height="480"
     id="namedview16"
     showgrid="false"
     inkscape:zoom="0.13008703"
     inkscape:cx="907.08502"
     inkscape:cy="907.08502"
     inkscape:window-x="0"
     inkscape:window-y="0"
     inkscape:window-maximized="0"
     inkscape:current-layer="layer1" />
  <metadata
     id="metadata7295">
    <rdf:RDF>
      <cc:Work
         rdf:about="">
        <dc:format>image/svg+xml</dc:format>
        <dc:type
           rdf:resource="http://purl.org/dc/dcmitype/StillImage" />
      </cc:Work>
    </rdf:RDF>
  </metadata>
  <g
     inkscape:label="Layer 1"
     inkscape:groupmode="layer"
     id="layer1"
     transform="translate(0,215.00001)">
    <path
       style="fill:#009688;fill-rule:evenodd"
       inkscape:connector-curvature="0"
       id="path7880"
       d="m 248.24997,-104.85001 c -14.75697,0.1 -20.02,0.79899 -29.02998,3.25 -34.68102,9.427993 -66.23002,32.788995 -86.58999,64.060007 -4.473,6.869971 -8.81103,15.08999 -12.09003,22.468988 -3.28297,7.3780153 -5.59797,13.5239804 -5.625,17.812988 -0.0189,2.9880188 1.03,5.7870234 2.71903,7.93799 1.689,2.150022 4.15397,3.75001 7.03,3.75001 3.048,0 5.89799,-0.999988 7.96898,-3.187994 2.07099,-2.1849826 3.39602,-5.2230045 4.59402,-9.3440122 7.98497,-27.4679798 35.524,-59.2199828 63.71898,-73.2199828 36.89601,-18.313001 82.79001,-16.513001 117.97001,4.688001 11.48099,6.918999 32.78898,28.970988 40.56298,42.089992 3.31102,5.589014 7.27502,13.878009 10.37503,21.3130199 1.54998,3.71697624 2.902,7.2189729 3.84397,10.0599681 0.14286,0.4330205 0.096,0.4690016 0.21883,0.8749984 -0.89397,-0.820989 -1.16496,-0.96 -2.40597,-2.1879684 -4.34801,-4.3030298 -7.60702,-7.0000249 -11.03002,-8.1250013 -3.42399,-1.1250141 -6.93097,0.026457 -9.59399,2.43798419 -1.53301,1.38701101 -2.878,2.94001881 -3.34401,5.03002181 -0.465,2.0909858 0.10696,4.2839809 1.344,6.4999933 2.47302,4.431987 7.68,9.908976 17.00001,19.250002 9.24499,9.266003 14.56902,14.358992 18.90603,16.843993 2.16899,1.243011 4.31399,1.852989 6.375,1.499982 2.06098,-0.353008 3.66399,-1.523982 5.15599,-2.874974 2.193,-1.985007 2.92199,-4.92102 3.31299,-8.500006 0.39099,-3.579023 0.28384,-7.908018 -0.24983,-12.781001 -1.069,-9.746002 -3.862,-21.6150034 -8.06003,-33.1199982 -14.47215,-39.6540078 -45.42013,-72.6900068 -82.03015,-87.3100048 -19.13998,-7.644006 -28.16999,-9.179006 -54.08998,-9.218996 -2.53902,-0.004 -4.81901,-0.014 -6.93801,0 M 121.57885,32.647975 c -2.75501,0.04006 -4.89203,1.703017 -6.68803,3.688025 -1.29297,1.428964 -2.304,3.367975 -2.594,5.937978 -0.28989,2.56902 -0.13115,5.912012 0.21883,11.500005 2.40601,38.482015 26.41002,81.409997 59.31001,106.339987 15.72302,11.91602 42.44001,22.955 63.59002,26.34403 1.75597,0.28082 4.857,0.33713 9.406,0.37493 4.549,0.0382 10.23397,-0.008 15.96899,-0.12511 17.66801,-0.36019 23.21,-0.99998 33.90599,-4.156 41.533,-12.24998 74.81801,-40.78798 93.81003,-80.36999 4.02999,-8.395993 6.51299,-14.61101 7.56298,-19.53101 1.04901,-4.92 0.58201,-8.938998 -1.90598,-11.687999 -2.01003,-2.218999 -4.87101,-3.23898 -7.656,-3.469002 -2.78502,-0.230173 -5.77602,0.252095 -7.71904,2.594003 -0.56697,0.684019 -0.79298,1.197014 -1.18798,2.000013 -0.39402,0.802998 -0.83399,1.778985 -1.31301,2.906003 -0.95701,2.254979 -2.06199,5.08199 -3.09399,7.968982 -9.99799,27.982 -35.36002,56.66199 -61.68801,69.81301 -17.828,8.90302 -34.92299,12.89201 -54.84401,12.875 -32.832,-0.0265 -59.53999,-10.48898 -82.11998,-32.05999 -16.45002,-15.71702 -28.76202,-35.030024 -35.22002,-55.409991 -0.565,-1.78201 -0.73799,-2.317002 -1.24997,-3.938003 0.54297,0.517001 0.85399,0.735987 1.438,1.31297 4.72199,4.663029 8.12599,7.539023 11.625,8.781013 3.49897,1.243011 7.11001,0.102048 9.81297,-2.343987 1.534,-1.389014 2.84803,-2.938015 3.31302,-5.030022 0.46402,-2.093971 -0.10809,-4.309984 -1.344,-6.530985 -2.472,-4.442986 -7.67901,-9.907994 -17.00001,-19.250003 -6.46998,-6.484006 -11.12999,-11.000012 -14.81299,-13.969019 -3.683,-2.96897 -6.48302,-4.60698 -9.53102,-4.562986" />
  </g>
</svg>
