<?xml version="1.0" encoding="UTF-8" standalone="no"?>
<svg
   xmlns:dc="http://purl.org/dc/elements/1.1/"
   xmlns:cc="http://creativecommons.org/ns#"
   xmlns:rdf="http://www.w3.org/1999/02/22-rdf-syntax-ns#"
   xmlns:svg="http://www.w3.org/2000/svg"
   xmlns="http://www.w3.org/2000/svg"
   xmlns:sodipodi="http://sodipodi.sourceforge.net/DTD/sodipodi-0.dtd"
   xmlns:inkscape="http://www.inkscape.org/namespaces/inkscape"
   height="512"
   viewBox="0 0 512 512"
   width="512"
   version="1.1"
   id="svg2"
   inkscape:version="0.91 r"
   sodipodi:docname="calligrawords.svg">
  <defs
     id="defs17" />
  <sodipodi:namedview
     pagecolor="#ffffff"
     bordercolor="#666666"
     borderopacity="1"
     objecttolerance="10"
     gridtolerance="10"
     guidetolerance="10"
     inkscape:pageopacity="0"
     inkscape:pageshadow="2"
     inkscape:window-width="1920"
     inkscape:window-height="1028"
     id="namedview15"
     showgrid="false"
     inkscape:zoom="1.3037281"
     inkscape:cx="172.48005"
     inkscape:cy="244.919"
     inkscape:window-x="0"
     inkscape:window-y="0"
     inkscape:window-maximized="1"
     inkscape:current-layer="svg2" />
  <metadata
     id="metadata28">
    <rdf:RDF>
      <cc:Work
         rdf:about="">
        <dc:format>image/svg+xml</dc:format>
        <dc:type
           rdf:resource="http://purl.org/dc/dcmitype/StillImage" />
        <dc:title />
      </cc:Work>
    </rdf:RDF>
  </metadata>
  <path
     inkscape:connector-curvature="0"
     style="fill:#009688"
     id="text3399"
     d="m 381.5551,136.35739 -42.626,-8.1925 c 6.9971,7.7578 11.493,16.147 14.865,27.354 5.3376,17.739 5.1,39.97 -0.18747,64.633 -6.8633,30.325 -20.269,60.7 -52.686,117.82 -4.3525,-18.552 -7.2882,-31.095 -8.6226,-35.53 l -14.664,-56.843 c -5.0043,-19.357 -10.949,-43.212 -17.682,-71.04 -2.3355,-10.487 -4.6736,-20.898 -7.4184,-31.383 l -20.952,9.4088 c -9.3642,31.55 -49.236,135.88 -67.558,177.17 -5.3241,-32.681 -16.069,-121.38 -20.804,-169.82 7.7454,-2.8691 11.801,-5.7463 17.394,-13.046 -14.818,0.23206 -24.829,0.4185 -34.985,0.60559 l 14.367,234.22 23.325,-7.9285 c 34.445,-85.8 43.761,-109.21 69.265,-178.41 13.739,48.385 39.592,149.13 46.948,185.83 l 23.639,-8.5631 c 7.607,-21.041 10.386,-27.986 26.996,-59.979 47.883,-91.426 61.635,-137.49 51.388,-176.31 z" />
</svg>
