<?xml version="1.0" encoding="UTF-8" standalone="no"?>
<svg
   xmlns:dc="http://purl.org/dc/elements/1.1/"
   xmlns:cc="http://creativecommons.org/ns#"
   xmlns:rdf="http://www.w3.org/1999/02/22-rdf-syntax-ns#"
   xmlns:svg="http://www.w3.org/2000/svg"
   xmlns="http://www.w3.org/2000/svg"
   xmlns:sodipodi="http://sodipodi.sourceforge.net/DTD/sodipodi-0.dtd"
   xmlns:inkscape="http://www.inkscape.org/namespaces/inkscape"
   height="512"
   viewBox="0 0 512 512"
   width="512"
   version="1.1"
   id="svg2"
   inkscape:version="0.91 r"
   sodipodi:docname="charmap.svg">
  <defs
     id="defs16" />
  <sodipodi:namedview
     pagecolor="#ffffff"
     bordercolor="#666666"
     borderopacity="1"
     objecttolerance="10"
     gridtolerance="10"
     guidetolerance="10"
     inkscape:pageopacity="0"
     inkscape:pageshadow="2"
     inkscape:window-width="640"
     inkscape:window-height="480"
     id="namedview14"
     showgrid="false"
     inkscape:zoom="0.4609375"
     inkscape:cx="256"
     inkscape:cy="256"
     inkscape:window-x="0"
     inkscape:window-y="0"
     inkscape:window-maximized="0"
     inkscape:current-layer="svg2" />
  <metadata
     id="metadata72">
    <rdf:RDF>
      <cc:Work
         rdf:about="">
        <dc:format>image/svg+xml</dc:format>
        <dc:type
           rdf:resource="http://purl.org/dc/dcmitype/StillImage" />
      </cc:Work>
    </rdf:RDF>
  </metadata>
  <path
     id="path66"
     fill="#009688"
     d="m190.33 160.9v-45.586h38.19v45.59h-38.19m82.45 0v-45.586h38.38v45.59h-38.38m-46.22 227.75c-19.976 0-36.17-5.03-48.568-15.08-12.273-10.17-18.409-24.767-18.409-43.791 0-20.46 7.311-35.595 21.934-45.41 14.623-9.931 36.687-16.212 66.19-18.844 4.047-0.478 8.421-0.957 13.12-1.436 4.7-0.478 9.988-0.957 15.863-1.436 5.875-0.478 10.51-0.898 13.905-1.256v-10.409c0-11.965-3-20.639-9.01-26.02-6.01-5.504-15.14-8.256-27.417-8.256-17.495 0-39.1 4.487-64.823 13.46-0.13-0.359-2.285-5.803-6.463-16.332s-6.332-15.913-6.463-16.15c25.328-9.931 52.746-14.896 82.25-14.896 28.984 0 50.07 5.803 63.26 17.409 13.186 11.486 19.78 30.15 19.78 55.995v128.68h-37.993c-0.131-0.478-1.567-4.487-4.308-12.02-2.742-7.538-4.113-11.546-4.113-12.02-10.706 9.572-21.22 16.631-31.53 21.18-10.184 4.427-22.587 6.64-37.21 6.64m13.904-33.382c11.881 0 22.2-2.572 30.943-7.717 8.878-5.264 15.21-11.606 18.996-19.02v-38.05c-0.392 0-3.852 0.239-10.379 0.718-6.398 0.478-9.857 0.718-10.38 0.718-20.759 1.675-35.969 5.265-45.631 10.768-9.661 5.504-14.492 14.358-14.492 26.562 0 8.375 2.676 14.836 8.03 19.383 5.353 4.427 12.991 6.641 22.913 6.64" />
</svg>
