<?xml version="1.0" encoding="UTF-8" standalone="no"?>
<svg
   xmlns:dc="http://purl.org/dc/elements/1.1/"
   xmlns:cc="http://creativecommons.org/ns#"
   xmlns:rdf="http://www.w3.org/1999/02/22-rdf-syntax-ns#"
   xmlns:svg="http://www.w3.org/2000/svg"
   xmlns="http://www.w3.org/2000/svg"
   xmlns:sodipodi="http://sodipodi.sourceforge.net/DTD/sodipodi-0.dtd"
   xmlns:inkscape="http://www.inkscape.org/namespaces/inkscape"
   sodipodi:docname="checkbox-touch.svg"
   inkscape:version="0.91 r13725"
   id="svg2"
   version="1.1"
   width="512"
   viewBox="0 0 512 512"
   height="512">
  <defs
     id="defs17" />
  <sodipodi:namedview
     inkscape:current-layer="svg2"
     inkscape:window-maximized="1"
     inkscape:window-y="0"
     inkscape:window-x="0"
     inkscape:cy="288.05015"
     inkscape:cx="49.526595"
     inkscape:zoom="1.7178011"
     showgrid="false"
     id="namedview15"
     inkscape:window-height="991"
     inkscape:window-width="1680"
     inkscape:pageshadow="2"
     inkscape:pageopacity="0"
     guidetolerance="10"
     gridtolerance="10"
     objecttolerance="10"
     borderopacity="1"
     bordercolor="#666666"
     pagecolor="#ffffff" />
  <metadata
     id="metadata28">
    <rdf:RDF>
      <cc:Work
         rdf:about="">
        <dc:format>image/svg+xml</dc:format>
        <dc:type
           rdf:resource="http://purl.org/dc/dcmitype/StillImage" />
        <dc:title />
      </cc:Work>
    </rdf:RDF>
  </metadata>
  <path
     inkscape:connector-curvature="0"
     d="m 224.29078,52.199057 -13.84727,41.541795 c -13.97642,3.77392 -27.39321,9.370238 -39.90598,16.645448 L 131.24859,90.741814 90.639504,131.35085 110.25528,170.58238 c -7.21782,12.52712 -12.756709,25.94391 -16.473231,39.90597 l -41.613562,13.90466 0,57.398 41.541822,13.84729 c 3.77392,13.97641 9.370221,27.3932 16.645421,39.90597 l -19.644472,39.28894 40.609092,40.60908 39.23154,-19.61578 c 12.52711,7.21779 25.88649,12.75669 39.84856,16.47322 l 13.96207,41.61357 28.67031,0 0,-100.38912 c -55.47518,0 -100.44652,-44.97134 -100.44652,-100.44652 0,-55.47516 44.97134,-100.44651 100.44652,-100.44651 l 0,-100.446463 z m 197.33434,57.398003 -139.90764,150.66971 -53.81063,-53.81063 -32.28638,32.28638 86.09701,86.097 172.19403,-182.95615 z"
     style="opacity:1;fill:#009688;fill-opacity:1;stroke:none"
     id="path33" />
</svg>
