<?xml version="1.0" encoding="UTF-8" standalone="no"?>
<svg xmlns:dc="http://purl.org/dc/elements/1.1/" xmlns:cc="http://creativecommons.org/ns#" xmlns:rdf="http://www.w3.org/1999/02/22-rdf-syntax-ns#" xmlns:svg="http://www.w3.org/2000/svg" xmlns="http://www.w3.org/2000/svg" xmlns:sodipodi="http://sodipodi.sourceforge.net/DTD/sodipodi-0.dtd" xmlns:inkscape="http://www.inkscape.org/namespaces/inkscape" height="512" viewBox="0 0 512 512" width="512" version="1.1" id="svg2" inkscape:version="0.91 r" sodipodi:docname="chess.svg">
<defs id="defs17" />
<sodipodi:namedview pagecolor="#ffffff" bordercolor="#666666" borderopacity="1" objecttolerance="10" gridtolerance="10" guidetolerance="10" inkscape:pageopacity="0" inkscape:pageshadow="2" inkscape:window-width="1680" inkscape:window-height="994" id="namedview15" showgrid="false" inkscape:zoom="1.3037281" inkscape:cx="40.167185" inkscape:cy="244.919" inkscape:window-x="0" inkscape:window-y="0" inkscape:window-maximized="1" inkscape:current-layer="svg2" />
<metadata id="metadata28">
<rdf:RDF>
<cc:Work rdf:about="">
<dc:format>image/svg+xml</dc:format>
<dc:type rdf:resource="http://purl.org/dc/dcmitype/StillImage" />
<dc:title />
</cc:Work>
</rdf:RDF>
</metadata>
<path inkscape:connector-curvature="0" style="fill:#009688" d="m 442.38098,451.11436 c -0.0757,-5.19318 -6.90282,-12.13028 -24.99897,-25.40317 l -24.89472,-18.25898 -90.52934,0 -24.89471,18.25898 c -18.09616,13.27289 -24.92328,20.20999 -24.99898,25.40317 l -0.10426,7.14134 190.53096,0 -0.10426,-7.14134 m -228.5229,-0.1 c 0,-4.61188 -6.67001,-13.84421 -18.35038,-25.40318 l -18.35039,-18.159 -66.32877,0 -18.350391,18.159 c -11.681805,11.55897 -18.350388,20.79273 -18.350388,25.40318 l 0,7.24417 139.718899,0 0,-7.24417 m 177.81937,-59.81444 c 0,-5.4717 -22.12673,-171.74924 -23.93063,-179.83324 -1.42827,-6.43292 -3.48212,-7.14134 -20.52564,-7.14134 -17.04352,0 -19.09023,0.71271 -20.52564,7.14134 -1.80533,8.08971 -23.93063,174.36297 -23.93063,179.83324 0,2.44662 13.81278,3.54924 44.46198,3.54924 30.6435,0 44.46199,-1.10262 44.46199,-3.54924 m -215.92557,-0.28423 c 0,-5.83447 -9.55368,-82.49676 -11.29474,-90.63789 -1.37828,-6.44006 -3.39785,-7.14134 -20.45994,-7.14134 -17.06352,0 -19.08309,0.70556 -20.45994,7.14134 -1.74106,8.13827 -11.29475,84.79627 -11.29475,90.63789 0,2.73942 9.06522,3.83347 31.7504,3.83347 22.68947,0 31.7504,-1.09405 31.7504,-3.83347 m 21.524,-114.21717 c 8.65531,-8.6553 2.01529,-21.66825 -11.03908,-21.66825 -8.42821,0 -8.94667,-2.3238 -2.43948,-10.92768 2.56374,-3.39071 4.65329,-12.67874 4.64187,-20.6399 -0.0657,-45.34323 -57.70203,-61.72975 -82.86812,-23.55357 -7.247029,10.99195 -8.001155,35.41962 -1.36399,44.1949 6.55289,8.66958 6.02729,10.36637 -3.54782,11.51184 -10.831986,1.29401 -16.69217,10.02644 -11.870337,17.67624 3.055065,4.84897 9.942174,5.66737 54.049947,6.42578 36.62794,0.62987 51.61761,-0.20139 54.4313,-3.0165 m 203.22826,-88.90969 c 9.27375,-9.27374 1.85675,-21.66826 -12.96867,-21.66826 -6.16298,0 -8.71672,-1.34114 -7.68123,-4.03628 3.31359,-8.64102 9.39658,-62.489586 7.58982,-67.200014 -1.38399,-3.606377 -6.31009,-4.977514 -17.8862,-4.977514 -13.85991,0 -15.97661,-0.84125 -15.97661,-6.351508 0,-4.233387 2.1167,-6.351508 6.35151,-6.351508 4.23339,0 6.35151,-2.116693 6.35151,-6.351508 0,-4.233387 -2.1167,-6.351508 -6.35151,-6.351508 -4.23339,0 -6.35151,-2.116694 -6.35151,-6.351509 0,-4.233386 -2.11669,-6.351522 -6.35151,-6.351522 -4.23338,0 -6.3515,2.116708 -6.3515,6.351522 0,4.233387 -2.1167,6.351509 -6.35151,6.351509 -4.23339,0 -6.35151,2.116693 -6.35151,6.351508 0,4.233386 2.11669,6.351508 6.35151,6.351508 4.23338,0 6.35151,2.116693 6.35151,6.351508 0,5.50883 -2.1167,6.351508 -15.97661,6.351508 -11.57754,0 -16.50221,1.371137 -17.8862,4.977514 -1.78105,4.640443 4.25624,58.507574 7.50555,66.977204 0.91266,2.37949 -2.39664,4.19911 -8.79099,4.8304 -12.40594,1.22688 -18.84743,9.53512 -13.71281,17.68482 3.05507,4.84897 9.94218,5.66737 54.04995,6.42578 36.62794,0.62986 51.61761,-0.20139 54.4313,-3.01651" id="path3088" />
</svg>
