<?xml version="1.0" encoding="UTF-8" standalone="no"?>
<svg
   xmlns:dc="http://purl.org/dc/elements/1.1/"
   xmlns:cc="http://creativecommons.org/ns#"
   xmlns:rdf="http://www.w3.org/1999/02/22-rdf-syntax-ns#"
   xmlns:svg="http://www.w3.org/2000/svg"
   xmlns="http://www.w3.org/2000/svg"
   xmlns:sodipodi="http://sodipodi.sourceforge.net/DTD/sodipodi-0.dtd"
   xmlns:inkscape="http://www.inkscape.org/namespaces/inkscape"
   height="512"
   viewBox="0 0 512 512"
   width="512"
   version="1.1"
   id="svg2"
   inkscape:version="0.91 r"
   sodipodi:docname="choqok-offline.svg">
  <defs
     id="defs15" />
  <sodipodi:namedview
     pagecolor="#ffffff"
     bordercolor="#666666"
     borderopacity="1"
     objecttolerance="10"
     gridtolerance="10"
     guidetolerance="10"
     inkscape:pageopacity="0"
     inkscape:pageshadow="2"
     inkscape:window-width="640"
     inkscape:window-height="480"
     id="namedview13"
     showgrid="false"
     inkscape:zoom="0.4609375"
     inkscape:cx="256"
     inkscape:cy="256"
     inkscape:window-x="0"
     inkscape:window-y="0"
     inkscape:window-maximized="0"
     inkscape:current-layer="svg2" />
  <metadata
     id="metadata72">
    <rdf:RDF>
      <cc:Work
         rdf:about="">
        <dc:format>image/svg+xml</dc:format>
        <dc:type
           rdf:resource="http://purl.org/dc/dcmitype/StillImage" />
      </cc:Work>
    </rdf:RDF>
  </metadata>
  <path
     id="path8"
     fill="#009688"
     d="m188.05 132.47c2.11 0.221 4.177 1.412 5.762 3.186 4.225 4.73 7.576 13.706 12.201 28.808 4.312 14.08 9.378 27.607 13.828 37.484 2.225 4.939 4.272 8.967 5.965 11.659 0.847 1.346 1.643 2.363 2.169 2.915 0.035-0.025 0.033-0.038 0.068-0.068 0.594-0.498 1.445-1.296 2.372-2.372 1.855-2.154 4.086-5.236 6.168-8.609 12.479-20.22 34.21-42.504 50.23-51.04 19.528-10.408 35.91-11.584 52.803-3.593 16.685 7.893 31.15 21.557 40.26 38.09 3.257 5.91 5.182 8.985 6.643 10.303s2.478 1.462 5.762 1.559c5.413 0.16 9.994 0.921 13.421 2.169 1.714 0.624 3.165 1.374 4.338 2.44 1.173 1.067 2.034 2.619 2.034 4.338 0 1.537-0.563 2.2-1.152 3.118s-1.322 1.878-2.237 2.915c-1.829 2.073-4.285 4.433-6.982 6.643l-8.405 6.914 0.881 19.861c1.237 27.29-3.146 48.868-14.709 72.33-15.302 31.04-38.01 48.4-72.8 55.65-9.212 1.919-22.366 2.787-33.15 2.237-43.16-2.204-77.84-19.223-101.54-50.02l-8.812-11.455-15.929-1.356c-10.04-0.876-20.367-2.415-28.672-4.203-4.153-0.894-7.823-1.892-10.71-2.847s-4.911-1.589-6.507-3.186c-1.466-1.466-1.532-3.325-1.356-5.02 0.177-1.691 0.68-3.51 1.423-5.49 1.486-3.961 3.914-8.595 6.711-13.08 2.797-4.488 5.98-8.82 9.02-12.133 1.518-1.657 3-3.071 4.474-4.135 1.474-1.063 2.928-1.898 4.813-1.898 1.857 0 2.435 0.714 3.457 1.423s2.158 1.631 3.457 2.779c2.598 2.297 5.718 5.411 9.08 8.947 6.73 7.07 14.217 15.774 18.979 22.504 1.603 2.265 3.396 4.318 4.948 5.762 0.776 0.722 1.523 1.301 2.034 1.627 0.092 0.059-0.011 0.029 0.068 0.068 0.213-0.18 0.429-0.296 0.746-0.61 0.947-0.939 2.192-2.418 3.66-4.203 2.937-3.569 6.61-8.461 10.168-13.489 3.558-5.03 7.02-10.2 9.557-14.37 1.269-2.085 2.292-3.966 2.982-5.355 0.419-0.844 0.486-0.856 0.61-1.22-0.22-0.081-0.254-0.12-0.61-0.203-1.566-0.366-4.265-0.663-7.863-0.678-14.94-0.063-28.2-5.923-37.755-16.81-5.255-5.985-7.998-11.814-7.321-17.42s4.826-10.233 11.32-13.692c1.828-0.974 3.055-2.813 3.389-4.474s-0.094-2.777-1.085-3.389c-1.814-1.121-2.879-2.812-4.135-4.948s-2.476-4.715-3.593-7.456c-2.233-5.482-4.04-11.348-4.067-15.726-0.056-7.771 3.333-14.02 8.405-16.946 5.072-2.929 11.844-2.02 16.675 3.321 1.436 1.586 2.47 2.346 3.118 2.779 0.182-0.48 0.479-1.164 0.678-2.982 0.253-2.317 0.407-5.556 0.407-9.761 0-6.423 0.191-10.791 0.881-14.235 0.69-3.443 1.959-6.03 3.864-8.134 2.382-2.632 4.653-4.499 7.456-5.084 0.701-0.146 1.398-0.209 2.101-0.136m140.18 59.51c-9.76 0-17.692 7.931-17.692 17.691s7.931 17.691 17.692 17.691c9.76 0 17.624-7.931 17.624-17.691s-7.863-17.691-17.624-17.691" />
</svg>
