<?xml version="1.0" encoding="UTF-8" standalone="no"?>
<svg
   xmlns:dc="http://purl.org/dc/elements/1.1/"
   xmlns:cc="http://creativecommons.org/ns#"
   xmlns:rdf="http://www.w3.org/1999/02/22-rdf-syntax-ns#"
   xmlns:svg="http://www.w3.org/2000/svg"
   xmlns="http://www.w3.org/2000/svg"
   xmlns:sodipodi="http://sodipodi.sourceforge.net/DTD/sodipodi-0.dtd"
   xmlns:inkscape="http://www.inkscape.org/namespaces/inkscape"
   version="1.1"
   viewBox="0 0 512 512"
   id="svg2"
   inkscape:version="0.91 r"
   sodipodi:docname="pandora.svg">
  <defs
     id="defs16" />
  <sodipodi:namedview
     pagecolor="#ffffff"
     bordercolor="#666666"
     borderopacity="1"
     objecttolerance="10"
     gridtolerance="10"
     guidetolerance="10"
     inkscape:pageopacity="0"
     inkscape:pageshadow="2"
     inkscape:window-width="647"
     inkscape:window-height="480"
     id="namedview14"
     showgrid="false"
     inkscape:zoom="0.4609375"
     inkscape:cx="256"
     inkscape:cy="256"
     inkscape:window-x="0"
     inkscape:window-y="0"
     inkscape:window-maximized="0"
     inkscape:current-layer="svg2" />
  <metadata
     id="metadata4006">
    <rdf:RDF>
      <cc:Work
         rdf:about="">
        <dc:format>image/svg+xml</dc:format>
        <dc:type
           rdf:resource="http://purl.org/dc/dcmitype/StillImage" />
      </cc:Work>
    </rdf:RDF>
  </metadata>
  <path
     inkscape:connector-curvature="0"
     id="path4000"
     d="m 359.44,187.6 c 0,14.08 -2.777,26.576 -8.329,37.485 -5.426,10.782 -12.998,19.725 -22.714,26.829 -9.59,7.104 -20.13,12.305 -31.61,15.603 -11.484,3.299 -23.661,4.948 -36.532,4.948 l -30.1,0 0,81.82 c 0,4.439 0.698,8.372 2.082,11.797 1.514,3.298 4.542,5.835 9.09,7.611 2.271,0.887 6.246,1.712 11.925,2.473 5.804,0.764 11.1,1.205 15.899,1.332 l 0,13.51 -115.27,0 0,-13.51 c 3.03,-0.255 7.382,-0.701 13.06,-1.332 5.805,-0.632 9.843,-1.459 12.11,-2.473 3.785,-1.649 6.499,-4.06 8.139,-7.231 1.766,-3.172 2.65,-7.231 2.65,-12.178 l 0,-194.84 c 0,-4.44 -0.629,-8.436 -1.893,-11.988 -1.262,-3.552 -4.227,-6.216 -8.896,-7.991 -4.795,-1.649 -9.59,-2.791 -14.385,-3.425 -4.669,-0.764 -8.707,-1.268 -12.11,-1.523 l 0,-13.509 122.65,0 c 24.985,0 45.24,6.089 60.76,18.267 15.647,12.05 23.471,28.16 23.471,48.33 m -57.54,46.05 c 4.29,-6.089 7.13,-12.368 8.518,-18.838 1.388,-6.596 2.082,-12.494 2.082,-17.695 0,-7.23 -0.883,-14.588 -2.65,-22.07 -1.641,-7.484 -4.543,-14.02 -8.707,-19.598 -4.416,-5.962 -10.222,-10.592 -17.414,-13.891 -7.193,-3.298 -16.15,-4.947 -26.878,-4.947 l -26.689,0 0,119.3 19.306,0 c 13.628,0 24.67,-2.092 33.12,-6.279 8.581,-4.313 15.02,-9.641 19.306,-15.983"
     fill="#009688" />
</svg>
