<?xml version="1.0" encoding="UTF-8" standalone="no"?>
<svg
   xmlns:dc="http://purl.org/dc/elements/1.1/"
   xmlns:cc="http://creativecommons.org/ns#"
   xmlns:rdf="http://www.w3.org/1999/02/22-rdf-syntax-ns#"
   xmlns:svg="http://www.w3.org/2000/svg"
   xmlns="http://www.w3.org/2000/svg"
   xmlns:sodipodi="http://sodipodi.sourceforge.net/DTD/sodipodi-0.dtd"
   xmlns:inkscape="http://www.inkscape.org/namespaces/inkscape"
   viewBox="0 0 512 512"
   id="svg2"
   version="1.1"
   inkscape:version="0.91 r"
   sodipodi:docname="soundcloud.svg">
  <metadata
     id="metadata120">
    <rdf:RDF>
      <cc:Work
         rdf:about="">
        <dc:format>image/svg+xml</dc:format>
        <dc:type
           rdf:resource="http://purl.org/dc/dcmitype/StillImage" />
      </cc:Work>
    </rdf:RDF>
  </metadata>
  <defs
     id="defs118" />
  <sodipodi:namedview
     pagecolor="#ffffff"
     bordercolor="#666666"
     borderopacity="1"
     objecttolerance="10"
     gridtolerance="10"
     guidetolerance="10"
     inkscape:pageopacity="0"
     inkscape:pageshadow="2"
     inkscape:window-width="647"
     inkscape:window-height="480"
     id="namedview116"
     showgrid="false"
     inkscape:zoom="0.4609375"
     inkscape:cx="256"
     inkscape:cy="256"
     inkscape:window-x="0"
     inkscape:window-y="0"
     inkscape:window-maximized="0"
     inkscape:current-layer="svg2" />
  <text
     font-size="129.23"
     y="231.36"
     x="729.64"
     font-family="'Gentium Book Basic'"
     line-height="125%"
     word-spacing="0"
     letter-spacing="0"
     id="text18">
    <tspan
       y="231.36"
       x="729.64"
       id="tspan20" />
  </text>
  <text
     transform="scale(4.0128.2492)"
     font-size="46.954"
     y="579.26"
     x="378.91"
     font-family="Arial"
     text-anchor="middle"
     id="text22" />
  <text
     font-size="129.23"
     y="151.36"
     x="1310.91"
     font-family="'Gentium Book Basic'"
     line-height="125%"
     word-spacing="0"
     letter-spacing="0"
     id="text24">
    <tspan
       y="151.36"
       x="1310.91"
       id="tspan26" />
  </text>
  <text
     transform="scale(4.0128.2492)"
     font-size="46.954"
     y="258.22"
     x="523.76"
     font-family="Arial"
     text-anchor="middle"
     id="text28" />
  <text
     font-size="129.23"
     y="-29.9"
     x="239.33"
     font-family="'Gentium Book Basic'"
     line-height="125%"
     word-spacing="0"
     letter-spacing="0"
     id="text30">
    <tspan
       y="-29.9"
       x="239.33"
       id="tspan32" />
  </text>
  <text
     transform="scale(4.0128.2492)"
     font-size="46.954"
     y="-469.13"
     x="256.72"
     font-family="Arial"
     text-anchor="middle"
     id="text34" />
  <text
     font-size="129.23"
     y="-246.37"
     x="1337.38"
     font-family="'Gentium Book Basic'"
     line-height="125%"
     word-spacing="0"
     letter-spacing="0"
     id="text36">
    <tspan
       y="-246.37"
       x="1337.38"
       id="tspan38" />
  </text>
  <text
     transform="scale(4.0128.2492)"
     font-size="46.954"
     y="-1337.8"
     x="530.36"
     font-family="Arial"
     text-anchor="middle"
     id="text40" />
  <text
     font-size="129.23"
     y="-326.37"
     x="1918.65"
     font-family="'Gentium Book Basic'"
     line-height="125%"
     word-spacing="0"
     letter-spacing="0"
     id="text42">
    <tspan
       y="-326.37"
       x="1918.65"
       id="tspan44" />
  </text>
  <text
     transform="scale(4.0128.2492)"
     font-size="46.954"
     y="-1658.83"
     x="675.21"
     font-family="Arial"
     text-anchor="middle"
     id="text46" />
  <text
     font-size="129.23"
     y="-798.77"
     x="1529.53"
     font-family="'Gentium Book Basic'"
     line-height="125%"
     word-spacing="0"
     letter-spacing="0"
     id="text48">
    <tspan
       y="-798.77"
       x="1529.53"
       id="tspan50" />
  </text>
  <text
     transform="scale(4.0128.2492)"
     font-size="46.954"
     y="-3554.48"
     x="578.24"
     font-family="Arial"
     text-anchor="middle"
     id="text52" />
  <text
     font-size="129.23"
     y="-878.78"
     x="2110.79"
     font-family="'Gentium Book Basic'"
     line-height="125%"
     word-spacing="0"
     letter-spacing="0"
     id="text54">
    <tspan
       y="-878.78"
       x="2110.79"
       id="tspan56" />
  </text>
  <text
     transform="scale(4.0128.2492)"
     font-size="46.954"
     y="-3875.52"
     x="723.09"
     font-family="Arial"
     text-anchor="middle"
     id="text58" />
  <g
     font-family="'Gentium Book Basic'"
     line-height="125%"
     word-spacing="0"
     letter-spacing="0"
     id="g60">
    <text
       y="535.94"
       x="277.99"
       font-size="208.33"
       id="text62">
      <tspan
         y="535.94"
         x="277.99"
         id="tspan64" />
    </text>
    <text
       y="298.61"
       x="1291.54"
       font-size="129.23"
       id="text66">
      <tspan
         y="298.61"
         x="1291.54"
         id="tspan68" />
    </text>
  </g>
  <text
     transform="scale(4.0128.2492)"
     font-size="46.954"
     y="849.14"
     x="518.93"
     font-family="Arial"
     text-anchor="middle"
     id="text70" />
  <text
     font-size="129.23"
     y="218.61"
     x="1872.81"
     font-family="'Gentium Book Basic'"
     line-height="125%"
     word-spacing="0"
     letter-spacing="0"
     id="text72">
    <tspan
       y="218.61"
       x="1872.81"
       id="tspan74" />
  </text>
  <text
     transform="scale(4.0128.2492)"
     font-size="46.954"
     y="528.1"
     x="663.78"
     font-family="Arial"
     text-anchor="middle"
     id="text76" />
  <text
     font-size="129.23"
     y="37.35"
     x="801.23"
     font-family="'Gentium Book Basic'"
     line-height="125%"
     word-spacing="0"
     letter-spacing="0"
     id="text78">
    <tspan
       y="37.35"
       x="801.23"
       id="tspan80" />
  </text>
  <text
     transform="scale(4.0128.2492)"
     font-size="46.954"
     y="-199.25"
     x="396.74"
     font-family="Arial"
     text-anchor="middle"
     id="text82" />
  <text
     font-size="129.23"
     y="-179.12"
     x="1899.28"
     font-family="'Gentium Book Basic'"
     line-height="125%"
     word-spacing="0"
     letter-spacing="0"
     id="text84">
    <tspan
       y="-179.12"
       x="1899.28"
       id="tspan86" />
  </text>
  <text
     transform="scale(4.0128.2492)"
     font-size="46.954"
     y="-1067.92"
     x="670.38"
     font-family="Arial"
     text-anchor="middle"
     id="text88" />
  <text
     font-size="129.23"
     y="-259.12"
     x="2480.55"
     font-family="'Gentium Book Basic'"
     line-height="125%"
     word-spacing="0"
     letter-spacing="0"
     id="text90">
    <tspan
       y="-259.12"
       x="2480.55"
       id="tspan92" />
  </text>
  <text
     transform="scale(4.0128.2492)"
     font-size="46.954"
     y="-1388.95"
     x="815.23"
     font-family="Arial"
     text-anchor="middle"
     id="text94" />
  <text
     font-size="129.23"
     y="-731.52"
     x="2091.43"
     font-family="'Gentium Book Basic'"
     line-height="125%"
     word-spacing="0"
     letter-spacing="0"
     id="text96">
    <tspan
       y="-731.52"
       x="2091.43"
       id="tspan98" />
  </text>
  <text
     transform="scale(4.0128.2492)"
     font-size="46.954"
     y="-3284.6"
     x="718.26"
     font-family="Arial"
     text-anchor="middle"
     id="text100" />
  <text
     font-size="129.23"
     y="-811.53"
     x="2672.69"
     font-family="'Gentium Book Basic'"
     line-height="125%"
     word-spacing="0"
     letter-spacing="0"
     id="text102">
    <tspan
       y="-811.53"
       x="2672.69"
       id="tspan104" />
  </text>
  <text
     transform="scale(4.0128.2492)"
     font-size="46.954"
     y="-3605.64"
     x="863.11"
     font-family="Arial"
     text-anchor="middle"
     id="text106" />
  <text
     font-size="208.33"
     y="603.19"
     x="839.89"
     font-family="'Gentium Book Basic'"
     line-height="125%"
     word-spacing="0"
     letter-spacing="0"
     id="text108">
    <tspan
       y="603.19"
       x="839.89"
       id="tspan110" />
  </text>
  <path
     d="m258.12 164.63c-7.06 0-13.947 0.785-20.657 2.374-3.178 1.236-4.766 4.428-4.766 9.548v166.31c-0.353 2.119 0.622 3.628 2.917 4.511h133.22c14.478 0 26.738-4.983 36.802-14.958 10.06-9.976 15.189-22.21 15.365-36.684 0-14.301-5.077-26.531-15.23-36.684-10.152-10.152-22.46-15.23-36.938-15.23-6.533 0-13.167 1.415-19.877 4.24-1.942-23.483-11.64-43.26-29.12-59.32-17.48-16.07-38.06-24.1-61.716-24.1m-48.861 6.292c-2.499 0.017-4.962 1.051-7.411 3.104-3.266 2.737-4.901 6.667-4.901 11.787v153.35c0 5.473 3.71 8.208 11.125 8.208 7.769 0 11.651-2.735 11.651-8.208v-153.35c0-8.475-2.657-13.332-7.954-14.568-0.839-0.221-1.677-0.328-2.51-0.322m-71.64 47.724c-3 0-5.611 1.148-7.818 3.443s-3.307 5.05-3.307 8.225v103.54c0 2.825 1.053 5.04 3.171 6.631 2.119 1.589 4.776 2.374 7.954 2.374 3.355 0 6.137-0.785 8.344-2.374s3.307-3.806 3.307-6.631v-103.54c0-3.178-1.148-5.93-3.443-8.225s-5.03-3.443-8.208-3.443m35.479 14.04c-3.178 0-5.913 1.07-8.208 3.188-2.295 2.119-3.443 4.759-3.443 7.937v94.82c0 5.827 3.883 8.734 11.651 8.734 7.416 0 11.125-2.908 11.125-8.734v-94.82c0-3.178-1.1-5.818-3.307-7.937s-4.817-3.188-7.818-3.188m-70.43 26.22c-3.178 0-5.93 1.1-8.225 3.307s-3.443 4.912-3.443 8.09v44.485c0 4.061 1.51 7.111 4.511 9.141 3 2.03 6.271 2.785 9.803 2.256 3.178-0.706 5.378-1.823 6.614-3.324s1.849-4.188 1.849-8.07v-44.485c0-3.178-1.053-5.883-3.171-8.09-2.119-2.207-4.759-3.307-7.937-3.307"
     fill="#009688"
     id="path114" />
</svg>
