<?xml version="1.0" encoding="UTF-8" standalone="no"?>
<svg
   xmlns:dc="http://purl.org/dc/elements/1.1/"
   xmlns:cc="http://creativecommons.org/ns#"
   xmlns:rdf="http://www.w3.org/1999/02/22-rdf-syntax-ns#"
   xmlns:svg="http://www.w3.org/2000/svg"
   xmlns="http://www.w3.org/2000/svg"
   xmlns:sodipodi="http://sodipodi.sourceforge.net/DTD/sodipodi-0.dtd"
   xmlns:inkscape="http://www.inkscape.org/namespaces/inkscape"
   height="512"
   viewBox="0 0 512 512"
   width="512"
   version="1.1"
   id="svg2"
   inkscape:version="0.91 r"
   sodipodi:docname="cin-multimedia-volume-control.svg">
  <defs
     id="defs46" />
  <sodipodi:namedview
     pagecolor="#ffffff"
     bordercolor="#666666"
     borderopacity="1"
     objecttolerance="10"
     gridtolerance="10"
     guidetolerance="10"
     inkscape:pageopacity="0"
     inkscape:pageshadow="2"
     inkscape:window-width="640"
     inkscape:window-height="480"
     id="namedview44"
     showgrid="false"
     inkscape:zoom="0.4609375"
     inkscape:cx="256"
     inkscape:cy="256"
     inkscape:window-x="0"
     inkscape:window-y="0"
     inkscape:window-maximized="0"
     inkscape:current-layer="svg2" />
  <metadata
     id="metadata86">
    <rdf:RDF>
      <cc:Work
         rdf:about="">
        <dc:format>image/svg+xml</dc:format>
        <dc:type
           rdf:resource="http://purl.org/dc/dcmitype/StillImage" />
      </cc:Work>
    </rdf:RDF>
  </metadata>
  <text
     style="font-size:208.33000183px;line-height:125%;font-family:'Gentium Book Basic';letter-spacing:0;word-spacing:0"
     sodipodi:linespacing="125%"
     letter-spacing="0"
     word-spacing="0"
     x="-1160.48"
     y="549.52002"
     line-height="125%"
     font-size="208.33"
     id="text6">
    <tspan
       x="-1160.48"
       y="549.52002"
       id="tspan8" />
  </text>
  <text
     style="font-size:75.69999695px;font-family:Arial;text-anchor:middle"
     x="28.533854"
     y="1642.2427"
     transform="scale(4.0128205,0.24920128)"
     font-size="75.7"
     id="text10" />
  <text
     style="font-size:129.22999573px;line-height:125%;font-family:'Gentium Book Basic';letter-spacing:0;word-spacing:0"
     sodipodi:linespacing="125%"
     letter-spacing="0"
     word-spacing="0"
     x="729.64001"
     y="231.35997"
     line-height="125%"
     font-size="129.23"
     id="text28">
    <tspan
       x="729.64001"
       y="231.35997"
       id="tspan30" />
  </text>
  <text
     style="font-size:46.95399857px;font-family:Arial;text-anchor:middle"
     x="378.90805"
     y="579.25812"
     transform="scale(4.0128205,0.24920128)"
     font-size="46.954"
     id="text32" />
  <text
     style="font-size:129.22999573px;line-height:125%;font-family:'Gentium Book Basic';letter-spacing:0;word-spacing:0"
     sodipodi:linespacing="125%"
     letter-spacing="0"
     word-spacing="0"
     x="1310.91"
     y="151.35997"
     line-height="125%"
     font-size="129.23"
     id="text34">
    <tspan
       x="1310.91"
       y="151.35997"
       id="tspan36" />
  </text>
  <text
     style="font-size:46.95399857px;font-family:Arial;text-anchor:middle"
     x="523.75732"
     y="258.21997"
     transform="scale(4.0128205,0.24920128)"
     font-size="46.954"
     id="text38" />
  <text
     style="font-size:129.22999573px;line-height:125%;font-family:'Gentium Book Basic';letter-spacing:0;word-spacing:0"
     sodipodi:linespacing="125%"
     letter-spacing="0"
     word-spacing="0"
     x="239.33"
     y="-29.900009"
     line-height="125%"
     font-size="129.23"
     id="text40">
    <tspan
       x="239.33"
       y="-29.900009"
       id="tspan42" />
  </text>
  <text
     style="font-size:46.95399857px;font-family:Arial;text-anchor:middle"
     x="256.71869"
     y="-469.1264"
     transform="scale(4.0128205,0.24920128)"
     font-size="46.954"
     id="text44" />
  <text
     style="font-size:129.22999573px;line-height:125%;font-family:'Gentium Book Basic';letter-spacing:0;word-spacing:0"
     sodipodi:linespacing="125%"
     letter-spacing="0"
     word-spacing="0"
     x="1337.38"
     y="-246.37001"
     line-height="125%"
     font-size="129.23"
     id="text46">
    <tspan
       x="1337.38"
       y="-246.37001"
       id="tspan48" />
  </text>
  <text
     style="font-size:46.95399857px;font-family:Arial;text-anchor:middle"
     x="530.3573"
     y="-1337.802"
     transform="scale(4.0128205,0.24920128)"
     font-size="46.954"
     id="text50" />
  <text
     style="font-size:129.22999573px;line-height:125%;font-family:'Gentium Book Basic';letter-spacing:0;word-spacing:0"
     sodipodi:linespacing="125%"
     letter-spacing="0"
     word-spacing="0"
     x="1918.65"
     y="-326.37"
     line-height="125%"
     font-size="129.23"
     id="text52">
    <tspan
       x="1918.65"
       y="-326.37"
       id="tspan54" />
  </text>
  <text
     style="font-size:46.95399857px;font-family:Arial;text-anchor:middle"
     x="675.20654"
     y="-1658.8303"
     transform="scale(4.0128205,0.24920128)"
     font-size="46.954"
     id="text56" />
  <text
     style="font-size:129.22999573px;line-height:125%;font-family:'Gentium Book Basic';letter-spacing:0;word-spacing:0"
     sodipodi:linespacing="125%"
     letter-spacing="0"
     word-spacing="0"
     x="1529.53"
     y="-798.77002"
     line-height="125%"
     font-size="129.23"
     id="text58">
    <tspan
       x="1529.53"
       y="-798.77002"
       id="tspan60" />
  </text>
  <text
     style="font-size:46.95399857px;font-family:Arial;text-anchor:middle"
     x="578.237"
     y="-3554.4807"
     transform="scale(4.0128205,0.24920128)"
     font-size="46.954"
     id="text62" />
  <text
     style="font-size:129.22999573px;line-height:125%;font-family:'Gentium Book Basic';letter-spacing:0;word-spacing:0"
     sodipodi:linespacing="125%"
     letter-spacing="0"
     word-spacing="0"
     x="2110.79"
     y="-878.78003"
     line-height="125%"
     font-size="129.23"
     id="text64">
    <tspan
       x="2110.79"
       y="-878.78003"
       id="tspan66" />
  </text>
  <text
     style="font-size:46.95399857px;font-family:Arial;text-anchor:middle"
     x="723.0863"
     y="-3875.519"
     transform="scale(4.0128205,0.24920128)"
     font-size="46.954"
     id="text68" />
  <text
     style="font-size:208.33000183px;line-height:125%;font-family:'Gentium Book Basic';letter-spacing:0;word-spacing:0"
     sodipodi:linespacing="125%"
     letter-spacing="0"
     word-spacing="0"
     x="277.98999"
     y="535.94006"
     line-height="125%"
     font-size="208.33"
     id="text70">
    <tspan
       x="277.98999"
       y="535.94006"
       id="tspan72" />
  </text>
  <g
     style="fill:#009688;fill-rule:evenodd"
     transform="matrix(10.043,0,0,10.043,-8470.6,-9500.46)"
     id="g74">
    <path
       inkscape:connector-curvature="0"
       transform="translate(0,540.36)"
       d="m 859.53,418.06 c -1.604,0 -2.906,1.302 -2.906,2.906 0,1.582 1.27,2.871 2.844,2.906 -1.575,2.056 -2.531,4.613 -2.531,7.406 0,2.675 0.857,5.146 2.313,7.156 -1.465,0.149 -2.625,1.371 -2.625,2.875 0,1.604 1.302,2.906 2.906,2.906 1.551,0 2.792,-1.22 2.875,-2.75 1.914,1.262 4.219,2 6.688,2 2.143,0 4.156,-0.559 5.906,-1.531 0.282,1.309 1.451,2.281 2.844,2.281 1.604,0 2.906,-1.302 2.906,-2.906 0,-1.263 -0.811,-2.318 -1.938,-2.719 1.537,-2.04 2.469,-4.563 2.469,-7.313 0,-2.847 -0.988,-5.456 -2.625,-7.531 1.208,-0.353 2.094,-1.46 2.094,-2.781 0,-1.604 -1.302,-2.906 -2.906,-2.906 -1.478,0 -2.692,1.103 -2.875,2.531 -1.741,-0.959 -3.747,-1.5 -5.875,-1.5 -2.459,0 -4.747,0.747 -6.656,2 0.002,-0.041 0,-0.083 0,-0.125 0,-1.604 -1.302,-2.906 -2.906,-2.906 m 0,1.75 c 0.628,0 1.156,0.529 1.156,1.156 0,0.628 -0.529,1.125 -1.156,1.125 -0.628,0 -1.125,-0.497 -1.125,-1.125 0,-0.628 0.497,-1.156 1.125,-1.156 m 18.313,0 c 0.628,0 1.156,0.529 1.156,1.156 0,0.628 -0.529,1.125 -1.156,1.125 -0.628,0 -1.125,-0.497 -1.125,-1.125 0,-0.628 0.497,-1.156 1.125,-1.156 m -8.75,1.188 c 5.684,0 10.313,4.598 10.313,10.281 0,5.684 -4.629,10.281 -10.313,10.281 -5.684,0 -10.281,-4.598 -10.281,-10.281 0,-5.684 4.598,-10.281 10.281,-10.281 m -9.563,19.16 c 0.628,0 1.156,0.529 1.156,1.156 0,0.628 -0.529,1.125 -1.156,1.125 -0.628,0 -1.125,-0.497 -1.125,-1.125 0,-0.628 0.497,-1.156 1.125,-1.156 m 18.313,0 c 0.628,0 1.156,0.529 1.156,1.156 0,0.628 -0.529,1.125 -1.156,1.125 -0.628,0 -1.125,-0.497 -1.125,-1.125 0,-0.628 0.497,-1.156 1.125,-1.156"
       id="path76" />
    <path
       inkscape:connector-curvature="0"
       transform="matrix(0.29762,0,0,0.29762,613.04,845.76)"
       d="m 871,422.98 c 0,5.858 -4.749,10.607 -10.607,10.607 -5.858,0 -10.607,-4.749 -10.607,-10.607 0,-5.858 4.749,-10.607 10.607,-10.607 5.858,0 10.607,4.749 10.607,10.607"
       id="path78" />
    <path
       inkscape:connector-curvature="0"
       transform="translate(0,540.36)"
       d="m 869.09,422.69 c -4.742,0 -8.563,3.852 -8.563,8.594 0,4.742 3.82,8.594 8.563,8.594 4.742,0 8.594,-3.852 8.594,-8.594 0,-4.742 -3.852,-8.594 -8.594,-8.594 m 0,3.813 c 2.65,0 4.813,2.131 4.813,4.781 0,2.65 -2.163,4.813 -4.813,4.813 -2.65,0 -4.781,-2.163 -4.781,-4.813 0,-2.65 2.131,-4.781 4.781,-4.781"
       id="path80" />
  </g>
</svg>
