<?xml version="1.0" encoding="UTF-8" standalone="no"?>
<svg
   xmlns:dc="http://purl.org/dc/elements/1.1/"
   xmlns:cc="http://creativecommons.org/ns#"
   xmlns:rdf="http://www.w3.org/1999/02/22-rdf-syntax-ns#"
   xmlns:svg="http://www.w3.org/2000/svg"
   xmlns="http://www.w3.org/2000/svg"
   xmlns:sodipodi="http://sodipodi.sourceforge.net/DTD/sodipodi-0.dtd"
   xmlns:inkscape="http://www.inkscape.org/namespaces/inkscape"
   height="512"
   viewBox="0 0 512 512"
   width="512"
   version="1.1"
   id="svg2"
   inkscape:version="0.91 r"
   sodipodi:docname="cmplayer.svg">
  <defs
     id="defs23" />
  <sodipodi:namedview
     pagecolor="#ffffff"
     bordercolor="#666666"
     borderopacity="1"
     objecttolerance="10"
     gridtolerance="10"
     guidetolerance="10"
     inkscape:pageopacity="0"
     inkscape:pageshadow="2"
     inkscape:window-width="647"
     inkscape:window-height="480"
     id="namedview21"
     showgrid="false"
     inkscape:zoom="0.4609375"
     inkscape:cx="256"
     inkscape:cy="256"
     inkscape:window-x="0"
     inkscape:window-y="0"
     inkscape:window-maximized="0"
     inkscape:current-layer="svg2" />
  <metadata
     id="metadata86">
    <rdf:RDF>
      <cc:Work
         rdf:about="">
        <dc:format>image/svg+xml</dc:format>
        <dc:type
           rdf:resource="http://purl.org/dc/dcmitype/StillImage" />
      </cc:Work>
    </rdf:RDF>
  </metadata>
  <g
     style="fill:#009688"
     transform="matrix(0.90699,-0.24303,0.24303,0.90699,-169.73,-404.08)"
     id="g68">
    <g
       transform="matrix(2.4809,0,0,2.4809,-2208.4,-1042.8)"
       id="g70">
      <path
         inkscape:connector-curvature="0"
         transform="translate(0,540.36)"
         d="m 993.99,200.87 c 23.265,-13.184 26.537,-13.409 38.39,-19.19 18.63,-5.558 23.474,0.302 35.86,14.647 -1.52,-13.244 -3.111,-27.37 -13.13,-36.11 -7.969,-5.898 -12.709,-4.083 -21.971,1.515 -15.229,10.829 -27.929,24.558 -39.14,39.14"
         id="path72" />
      <path
         inkscape:connector-curvature="0"
         d="m 992.73,741.24 c -23.265,-13.184 -26.537,-13.409 -38.39,-19.19 -18.63,-5.558 -23.474,0.302 -35.86,14.647 1.52,-13.244 3.111,-27.37 13.13,-36.11 7.969,-5.898 12.709,-4.083 21.971,1.515 15.229,10.829 27.929,24.558 39.14,39.14"
         id="path74" />
      <path
         inkscape:connector-curvature="0"
         d="m 993.99,741.38 c 23.265,13.184 26.537,13.409 38.39,19.19 18.63,5.558 23.474,-0.302 35.86,-14.647 -1.52,13.244 -3.111,27.37 -13.13,36.11 -7.969,5.898 -12.709,4.083 -21.971,-1.515 -15.229,-10.829 -27.929,-24.558 -39.14,-39.14"
         id="path76" />
      <path
         inkscape:connector-curvature="0"
         d="m 992.73,741.38 c -23.265,13.184 -26.537,13.409 -38.39,19.19 -18.63,5.558 -23.474,-0.302 -35.86,-14.647 1.52,13.244 3.111,27.37 13.13,36.11 7.969,5.898 12.709,4.083 21.971,-1.515 15.229,-10.829 27.929,-24.558 39.14,-39.14"
         id="path78" />
    </g>
    <path
       style="fill-rule:evenodd"
       inkscape:connector-curvature="0"
       transform="translate(2.199,537.91)"
       d="m 258.85,258.45 c 0,2.789 -2.261,5.05 -5.05,5.05 -2.789,0 -5.05,-2.261 -5.05,-5.05 0,-2.789 2.261,-5.05 5.05,-5.05 2.789,0 5.05,2.261 5.05,5.05"
       id="path80" />
  </g>
</svg>
