<?xml version="1.0" encoding="UTF-8" standalone="no"?>
<svg xmlns:dc="http://purl.org/dc/elements/1.1/" xmlns:cc="http://creativecommons.org/ns#" xmlns:rdf="http://www.w3.org/1999/02/22-rdf-syntax-ns#" xmlns:svg="http://www.w3.org/2000/svg" xmlns="http://www.w3.org/2000/svg" xmlns:sodipodi="http://sodipodi.sourceforge.net/DTD/sodipodi-0.dtd" xmlns:inkscape="http://www.inkscape.org/namespaces/inkscape" height="512" viewBox="0 0 512 512" width="512" version="1.1" id="svg2" inkscape:version="0.91 r" sodipodi:docname="computer.svg">
<defs id="defs22" />
<sodipodi:namedview pagecolor="#ffffff" bordercolor="#666666" borderopacity="1" objecttolerance="10" gridtolerance="10" guidetolerance="10" inkscape:pageopacity="0" inkscape:pageshadow="2" inkscape:window-width="640" inkscape:window-height="480" id="namedview20" showgrid="false" inkscape:zoom="0.4609375" inkscape:cx="166.89577" inkscape:cy="256" inkscape:window-x="0" inkscape:window-y="0" inkscape:window-maximized="0" inkscape:current-layer="svg2" />
<metadata id="metadata84">
<rdf:RDF>
<cc:Work rdf:about="">
<dc:format>image/svg+xml</dc:format>
<dc:type rdf:resource="http://purl.org/dc/dcmitype/StillImage" />
</cc:Work>
</rdf:RDF>
</metadata>
<g id="g68" transform="matrix(1.3828514,0,0,1.3828514,-98.00997,-98.00997)" style="fill:#009688">
<path id="path70" d="m 159.53,138.94 c -17.762,0 -32,14.09 -32,31.656 l 0,104.06 c 0,17.569 14.251,32.34 32,31.656 l 43.44,-1.667 c 63.747,-36.02 43.63,-94.69 93.87,-165.71 z" inkscape:connector-curvature="0" style="fill-opacity:0.07900002" />
<path id="path72" d="m 156.72,120 c -27.13,0 -49.41,22.28 -49.41,49.41 l 0,108.28 c 0,27.13 22.28,49.41 49.41,49.41 l 198.56,0 c 27.13,0 49.41,-22.28 49.41,-49.41 l 0,-108.28 C 404.69,142.28 382.41,120 355.28,120 l -198.56,0 m 3.938,24.19 190.69,0 c 15.53,0 27.938,12.309 27.938,27.813 l 0,103.09 c 0,15.504 -12.433,27.938 -27.938,27.938 l -190.69,0 c -15.503,0 -27.938,-12.434 -27.938,-27.938 l 0,-103.09 c 0,-15.504 12.409,-27.813 27.938,-27.813 M 318.158,306 c 5.155,0 9.313,4.157 9.313,9.313 0,5.155 -4.157,9.344 -9.313,9.344 -5.155,0 -9.344,-4.189 -9.344,-9.344 0,-5.155 4.189,-9.313 9.344,-9.313" inkscape:connector-curvature="0" style="color:#000000" />
<g id="g74" style="fill-rule:evenodd">
<rect id="rect76" rx="11.08" height="46.169998" width="50.169998" y="340.16" x="229.14" />
<rect id="rect78" rx="8" height="16" width="160.02" y="376" x="173.8" />
</g>
</g>
</svg>
