<?xml version="1.0" encoding="UTF-8" standalone="no"?>
<svg
   xmlns:dc="http://purl.org/dc/elements/1.1/"
   xmlns:cc="http://creativecommons.org/ns#"
   xmlns:rdf="http://www.w3.org/1999/02/22-rdf-syntax-ns#"
   xmlns:svg="http://www.w3.org/2000/svg"
   xmlns="http://www.w3.org/2000/svg"
   xmlns:sodipodi="http://sodipodi.sourceforge.net/DTD/sodipodi-0.dtd"
   xmlns:inkscape="http://www.inkscape.org/namespaces/inkscape"
   height="512"
   viewBox="0 0 512 512"
   width="512"
   version="1.1"
   id="svg2"
   inkscape:version="0.91 r13725"
   sodipodi:docname="applications-system.svg">
  <sodipodi:namedview
     pagecolor="#ffffff"
     bordercolor="#666666"
     borderopacity="1"
     objecttolerance="10"
     gridtolerance="10"
     guidetolerance="10"
     inkscape:pageopacity="0"
     inkscape:pageshadow="2"
     inkscape:window-width="1920"
     inkscape:window-height="1020"
     id="namedview15"
     showgrid="false"
     inkscape:zoom="0.88143057"
     inkscape:cx="547.25221"
     inkscape:cy="329.03692"
     inkscape:window-x="0"
     inkscape:window-y="0"
     inkscape:window-maximized="1"
     inkscape:current-layer="svg2" />
  <defs
     id="defs17" />
  <metadata
     id="metadata28">
    <rdf:RDF>
      <cc:Work
         rdf:about="">
        <dc:format>image/svg+xml</dc:format>
        <dc:type
           rdf:resource="http://purl.org/dc/dcmitype/StillImage" />
        <dc:title></dc:title>
      </cc:Work>
    </rdf:RDF>
  </metadata>
  <path
     id="path4"
     d="m 91.247203,168.90362 323.585597,0 c 10.23035,0 18.515,8.29414 18.515,18.51517 l 0,131.26045 c 0,10.22955 -8.28465,18.51514 -18.515,18.51514 l -323.585597,0 c -10.230361,0 -18.515005,-8.2856 -18.515005,-18.51514 l 0,-131.26047 c 0,-10.22102 8.284644,-18.51515 18.515005,-18.51515 z"
     style="fill:none;stroke:#009688;stroke-width:24.04104042;stroke-linecap:round;stroke-linejoin:round"
     inkscape:connector-curvature="0" />
  <path
     inkscape:connector-curvature="0"
     id="path6-3"
     d="m 179.39629,191.95122 c -3.38389,0 -6.10567,2.72957 -6.10567,6.11255 l 0,109.97069 c 0,3.38275 2.72178,6.11232 6.10567,6.11232 l 147.28056,0 c 3.39075,0 6.11253,-2.72957 6.11253,-6.11232 l 0,-109.97069 c 0,-3.38298 -2.72178,-6.11255 -6.11253,-6.11255 z m 42.76944,85.53866 0,-48.88176 12.2159,0 0,48.88176 z m 24.4387,0 0,-48.88176 12.2182,0 0,48.88176 z m 24.4341,0 0,-48.88176 12.2228,0 0,48.88176 z"
     style="fill:#009688" />
</svg>
