<?xml version="1.0" encoding="UTF-8" standalone="no"?>
<svg xmlns:dc="http://purl.org/dc/elements/1.1/" xmlns:cc="http://creativecommons.org/ns#" xmlns:rdf="http://www.w3.org/1999/02/22-rdf-syntax-ns#" xmlns:svg="http://www.w3.org/2000/svg" xmlns="http://www.w3.org/2000/svg" xmlns:sodipodi="http://sodipodi.sourceforge.net/DTD/sodipodi-0.dtd" xmlns:inkscape="http://www.inkscape.org/namespaces/inkscape" height="512" viewBox="0 0 512 512" width="512" version="1.1" id="svg2" inkscape:version="0.91 r" sodipodi:docname="conky-manager.svg">
<defs id="defs17" />
<sodipodi:namedview pagecolor="#ffffff" bordercolor="#666666" borderopacity="1" objecttolerance="10" gridtolerance="10" guidetolerance="10" inkscape:pageopacity="0" inkscape:pageshadow="2" inkscape:window-width="1680" inkscape:window-height="994" id="namedview15" showgrid="false" inkscape:zoom="0.4609375" inkscape:cx="313.49153" inkscape:cy="256" inkscape:window-x="0" inkscape:window-y="0" inkscape:window-maximized="1" inkscape:current-layer="svg2" />
<metadata id="metadata74">
<rdf:RDF>
<cc:Work rdf:about="">
<dc:format>image/svg+xml</dc:format>
<dc:type rdf:resource="http://purl.org/dc/dcmitype/StillImage" />
</cc:Work>
</rdf:RDF>
</metadata>
<path style="color:#000000;fill:#009688" inkscape:connector-curvature="0" d="m 244.0142,99.773645 2.99678,8.718415 c 0.51183,1.50276 1.00046,2.98298 1.49838,4.44241 0.017,0.0538 0.031,0.10913 0.048,0.16293 28.46006,89.62983 56.95878,179.2562 85.48069,268.8843 l 1.40097,4.22575 65.71868,0 -2.70606,-8.55896 C 369.51679,286.40844 340.49233,195.22038 311.47096,104.01499 l -1.40097,-4.225739 -66.05733,0 m 166.276,0 -1.35303,4.225739 c -14.05607,44.19354 -28.1276,88.39401 -42.18366,132.5962 10.95879,34.53396 21.9253,69.04017 32.90728,103.56371 l 1.69168,-5.30904 c 23.51491,-73.91936 46.98189,-147.83178 70.45506,-221.75633 0.017,-0.0538 0.031,-0.10926 0.048,-0.16293 0.49791,-1.45768 1.03449,-2.93964 1.54633,-4.4424 l 2.94728,-8.718416 -66.04342,0 m -197.20244,0.16292 0,286.165146 51.36881,0 0,-183.03476 -0.33865,-1.0833 c -10.47632,-32.66547 -21.10264,-65.31706 -31.84494,-97.87853 l -1.40097,-4.170283 -17.78425,0 m 276.54423,0 -1.40096,4.170283 c -10.74076,32.558 -21.36862,65.21132 -31.84496,97.87853 l -0.33864,1.0833 0,183.01743 51.36881,0 0,-286.165148 -17.78425,0 m -452.593,0.216668 c -18.280626,0 -33.1500557,16.72098 -33.1500557,37.21186 l 0,211.25263 c 0,20.49087 14.8678877,37.21186 33.1500557,37.21186 l 54.555794,0 0,-42.63531 -17.493549,0 0,-200.40227 17.493549,0 0,-42.6353 -54.55735,0 m 65.625916,0 0,42.6353 46.48708,0 0,-42.6353 -46.48708,0 m 0,243.04104 0,42.63532 46.48708,0 0,-42.63532 -46.48708,0" id="path68" />
</svg>
