<?xml version="1.0" encoding="UTF-8" standalone="no"?>
<svg
   xmlns:dc="http://purl.org/dc/elements/1.1/"
   xmlns:cc="http://creativecommons.org/ns#"
   xmlns:rdf="http://www.w3.org/1999/02/22-rdf-syntax-ns#"
   xmlns:svg="http://www.w3.org/2000/svg"
   xmlns="http://www.w3.org/2000/svg"
   xmlns:sodipodi="http://sodipodi.sourceforge.net/DTD/sodipodi-0.dtd"
   xmlns:inkscape="http://www.inkscape.org/namespaces/inkscape"
   height="512"
   viewBox="0 0 512 512"
   width="512"
   version="1.1"
   id="svg2"
   inkscape:version="0.91 r13725"
   sodipodi:docname="cool-retro-term.svg">
  <defs
     id="defs17">
    <linearGradient
       id="linearGradient3046"
       y1="1"
       x2="0"
       y2="47"
       gradientUnits="userSpaceOnUse">
      <stop
         style="stop-color:#5c4e42;stop-opacity:1"
         id="stop7" />
      <stop
         offset="1"
         style="stop-color:#50443a;stop-opacity:1"
         id="stop9" />
    </linearGradient>
  </defs>
  <sodipodi:namedview
     pagecolor="#a3a5a7"
     bordercolor="#666666"
     borderopacity="1"
     objecttolerance="10"
     gridtolerance="10"
     guidetolerance="10"
     inkscape:pageopacity="0"
     inkscape:pageshadow="2"
     inkscape:window-width="1892"
     inkscape:window-height="1021"
     id="namedview15"
     showgrid="false"
     inkscape:zoom="0.4549501"
     inkscape:cx="-204.73316"
     inkscape:cy="421.05492"
     inkscape:window-x="9"
     inkscape:window-y="0"
     inkscape:window-maximized="0"
     inkscape:current-layer="svg2" />
  <metadata
     id="metadata28">
    <rdf:RDF>
      <cc:Work
         rdf:about="">
        <dc:format>image/svg+xml</dc:format>
        <dc:type
           rdf:resource="http://purl.org/dc/dcmitype/StillImage" />
        <dc:title></dc:title>
      </cc:Work>
    </rdf:RDF>
  </metadata>
  <g
     transform="matrix(14.503503,0,0,14.503503,-88.26574,-124.94218)"
     style="fill:#009688;fill-opacity:0.83229819"
     id="g103">
    <g
       transform="translate(0,3)"
       id="g105"
       style="fill:#009688;fill-opacity:0.83229819">
      <path
         inkscape:connector-curvature="0"
         d="m 11,12 0,10 8,0 0,-3 -5,0 0,-4 5,0 0,-3 -8,0 z"
         style="fill:#009688;fill-opacity:0.83229819;fill-rule:evenodd;stroke:none"
         id="path107" />
      <path
         inkscape:connector-curvature="0"
         transform="translate(0,-3)"
         d="m 20,15 0,10 3,0 0,-4 1,0 2,4 3,0 -2.5,-5 1.5,0 0,-5 z m 3,2 2,0 0,2 -2,0 z"
         style="fill:#009688;fill-opacity:0.83229819;fill-rule:evenodd;stroke:none"
         id="path109" />
      <path
         inkscape:connector-curvature="0"
         d="m 29,12 0,3 3,0 0,7 3,0 0,-7 3,0 0,-3 z"
         style="fill:#009688;fill-opacity:0.83229819;fill-rule:evenodd;stroke:none"
         id="path111" />
    </g>
    <path
       inkscape:connector-curvature="0"
       d="m 11,27 0,10 8,0 0,-10 z"
       style="fill:#009688;fill-opacity:0.83229819;fill-rule:evenodd;stroke:none"
       id="path113" />
  </g>
  <g
     id="g5191"
     style="opacity:1;fill:#009688;fill-opacity:1"
     transform="matrix(1.8527809,0,0,1.8527809,-5.8014292,-1131.3384)">
    <path
       id="path115"
       style="opacity:1;fill:#009688;fill-opacity:1"
       d="m 41.599211,660.60092 62.623709,0 0,7.82796 -62.623709,0 z"
       inkscape:connector-curvature="0" />
    <path
       id="path117"
       style="opacity:1;fill:#009688;fill-opacity:1"
       d="m 112.05089,660.60092 62.62372,0 0,7.82796 -62.62372,0 z"
       inkscape:connector-curvature="0" />
    <rect
       id="rect119"
       style="opacity:1;fill:#009688;fill-opacity:1"
       y="660.60071"
       x="182.5025"
       height="7.8279643"
       width="70.451675" />
    <path
       id="path121"
       style="opacity:1;fill:#009688;fill-opacity:1;stroke:none"
       d="m 41.599211,684.08481 23.48389,0 0,7.82797 -23.48389,0 z"
       inkscape:connector-curvature="0" />
    <path
       id="path123"
       style="opacity:1;fill:#009688;fill-opacity:1;stroke:none"
       d="m 112.05089,684.08481 23.48389,0 0,7.82797 -23.48389,0 z"
       inkscape:connector-curvature="0" />
    <path
       id="path125"
       style="opacity:1;fill:#009688;fill-opacity:1;stroke:none"
       d="m 151.19071,684.08481 23.4839,0 0,7.82797 -23.4839,0 z"
       inkscape:connector-curvature="0" />
    <path
       id="path127"
       style="opacity:1;fill:#009688;fill-opacity:1;stroke:none"
       d="m 205.98646,684.08481 23.48389,0 0,7.82797 -23.48389,0 z"
       inkscape:connector-curvature="0" />
    <path
       id="path129"
       style="opacity:1;fill:#009688;fill-opacity:1;stroke:none"
       d="m 41.599211,707.5687 23.48389,0 0,7.82797 -23.48389,0 z"
       inkscape:connector-curvature="0" />
    <path
       id="path131"
       style="opacity:1;fill:#009688;fill-opacity:1;stroke:none"
       d="m 112.05089,707.5687 23.48389,0 0,7.82797 -23.48389,0 z"
       inkscape:connector-curvature="0" />
    <path
       id="path133"
       style="opacity:1;fill:#009688;fill-opacity:1;stroke:none"
       d="m 143.36275,707.5687 23.48389,0 3.91398,7.82797 -23.48389,0 z"
       inkscape:connector-curvature="0" />
    <path
       id="path135"
       style="opacity:1;fill:#009688;fill-opacity:1;stroke:none"
       d="m 205.98646,707.5687 23.48389,0 0,7.82797 -23.48389,0 z"
       inkscape:connector-curvature="0" />
    <path
       id="path137"
       style="opacity:1;fill:#009688;fill-opacity:1;stroke:none"
       d="m 41.599211,731.0526 62.623709,0 0,7.82796 -62.623709,0 z"
       inkscape:connector-curvature="0" />
    <path
       id="path139"
       style="opacity:1;fill:#009688;fill-opacity:1;stroke:none"
       d="m 112.05089,731.0526 23.48389,0 0,7.82796 -23.48389,0 z"
       inkscape:connector-curvature="0" />
    <path
       id="path141"
       style="opacity:1;fill:#009688;fill-opacity:1;stroke:none"
       d="m 155.10469,731.0526 23.4839,0 3.91398,7.82796 -23.4839,0 z"
       inkscape:connector-curvature="0" />
    <path
       id="path143"
       style="opacity:1;fill:#009688;fill-opacity:1;stroke:none"
       d="m 205.98646,731.0526 23.48389,0 0,7.82796 -23.48389,0 z"
       inkscape:connector-curvature="0" />
    <path
       id="path145"
       style="opacity:1;fill:#009688;fill-opacity:1;stroke:none"
       d="m 41.599211,754.53649 62.623709,0 0,7.82796 -62.623709,0 z"
       inkscape:connector-curvature="0" />
    <path
       id="path147"
       style="opacity:1;fill:#009688;fill-opacity:1;stroke:none"
       d="m 41.599211,778.02038 62.623709,0 0,7.82797 -62.623709,0 z"
       inkscape:connector-curvature="0" />
    <path
       id="path149"
       style="opacity:1;fill:#009688;fill-opacity:1;stroke:none"
       d="m 41.599211,801.50427 62.623709,0 0,7.82797 -62.623709,0 z"
       inkscape:connector-curvature="0" />
    <path
       id="path151"
       style="opacity:1;fill:#009688;fill-opacity:1;stroke:none"
       d="m 41.599211,824.98817 62.623709,0 0,7.82796 -62.623709,0 z"
       inkscape:connector-curvature="0" />
  </g>
</svg>
