<?xml version="1.0" encoding="UTF-8" standalone="no"?>
<svg xmlns:dc="http://purl.org/dc/elements/1.1/" xmlns:cc="http://creativecommons.org/ns#" xmlns:rdf="http://www.w3.org/1999/02/22-rdf-syntax-ns#" xmlns:svg="http://www.w3.org/2000/svg" xmlns="http://www.w3.org/2000/svg" xmlns:xlink="http://www.w3.org/1999/xlink" xmlns:sodipodi="http://sodipodi.sourceforge.net/DTD/sodipodi-0.dtd" xmlns:inkscape="http://www.inkscape.org/namespaces/inkscape" height="512" viewBox="0 0 512 512" width="512" version="1.1" id="svg2" inkscape:version="0.91 r" sodipodi:docname="copy-agent.svg">
<sodipodi:namedview pagecolor="#ffffff" bordercolor="#666666" borderopacity="1" objecttolerance="10" gridtolerance="10" guidetolerance="10" inkscape:pageopacity="0" inkscape:pageshadow="2" inkscape:window-width="640" inkscape:window-height="480" id="namedview49" showgrid="false" inkscape:zoom="0.4609375" inkscape:cx="218.0339" inkscape:cy="256" inkscape:window-x="0" inkscape:window-y="0" inkscape:window-maximized="0" inkscape:current-layer="svg2" />
<metadata id="metadata70">
<rdf:RDF>
<cc:Work rdf:about="">
<dc:format>image/svg+xml</dc:format>
<dc:type rdf:resource="http://purl.org/dc/dcmitype/StillImage" />
</cc:Work>
</rdf:RDF>
</metadata>
<defs id="defs68">
<linearGradient id="ButtonShadow" gradientUnits="userSpaceOnUse" y1="92.54" gradientTransform="scale(1.0059 .99417)" x2="0" y2="7.02">
<stop id="stop3750-1" />
<stop id="stop3752-6" stop-opacity="0.588" offset="1" />
</linearGradient>
<filter id="filter3174" color-interpolation-filters="sRGB">
<feGaussianBlur id="feGaussianBlur3176" stdDeviation="1.71" />
</filter>
<radialGradient id="radialGradient21305" gradientUnits="userSpaceOnUse" cy="64" cx="64" r="64">
<stop id="stop4218-0" stop-color="#fff" />
<stop id="stop4220-2" stop-color="#e8e8e8" offset="0.688" />
<stop id="stop4222-6" stop-color="#686868" offset="0.875" />
<stop id="stop4224-6" offset="1" />
</radialGradient>
<filter id="filter3657" color-interpolation-filters="sRGB">
<feGaussianBlur id="feGaussianBlur3659" stdDeviation="1.14" />
</filter>
<clipPath id="clipPath3649">
<rect id="rect3651" rx="4" height="76" width="76" y="10" x="10" fill="#009688" />
</clipPath>
<clipPath id="clipPath3625">
<path id="path3627" d="m0 0v96h96v-96h-96zm12 6h72c3.324 0 6 2.676 6 6v72c0 3.324-2.676 6-6 6h-72c-3.324 0-6-2.676-6-6v-72c0-3.324 2.676-6 6-6z" />
</clipPath>
<linearGradient id="linearGradient3737">
<stop id="stop3739" stop-color="#fff" />
<stop id="stop3741" stop-color="#fff" stop-opacity="0" offset="1" />
</linearGradient>
<linearGradient id="linearGradient31361" gradientUnits="userSpaceOnUse" x2="0" gradientTransform="matrix(5.5614 0 0 5.5614 -68.443 384.26)" y1="90" y2="5.988">
<stop id="stop3702" stop-color="#2276c5" />
<stop id="stop3704" stop-color="#68baf4" offset="1" />
</linearGradient>
<radialGradient id="radialGradient31364" cx="48" xlink:href="#linearGradient3737" gradientUnits="userSpaceOnUse" cy="90.17" r="42" gradientTransform="matrix(6.4363 0 0 5.5387 -110.44 -170.79)" />
<linearGradient id="linearGradient31367" xlink:href="#linearGradient3737" gradientUnits="userSpaceOnUse" x2="0" gradientTransform="matrix(5.5614 0 0 5.5614 -68.443 -171.89)" y1="6" y2="63.893" />
<linearGradient id="linearGradient31370" gradientUnits="userSpaceOnUse" x2="0" gradientTransform="matrix(5.5614 0 0 5.5614 -68.443 -171.89)" y1="6" y2="90.02">
<stop id="stop3639" stop-color="#f0f0f0" />
<stop id="stop3641" stop-color="#dcdcdc" offset="1" />
</linearGradient>
<filter id="filter3794" width="1.384" y="-0.192" x="-0.192" height="1.384" color-interpolation-filters="sRGB">
<feGaussianBlur id="feGaussianBlur3796" stdDeviation="5.28" />
</filter>
<linearGradient id="linearGradient3613" y2="138.66" gradientUnits="userSpaceOnUse" y1="20.221" x2="0">
<stop id="stop3739-0" stop-color="#fff" />
<stop id="stop3741-6" stop-color="#fff" stop-opacity="0" offset="1" />
</linearGradient>
<clipPath id="clipPath3613">
<rect id="rect3615" rx="6" height="84" width="84" y="6" x="6" fill="#009688" />
</clipPath>
</defs>
<g id="g3377" transform="matrix(1.54717,0,0,1.54717,-128.79786,-132.35789)">
<path d="m 360.78,115.02 c -0.27952,0.007 -0.46948,0.054 -0.53125,0.125 -0.14826,0.18532 -7.8277,12.455 -17.094,27.219 -9.266,14.813 -25.734,41.148 -36.594,58.469 -8.8206,14.055 -14.997,23.971 -17.531,28.062 l 39.5,13.5 c 1.2108,-4.2871 14.385,-51.331 28,-99.688 5.6461,-20.175 7.3961,-26.99 7.0625,-27.188 -0.4633,-0.28724 -1.9739,-0.52201 -2.8125,-0.5 z" id="path4229" inkscape:connector-curvature="0" style="fill:#009688" />
<path d="m 138.37,183.18 c -0.14826,0.14825 -4.0676,3.484 -8.75,7.4375 -4.6701,3.9535 -18.95,15.976 -31.688,26.688 l -23.156,19.562 5.6875,2.6875 33.719,-11.281 c 18.532,-6.2268 33.776,-11.211 33.875,-11.062 0.14825,0.0988 27.838,86.378 46.469,144.53 l 0,-0.125 c 1.2972,3.9535 2.4142,7.1562 2.5625,7.1562 0.0865,0 4.1512,-2.4164 9.0312,-5.4062 4.7318,-2.9034 10.839,-6.7006 13.594,-8.3438 l 4.9375,-3 c -0.38299,0 168.53,13.219 168.53,13.219 2.5574,0 2.2812,0.33067 2.8125,-2.9062 0.14826,-1.0502 -1.4752,-4.0915 -28.594,-52.25 -14.099,-25.151 -24.941,-44.351 -27.75,-49.312 l -33.219,-8.9062 -12.656,8.4062 c -10.279,6.8074 -24.242,15.953 -31,20.438 -32.913,21.571 -45.99,30.094 -46.188,30.094 -0.0494,0 -4.3358,-10.33 -9.5,-22.969 -31.467,-77.266 -39.284,-96.472 -39.531,-96.719 -0.48183,-0.48183 -29.039,-8.2711 -29.188,-7.9375 z" id="path4227" inkscape:connector-curvature="0" style="fill:#009688" />
<path style="fill:#009688" d="m 254.87,230.49 c -0.6534,5.8e-4 -1.3012,0.007 -1.9375,0.0312 -7.6722,0.28416 -6.6082,-0.149 -31.219,13.219 -7.9819,4.326 -13.716,7.4546 -17.5,9.5312 l 18.688,40.281 c 1.6124,-0.98581 2.9162,-1.8014 4.9688,-3.0625 9.1448,-5.6187 21.281,-13.105 33.406,-20.562 21.306,-13.105 34.59,-22.145 39.438,-25.125 -3.4979,-1.5696 -10.573,-6.0506 -14.344,-7.4062 -14.165,-5.2469 -21.699,-6.9149 -31.5,-6.9062 z" id="path3064" inkscape:connector-curvature="0" />
</g>
</svg>
