<?xml version="1.0" encoding="UTF-8" standalone="no"?>
<svg
   xmlns:dc="http://purl.org/dc/elements/1.1/"
   xmlns:cc="http://creativecommons.org/ns#"
   xmlns:rdf="http://www.w3.org/1999/02/22-rdf-syntax-ns#"
   xmlns:svg="http://www.w3.org/2000/svg"
   xmlns="http://www.w3.org/2000/svg"
   xmlns:xlink="http://www.w3.org/1999/xlink"
   xmlns:sodipodi="http://sodipodi.sourceforge.net/DTD/sodipodi-0.dtd"
   xmlns:inkscape="http://www.inkscape.org/namespaces/inkscape"
   height="512"
   viewBox="0 0 512 512"
   width="512"
   version="1.1"
   id="svg2"
   inkscape:version="0.91 r"
   sodipodi:docname="copyq.svg">
  <sodipodi:namedview
     pagecolor="#ffffff"
     bordercolor="#666666"
     borderopacity="1"
     objecttolerance="10"
     gridtolerance="10"
     guidetolerance="10"
     inkscape:pageopacity="0"
     inkscape:pageshadow="2"
     inkscape:window-width="647"
     inkscape:window-height="480"
     id="namedview49"
     showgrid="false"
     inkscape:zoom="0.4609375"
     inkscape:cx="263.59322"
     inkscape:cy="256"
     inkscape:window-x="0"
     inkscape:window-y="0"
     inkscape:window-maximized="0"
     inkscape:current-layer="svg2" />
  <metadata
     id="metadata70">
    <rdf:RDF>
      <cc:Work
         rdf:about="">
        <dc:format>image/svg+xml</dc:format>
        <dc:type
           rdf:resource="http://purl.org/dc/dcmitype/StillImage" />
      </cc:Work>
    </rdf:RDF>
  </metadata>
  <defs
     id="defs68">
    <linearGradient
       id="ButtonShadow"
       gradientUnits="userSpaceOnUse"
       y1="92.54"
       gradientTransform="scale(1.0059 .99417)"
       x2="0"
       y2="7.02">
      <stop
         id="stop3750-1" />
      <stop
         id="stop3752-6"
         stop-opacity="0.588"
         offset="1" />
    </linearGradient>
    <filter
       id="filter3174"
       color-interpolation-filters="sRGB">
      <feGaussianBlur
         id="feGaussianBlur3176"
         stdDeviation="1.71" />
    </filter>
    <radialGradient
       id="radialGradient21305"
       gradientUnits="userSpaceOnUse"
       cy="64"
       cx="64"
       r="64">
      <stop
         id="stop4218-0"
         stop-color="#fff" />
      <stop
         id="stop4220-2"
         stop-color="#e8e8e8"
         offset="0.688" />
      <stop
         id="stop4222-6"
         stop-color="#686868"
         offset="0.875" />
      <stop
         id="stop4224-6"
         offset="1" />
    </radialGradient>
    <filter
       id="filter3657"
       color-interpolation-filters="sRGB">
      <feGaussianBlur
         id="feGaussianBlur3659"
         stdDeviation="1.14" />
    </filter>
    <clipPath
       id="clipPath3649">
      <rect
         id="rect3651"
         rx="4"
         height="76"
         width="76"
         y="10"
         x="10"
         fill="#009688" />
    </clipPath>
    <clipPath
       id="clipPath3625">
      <path
         id="path3627"
         d="m0 0v96h96v-96h-96zm12 6h72c3.324 0 6 2.676 6 6v72c0 3.324-2.676 6-6 6h-72c-3.324 0-6-2.676-6-6v-72c0-3.324 2.676-6 6-6z" />
    </clipPath>
    <linearGradient
       id="linearGradient3737">
      <stop
         id="stop3739"
         stop-color="#fff" />
      <stop
         id="stop3741"
         stop-color="#fff"
         stop-opacity="0"
         offset="1" />
    </linearGradient>
    <linearGradient
       id="linearGradient31361"
       gradientUnits="userSpaceOnUse"
       x2="0"
       gradientTransform="matrix(5.5614 0 0 5.5614 -68.443 384.26)"
       y1="90"
       y2="5.988">
      <stop
         id="stop3702"
         stop-color="#2276c5" />
      <stop
         id="stop3704"
         stop-color="#68baf4"
         offset="1" />
    </linearGradient>
    <radialGradient
       id="radialGradient31364"
       cx="48"
       xlink:href="#linearGradient3737"
       gradientUnits="userSpaceOnUse"
       cy="90.17"
       r="42"
       gradientTransform="matrix(6.4363 0 0 5.5387 -110.44 -170.79)" />
    <linearGradient
       id="linearGradient31367"
       xlink:href="#linearGradient3737"
       gradientUnits="userSpaceOnUse"
       x2="0"
       gradientTransform="matrix(5.5614 0 0 5.5614 -68.443 -171.89)"
       y1="6"
       y2="63.893" />
    <linearGradient
       id="linearGradient31370"
       gradientUnits="userSpaceOnUse"
       x2="0"
       gradientTransform="matrix(5.5614 0 0 5.5614 -68.443 -171.89)"
       y1="6"
       y2="90.02">
      <stop
         id="stop3639"
         stop-color="#f0f0f0" />
      <stop
         id="stop3641"
         stop-color="#dcdcdc"
         offset="1" />
    </linearGradient>
    <filter
       id="filter3794"
       width="1.384"
       y="-0.192"
       x="-0.192"
       height="1.384"
       color-interpolation-filters="sRGB">
      <feGaussianBlur
         id="feGaussianBlur3796"
         stdDeviation="5.28" />
    </filter>
    <linearGradient
       id="linearGradient3613"
       y2="138.66"
       gradientUnits="userSpaceOnUse"
       y1="20.221"
       x2="0">
      <stop
         id="stop3739-0"
         stop-color="#fff" />
      <stop
         id="stop3741-6"
         stop-color="#fff"
         stop-opacity="0"
         offset="1" />
    </linearGradient>
    <clipPath
       id="clipPath3613">
      <rect
         id="rect3615"
         rx="6"
         height="84"
         width="84"
         y="6"
         x="6"
         fill="#009688" />
    </clipPath>
    <clipPath
       id="clipPath3613-1">
      <rect
         id="rect3615-2"
         rx="6"
         height="84"
         width="84"
         y="6"
         x="6"
         fill="#009688" />
    </clipPath>
  </defs>
  <path
     id="path30"
     d="m320.11 118.46c-24.139 0-45.694 11.553-59.098 29.37 9.4975 13.076 15.043 29.216 15.043 46.562 0 9.2423-1.7355 17.894-4.6562 26.146 17.212 13.275 32.373 30.337 47.636 46.92 39.139-1.6403 74.499-36.713 74.499-75.932 0-40.268-32.821-73.066-73.425-73.066zm-128.13 1.0297c-40.604 0-73.514 32.642-73.514 72.91s32.91 72.91 73.514 72.91c15.01 0 28.973-4.4747 40.607-12.133l84.931 140.36c11.373-4.9702 28.92-74.5 7.7006-102.12-21.488-34.012-43.092-51.631-64.672-72.843 3.1569-8.1297 4.9696-16.936 4.9696-26.169 0-40.268-32.933-72.91-73.537-72.91zm130.28 43.383c15.731 0 28.295 12.564 28.295 28.295s-12.564 28.654-28.295 28.654-28.654-12.922-28.654-28.654c0-15.731 12.922-28.295 28.654-28.295zm-128.81 1.567c15.829 0 28.609 12.687 28.609 28.385s-12.78 28.363-28.609 28.363-28.833-12.664-28.833-28.363c0-15.698 13.003-28.385 28.833-28.385zm30.489 103.15c-56.324 31.483-33.968 103.62-20.057 125.94l46.786-79.536-26.728-46.405z"
     fill="#009688" />
</svg>
