<?xml version="1.0" encoding="UTF-8" standalone="no"?>
<svg
   xmlns:dc="http://purl.org/dc/elements/1.1/"
   xmlns:cc="http://creativecommons.org/ns#"
   xmlns:rdf="http://www.w3.org/1999/02/22-rdf-syntax-ns#"
   xmlns:svg="http://www.w3.org/2000/svg"
   xmlns="http://www.w3.org/2000/svg"
   xmlns:sodipodi="http://sodipodi.sourceforge.net/DTD/sodipodi-0.dtd"
   xmlns:inkscape="http://www.inkscape.org/namespaces/inkscape"
   viewBox="0 0 512 512"
   id="svg2"
   version="1.1"
   inkscape:version="0.91 r"
   sodipodi:docname="crashplan.svg">
  <metadata
     id="metadata28">
    <rdf:RDF>
      <cc:Work
         rdf:about="">
        <dc:format>image/svg+xml</dc:format>
        <dc:type
           rdf:resource="http://purl.org/dc/dcmitype/StillImage" />
      </cc:Work>
    </rdf:RDF>
  </metadata>
  <defs
     id="defs26" />
  <sodipodi:namedview
     pagecolor="#ffffff"
     bordercolor="#666666"
     borderopacity="1"
     objecttolerance="10"
     gridtolerance="10"
     guidetolerance="10"
     inkscape:pageopacity="0"
     inkscape:pageshadow="2"
     inkscape:window-width="647"
     inkscape:window-height="480"
     id="namedview24"
     showgrid="false"
     inkscape:zoom="0.4609375"
     inkscape:cx="256"
     inkscape:cy="256"
     inkscape:window-x="0"
     inkscape:window-y="0"
     inkscape:window-maximized="0"
     inkscape:current-layer="svg2" />
  <path
     style="fill:#009688;fill-rule:evenodd"
     inkscape:connector-curvature="0"
     id="path22"
     d="m 106.13,217.87 c -10.09,8.911 -13.981,16.619 -7.906,23.06 6.398,6.444 14.03,5.406 19.438,0 l 0,126.78 c 0,5.671 5.583,11.531 11.531,11.531 l 253.59,0 c 5.948,0 11.531,-5.86 11.531,-11.531 l 0,-126.78 c 5.406,5.406 13.03,6.444 19.469,0 6.075,-6.444 2.16,-14.15 -7.938,-23.06 -149.31,-121.69 -0.048,0.151 -149.86,-121.81 -148.22,120.8 -102.34,82.21 -149.86,121.81 m 144.09,11.531 c 7.47,0 13.786,4.869 16.219,11.531 l 13.688,0 c 2.34,-6.755 8.657,-11.531 16.219,-11.531 7.47,0 13.755,4.869 16.188,11.531 l 13.719,0 c 2.34,-6.755 8.626,-11.531 16.188,-11.531 9.279,0 16.924,7.283 17.281,16.563 l 0,0.719 c 0,7.562 -4.745,13.879 -11.5,16.219 l 0,13.688 c 6.444,2.34 11.235,8.295 11.5,15.5 l 0,0.75 c 0,7.516 -4.745,13.816 -11.5,16.16 l 0,13.75 c 6.444,2.294 11.235,8.249 11.5,15.5 l 0,0.719 c 0,9.545 -7.737,17.281 -17.281,17.281 -7.562,0 -13.847,-4.776 -16.188,-11.531 l -13.719,0 c -2.34,6.755 -8.626,11.531 -16.188,11.531 -7.562,0 -13.879,-4.776 -16.219,-11.531 l -13.688,0 c -2.34,6.755 -8.657,11.531 -16.219,11.531 -9.545,0 -17.281,-7.737 -17.281,-17.281 0,-7.562 4.776,-13.879 11.531,-16.219 l 0,-13.688 c -6.755,-2.386 -11.531,-8.657 -11.531,-16.219 0,-7.562 4.776,-13.847 11.531,-16.188 l 0,-13.719 c -6.755,-2.386 -11.531,-8.626 -11.531,-16.188 0,-9.545 7.737,-17.281 17.281,-17.281 z m 16.219,23.06 c -1.706,5 -5.446,8.731 -10.438,10.438 l 0,13.688 c 4.818,1.706 8.685,5.573 10.438,10.438 l 13.688,0 c 1.706,-5 5.446,-8.731 10.438,-10.438 l 0,-13.688 c -5,-1.706 -8.731,-5.446 -10.438,-10.438 z m 46.13,0 c -1.706,5 -5.477,8.731 -10.469,10.438 l 0,13.688 c 4.818,1.706 8.717,5.573 10.469,10.438 l 13.688,0 c 1.706,-5 5.446,-8.731 10.438,-10.438 l 0,-13.688 c -5,-1.706 -8.731,-5.446 -10.438,-10.438 z m -46.12,46.09 c -1.706,5 -5.446,8.731 -10.438,10.438 l 0,13.719 c 4.818,1.706 8.685,5.573 10.438,10.438 l 13.688,0 c 1.706,-5 5.477,-8.731 10.469,-10.438 l 0,-13.719 c -5,-1.706 -8.763,-5.446 -10.469,-10.438 z m 46.13,0 c -1.671,5 -5.445,8.731 -10.344,10.438 l 0,13.719 c 4.818,1.706 8.684,5.573 10.344,10.438 l 13.719,0 c 1.671,-5 5.477,-8.731 10.469,-10.438 l 0,-13.719 c -5.05,-1.706 -8.809,-5.446 -10.469,-10.438 z" />
</svg>
