<?xml version="1.0" encoding="UTF-8" standalone="no"?>
<svg
   xmlns:dc="http://purl.org/dc/elements/1.1/"
   xmlns:cc="http://creativecommons.org/ns#"
   xmlns:rdf="http://www.w3.org/1999/02/22-rdf-syntax-ns#"
   xmlns:svg="http://www.w3.org/2000/svg"
   xmlns="http://www.w3.org/2000/svg"
   xmlns:sodipodi="http://sodipodi.sourceforge.net/DTD/sodipodi-0.dtd"
   xmlns:inkscape="http://www.inkscape.org/namespaces/inkscape"
   height="512"
   viewBox="0 0 512 512"
   width="512"
   version="1.1"
   id="svg2"
   inkscape:version="0.91 r"
   sodipodi:docname="cs-input-method.svg">
  <defs
     id="defs14">
    <clipPath
       id="clipPath-572739784">
      <g
         transform="translate(0,-1004.3622)"
         id="g17">
        <path
           inkscape:connector-curvature="0"
           d="m -24,13 c 0,1.105 -0.672,2 -1.5,2 -0.828,0 -1.5,-0.895 -1.5,-2 0,-1.105 0.672,-2 1.5,-2 0.828,0 1.5,0.895 1.5,2 z"
           transform="matrix(15.333333,0,0,11.5,414.99999,878.8622)"
           style="fill:#1890d0"
           id="path19" />
      </g>
    </clipPath>
  </defs>
  <sodipodi:namedview
     pagecolor="#ffffff"
     bordercolor="#666666"
     borderopacity="1"
     objecttolerance="10"
     gridtolerance="10"
     guidetolerance="10"
     inkscape:pageopacity="0"
     inkscape:pageshadow="2"
     inkscape:window-width="1920"
     inkscape:window-height="1028"
     id="namedview12"
     showgrid="false"
     inkscape:zoom="1.6019608"
     inkscape:cx="-18.233638"
     inkscape:cy="256"
     inkscape:window-x="0"
     inkscape:window-y="0"
     inkscape:window-maximized="1"
     inkscape:current-layer="svg2" />
  <metadata
     id="metadata70">
    <rdf:RDF>
      <cc:Work
         rdf:about="">
        <dc:format>image/svg+xml</dc:format>
        <dc:type
           rdf:resource="http://purl.org/dc/dcmitype/StillImage" />
        <dc:title />
      </cc:Work>
    </rdf:RDF>
  </metadata>
  <g
     transform="matrix(13.227662,0,0,13.513075,-63.40025,-115.10573)"
     id="g81"
     style="fill:#009688;fill-opacity:1">
    <g
       id="g83"
       clip-path="url(#clipPath-572739784)"
       style="fill:#009688;fill-opacity:1">
      <!-- color: #67707b -->
      <g
         id="g85"
         style="fill:#009688;fill-opacity:1">
        <path
           inkscape:connector-curvature="0"
           d="m 8,13.996 2,0 c 0.551,0 1,0.449 1,1 l 0,2 c 0,0.555 -0.449,1 -1,1 l -2,0 c -0.551,0 -1,-0.445 -1,-1 l 0,-2 c 0,-0.551 0.449,-1 1,-1 m 0,0"
           style="fill:#009688;fill-opacity:1;fill-rule:nonzero;stroke:none"
           id="path87" />
        <path
           inkscape:connector-curvature="0"
           d="m 14,13.996 2,0 c 0.551,0 1,0.449 1,1 l 0,2 c 0,0.555 -0.449,1 -1,1 l -2,0 c -0.551,0 -1,-0.445 -1,-1 l 0,-2 c 0,-0.551 0.449,-1 1,-1 m 0,0"
           style="fill:#009688;fill-opacity:1;fill-rule:nonzero;stroke:none"
           id="path89" />
        <path
           inkscape:connector-curvature="0"
           d="m 20,13.996 2,0 c 0.551,0 1,0.449 1,1 l 0,2 c 0,0.555 -0.449,1 -1,1 l -2,0 c -0.551,0 -1,-0.445 -1,-1 l 0,-2 c 0,-0.551 0.449,-1 1,-1 m 0,0"
           style="fill:#009688;fill-opacity:1;fill-rule:nonzero;stroke:none"
           id="path91" />
        <path
           inkscape:connector-curvature="0"
           d="m 26,13.996 2,0 c 0.551,0 1,0.449 1,1 l 0,2 c 0,0.555 -0.449,1 -1,1 l -2,0 c -0.551,0 -1,-0.445 -1,-1 l 0,-2 c 0,-0.551 0.449,-1 1,-1 m 0,0"
           style="fill:#009688;fill-opacity:1;fill-rule:nonzero;stroke:none"
           id="path93" />
        <path
           inkscape:connector-curvature="0"
           d="m 32,13.996 2,0 c 0.551,0 1,0.449 1,1 l 0,2 c 0,0.555 -0.449,1 -1,1 l -2,0 c -0.551,0 -1,-0.445 -1,-1 l 0,-2 c 0,-0.551 0.449,-1 1,-1 m 0,0"
           style="fill:#009688;fill-opacity:1;fill-rule:nonzero;stroke:none"
           id="path95" />
        <path
           inkscape:connector-curvature="0"
           d="m 38,13.996 2,0 c 0.551,0 1,0.449 1,1 l 0,2 c 0,0.555 -0.449,1 -1,1 l -2,0 c -0.551,0 -1,-0.445 -1,-1 l 0,-2 c 0,-0.551 0.449,-1 1,-1 m 0,0"
           style="fill:#009688;fill-opacity:1;fill-rule:nonzero;stroke:none"
           id="path97" />
        <path
           inkscape:connector-curvature="0"
           d="m 8,19.996 2,0 c 0.551,0 1,0.449 1,1 l 0,2 c 0,0.555 -0.449,1 -1,1 l -2,0 c -0.551,0 -1,-0.445 -1,-1 l 0,-2 c 0,-0.551 0.449,-1 1,-1 m 0,0"
           style="fill:#009688;fill-opacity:1;fill-rule:nonzero;stroke:none"
           id="path99" />
        <path
           inkscape:connector-curvature="0"
           d="m 14,19.996 2,0 c 0.551,0 1,0.449 1,1 l 0,2 c 0,0.555 -0.449,1 -1,1 l -2,0 c -0.551,0 -1,-0.445 -1,-1 l 0,-2 c 0,-0.551 0.449,-1 1,-1 m 0,0"
           style="fill:#009688;fill-opacity:1;fill-rule:nonzero;stroke:none"
           id="path101" />
        <path
           inkscape:connector-curvature="0"
           d="m 20,19.996 2,0 c 0.551,0 1,0.449 1,1 l 0,2 c 0,0.555 -0.449,1 -1,1 l -2,0 c -0.551,0 -1,-0.445 -1,-1 l 0,-2 c 0,-0.551 0.449,-1 1,-1 m 0,0"
           style="fill:#009688;fill-opacity:1;fill-rule:nonzero;stroke:none"
           id="path103" />
        <path
           inkscape:connector-curvature="0"
           d="m 26,19.996 2,0 c 0.551,0 1,0.449 1,1 l 0,2 c 0,0.555 -0.449,1 -1,1 l -2,0 c -0.551,0 -1,-0.445 -1,-1 l 0,-2 c 0,-0.551 0.449,-1 1,-1 m 0,0"
           style="fill:#009688;fill-opacity:1;fill-rule:nonzero;stroke:none"
           id="path105" />
        <path
           inkscape:connector-curvature="0"
           d="m 32,19.996 2,0 c 0.551,0 1,0.449 1,1 l 0,2 c 0,0.555 -0.449,1 -1,1 l -2,0 c -0.551,0 -1,-0.445 -1,-1 l 0,-2 c 0,-0.551 0.449,-1 1,-1 m 0,0"
           style="fill:#009688;fill-opacity:1;fill-rule:nonzero;stroke:none"
           id="path107" />
        <path
           inkscape:connector-curvature="0"
           d="m 38,19.996 2,0 c 0.551,0 1,0.449 1,1 l 0,2 c 0,0.555 -0.449,1 -1,1 l -2,0 c -0.551,0 -1,-0.445 -1,-1 l 0,-2 c 0,-0.551 0.449,-1 1,-1 m 0,0"
           style="fill:#009688;fill-opacity:1;fill-rule:nonzero;stroke:none"
           id="path109" />
        <path
           inkscape:connector-curvature="0"
           d="m 8,25.996 2,0 c 0.551,0 1,0.449 1,1 l 0,2 c 0,0.555 -0.449,1 -1,1 l -2,0 c -0.551,0 -1,-0.445 -1,-1 l 0,-2 c 0,-0.551 0.449,-1 1,-1 m 0,0"
           style="fill:#009688;fill-opacity:1;fill-rule:nonzero;stroke:none"
           id="path111" />
        <path
           inkscape:connector-curvature="0"
           d="m 14,25.996 2,0 c 0.551,0 1,0.449 1,1 l 0,2 c 0,0.555 -0.449,1 -1,1 l -2,0 c -0.551,0 -1,-0.445 -1,-1 l 0,-2 c 0,-0.551 0.449,-1 1,-1 m 0,0"
           style="fill:#009688;fill-opacity:1;fill-rule:nonzero;stroke:none"
           id="path113" />
        <path
           inkscape:connector-curvature="0"
           d="m 20,25.996 2,0 c 0.551,0 1,0.449 1,1 l 0,2 c 0,0.555 -0.449,1 -1,1 l -2,0 c -0.551,0 -1,-0.445 -1,-1 l 0,-2 c 0,-0.551 0.449,-1 1,-1 m 0,0"
           style="fill:#009688;fill-opacity:1;fill-rule:nonzero;stroke:none"
           id="path115" />
        <path
           inkscape:connector-curvature="0"
           d="m 26,25.996 2,0 c 0.551,0 1,0.449 1,1 l 0,2 c 0,0.555 -0.449,1 -1,1 l -2,0 c -0.551,0 -1,-0.445 -1,-1 l 0,-2 c 0,-0.551 0.449,-1 1,-1 m 0,0"
           style="fill:#009688;fill-opacity:1;fill-rule:nonzero;stroke:none"
           id="path117" />
        <path
           inkscape:connector-curvature="0"
           d="m 32,25.996 2,0 c 0.551,0 1,0.449 1,1 l 0,2 c 0,0.555 -0.449,1 -1,1 l -2,0 c -0.551,0 -1,-0.445 -1,-1 l 0,-2 c 0,-0.551 0.449,-1 1,-1 m 0,0"
           style="fill:#009688;fill-opacity:1;fill-rule:nonzero;stroke:none"
           id="path119" />
        <path
           inkscape:connector-curvature="0"
           d="m 38,25.996 2,0 c 0.551,0 1,0.449 1,1 l 0,2 c 0,0.555 -0.449,1 -1,1 l -2,0 c -0.551,0 -1,-0.445 -1,-1 l 0,-2 c 0,-0.551 0.449,-1 1,-1 m 0,0"
           style="fill:#009688;fill-opacity:1;fill-rule:nonzero;stroke:none"
           id="path121" />
        <path
           inkscape:connector-curvature="0"
           d="m 14,31.996 20,0 c 0.551,0 1,0.449 1,1 l 0,2 c 0,0.555 -0.449,1 -1,1 l -20,0 c -0.551,0 -1,-0.445 -1,-1 l 0,-2 c 0,-0.551 0.449,-1 1,-1 m 0,0"
           style="fill:#009688;fill-opacity:1;fill-rule:nonzero;stroke:none"
           id="path123" />
      </g>
    </g>
  </g>
</svg>
