<?xml version="1.0" encoding="UTF-8" standalone="no"?>
<svg
   xmlns:dc="http://purl.org/dc/elements/1.1/"
   xmlns:cc="http://creativecommons.org/ns#"
   xmlns:rdf="http://www.w3.org/1999/02/22-rdf-syntax-ns#"
   xmlns:svg="http://www.w3.org/2000/svg"
   xmlns="http://www.w3.org/2000/svg"
   xmlns:sodipodi="http://sodipodi.sourceforge.net/DTD/sodipodi-0.dtd"
   xmlns:inkscape="http://www.inkscape.org/namespaces/inkscape"
   height="512"
   viewBox="0 0 512 512"
   width="512"
   version="1.1"
   id="svg2"
   inkscape:version="0.91 r13725"
   sodipodi:docname="cs-startup-programs.svg">
  <sodipodi:namedview
     pagecolor="#ffffff"
     bordercolor="#666666"
     borderopacity="1"
     objecttolerance="10"
     gridtolerance="10"
     guidetolerance="10"
     inkscape:pageopacity="0"
     inkscape:pageshadow="2"
     inkscape:window-width="1920"
     inkscape:window-height="1021"
     id="namedview15"
     showgrid="false"
     inkscape:zoom="0.8824712"
     inkscape:cx="289.13183"
     inkscape:cy="448.93666"
     inkscape:window-x="0"
     inkscape:window-y="0"
     inkscape:window-maximized="1"
     inkscape:current-layer="svg2" />
  <defs
     id="defs17" />
  <metadata
     id="metadata28">
    <rdf:RDF>
      <cc:Work
         rdf:about="">
        <dc:format>image/svg+xml</dc:format>
        <dc:type
           rdf:resource="http://purl.org/dc/dcmitype/StillImage" />
        <dc:title></dc:title>
      </cc:Work>
    </rdf:RDF>
  </metadata>
  <path
     sodipodi:nodetypes="ccccccccccccccccccccccccccccccsscccsccscccsccccccccscsccccccc"
     id="path12-3"
     style="fill:#009688"
     d="m 160.65002,471.93453 c -21.93253,-9.61657 -28.21516,-13.38954 -28.76467,-17.27298 -0.38805,-2.7306 2.50681,-17.78567 6.42992,-33.45258 9.54857,-38.12913 9.42677,-40.17708 -3.12433,-51.83589 l -10.25671,-9.53158 -35.928228,9.13218 c -33.798132,8.58266 -36.151993,8.89425 -39.712514,5.10711 -5.132609,-5.45268 -25.968952,-58.44143 -25.000218,-63.57406 0.436222,-2.30569 13.026962,-11.57097 28.812841,-21.19886 37.673087,-22.97775 35.339055,-20.34346 33.917111,-38.27358 l -1.201008,-15.12588 c -19.30445,-14.822 -61.970817,-43.50252 -61.970817,-43.50252 0,0 24.144761,-62.05863 27.747783,-63.45223 1.931818,-0.74781 19.309599,2.58612 38.619165,7.40998 l 35.106795,8.76678 11.14897,-11.29625 11.14895,-11.29627 -8.22292,-32.769926 c -4.52078,-18.023604 -7.90569,-35.526 -7.51762,-38.896749 0.626,-5.438517 3.98541,-7.511968 29.93736,-18.493802 16.07762,-6.80383 31.21484,-12.106397 33.64233,-11.786311 2.88074,0.379559 10.78641,11.177289 22.80216,31.132695 10.11224,16.802767 19.7033,31.214856 21.31219,31.996645 1.60889,0.795951 8.29942,1.01122 14.87095,0.478707 l 11.94776,-0.968734 1.4871,-19.241616 c 0.81861,-10.582445 1.49275,-25.280612 1.50126,-32.656614 0.005,-7.378811 1.01406,-14.038181 2.23489,-14.797315 2.0961,-1.305808 173.12625,95.058 179.8111,101.30946 2.59746,2.43316 2.26321,3.75313 -1.96014,7.72157 -6.90578,6.48655 -171.39839,99.50793 -175.95881,99.50793 -5.54331,0 -6.46109,-5.10146 -6.46109,-35.86309 l 0,-28.41061 -16.9557,1.19253 c -34.97083,2.45867 -62.29657,20.4766 -77.10236,50.84734 -7.17773,14.70948 -7.65643,17.2418 -7.65643,40.47731 0,22.39426 0.63448,26.09074 6.56587,38.26511 9.03871,18.55326 24.32321,33.65083 43.1881,42.65837 14.41491,6.88312 17.67519,7.50911 39.11203,7.50911 20.4766,0 25.04836,-0.78461 36.75816,-6.31661 27.51837,-13.00146 48.46518,-41.02966 52.2778,-69.91046 0.90925,-6.91429 3.03366,-13.10627 4.71622,-13.75776 1.68536,-0.65149 17.58454,2.2179 35.33621,6.3761 31.18652,7.30518 33.40159,8.24276 65.86841,27.83277 18.47683,11.14897 34.07575,21.56993 34.69041,23.15334 0.60334,1.58339 -4.51794,16.99538 -11.38691,34.24569 -11.19994,28.16416 -13.09777,31.44145 -18.55043,32.08443 -3.34244,0.39091 -20.70605,-3.0195 -38.58519,-7.5771 l -32.50933,-8.28809 -11.33024,11.35859 -11.33026,11.35858 8.64217,35.74411 c 4.75303,19.65799 8.10111,37.16323 7.44395,38.88826 -1.43327,3.76731 -56.14422,27.40221 -63.43241,27.40221 -4.0534,0 -8.91973,-6.42141 -23.66889,-31.24316 l -18.56746,-31.24318 -15.41764,-0.68831 c -18.17938,-0.81294 -15.66974,-3.07333 -38.19145,34.42697 -13.49432,22.47073 -17.62422,27.64581 -22.39424,28.07069 -3.21495,0.28611 -18.47399,-5.01929 -33.90861,-11.78629 z"
     inkscape:connector-curvature="0" />
</svg>
