<?xml version="1.0" encoding="UTF-8" standalone="no"?>
<svg
   xmlns:dc="http://purl.org/dc/elements/1.1/"
   xmlns:cc="http://creativecommons.org/ns#"
   xmlns:rdf="http://www.w3.org/1999/02/22-rdf-syntax-ns#"
   xmlns:svg="http://www.w3.org/2000/svg"
   xmlns="http://www.w3.org/2000/svg"
   xmlns:sodipodi="http://sodipodi.sourceforge.net/DTD/sodipodi-0.dtd"
   xmlns:inkscape="http://www.inkscape.org/namespaces/inkscape"
   height="512"
   viewBox="0 0 512 512"
   width="512"
   version="1.1"
   id="svg2"
   inkscape:version="0.91 r"
   sodipodi:docname="cxmenu-cxoffice-0-cxreset.svg">
  <defs
     id="defs16" />
  <sodipodi:namedview
     pagecolor="#ffffff"
     bordercolor="#666666"
     borderopacity="1"
     objecttolerance="10"
     gridtolerance="10"
     guidetolerance="10"
     inkscape:pageopacity="0"
     inkscape:pageshadow="2"
     inkscape:window-width="640"
     inkscape:window-height="480"
     id="namedview14"
     showgrid="false"
     inkscape:zoom="0.4609375"
     inkscape:cx="256"
     inkscape:cy="256"
     inkscape:window-x="0"
     inkscape:window-y="0"
     inkscape:window-maximized="0"
     inkscape:current-layer="svg2" />
  <metadata
     id="metadata72">
    <rdf:RDF>
      <cc:Work
         rdf:about="">
        <dc:format>image/svg+xml</dc:format>
        <dc:type
           rdf:resource="http://purl.org/dc/dcmitype/StillImage" />
      </cc:Work>
    </rdf:RDF>
  </metadata>
  <path
     id="path66"
     fill="#009688"
     d="m271.84 74.22c10.154 19.1 18.652 37.21 25.5 54.41 5.755 0.305 11.631 0.69 17.656 1.156-12.741-17.586-27.13-36.08-43.16-55.56m-6.156 63.53c-2.57 0.002-5.125 0.02-7.625 0.063-1.972 0.033-3.915 0.067-5.844 0.125-0.269 0.008-0.545 0.023-0.813 0.031-4.286 0.137-8.461 0.332-12.531 0.594-0.706 0.045-1.394 0.107-2.094 0.156-0.551 0.039-1.11 0.084-1.656 0.125-3.141 0.235-6.21 0.501-9.219 0.813-1.405 0.145-2.781 0.307-4.156 0.469-0.508 0.06-1.027 0.125-1.531 0.188-3.502 0.431-6.937 0.928-10.25 1.469-0.164 0.027-0.336 0.035-0.5 0.063-1.376 0.228-2.719 0.472-4.063 0.719-1.285 0.236-2.558 0.465-3.813 0.719-0.363 0.073-0.733 0.144-1.094 0.219-1.149 0.238-2.283 0.497-3.406 0.75-0.631 0.142-1.252 0.291-1.875 0.438-0.659 0.155-1.319 0.308-1.969 0.469-0.855 0.211-1.692 0.436-2.531 0.656-0.679 0.178-1.363 0.347-2.031 0.531-0.237 0.065-0.483 0.121-0.719 0.188-1.139 0.319-2.266 0.664-3.375 1-1.43 0.434-2.838 0.881-4.219 1.344-0.08 0.027-0.17 0.035-0.25 0.063-1.312 0.442-2.609 0.907-3.875 1.375-0.581 0.215-1.147 0.436-1.719 0.656-0.828 0.319-1.66 0.638-2.469 0.969-0.124 0.051-0.251 0.105-0.375 0.156-0.878 0.363-1.74 0.749-2.594 1.125-0.865 0.382-1.722 0.761-2.563 1.156-0.554 0.261-1.113 0.514-1.656 0.781-0.593 0.291-1.17 0.608-1.75 0.906-0.224 0.115-0.465 0.227-0.688 0.344-0.714 0.374-1.431 0.771-2.125 1.156-1 0.557-1.975 1.107-2.938 1.688-0.26 0.156-0.525 0.311-0.781 0.469-0.928 0.572-1.829 1.187-2.719 1.781-0.112 0.075-0.232 0.143-0.344 0.219-1.01 0.682-2.01 1.382-2.969 2.094-0.257 0.191-0.496 0.401-0.75 0.594-0.645 0.49-1.285 0.965-1.906 1.469-0.392 0.318-0.774 0.646-1.156 0.969-0.625 0.527-1.244 1.052-1.844 1.594-0.104 0.094-0.209 0.187-0.313 0.281-1.504 1.375-2.936 2.815-4.281 4.281-0.436 0.475-0.862 0.953-1.281 1.438-0.082 0.095-0.168 0.186-0.25 0.281-0.528 0.618-1.03 1.242-1.531 1.875-0.645 0.814-1.275 1.629-1.875 2.469-0.025 0.036-0.068 0.058-0.094 0.094-0.656 0.921-1.272 1.86-1.875 2.813-0.287 0.453-0.538 0.915-0.813 1.375-0.241 0.404-0.487 0.81-0.719 1.219-0.251 0.443-0.479 0.895-0.719 1.344-0.357 0.668-0.729 1.318-1.063 2-0.084 0.171-0.137 0.359-0.219 0.531-0.398 0.834-0.794 1.676-1.156 2.531-0.109 0.257-0.207 0.522-0.313 0.781-0.265 0.65-0.536 1.307-0.781 1.969-0.172 0.465-0.338 0.935-0.5 1.406-0.055 0.159-0.134 0.309-0.188 0.469-0.264 0.785-0.514 1.574-0.75 2.375-1.01 3.42-1.746 6.976-2.25 10.688-0.007 0.051 0.007 0.105 0 0.156-0.129 0.968-0.249 1.95-0.344 2.938-0.062 0.641-0.14 1.288-0.188 1.938-0.044 0.6-0.062 1.206-0.094 1.813-0.023 0.437-0.046 0.872-0.063 1.313-0.187 5.04 0.04 10.321 0.688 15.844 0.018 0.155 0.044 0.313 0.063 0.469 0.148 1.223 0.311 2.441 0.5 3.688 0.052 0.341 0.101 0.688 0.156 1.031 0.167 1.043 0.336 2.097 0.531 3.156 0.067 0.364 0.149 0.728 0.219 1.094 0.235 1.224 0.478 2.473 0.75 3.719 0.05 0.228 0.105 0.458 0.156 0.688 0.3 1.343 0.626 2.695 0.969 4.063 0.013 0.052 0.018 0.104 0.031 0.156 0.633 2.516 1.346 5.056 2.125 7.656 0.441 1.475 0.918 2.967 1.406 4.469 0.229 0.705 0.448 1.414 0.688 2.125 0.029 0.085 0.065 0.165 0.094 0.25 0.499 1.474 1.02 2.938 1.563 4.438 0.343 0.947 0.702 1.918 1.063 2.875 0.216 0.574 0.434 1.141 0.656 1.719 0.267 0.693 0.536 1.395 0.813 2.094 1.115 2.819 2.299 5.689 3.563 8.594 0.2 0.459 0.39 0.914 0.594 1.375 1.588 3.602 3.279 7.267 5.094 11 7.147 14.707 16.06 30.417 26.719 47.16 10.04-1.637 19.515-3.579 28.406-5.813-3.658-14.764-5.796-28.66-6.438-41.688-0.069-1.397-0.122-2.779-0.156-4.156-0.025-1-0.056-2.01-0.063-3-0.003-0.416-0.001-0.836 0-1.25 0.002-1.331 0.027-2.626 0.063-3.938 0.001-0.021-0.001-0.042 0-0.063 0.037-1.349 0.084-2.702 0.156-4.03 0.098-1.814 0.242-3.599 0.406-5.375 0.68-7.354 1.94-14.391 3.75-21.09 0.507-1.878 1.029-3.736 1.625-5.563 0.601-1.844 1.246-3.645 1.938-5.438 0.04-0.105 0.084-0.208 0.125-0.313 0.254-0.651 0.516-1.293 0.781-1.938 0.167-0.405 0.328-0.816 0.5-1.219 0.466-1.091 0.968-2.179 1.469-3.25 0.819-1.753 1.681-3.488 2.594-5.188 0.804-1.497 1.655-2.983 2.531-4.438 0.169-0.28 0.329-0.565 0.5-0.844 1.096-1.781 2.263-3.533 3.469-5.25 1.214-1.729 2.488-3.429 3.813-5.094 0.051-0.064 0.105-0.124 0.156-0.188 0.543-0.679 1.094-1.363 1.656-2.031 2.756-3.279 5.735-6.447 8.938-9.469 0.021-0.02 0.041-0.042 0.063-0.063 0.789-0.743 1.59-1.46 2.406-2.188 0.82-0.732 1.652-1.44 2.5-2.156 0.971-0.82 1.962-1.638 2.969-2.438 0.579-0.459 1.159-0.922 1.75-1.375 0.402-0.308 0.811-0.601 1.219-0.906 0.558-0.418 1.119-0.838 1.688-1.25 0.84-0.608 1.7-1.217 2.563-1.813 0.188-0.13 0.374-0.277 0.563-0.406 4.247-2.9 8.777-5.63 13.563-8.219 1.643-0.889 3.325-1.773 5.03-2.625 0.465-0.232 0.936-0.458 1.406-0.688 0.652-0.318 1.308-0.625 1.969-0.938 1.111-0.526 2.207-1.051 3.344-1.563 0.03-0.013 0.064-0.018 0.094-0.031 3.868-1.738 7.898-3.403 12.06-4.969 0.407-0.153 0.809-0.317 1.219-0.469 2.733-1.01 5.547-1.97 8.406-2.906 1.584-0.519 3.19-1.035 4.813-1.531 1.357-0.415 2.741-0.819 4.125-1.219 6.192-1.788 12.641-3.432 19.375-4.906 0.003 0.01-0.003 0.022 0 0.031 1.604-0.351 3.24-0.698 4.875-1.031 6.911-1.409 14.1-2.69 21.563-3.781 0.833-0.122 1.692-0.226 2.531-0.344 9.927-1.393 20.335-2.537 31.22-3.375 1.44-0.111 2.887-0.211 4.344-0.313 1.976-0.137 3.962-0.256 5.969-0.375 3.01-0.179 6.077-0.33 9.156-0.469 2.244-0.101 4.501-0.201 6.781-0.281-6.235-1.037-12.345-2.02-18.375-2.938-0.557-0.085-1.101-0.166-1.656-0.25-5.466-0.824-10.829-1.588-16.12-2.313-1.072-0.147-2.122-0.295-3.188-0.438-1.842-0.247-3.648-0.484-5.469-0.719-1.314-0.169-2.603-0.337-3.906-0.5-1.543-0.193-3.066-0.378-4.594-0.563-5.615-0.677-11.12-1.286-16.531-1.844-15.989-1.65-31.09-2.764-45.28-3.375-0.684-0.029-1.351-0.066-2.031-0.094-5.707-0.228-11.245-0.379-16.656-0.438-2.01-0.024-3.998-0.033-5.969-0.031m74.938 29.594c-10.142 1.656-19.706 3.613-28.688 5.875 4.149 16.702 6.367 32.28 6.656 46.75 0.026 1.285 0.036 2.577 0.031 3.844v0.281c-0.006 1.1-0.033 2.194-0.063 3.281-0.03 1.106-0.072 2.189-0.125 3.281-0.004 0.073 0.004 0.146 0 0.219-0.003 0.052 0.003 0.104 0 0.156-0.057 1.111-0.137 2.215-0.219 3.313-0.067 0.898-0.135 1.799-0.219 2.688-0.059 0.629-0.12 1.251-0.188 1.875-0.039 0.364-0.083 0.731-0.125 1.094-0.045 0.385-0.108 0.773-0.156 1.156-0.111 0.89-0.215 1.776-0.344 2.656-0.033 0.227-0.059 0.461-0.094 0.688-0.059 0.389-0.125 0.77-0.188 1.156-0.467 2.903-1.03 5.738-1.688 8.531-0.185 0.784-0.394 1.568-0.594 2.344-0.069 0.268-0.117 0.546-0.188 0.813-0.101 0.383-0.207 0.775-0.313 1.156-0.179 0.648-0.373 1.295-0.563 1.938-0.154 0.523-0.307 1.043-0.469 1.563-0.154 0.493-0.309 0.979-0.469 1.469-0.044 0.134-0.081 0.272-0.125 0.406-0.288 0.871-0.598 1.734-0.906 2.594-0.356 0.992-0.741 1.992-1.125 2.969-0.767 1.954-1.593 3.859-2.469 5.75-0.438 0.945-0.879 1.883-1.344 2.813s-0.946 1.867-1.438 2.781c-0.412 0.766-0.819 1.526-1.25 2.281-0.083 0.146-0.166 0.292-0.25 0.438-0.267 0.463-0.538 0.916-0.813 1.375-0.258 0.431-0.517 0.854-0.781 1.281-0.099 0.16-0.213 0.31-0.313 0.469-0.451 0.721-0.905 1.445-1.375 2.156-0.461 0.699-0.927 1.405-1.406 2.094-0.115 0.166-0.227 0.335-0.344 0.5-0.57 0.809-1.156 1.611-1.75 2.406-0.031 0.042-0.062 0.083-0.094 0.125-0.04 0.053-0.085 0.103-0.125 0.156-1.218 1.617-2.493 3.192-3.813 4.75-0.681 0.805-1.385 1.617-2.094 2.406-0.708 0.789-1.421 1.57-2.156 2.344-1.471 1.547-2.983 3.047-4.563 4.531-0.641 0.603-1.279 1.22-1.938 1.813-0.154 0.138-0.314 0.269-0.469 0.406-1.633 1.453-3.321 2.859-5.063 4.25-0.086 0.069-0.163 0.15-0.25 0.219-0.787 0.625-1.597 1.231-2.406 1.844-0.898 0.68-1.825 1.367-2.75 2.031-4.625 3.321-9.573 6.445-14.875 9.375-1.06 0.586-2.131 1.148-3.219 1.719-1.087 0.57-2.198 1.164-3.313 1.719-1.114 0.555-2.233 1.086-3.375 1.625-0.439 0.207-0.869 0.42-1.313 0.625-0.713 0.33-1.433 0.645-2.156 0.969-1.169 0.523-2.367 1.055-3.563 1.563-0.793 0.337-1.57 0.67-2.375 1-0.416 0.171-0.83 0.331-1.25 0.5-3.668 1.477-7.463 2.883-11.375 4.219-0.117 0.04-0.227 0.085-0.344 0.125-1.191 0.405-2.38 0.796-3.594 1.188-1.331 0.43-2.673 0.836-4.03 1.25-1.358 0.414-2.74 0.82-4.125 1.219v0.031c-13.814 3.974-28.962 7.175-45.47 9.594-0.008-0.012-0.023-0.019-0.031-0.031-4.606 0.675-9.311 1.29-14.12 1.844-7.22 0.83-14.684 1.536-22.375 2.094-7.691 0.557-15.615 0.964-23.781 1.25 0.053 0.009 0.103 0.022 0.156 0.031-0.052 0.002-0.104-0.002-0.156 0 6.248 1.039 12.366 1.987 18.406 2.906 2.901 0.442 5.772 0.867 8.625 1.281 0.208 0.03 0.417 0.064 0.625 0.094 11.763 1.701 23.15 3.176 34.09 4.406 0.351 0.039 0.713 0.086 1.063 0.125 2.395 0.266 4.769 0.506 7.125 0.75 15.881 1.643 30.868 2.791 44.969 3.406 0.221 0.01 0.436 0.022 0.656 0.031 5.138 0.219 10.162 0.356 15.06 0.438 1.915 0.032 3.809 0.051 5.688 0.063 1.057 0.006 2.111 0.032 3.156 0.031 2.052-0.001 4.085-0.036 6.094-0.063 1.487-0.019 2.943-0.029 4.406-0.063 0.402-0.009 0.787-0.021 1.188-0.031 1.099-0.028 2.196-0.058 3.281-0.094 1.791-0.059 3.559-0.138 5.313-0.219 2.292-0.106 4.553-0.232 6.781-0.375 2.224-0.143 4.434-0.289 6.594-0.469 1.882-0.157 3.729-0.315 5.563-0.5 0.286-0.029 0.559-0.064 0.844-0.094 1.955-0.202 3.882-0.422 5.781-0.656 0.148-0.018 0.29-0.044 0.438-0.063 0.846-0.106 1.666-0.232 2.5-0.344 3.186-0.428 6.319-0.885 9.344-1.406 0.117-0.02 0.227-0.042 0.344-0.063 5.609-0.976 10.918-2.109 15.969-3.406 1.72-0.442 3.407-0.896 5.063-1.375 1.37-0.397 2.706-0.828 4.03-1.25 0.279-0.089 0.566-0.16 0.844-0.25 0.606-0.197 1.185-0.392 1.781-0.594 0.33-0.112 0.641-0.23 0.969-0.344 1.067-0.37 2.12-0.737 3.156-1.125 0.252-0.094 0.5-0.186 0.75-0.281 0.836-0.318 1.653-0.639 2.469-0.969 0.211-0.085 0.416-0.164 0.625-0.25 2.696-1.107 5.277-2.296 7.75-3.531 0.135-0.067 0.272-0.12 0.406-0.188 1.192-0.602 2.36-1.212 3.5-1.844 0.211-0.117 0.416-0.226 0.625-0.344 1.045-0.59 2.062-1.197 3.063-1.813 1.204-0.741 2.361-1.503 3.5-2.281 0.334-0.228 0.671-0.456 1-0.688 0.232-0.164 0.458-0.335 0.688-0.5 0.547-0.394 1.094-0.784 1.625-1.188 0.541-0.41 1.069-0.83 1.594-1.25 0.409-0.328 0.819-0.635 1.219-0.969 0.108-0.09 0.205-0.191 0.313-0.281 0.43-0.363 0.863-0.724 1.281-1.094 0.073-0.065 0.146-0.123 0.219-0.188 0.082-0.073 0.168-0.145 0.25-0.219 0.893-0.803 1.724-1.634 2.563-2.469 0.901-0.897 1.787-1.817 2.625-2.75 0.049-0.055 0.107-0.102 0.156-0.156 0.375-0.42 0.732-0.854 1.094-1.281 0.071-0.084 0.148-0.166 0.219-0.25 0.34-0.406 0.672-0.807 1-1.219 0.387-0.486 0.754-0.974 1.125-1.469 0.11-0.146 0.235-0.29 0.344-0.438 0.265-0.36 0.524-0.729 0.781-1.094 0.126-0.179 0.251-0.351 0.375-0.531 0.226-0.329 0.437-0.668 0.656-1 0.146-0.22 0.295-0.434 0.438-0.656 0.191-0.297 0.377-0.606 0.563-0.906 0.162-0.262 0.342-0.517 0.5-0.781 0.161-0.269 0.312-0.541 0.469-0.813 0.173-0.299 0.332-0.605 0.5-0.906 0.133-0.24 0.276-0.477 0.406-0.719 0.184-0.341 0.354-0.687 0.531-1.031 0.107-0.207 0.208-0.417 0.313-0.625 0.191-0.381 0.379-0.77 0.563-1.156 0.085-0.178 0.167-0.352 0.25-0.531 0.266-0.574 0.532-1.136 0.781-1.719 0.198-0.462 0.406-0.907 0.594-1.375 0.045-0.113 0.08-0.23 0.125-0.344 0.077-0.195 0.144-0.398 0.219-0.594 0.151-0.394 0.294-0.789 0.438-1.188 0.199-0.553 0.409-1.096 0.594-1.656 0.013-0.041 0.018-0.084 0.031-0.125 0.198-0.602 0.381-1.201 0.563-1.813 0.365-1.23 0.7-2.483 1-3.75 0.018-0.075 0.045-0.144 0.063-0.219 0.127-0.547 0.228-1.102 0.344-1.656 0.134-0.642 0.258-1.286 0.375-1.938 0.03-0.165 0.065-0.334 0.094-0.5 0.084-0.486 0.175-0.977 0.25-1.469 0.032-0.206 0.064-0.418 0.094-0.625 0.161-1.111 0.291-2.238 0.406-3.375 0.103-1.012 0.183-2.06 0.25-3.094 0.066-1.031 0.126-2.073 0.156-3.125 0.002-0.072-0.002-0.147 0-0.219 0.035-1.329 0.023-2.7 0-4.063-0.024-1.452-0.067-2.916-0.156-4.406-0.165-2.763-0.455-5.576-0.844-8.469-0.029-0.219-0.032-0.437-0.063-0.656-0.009-0.062-0.022-0.125-0.031-0.188-0.21-1.485-0.45-3.01-0.719-4.531-0.031-0.174-0.062-0.356-0.094-0.531-0.257-1.422-0.536-2.861-0.844-4.313-0.059-0.278-0.127-0.564-0.188-0.844-0.293-1.344-0.632-2.724-0.969-4.094-0.325-1.321-0.666-2.656-1.031-4-0.096-0.355-0.182-0.706-0.281-1.063-0.051-0.184-0.104-0.378-0.156-0.563-0.363-1.288-0.757-2.597-1.156-3.906-0.073-0.239-0.145-0.479-0.219-0.719-0.029-0.093-0.065-0.188-0.094-0.281-0.393-1.262-0.824-2.531-1.25-3.813-0.131-0.393-0.241-0.793-0.375-1.188-0.258-0.762-0.542-1.544-0.813-2.313-0.026-0.073-0.068-0.145-0.094-0.219-0.622-1.762-1.254-3.546-1.938-5.344-0.032-0.083-0.062-0.167-0.094-0.25-0.028-0.073-0.066-0.145-0.094-0.219-0.687-1.796-1.408-3.606-2.156-5.438-0.034-0.082-0.06-0.168-0.094-0.25-0.042-0.102-0.083-0.21-0.125-0.313-0.779-1.895-1.592-3.817-2.438-5.75-0.892-2.041-1.816-4.105-2.781-6.188-7.536-16.26-17.288-33.791-29.28-52.625m-143.44 214.72c12.699 17.621 26.92 36.21 42.969 55.719-10.179-19.15-18.79-37.33-25.688-54.56-5.637-0.302-11.387-0.699-17.281-1.156" />
</svg>
