<?xml version="1.0" encoding="UTF-8" standalone="no"?>
<svg
   xmlns:dc="http://purl.org/dc/elements/1.1/"
   xmlns:cc="http://creativecommons.org/ns#"
   xmlns:rdf="http://www.w3.org/1999/02/22-rdf-syntax-ns#"
   xmlns:svg="http://www.w3.org/2000/svg"
   xmlns="http://www.w3.org/2000/svg"
   xmlns:sodipodi="http://sodipodi.sourceforge.net/DTD/sodipodi-0.dtd"
   xmlns:inkscape="http://www.inkscape.org/namespaces/inkscape"
   height="512"
   viewBox="0 0 512 512"
   width="512"
   version="1.1"
   id="svg2"
   inkscape:version="0.91 r13725"
   sodipodi:docname="datagrip.svg">
  <defs
     id="defs17" />
  <sodipodi:namedview
     pagecolor="#ffffff"
     bordercolor="#666666"
     borderopacity="1"
     objecttolerance="10"
     gridtolerance="10"
     guidetolerance="10"
     inkscape:pageopacity="0"
     inkscape:pageshadow="2"
     inkscape:window-width="1920"
     inkscape:window-height="1023"
     id="namedview15"
     showgrid="false"
     inkscape:zoom="0.4549501"
     inkscape:cx="-232.10828"
     inkscape:cy="861.58346"
     inkscape:window-x="0"
     inkscape:window-y="0"
     inkscape:window-maximized="1"
     inkscape:current-layer="svg2" />
  <metadata
     id="metadata28">
    <rdf:RDF>
      <cc:Work
         rdf:about="">
        <dc:format>image/svg+xml</dc:format>
        <dc:type
           rdf:resource="http://purl.org/dc/dcmitype/StillImage" />
        <dc:title></dc:title>
      </cc:Work>
    </rdf:RDF>
  </metadata>
  <g
     id="g4143"
     transform="matrix(1.7821529,0,0,1.7821529,-96.021314,-140.20567)"
     style="fill:#009688;fill-opacity:1">
    <path
       inkscape:connector-curvature="0"
       style="fill:#009688;fill-opacity:1"
       d="m 110.49577,101.20475 95.52339,0 c 57.13073,0 103.21956,43.28654 103.21956,117.49817 l 0,1.07307 c 0,74.93915 -55.40378,116.60971 -98.16679,117.10329 l -34.34027,0.38628 -66.25134,0 z m 88.33513,193.14769 c 26.58221,0 66.25131,-21.09901 66.25131,-74.57645 l 0,-1.07307 c 0,-52.75077 -39.66247,-74.57647 -66.25131,-74.57647 l -44.16759,0 0,150.22599 z"
       id="path31" />
    <path
       inkscape:connector-curvature="0"
       style="fill:#009688;fill-opacity:1"
       d="m 210.15667,172.3088 c -14.91379,0 -28.18687,4.77639 -37.47756,13.80457 -9.29352,9.02223 -14.20809,21.92549 -14.20809,36.41769 0,14.49312 4.91503,27.39181 14.20527,36.42043 9.28411,9.03138 22.5619,13.80732 37.47474,13.80732 13.64709,0 23.88029,-4.15014 30.50321,-8.48977 6.6233,-4.33961 10.22287,-9.4706 10.22287,-9.4706 l 1.55988,-2.28296 0,-34.54566 -46.9844,0 0,18.26363 28.19064,0 0,9.86328 c -0.58345,0.70004 -0.75908,1.24457 -3.48709,3.03203 -3.94669,2.58431 -10.15803,5.36951 -20.00595,5.36951 -10.92857,0 -18.79375,-3.21439 -24.18757,-8.45606 -5.3938,-5.24167 -8.7015,-12.88499 -8.7015,-23.5053 0,-10.62031 3.3077,-18.26364 8.7015,-23.50531 5.39382,-5.24166 13.259,-8.45606 24.18757,-8.45606 10.92763,0 18.79845,3.21386 24.18945,8.45406 l 13.28812,-12.91331 c -9.28412,-9.03136 -22.56191,-13.80731 -37.47475,-13.80731 z"
       id="path33" />
  </g>
</svg>
