<?xml version="1.0" encoding="UTF-8" standalone="no"?>
<svg
   xmlns:dc="http://purl.org/dc/elements/1.1/"
   xmlns:cc="http://creativecommons.org/ns#"
   xmlns:rdf="http://www.w3.org/1999/02/22-rdf-syntax-ns#"
   xmlns:svg="http://www.w3.org/2000/svg"
   xmlns="http://www.w3.org/2000/svg"
   xmlns:sodipodi="http://sodipodi.sourceforge.net/DTD/sodipodi-0.dtd"
   xmlns:inkscape="http://www.inkscape.org/namespaces/inkscape"
   height="512"
   viewBox="0 0 512 512"
   width="512"
   version="1.1"
   id="svg2"
   inkscape:version="0.91 r"
   sodipodi:docname="debian-plymouth-manager.svg">
  <defs
     id="defs16" />
  <sodipodi:namedview
     pagecolor="#ffffff"
     bordercolor="#666666"
     borderopacity="1"
     objecttolerance="10"
     gridtolerance="10"
     guidetolerance="10"
     inkscape:pageopacity="0"
     inkscape:pageshadow="2"
     inkscape:window-width="647"
     inkscape:window-height="480"
     id="namedview14"
     showgrid="false"
     inkscape:zoom="0.4609375"
     inkscape:cx="256"
     inkscape:cy="256"
     inkscape:window-x="0"
     inkscape:window-y="0"
     inkscape:window-maximized="0"
     inkscape:current-layer="svg2" />
  <metadata
     id="metadata72">
    <rdf:RDF>
      <cc:Work
         rdf:about="">
        <dc:format>image/svg+xml</dc:format>
        <dc:type
           rdf:resource="http://purl.org/dc/dcmitype/StillImage" />
      </cc:Work>
    </rdf:RDF>
  </metadata>
  <path
     id="path66"
     fill="#009688"
     d="m349.14 234.25c0.303 8.151-2.378 12.11-4.804 19.12l-4.362 2.169c-3.566 6.929 0.359 4.399-2.2 9.908-5.573 4.949-16.888 15.481-20.511 16.447-2.648-0.029 1.791-3.124 2.371-4.322-7.452 5.114-5.981 7.678-17.381 10.792l-0.331-0.743c-28.1 13.225-67.14-12.978-66.63-48.725-0.299 2.267-0.849 1.701-1.475 2.611-1.45-18.389 8.495-36.86 25.27-44.41 16.406-8.117 35.639-4.791 47.38 6.17-6.45-8.454-19.301-17.418-34.519-16.588-14.915 0.242-28.872 9.719-33.527 20.01-7.638 4.807-8.528 18.541-11.855 21.06-4.484 32.927 8.424 47.15 30.26 63.883 3.428 2.314 0.966 2.669 1.422 4.43-7.253-3.394-13.893-8.522-19.358-14.8 2.901 4.241 6.03 8.363 10.07 11.602-6.845-2.311-15.984-16.575-18.646-17.15 11.791 21.11 47.831 37.03 66.71 29.13-8.738 0.321-19.833 0.179-29.644-3.448-4.132-2.122-9.729-6.511-8.728-7.331 25.761 9.618 52.37 7.28 74.65-10.583 5.674-4.419 11.868-11.932 13.66-12.03-2.696 4.055 0.465 1.95-1.61 5.529 5.641-9.112-2.459-3.711 5.836-15.734l3.063 4.217c-1.147-7.57 9.395-16.753 8.323-28.716 2.419-3.657 2.696 3.94 0.133 12.354 3.559-9.335 0.939-10.836 1.852-18.541 0.982 2.591 2.287 5.341 2.952 8.08-2.321-9.02 2.372-15.191 3.539-20.437-1.151-0.505-3.58 3.988-4.139-6.666 0.11-4.629 1.294-2.426 1.754-3.566-0.905-0.525-3.289-4.072-4.737-10.876 1.043-1.603 2.807 4.146 4.237 4.379-0.921-5.408-2.503-9.534-2.571-13.687-4.183-8.738-1.48 1.166-4.868-3.751-4.453-13.879 3.691-3.222 4.244-9.524 6.74 9.767 10.583 24.914 12.354 31.19-1.348-7.648-3.526-15.06-6.187-22.23 2.055 0.864-3.303-15.731 2.669-4.74-6.373-23.43-27.25-45.32-46.47-55.59 2.345 2.149 5.31 4.848 4.251 5.273-9.561-5.685-7.881-6.133-9.251-8.536-7.776-3.168-8.296 0.258-13.441 0.009-14.675-7.786-17.502-6.96-31.01-11.831l0.616 2.874c-9.719-3.239-11.326 1.221-21.827 0.009-0.636-0.497 3.367-1.808 6.666-2.284-9.399 1.241-8.96-1.855-18.16 0.336 2.264-1.588 4.666-2.645 7.081-3.995-7.661 0.467-18.299 4.46-15.02 0.82-12.499 5.58-34.701 13.41-47.16 25.09l-0.391-2.618c-5.708 6.852-24.894 20.465-26.422 29.347l-1.528 0.351c-2.966 5.03-4.892 10.728-7.247 15.9-3.883 6.623-5.695 2.551-5.142 3.59-7.641 15.492-11.443 28.507-14.719 39.19 2.335 3.492 0.029 21.02 0.938 35.06-3.833 69.31 48.641 136.59 106 152.13 8.407 3.01 20.907 2.905 31.54 3.202-12.543-3.59-14.163-1.9-26.389-6.16-8.815-4.156-10.745-8.896-16.993-14.318l2.473 4.369c-12.246-4.336-7.121-5.364-17.09-8.519l2.641-3.444c-3.97-0.303-10.515-6.687-12.303-10.232l-4.345 0.179c-5.216-6.43-7.999-11.08-7.793-14.675l-1.404 2.503c-1.588-2.729-19.2-24.15-10.06-19.16-1.697-1.546-3.954-2.52-6.4-6.97l1.859-2.123c-4.389-5.658-8.09-12.907-7.807-15.322 2.345 3.164 3.971 3.758 5.583 4.301-11.1-27.543-11.727-1.515-20.13-28.04l1.775-0.146c-1.359-2.061-2.193-4.284-3.286-6.474l0.774-7.709c-7.989-9.23-2.233-39.29-1.075-55.766 0.789-6.7 6.67-13.835 11.133-25.03l-2.719-0.467c5.202-9.07 29.695-36.432 41.04-35.03 5.496-6.902-1.091-0.009-2.169-1.761 12.07-12.492 15.87-8.825 24.02-11.08 8.781-5.212-7.54 2.038-3.377-1.987 15.192-3.876 10.762-8.819 30.575-10.785 2.091 1.189-4.848 1.835-6.589 3.377 12.651-6.194 40.04-4.78 57.84 3.434 20.636 9.652 43.837 38.17 44.755 65l1.043 0.283c-0.527 10.667 1.633 23-2.115 34.33l2.534-5.367" />
</svg>
