<?xml version="1.0" encoding="UTF-8" standalone="no"?>
<svg
   xmlns:dc="http://purl.org/dc/elements/1.1/"
   xmlns:cc="http://creativecommons.org/ns#"
   xmlns:rdf="http://www.w3.org/1999/02/22-rdf-syntax-ns#"
   xmlns:svg="http://www.w3.org/2000/svg"
   xmlns="http://www.w3.org/2000/svg"
   xmlns:xlink="http://www.w3.org/1999/xlink"
   xmlns:sodipodi="http://sodipodi.sourceforge.net/DTD/sodipodi-0.dtd"
   xmlns:inkscape="http://www.inkscape.org/namespaces/inkscape"
   height="512"
   viewBox="0 0 512 512"
   width="512"
   version="1.1"
   id="svg2"
   inkscape:version="0.91 r"
   sodipodi:docname="decibel.svg">
  <sodipodi:namedview
     pagecolor="#ffffff"
     bordercolor="#666666"
     borderopacity="1"
     objecttolerance="10"
     gridtolerance="10"
     guidetolerance="10"
     inkscape:pageopacity="0"
     inkscape:pageshadow="2"
     inkscape:window-width="647"
     inkscape:window-height="480"
     id="namedview49"
     showgrid="false"
     inkscape:zoom="0.4609375"
     inkscape:cx="263.59322"
     inkscape:cy="256"
     inkscape:window-x="0"
     inkscape:window-y="0"
     inkscape:window-maximized="0"
     inkscape:current-layer="svg2" />
  <metadata
     id="metadata70">
    <rdf:RDF>
      <cc:Work
         rdf:about="">
        <dc:format>image/svg+xml</dc:format>
        <dc:type
           rdf:resource="http://purl.org/dc/dcmitype/StillImage" />
      </cc:Work>
    </rdf:RDF>
  </metadata>
  <defs
     id="defs68">
    <linearGradient
       id="ButtonShadow"
       gradientUnits="userSpaceOnUse"
       y1="92.54"
       gradientTransform="scale(1.0059 .99417)"
       x2="0"
       y2="7.02">
      <stop
         id="stop3750-1" />
      <stop
         id="stop3752-6"
         stop-opacity="0.588"
         offset="1" />
    </linearGradient>
    <filter
       id="filter3174"
       color-interpolation-filters="sRGB">
      <feGaussianBlur
         id="feGaussianBlur3176"
         stdDeviation="1.71" />
    </filter>
    <radialGradient
       id="radialGradient21305"
       gradientUnits="userSpaceOnUse"
       cy="64"
       cx="64"
       r="64">
      <stop
         id="stop4218-0"
         stop-color="#fff" />
      <stop
         id="stop4220-2"
         stop-color="#e8e8e8"
         offset="0.688" />
      <stop
         id="stop4222-6"
         stop-color="#686868"
         offset="0.875" />
      <stop
         id="stop4224-6"
         offset="1" />
    </radialGradient>
    <filter
       id="filter3657"
       color-interpolation-filters="sRGB">
      <feGaussianBlur
         id="feGaussianBlur3659"
         stdDeviation="1.14" />
    </filter>
    <clipPath
       id="clipPath3649">
      <rect
         id="rect3651"
         rx="4"
         height="76"
         width="76"
         y="10"
         x="10"
         fill="#009688" />
    </clipPath>
    <clipPath
       id="clipPath3625">
      <path
         id="path3627"
         d="m0 0v96h96v-96h-96zm12 6h72c3.324 0 6 2.676 6 6v72c0 3.324-2.676 6-6 6h-72c-3.324 0-6-2.676-6-6v-72c0-3.324 2.676-6 6-6z" />
    </clipPath>
    <linearGradient
       id="linearGradient3737">
      <stop
         id="stop3739"
         stop-color="#fff" />
      <stop
         id="stop3741"
         stop-color="#fff"
         stop-opacity="0"
         offset="1" />
    </linearGradient>
    <linearGradient
       id="linearGradient31361"
       gradientUnits="userSpaceOnUse"
       x2="0"
       gradientTransform="matrix(5.5614 0 0 5.5614 -68.443 384.26)"
       y1="90"
       y2="5.988">
      <stop
         id="stop3702"
         stop-color="#2276c5" />
      <stop
         id="stop3704"
         stop-color="#68baf4"
         offset="1" />
    </linearGradient>
    <radialGradient
       id="radialGradient31364"
       cx="48"
       xlink:href="#linearGradient3737"
       gradientUnits="userSpaceOnUse"
       cy="90.17"
       r="42"
       gradientTransform="matrix(6.4363 0 0 5.5387 -110.44 -170.79)" />
    <linearGradient
       id="linearGradient31367"
       xlink:href="#linearGradient3737"
       gradientUnits="userSpaceOnUse"
       x2="0"
       gradientTransform="matrix(5.5614 0 0 5.5614 -68.443 -171.89)"
       y1="6"
       y2="63.893" />
    <linearGradient
       id="linearGradient31370"
       gradientUnits="userSpaceOnUse"
       x2="0"
       gradientTransform="matrix(5.5614 0 0 5.5614 -68.443 -171.89)"
       y1="6"
       y2="90.02">
      <stop
         id="stop3639"
         stop-color="#f0f0f0" />
      <stop
         id="stop3641"
         stop-color="#dcdcdc"
         offset="1" />
    </linearGradient>
    <filter
       id="filter3794"
       width="1.384"
       y="-0.192"
       x="-0.192"
       height="1.384"
       color-interpolation-filters="sRGB">
      <feGaussianBlur
         id="feGaussianBlur3796"
         stdDeviation="5.28" />
    </filter>
    <linearGradient
       id="linearGradient3613"
       y2="138.66"
       gradientUnits="userSpaceOnUse"
       y1="20.221"
       x2="0">
      <stop
         id="stop3739-0"
         stop-color="#fff" />
      <stop
         id="stop3741-6"
         stop-color="#fff"
         stop-opacity="0"
         offset="1" />
    </linearGradient>
    <clipPath
       id="clipPath3613">
      <rect
         id="rect3615"
         rx="6"
         height="84"
         width="84"
         y="6"
         x="6"
         fill="#009688" />
    </clipPath>
    <clipPath
       id="clipPath3613-1">
      <rect
         id="rect3615-2"
         rx="6"
         height="84"
         width="84"
         y="6"
         x="6"
         fill="#009688" />
    </clipPath>
  </defs>
  <path
     id="path3065"
     d="m241.17 93.528c-18.113 0.51645-36.246 12.113-50.23 27.36-30.801 34.527-44.458 89.356-51.533 117.73-10.967 46.13-13.652 89.347-9.0647 120.89 7.1591 44.873 41.379 61.701 63.758 58.629 213.08-67.079 258.73-123.15 74.929-315.21-8.8923-6.8935-18.371-9.6678-27.859-9.3973zm-2.8552 27.471c0.54011 0.002 1.0742 0.0738 1.5801 0.19404 4.0484 0.96245 7.411 6.1882 9.0646 9.231 4.0065 7.3632 6.9999 18.061 8.6766 30.936 3.7536 28.808 0.88576 65.535-8.1222 103.43-9.0085 37.893-22.964 71.989-39.28 96.024-7.2936 10.744-14.813 18.984-21.705 23.757-2.8455 1.9704-8.1764 5.1205-12.225 4.1581-4.0492-0.96265-7.4407-6.1914-9.0924-9.231-4.0056-7.363-7.001-18.088-8.6766-30.964-3.7541-28.809-0.88493-65.539 8.1222-103.43 9.0079-37.89 22.963-71.989 39.28-96.024 7.2928-10.744 14.784-18.956 21.678-23.729 2.4877-1.7254 6.9194-4.3636 10.7-4.3521zm-18.573 82.33c-1.4573-0.004-3.1713 0.99849-4.1304 1.6632-2.6583 1.839-5.5616 5.0062-8.3716 9.1478-6.2888 9.2631-11.664 22.403-15.135 37.007-3.4716 14.603-4.5795 28.759-3.1324 39.862 0.64569 4.9623 1.8114 9.0822 3.3542 11.92 0.63688 1.1717 1.9316 3.2048 3.4928 3.576 1.562 0.37135 3.6425-0.8485 4.7402-1.6078 2.6574-1.8392 5.5333-5.0073 8.3439-9.1478 6.2881-9.2641 11.664-22.403 15.135-37.007 3.4719-14.604 4.6063-28.759 3.1602-39.862-0.64655-4.9625-1.8114-9.0822-3.3542-11.92-0.6384-1.173-1.9585-3.2046-3.5205-3.576-0.19504-0.0464-0.37395-0.0547-0.58214-0.0554z"
     fill="#009688" />
</svg>
