<?xml version="1.0" encoding="UTF-8" standalone="no"?>
<svg
   xmlns:dc="http://purl.org/dc/elements/1.1/"
   xmlns:cc="http://creativecommons.org/ns#"
   xmlns:rdf="http://www.w3.org/1999/02/22-rdf-syntax-ns#"
   xmlns:svg="http://www.w3.org/2000/svg"
   xmlns="http://www.w3.org/2000/svg"
   xmlns:sodipodi="http://sodipodi.sourceforge.net/DTD/sodipodi-0.dtd"
   xmlns:inkscape="http://www.inkscape.org/namespaces/inkscape"
   sodipodi:docname="deepin-launcher.svg"
   inkscape:version="0.91 r13725"
   id="svg2"
   version="1.1"
   width="512"
   viewBox="0 0 512 512"
   height="512">
  <defs
     id="defs17">
    <filter
       x="-0.5"
       y="-0.5"
       width="2"
       height="2"
       filterUnits="objectBoundingBox"
       id="filter-1">
      <feOffset
         dx="0"
         dy="1"
         in="SourceAlpha"
         result="shadowOffsetOuter1"
         id="feOffset11" />
      <feGaussianBlur
         stdDeviation="0.5"
         in="shadowOffsetOuter1"
         result="shadowBlurOuter1"
         id="feGaussianBlur13" />
      <feColorMatrix
         values="0 0 0 0 0   0 0 0 0 0   0 0 0 0 0  0 0 0 0.3 0"
         type="matrix"
         in="shadowBlurOuter1"
         result="shadowMatrixOuter1"
         id="feColorMatrix15" />
      <feMerge
         id="feMerge17">
        <feMergeNode
           in="shadowMatrixOuter1"
           id="feMergeNode19" />
        <feMergeNode
           in="SourceGraphic"
           id="feMergeNode21" />
      </feMerge>
    </filter>
    <filter
       x="-0.5"
       y="-0.5"
       width="2"
       height="2"
       filterUnits="objectBoundingBox"
       id="filter4196">
      <feOffset
         dx="0"
         dy="1"
         in="SourceAlpha"
         result="shadowOffsetOuter1"
         id="feOffset4198" />
      <feGaussianBlur
         stdDeviation="0.5"
         in="shadowOffsetOuter1"
         result="shadowBlurOuter1"
         id="feGaussianBlur4200" />
      <feColorMatrix
         values="0 0 0 0 0   0 0 0 0 0   0 0 0 0 0  0 0 0 0.3 0"
         type="matrix"
         in="shadowBlurOuter1"
         result="shadowMatrixOuter1"
         id="feColorMatrix4202" />
      <feMerge
         id="feMerge4204">
        <feMergeNode
           in="shadowMatrixOuter1"
           id="feMergeNode4206" />
        <feMergeNode
           in="SourceGraphic"
           id="feMergeNode4208" />
      </feMerge>
    </filter>
    <filter
       x="-0.5"
       y="-0.5"
       width="2"
       height="2"
       filterUnits="objectBoundingBox"
       id="filter4210">
      <feOffset
         dx="0"
         dy="1"
         in="SourceAlpha"
         result="shadowOffsetOuter1"
         id="feOffset4212" />
      <feGaussianBlur
         stdDeviation="0.5"
         in="shadowOffsetOuter1"
         result="shadowBlurOuter1"
         id="feGaussianBlur4214" />
      <feColorMatrix
         values="0 0 0 0 0   0 0 0 0 0   0 0 0 0 0  0 0 0 0.3 0"
         type="matrix"
         in="shadowBlurOuter1"
         result="shadowMatrixOuter1"
         id="feColorMatrix4216" />
      <feMerge
         id="feMerge4218">
        <feMergeNode
           in="shadowMatrixOuter1"
           id="feMergeNode4220" />
        <feMergeNode
           in="SourceGraphic"
           id="feMergeNode4222" />
      </feMerge>
    </filter>
  </defs>
  <sodipodi:namedview
     inkscape:current-layer="svg2"
     inkscape:window-maximized="1"
     inkscape:window-y="0"
     inkscape:window-x="0"
     inkscape:cy="254.06088"
     inkscape:cx="366.99566"
     inkscape:zoom="1.4259111"
     showgrid="false"
     id="namedview15"
     inkscape:window-height="1022"
     inkscape:window-width="1920"
     inkscape:pageshadow="2"
     inkscape:pageopacity="0"
     guidetolerance="10"
     gridtolerance="10"
     objecttolerance="10"
     borderopacity="1"
     bordercolor="#666666"
     pagecolor="#ffffff" />
  <metadata
     id="metadata28">
    <rdf:RDF>
      <cc:Work
         rdf:about="">
        <dc:format>image/svg+xml</dc:format>
        <dc:type
           rdf:resource="http://purl.org/dc/dcmitype/StillImage" />
        <dc:title></dc:title>
      </cc:Work>
    </rdf:RDF>
  </metadata>
  <g
     id="g4498"
     transform="matrix(1.2329988,0,0,1.2329988,-53.793128,-60.003913)">
    <path
       id="path4250"
       d="m 368.96094,180.48242 -0.041,0.0703 -98.27539,-56.74023 c -7.51971,8.4399 -15.31307,18.41714 -19.89062,26.3457 -5.31786,9.2108 -10.33676,18.98245 -14.88868,28.90821 -11.53552,-3.02881 -42.73443,-8.974 -50.82031,12.60937 -11.02721,29.43458 -1.37695,65.22656 -1.37695,65.22656 0,0 -0.13187,2.35802 2.25781,4.28711 3.05977,2.46595 2.95508,-0.084 2.95508,-0.084 0,0 2.2374,-13.76875 8.33594,-32.61719 2.82963,-8.74488 13.56425,-7.30121 21.77343,-4.70703 -4.19718,14.42624 -7.57018,32.73226 -7.80078,43.53711 l 63.17774,36.47656 c 9.24197,-5.60213 23.40783,-17.67544 33.80273,-28.52344 6.35122,5.81228 12.97097,14.38405 6.8125,21.20704 -13.27397,14.7057 -24.08008,23.52929 -24.08008,23.52929 0,0 -2.25923,1.18279 1.40625,2.59961 2.86549,1.10497 4.83985,-0.1875 4.83985,-0.1875 0,0 35.82134,-9.53755 55.79883,-33.80469 14.6488,-17.79425 -6.09945,-41.84075 -14.49024,-50.3164 6.31999,-8.90496 12.27394,-18.13881 17.5918,-27.34961 4.62181,-8.00522 9.35194,-19.7181 12.91211,-30.4668 z"
       style="fill:#009688;fill-rule:evenodd;stroke:none;stroke-width:1"
       inkscape:connector-curvature="0" />
    <path
       id="Combined-Shape"
       d="m 348.45312,79.978516 c -15.56798,0.619035 -41.14284,9.638069 -66.1289,31.859374 l 91.1914,52.64844 c 8.99146,-43.62634 -2.91698,-76.56017 -13.20507,-82.500002 -2.57203,-1.484958 -6.65686,-2.214604 -11.85743,-2.007812 z"
       style="fill:#009688;fill-rule:evenodd;stroke:none;stroke-width:1"
       inkscape:connector-curvature="0" />
    <path
       transform="matrix(-7.0196881,-4.0528189,-4.0528189,7.0196881,507.72326,167.09501)"
       d="M 9.0000002,39 C 5,39 2.5,36 1.5999756,34 c 0,0 4.900027,13 19.4000254,13 C 35.499999,47 40.400023,34 40.400024,34 39.5,36 37,39 33,39 29.270697,39 25.541395,35.520872 25.053718,31 l -1.103209,0 C 23.805587,32.791584 23.236299,36.500951 21,37.997464 18.763701,36.500951 18.194413,32.791584 18.049491,31 l -1.103209,0 c -0.487677,4.520872 -4.216979,8 -7.9462818,8 z"
       id="path33"
       inkscape:connector-curvature="0"
       style="fill:#009688;fill-rule:evenodd;stroke:none;stroke-width:1" />
  </g>
</svg>
