<svg xmlns="http://www.w3.org/2000/svg" width="48" height="48">
<defs>
<defs
     id="defs4">
  </defs>
  <path
     id="path-main"
     d="m 26.461072,2.0000009 c -7.908669,0 -14.365363,6.4690897 -14.365363,14.3777571 0,4.583183 2.177636,8.669988 5.540394,11.303892 l -7.002959,14.414941 c -0.6537314,1.351958 -0.08771,2.977893 1.264251,3.631624 1.351958,0.65373 2.977892,0.08771 3.631623,-1.264251 2.310063,-4.767538 4.617321,-9.536451 6.928592,-14.30339 1.274138,0.372371 2.612214,0.582547 4.003462,0.582547 7.908667,1e-6 14.377757,-6.456695 14.377757,-14.365363 0,-7.9086682 -6.469089,-14.3777571 -14.377757,-14.3777571 z m 0,4.5240357 c 5.462221,4e-7 9.853721,4.3914994 9.853721,9.8537214 -1e-6,5.462222 -4.391499,9.841327 -9.853721,9.841327 -5.462223,1e-6 -9.841327,-4.379104 -9.841327,-9.841327 10e-7,-5.462222 4.379106,-9.8537214 9.841327,-9.8537214 z" />
</defs>

<use id="1" style="fill:#009688" xlink:href="#path-main" />



</svg>
