<?xml version="1.0" encoding="UTF-8" standalone="no"?>
<svg
   xmlns:dc="http://purl.org/dc/elements/1.1/"
   xmlns:cc="http://creativecommons.org/ns#"
   xmlns:rdf="http://www.w3.org/1999/02/22-rdf-syntax-ns#"
   xmlns:svg="http://www.w3.org/2000/svg"
   xmlns="http://www.w3.org/2000/svg"
   xmlns:sodipodi="http://sodipodi.sourceforge.net/DTD/sodipodi-0.dtd"
   xmlns:inkscape="http://www.inkscape.org/namespaces/inkscape"
   height="512"
   viewBox="0 0 512 512"
   width="512"
   version="1.1"
   id="svg2"
   inkscape:version="0.91 r"
   sodipodi:docname="digikam.svg">
  <defs
     id="defs16" />
  <sodipodi:namedview
     pagecolor="#ffffff"
     bordercolor="#666666"
     borderopacity="1"
     objecttolerance="10"
     gridtolerance="10"
     guidetolerance="10"
     inkscape:pageopacity="0"
     inkscape:pageshadow="2"
     inkscape:window-width="640"
     inkscape:window-height="480"
     id="namedview14"
     showgrid="false"
     inkscape:zoom="0.4609375"
     inkscape:cx="256"
     inkscape:cy="256"
     inkscape:window-x="0"
     inkscape:window-y="0"
     inkscape:window-maximized="0"
     inkscape:current-layer="svg2" />
  <metadata
     id="metadata102">
    <rdf:RDF>
      <cc:Work
         rdf:about="">
        <dc:format>image/svg+xml</dc:format>
        <dc:type
           rdf:resource="http://purl.org/dc/dcmitype/StillImage" />
      </cc:Work>
    </rdf:RDF>
  </metadata>
  <g
     id="g4"
     font-family="Gentium Book Basic"
     font-size="208.33"
     line-height="125%"
     word-spacing="0"
     letter-spacing="0" />
  <path
     id="path96"
     d="m 247.95484,69.190438 c -3.26331,0.04682 -6.56964,0.164494 -9.84559,0.396051 -7.0454,0.497278 -13.05955,1.090721 -13.40499,1.304563 -0.34544,0.213842 14.80318,26.088727 33.65039,57.496938 18.8472,31.40567 40.26556,67.50575 47.60832,80.19708 l 13.32526,23.05318 3.79602,-6.20774 c 2.07515,-3.41768 9.25341,-15.17899 15.93566,-26.09759 6.68224,-10.91859 17.80329,-29.11541 24.7133,-40.45157 6.91254,-11.32983 13.86304,-22.68497 15.50039,-25.26752 l 3.00517,-4.70579 -4.03263,-4.27052 C 344.10783,88.472916 296.90821,68.507156 247.95231,69.199296 m -39.61772,5.1398 c -0.8541,0.0329 -2.17385,0.326457 -4.38945,0.909778 -14.90441,3.920015 -36.78336,13.785851 -49.77838,22.45974 -26.63535,17.765336 -47.58301,41.422086 -61.292945,69.074766 -2.860928,5.77374 -5.219517,10.7288 -5.219517,11.03248 0,0.30368 41.454982,0.55422 92.131752,0.55422 50.67676,0 92.13301,-0.19613 92.13301,-0.43528 0,-0.66936 -60.77415,-101.682513 -61.92308,-102.922544 -0.44413,-0.478298 -0.80729,-0.706058 -1.66012,-0.671894 m 183.00575,66.627608 c -0.24927,-0.006 -0.47071,0.17715 -0.67189,0.4745 -1.02493,1.50828 -17.1681,27.82224 -36.0229,58.68635 -6.92266,11.32983 -14.62477,23.95411 -17.16177,28.07784 -8.66629,14.07941 -15.50544,25.44594 -22.65713,37.80196 -11.90682,20.58197 -18.15,31.59168 -18.15,31.87385 0,0.14551 27.287,0.2847 60.65775,0.2771 l 60.65648,-0.0392 1.10717,-3.87573 c 10.03539,-34.97646 9.29264,-70.68175 -2.25357,-105.3773 -4.1832,-12.56986 -12.74195,-30.05683 -20.08723,-41.04502 -3.42906,-5.12968 -4.67036,-6.82017 -5.41691,-6.84041 m -171.45322,50.92983 -2.68885,4.66657 c -1.47664,2.55851 -6.00655,10.39474 -10.04424,17.39838 -4.0377,7.00365 -9.67098,16.75687 -12.53444,21.67524 -4.62734,7.94125 -5.08665,9.12434 -4.35023,10.75536 1.13248,2.48766 26.86312,47.19709 28.62826,49.74042 l 1.38428,2.05617 30.17071,-0.0392 30.20993,-0.0392 3.36074,-6.12929 c 2.98366,-5.3992 14.05789,-24.57918 23.60613,-40.92102 1.80564,-3.08995 3.19624,-5.97998 3.08489,-6.4064 -0.11261,-0.42515 -6.94417,-12.4737 -15.18405,-26.77454 l -14.96894,-25.99003 -60.65774,0 m -76.94897,0.11894 -60.850077,0.23788 -2.372508,9.56975 c -8.313267,33.25307 -7.021357,66.69973 3.875729,99.44287 4.114877,12.36361 12.703988,29.90119 19.810126,40.56672 2.67745,4.01618 5.09931,7.31491 5.37768,7.31491 0.27331,0.001 1.7778,-2.28013 3.40123,-5.06135 2.71415,-4.65138 8.09942,-13.38473 34.67784,-56.34674 25.85337,-41.79409 30.30483,-49.07611 35.54332,-58.44593 1.72972,-3.08996 7.24659,-12.61036 12.25733,-21.19441 5.01073,-8.58404 9.13447,-15.7623 9.13447,-15.93566 0,-0.13032 -15.43332,-0.17967 -37.249,-0.15816 -7.2719,0.006 -15.24732,-0.0266 -23.60614,0 m 37.96012,66.6681 c -0.10755,0.11767 -2.03086,3.25065 -4.27051,6.95935 -2.23965,3.70871 -16.12799,26.32155 -30.88183,50.21871 -14.75383,23.89717 -26.95295,43.93758 -27.1263,44.56519 -0.37707,1.36656 14.01994,15.84835 22.22312,22.3408 25.96093,20.55034 60.39709,34.4931 92.53413,37.48562 9.51913,0.88574 23.4467,0.92496 32.14716,0.0797 4.08198,-0.39732 7.51358,-0.83133 7.66795,-0.98823 0.15816,-0.15817 -13.91872,-25.04736 -31.27788,-55.28007 -43.53267,-75.81648 -60.78681,-105.63036 -61.01457,-105.3773 m 175.00882,53.18214 c -11.03754,0.004 -23.14935,0.0139 -35.8255,0.0392 l -92.21146,0.19739 30.01253,52.23313 c 16.51266,28.73708 30.30737,52.27109 30.68444,52.27109 1.47285,0 12.5357,-3.05326 18.58527,-5.14106 25.58766,-8.83079 48.23467,-23.00384 67.34126,-42.11043 9.40526,-9.40526 14.83988,-16.14951 22.73685,-28.07784 5.6801,-8.57646 16.1862,-28.41695 15.42193,-29.17868 -0.14931,-0.14931 -23.63017,-0.25054 -56.74279,-0.23789"
     inkscape:connector-curvature="0"
     style="fill:#009688;fill-rule:evenodd" />
</svg>
