<?xml version="1.0" encoding="UTF-8" standalone="no"?>
<svg
   xmlns:dc="http://purl.org/dc/elements/1.1/"
   xmlns:cc="http://creativecommons.org/ns#"
   xmlns:rdf="http://www.w3.org/1999/02/22-rdf-syntax-ns#"
   xmlns:svg="http://www.w3.org/2000/svg"
   xmlns="http://www.w3.org/2000/svg"
   xmlns:sodipodi="http://sodipodi.sourceforge.net/DTD/sodipodi-0.dtd"
   xmlns:inkscape="http://www.inkscape.org/namespaces/inkscape"
   sodipodi:docname="distributor-logo-antergos.svg"
   inkscape:version="0.91 r13725"
   id="svg2"
   version="1.1"
   width="512"
   viewBox="0 0 512 512"
   height="512">
  <defs
     id="defs17" />
  <sodipodi:namedview
     inkscape:current-layer="svg2"
     inkscape:window-maximized="1"
     inkscape:window-y="0"
     inkscape:window-x="0"
     inkscape:cy="210.91051"
     inkscape:cx="344.37857"
     inkscape:zoom="1.2494745"
     showgrid="false"
     id="namedview15"
     inkscape:window-height="1021"
     inkscape:window-width="1920"
     inkscape:pageshadow="2"
     inkscape:pageopacity="0"
     guidetolerance="10"
     gridtolerance="10"
     objecttolerance="10"
     borderopacity="1"
     bordercolor="#666666"
     pagecolor="#ffffff" />
  <metadata
     id="metadata28">
    <rdf:RDF>
      <cc:Work
         rdf:about="">
        <dc:format>image/svg+xml</dc:format>
        <dc:type
           rdf:resource="http://purl.org/dc/dcmitype/StillImage" />
        <dc:title></dc:title>
      </cc:Work>
    </rdf:RDF>
  </metadata>
  <path
     inkscape:connector-curvature="0"
     style="display:inline;opacity:1;fill:#009688;fill-opacity:1;stroke:none"
     d="m 257.68974,28.931889 c -92.92369,0 -227.43809,199.935481 -227.43809,311.021691 0,133.30371 159.19938,133.29515 227.43809,133.29515 68.23875,0 227.4753,0.008 227.4753,-133.29515 0,-111.08621 -134.55156,-311.021691 -227.4753,-311.021691 z m 3.19762,110.019561 12.67882,0 c -46.41447,117.51419 -116.34232,147.80197 -148.09317,173.48799 -8.6074,-28.73818 -4.62427,-74.94667 8.44015,-97.30353 43.78405,-13.89803 88.51588,-39.20788 126.9742,-76.18446 z m 38.07366,4.23856 c 29.56595,66.13872 33.21919,162.68364 -12.67884,270.82884 -41.30357,5.36134 -77.15407,1.61242 -101.57934,-21.15621 64.52971,-59.42785 91.38438,-152.75421 114.25818,-249.67263 z m 38.07365,16.91765 c 88.78761,74.34189 61.4693,138.20018 42.34952,198.88275 -2.44472,-64.88857 -7.96894,-133.99438 -42.34952,-198.88275 z"
     id="path2998" />
</svg>
