<?xml version="1.0" encoding="UTF-8" standalone="no"?>
<svg
   xmlns:dc="http://purl.org/dc/elements/1.1/"
   xmlns:cc="http://creativecommons.org/ns#"
   xmlns:rdf="http://www.w3.org/1999/02/22-rdf-syntax-ns#"
   xmlns:svg="http://www.w3.org/2000/svg"
   xmlns="http://www.w3.org/2000/svg"
   xmlns:sodipodi="http://sodipodi.sourceforge.net/DTD/sodipodi-0.dtd"
   xmlns:inkscape="http://www.inkscape.org/namespaces/inkscape"
   viewBox="0 0 512 512"
   id="svg2"
   version="1.1"
   inkscape:version="0.91 r"
   sodipodi:docname="distributor-logo-deepin.svg">
  <metadata
     id="metadata72">
    <rdf:RDF>
      <cc:Work
         rdf:about="">
        <dc:format>image/svg+xml</dc:format>
        <dc:type
           rdf:resource="http://purl.org/dc/dcmitype/StillImage" />
      </cc:Work>
    </rdf:RDF>
  </metadata>
  <defs
     id="defs70" />
  <sodipodi:namedview
     pagecolor="#ffffff"
     bordercolor="#666666"
     borderopacity="1"
     objecttolerance="10"
     gridtolerance="10"
     guidetolerance="10"
     inkscape:pageopacity="0"
     inkscape:pageshadow="2"
     inkscape:window-width="640"
     inkscape:window-height="480"
     id="namedview68"
     showgrid="false"
     inkscape:zoom="0.4609375"
     inkscape:cx="256"
     inkscape:cy="256"
     inkscape:window-x="0"
     inkscape:window-y="0"
     inkscape:window-maximized="0"
     inkscape:current-layer="svg2" />
  <text
     font-size="129.23"
     y="231.36"
     x="729.64"
     font-family="Gentium Book Basic"
     line-height="125%"
     word-spacing="0"
     letter-spacing="0"
     id="text20">
    <tspan
       y="231.36"
       x="729.64"
       id="tspan22" />
  </text>
  <text
     transform="scale(4.0128.2492)"
     font-size="46.954"
     y="579.26"
     x="378.91"
     font-family="Arial"
     text-anchor="middle"
     id="text24" />
  <text
     font-size="129.23"
     y="151.36"
     x="1310.91"
     font-family="Gentium Book Basic"
     line-height="125%"
     word-spacing="0"
     letter-spacing="0"
     id="text26">
    <tspan
       y="151.36"
       x="1310.91"
       id="tspan28" />
  </text>
  <text
     transform="scale(4.0128.2492)"
     font-size="46.954"
     y="258.22"
     x="523.76"
     font-family="Arial"
     text-anchor="middle"
     id="text30" />
  <text
     font-size="129.23"
     y="-29.9"
     x="239.33"
     font-family="Gentium Book Basic"
     line-height="125%"
     word-spacing="0"
     letter-spacing="0"
     id="text32">
    <tspan
       y="-29.9"
       x="239.33"
       id="tspan34" />
  </text>
  <text
     transform="scale(4.0128.2492)"
     font-size="46.954"
     y="-469.13"
     x="256.72"
     font-family="Arial"
     text-anchor="middle"
     id="text36" />
  <text
     font-size="129.23"
     y="-246.37"
     x="1337.38"
     font-family="Gentium Book Basic"
     line-height="125%"
     word-spacing="0"
     letter-spacing="0"
     id="text38">
    <tspan
       y="-246.37"
       x="1337.38"
       id="tspan40" />
  </text>
  <text
     transform="scale(4.0128.2492)"
     font-size="46.954"
     y="-1337.8"
     x="530.36"
     font-family="Arial"
     text-anchor="middle"
     id="text42" />
  <text
     font-size="129.23"
     y="-326.37"
     x="1918.65"
     font-family="Gentium Book Basic"
     line-height="125%"
     word-spacing="0"
     letter-spacing="0"
     id="text44">
    <tspan
       y="-326.37"
       x="1918.65"
       id="tspan46" />
  </text>
  <text
     transform="scale(4.0128.2492)"
     font-size="46.954"
     y="-1658.83"
     x="675.21"
     font-family="Arial"
     text-anchor="middle"
     id="text48" />
  <text
     font-size="129.23"
     y="-798.77"
     x="1529.53"
     font-family="Gentium Book Basic"
     line-height="125%"
     word-spacing="0"
     letter-spacing="0"
     id="text50">
    <tspan
       y="-798.77"
       x="1529.53"
       id="tspan52" />
  </text>
  <text
     transform="scale(4.0128.2492)"
     font-size="46.954"
     y="-3554.48"
     x="578.24"
     font-family="Arial"
     text-anchor="middle"
     id="text54" />
  <text
     font-size="129.23"
     y="-878.78"
     x="2110.79"
     font-family="Gentium Book Basic"
     line-height="125%"
     word-spacing="0"
     letter-spacing="0"
     id="text56">
    <tspan
       y="-878.78"
       x="2110.79"
       id="tspan58" />
  </text>
  <text
     transform="scale(4.0128.2492)"
     font-size="46.954"
     y="-3875.52"
     x="723.09"
     font-family="Arial"
     text-anchor="middle"
     id="text60" />
  <text
     font-size="208.33"
     y="535.94"
     x="277.99"
     font-family="Gentium Book Basic"
     line-height="125%"
     word-spacing="0"
     letter-spacing="0"
     id="text62">
    <tspan
       y="535.94"
       x="277.99"
       id="tspan64" />
  </text>
  <path
     d="m246.7 127.05c-15.716 0.376-14.662 3.195-21.299 16.727-10.714 21.762-18.233 53.32-16.684 71.976 1.635 19.922 6.971 32.906 17.308 42.609 12.392 11.768 27.528 10.252 40.3-3.442 11.467-12.317 15.716-25.09 16.727-52.99 0.592-17.653 0.968-19.75 2.27-16.727 5.088 11.725 6.433 39.33 2.904 52.99-2.937 11.306-10.252 25.13-16.14 30.55-7.777 7.143-16.14 10.381-27.646 10.929-7.734 0.377-10.757 0.247-16.727-1.721-15.254-5.088-34.12-19.664-44.922-33.993-15.383-20.299-30.679-61.61-34.584-94.46-0.753-6.347-1.807-12.1-2.27-12.65-2.732-3.152-13.36 10.05-16.684 20.761-2.184 6.852-2.313 10.123-2.313 70.847v63.951l2.904 1.721c4.077 2.646 21.848 7.982 36.35 10.929 11 2.27 15.426 2.904 41.469 2.904 26.05-0.043 30.927-0.678 40.931-2.904 16.308-3.571 28.485-9.413 38.618-19.578 14.243-14.286 19.535-28.786 19.578-51.27 0.043-14.92-2.098-26.85-8.111-38.618-2.141-4.281-4.249-7.82-4.03-8.07 1.345-1.345 16.222 16.426 19.621 23.612 21.342 45.13 11.134 81.937-32.863 118.65-19.503 16.265-53.28 38.618-72.61 48.36-6.766 3.399-8.02 4.669-6.347 6.347 0.42 0.42 34.08 0.753 74.881 0.549l74.33-0.549 6.347-2.904c12.812-6.132 20.923-15.168 24.752-27.646 2.227-7.143 2.313-10.381 2.313-97.91 0-91.98-0.172-99.92-4.03-101.4-0.882-0.333-9.585 0.635-19.04 2.27-10.467 1.85-25.26 3.367-38.03 4.077-22.31 1.13-33.53 3.281-46.686 8.617-12.188 5-19.288 8.993-25.925 14.415-5.97 4.873-6.766 5.508-8.66 13.274-2.646 10.714-4.281 15.469-8.66 21.299-3.281 4.249-6.476 6.347-6.433 4.03 0.172-4.12 3.905-17.02 7.519-24.2 10.714-21.299 24.666-36.521 51.893-57.02 8.358-6.39 15.544-11.887 15.544-12.737 0-1.259-6.089-1.721-33.444-1.721-9.789 0-17.233-0.129-22.483 0m22.439 54.22c1.764 0 1.807 1.764-0.549 19.04-2.517 18.19-9.04 32.734-17.308 41.469-5.841 6.175-12.145 7.82-16.684 4.583-2.56-1.764-5.755-7.939-5.755-10.929 0-1.474 0.549-1.517 2.27-0.549 3.528 1.85 4.959 1.431 9.24-2.313 7.143-6.304 14.619-24.376 18.449-44.922 0.42-2.399 7.01-6.433 10.338-6.433"
     fill="#009688"
     id="path66" />
</svg>
