<?xml version="1.0" encoding="UTF-8" standalone="no"?>
<svg
   xmlns:dc="http://purl.org/dc/elements/1.1/"
   xmlns:cc="http://creativecommons.org/ns#"
   xmlns:rdf="http://www.w3.org/1999/02/22-rdf-syntax-ns#"
   xmlns:svg="http://www.w3.org/2000/svg"
   xmlns="http://www.w3.org/2000/svg"
   xmlns:sodipodi="http://sodipodi.sourceforge.net/DTD/sodipodi-0.dtd"
   xmlns:inkscape="http://www.inkscape.org/namespaces/inkscape"
   height="512"
   viewBox="0 0 512 512"
   width="512"
   version="1.1"
   id="svg2"
   inkscape:version="0.91 r"
   sodipodi:docname="distributor-logo-gentoo.svg">
  <defs
     id="defs16" />
  <sodipodi:namedview
     pagecolor="#ffffff"
     bordercolor="#666666"
     borderopacity="1"
     objecttolerance="10"
     gridtolerance="10"
     guidetolerance="10"
     inkscape:pageopacity="0"
     inkscape:pageshadow="2"
     inkscape:window-width="640"
     inkscape:window-height="480"
     id="namedview14"
     showgrid="false"
     inkscape:zoom="0.4609375"
     inkscape:cx="256"
     inkscape:cy="256"
     inkscape:window-x="0"
     inkscape:window-y="0"
     inkscape:window-maximized="0"
     inkscape:current-layer="svg2" />
  <metadata
     id="metadata72">
    <rdf:RDF>
      <cc:Work
         rdf:about="">
        <dc:format>image/svg+xml</dc:format>
        <dc:type
           rdf:resource="http://purl.org/dc/dcmitype/StillImage" />
      </cc:Work>
    </rdf:RDF>
  </metadata>
  <path
     id="path66"
     d="m228.12 121.17c-57.937 2.735-103.29 55.29-100.98 83.87 2.249 27.805 72.71 52.23 71.885 53.06-14.417 12.173-23.925 20.394-35.942 31.378-28.941 26.451-48.933 46.07-38.795 73.6 11.695 31.749 37.26 30.433 67.32 24.532 77.49-15.283 205.03-113.3 198.54-149.47-5.253-29.27-76.53-87.12-118.67-107.83-13.163-6.469-28.14-9.844-43.36-9.128m11.981 50.21c7.248-0.679 15.691 1.155 25.1 5.705 20.555 9.938 41.847 36.32 0 51.35-11.379 4.085-47.887-9.829-46.782-29.1 1.01-17.789 9.599-26.824 21.68-27.955"
     fill-rule="evenodd"
     fill="#009688" />
</svg>
