<?xml version="1.0" encoding="UTF-8" standalone="no"?>
<svg
   xmlns:dc="http://purl.org/dc/elements/1.1/"
   xmlns:cc="http://creativecommons.org/ns#"
   xmlns:rdf="http://www.w3.org/1999/02/22-rdf-syntax-ns#"
   xmlns:svg="http://www.w3.org/2000/svg"
   xmlns="http://www.w3.org/2000/svg"
   xmlns:sodipodi="http://sodipodi.sourceforge.net/DTD/sodipodi-0.dtd"
   xmlns:inkscape="http://www.inkscape.org/namespaces/inkscape"
   viewBox="0 0 512 512"
   id="svg2"
   version="1.1"
   inkscape:version="0.91 r"
   sodipodi:docname="dmmediaconverter.svg">
  <metadata
     id="metadata127">
    <rdf:RDF>
      <cc:Work
         rdf:about="">
        <dc:format>image/svg+xml</dc:format>
        <dc:type
           rdf:resource="http://purl.org/dc/dcmitype/StillImage" />
      </cc:Work>
    </rdf:RDF>
  </metadata>
  <sodipodi:namedview
     pagecolor="#ffffff"
     bordercolor="#666666"
     borderopacity="1"
     objecttolerance="10"
     gridtolerance="10"
     guidetolerance="10"
     inkscape:pageopacity="0"
     inkscape:pageshadow="2"
     inkscape:window-width="640"
     inkscape:window-height="480"
     id="namedview125"
     showgrid="false"
     inkscape:zoom="0.4609375"
     inkscape:cx="256"
     inkscape:cy="256"
     inkscape:window-x="0"
     inkscape:window-y="0"
     inkscape:window-maximized="0"
     inkscape:current-layer="svg2" />
  <defs
     id="defs4">
    <linearGradient
       id="1"
       x2="0"
       y1="473.05"
       y2="38.752"
       gradientUnits="userSpaceOnUse">
      <stop
         stop-color="#3f9f23"
         id="stop7" />
      <stop
         stop-color="#36c336"
         offset="0.5"
         id="stop9" />
      <stop
         stop-color="#55d139"
         offset="1"
         id="stop11" />
    </linearGradient>
  </defs>
  <text
     font-size="129.23"
     y="231.36"
     x="729.64"
     font-family="Gentium Book Basic"
     line-height="125%"
     word-spacing="0"
     letter-spacing="0"
     id="text29">
    <tspan
       y="231.36"
       x="729.64"
       id="tspan31" />
  </text>
  <text
     transform="scale(4.0128.2492)"
     font-size="46.954"
     y="579.26"
     x="378.91"
     font-family="Arial"
     text-anchor="middle"
     id="text33" />
  <text
     font-size="129.23"
     y="151.36"
     x="1310.91"
     font-family="Gentium Book Basic"
     line-height="125%"
     word-spacing="0"
     letter-spacing="0"
     id="text35">
    <tspan
       y="151.36"
       x="1310.91"
       id="tspan37" />
  </text>
  <text
     transform="scale(4.0128.2492)"
     font-size="46.954"
     y="258.22"
     x="523.76"
     font-family="Arial"
     text-anchor="middle"
     id="text39" />
  <text
     font-size="129.23"
     y="-29.9"
     x="239.33"
     font-family="Gentium Book Basic"
     line-height="125%"
     word-spacing="0"
     letter-spacing="0"
     id="text41">
    <tspan
       y="-29.9"
       x="239.33"
       id="tspan43" />
  </text>
  <text
     transform="scale(4.0128.2492)"
     font-size="46.954"
     y="-469.13"
     x="256.72"
     font-family="Arial"
     text-anchor="middle"
     id="text45" />
  <text
     font-size="129.23"
     y="-246.37"
     x="1337.38"
     font-family="Gentium Book Basic"
     line-height="125%"
     word-spacing="0"
     letter-spacing="0"
     id="text47">
    <tspan
       y="-246.37"
       x="1337.38"
       id="tspan49" />
  </text>
  <text
     transform="scale(4.0128.2492)"
     font-size="46.954"
     y="-1337.8"
     x="530.36"
     font-family="Arial"
     text-anchor="middle"
     id="text51" />
  <text
     font-size="129.23"
     y="-326.37"
     x="1918.65"
     font-family="Gentium Book Basic"
     line-height="125%"
     word-spacing="0"
     letter-spacing="0"
     id="text53">
    <tspan
       y="-326.37"
       x="1918.65"
       id="tspan55" />
  </text>
  <text
     transform="scale(4.0128.2492)"
     font-size="46.954"
     y="-1658.83"
     x="675.21"
     font-family="Arial"
     text-anchor="middle"
     id="text57" />
  <text
     font-size="129.23"
     y="-798.77"
     x="1529.53"
     font-family="Gentium Book Basic"
     line-height="125%"
     word-spacing="0"
     letter-spacing="0"
     id="text59">
    <tspan
       y="-798.77"
       x="1529.53"
       id="tspan61" />
  </text>
  <text
     transform="scale(4.0128.2492)"
     font-size="46.954"
     y="-3554.48"
     x="578.24"
     font-family="Arial"
     text-anchor="middle"
     id="text63" />
  <text
     font-size="129.23"
     y="-878.78"
     x="2110.79"
     font-family="Gentium Book Basic"
     line-height="125%"
     word-spacing="0"
     letter-spacing="0"
     id="text65">
    <tspan
       y="-878.78"
       x="2110.79"
       id="tspan67" />
  </text>
  <text
     transform="scale(4.0128.2492)"
     font-size="46.954"
     y="-3875.52"
     x="723.09"
     font-family="Arial"
     text-anchor="middle"
     id="text69" />
  <g
     font-family="Gentium Book Basic"
     line-height="125%"
     word-spacing="0"
     letter-spacing="0"
     id="g71">
    <text
       y="535.94"
       x="277.99"
       font-size="208.33"
       id="text73">
      <tspan
         y="535.94"
         x="277.99"
         id="tspan75" />
    </text>
    <text
       y="272.72"
       x="1781.5"
       font-size="129.23"
       id="text77">
      <tspan
         y="272.72"
         x="1781.5"
         id="tspan79" />
    </text>
  </g>
  <text
     transform="scale(4.0128.2492)"
     font-size="46.954"
     y="745.22"
     x="641.03"
     font-family="Arial"
     text-anchor="middle"
     id="text81" />
  <text
     font-size="129.23"
     y="192.72"
     x="2362.77"
     font-family="Gentium Book Basic"
     line-height="125%"
     word-spacing="0"
     letter-spacing="0"
     id="text83">
    <tspan
       y="192.72"
       x="2362.77"
       id="tspan85" />
  </text>
  <text
     transform="scale(4.0128.2492)"
     font-size="46.954"
     y="424.18"
     x="785.88"
     font-family="Arial"
     text-anchor="middle"
     id="text87" />
  <text
     font-size="129.23"
     y="11.457"
     x="1291.19"
     font-family="Gentium Book Basic"
     line-height="125%"
     word-spacing="0"
     letter-spacing="0"
     id="text89">
    <tspan
       y="11.457"
       x="1291.19"
       id="tspan91" />
  </text>
  <text
     transform="scale(4.0128.2492)"
     font-size="46.954"
     y="-303.17"
     x="518.84"
     font-family="Arial"
     text-anchor="middle"
     id="text93" />
  <text
     font-size="129.23"
     y="-205.01"
     x="2389.24"
     font-family="Gentium Book Basic"
     line-height="125%"
     word-spacing="0"
     letter-spacing="0"
     id="text95">
    <tspan
       y="-205.01"
       x="2389.24"
       id="tspan97" />
  </text>
  <text
     transform="scale(4.0128.2492)"
     font-size="46.954"
     y="-1171.84"
     x="792.48"
     font-family="Arial"
     text-anchor="middle"
     id="text99" />
  <text
     font-size="129.23"
     y="-285.01"
     x="2970.51"
     font-family="Gentium Book Basic"
     line-height="125%"
     word-spacing="0"
     letter-spacing="0"
     id="text101">
    <tspan
       y="-285.01"
       x="2970.51"
       id="tspan103" />
  </text>
  <text
     transform="scale(4.0128.2492)"
     font-size="46.954"
     y="-1492.87"
     x="937.33"
     font-family="Arial"
     text-anchor="middle"
     id="text105" />
  <text
     font-size="129.23"
     y="-757.41"
     x="2581.39"
     font-family="Gentium Book Basic"
     line-height="125%"
     word-spacing="0"
     letter-spacing="0"
     id="text107">
    <tspan
       y="-757.41"
       x="2581.39"
       id="tspan109" />
  </text>
  <text
     transform="scale(4.0128.2492)"
     font-size="46.954"
     y="-3388.52"
     x="840.36"
     font-family="Arial"
     text-anchor="middle"
     id="text111" />
  <text
     font-size="129.23"
     y="-837.42"
     x="3162.65"
     font-family="Gentium Book Basic"
     line-height="125%"
     word-spacing="0"
     letter-spacing="0"
     id="text113">
    <tspan
       y="-837.42"
       x="3162.65"
       id="tspan115" />
  </text>
  <text
     transform="scale(4.0128.2492)"
     font-size="46.954"
     y="-3709.56"
     x="985.21"
     font-family="Arial"
     text-anchor="middle"
     id="text117" />
  <text
     font-size="208.33"
     y="577.3"
     x="1329.85"
     font-family="Gentium Book Basic"
     line-height="125%"
     word-spacing="0"
     letter-spacing="0"
     id="text119">
    <tspan
       y="577.3"
       x="1329.85"
       id="tspan121" />
  </text>
  <path
     d="m137.25 381.87c-6.792-3.686-9.324-8.502-9.324-17.734 0-7.115 3.24-10.611 95.15-102.64l95.15-95.28h-19.366l-72.34 72.25c-71.51 71.42-72.43 72.25-80.32 72.25-6.01 0-9.239-1.267-13.12-5.148l-5.148-5.148 0.01-44.16 0.01-44.16 22.35-22.456 22.35-22.456-17.678-1.013c-16.321-0.935-18.04-1.431-22.359-6.455-5.074-5.898-6.227-16.26-2.571-23.09 4.228-7.899 12.966-9.47 52.695-9.47 29.677 0 38.666 0.621 43.727 3.02 7.15 3.393 10.817 9.806 10.817 18.919 0 5.352-4.623 10.784-36.12 42.44l-36.12 36.31v19.31l59.07-58.882c49.926-49.769 60.15-59.08 66.07-60.16 3.849-0.702 23.913-0.986 44.587-0.632l37.589 0.645 5.694 6.377c12.145 13.6 16.312 8.289-89.986 114.67-52.624 52.664-95.68 96.4-95.68 97.19 0 0.791 4.159 1.438 9.241 1.438h9.241l73.32-73.22c68.48-68.39 73.77-73.22 80.15-73.22 3.756 0 8.66 1.283 10.899 2.851 7.838 5.49 8.772 11.845 8.138 55.4l-0.6 41.28-21.967 22.03c-12.08 12.11-21.967 22.671-21.967 23.46 0 0.788 7.087 1.434 15.75 1.434 17.873 0 21.989 1.557 26.336 9.964 3.86 7.464 2.295 15.357-4.268 21.522-4.893 4.597-5.329 4.639-48.51 4.639-40.826 0-43.846-0.246-47.907-3.905-6.282-5.66-8.268-12.166-5.902-19.336 1.247-3.779 15.311-19.37 37.16-41.19l35.15-35.11v-19.543l-58.09 57.988c-31.95 31.893-60.57 58.908-63.59 60.03-3.172 1.18-21.754 2.01-43.935 1.966-30.11-0.06-39.591-0.704-43.759-2.966z"
     fill="#009688"
     id="path123" />
</svg>
