<?xml version="1.0" encoding="UTF-8" standalone="no"?>
<svg
   xmlns:dc="http://purl.org/dc/elements/1.1/"
   xmlns:cc="http://creativecommons.org/ns#"
   xmlns:rdf="http://www.w3.org/1999/02/22-rdf-syntax-ns#"
   xmlns:svg="http://www.w3.org/2000/svg"
   xmlns="http://www.w3.org/2000/svg"
   xmlns:sodipodi="http://sodipodi.sourceforge.net/DTD/sodipodi-0.dtd"
   xmlns:inkscape="http://www.inkscape.org/namespaces/inkscape"
   viewBox="0 0 512 512"
   id="svg2"
   version="1.1"
   inkscape:version="0.91 r"
   sodipodi:docname="dosbox.svg">
  <metadata
     id="metadata26">
    <rdf:RDF>
      <cc:Work
         rdf:about="">
        <dc:format>image/svg+xml</dc:format>
        <dc:type
           rdf:resource="http://purl.org/dc/dcmitype/StillImage" />
      </cc:Work>
    </rdf:RDF>
  </metadata>
  <defs
     id="defs24" />
  <sodipodi:namedview
     pagecolor="#ffffff"
     bordercolor="#666666"
     borderopacity="1"
     objecttolerance="10"
     gridtolerance="10"
     guidetolerance="10"
     inkscape:pageopacity="0"
     inkscape:pageshadow="2"
     inkscape:window-width="640"
     inkscape:window-height="480"
     id="namedview22"
     showgrid="false"
     inkscape:zoom="0.4609375"
     inkscape:cx="256"
     inkscape:cy="256"
     inkscape:window-x="0"
     inkscape:window-y="0"
     inkscape:window-maximized="0"
     inkscape:current-layer="svg2" />
  <path
     d="m143.19 174c-31.595 0-50.03 30.818-50.03 60.28 0 30.656 20.277 62.34 49.16 62.34 16.441 0 35.46-10.04 41.75-28.09l-16.16-11.09c-4.718 13.11-15.707 18.406-25 18.406-17.585 0-29.75-19.416-29.75-40.875 0-19.245 9.74-40.19 29.469-40.19 9.01 0 19.728 4.406 24.875 18.03l15.16-12.406c-6.576-15.669-20.883-26.406-39.469-26.406m82.59 0.688l62.31 120.91h21.16l-62.19-120.91h-21.281m95.88 28.438v24.19l32.469 24.19-32.469 23.16v25.531l60.34-42.563v-11.09l-60.34-43.41m-125.06 4.25v24.531h15.594v-24.531h-15.594m0 63.69v24.531h15.594v-24.531h-15.594m197.78 24.531v20.594h52.47v-20.594h-52.47"
     fill="#009688"
     id="path20" />
</svg>
