<svg xmlns="http://www.w3.org/2000/svg" width="48" height="48">
<defs>
  <path
     d="M 5.933641,16.681954 C 3.747827,16.681954 2,18.443299 2,20.629112 l 0,8.97573 C 2,31.790655 3.747827,33.552 5.933641,33.552 l 36.119201,0 C 44.238655,33.552 46,31.790655 46,29.604842 l 0,-8.97573 c 0,-2.185813 -1.761345,-3.947158 -3.947158,-3.947158 l -36.119201,0 z m 12.706605,5.90722 10.719508,0 c 1.648863,0 2.973887,1.13173 2.973887,2.527803 0,1.396073 -1.325024,2.514286 -2.973887,2.514286 l -10.719508,0 c -1.648863,0 -2.973887,-1.118213 -2.973887,-2.514286 0,-1.396073 1.325024,-2.527803 2.973887,-2.527803 z"
     id="path-main"
      />
</defs>

<use id="1" style="fill:#009688" xlink:href="#path-main" />



</svg>
