<?xml version="1.0" encoding="UTF-8" standalone="no"?>
<svg
   xmlns:dc="http://purl.org/dc/elements/1.1/"
   xmlns:cc="http://creativecommons.org/ns#"
   xmlns:rdf="http://www.w3.org/1999/02/22-rdf-syntax-ns#"
   xmlns:svg="http://www.w3.org/2000/svg"
   xmlns="http://www.w3.org/2000/svg"
   xmlns:sodipodi="http://sodipodi.sourceforge.net/DTD/sodipodi-0.dtd"
   xmlns:inkscape="http://www.inkscape.org/namespaces/inkscape"
   height="512"
   viewBox="0 0 512 512"
   width="512"
   version="1.1"
   id="svg2"
   inkscape:version="0.91 r"
   sodipodi:docname="dreamchess.svg">
  <defs
     id="defs17" />
  <sodipodi:namedview
     pagecolor="#ffffff"
     bordercolor="#666666"
     borderopacity="1"
     objecttolerance="10"
     gridtolerance="10"
     guidetolerance="10"
     inkscape:pageopacity="0"
     inkscape:pageshadow="2"
     inkscape:window-width="1920"
     inkscape:window-height="1028"
     id="namedview15"
     showgrid="false"
     inkscape:zoom="1.3037281"
     inkscape:cx="53.590229"
     inkscape:cy="244.919"
     inkscape:window-x="0"
     inkscape:window-y="0"
     inkscape:window-maximized="1"
     inkscape:current-layer="svg2" />
  <metadata
     id="metadata28">
    <rdf:RDF>
      <cc:Work
         rdf:about="">
        <dc:format>image/svg+xml</dc:format>
        <dc:type
           rdf:resource="http://purl.org/dc/dcmitype/StillImage" />
        <dc:title />
      </cc:Work>
    </rdf:RDF>
  </metadata>
  <path
     inkscape:connector-curvature="0"
     style="fill:#009688"
     d="m 392.55694,391.55105 c -0.053,-3.636 -4.833,-8.493 -17.503,-17.786 l -17.43,-12.784 -63.384,0 -17.43,12.784 c -12.67,9.293 -17.45,14.15 -17.503,17.786 l -0.073,5 133.4,0 -0.073,-5 m -160,-0.07 c 0,-3.229 -4.67,-9.693 -12.848,-17.786 l -12.848,-12.714 -46.44,0 -12.848,12.714 c -8.179,8.093 -12.848,14.558 -12.848,17.786 l 0,5.072 97.824,0 0,-5.072 m 124.5,-41.879 c 0,-3.831 -15.492,-120.25 -16.755,-125.91 -1,-4.504 -2.438,-5 -14.371,-5 -11.933,0 -13.366,0.499 -14.371,5 -1.264,5.664 -16.755,122.08 -16.755,125.91 0,1.713 9.671,2.485 31.13,2.485 21.455,0 31.13,-0.772 31.13,-2.485 m -151.18,-0.199 c 0,-4.085 -6.689,-57.76 -7.908,-63.46 -0.965,-4.509 -2.379,-5 -14.325,-5 -11.947,0 -13.361,0.494 -14.325,5 -1.219,5.698 -7.908,59.37 -7.908,63.46 0,1.918 6.347,2.684 22.23,2.684 15.886,0 22.23,-0.766 22.23,-2.684 m 15.07,-79.969 c 6.06,-6.06 1.411,-15.171 -7.729,-15.171 -5.901,0 -6.264,-1.627 -1.708,-7.651 1.795,-2.374 3.258,-8.877 3.25,-14.451 -0.046,-31.747 -40.4,-43.22 -58.02,-16.491 -5.074,7.696 -5.602,24.799 -0.955,30.943 4.588,6.07 4.22,7.258 -2.484,8.06 -7.584,0.906 -11.687,7.02 -8.311,12.376 2.139,3.395 6.961,3.968 37.843,4.499 25.645,0.441 36.14,-0.141 38.11,-2.112 m 142.29,-62.25 c 6.493,-6.493 1.3,-15.171 -9.08,-15.171 -4.315,0 -6.103,-0.939 -5.378,-2.826 2.32,-6.05 6.579,-43.752 5.314,-47.05 -0.969,-2.525 -4.418,-3.485 -12.523,-3.485 -9.704,0 -11.186,-0.589 -11.186,-4.447 0,-2.96401 1.482,-4.44701 4.447,-4.44701 2.964,0 4.447,-1.482 4.447,-4.447 0,-2.964 -1.482,-4.447 -4.447,-4.447 -2.964,0 -4.447,-1.482 -4.447,-4.447 0,-2.964 -1.482,-4.447 -4.447,-4.447 -2.964,0 -4.447,1.482 -4.447,4.447 0,2.964 -1.482,4.447 -4.447,4.447 -2.964,0 -4.447,1.482 -4.447,4.447 0,2.964 1.482,4.447 4.447,4.447 2.964,0 4.447,1.482 4.447,4.44701 0,3.857 -1.482,4.447 -11.186,4.447 -8.106,0 -11.554,0.96 -12.523,3.485 -1.247,3.249 2.98,40.964 5.255,46.894 0.639,1.666 -1.678,2.94 -6.155,3.382 -8.686,0.859 -13.196,6.676 -9.601,12.382 2.139,3.395 6.961,3.968 37.843,4.499 25.645,0.441 36.14,-0.141 38.11,-2.112"
     id="path3088" />
</svg>
