<?xml version="1.0" encoding="UTF-8" standalone="no"?>
<svg
   xmlns:dc="http://purl.org/dc/elements/1.1/"
   xmlns:cc="http://creativecommons.org/ns#"
   xmlns:rdf="http://www.w3.org/1999/02/22-rdf-syntax-ns#"
   xmlns:svg="http://www.w3.org/2000/svg"
   xmlns="http://www.w3.org/2000/svg"
   xmlns:sodipodi="http://sodipodi.sourceforge.net/DTD/sodipodi-0.dtd"
   xmlns:inkscape="http://www.inkscape.org/namespaces/inkscape"
   height="512"
   viewBox="0 0 512 512"
   width="512"
   version="1.1"
   id="svg2"
   inkscape:version="0.91 r"
   sodipodi:docname="driconf-icon.svg">
  <defs
     id="defs16" />
  <sodipodi:namedview
     pagecolor="#ffffff"
     bordercolor="#666666"
     borderopacity="1"
     objecttolerance="10"
     gridtolerance="10"
     guidetolerance="10"
     inkscape:pageopacity="0"
     inkscape:pageshadow="2"
     inkscape:window-width="640"
     inkscape:window-height="480"
     id="namedview14"
     showgrid="false"
     inkscape:zoom="0.4609375"
     inkscape:cx="256"
     inkscape:cy="256"
     inkscape:window-x="0"
     inkscape:window-y="0"
     inkscape:window-maximized="0"
     inkscape:current-layer="svg2" />
  <metadata
     id="metadata72">
    <rdf:RDF>
      <cc:Work
         rdf:about="">
        <dc:format>image/svg+xml</dc:format>
        <dc:type
           rdf:resource="http://purl.org/dc/dcmitype/StillImage" />
      </cc:Work>
    </rdf:RDF>
  </metadata>
  <path
     id="path66"
     fill="#009688"
     d="m81.25 182.13v147.75h63.06c25.958 0 44.11-2.955 54.44-8.875 10.322-5.92 15.469-17.208 15.469-33.906v-60.12c0-17.457-5.446-29.31-16.375-35.531-10.778-6.224-28.703-9.312-53.75-9.313h-62.85m161.88 0v147.75h35.531v-58.06h16.406l38.688 58.06h41l-42.813-60.781c9.563-1.214 17.531-4.236 23.906-9.09 6.527-4.858 9.781-11.794 9.781-20.75v-25.938c0-11.385-4.481-19.45-13.438-24.16-8.956-4.706-23.13-7.03-42.563-7.03h-66.5m152.09 0v147.75h35.531v-147.75h-35.531m-278.44 25.25h27.09c11.689 0 20.419 1.393 26.19 4.125 5.768 2.733 8.656 7.647 8.656 14.781v60.813c0 7.59-2.589 12.437-7.75 14.563-5.161 1.973-14.588 2.969-28.25 2.969h-25.938v-97.25m161.88 0h30.5c7.894 0 13.437 1.062 16.625 3.188 3.339 1.974 5 5.692 5 11.156v10.5c0 6.376-1.495 10.692-4.531 12.969-3.036 2.125-8.745 3.188-17.09 3.188h-30.5v-41" />
</svg>
