<?xml version="1.0" encoding="UTF-8" standalone="no"?>
<svg
   xmlns:dc="http://purl.org/dc/elements/1.1/"
   xmlns:cc="http://creativecommons.org/ns#"
   xmlns:rdf="http://www.w3.org/1999/02/22-rdf-syntax-ns#"
   xmlns:svg="http://www.w3.org/2000/svg"
   xmlns="http://www.w3.org/2000/svg"
   xmlns:sodipodi="http://sodipodi.sourceforge.net/DTD/sodipodi-0.dtd"
   xmlns:inkscape="http://www.inkscape.org/namespaces/inkscape"
   width="1814.17"
   height="1814.17"
   viewBox="0 0 512 512"
   version="1.1"
   id="svg2"
   inkscape:version="0.91 r"
   sodipodi:docname="firefox-developer.svg">
  <sodipodi:namedview
     pagecolor="#ffffff"
     bordercolor="#666666"
     borderopacity="1"
     objecttolerance="10"
     gridtolerance="10"
     guidetolerance="10"
     inkscape:pageopacity="0"
     inkscape:pageshadow="2"
     inkscape:window-width="640"
     inkscape:window-height="480"
     id="namedview26"
     showgrid="false"
     inkscape:zoom="0.13008703"
     inkscape:cx="907.08502"
     inkscape:cy="907.08502"
     inkscape:window-x="0"
     inkscape:window-y="0"
     inkscape:window-maximized="0"
     inkscape:current-layer="layer1" />
  <defs
     id="defs8219">
    <linearGradient
       gradientTransform="translate(-1.6373202e-5,-215.00003)"
       id="1"
       y2="308.92"
       gradientUnits="userSpaceOnUse"
       x2="293.94"
       y1="114.75"
       x1="248.11">
      <stop
         id="stop12"
         stop-color="#449bce" />
      <stop
         id="stop14"
         stop-color="#171a45"
         offset="1" />
    </linearGradient>
    <linearGradient
       gradientTransform="translate(-1.6373202e-5,-215.00003)"
       id="0"
       y2="479.44"
       gradientUnits="userSpaceOnUse"
       y1="41.781"
       x2="442.34"
       x1="103.9">
      <stop
         id="stop7"
         stop-color="#0e98d1" />
      <stop
         id="stop9"
         stop-color="#172b5b"
         offset="1" />
    </linearGradient>
  </defs>
  <metadata
     id="metadata8222">
    <rdf:RDF>
      <cc:Work
         rdf:about="">
        <dc:format>image/svg+xml</dc:format>
        <dc:type
           rdf:resource="http://purl.org/dc/dcmitype/StillImage" />
      </cc:Work>
    </rdf:RDF>
  </metadata>
  <g
     inkscape:label="Layer 1"
     inkscape:groupmode="layer"
     id="layer1"
     transform="translate(0,215.00001)">
    <g
       style="fill:#009688"
       transform="translate(-1.6373202e-5,-215.00003)"
       id="g9714">
      <path
         inkscape:connector-curvature="0"
         id="path9716"
         d="m 180.01,300.94 c 0,-0.112 -0.774,-0.886 -1.721,-1.721 l -1.721,-1.517 1.517,1.721 c 1.418,1.608 1.924,2.01 1.924,1.517" />
      <path
         inkscape:connector-curvature="0"
         id="path9718"
         d="m 253.56,107.63 c -36.505,0.043 -72.7,13.554 -100.44,39.469 l -8.094,7.656 c -3.132,-4.129 -5.637,-9.866 -6.094,-14.25 -0.224,-2.151 -0.609,-3.906 -0.875,-3.906 -0.266,0 -1.788,1.732 -3.375,3.844 -5.815,7.736 -9.6,18.17 -11.281,31 -0.46,3.51 -1.779,17 -2.094,20.469 -4.617,7.202 -8.38,15.938 -12.09,27.906 -2.119,6.829 -5.558,19.749 -5.531,20.844 0.01,0.407 1.038,-1.169 2.281,-3.5 2.434,-4.563 3.083,-5.069 2.063,-1.656 -1.483,4.961 -2.503,16.252 -2.781,30.625 l -0.313,15.313 1.188,-4.375 c 0.659,-2.409 1.475,-5.077 1.813,-5.938 0.778,-1.979 1.018,-1.318 1.969,5.625 2.419,17.663 9.714,37.953 19.563,54.34 15.952,26.548 46.41,51.35 78.875,64.22 10.253,4.065 28.939,8.722 21.19,5.281 -2.995,-1.33 -6.553,-3.697 -6.156,-4.094 0.139,-0.139 2.067,0.416 4.281,1.25 5.281,1.988 14.621,4.505 20.875,5.625 2.753,0.493 7.525,0.907 10.594,0.938 l 5.563,0.063 -2.438,-2.156 -2.469,-2.156 7.06,-0.031 c 20.768,-0.077 51.782,-6.692 65.38,-13.938 4.168,-2.221 11.179,-9.323 15.5,-15.688 2.318,-3.415 3.574,-4.529 7.469,-6.719 18.58,-10.447 36.975,-32.418 39.469,-47.12 0.742,-4.376 0.45,-10.38 -0.75,-15.16 -0.613,-2.439 -0.402,-3.101 4.781,-14.969 8.708,-19.939 8.997,-20.931 9.5,-33.844 0.396,-10.172 -0.257,-17.632 -2.438,-27.781 -1.603,-7.461 -2.074,-8.387 -2.656,-5.281 -0.37,1.975 -3.747,9.653 -4.25,9.656 -0.081,0 -0.072,-4.551 0.031,-10.125 0.378,-20.434 -3.569,-35.454 -13.188,-50.09 -3.529,-5.372 -9.147,-11.962 -13.06,-15.375 -2.671,-2.328 -3.03,-2.407 -3.03,-0.688 0,1 -0.782,0.435 -3.5,-2.5 -3.165,-3.419 -14.425,-12.563 -15.469,-12.563 -0.237,0 -0.438,1.309 -0.438,2.906 0,0.104 -10e-4,0.184 0,0.281 -5.328,-3.434 -23.07,-13.871 -28.22,-16.594 -21.469,-11.346 -45.01,-16.84 -68.41,-16.813 m -0.844,6.594 c 15.641,-0.092 31.442,2.417 46.75,7.656 1.809,0.619 5.24,1.876 8.5,3.094 6.344,2.371 12.01,5.279 17.5,8.875 -7.285,-2.925 -16.17,-6 -17.75,-6 -0.56,0 1.247,1.426 4,3.188 11.609,7.428 24.908,19.926 33.25,31.22 7.228,9.785 7.356,10.09 2.75,6.375 -5.404,-4.354 -12.84,-8.122 -18.25,-9.25 -2.449,-0.511 -4.599,-0.776 -4.781,-0.594 -0.182,0.182 1.522,2.023 3.781,4.094 7.247,6.641 18.646,23.61 21.344,31.75 2.268,6.844 4.04,18.07 4.5,28.469 l 0.406,8.906 -1.844,-2.813 c -1.016,-1.56 -2.739,-3.84 -3.813,-5.063 -2.02,-2.297 -6.839,-5.942 -7.281,-5.5 -0.138,0.138 0.459,6.571 1.313,14.313 1.792,16.257 1.678,25.341 -0.406,35.38 -1.746,8.403 -1.829,8.549 -2.813,5.719 -0.846,-2.436 -2.58,-4.781 -3.531,-4.781 -0.291,0 -0.531,1.109 -0.531,2.469 0,5.708 -4.73,22.639 -8.469,30.375 -1.497,3.097 -4.056,7.295 -5.719,9.344 -5.652,6.967 -11.463,10.04 -10.969,5.813 0.173,-1.479 -0.006,-1.719 -1.375,-1.719 -1,0 -2.282,0.75 -3.438,2.031 -1.01,1.118 -3.044,3.422 -4.531,5.094 -2.222,2.498 -8.06,7.196 -8.06,6.5 0,-0.105 0.274,-1.103 0.594,-2.219 0.32,-1.116 0.416,-2 0.219,-2 -0.197,0 -2.226,0.545 -4.5,1.219 -7.911,2.344 -21.07,4.406 -28.12,4.406 -7.338,0 -12.07,-0.972 -16.938,-3.438 -5.04,-2.555 -4.731,-3.051 1.594,-2.656 5.351,0.334 5.507,0.293 4.219,-0.75 -1.884,-1.525 -8.706,-3.541 -16.906,-5 -8.777,-1.562 -10.72,-2.366 -14.781,-6.219 -2.765,-2.675 -5.795,-4.516 -8.69,-7.46 7.532,1.964 14.949,1.782 22.627,1.585 9.186,-0.23 11.619,-0.493 15.03,-1.656 4.99,-1.702 13.934,-6.953 21.16,-12.406 6.306,-4.761 7.603,-5.245 12.906,-4.75 3.762,0.351 3.994,0.302 5.03,-1.281 1.358,-2.073 0.954,-5.309 -1.063,-8.313 -4.081,-6.077 -16.908,-10.176 -26.469,-8.438 -2.101,0.382 -6.498,2.065 -10,3.813 -3.441,1.717 -7.782,3.448 -9.656,3.844 -3.945,0.832 -10.53,0.37 -15.656,-1.094 -4.906,-1.401 -13.5,-5.939 -17.563,-9.281 l -3.438,-2.844 -5.688,-3.625 c 1.178,-7.717 3.588,-14.588 6.781,-17.781 l 2.406,-2.406 -3.625,-1.688 c -3.098,-1.451 -4.433,-1.688 -9.25,-1.688 -4.996,0 -6.1,0.191 -9.719,1.906 -7.959,3.772 -13.926,10.955 -16.625,19.969 -1.796,5.999 -1.53,15.582 0.625,21.906 1.859,5.455 4.467,10.499 7.469,14.406 1.453,1.891 1.57,2.196 0.469,1.25 -3.897,-3.347 -9.355,-13.523 -11,-20.5 -1.197,-5.079 -1.204,-14.253 0,-18.969 3.25,-12.73 13.455,-22.521 25.844,-24.813 8.07,-1.492 16.962,1.588 24.25,8.406 2.224,2.08 4.251,3.593 4.5,3.344 0.249,-0.249 0.469,-4.02 0.469,-8.375 l 0,-7.938 -1.469,-2.188 4.406,-3.719 2.906,-2.219 c 1.604,-1.217 5.856,-3.806 9.469,-5.75 12.04,-6.477 13.406,-7.365 14.781,-9.813 2.036,-3.624 2.99,-8.723 2.125,-11.344 -1,-3.03 -3.284,-3.509 -18.781,-4 l -12.813,-0.406 -2.938,-2.031 c -1.168,-0.806 -5.576,-4.584 -8,-6.625 1.437,-5.04 3.406,-9.899 5.656,-13.688 2.511,-4.227 10.09,-13.726 13.313,-16.688 0.908,-0.834 1.656,-1.747 1.656,-2.031 0,-0.816 -7.414,-0.584 -11.938,0.375 -4.779,1.013 -11.11,3.74 -15.406,6.656 -6.707,4.554 -17.406,16.234 -19.594,21.375 -0.818,1.923 -0.073,-5.04 0.969,-9.09 0.763,-2.973 0.741,-3.052 -0.875,-3.75 -0.981,-0.423 -5.422,-0.688 -11.03,-0.688 -7.83,0.002 -10.199,0.231 -14.375,1.406 -0.941,0.265 -1.867,0.539 -2.781,0.844 -1.423,-1.277 -3.809,-3.383 -5.75,-5.125 1.653,-1.056 3.601,-3.125 3.688,-3.125 0.13,0 2.587,-2.175 5.469,-4.813 26.2,-23.977 59.871,-36.766 94.28,-36.969 m 108.94,41.34 c 0.164,0.179 0.338,0.353 0.5,0.531 l -0.5,0 z" />
    </g>
  </g>
</svg>
