<?xml version="1.0" encoding="UTF-8" standalone="no"?>
<svg
   xmlns:dc="http://purl.org/dc/elements/1.1/"
   xmlns:cc="http://creativecommons.org/ns#"
   xmlns:rdf="http://www.w3.org/1999/02/22-rdf-syntax-ns#"
   xmlns:svg="http://www.w3.org/2000/svg"
   xmlns="http://www.w3.org/2000/svg"
   xmlns:sodipodi="http://sodipodi.sourceforge.net/DTD/sodipodi-0.dtd"
   xmlns:inkscape="http://www.inkscape.org/namespaces/inkscape"
   version="1.1"
   viewBox="0 0 512 512"
   id="svg2"
   inkscape:version="0.91 r13725"
   sodipodi:docname="gda-control-center.svg">
  <defs
     id="defs16" />
  <sodipodi:namedview
     pagecolor="#ffffff"
     bordercolor="#666666"
     borderopacity="1"
     objecttolerance="10"
     gridtolerance="10"
     guidetolerance="10"
     inkscape:pageopacity="0"
     inkscape:pageshadow="2"
     inkscape:window-width="1680"
     inkscape:window-height="997"
     id="namedview14"
     showgrid="false"
     inkscape:zoom="0.4609375"
     inkscape:cx="256"
     inkscape:cy="256"
     inkscape:window-x="0"
     inkscape:window-y="35"
     inkscape:window-maximized="1"
     inkscape:current-layer="svg2" />
  <metadata
     id="metadata6184">
    <rdf:RDF>
      <cc:Work
         rdf:about="">
        <dc:format>image/svg+xml</dc:format>
        <dc:type
           rdf:resource="http://purl.org/dc/dcmitype/StillImage" />
      </cc:Work>
    </rdf:RDF>
  </metadata>
  <path
     inkscape:connector-curvature="0"
     id="path6178"
     d="m 255.98053,13.982881 c -104.25544,0 -188.766045,27.927721 -188.766045,62.385654 0,34.452905 84.493845,62.385655 188.766045,62.385655 104.25545,0 188.76605,-27.92772 188.76605,-62.385655 0,-34.452905 -84.5106,-62.385654 -188.76605,-62.385654 M 67.65028,97.387238 c -3.369027,6.050842 -5.353568,12.381592 -5.353568,18.861522 l 0,58.94958 c 0,45.52376 86.795168,82.51601 193.677118,82.51601 106.97078,0 193.7274,-37.02577 193.7274,-82.51601 l 0,-58.94958 c 0,-6.47993 -1.98622,-12.81068 -5.30496,-18.861522 -3.70258,33.346652 -86.55213,60.023982 -188.41406,60.023982 -101.86863,0 -184.575717,-26.67733 -188.330254,-60.023982 M 68.19167,215.21936 c -3.702576,6.2989 -5.894958,12.9984 -5.894958,19.79512 l 0,58.8993 c 0,45.55728 86.795168,82.41544 193.677118,82.41544 106.97078,0 193.7274,-36.87492 193.7274,-82.41544 l 0,-58.8993 c 0,-6.79504 -2.23596,-13.49286 -5.89496,-19.79512 -20.7941,36.03349 -96.84526,62.72423 -187.82741,62.72423 -90.91343,0 -167.00985,-26.7142 -187.777133,-62.72423 m 0,121.77103 c -3.702577,6.2989 -5.894958,12.85593 -5.894958,19.69623 l 0,58.99987 c 0,45.52376 86.795171,82.33163 193.677121,82.33163 106.97078,0 193.7274,-36.82966 193.7274,-82.33163 l 0,-58.99987 c 0,-6.8403 -2.23596,-13.39733 -5.89496,-19.69623 -20.7941,35.96645 -96.84526,62.62031 -187.82742,62.62031 -90.91343,0 -167.009844,-26.66056 -187.777126,-62.62031"
     style="fill:#009688" />
</svg>
