<?xml version="1.0" encoding="UTF-8" standalone="no"?>
<svg
   xmlns:dc="http://purl.org/dc/elements/1.1/"
   xmlns:cc="http://creativecommons.org/ns#"
   xmlns:rdf="http://www.w3.org/1999/02/22-rdf-syntax-ns#"
   xmlns:svg="http://www.w3.org/2000/svg"
   xmlns="http://www.w3.org/2000/svg"
   xmlns:sodipodi="http://sodipodi.sourceforge.net/DTD/sodipodi-0.dtd"
   xmlns:inkscape="http://www.inkscape.org/namespaces/inkscape"
   height="512"
   viewBox="0 0 512 512"
   width="512"
   version="1.1"
   id="svg2"
   inkscape:version="0.91 r"
   sodipodi:docname="gelemental.svg">
  <sodipodi:namedview
     pagecolor="#ffffff"
     bordercolor="#666666"
     borderopacity="1"
     objecttolerance="10"
     gridtolerance="10"
     guidetolerance="10"
     inkscape:pageopacity="0"
     inkscape:pageshadow="2"
     inkscape:window-width="647"
     inkscape:window-height="480"
     id="namedview32"
     showgrid="false"
     inkscape:zoom="0.4609375"
     inkscape:cx="263.59322"
     inkscape:cy="256"
     inkscape:window-x="0"
     inkscape:window-y="0"
     inkscape:window-maximized="0"
     inkscape:current-layer="svg2" />
  <metadata
     id="metadata70">
    <rdf:RDF>
      <cc:Work
         rdf:about="">
        <dc:format>image/svg+xml</dc:format>
        <dc:type
           rdf:resource="http://purl.org/dc/dcmitype/StillImage" />
      </cc:Work>
    </rdf:RDF>
  </metadata>
  <defs
     id="defs68">
    <radialGradient
       id="radialGradient21305"
       gradientUnits="userSpaceOnUse"
       cy="64"
       cx="64"
       r="64">
      <stop
         id="stop4218-0"
         stop-color="#fff" />
      <stop
         id="stop4220-2"
         stop-color="#e8e8e8"
         offset="0.688" />
      <stop
         id="stop4222-6"
         stop-color="#686868"
         offset="0.875" />
      <stop
         id="stop4224-6"
         offset="1" />
    </radialGradient>
    <filter
       id="filter3174"
       color-interpolation-filters="sRGB">
      <feGaussianBlur
         id="feGaussianBlur3176"
         stdDeviation="1.71" />
    </filter>
    <linearGradient
       id="linearGradient4544"
       gradientUnits="userSpaceOnUse"
       x2="0"
       gradientTransform="scale(1.0059 .99417)"
       y1="92.54"
       y2="7.02">
      <stop
         id="stop3750" />
      <stop
         id="stop3752"
         stop-opacity="0.588"
         offset="1" />
    </linearGradient>
    <linearGradient
       id="linearGradient8119"
       gradientUnits="userSpaceOnUse"
       x2="0"
       gradientTransform="matrix(6.1432 0 0 6.1432 -38.875 -38.875)"
       y1="6"
       y2="109.11">
      <stop
         id="stop3739-8"
         stop-color="#fff" />
      <stop
         id="stop3741-8"
         stop-color="#fff"
         stop-opacity="0"
         offset="1" />
    </linearGradient>
    <linearGradient
       id="linearGradient7289"
       y2="473.97"
       gradientUnits="userSpaceOnUse"
       y1="35.23"
       x2="251.02"
       x1="259.63">
      <stop
         id="stop18361"
         stop-color="#80638d" />
      <stop
         id="stop18363"
         stop-color="#553963"
         offset="1" />
    </linearGradient>
  </defs>
  <path
     id="path18299"
     d="m 168.33983,84.213178 0,23.741182 17.93706,0 c -0.20126,16.73227 -0.72084,70.87324 0.066,93.7438 -0.13719,5.23294 -13.01309,22.78115 -23.37769,36.89717 -6.45884,8.8375 -13.62282,18.58783 -20.74092,29.01618 -21.16011,31.14143 -41.65186,67.63701 -50.416661,83.22604 l -2.34114,4.12166 c -9.020417,15.91881 -9.125067,37.64614 -0.296772,52.82332 6.705806,11.50885 17.494423,17.83886 30.303053,17.83886 l 273.08659,0 c 12.78957,0 23.53158,-6.33001 30.23709,-17.83886 8.8375,-15.17718 8.76598,-36.90597 -0.26379,-52.82332 l -2.34099,-4.12166 c -8.76422,-15.59783 -29.2463,-52.08461 -50.41666,-83.22604 -7.10829,-10.43846 -14.25409,-20.18835 -20.74092,-29.01618 -10.3561,-14.11602 -23.21793,-31.65881 -23.34545,-36.86493 0.77762,-22.88961 0.21594,-77.03498 0.033,-93.77751 l 13.55217,0 0,-23.741178 -170.92828,0 z m 37.52449,28.654162 100.30567,0 c 0.20127,20.45657 0.59638,67.83047 -0.0989,88.20497 -0.3934,11.08791 9.03244,24.44764 27.13717,49.13125 6.34906,8.66367 13.38274,18.20968 20.34519,28.45629 20.70281,30.43644 40.92341,66.42342 49.55923,81.77501 l 2.34114,4.22059 c 5.57137,9.8072 5.72922,24.1164 0.3957,33.23736 -3.1288,5.38845 -7.60354,8.11155 -13.32133,8.11155 l -273.05727,0 c -5.68115,0 -10.18344,-2.71387 -13.32133,-8.11155 -5.32439,-9.1302 -5.13356,-23.43045 0.42867,-33.23736 l 2.34114,-4.22059 c 8.62703,-15.35159 28.82858,-51.33711 49.55924,-81.77501 6.94368,-10.2554 13.94439,-19.79262 20.31147,-28.45629 18.09536,-24.67335 27.53584,-38.04334 27.17089,-49.13125 -0.71357,-20.37303 -0.31848,-67.7484 -0.0989,-88.20497 z M 158.25005,294.9788 c -3.02811,4.16255 -6.1808,8.52003 -9.36456,13.22239 -12.44191,18.30642 -24.54438,39.78458 -29.67574,48.93339 l -1.35192,2.44007 c -5.29699,9.35885 -5.36119,22.09961 -0.16488,31.02857 3.96131,6.76077 10.27651,10.48567 17.80516,10.48567 l 241.076,0 c 7.51985,0 13.84443,-3.7249 17.80515,-10.48567 5.15966,-8.92896 5.1173,-21.6687 -0.19795,-31.02857 l -1.35186,-2.44007 c -5.15057,-9.14852 -17.1925,-30.62697 -29.6435,-48.93339 -3.18362,-4.70236 -6.3602,-9.05984 -9.39754,-13.22239 0,0 -15.78837,6.54898 -64.43008,8.1775 -48.64172,1.6467 -56.83343,13.89368 -84.21391,11.44188 -27.38194,-2.46089 -46.88876,-19.61967 -46.88876,-19.61967 z m 10.68338,32.5778 c 8.97469,0 16.25592,7.27215 16.25592,16.25592 0,8.97469 -7.28138,16.25592 -16.25592,16.25592 -8.97468,0 -16.28963,-7.27214 -16.28963,-16.25592 0,-8.98377 7.31436,-16.25592 16.28963,-16.25592 z m 69.24486,4.02272 c 5.40677,0 9.82611,4.39559 9.82611,9.79313 0,5.42509 -4.41934,9.85908 -9.82611,9.85908 -5.42508,0 -9.79312,-4.42491 -9.79312,-9.85908 0,-5.38845 4.37727,-9.79313 9.79312,-9.79313 z m 88.79858,2.67092 c 9.71574,0 17.54133,7.87205 17.54133,17.54133 0,9.67909 -7.82632,17.54133 -17.54133,17.54133 -9.67001,0 -17.50908,-7.85373 -17.50908,-17.54133 0,-9.66986 7.83907,-17.54133 17.50908,-17.54133 z m -49.36137,34.39085 c 4.24492,0 7.68284,3.43792 7.68284,7.68283 -0.009,4.23569 -3.44715,7.68284 -7.68284,7.68284 -4.24492,0 -7.68283,-3.44715 -7.68283,-7.68284 0,-4.24491 3.43791,-7.68283 7.68283,-7.68283 z m -90.61163,7.68283 c 3.20194,0 5.80339,2.59222 5.80339,5.80339 0,3.22026 -2.60145,5.83636 -5.80339,5.83636 -3.21117,0 -5.83636,-2.6161 -5.83636,-5.83636 0,-3.21117 2.62519,-5.80339 5.83636,-5.80339 z m 158.07422,0 c 3.22026,0 5.80338,2.59222 5.80338,5.80339 -0.009,3.22026 -2.59221,5.83636 -5.80338,5.83636 -3.20194,0 -5.80338,-2.6161 -5.80338,-5.83636 0,-3.21117 2.60144,-5.80339 5.80338,-5.80339 z"
     inkscape:connector-curvature="0"
     style="fill:#009688" />
</svg>
