<?xml version="1.0" encoding="UTF-8" standalone="no"?>
<svg
   xmlns:dc="http://purl.org/dc/elements/1.1/"
   xmlns:cc="http://creativecommons.org/ns#"
   xmlns:rdf="http://www.w3.org/1999/02/22-rdf-syntax-ns#"
   xmlns:svg="http://www.w3.org/2000/svg"
   xmlns="http://www.w3.org/2000/svg"
   xmlns:sodipodi="http://sodipodi.sourceforge.net/DTD/sodipodi-0.dtd"
   xmlns:inkscape="http://www.inkscape.org/namespaces/inkscape"
   height="512"
   viewBox="0 0 512 512"
   width="512"
   version="1.1"
   id="svg2"
   inkscape:version="0.91 r"
   sodipodi:docname="gensgs.svg">
  <sodipodi:namedview
     pagecolor="#ffffff"
     bordercolor="#666666"
     borderopacity="1"
     objecttolerance="10"
     gridtolerance="10"
     guidetolerance="10"
     inkscape:pageopacity="0"
     inkscape:pageshadow="2"
     inkscape:window-width="640"
     inkscape:window-height="480"
     id="namedview23"
     showgrid="false"
     inkscape:zoom="0.4609375"
     inkscape:cx="256"
     inkscape:cy="256"
     inkscape:window-x="0"
     inkscape:window-y="0"
     inkscape:window-maximized="0"
     inkscape:current-layer="svg2" />
  <metadata
     id="metadata70">
    <rdf:RDF>
      <cc:Work
         rdf:about="">
        <dc:format>image/svg+xml</dc:format>
        <dc:type
           rdf:resource="http://purl.org/dc/dcmitype/StillImage" />
      </cc:Work>
    </rdf:RDF>
  </metadata>
  <defs
     id="defs68">
    <radialGradient
       id="radialGradient21305"
       gradientUnits="userSpaceOnUse"
       cy="64"
       cx="64"
       r="64">
      <stop
         id="stop4218-0"
         stop-color="#fff" />
      <stop
         id="stop4220-2"
         stop-color="#e8e8e8"
         offset="0.688" />
      <stop
         id="stop4222-6"
         stop-color="#686868"
         offset="0.875" />
      <stop
         id="stop4224-6"
         offset="1" />
    </radialGradient>
    <filter
       id="filter3174"
       color-interpolation-filters="sRGB">
      <feGaussianBlur
         id="feGaussianBlur3176"
         stdDeviation="1.71" />
    </filter>
    <linearGradient
       id="linearGradient4544"
       gradientUnits="userSpaceOnUse"
       x2="0"
       gradientTransform="scale(1.0059 .99417)"
       y1="92.54"
       y2="7.02">
      <stop
         id="stop3750" />
      <stop
         id="stop3752"
         stop-opacity="0.588"
         offset="1" />
    </linearGradient>
  </defs>
  <path
     id="path3064"
     fill="#009688"
     d="m372.9 194.37c-12.947 0-23.889 7.8734-28.346 18.905l-11.2 34.305v-51.451h-54.598c-9.8445 0-18.681 3.8975-25.199 10.505v-10.505h-55.998c-10.416 0-19.991 4.6815-26.599 11.905v-11.905h-52.504c-22.747 0-41.607 18.379-41.652 42.704 0 11.334 4.9055 21.481 11.905 29.052h-11.905v49.738h53.199c14.918-0.0448 29.534-9.4973 34.652-20.697l0.34719-0.30239c5.947 12.376 18.2 20.999 32.546 20.999h55.998v-10.897c6.563 6.6526 15.31 10.897 25.199 10.897h156.45l-33.599-104.34c-4.5919-11.065-15.702-18.905-28.705-18.905m-3.5055 8.747c1.2208-0.1792 2.2287 0 3.5055 0 10.102 0 18.771 6.2158 21.347 15.052l29.399 90.65h-56.704v-14.347h37.452l-24.147-73.851c-1.176-2.8895-4.1103-4.9055-7.347-4.9055s-5.8238 2.3183-6.9998 5.2526l-29.052 87.85h-58.104c-15.534 0-27.999-12.992-27.999-29.052v-46.199c0-16.06 12.465-29.052 27.999-29.052h46.546v14.705h-46.546c-7.739 0-14 6.3054-14 14.347v46.199c0 8.0526 6.6078 14.705 14.347 14.705h31.852v-39.546h-25.546v-14.257h39.904v57.656l26.599-80.055c2.2735-7.739 9.0606-13.776 17.505-15.142m-251.3 1.4h44.799v14.739h-44.799c-10.461 0-18.905 8.7918-18.905 19.599 0 10.852 8.3998 19.599 18.905 19.599h11.547c8.6574 0 15.747 7.5262 15.747 16.452 0 8.971-7.0894 16.139-15.747 16.139h-44.799v-14.347h44.799c0.87358 0 1.7472-0.82878 1.7472-1.7472 0-0.91838-0.87357-1.7472-1.7472-1.7472h-11.547c-18.289 0-33.252-15.355-33.252-34.305 0-18.939 14.963-34.338 33.252-34.338m79.451 0h47.946v14.739h-47.946c-7.7838 0-14 6.4734-14 14.347v46.199c0 8.1422 6.2158 14.705 14 14.705h47.599v14.347h-47.599c-15.579 0-27.999-12.992-27.999-29.052v-46.199c0-16.105 12.42-29.097 27.999-29.097m175.34 14.739c2.0159 0 3.9423 1.3104 4.5471 3.1471l22.399 68.598h-32.905v-12.947l-10.147 30.799h-16.452l28.346-86.45c0.61598-1.8368 2.1839-3.1471 4.1999-3.1471m-254.79 3.5055h44.799v14.347h-44.799c-0.91837 0-1.7472 0.78397-1.7472 1.7472 0 0.96317 0.82878 1.7472 1.7472 1.7472h11.547c18.334 0 33.252 15.355 33.252 34.305 0 18.905-14.918 34.305-33.252 34.305h-44.799v-14.705h44.799c10.505 0 19.252-8.7918 19.252-19.599 0-10.808-8.747-19.599-19.252-19.599l-11.547-0.34719c-8.6574 0-15.747-7.1342-15.747-16.105 0-8.9262 7.0894-16.139 15.747-16.139m79.451 0h47.946v14.347h-41.338c-3.3263 0-3.1023 3.5391-3.1023 3.5391h34.305v14.302h-48.304v-21.302c0-6.1262 4.5023-10.897 10.505-10.897m81.198 0h46.546v14.347h-39.938c-3.3263 0.0896-3.1023 3.5391-3.1023 3.5391v32.502c0 1.8816 1.3552 3.5391 3.1023 3.5391h8.3998v-3.5391h-8.3998v-14.705h22.399v32.546h-29.052c-5.947 0-10.505-5.0287-10.505-11.2v-46.199c0-6.171 4.5471-10.897 10.505-10.897m-91.703 35.738h48.304v14.705h-34.305c0.0448 3.4607 3.1471 3.5391 3.1471 3.5391h40.946v14.347h-47.599c-5.9022 0-10.505-5.0735-10.505-11.2m185.85-19.991-4.9391 15.052h9.7997m-4.9055-15.052" />
</svg>
