<?xml version="1.0" encoding="UTF-8" standalone="no"?>
<svg
   xmlns:dc="http://purl.org/dc/elements/1.1/"
   xmlns:cc="http://creativecommons.org/ns#"
   xmlns:rdf="http://www.w3.org/1999/02/22-rdf-syntax-ns#"
   xmlns:svg="http://www.w3.org/2000/svg"
   xmlns="http://www.w3.org/2000/svg"
   xmlns:sodipodi="http://sodipodi.sourceforge.net/DTD/sodipodi-0.dtd"
   xmlns:inkscape="http://www.inkscape.org/namespaces/inkscape"
   height="512"
   viewBox="0 0 512 512"
   width="512"
   version="1.1"
   id="svg2"
   inkscape:version="0.91 r"
   sodipodi:docname="genymotion.svg">
  <defs
     id="defs16" />
  <sodipodi:namedview
     pagecolor="#ffffff"
     bordercolor="#666666"
     borderopacity="1"
     objecttolerance="10"
     gridtolerance="10"
     guidetolerance="10"
     inkscape:pageopacity="0"
     inkscape:pageshadow="2"
     inkscape:window-width="640"
     inkscape:window-height="480"
     id="namedview14"
     showgrid="false"
     inkscape:zoom="0.4609375"
     inkscape:cx="256"
     inkscape:cy="256"
     inkscape:window-x="0"
     inkscape:window-y="0"
     inkscape:window-maximized="0"
     inkscape:current-layer="svg2" />
  <metadata
     id="metadata90">
    <rdf:RDF>
      <cc:Work
         rdf:about="">
        <dc:format>image/svg+xml</dc:format>
        <dc:type
           rdf:resource="http://purl.org/dc/dcmitype/StillImage" />
      </cc:Work>
    </rdf:RDF>
  </metadata>
  <g
     id="g4"
     font-family="Gentium Book Basic"
     font-size="208.33"
     line-height="125%"
     word-spacing="0"
     letter-spacing="0" />
  <path
     id="path84"
     fill="#009688"
     d="m182.43 156.19c-52.965 0-95.94 42.95-95.94 95.91 0 52.957 42.973 95.91 95.94 95.91 52.965 0 95.88-42.95 95.88-95.91 0-52.957-42.911-95.91-95.88-95.91m-0.03 19.573c42.16 0 76.33 34.19 76.33 76.33 0 42.15-34.18 76.33-76.33 76.33-42.16 0-76.33-34.19-76.33-76.33 0-42.15 34.18-76.33 76.33-76.33m174.08 13.151c-34.893 0-63.18 28.29-63.18 63.18 0 34.893 28.29 63.18 63.18 63.18 34.893 0 63.18-28.29 63.18-63.18 0-34.893-28.29-63.18-63.18-63.18m0 19.573c24.08 0 43.611 19.527 43.611 43.611 0 24.08-19.527 43.611-43.611 43.611-24.08 0-43.611-19.527-43.611-43.611 0-24.08 19.527-43.611 43.611-43.611" />
</svg>
