<?xml version="1.0" encoding="UTF-8" standalone="no"?>
<svg
   xmlns:dc="http://purl.org/dc/elements/1.1/"
   xmlns:cc="http://creativecommons.org/ns#"
   xmlns:rdf="http://www.w3.org/1999/02/22-rdf-syntax-ns#"
   xmlns:svg="http://www.w3.org/2000/svg"
   xmlns="http://www.w3.org/2000/svg"
   xmlns:sodipodi="http://sodipodi.sourceforge.net/DTD/sodipodi-0.dtd"
   xmlns:inkscape="http://www.inkscape.org/namespaces/inkscape"
   viewBox="0 0 512 512"
   version="1.1"
   id="svg2"
   inkscape:version="0.91 r"
   sodipodi:docname="applications-multimedia.svg">
  <defs
     id="defs14" />
  <sodipodi:namedview
     pagecolor="#ffffff"
     bordercolor="#666666"
     borderopacity="1"
     objecttolerance="10"
     gridtolerance="10"
     guidetolerance="10"
     inkscape:pageopacity="0"
     inkscape:pageshadow="2"
     inkscape:window-width="1920"
     inkscape:window-height="1028"
     id="namedview12"
     showgrid="false"
     inkscape:zoom="0.4609375"
     inkscape:cx="-64"
     inkscape:cy="256"
     inkscape:window-x="0"
     inkscape:window-y="0"
     inkscape:window-maximized="1"
     inkscape:current-layer="svg2" />
  <metadata
     id="metadata854">
    <rdf:RDF>
      <cc:Work
         rdf:about="">
        <dc:format>image/svg+xml</dc:format>
        <dc:type
           rdf:resource="http://purl.org/dc/dcmitype/StillImage" />
      </cc:Work>
    </rdf:RDF>
  </metadata>
  <path
     inkscape:connector-curvature="0"
     d="m 216.39046,46.881186 c -99.60504,0 -180.468693,80.827374 -180.468693,180.429824 0,99.60374 80.866243,180.18363 180.468693,180.18363 4.83953,0 9.63242,-0.22805 14.3696,-0.6077 9.06749,-50.92202 60.65551,-87.20234 111.3158,-85.67339 l 0,-223.111026 C 309.60497,66.440168 265.36889,46.881186 216.42933,46.881186 l -0.0402,0 m -0.0816,20.848229 c 8.99752,0.0039 17.98986,0.808533 26.84614,2.307688 l -7.65255,94.507647 c -3.51012,-1.07027 -7.0643,-1.72461 -10.68974,-2.18718 L 212.42035,67.769582 c 1.28407,-0.03239 2.60441,-0.04017 3.88718,-0.04017 m 52.841,9.596145 c 26.55071,9.361619 49.83232,25.65537 67.77943,46.60596 l -66.28935,67.77942 c -6.54341,-9.98616 -15.87653,-18.07278 -26.76451,-23.20127 l 25.26665,-91.180223 m 96.24652,20.651278 0,2.955555 0,247.65207 c -16.73299,-5.47962 -36.89321,-5.70378 -57.08968,1.86326 -19.48772,7.304 -35.03643,19.91401 -44.54058,34.45853 -9.50544,14.54452 -12.86656,31.20108 -7.49059,46.40383 5.37726,15.21182 18.38635,25.87434 34.78246,30.73332 16.39612,4.85897 36.15205,4.10486 55.63589,-3.19915 33.02415,-12.37677 55.06445,-39.84616 54.62779,-66.65214 -0.001,-0.0609 0,-0.14123 0,-0.20213 l 0,-201.2003 c 22.44327,5.14662 34.72156,21.84723 40.81536,40.61323 6.42421,19.77666 5.74007,41.4386 2.99702,49.8051 -0.70877,2.15868 -1.03399,4.26165 -0.76966,6.19487 0.26432,1.93322 1.14542,4.14244 3.40128,5.02094 2.25456,0.8785 4.62833,-0.001 6.5175,-1.49786 1.89694,-1.49786 3.70577,-3.78741 5.7906,-7.12649 14.35664,-23.01209 18.05982,-43.2306 15.02264,-61.18418 -3.03718,-17.9458 -12.54003,-33.56837 -23.60683,-47.57775 -11.06679,-14.00939 -23.89966,-26.53647 -33.68887,-38.70981 -9.7905,-12.17335 -16.48034,-23.65477 -16.48034,-35.39016 l 0,-2.955552 -2.99701,0 -29.95718,0 -2.95555,0 M 216.39305,197.51061 c 16.41425,0 29.59956,13.38744 29.59956,29.80169 0,16.41426 -13.18401,29.5594 -29.59956,29.5594 -16.41425,0 -29.76153,-13.14255 -29.76153,-29.5594 0,-16.41425 13.34728,-29.80169 29.76153,-29.80169 m -40.97733,79.93073 c 9.3383,7.59296 20.55669,12.43379 32.39315,14.01069 l -32.39315,89.28328 c -26.65697,-7.11094 -51.41051,-21.0996 -71.34266,-40.97733 l 71.34266,-62.31145"
     id="path848"
     style="fill:#009688;fill-opacity:1" />
</svg>
