<?xml version="1.0" encoding="UTF-8" standalone="no"?>
<svg
   xmlns:dc="http://purl.org/dc/elements/1.1/"
   xmlns:cc="http://creativecommons.org/ns#"
   xmlns:rdf="http://www.w3.org/1999/02/22-rdf-syntax-ns#"
   xmlns:svg="http://www.w3.org/2000/svg"
   xmlns="http://www.w3.org/2000/svg"
   xmlns:sodipodi="http://sodipodi.sourceforge.net/DTD/sodipodi-0.dtd"
   xmlns:inkscape="http://www.inkscape.org/namespaces/inkscape"
   viewBox="0 0 48 48"
   id="svg2"
   version="1.1"
   inkscape:version="0.91 r13725"
   sodipodi:docname="gnome-taquin.svg">
  <metadata
     id="metadata83">
    <rdf:RDF>
      <cc:Work
         rdf:about="">
        <dc:format>image/svg+xml</dc:format>
        <dc:type
           rdf:resource="http://purl.org/dc/dcmitype/StillImage" />
        <dc:title></dc:title>
      </cc:Work>
    </rdf:RDF>
  </metadata>
  <sodipodi:namedview
     pagecolor="#4b0000"
     bordercolor="#666666"
     borderopacity="1"
     objecttolerance="10"
     gridtolerance="10"
     guidetolerance="10"
     inkscape:pageopacity="1"
     inkscape:pageshadow="2"
     inkscape:window-width="1680"
     inkscape:window-height="997"
     id="namedview81"
     showgrid="false"
     inkscape:zoom="13.906433"
     inkscape:cx="11.170753"
     inkscape:cy="21.078147"
     inkscape:window-x="0"
     inkscape:window-y="35"
     inkscape:window-maximized="1"
     inkscape:current-layer="svg2" />
  <defs
     id="defs4">
    <linearGradient
       id="linearGradient4087"
       x1="1"
       x2="47"
       gradientUnits="userSpaceOnUse">
      <stop
         style="stop-color:#cfcfcf;stop-opacity:1"
         id="stop7" />
      <stop
         offset="1"
         style="stop-color:#d9d9d9;stop-opacity:1"
         id="stop9" />
    </linearGradient>
  </defs>
  <rect
     id="rect33"
     style="opacity:1;fill:#009688;fill-opacity:1;fill-rule:nonzero;stroke:none"
     width="9.6869793"
     height="9.6869793"
     x="8.2864904"
     y="7.639307" />
  <rect
     id="rect35"
     style="fill:#009688;fill-opacity:1;fill-rule:nonzero;stroke:none"
     width="9.6869793"
     height="9.6869793"
     x="26.045952"
     y="7.639307" />
  <rect
     id="rect37"
     style="opacity:1;fill:#009688;fill-opacity:1;fill-rule:nonzero;stroke:none"
     width="9.6869793"
     height="9.6869793"
     x="8.2864904"
     y="18.940783" />
  <rect
     id="rect39"
     style="opacity:1;fill:#009688;fill-opacity:1;fill-rule:nonzero;stroke:none"
     width="9.6869793"
     height="9.6869793"
     x="19.587965"
     y="18.940783" />
  <rect
     id="rect41"
     style="opacity:1;fill:#009688;fill-opacity:1;fill-rule:nonzero;stroke:none"
     width="9.6869793"
     height="9.6869793"
     x="30.889441"
     y="18.940783" />
  <rect
     id="rect43"
     style="opacity:1;fill:#009688;fill-opacity:1;fill-rule:nonzero;stroke:none"
     width="9.6869793"
     height="9.6869793"
     x="8.2864904"
     y="30.242258" />
  <rect
     id="rect45"
     style="opacity:1;fill:#009688;fill-opacity:1;fill-rule:nonzero;stroke:none"
     width="9.6869793"
     height="9.6869793"
     x="19.587965"
     y="30.242258" />
  <rect
     id="rect47"
     style="opacity:1;fill:#009688;fill-opacity:1;fill-rule:nonzero;stroke:none"
     width="9.6869793"
     height="9.6869793"
     x="30.889441"
     y="30.242258" />
  <g
     id="g49"
     style="fill:#009688;fill-opacity:1;stroke:none"
     transform="matrix(1.6144965,0,0,1.6144965,-14.316461,-14.963644)">
    <path
       inkscape:connector-curvature="0"
       id="path51"
       d="m 16.15,18.502 2.065,0 0,0.498 -2.777,0 0,-0.498 c 0.225,-0.232 0.53,-0.544 0.917,-0.935 0.389,-0.393 0.633,-0.646 0.732,-0.759 0.189,-0.213 0.321,-0.393 0.396,-0.539 0.076,-0.148 0.114,-0.294 0.114,-0.437 0,-0.232 -0.082,-0.422 -0.246,-0.568 -0.162,-0.146 -0.374,-0.22 -0.636,-0.22 -0.186,0 -0.382,0.032 -0.589,0.097 -0.205,0.064 -0.425,0.162 -0.659,0.293 l 0,-0.598 c 0.238,-0.096 0.461,-0.168 0.668,-0.217 0.207,-0.049 0.396,-0.073 0.568,-0.073 0.453,0 0.814,0.113 1.084,0.34 0.27,0.227 0.404,0.529 0.404,0.908 0,0.18 -0.034,0.351 -0.103,0.513 -0.066,0.16 -0.188,0.35 -0.366,0.568 -0.049,0.057 -0.204,0.221 -0.466,0.492 -0.262,0.27 -0.631,0.647 -1.107,1.134"
       style="fill:#009688" />
  </g>
  <g
     id="g53"
     style="fill:#009688;fill-opacity:1;stroke:none"
     transform="matrix(1.6144965,0,0,1.6144965,-14.316461,-14.963644)">
    <path
       inkscape:connector-curvature="0"
       id="path55"
       d="m 28.05,16.642 c 0.283,0.061 0.504,0.187 0.662,0.378 0.16,0.191 0.24,0.428 0.24,0.709 0,0.432 -0.148,0.766 -0.445,1 -0.297,0.236 -0.719,0.354 -1.266,0.354 -0.184,0 -0.373,-0.019 -0.568,-0.056 -0.193,-0.035 -0.394,-0.089 -0.601,-0.161 l 0,-0.571 c 0.164,0.096 0.344,0.168 0.539,0.217 0.195,0.049 0.399,0.073 0.612,0.073 0.371,0 0.653,-0.073 0.847,-0.22 0.195,-0.146 0.293,-0.359 0.293,-0.639 0,-0.258 -0.091,-0.459 -0.272,-0.604 -0.18,-0.146 -0.431,-0.22 -0.753,-0.22 l -0.51,0 0,-0.486 0.533,0 c 0.291,0 0.514,-0.058 0.668,-0.173 0.154,-0.117 0.231,-0.285 0.231,-0.504 0,-0.225 -0.08,-0.396 -0.24,-0.516 -0.158,-0.121 -0.386,-0.182 -0.683,-0.182 -0.162,0 -0.336,0.018 -0.521,0.053 -0.186,0.035 -0.39,0.09 -0.612,0.164 l 0,-0.527 c 0.225,-0.063 0.435,-0.109 0.63,-0.141 0.197,-0.031 0.383,-0.047 0.557,-0.047 0.449,0 0.805,0.103 1.066,0.308 0.262,0.203 0.393,0.479 0.393,0.826 0,0.242 -0.069,0.447 -0.208,0.615 -0.139,0.166 -0.336,0.281 -0.592,0.346"
       style="fill:#009688" />
  </g>
  <g
     id="g57"
     style="fill:#009688;fill-opacity:1;stroke:none"
     transform="matrix(1.6144965,0,0,1.6144965,-14.316461,-14.963644)">
    <path
       inkscape:connector-curvature="0"
       id="path59"
       d="m 17.268,22.14 -1.494,2.335 1.494,0 0,-2.335 m -0.155,-0.516 0.744,0 0,2.851 0.624,0 0,0.492 -0.624,0 0,1.031 -0.589,0 0,-1.031 -1.975,0 0,-0.571 1.819,-2.771"
       style="fill:#009688" />
  </g>
  <g
     id="g61"
     style="fill:#009688;fill-opacity:1;stroke:none"
     transform="matrix(1.6144965,0,0,1.6144965,-14.316461,-14.963644)">
    <path
       inkscape:connector-curvature="0"
       id="path63"
       d="m 22.969,21.626 2.323,0 0,0.498 -1.781,0 0,1.072 c 0.086,-0.029 0.172,-0.051 0.258,-0.064 0.086,-0.016 0.172,-0.023 0.258,-0.023 0.488,0 0.875,0.134 1.16,0.401 0.285,0.268 0.428,0.63 0.428,1.087 0,0.471 -0.146,0.837 -0.439,1.099 -0.293,0.26 -0.706,0.39 -1.239,0.39 -0.184,0 -0.371,-0.016 -0.563,-0.047 -0.189,-0.031 -0.386,-0.078 -0.589,-0.141 l 0,-0.595 c 0.176,0.096 0.357,0.167 0.545,0.214 0.187,0.047 0.386,0.07 0.595,0.07 0.338,0 0.605,-0.089 0.803,-0.267 0.197,-0.178 0.296,-0.419 0.296,-0.724 0,-0.305 -0.099,-0.546 -0.296,-0.724 -0.197,-0.178 -0.465,-0.267 -0.803,-0.267 -0.158,0 -0.316,0.018 -0.475,0.053 -0.156,0.035 -0.316,0.09 -0.48,0.164 l 0,-2.197"
       style="fill:#009688" />
  </g>
  <g
     id="g65"
     style="fill:#009688;fill-opacity:1;stroke:none"
     transform="matrix(1.6144965,0,0,1.6144965,-14.316461,-14.963644)">
    <path
       inkscape:connector-curvature="0"
       id="path67"
       d="m 30.98,23.577 c -0.266,0 -0.477,0.091 -0.633,0.272 -0.154,0.182 -0.231,0.431 -0.231,0.747 0,0.314 0.077,0.563 0.231,0.747 0.156,0.182 0.367,0.272 0.633,0.272 0.266,0 0.476,-0.091 0.63,-0.272 0.156,-0.184 0.234,-0.433 0.234,-0.747 0,-0.316 -0.078,-0.565 -0.234,-0.747 -0.154,-0.182 -0.364,-0.272 -0.63,-0.272 m 1.175,-1.854 0,0.539 c -0.148,-0.07 -0.299,-0.124 -0.451,-0.161 -0.15,-0.037 -0.3,-0.056 -0.448,-0.056 -0.391,0 -0.689,0.132 -0.896,0.396 -0.205,0.264 -0.322,0.662 -0.352,1.195 0.115,-0.17 0.26,-0.3 0.434,-0.39 0.174,-0.092 0.365,-0.138 0.574,-0.138 0.439,0 0.786,0.134 1.04,0.401 0.256,0.266 0.384,0.628 0.384,1.087 0,0.449 -0.133,0.81 -0.398,1.081 -0.266,0.271 -0.619,0.407 -1.061,0.407 -0.506,0 -0.893,-0.193 -1.16,-0.58 -0.268,-0.389 -0.401,-0.951 -0.401,-1.688 0,-0.691 0.164,-1.242 0.492,-1.652 0.328,-0.412 0.769,-0.618 1.321,-0.618 0.148,0 0.298,0.015 0.448,0.044 0.152,0.029 0.311,0.073 0.475,0.132"
       style="fill:#009688" />
  </g>
  <g
     id="g69"
     style="fill:#009688;fill-opacity:1;stroke:none"
     transform="matrix(1.6144965,0,0,1.6144965,-14.316461,-14.963644)">
    <path
       inkscape:connector-curvature="0"
       id="path71"
       d="m 15.492,28.626 2.812,0 0,0.252 -1.588,4.122 -0.618,0 1.494,-3.876 -2.101,0 0,-0.498"
       style="fill:#009688" />
  </g>
  <g
     id="g73"
     style="fill:#009688;fill-opacity:1;stroke:none"
     transform="matrix(1.6144965,0,0,1.6144965,-14.316461,-14.963644)">
    <path
       inkscape:connector-curvature="0"
       id="path75"
       d="m 23.907,30.923 c -0.281,0 -0.503,0.075 -0.665,0.226 -0.16,0.15 -0.24,0.357 -0.24,0.621 0,0.264 0.08,0.471 0.24,0.621 0.162,0.15 0.384,0.226 0.665,0.226 0.281,0 0.503,-0.075 0.665,-0.226 0.162,-0.152 0.243,-0.359 0.243,-0.621 0,-0.264 -0.081,-0.471 -0.243,-0.621 -0.16,-0.15 -0.382,-0.226 -0.665,-0.226 m -0.592,-0.252 c -0.254,-0.063 -0.452,-0.181 -0.595,-0.354 -0.141,-0.174 -0.211,-0.386 -0.211,-0.636 0,-0.35 0.124,-0.626 0.372,-0.829 0.25,-0.203 0.592,-0.305 1.025,-0.305 0.436,0 0.777,0.102 1.025,0.305 0.248,0.203 0.372,0.479 0.372,0.829 0,0.25 -0.071,0.462 -0.214,0.636 -0.141,0.174 -0.337,0.292 -0.589,0.354 0.285,0.066 0.507,0.196 0.665,0.39 0.16,0.193 0.24,0.43 0.24,0.709 0,0.424 -0.13,0.749 -0.39,0.976 -0.258,0.227 -0.628,0.34 -1.11,0.34 -0.482,0 -0.854,-0.113 -1.113,-0.34 -0.258,-0.227 -0.387,-0.552 -0.387,-0.976 0,-0.279 0.08,-0.516 0.24,-0.709 0.16,-0.193 0.383,-0.323 0.668,-0.39 m -0.217,-0.935 c 0,0.227 0.07,0.403 0.211,0.53 0.143,0.127 0.342,0.19 0.598,0.19 0.254,0 0.452,-0.063 0.595,-0.19 0.145,-0.127 0.217,-0.304 0.217,-0.53 0,-0.227 -0.072,-0.403 -0.217,-0.53 -0.143,-0.127 -0.341,-0.19 -0.595,-0.19 -0.256,0 -0.455,0.063 -0.598,0.19 -0.141,0.127 -0.211,0.304 -0.211,0.53"
       style="fill:#009688" />
  </g>
  <g
     id="g77"
     style="fill:#009688;fill-opacity:1;stroke:none"
     transform="matrix(1.6144965,0,0,1.6144965,-14.316461,-14.963644)">
    <path
       inkscape:connector-curvature="0"
       id="path79"
       d="m 29.659,32.909 0,-0.539 c 0.148,0.07 0.299,0.124 0.451,0.161 0.152,0.037 0.302,0.056 0.448,0.056 0.391,0 0.688,-0.131 0.894,-0.393 0.207,-0.264 0.325,-0.663 0.354,-1.198 -0.113,0.168 -0.257,0.297 -0.431,0.387 -0.174,0.09 -0.366,0.135 -0.577,0.135 -0.438,0 -0.784,-0.132 -1.04,-0.396 -0.254,-0.266 -0.381,-0.628 -0.381,-1.087 0,-0.449 0.133,-0.81 0.398,-1.081 0.266,-0.271 0.619,-0.407 1.061,-0.407 0.506,0 0.892,0.194 1.157,0.583 0.268,0.387 0.401,0.949 0.401,1.688 0,0.689 -0.164,1.24 -0.492,1.652 -0.326,0.41 -0.766,0.615 -1.318,0.615 -0.148,0 -0.299,-0.015 -0.451,-0.044 -0.152,-0.029 -0.311,-0.073 -0.475,-0.132 m 1.178,-1.854 c 0.266,0 0.476,-0.091 0.63,-0.272 0.156,-0.182 0.234,-0.431 0.234,-0.747 0,-0.314 -0.078,-0.562 -0.234,-0.744 -0.154,-0.184 -0.364,-0.275 -0.63,-0.275 -0.266,0 -0.477,0.092 -0.633,0.275 -0.154,0.182 -0.231,0.43 -0.231,0.744 0,0.316 0.077,0.565 0.231,0.747 0.156,0.182 0.367,0.272 0.633,0.272"
       style="fill:#009688" />
  </g>
</svg>
