<svg xmlns="http://www.w3.org/2000/svg" width="48" height="48">
<defs>
<defs
     id="defs5">
  </defs>
  <path
     d="m 14.170213,2 0,7.489362 7.489361,0 0,-7.489362 -7.489361,0 z m 12.170213,4.6808511 0,2.8085109 7.489361,0 0,-2.8085109 -7.489361,0 z M 2,14.170213 l 0,7.489361 7.4893617,0 0,-7.489361 -7.4893617,0 z m 12.170213,0 0,7.489361 7.489361,0 0,-7.489361 -7.489361,0 z m 12.170213,0 0,7.489361 7.489361,0 0,-7.489361 -7.489361,0 z M 2,26.340426 l 0,7.489361 7.4893617,0 0,-7.489361 -7.4893617,0 z m 12.170213,0 0,7.489361 7.489361,0 0,-7.489361 -7.489361,0 z m 12.170213,0 0,7.489361 7.489361,0 0,-7.489361 -7.489361,0 z m 12.170212,0 0,7.489361 7.489362,0 0,-7.489361 -7.489362,0 z M 2,38.510638 2,46 l 7.4893617,0 0,-7.489362 -7.4893617,0 z m 12.170213,0 0,7.489362 7.489361,0 0,-7.489362 -7.489361,0 z m 12.170213,0 0,7.489362 7.489361,0 0,-7.489362 -7.489361,0 z m 12.170212,0 0,7.489362 L 46,46 l 0,-7.489362 -7.489362,0 z"
     id="path-main"
      />
</defs>

<use id="1" style="fill:#009688" xlink:href="#path-main" />



</svg>
