<?xml version="1.0" encoding="UTF-8" standalone="no"?>
<svg
   xmlns:dc="http://purl.org/dc/elements/1.1/"
   xmlns:cc="http://creativecommons.org/ns#"
   xmlns:rdf="http://www.w3.org/1999/02/22-rdf-syntax-ns#"
   xmlns:svg="http://www.w3.org/2000/svg"
   xmlns="http://www.w3.org/2000/svg"
   xmlns:sodipodi="http://sodipodi.sourceforge.net/DTD/sodipodi-0.dtd"
   xmlns:inkscape="http://www.inkscape.org/namespaces/inkscape"
   viewBox="0 0 512 512"
   id="svg2"
   version="1.1"
   inkscape:version="0.91 r13725"
   sodipodi:docname="swell-foop.svg">
  <metadata
     id="metadata168">
    <rdf:RDF>
      <cc:Work
         rdf:about="">
        <dc:format>image/svg+xml</dc:format>
        <dc:type
           rdf:resource="http://purl.org/dc/dcmitype/StillImage" />
      </cc:Work>
    </rdf:RDF>
  </metadata>
  <defs
     id="defs166" />
  <sodipodi:namedview
     pagecolor="#ffffff"
     bordercolor="#666666"
     borderopacity="1"
     objecttolerance="10"
     gridtolerance="10"
     guidetolerance="10"
     inkscape:pageopacity="0"
     inkscape:pageshadow="2"
     inkscape:window-width="1680"
     inkscape:window-height="997"
     id="namedview164"
     showgrid="false"
     inkscape:zoom="0.4609375"
     inkscape:cx="256"
     inkscape:cy="256"
     inkscape:window-x="0"
     inkscape:window-y="35"
     inkscape:window-maximized="1"
     inkscape:current-layer="svg2" />
  <text
     font-size="129.23"
     y="231.36"
     x="729.64"
     font-family="'Gentium Book Basic'"
     line-height="125%"
     word-spacing="0"
     letter-spacing="0"
     id="text4">
    <tspan
       y="231.36"
       x="729.64"
       id="tspan6" />
  </text>
  <text
     transform="scale(4.0128.2492)"
     font-size="46.954"
     y="579.26"
     x="378.91"
     font-family="Arial"
     text-anchor="middle"
     id="text8" />
  <text
     font-size="129.23"
     y="151.36"
     x="1310.91"
     font-family="'Gentium Book Basic'"
     line-height="125%"
     word-spacing="0"
     letter-spacing="0"
     id="text10">
    <tspan
       y="151.36"
       x="1310.91"
       id="tspan12" />
  </text>
  <text
     transform="scale(4.0128.2492)"
     font-size="46.954"
     y="258.22"
     x="523.76"
     font-family="Arial"
     text-anchor="middle"
     id="text14" />
  <text
     font-size="129.23"
     y="-29.9"
     x="239.33"
     font-family="'Gentium Book Basic'"
     line-height="125%"
     word-spacing="0"
     letter-spacing="0"
     id="text16">
    <tspan
       y="-29.9"
       x="239.33"
       id="tspan18" />
  </text>
  <text
     transform="scale(4.0128.2492)"
     font-size="46.954"
     y="-469.13"
     x="256.72"
     font-family="Arial"
     text-anchor="middle"
     id="text20" />
  <text
     font-size="129.23"
     y="-246.37"
     x="1337.38"
     font-family="'Gentium Book Basic'"
     line-height="125%"
     word-spacing="0"
     letter-spacing="0"
     id="text22">
    <tspan
       y="-246.37"
       x="1337.38"
       id="tspan24" />
  </text>
  <text
     transform="scale(4.0128.2492)"
     font-size="46.954"
     y="-1337.8"
     x="530.36"
     font-family="Arial"
     text-anchor="middle"
     id="text26" />
  <text
     font-size="129.23"
     y="-326.37"
     x="1918.65"
     font-family="'Gentium Book Basic'"
     line-height="125%"
     word-spacing="0"
     letter-spacing="0"
     id="text28">
    <tspan
       y="-326.37"
       x="1918.65"
       id="tspan30" />
  </text>
  <text
     transform="scale(4.0128.2492)"
     font-size="46.954"
     y="-1658.83"
     x="675.21"
     font-family="Arial"
     text-anchor="middle"
     id="text32" />
  <text
     font-size="129.23"
     y="-798.77"
     x="1529.53"
     font-family="'Gentium Book Basic'"
     line-height="125%"
     word-spacing="0"
     letter-spacing="0"
     id="text34">
    <tspan
       y="-798.77"
       x="1529.53"
       id="tspan36" />
  </text>
  <text
     transform="scale(4.0128.2492)"
     font-size="46.954"
     y="-3554.48"
     x="578.24"
     font-family="Arial"
     text-anchor="middle"
     id="text38" />
  <text
     font-size="129.23"
     y="-878.78"
     x="2110.79"
     font-family="'Gentium Book Basic'"
     line-height="125%"
     word-spacing="0"
     letter-spacing="0"
     id="text40">
    <tspan
       y="-878.78"
       x="2110.79"
       id="tspan42" />
  </text>
  <text
     transform="scale(4.0128.2492)"
     font-size="46.954"
     y="-3875.52"
     x="723.09"
     font-family="Arial"
     text-anchor="middle"
     id="text44" />
  <g
     font-family="'Gentium Book Basic'"
     line-height="125%"
     word-spacing="0"
     letter-spacing="0"
     id="g46">
    <text
       y="535.94"
       x="277.99"
       font-size="208.33"
       id="text48">
      <tspan
         y="535.94"
         x="277.99"
         id="tspan50" />
    </text>
    <text
       y="231.36"
       x="729.64"
       font-size="129.23"
       id="text52">
      <tspan
         y="231.36"
         x="729.64"
         id="tspan54" />
    </text>
  </g>
  <text
     transform="scale(4.0128.2492)"
     font-size="46.954"
     y="579.26"
     x="378.91"
     font-family="Arial"
     text-anchor="middle"
     id="text56" />
  <text
     font-size="129.23"
     y="151.36"
     x="1310.91"
     font-family="'Gentium Book Basic'"
     line-height="125%"
     word-spacing="0"
     letter-spacing="0"
     id="text58">
    <tspan
       y="151.36"
       x="1310.91"
       id="tspan60" />
  </text>
  <text
     transform="scale(4.0128.2492)"
     font-size="46.954"
     y="258.22"
     x="523.76"
     font-family="Arial"
     text-anchor="middle"
     id="text62" />
  <text
     font-size="129.23"
     y="-29.9"
     x="239.33"
     font-family="'Gentium Book Basic'"
     line-height="125%"
     word-spacing="0"
     letter-spacing="0"
     id="text64">
    <tspan
       y="-29.9"
       x="239.33"
       id="tspan66" />
  </text>
  <text
     transform="scale(4.0128.2492)"
     font-size="46.954"
     y="-469.13"
     x="256.72"
     font-family="Arial"
     text-anchor="middle"
     id="text68" />
  <text
     font-size="129.23"
     y="-246.37"
     x="1337.38"
     font-family="'Gentium Book Basic'"
     line-height="125%"
     word-spacing="0"
     letter-spacing="0"
     id="text70">
    <tspan
       y="-246.37"
       x="1337.38"
       id="tspan72" />
  </text>
  <text
     transform="scale(4.0128.2492)"
     font-size="46.954"
     y="-1337.79"
     x="530.36"
     font-family="Arial"
     text-anchor="middle"
     id="text74" />
  <text
     font-size="129.23"
     y="-326.37"
     x="1918.65"
     font-family="'Gentium Book Basic'"
     line-height="125%"
     word-spacing="0"
     letter-spacing="0"
     id="text76">
    <tspan
       y="-326.37"
       x="1918.65"
       id="tspan78" />
  </text>
  <text
     transform="scale(4.0128.2492)"
     font-size="46.954"
     y="-1658.82"
     x="675.21"
     font-family="Arial"
     text-anchor="middle"
     id="text80" />
  <text
     font-size="129.23"
     y="-798.77"
     x="1529.53"
     font-family="'Gentium Book Basic'"
     line-height="125%"
     word-spacing="0"
     letter-spacing="0"
     id="text82">
    <tspan
       y="-798.77"
       x="1529.53"
       id="tspan84" />
  </text>
  <text
     transform="scale(4.0128.2492)"
     font-size="46.954"
     y="-3554.46"
     x="578.24"
     font-family="Arial"
     text-anchor="middle"
     id="text86" />
  <text
     font-size="129.23"
     y="-878.78"
     x="2110.79"
     font-family="'Gentium Book Basic'"
     line-height="125%"
     word-spacing="0"
     letter-spacing="0"
     id="text88">
    <tspan
       y="-878.78"
       x="2110.79"
       id="tspan90" />
  </text>
  <text
     transform="scale(4.0128.2492)"
     font-size="46.954"
     y="-3875.5"
     x="723.09"
     font-family="Arial"
     text-anchor="middle"
     id="text92" />
  <text
     font-size="208.33"
     y="535.94"
     x="277.99"
     font-family="'Gentium Book Basic'"
     line-height="125%"
     word-spacing="0"
     letter-spacing="0"
     id="text94">
    <tspan
       y="535.94"
       x="277.99"
       id="tspan96" />
  </text>
  <path
     style="fill-opacity:0.06700003;fill-rule:evenodd"
     inkscape:connector-curvature="0"
     id="path104"
     d="M 256,1 C 115.17,1 1,115.17 1,256 1,396.83 115.17,511 256,511 396.83,511 511,396.83 511,256 511,115.17 396.83,1 256,1 m 8.827,44.931 c 120.9,0 218.9,98 218.9,218.9 0,120.9 -98,218.9 -218.9,218.9 -120.9,0 -218.93,-98 -218.93,-218.9 0,-120.9 98.03,-218.9 218.93,-218.9" />
  <text
     font-size="129.23"
     y="231.36"
     x="729.64"
     font-family="'Gentium Book Basic'"
     line-height="125%"
     word-spacing="0"
     letter-spacing="0"
     id="text114">
    <tspan
       y="231.36"
       x="729.64"
       id="tspan116" />
  </text>
  <text
     transform="scale(4.0128.2492)"
     font-size="46.954"
     y="579.26"
     x="378.91"
     font-family="Arial"
     text-anchor="middle"
     id="text118" />
  <text
     font-size="129.23"
     y="151.36"
     x="1310.91"
     font-family="'Gentium Book Basic'"
     line-height="125%"
     word-spacing="0"
     letter-spacing="0"
     id="text120">
    <tspan
       y="151.36"
       x="1310.91"
       id="tspan122" />
  </text>
  <text
     transform="scale(4.0128.2492)"
     font-size="46.954"
     y="258.22"
     x="523.76"
     font-family="Arial"
     text-anchor="middle"
     id="text124" />
  <text
     font-size="129.23"
     y="-29.9"
     x="239.33"
     font-family="'Gentium Book Basic'"
     line-height="125%"
     word-spacing="0"
     letter-spacing="0"
     id="text126">
    <tspan
       y="-29.9"
       x="239.33"
       id="tspan128" />
  </text>
  <text
     transform="scale(4.0128.2492)"
     font-size="46.954"
     y="-469.13"
     x="256.72"
     font-family="Arial"
     text-anchor="middle"
     id="text130" />
  <text
     font-size="129.23"
     y="-246.37"
     x="1337.38"
     font-family="'Gentium Book Basic'"
     line-height="125%"
     word-spacing="0"
     letter-spacing="0"
     id="text132">
    <tspan
       y="-246.37"
       x="1337.38"
       id="tspan134" />
  </text>
  <text
     transform="scale(4.0128.2492)"
     font-size="46.954"
     y="-1337.8"
     x="530.36"
     font-family="Arial"
     text-anchor="middle"
     id="text136" />
  <text
     font-size="129.23"
     y="-326.37"
     x="1918.65"
     font-family="'Gentium Book Basic'"
     line-height="125%"
     word-spacing="0"
     letter-spacing="0"
     id="text138">
    <tspan
       y="-326.37"
       x="1918.65"
       id="tspan140" />
  </text>
  <text
     transform="scale(4.0128.2492)"
     font-size="46.954"
     y="-1658.83"
     x="675.21"
     font-family="Arial"
     text-anchor="middle"
     id="text142" />
  <text
     font-size="129.23"
     y="-798.77"
     x="1529.53"
     font-family="'Gentium Book Basic'"
     line-height="125%"
     word-spacing="0"
     letter-spacing="0"
     id="text144">
    <tspan
       y="-798.77"
       x="1529.53"
       id="tspan146" />
  </text>
  <text
     transform="scale(4.0128.2492)"
     font-size="46.954"
     y="-3554.48"
     x="578.24"
     font-family="Arial"
     text-anchor="middle"
     id="text148" />
  <text
     font-size="129.23"
     y="-878.78"
     x="2110.79"
     font-family="'Gentium Book Basic'"
     line-height="125%"
     word-spacing="0"
     letter-spacing="0"
     id="text150">
    <tspan
       y="-878.78"
       x="2110.79"
       id="tspan152" />
  </text>
  <text
     transform="scale(4.0128.2492)"
     font-size="46.954"
     y="-3875.52"
     x="723.09"
     font-family="Arial"
     text-anchor="middle"
     id="text154" />
  <text
     font-size="208.33"
     y="535.94"
     x="277.99"
     font-family="'Gentium Book Basic'"
     line-height="125%"
     word-spacing="0"
     letter-spacing="0"
     id="text156">
    <tspan
       y="535.94"
       x="277.99"
       id="tspan158" />
  </text>
  <path
     d="m 67.218457,44.998302 c -11.48811,0 -20.72605,9.23795 -20.72605,20.72606 l 0,160.403028 c 0,11.48811 9.23794,20.72606 20.72605,20.72606 l 160.843003,0 c 11.48812,0 20.72606,-9.23795 20.72606,-20.72606 l 0,-160.403028 c 0,-11.48811 -9.23794,-20.72606 -20.72606,-20.72606 l -160.843003,0 m 216.720083,0 c -11.48812,0 -20.72606,9.23795 -20.72606,20.72606 l 0,160.403028 c 0,11.48811 9.23794,20.72606 20.72606,20.72606 l 160.843,0 c 11.48811,0 20.72606,-9.23795 20.72606,-20.72606 l 0,-160.403028 c 0,-11.48811 -9.23795,-20.72606 -20.72606,-20.72606 l -160.843,0 m -136.51857,48.21048 c 29.15162,0 52.71553,23.563908 52.71553,52.715528 0,29.15161 -23.56391,52.71552 -52.71553,52.71552 -29.15161,0 -52.715523,-23.56391 -52.715523,-52.71552 0,-29.15162 23.563913,-52.715528 52.715523,-52.715528 m 216.72008,0 c 29.15162,0 52.71552,23.563908 52.71552,52.715528 0,29.15161 -23.5639,52.71552 -52.71552,52.71552 -29.15162,0 -52.71552,-23.56391 -52.71552,-52.71552 0,-29.15162 23.5639,-52.715528 52.71552,-52.715528 M 67.218457,261.26426 c -11.48811,0 -20.72605,9.23795 -20.72605,20.72606 l 0,159.94734 c 0,11.48811 9.23794,20.72605 20.72605,20.72605 l 160.843003,0 c 11.48812,0 20.72606,-9.23794 20.72606,-20.72605 l 0,-159.94734 c 0,-11.48811 -9.23794,-20.72606 -20.72606,-20.72606 l -160.843003,0 m 216.720083,0 c -11.48812,0 -20.72606,9.23795 -20.72606,20.72606 l 0,159.94734 c 0,11.48811 9.23794,20.72605 20.72606,20.72605 l 160.843,0 c 11.48811,0 20.72606,-9.23794 20.72606,-20.72605 l 0,-159.94734 c 0,-11.48811 -9.23795,-20.72606 -20.72606,-20.72606 l -160.843,0 m 80.20151,47.7595 c 29.15162,0 52.71552,23.56391 52.71552,52.71553 0,29.15161 -23.5639,52.71552 -52.71552,52.71552 -29.15162,0 -52.71552,-23.56391 -52.71552,-52.71552 0,-29.15162 23.5639,-52.71553 52.71552,-52.71553 m -258.62788,0.45098 83.79989,0 c 5.99312,0 10.81401,4.81932 10.81401,10.814 l 0,83.35992 c 0,5.99312 -4.81932,10.81401 -10.81401,10.81401 l -83.79989,0 c -5.993113,0 -10.814003,-4.81932 -10.814003,-10.81401 l 0,-83.35992 c 0,-5.99311 4.81932,-10.814 10.814003,-10.814"
     id="path162"
     inkscape:connector-curvature="0"
     style="fill:#009688" />
</svg>
