<svg xmlns="http://www.w3.org/2000/svg" width="48" height="48">
<defs>
<defs
     id="defs2162">
  </defs>
  <path
     id="path-main"
   d="M 23.5 2.78125 L 23.5 8.4375 L 35.96875 8.4375 L 22.96875 21.96875 L 22.96875 27.5 L 45.0625 27.5 L 45.0625 21.84375 L 32.03125 21.84375 L 45.0625 8.3125 L 45.0625 2.78125 L 23.5 2.78125 z M 13.1875 26.34375 L 13.1875 30.3125 L 22.1875 30.3125 L 12.78125 39.8125 L 12.78125 43.65625 L 28.71875 43.65625 L 28.71875 39.71875 L 19.34375 39.71875 L 28.71875 30.21875 L 28.71875 28.875 L 21.125 28.875 L 21.125 26.34375 L 13.1875 26.34375 z M 3.15625 36.28125 L 3.15625 38.6875 L 7 38.6875 L 2.84375 43.21875 L 2.84375 45.53125 L 11.5 45.53125 L 11.5 43.09375 L 6.84375 43.09375 L 11.21875 38.34375 L 11.21875 36.28125 L 3.15625 36.28125 z "
/>
</defs>

<use id="1" style="fill:#009688" xlink:href="#path-main" />



</svg>
