<?xml version="1.0" encoding="UTF-8" standalone="no"?>
<svg
   xmlns:dc="http://purl.org/dc/elements/1.1/"
   xmlns:cc="http://creativecommons.org/ns#"
   xmlns:rdf="http://www.w3.org/1999/02/22-rdf-syntax-ns#"
   xmlns:svg="http://www.w3.org/2000/svg"
   xmlns="http://www.w3.org/2000/svg"
   xmlns:sodipodi="http://sodipodi.sourceforge.net/DTD/sodipodi-0.dtd"
   xmlns:inkscape="http://www.inkscape.org/namespaces/inkscape"
   viewBox="0 0 512 512"
   id="svg2"
   version="1.1"
   inkscape:version="0.91 r"
   sodipodi:docname="google-finance.svg">
  <metadata
     id="metadata28">
    <rdf:RDF>
      <cc:Work
         rdf:about="">
        <dc:format>image/svg+xml</dc:format>
        <dc:type
           rdf:resource="http://purl.org/dc/dcmitype/StillImage" />
      </cc:Work>
    </rdf:RDF>
  </metadata>
  <defs
     id="defs26" />
  <sodipodi:namedview
     pagecolor="#ffffff"
     bordercolor="#666666"
     borderopacity="1"
     objecttolerance="10"
     gridtolerance="10"
     guidetolerance="10"
     inkscape:pageopacity="0"
     inkscape:pageshadow="2"
     inkscape:window-width="640"
     inkscape:window-height="480"
     id="namedview24"
     showgrid="false"
     inkscape:zoom="0.4609375"
     inkscape:cx="256"
     inkscape:cy="256"
     inkscape:window-x="0"
     inkscape:window-y="0"
     inkscape:window-maximized="0"
     inkscape:current-layer="svg2" />
  <path
     d="m345.75 170.13l-1.125 0.781-0.688 0.5c-52.732 38.951-105.47 77.83-158.28 116.81-17.504-10.719-34.971-21.498-52.625-31.969-31.425 14.14-62.65 28.769-93.94 43.22 2.497 11.565 5.88 22.789 10.125 33.594 26.963-12.989 54.32-25.13 81.47-37.75 18.966 11.571 37.885 23.267 57.06 34.469 51.82-38.655 103.94-76.63 155.81-115.25 23.18 20.804 46.44 41.44 69.781 62.06 18.494-18.982 37.4-37.59 56.19-56.28-2.064-13.763-5.436-27.11-9.938-39.906-0.662 0.715-1.262 1.477-1.781 2.281-14.754 15.772-30.465 30.945-45.813 46.31-22.01-19.725-44.13-39.29-66.25-58.875"
     fill="#009688"
     id="path22" />
</svg>
