<?xml version="1.0" encoding="UTF-8" standalone="no"?>
<svg
   xmlns:dc="http://purl.org/dc/elements/1.1/"
   xmlns:cc="http://creativecommons.org/ns#"
   xmlns:rdf="http://www.w3.org/1999/02/22-rdf-syntax-ns#"
   xmlns:svg="http://www.w3.org/2000/svg"
   xmlns="http://www.w3.org/2000/svg"
   xmlns:sodipodi="http://sodipodi.sourceforge.net/DTD/sodipodi-0.dtd"
   xmlns:inkscape="http://www.inkscape.org/namespaces/inkscape"
   height="512"
   viewBox="0 0 512 512"
   width="512"
   version="1.1"
   id="svg2"
   inkscape:version="0.91 r"
   sodipodi:docname="google-translate.svg">
  <defs
     id="defs16" />
  <sodipodi:namedview
     pagecolor="#ffffff"
     bordercolor="#666666"
     borderopacity="1"
     objecttolerance="10"
     gridtolerance="10"
     guidetolerance="10"
     inkscape:pageopacity="0"
     inkscape:pageshadow="2"
     inkscape:window-width="647"
     inkscape:window-height="480"
     id="namedview14"
     showgrid="false"
     inkscape:zoom="0.4609375"
     inkscape:cx="256"
     inkscape:cy="256"
     inkscape:window-x="0"
     inkscape:window-y="0"
     inkscape:window-maximized="0"
     inkscape:current-layer="svg2" />
  <metadata
     id="metadata72">
    <rdf:RDF>
      <cc:Work
         rdf:about="">
        <dc:format>image/svg+xml</dc:format>
        <dc:type
           rdf:resource="http://purl.org/dc/dcmitype/StillImage" />
      </cc:Work>
    </rdf:RDF>
  </metadata>
  <path
     id="path66"
     fill="#009688"
     d="m140.5 134v167h97v-18c0-13.74-0.296-18.01-1.25-18-0.688 0.007-4.779 1.132-9.06 2.5-10.126 3.234-13 3.221-15.656-0.156-2.276-2.893-3.644-7.07-2.656-8.06 0.34-0.34 3.305-0.988 6.594-1.438 6.55-0.896 17.302-4.889 20.19-7.5 1.626-1.471 1.844-3.419 1.844-17.469 0-14.607-0.15-15.887-1.938-16.844-2.916-1.561-6.586-1.242-8.313 0.719-0.848 0.963-2.767 4.225-4.281 7.25-9.777 19.537-29.32 38.16-43 41-10.545 2.189-17.8-0.773-21.938-8.938-7.504-14.809 1.663-36.11 20.03-46.563 2.715-1.546 5.5-3.501 6.188-4.344 1.618-1.983 1.638-14.362 0.031-15.969-0.754-0.754-4.562-1.21-10.25-1.219-13.184-0.02-13.708-0.23-13.344-5.844l0.313-4.625 11.25 0.344c13.607 0.431 14.229 0.106 14.25-7.719 0.008-3.095 0.395-6.199 0.844-6.906 1.122-1.769 7.43-2.681 9.813-1.406 1.683 0.901 1.896 1.87 1.531 6.906-0.623 8.612 0 8.932 15.13 7.5 6.699-0.634 16.181-1.859 21.09-2.719 4.913-0.86 9.558-1.352 10.313-1.063 0.962 0.369 1.276 1.978 1.063 5.313l-0.281 4.75-7 1.219c-3.85 0.667-14.425 1.933-23.5 2.813-18.269 1.772-19 2.103-19 8.594 0 6.26 1.671 7.07 12.844 6.281 10.328-0.73 11.441-1.162 13.781-5.688 1.356-2.621 1.908-2.882 5.03-2.375 5.078 0.824 6.473 2.332 5.75 6.188-1.065 5.676 1.411 6.469 19.813 6.469h15.781v-72h-129m69.16 75.969c-4.875 0.003-10.955 1.756-12.156 4-1.326 2.477-1.3 18.606 0.031 21.09 1.747 3.263 4.677 2.282 8.406-2.813 8.139-11.12 11.518-20.294 7.969-21.656-1.13-0.434-2.625-0.626-4.25-0.625m36.844 4.03v164h125v-164h-125m-64.25 6.188c-3.043 0.372-9.344 6.067-11.781 10.844-7.888 15.461-1.667 27.03 11.563 21.5 3.88-1.621 5.69-5.062 4.875-9.281-0.292-1.513-0.837-7.25-1.219-12.75-0.643-9.262-0.856-10.03-2.875-10.313-0.172-0.024-0.36-0.025-0.563 0m127.16 19.813c7.804 0 11.214 0.403 12.781 1.5 2.34 1.639 3.533 4.626 14.844 37 4.228 12.1 10.4 29.65 13.719 39 9.421 26.541 9.43 26.5-5.344 26.5-10.82 0-13.1-1.088-14.25-6.844-0.298-1.489-1.51-5.289-2.688-8.438l-2.125-5.719h-16.313c-11.836 0-16.575 0.343-17.313 1.25-0.559 0.688-2.165 4.552-3.563 8.594-1.398 4.04-3.303 8.204-4.25 9.25-1.452 1.605-3.158 1.906-10.875 1.906-9.875 0-11.55-0.708-11.531-4.938 0.016-3.627 32.463-94.84 34.563-97.16 1.509-1.667 3.133-1.906 12.344-1.906m0.344 32.938c-0.17 0.01-0.319 0.17-0.469 0.438-1.351 2.415-8.781 24.688-8.781 26.313 0 0.968 2.296 1.313 9.09 1.313h9.125l-0.656-3.438c-0.356-1.895-2.259-8.529-4.219-14.719-2.32-7.325-3.359-9.948-4.094-9.906" />
</svg>
