<?xml version="1.0" encoding="UTF-8" standalone="no"?>
<svg
   xmlns:dc="http://purl.org/dc/elements/1.1/"
   xmlns:cc="http://creativecommons.org/ns#"
   xmlns:rdf="http://www.w3.org/1999/02/22-rdf-syntax-ns#"
   xmlns:svg="http://www.w3.org/2000/svg"
   xmlns="http://www.w3.org/2000/svg"
   xmlns:sodipodi="http://sodipodi.sourceforge.net/DTD/sodipodi-0.dtd"
   xmlns:inkscape="http://www.inkscape.org/namespaces/inkscape"
   height="512"
   viewBox="0 0 512 512"
   width="512"
   version="1.1"
   id="svg2"
   inkscape:version="0.91 r"
   sodipodi:docname="google-play.svg">
  <defs
     id="defs17" />
  <sodipodi:namedview
     pagecolor="#ffffff"
     bordercolor="#666666"
     borderopacity="1"
     objecttolerance="10"
     gridtolerance="10"
     guidetolerance="10"
     inkscape:pageopacity="0"
     inkscape:pageshadow="2"
     inkscape:window-width="1920"
     inkscape:window-height="1028"
     id="namedview15"
     showgrid="false"
     inkscape:zoom="1.3037281"
     inkscape:cx="53.590229"
     inkscape:cy="244.919"
     inkscape:window-x="0"
     inkscape:window-y="0"
     inkscape:window-maximized="1"
     inkscape:current-layer="svg2" />
  <metadata
     id="metadata28">
    <rdf:RDF>
      <cc:Work
         rdf:about="">
        <dc:format>image/svg+xml</dc:format>
        <dc:type
           rdf:resource="http://purl.org/dc/dcmitype/StillImage" />
        <dc:title />
      </cc:Work>
    </rdf:RDF>
  </metadata>
  <path
     inkscape:connector-curvature="0"
     style="fill:#009688"
     d="m 145.4323,387.14052 c -1.075,-0.846 -2.675,-2.886 -3.556,-4.533 l -1.60201,-2.995 0,-255.94 1.83301,-3.563 c 1.1,-2.138 2.806,-4.134 4.265,-4.983 l 2.431,-1.42 2.944,3.242 c 1.619,1.783 29.22,32.07 61.33,67.31 32.11,35.24 58.949,64.778 59.63,65.64 1.232,1.564 0.637,2.246 -61.06,69.966 -34.27,37.614 -62.748,68.48 -63.29,68.6 -0.54,0.114 -1.861,-0.484 -2.936,-1.33 m 39.926,-20.9 c 8.144,-8.901 33.24,-36.402 55.767,-61.12 22.528,-24.714 41.23,-44.662 41.545,-44.33 2.829,2.913 36.634,40.22 36.522,40.31 -0.08,0.061 -27.881,15.283 -61.78,33.827 -33.9,18.545 -64.07,35.08 -67.04,36.742 -2.973,1.663 -8.65,4.764 -12.615,6.891 l -7.208,3.867 14.805,-16.183 m 124.42,-93.01 -19.899,-21.76 7.01,-7.66 c 3.858,-4.213 12.833,-14.05 19.947,-21.867 l 12.933,-14.207 2.205,1.334 c 1.212,0.733 13.558,7.565 27.434,15.18 37.739,20.711 38.567,21.298 38.567,27.363 0,3.627 -1.229,5.619 -5.231,8.482 -2.734,1.955 -59.52,33.535 -62.04,34.499 -0.675,0.259 -7.82,-7.04 -20.926,-21.367 m -80.17,-88 c -28.519,-31.399 -53.3,-58.696 -55.06,-60.66 l -3.211,-3.566 2.851,1.458 c 5.837,2.986 143.43,78.85 143.98,79.37 0.518,0.51 -34.671,39.811 -36.06,40.27 -0.349,0.116 -23.967,-25.477 -52.49,-56.883"
     id="path3548" />
</svg>
