<?xml version="1.0" encoding="UTF-8" standalone="no"?>
<svg
   xmlns:dc="http://purl.org/dc/elements/1.1/"
   xmlns:cc="http://creativecommons.org/ns#"
   xmlns:rdf="http://www.w3.org/1999/02/22-rdf-syntax-ns#"
   xmlns:svg="http://www.w3.org/2000/svg"
   xmlns="http://www.w3.org/2000/svg"
   xmlns:sodipodi="http://sodipodi.sourceforge.net/DTD/sodipodi-0.dtd"
   xmlns:inkscape="http://www.inkscape.org/namespaces/inkscape"
   height="512"
   viewBox="0 0 512 512"
   width="512"
   version="1.1"
   id="svg2"
   inkscape:version="0.91 r"
   sodipodi:docname="gtkpod.svg">
  <defs
     id="defs17" />
  <sodipodi:namedview
     pagecolor="#ffffff"
     bordercolor="#666666"
     borderopacity="1"
     objecttolerance="10"
     gridtolerance="10"
     guidetolerance="10"
     inkscape:pageopacity="0"
     inkscape:pageshadow="2"
     inkscape:window-width="1920"
     inkscape:window-height="1028"
     id="namedview15"
     showgrid="false"
     inkscape:zoom="1.3037281"
     inkscape:cx="52.823198"
     inkscape:cy="244.919"
     inkscape:window-x="0"
     inkscape:window-y="0"
     inkscape:window-maximized="1"
     inkscape:current-layer="svg2" />
  <metadata
     id="metadata28">
    <rdf:RDF>
      <cc:Work
         rdf:about="">
        <dc:format>image/svg+xml</dc:format>
        <dc:type
           rdf:resource="http://purl.org/dc/dcmitype/StillImage" />
        <dc:title />
      </cc:Work>
    </rdf:RDF>
  </metadata>
  <path
     inkscape:connector-curvature="0"
     style="fill:#009688"
     id="path4152"
     d="m 329.62453,92.106201 -138.95,0 c -13.3,0 -24.01,10.783999 -24.01,24.069999 l 0,282.18 c 0,13.264 10.712,24.05 24.01,24.05 l 138.95,0 c 13.312,0 24.07,-10.784 24.07,-24.05 l 0,-282.18 c 0,-13.288 -10.76,-24.069999 -24.07,-24.069999 m -69.39,298.309999 c -28.26,0 -51.21,-22.964 -51.21,-51.19 0,-28.26 22.952,-51.1 51.21,-51.1 28.18,0 51.09,22.844 51.09,51.1 0,28.22 -22.916,51.19 -51.09,51.19 m -0.024,-27.586 c -13.251,0 -24.04,-10.772 -24.04,-24.01 0,-13.276 10.784,-24 24.04,-24 13.203,0 23.963,10.724 23.963,24 0,13.239 -10.76,24.01 -23.963,24.01 m 75.46,-105.57 -151.01,0 0,-133.77 151.03,0 0,133.77 z" />
</svg>
