<?xml version="1.0" encoding="UTF-8" standalone="no"?>
<svg
   xmlns:dc="http://purl.org/dc/elements/1.1/"
   xmlns:cc="http://creativecommons.org/ns#"
   xmlns:rdf="http://www.w3.org/1999/02/22-rdf-syntax-ns#"
   xmlns:svg="http://www.w3.org/2000/svg"
   xmlns="http://www.w3.org/2000/svg"
   xmlns:sodipodi="http://sodipodi.sourceforge.net/DTD/sodipodi-0.dtd"
   xmlns:inkscape="http://www.inkscape.org/namespaces/inkscape"
   sodipodi:docname="grsync.svg"
   inkscape:version="0.91 r13725"
   id="svg2"
   version="1.1"
   width="512"
   viewBox="0 0 512 512"
   height="512">
  <defs
     id="defs23" />
  <sodipodi:namedview
     inkscape:current-layer="svg2"
     inkscape:window-maximized="1"
     inkscape:window-y="0"
     inkscape:window-x="0"
     inkscape:cy="286.21756"
     inkscape:cx="201.69526"
     inkscape:zoom="0.9534688"
     showgrid="false"
     id="namedview21"
     inkscape:window-height="1022"
     inkscape:window-width="1920"
     inkscape:pageshadow="2"
     inkscape:pageopacity="0"
     guidetolerance="10"
     gridtolerance="10"
     objecttolerance="10"
     borderopacity="1"
     bordercolor="#666666"
     pagecolor="#ffffff" />
  <metadata
     id="metadata86">
    <rdf:RDF>
      <cc:Work
         rdf:about="">
        <dc:format>image/svg+xml</dc:format>
        <dc:type
           rdf:resource="http://purl.org/dc/dcmitype/StillImage" />
        <dc:title></dc:title>
      </cc:Work>
    </rdf:RDF>
  </metadata>
  <path
     style="color:#000000;fill:#009688"
     inkscape:connector-curvature="0"
     d="m 277.43169,48.092721 c -74.11128,0 -139.12457,39.725402 -175.66728,98.839419 L 72.647225,111.8197 c -0.294742,-0.17136 -0.658015,-0.18735 -0.97103,-0.3153 -4.156007,-4.41419 -13.075778,-1.73872 -14.234158,4.22684 L 27.671403,289.34221 c -1.053282,4.87572 3.445438,10.14898 8.412544,10.08044 l 37.203003,-9.42927 c 16.176217,98.4967 101.65198,173.94 204.14474,173.94 113.96691,0 207.04641,-93.21658 207.04641,-207.75469 0,-114.53582 -93.08179,-208.074542 -207.04641,-208.074542 z m 25.22393,63.048389 c 10.87324,0.14393 22.29028,2.23224 34.29448,5.85132 62.84963,24.05641 107.40732,67.43287 107.40732,139.17027 0,92.86244 -74.52939,167.74825 -166.92573,167.74825 -84.36536,0 -153.53695,-62.48176 -164.98367,-144.03227 l 92.52428,-23.73425 c 6.02039,-0.18737 10.07129,-8.47881 6.47049,-13.32939 l -37.52745,-28.28553 c 0.80653,-3.15528 -11.6752,-11.81914 38.46193,-65.41999 23.65199,-25.29247 55.36012,-38.37281 90.29662,-37.98896"
     id="path68" />
</svg>
