<?xml version="1.0" encoding="UTF-8" standalone="no"?>
<svg
   xmlns:dc="http://purl.org/dc/elements/1.1/"
   xmlns:cc="http://creativecommons.org/ns#"
   xmlns:rdf="http://www.w3.org/1999/02/22-rdf-syntax-ns#"
   xmlns:svg="http://www.w3.org/2000/svg"
   xmlns="http://www.w3.org/2000/svg"
   xmlns:sodipodi="http://sodipodi.sourceforge.net/DTD/sodipodi-0.dtd"
   xmlns:inkscape="http://www.inkscape.org/namespaces/inkscape"
   height="512"
   viewBox="0 0 512 512"
   width="512"
   version="1.1"
   id="svg2"
   inkscape:version="0.91 r"
   sodipodi:docname="gstreamer.svg">
  <defs
     id="defs16" />
  <sodipodi:namedview
     pagecolor="#ffffff"
     bordercolor="#666666"
     borderopacity="1"
     objecttolerance="10"
     gridtolerance="10"
     guidetolerance="10"
     inkscape:pageopacity="0"
     inkscape:pageshadow="2"
     inkscape:window-width="640"
     inkscape:window-height="480"
     id="namedview14"
     showgrid="false"
     inkscape:zoom="0.4609375"
     inkscape:cx="256"
     inkscape:cy="256"
     inkscape:window-x="0"
     inkscape:window-y="0"
     inkscape:window-maximized="0"
     inkscape:current-layer="svg2" />
  <metadata
     id="metadata72">
    <rdf:RDF>
      <cc:Work
         rdf:about="">
        <dc:format>image/svg+xml</dc:format>
        <dc:type
           rdf:resource="http://purl.org/dc/dcmitype/StillImage" />
      </cc:Work>
    </rdf:RDF>
  </metadata>
  <path
     id="path66"
     fill="#009688"
     d="m312.92 144.36c-0.932 0.047-1.901 0.314-2.844 0.75-5.03 2.32-37.51 19.313-56.844 19.313-20.878 0-51.42-17-81.19-17-29.771 0-47.561 16.993-50.656 19.313-3.092 2.32-5.03 11.237 4.25 8.531 9.283-2.706 17.02-2.719 31.719-2.719 14.695 0 49.865 20.09 85.44 20.09 35.573 0 65.33-27.425 71.906-37.09 5.341-7.856 2.258-11.392-1.781-11.188m106.91 86.94c-0.979 0.047-2.01 0.314-3 0.75-5.28 2.324-39.41 19.313-59.719 19.313-21.936 0-54-17-85.28-17s-49.969 16.989-53.22 19.313c-3.25 2.324-5.281 11.237 4.469 8.531s17.877-2.719 33.31-2.719c15.436 0 52.38 20.09 89.75 20.09s68.66-27.429 75.56-37.09c5.611-7.856 2.369-11.391-1.875-11.188m-121.06 84.19c-1.016 0.05-2.067 0.312-3.094 0.781-5.477 2.505-40.874 20.875-61.938 20.875-22.746 0-56.03-18.375-88.47-18.375-32.435 0-51.818 18.401-55.19 20.906-3.37 2.505-5.453 12.08 4.656 9.156 10.113-2.922 18.524-2.906 34.531-2.906 16.01 0 54.34 21.719 93.09 21.719 38.753 0 71.18-29.653 78.34-40.09 5.821-8.483 2.465-12.281-1.938-12.06" />
</svg>
