<?xml version="1.0" encoding="UTF-8" standalone="no"?>
<svg
   xmlns:dc="http://purl.org/dc/elements/1.1/"
   xmlns:cc="http://creativecommons.org/ns#"
   xmlns:rdf="http://www.w3.org/1999/02/22-rdf-syntax-ns#"
   xmlns:svg="http://www.w3.org/2000/svg"
   xmlns="http://www.w3.org/2000/svg"
   xmlns:sodipodi="http://sodipodi.sourceforge.net/DTD/sodipodi-0.dtd"
   xmlns:inkscape="http://www.inkscape.org/namespaces/inkscape"
   height="512"
   viewBox="0 0 512 512"
   width="512"
   version="1.1"
   id="svg2"
   inkscape:version="0.92.2 2405546, 2018-03-11"
   sodipodi:docname="gtk3-widget-factory.svg">
  <defs
     id="defs17" />
  <sodipodi:namedview
     pagecolor="#ffffff"
     bordercolor="#666666"
     borderopacity="1"
     objecttolerance="10"
     gridtolerance="10"
     guidetolerance="10"
     inkscape:pageopacity="0"
     inkscape:pageshadow="2"
     inkscape:window-width="1920"
     inkscape:window-height="1136"
     id="namedview15"
     showgrid="false"
     inkscape:zoom="0.4609375"
     inkscape:cx="-149.69492"
     inkscape:cy="256"
     inkscape:window-x="0"
     inkscape:window-y="27"
     inkscape:window-maximized="1"
     inkscape:current-layer="svg2" />
  <metadata
     id="metadata74">
    <rdf:RDF>
      <cc:Work
         rdf:about="">
        <dc:format>image/svg+xml</dc:format>
        <dc:type
           rdf:resource="http://purl.org/dc/dcmitype/StillImage" />
        <dc:title />
      </cc:Work>
    </rdf:RDF>
  </metadata>
  <path
     inkscape:connector-curvature="0"
     style="fill:#009688"
     d="m 381.83597,248.55909 0,61.983 -119.317,-61.983 0,61.983 -119.358,-61.983 0,61.983 -119.346999,-61.983 0,201.278 477.388999,0 0,-139.305 -119.368,-61.973 z m -205.537,175.821 -119.325999,0 0,-70.103 119.325999,0 0,70.103 z m 145.653,0 -118.876,0 0,-70.103 118.866,0 0,70.103 z m 146.095,0 -119.347,0 0,-70.103 119.347,0 0,70.103 z"
     id="path4203" />
  <path
     inkscape:connector-curvature="0"
     style="fill:#009688"
     d="m 345.91794,62.248559 h -32.286 l -9.329,200.038001 52.224,27.577 z"
     id="path4205" />
  <path
     inkscape:connector-curvature="0"
     style="fill:#009688"
     d="m 218.75297,18.773085 -33.126,0 -9.328,237.005005 52.194,27.577 z"
     id="path4207" />
  <path
     inkscape:connector-curvature="0"
     style="fill:#009688;stroke-width:0.74721509"
     d="m 456.61854,99.844592 h -26.24143 l -7.38937,167.043738 41.34654,19.43657 z"
     id="path4207-3" />
</svg>
