<?xml version="1.0" encoding="UTF-8" standalone="no"?>
<svg xmlns:dc="http://purl.org/dc/elements/1.1/" xmlns:cc="http://creativecommons.org/ns#" xmlns:rdf="http://www.w3.org/1999/02/22-rdf-syntax-ns#" xmlns:svg="http://www.w3.org/2000/svg" xmlns="http://www.w3.org/2000/svg" xmlns:sodipodi="http://sodipodi.sourceforge.net/DTD/sodipodi-0.dtd" xmlns:inkscape="http://www.inkscape.org/namespaces/inkscape" height="512" viewBox="0 0 512 512" width="512" version="1.1" id="svg2" inkscape:version="0.91 r" sodipodi:docname="hexchat.svg">
<defs id="defs16" />
<sodipodi:namedview pagecolor="#ffffff" bordercolor="#666666" borderopacity="1" objecttolerance="10" gridtolerance="10" guidetolerance="10" inkscape:pageopacity="0" inkscape:pageshadow="2" inkscape:window-width="640" inkscape:window-height="480" id="namedview14" showgrid="false" inkscape:zoom="0.4609375" inkscape:cx="218.0339" inkscape:cy="256" inkscape:window-x="0" inkscape:window-y="0" inkscape:window-maximized="0" inkscape:current-layer="svg2" />
<metadata id="metadata72">
<rdf:RDF>
<cc:Work rdf:about="">
<dc:format>image/svg+xml</dc:format>
<dc:type rdf:resource="http://purl.org/dc/dcmitype/StillImage" />
</cc:Work>
</rdf:RDF>
</metadata>
<path id="path66" d="m 271.6192,47.519855 c -6.90833,0.02249 -13.84214,0.09145 -20.79844,0.157416 C 195.17035,48.20649 141.46591,51.584194 130.97449,57.410095 109.99165,69.058901 10.963314,236.92463 11.206185,259.81746 c 0.178405,16.62616 54.226163,106.86317 91.991075,159.48518 -0.42877,0.80358 -0.90851,1.63114 -1.33429,2.43321 l 3.06138,0 c 13.50781,18.64858 24.78781,32.28083 30.37384,35.24026 21.22871,11.24852 222.70657,9.37302 243.69541,-2.27579 C 399.97644,443.05152 501.04369,278.1692 500.80382,255.27637 500.55795,232.37905 395.43985,64.667736 374.21114,53.408723 364.92358,48.486841 319.99997,47.366936 271.63569,47.522853 m -19.30673,48.184376 c 22.83286,-0.223381 45.126,0.566699 62.55273,1.962457 L 255.6257,197.03684 195.2678,98.224391 c 15.18992,-1.377767 34.9719,-2.29528 57.05966,-2.511165 m 120.62585,39.084214 c 28.84016,41.1936 68.38014,108.55727 68.51806,121.64531 0.13043,12.49886 -35.5236,76.47433 -63.56619,119.29156 -4.98185,-8.56944 -10.22157,-17.43123 -16.01149,-27.00064 -17.4852,-29.21046 -39.14418,-60.96658 -64.90048,-95.19937 L 372.9668,134.78245 m -237.33878,5.10179 73.46093,112.71006 c -22.08625,31.4098 -42.17257,61.12699 -60.28294,89.08263 -6.66845,10.47642 -12.84967,20.72048 -18.91544,30.84459 C 100.97245,331.60828 64.870147,272.19188 64.750211,259.90141 64.616781,247.18817 105.13274,182.10628 135.61752,139.90523 m 115.8434,169.28997 c 13.80316,19.47314 25.90922,38.60597 36.34067,57.44945 10.25455,17.70108 19.59458,35.24925 28.17602,52.66699 -37.0513,2.08089 -96.05392,0.78858 -129.57609,-2.826 2.6236,-5.23221 6.0118,-11.63981 10.28153,-19.22877 5.8289,-10.36549 12.00861,-21.18374 18.44469,-32.49222 6.74791,-11.30699 13.33691,-21.97082 19.77748,-32.02147 6.74792,-10.05066 12.26498,-17.89149 16.56619,-23.54498" inkscape:connector-curvature="0" style="fill:#009688" />
</svg>
