<?xml version="1.0" encoding="UTF-8" standalone="no"?>
<svg
   xmlns:dc="http://purl.org/dc/elements/1.1/"
   xmlns:cc="http://creativecommons.org/ns#"
   xmlns:rdf="http://www.w3.org/1999/02/22-rdf-syntax-ns#"
   xmlns:svg="http://www.w3.org/2000/svg"
   xmlns="http://www.w3.org/2000/svg"
   xmlns:sodipodi="http://sodipodi.sourceforge.net/DTD/sodipodi-0.dtd"
   xmlns:inkscape="http://www.inkscape.org/namespaces/inkscape"
   version="1.1"
   viewBox="0 0 512 512"
   id="svg2"
   inkscape:version="0.91 r"
   sodipodi:docname="hulu.svg">
  <defs
     id="defs17" />
  <sodipodi:namedview
     pagecolor="#ffffff"
     bordercolor="#666666"
     borderopacity="1"
     objecttolerance="10"
     gridtolerance="10"
     guidetolerance="10"
     inkscape:pageopacity="0"
     inkscape:pageshadow="2"
     inkscape:window-width="640"
     inkscape:window-height="480"
     id="namedview15"
     showgrid="false"
     inkscape:zoom="0.4609375"
     inkscape:cx="256"
     inkscape:cy="256"
     inkscape:window-x="0"
     inkscape:window-y="0"
     inkscape:window-maximized="0"
     inkscape:current-layer="svg2" />
  <metadata
     id="metadata6140">
    <rdf:RDF>
      <cc:Work
         rdf:about="">
        <dc:format>image/svg+xml</dc:format>
        <dc:type
           rdf:resource="http://purl.org/dc/dcmitype/StillImage" />
      </cc:Work>
    </rdf:RDF>
  </metadata>
  <path
     style="fill:#009688;fill-rule:evenodd"
     d="m 154.72,120.43 0,266.82 c 0,1.448 0.083,2.89 0.176,4.313 l 63.56,0 0,-25.09 0.528,0 0,-86.71 c 1.971,-7.967 9.189,-13.821 17.782,-13.821 l 38.469,0 c 10.11,0 18.311,8.113 18.31,18.222 l 0,107.4 63.56,0 c 0.092,-1.423 0.176,-2.866 0.176,-4.313 l 0,-116.46 c 0,-35.917 -28.961,-64.79 -64.878,-64.79 l -72.801,0 c -0.207,0 -0.41,0.003 -0.616,0 l 0,-85.57 -64.26,0"
     id="path6134"
     inkscape:connector-curvature="0" />
</svg>
