<?xml version="1.0" encoding="UTF-8" standalone="no"?>
<svg
   xmlns:dc="http://purl.org/dc/elements/1.1/"
   xmlns:cc="http://creativecommons.org/ns#"
   xmlns:rdf="http://www.w3.org/1999/02/22-rdf-syntax-ns#"
   xmlns:svg="http://www.w3.org/2000/svg"
   xmlns="http://www.w3.org/2000/svg"
   xmlns:sodipodi="http://sodipodi.sourceforge.net/DTD/sodipodi-0.dtd"
   xmlns:inkscape="http://www.inkscape.org/namespaces/inkscape"
   version="1.1"
   viewBox="0 0 512 512"
   id="svg2"
   inkscape:version="0.91 r"
   sodipodi:docname="hulu-plus.svg">
  <defs
     id="defs17" />
  <sodipodi:namedview
     pagecolor="#ffffff"
     bordercolor="#666666"
     borderopacity="1"
     objecttolerance="10"
     gridtolerance="10"
     guidetolerance="10"
     inkscape:pageopacity="0"
     inkscape:pageshadow="2"
     inkscape:window-width="640"
     inkscape:window-height="480"
     id="namedview15"
     showgrid="false"
     inkscape:zoom="0.4609375"
     inkscape:cx="256"
     inkscape:cy="256"
     inkscape:window-x="0"
     inkscape:window-y="0"
     inkscape:window-maximized="0"
     inkscape:current-layer="svg2" />
  <metadata
     id="metadata6092">
    <rdf:RDF>
      <cc:Work
         rdf:about="">
        <dc:format>image/svg+xml</dc:format>
        <dc:type
           rdf:resource="http://purl.org/dc/dcmitype/StillImage" />
      </cc:Work>
    </rdf:RDF>
  </metadata>
  <path
     style="fill:#009688;fill-rule:evenodd"
     d="m 343.19,105.34 0,41.656 -41.688,0 0,41.563 41.688,0 0,41.719 41.563,0 0,-41.719 41.719,0 0,-41.563 -41.719,0 0,-41.656 -41.563,0 m -208,31.563 0,259.1 c 0,1.406 0.097,2.805 0.188,4.188 l 61.719,0 0,-24.344 0.5,0 0,-84.22 c 1.914,-7.736 8.937,-13.406 17.281,-13.406 l 37.34,0 c 9.817,0 17.782,7.871 17.781,17.688 l 0,104.28 61.719,0 c 0.09,-1.382 0.188,-2.782 0.188,-4.188 l 0,-113.09 c 0,-34.878 -28.12,-62.906 -63,-62.906 l -70.72,0 c -0.201,0 -0.393,0.003 -0.594,0 l 0,-83.09 -62.41,0"
     id="path6086"
     inkscape:connector-curvature="0" />
</svg>
