<?xml version="1.0" encoding="UTF-8" standalone="no"?>
<svg
   xmlns:dc="http://purl.org/dc/elements/1.1/"
   xmlns:cc="http://creativecommons.org/ns#"
   xmlns:rdf="http://www.w3.org/1999/02/22-rdf-syntax-ns#"
   xmlns:svg="http://www.w3.org/2000/svg"
   xmlns="http://www.w3.org/2000/svg"
   xmlns:sodipodi="http://sodipodi.sourceforge.net/DTD/sodipodi-0.dtd"
   xmlns:inkscape="http://www.inkscape.org/namespaces/inkscape"
   sodipodi:docname="ibus-zhuyin.svg"
   inkscape:version="0.91 r13725"
   id="svg2"
   version="1.1"
   width="512"
   viewBox="0 0 512 512"
   height="512">
  <defs
     id="defs17" />
  <sodipodi:namedview
     inkscape:current-layer="svg2"
     inkscape:window-maximized="1"
     inkscape:window-y="0"
     inkscape:window-x="0"
     inkscape:cy="283.06453"
     inkscape:cx="168.11304"
     inkscape:zoom="1.9603694"
     showgrid="false"
     id="namedview15"
     inkscape:window-height="1022"
     inkscape:window-width="1920"
     inkscape:pageshadow="2"
     inkscape:pageopacity="0"
     guidetolerance="10"
     gridtolerance="10"
     objecttolerance="10"
     borderopacity="1"
     bordercolor="#666666"
     pagecolor="#ffffff" />
  <metadata
     id="metadata28">
    <rdf:RDF>
      <cc:Work
         rdf:about="">
        <dc:format>image/svg+xml</dc:format>
        <dc:type
           rdf:resource="http://purl.org/dc/dcmitype/StillImage" />
        <dc:title></dc:title>
      </cc:Work>
    </rdf:RDF>
  </metadata>
  <g
     transform="matrix(11.298177,0,0,11.298177,-7.230355,22.97059)"
     style="font-style:normal;font-variant:normal;font-weight:bold;font-stretch:normal;font-size:40px;line-height:125%;font-family:'Source Han Sans CN';-inkscape-font-specification:'Source Han Sans CN Bold';letter-spacing:0px;word-spacing:0px;fill:#009688;fill-opacity:1;stroke:none;stroke-width:0.5;stroke-linecap:butt;stroke-linejoin:miter;stroke-miterlimit:4;stroke-dasharray:none;stroke-opacity:1"
     id="text3374-8">
    <path
       inkscape:connector-curvature="0"
       d="m 17.175562,13.135772 c 2.24,-2.72 4.48,-6.0000004 6.16,-9.2000004 l -5.08,-2.2 c -1.72,4.16 -4.6,8.4400004 -5.6,9.5600004 -0.92,1.2 -1.68,1.92 -2.56,2.16 0.6,1.36 1.44,3.88 1.72,4.88 0.32,-0.36 2.12,-0.6 3.84,-0.6 l 15.04,0 c -0.8,8.96 -1.88,13.56 -3.4,14.72 -0.6,0.48 -1.2,0.56 -2.2,0.56 -1.4,0 -4.64,0 -7.84,-0.28 1.04,1.4 1.8,3.52 1.92,4.96 2.88,0.16 5.8,0.2 7.56,0.04 2.12,-0.2 3.52,-0.6 4.84,-2.16 2.12,-2.04 3.24,-7.44 4.4,-20.2 0.08,-0.68 0.16,-2.24 0.16,-2.24 l -18.96,0 z"
       style="fill:#009688;fill-opacity:1;stroke:none;stroke-width:0.5;stroke-miterlimit:4;stroke-dasharray:none;stroke-opacity:1"
       id="path3365" />
  </g>
</svg>
