<svg xmlns="http://www.w3.org/2000/svg" width="48" height="48">
<defs>
  <path
     d="m 10.006946,46 2.525068,-12.36412 -4.905014,0 0,-4.32453 5.775726,0 2.147757,-10.535624 -7.923483,0 0,-4.324536 8.794195,0 L 18.946261,2 l 4.353562,0 -2.525066,12.45119 9.14248,0 L 32.442302,2 l 4.382586,0 -2.525066,12.45119 5.021107,0 0,4.324536 -5.891819,0 -2.176782,10.535624 8.068601,0 0,4.32453 -8.939312,0 L 27.856551,46 l -4.353561,0 2.496042,-12.36412 -9.113456,0 L 14.360509,46 10.006946,46 m 7.749341,-16.68865 9.113456,0 2.176781,-10.535624 -9.142479,0 -2.147757,10.535624"
     id="path-main"
      />
</defs>

<use id="1" style="fill:#009688" xlink:href="#path-main" />



</svg>
