<?xml version="1.0" encoding="UTF-8" standalone="no"?>
<svg
   xmlns:dc="http://purl.org/dc/elements/1.1/"
   xmlns:cc="http://creativecommons.org/ns#"
   xmlns:rdf="http://www.w3.org/1999/02/22-rdf-syntax-ns#"
   xmlns:svg="http://www.w3.org/2000/svg"
   xmlns="http://www.w3.org/2000/svg"
   xmlns:sodipodi="http://sodipodi.sourceforge.net/DTD/sodipodi-0.dtd"
   xmlns:inkscape="http://www.inkscape.org/namespaces/inkscape"
   version="1.1"
   viewBox="0 0 512 512"
   id="svg2"
   inkscape:version="0.91 r13725"
   sodipodi:docname="imagewriter.svg">
  <defs
     id="defs16" />
  <sodipodi:namedview
     pagecolor="#ffffff"
     bordercolor="#666666"
     borderopacity="1"
     objecttolerance="10"
     gridtolerance="10"
     guidetolerance="10"
     inkscape:pageopacity="0"
     inkscape:pageshadow="2"
     inkscape:window-width="1680"
     inkscape:window-height="995"
     id="namedview14"
     showgrid="false"
     inkscape:zoom="0.4609375"
     inkscape:cx="-80.271186"
     inkscape:cy="256"
     inkscape:window-x="0"
     inkscape:window-y="29"
     inkscape:window-maximized="1"
     inkscape:current-layer="svg2" />
  <metadata
     id="metadata6596">
    <rdf:RDF>
      <cc:Work
         rdf:about="">
        <dc:format>image/svg+xml</dc:format>
        <dc:type
           rdf:resource="http://purl.org/dc/dcmitype/StillImage" />
      </cc:Work>
    </rdf:RDF>
  </metadata>
  <path
     inkscape:connector-curvature="0"
     id="path6590"
     d="M 362.61895,50.18933 244.42846,18.56648 c -16.33162,-4.376084 -33.07551,5.351024 -37.42095,21.604653 L 126.68923,339.92316 303.93318,387.41663 384.25146,87.664601 c 4.36633,-16.295413 -5.32039,-33.072724 -21.6353,-37.473878 m -92.3546,47.170345 0.26881,0.342621 c 0.0111,0.178275 0.22981,0.694992 0.44151,1.380235 1.27299,3.543206 4.33291,11.770306 1.14485,20.448656 -2.82314,7.75216 -10.22989,16.97369 -21.97652,27.36515 1.43873,-0.24234 8.38448,-1.25071 9.57948,-1.4443 l 0.25487,-0.11143 c 1.45545,-1.61282 15.24527,-16.62549 17.24528,-25.34841 1.773,-7.05439 0.31895,-15.45976 -0.69499,-18.93054 l 0.0794,-0.96937 c 0.26323,-0.162951 0.64625,-0.0655 1.05433,0.10168 0.79109,0.43175 2.2925,1.22424 2.95824,1.73957 l 0.53204,0.36769 c 0.85238,0.63789 1.63372,1.19221 1.99445,1.97634 1.12396,2.18665 1.62675,5.3552 2.43595,10.25079 1.16018,7.62124 0.0529,19.19376 -2.74376,29.41531 -1.07104,3.77719 -2.49166,7.18948 -3.64627,10.24243 -3.67691,9.24939 -6.26468,15.98204 2.09612,19.75645 10.4806,4.81062 26.47656,-1.93595 26.67155,-2.00002 l 0.29388,0.0794 0.0251,0.41226 c 0,0 -11.87476,14.29818 -12.26056,14.64776 l -0.52507,0.44569 -0.53344,0.3078 c -1.48747,0.85934 -4.78277,2.63512 -11.99035,6.06969 -13.94164,6.65744 -18.20351,16.51269 -18.39432,25.93617 -0.0418,2.28414 0.81755,5.21314 2.09055,7.50007 3.35518,5.81203 12.64635,7.87054 16.03217,8.44019 3.85101,0.73956 4.22846,0.61839 4.52929,0.58357 l 0.3677,0.14345 -0.0362,0.30502 -0.21309,0.12256 -10.09898,11.62267 -2.3106,-0.12395 c -1.57105,-0.085 -3.3148,-0.0696 -5.53487,0.13927 -13.98342,1.44291 -28.69107,11.89844 -33.87914,23.18545 -3.51953,7.62402 -7.6101,22.21747 5.03626,33.83735 5.25074,4.90116 13.29817,6.88447 21.00297,5.17833 7.86219,-1.84125 13.94163,-7.04742 16.90406,-14.48621 2.87328,-7.28558 2.62537,-13.50569 -0.70475,-17.71743 -3.3315,-4.37191 -8.96108,-6.52513 -14.21322,-5.47637 -5.66439,1.11421 -9.30927,4.14349 -11.10177,9.14632 -1.46519,3.77441 -0.58357,7.12959 0.83566,8.6505 0.4443,0.46936 1.28553,1.29109 2.62259,1.64904 l 0.0418,0.0111 c 3.77859,1.01254 5.69783,-2.14348 5.93878,-2.82454 0.0696,-0.25906 0.30362,-1.22146 0.36212,-2.6964 l -0.11421,-0.7521 -0.0975,-0.47633 0.0362,-0.30501 c 0.19081,-2.62398 2.35796,-4.61564 4.94572,-4.66718 0.5209,0.0223 1.00976,0.0905 1.43177,0.20335 1.61979,0.43454 2.9276,1.55712 3.51535,3.19501 l -0.0111,0.0418 0.0306,0.0529 -0.0111,0.0418 0.0891,0.33984 c 0.23955,0.79527 0.35376,1.55712 0.33148,2.29668 0.12535,2.09473 -0.003,3.88026 -0.47494,5.64072 -1.58636,5.92066 -8.90119,12.77309 -18.57538,10.29814 -5.44433,-1.4067 -9.71457,-5.34266 -11.55442,-11.02656 -2.28275,-6.43042 -0.89833,-16.17842 6.88864,-23.5225 9.56834,-9.02933 23.42919,-8.32876 31.56714,-3.12259 11.85805,7.57806 15.61853,20.93334 10.10316,35.78027 -3.79809,10.5753 -12.1366,18.95839 -22.38182,22.66037 -4.546,1.63233 -9.32738,2.39835 -13.82742,2.33289 -10.39703,-0.21309 -20.07261,-5.41648 -24.22446,-8.47361 -12.96808,-9.81903 -22.50717,-24.31916 -28.30666,-43.17588 l -0.34959,-1.22007 c -12.17977,-40.04772 -2.9276,-65.39335 2.57802,-82.93947 6.37471,-20.79267 19.63806,-41.16611 21.48627,-44.03383 -0.84541,-0.22702 -7.10174,-2.08358 -7.10174,-2.08358 l -0.14624,-0.12953 0.0362,-0.30501 c 0.53344,-1.33428 13.19372,-30.27047 24.00022,-40.97113 1.38302,-1.33984 2.70198,-1.91506 3.84405,-2.57523 4.62678,-2.590554 21.04476,-3.132342 24.30802,-2.768829 m -14.7578,6.814829 c -6.6268,-1.33288 -13.40402,2.56687 -15.45975,9.24242 -1.02229,3.38165 -0.70613,6.99171 1.0223,10.14215 l -0.0961,0.0195 c 1.76881,3.22287 4.54321,5.45827 8.01957,6.56413 7.07527,2.12954 14.63523,-1.84124 16.78288,-8.79674 1.03761,-3.43596 0.69778,-7.00563 -0.94708,-10.25636 -1.72843,-3.15323 -4.59615,-5.53069 -7.9764,-6.55298 -0.43872,-0.1351 -0.90391,-0.27159 -1.34542,-0.36073 m -1.14346,3.929 c 0.3092,0.0599 0.617,0.15599 0.9248,0.24792 2.37189,0.75209 4.34823,2.34264 5.58501,4.55993 1.1936,2.14765 1.41366,4.74517 0.66156,7.11705 l 0.0641,-0.0724 c -1.5599,4.94712 -6.82457,7.65884 -11.79119,6.16858 -2.38582,-0.69778 -4.35937,-2.30086 -5.59894,-4.51815 -1.17967,-2.20197 -1.4248,-4.70338 -0.67271,-7.07388 1.44848,-4.58778 6.17973,-7.32458 10.82461,-6.42763 m -2.07522,2.8691 c -1.48748,-0.39833 -3.11981,1.04737 -3.7187,3.28416 -0.59889,2.23679 0.14624,4.32037 1.57801,4.70338 1.48748,0.39833 3.20337,-1.02508 3.80226,-3.26187 0.59889,-2.23679 -0.17549,-4.32733 -1.66297,-4.72567 m -98.37136,260.53162 -24.76067,92.41031 114.05674,30.56156 24.70636,-92.36853 -113.99825,-30.5922 m 14.09483,59.56043 23.16456,6.20758 -5.05019,19.0141 -23.23698,-6.27165 5.12261,-18.94864 m 35.35687,9.47363 23.16455,6.20757 -5.08082,18.96118 -23.20634,-6.21872 5.12261,-18.94864"
     style="fill:#009688" />
</svg>
