<?xml version="1.0" encoding="UTF-8" standalone="no"?>
<svg
   xmlns:dc="http://purl.org/dc/elements/1.1/"
   xmlns:cc="http://creativecommons.org/ns#"
   xmlns:rdf="http://www.w3.org/1999/02/22-rdf-syntax-ns#"
   xmlns:svg="http://www.w3.org/2000/svg"
   xmlns="http://www.w3.org/2000/svg"
   xmlns:sodipodi="http://sodipodi.sourceforge.net/DTD/sodipodi-0.dtd"
   xmlns:inkscape="http://www.inkscape.org/namespaces/inkscape"
   width="1814.17"
   height="1814.17"
   viewBox="0 0 512 512"
   version="1.1"
   id="svg2"
   inkscape:version="0.91 r"
   sodipodi:docname="imdb.svg">
  <defs
     id="defs18" />
  <sodipodi:namedview
     pagecolor="#ffffff"
     bordercolor="#666666"
     borderopacity="1"
     objecttolerance="10"
     gridtolerance="10"
     guidetolerance="10"
     inkscape:pageopacity="0"
     inkscape:pageshadow="2"
     inkscape:window-width="647"
     inkscape:window-height="480"
     id="namedview16"
     showgrid="false"
     inkscape:zoom="0.13008703"
     inkscape:cx="907.08502"
     inkscape:cy="907.08502"
     inkscape:window-x="0"
     inkscape:window-y="0"
     inkscape:window-maximized="0"
     inkscape:current-layer="layer1" />
  <metadata
     id="metadata6674">
    <rdf:RDF>
      <cc:Work
         rdf:about="">
        <dc:format>image/svg+xml</dc:format>
        <dc:type
           rdf:resource="http://purl.org/dc/dcmitype/StillImage" />
      </cc:Work>
    </rdf:RDF>
  </metadata>
  <g
     inkscape:label="Layer 1"
     inkscape:groupmode="layer"
     id="layer1"
     transform="translate(0,215.00001)">
    <path
       style="fill:#009688"
       inkscape:connector-curvature="0"
       id="path6638"
       d="m 89.851012,-24.877339 0,131.764689 32.346328,0 0,-131.764689 -32.346328,0 m 48.409068,0 0,131.764689 29.11373,0 0,-73.978954 13.61621,73.978954 20.04729,0 13.30197,-73.978954 0,73.978954 27.57672,0 0,-131.764689 -43.76497,0 -7.52939,62.117629 -10.85541,-62.117629 -41.50213,0 m 120.69145,0 0,131.764689 36.30182,0 c 20.63257,0 27.54557,-2.27688 33.35024,-6.83969 5.73642,-4.562822 8.5966,-10.973868 8.5966,-19.164881 l 0,-79.7515248 c 0,-8.8264905 -3.07703,-15.3770542 -9.22403,-19.6076022 -6.13497,-4.274675 -11.35133,-6.400004 -32.8473,-6.400004 l -36.1713,0 m 88.56595,0 0,131.764722 26.66718,0 c 0,0 2.05001,-7.835592 4.29778,-6.83973 2.26986,0.97481 13.71957,5.77257 21.61542,5.77257 7.89585,0 11.08329,-0.51603 14.93334,-2.13333 4.7174,-3.13425 7.0877,-7.385854 7.0877,-12.768896 l 0,-76.639362 C 422.9371,3.2384839 411.16912,-3.4325888 402.17598,-3.8512193 c -9.00418,-0.4096 -18.28242,5.4171921 -21.61542,9.1608106 l 0,-30.1778993 -33.03504,0 M 292.2195,-3.8803219 c 5.02964,-0.022766 10.35342,0.2458738 10.35342,5.8669362 l 0,77.2708167 c 0,6.235368 -6.97121,5.396096 -12.48675,5.396096 l 0,-88.5057328 c 0.6897,0 1.41552,-0.02656 2.13333,-0.030355 m 92.89284,16.8156816 c 3.00171,0 4.51763,1.618328 4.51763,4.86299 l 0,66.389345 c -0.0114,3.227587 -1.52594,5.459309 -4.51763,5.459309 -3.04591,0 -4.58088,-2.245761 -4.58088,-5.490423 l 0,-66.539942 c 0,-3.112163 1.51288,-4.674259 4.58088,-4.674259" />
  </g>
</svg>
