<?xml version="1.0" encoding="UTF-8" standalone="no"?>
<svg
   xmlns:dc="http://purl.org/dc/elements/1.1/"
   xmlns:cc="http://creativecommons.org/ns#"
   xmlns:rdf="http://www.w3.org/1999/02/22-rdf-syntax-ns#"
   xmlns:svg="http://www.w3.org/2000/svg"
   xmlns="http://www.w3.org/2000/svg"
   xmlns:sodipodi="http://sodipodi.sourceforge.net/DTD/sodipodi-0.dtd"
   xmlns:inkscape="http://www.inkscape.org/namespaces/inkscape"
   height="512"
   viewBox="0 0 512 512"
   width="512"
   version="1.1"
   id="svg2"
   inkscape:version="0.91 r13725"
   sodipodi:docname="inkscape.svg">
  <defs
     id="defs17" />
  <sodipodi:namedview
     pagecolor="#ffffff"
     bordercolor="#666666"
     borderopacity="1"
     objecttolerance="10"
     gridtolerance="10"
     guidetolerance="10"
     inkscape:pageopacity="0"
     inkscape:pageshadow="2"
     inkscape:window-width="1920"
     inkscape:window-height="1019"
     id="namedview15"
     showgrid="false"
     inkscape:zoom="0.87831352"
     inkscape:cx="300.73592"
     inkscape:cy="262.10885"
     inkscape:window-x="0"
     inkscape:window-y="13"
     inkscape:window-maximized="1"
     inkscape:current-layer="svg2"
     showguides="false" />
  <metadata
     id="metadata28">
    <rdf:RDF>
      <cc:Work
         rdf:about="">
        <dc:format>image/svg+xml</dc:format>
        <dc:type
           rdf:resource="http://purl.org/dc/dcmitype/StillImage" />
        <dc:title></dc:title>
      </cc:Work>
    </rdf:RDF>
  </metadata>
  <path
     style="fill:#009688"
     inkscape:connector-curvature="0"
     d="m 258.68015,61.89812 c -11.96679,0 -23.76932,4.315811 -32.26903,12.988501 L 83.508979,221.28572 c -54.118155,54.08453 35.031741,49.59076 67.300771,70.07593 14.91992,9.7056 -47.87464,22.16396 -35.03174,35.00686 12.482,12.83667 75.25292,24.64915 87.73492,37.12991 12.482,12.83668 -25.30997,26.35781 -12.82797,39.192 12.14227,12.82174 41.29142,0.6857 46.50573,29.81245 3.80932,21.51186 53.37893,10.78704 75.58395,-7.60618 13.87705,-11.78884 -23.89377,-11.8187 -11.40927,-24.66409 31.23612,-31.55097 58.97529,-14.20186 70.42438,-43.35101 6.23478,-15.60064 -47.21134,-26.68386 -33.00451,-36.73666 33.9976,-23.93359 158.8811,-36.10199 101.28717,-93.67103 L 291.93106,74.885377 C 282.75063,66.213931 270.63823,61.896875 258.66895,61.896875 m 0.54756,18.33971 c 7.84637,0.06471 15.69522,3.027788 21.4011,8.736158 l 51.89054,52.827627 c 4.77502,4.77502 4.76631,14.66853 1.90155,17.53454 l -25.78411,-21.01407 -5.09236,30.87647 -21.30528,-11.44163 -34.71191,21.9163 -11.47399,-46.11994 -18.46789,40.09672 -46.11994,-0.32231 c -8.91288,0 -7.64974,-9.24141 1.57922,-18.46789 18.14184,-20.04837 53.48222,-54.10196 64.62891,-65.883328 5.36987,-5.520456 12.63631,-8.398908 20.01103,-8.702558 0.52267,-0.02116 1.02419,-0.03609 1.54562,-0.03236 M 192.05014,299.31628 c 3.11864,0 106.83749,13.87705 66.94237,24.61805 -15.26214,4.14905 -85.32065,-24.61805 -66.94237,-24.61805 m 230.28862,52.89109 c -12.60645,0.009 -25.6746,6.49986 -34.19671,24.88188 24.2447,13.50122 55.57167,15.42268 70.42438,-2.48147 -2.5748,-10.28179 -18.95323,-22.41285 -36.22643,-22.40041 m -273.95696,30.94119 c -8.07534,0.27253 -24.34053,3.34015 -26.7187,11.3458 -3.86532,15.73753 26.14625,20.4105 35.87176,1.09762 3.1821,-5.81913 2.86476,-4.42781 3.54548,-6.86572 -2.36448,-2.54867 -5.20187,-5.05005 -9.79893,-5.51175 -0.75415,-0.0684 -1.74723,-0.10204 -2.90085,-0.0647 m 194.51018,27.75535 c -1.21459,0.0124 -2.58102,0.112 -4.1254,0.32231 -5.40597,-0.0174 -8.44496,7.28263 -8.44496,7.28263 -1.02544,4.57466 -1.90279,10.1088 1.09762,15.56828 4.00594,7.11959 13.18638,10.41494 25.42944,6.44634 7.17684,-8.46985 6.34181,-11.70048 -0.0958,-19.85423 -4.20879,-5.32881 -5.36117,-9.84871 -13.86212,-9.76658"
     id="path22" />
</svg>
