<?xml version="1.0" encoding="UTF-8" standalone="no"?>
<svg
   xmlns:dc="http://purl.org/dc/elements/1.1/"
   xmlns:cc="http://creativecommons.org/ns#"
   xmlns:rdf="http://www.w3.org/1999/02/22-rdf-syntax-ns#"
   xmlns:svg="http://www.w3.org/2000/svg"
   xmlns="http://www.w3.org/2000/svg"
   xmlns:sodipodi="http://sodipodi.sourceforge.net/DTD/sodipodi-0.dtd"
   xmlns:inkscape="http://www.inkscape.org/namespaces/inkscape"
   sodipodi:docname="evolution.svg"
   inkscape:version="0.91 r13725"
   id="svg2"
   version="1.1"
   width="512"
   viewBox="0 0 512 512"
   height="512">
  <defs
     id="defs17" />
  <sodipodi:namedview
     inkscape:current-layer="svg2"
     inkscape:window-maximized="1"
     inkscape:window-y="0"
     inkscape:window-x="0"
     inkscape:cy="-64.30073"
     inkscape:cx="724.02034"
     inkscape:zoom="0.75262253"
     showgrid="false"
     id="namedview15"
     inkscape:window-height="1020"
     inkscape:window-width="1920"
     inkscape:pageshadow="2"
     inkscape:pageopacity="0"
     guidetolerance="10"
     gridtolerance="10"
     objecttolerance="10"
     borderopacity="1"
     bordercolor="#666666"
     pagecolor="#ffffff" />
  <metadata
     id="metadata28">
    <rdf:RDF>
      <cc:Work
         rdf:about="">
        <dc:format>image/svg+xml</dc:format>
        <dc:type
           rdf:resource="http://purl.org/dc/dcmitype/StillImage" />
        <dc:title></dc:title>
      </cc:Work>
    </rdf:RDF>
  </metadata>
  <g
     transform="matrix(12.173589,0,0,12.173589,-30.435558,-20.4654)"
     id="g4252">
    <path
       inkscape:connector-curvature="0"
       id="path41"
       d="m 33.968385,19.203728 0,6.428765 -21.690462,0 0,-6.163989 -1.969934,1.313289 0,15.492583 c 0,1.859075 0.0051,1.859786 1.933925,1.859786 l 0.0021,0 22.169176,0 c 1.927198,0 1.923335,1.71e-4 1.923335,-1.859786 l 0,-15.492583 -2.368158,-1.578065 z"
       style="fill:#009688;fill-opacity:1;fill-rule:nonzero;stroke:none" />
    <path
       inkscape:connector-curvature="0"
       id="path43-3"
       d="m 13.175396,4.8659479 0,20.0000001 20,0 0,-20.0000001 -20,0 z m 2.355469,2 7.289062,0 c 0.195,0 0.353516,0.160469 0.353516,0.355469 l 0,0.289062 c 0,0.195 -0.158516,0.3535163 -0.353516,0.3535163 l -7.289062,0 c -0.195,0 -0.355469,-0.1585163 -0.355469,-0.3535163 l 0,-0.289062 c 0,-0.195 0.160469,-0.355469 0.355469,-0.355469 z m 0,2.0000003 11.289062,0 c 0.195,0 0.353516,0.160469 0.353516,0.355469 l 0,0.289062 c 0,0.195 -0.158516,0.353516 -0.353516,0.353516 l -11.289062,0 c -0.195,0 -0.355469,-0.158516 -0.355469,-0.353516 l 0,-0.289062 c 0,-0.195 0.160469,-0.355469 0.355469,-0.355469 z m 0,1.9999998 15.289062,0 c 0.195,0 0.353516,0.160469 0.353516,0.355469 l 0,0.289062 c 0,0.195 -0.158516,0.353516 -0.353516,0.353516 l -15.289062,0 c -0.195,0 -0.355469,-0.158516 -0.355469,-0.353516 l 0,-0.289062 c 0,-0.195 0.160469,-0.355469 0.355469,-0.355469 z"
       style="fill:#009688;fill-opacity:1;fill-rule:nonzero;stroke:none" />
  </g>
</svg>
