<?xml version="1.0" encoding="UTF-8" standalone="no"?>
<svg
   xmlns:dc="http://purl.org/dc/elements/1.1/"
   xmlns:cc="http://creativecommons.org/ns#"
   xmlns:rdf="http://www.w3.org/1999/02/22-rdf-syntax-ns#"
   xmlns:svg="http://www.w3.org/2000/svg"
   xmlns="http://www.w3.org/2000/svg"
   xmlns:sodipodi="http://sodipodi.sourceforge.net/DTD/sodipodi-0.dtd"
   xmlns:inkscape="http://www.inkscape.org/namespaces/inkscape"
   height="512"
   viewBox="0 0 512 512"
   width="512"
   version="1.1"
   id="svg2"
   inkscape:version="0.91 r"
   sodipodi:docname="kblocks.svg">
  <defs
     id="defs17" />
  <sodipodi:namedview
     pagecolor="#ffffff"
     bordercolor="#666666"
     borderopacity="1"
     objecttolerance="10"
     gridtolerance="10"
     guidetolerance="10"
     inkscape:pageopacity="0"
     inkscape:pageshadow="2"
     inkscape:window-width="1920"
     inkscape:window-height="1028"
     id="namedview15"
     showgrid="false"
     inkscape:zoom="1.3037281"
     inkscape:cx="-60.313889"
     inkscape:cy="244.919"
     inkscape:window-x="0"
     inkscape:window-y="0"
     inkscape:window-maximized="1"
     inkscape:current-layer="svg2" />
  <metadata
     id="metadata28">
    <rdf:RDF>
      <cc:Work
         rdf:about="">
        <dc:format>image/svg+xml</dc:format>
        <dc:type
           rdf:resource="http://purl.org/dc/dcmitype/StillImage" />
        <dc:title />
      </cc:Work>
    </rdf:RDF>
  </metadata>
  <path
     inkscape:connector-curvature="0"
     style="fill:#009688"
     d="m 120.44136,116.74145 0,118.17 118.38,0 0,-118.17 -118.38,0 m 157.5,0 0,118.17 118.38,0 0,-118.17 -118.38,0 m -129.13,28.327 61.64,0 0,61.52 -61.64,0 0,-61.52 m 157.5,0 61.64,0 0,61.52 -61.64,0 0,-61.52 m -185.87,129.91 0,118.13 118.38,0 0,-118.13 -118.38,0 m 157.5,0 0,118.13 118.38,0 0,-118.13 -118.38,0 m -129.13,28.327 61.64,0 0,61.48 -61.64,0 0,-61.48 m 157.5,0 61.64,0 0,61.48 -61.64,0 0,-61.48"
     id="path3812" />
</svg>
