<?xml version="1.0" encoding="UTF-8" standalone="no"?>
<svg
   xmlns:dc="http://purl.org/dc/elements/1.1/"
   xmlns:cc="http://creativecommons.org/ns#"
   xmlns:rdf="http://www.w3.org/1999/02/22-rdf-syntax-ns#"
   xmlns:svg="http://www.w3.org/2000/svg"
   xmlns="http://www.w3.org/2000/svg"
   xmlns:sodipodi="http://sodipodi.sourceforge.net/DTD/sodipodi-0.dtd"
   xmlns:inkscape="http://www.inkscape.org/namespaces/inkscape"
   sodipodi:docname="lbreakout2.svg"
   inkscape:version="0.91 r13725"
   id="svg2"
   version="1.1"
   width="512"
   viewBox="0 0 512 512"
   height="512">
  <defs
     id="defs17" />
  <sodipodi:namedview
     inkscape:current-layer="svg2"
     inkscape:window-maximized="1"
     inkscape:window-y="0"
     inkscape:window-x="1920"
     inkscape:cy="366.32263"
     inkscape:cx="25.039737"
     inkscape:zoom="0.8359594"
     showgrid="false"
     id="namedview15"
     inkscape:window-height="1022"
     inkscape:window-width="1680"
     inkscape:pageshadow="2"
     inkscape:pageopacity="0"
     guidetolerance="10"
     gridtolerance="10"
     objecttolerance="10"
     borderopacity="1"
     bordercolor="#666666"
     pagecolor="#ffffff" />
  <metadata
     id="metadata28">
    <rdf:RDF>
      <cc:Work
         rdf:about="">
        <dc:format>image/svg+xml</dc:format>
        <dc:type
           rdf:resource="http://purl.org/dc/dcmitype/StillImage" />
        <dc:title></dc:title>
      </cc:Work>
    </rdf:RDF>
  </metadata>
  <path
     style="fill-opacity:0.06700003;fill-rule:evenodd"
     inkscape:connector-curvature="0"
     d="M 256,1 C 115.17,1 1,115.17 1,256 1,396.83 115.17,511 256,511 396.83,511 511,396.83 511,256 511,115.17 396.83,1 256,1 m 8.827,44.931 c 120.9,0 218.9,98 218.9,218.9 0,120.9 -98,218.9 -218.9,218.9 -120.9,0 -218.93,-98 -218.93,-218.9 0,-120.9 98.03,-218.9 218.93,-218.9"
     id="path8" />
  <g
     transform="matrix(11.391497,0,0,11.391497,-11.615377,-33.807332)"
     id="g4210">
    <path
       inkscape:connector-curvature="0"
       id="path52"
       style="fill:#009688;fill-opacity:1;stroke:none"
       d="m 18.512185,21.290254 c 0.828,1.059323 4.698857,9.816141 5.803714,12.55051 -3,0 -4.000285,0 -7.999714,0 -3.118286,-2.56098 -7.3679995,-7.061521 -8.1959995,-8.120843" />
    <circle
       id="circle54"
       style="fill:#009688;fill-opacity:1;stroke:none"
       transform="matrix(0.8660254,-0.5,0.5,0.8660254,0,0)"
       cx="0.64801884"
       cy="19.682276"
       r="6" />
    <path
       inkscape:connector-curvature="0"
       id="path56"
       style="fill:#009688;fill-opacity:1;stroke:none"
       d="m 25.932272,33.787053 c 1.990286,-1.981714 15.858858,-16.027714 16.918286,-14.847429 0.848572,1.319143 -5.142857,9.888 -8.918571,14.847429" />
    <rect
       id="rect58"
       style="fill:#009688;fill-opacity:1;fill-rule:evenodd;stroke:none"
       rx="0.68751436"
       y="35.068417"
       x="11.880443"
       height="4"
       width="24.750517" />
  </g>
</svg>
