<?xml version="1.0" encoding="UTF-8" standalone="no"?>
<svg
   xmlns:dc="http://purl.org/dc/elements/1.1/"
   xmlns:cc="http://creativecommons.org/ns#"
   xmlns:rdf="http://www.w3.org/1999/02/22-rdf-syntax-ns#"
   xmlns:svg="http://www.w3.org/2000/svg"
   xmlns="http://www.w3.org/2000/svg"
   xmlns:sodipodi="http://sodipodi.sourceforge.net/DTD/sodipodi-0.dtd"
   xmlns:inkscape="http://www.inkscape.org/namespaces/inkscape"
   viewBox="0 0 512 512"
   id="svg2"
   version="1.1"
   inkscape:version="0.91 r"
   sodipodi:docname="kdiff3.svg">
  <metadata
     id="metadata76">
    <rdf:RDF>
      <cc:Work
         rdf:about="">
        <dc:format>image/svg+xml</dc:format>
        <dc:type
           rdf:resource="http://purl.org/dc/dcmitype/StillImage" />
      </cc:Work>
    </rdf:RDF>
  </metadata>
  <defs
     id="defs74" />
  <sodipodi:namedview
     pagecolor="#ffffff"
     bordercolor="#666666"
     borderopacity="1"
     objecttolerance="10"
     gridtolerance="10"
     guidetolerance="10"
     inkscape:pageopacity="0"
     inkscape:pageshadow="2"
     inkscape:window-width="647"
     inkscape:window-height="480"
     id="namedview72"
     showgrid="false"
     inkscape:zoom="0.4609375"
     inkscape:cx="256"
     inkscape:cy="256"
     inkscape:window-x="0"
     inkscape:window-y="0"
     inkscape:window-maximized="0"
     inkscape:current-layer="svg2" />
  <text
     font-size="129.22"
     y="231.34"
     x="729.63"
     font-family="'Gentium Book Basic'"
     line-height="125%"
     word-spacing="0"
     letter-spacing="0"
     id="text20">
    <tspan
       y="231.34"
       x="729.63"
       id="tspan22" />
  </text>
  <text
     transform="scale(4.0128.2492)"
     font-size="46.952"
     y="579.26"
     x="378.92"
     font-family="Arial"
     text-anchor="middle"
     id="text24" />
  <text
     font-size="129.22"
     y="151.36"
     x="1310.91"
     font-family="'Gentium Book Basic'"
     line-height="125%"
     word-spacing="0"
     letter-spacing="0"
     id="text26">
    <tspan
       y="151.36"
       x="1310.91"
       id="tspan28" />
  </text>
  <text
     transform="scale(4.0128.2492)"
     font-size="46.952"
     y="258.22"
     x="523.77"
     font-family="Arial"
     text-anchor="middle"
     id="text30" />
  <text
     font-size="129.22"
     y="-29.902"
     x="239.31"
     font-family="'Gentium Book Basic'"
     line-height="125%"
     word-spacing="0"
     letter-spacing="0"
     id="text32">
    <tspan
       y="-29.902"
       x="239.31"
       id="tspan34" />
  </text>
  <text
     transform="scale(4.0128.2492)"
     font-size="46.952"
     y="-469.13"
     x="256.71"
     font-family="Arial"
     text-anchor="middle"
     id="text36" />
  <text
     font-size="129.22"
     y="-246.37"
     x="1337.38"
     font-family="'Gentium Book Basic'"
     line-height="125%"
     word-spacing="0"
     letter-spacing="0"
     id="text38">
    <tspan
       y="-246.37"
       x="1337.38"
       id="tspan40" />
  </text>
  <text
     transform="scale(4.0128.2492)"
     font-size="46.952"
     y="-1337.81"
     x="530.36"
     font-family="Arial"
     text-anchor="middle"
     id="text42" />
  <text
     font-size="129.22"
     y="-326.37"
     x="1918.66"
     font-family="'Gentium Book Basic'"
     line-height="125%"
     word-spacing="0"
     letter-spacing="0"
     id="text44">
    <tspan
       y="-326.37"
       x="1918.66"
       id="tspan46" />
  </text>
  <text
     transform="scale(4.0128.2492)"
     font-size="46.952"
     y="-1658.83"
     x="675.21"
     font-family="Arial"
     text-anchor="middle"
     id="text48" />
  <text
     font-size="129.22"
     y="-798.77"
     x="1529.54"
     font-family="'Gentium Book Basic'"
     line-height="125%"
     word-spacing="0"
     letter-spacing="0"
     id="text50">
    <tspan
       y="-798.77"
       x="1529.54"
       id="tspan52" />
  </text>
  <text
     transform="scale(4.0128.2492)"
     font-size="46.952"
     y="-3554.49"
     x="578.23"
     font-family="Arial"
     text-anchor="middle"
     id="text54" />
  <text
     font-size="129.22"
     y="-878.78"
     x="2110.78"
     font-family="'Gentium Book Basic'"
     line-height="125%"
     word-spacing="0"
     letter-spacing="0"
     id="text56">
    <tspan
       y="-878.78"
       x="2110.78"
       id="tspan58" />
  </text>
  <text
     transform="scale(4.0128.2492)"
     font-size="46.952"
     y="-3875.51"
     x="723.08"
     font-family="Arial"
     text-anchor="middle"
     id="text60" />
  <text
     font-size="208.33"
     y="535.92"
     x="277.97"
     font-family="'Gentium Book Basic'"
     line-height="125%"
     word-spacing="0"
     letter-spacing="0"
     id="text62">
    <tspan
       y="535.92"
       x="277.97"
       id="tspan64" />
  </text>
  <path
     style="fill:#009688;fill-rule:evenodd"
     inkscape:connector-curvature="0"
     id="path70"
     d="m 245.19,97.19 0,207.59 21.625,0 0,-207.59 -21.625,0 m -110.16,19.781 0,21.656 95.59,0 0,-21.656 -95.59,0 m 146.34,0 0,21.656 78.41,0 0,-21.656 -78.41,0 m -194.87,50.875 0,21.656 144.13,0 0,-21.656 -144.12,0 m 194.88,0 0,21.656 100.84,0 0,-21.656 -100.84,0 m -151.56,50.875 0,21.656 100.81,0 0,-21.656 -100.81,0 m 151.56,0 0,21.656 144.13,0 0,-21.656 -144.12,0 m -129.16,50.844 0,21.656 78.41,0 0,-21.656 -78.41,0 m 129.16,0 0,21.656 95.59,0 0,-21.656 -95.59,0 m 17.75,58.781 c -6.433,0 -11.11,1.308 -14.03,3.938 -2.921,2.63 -4.375,6.824 -4.375,12.531 l 0,3.656 -7.844,3.688 0,6.594 7.844,0 0,39.844 14.219,0 0,-39.844 12.281,0 0,-10.281 -12.281,0 0,-3.125 c 0,-1.793 0.442,-3.271 1.344,-4.406 0.901,-1.165 2.355,-1.75 4.375,-1.75 2.424,0 5.078,0.446 7.938,1.313 l 3.625,-10.03 c -3.823,-1.404 -8.184,-2.125 -13.09,-2.125 m 36.906,0 c -6.433,0 -11.11,1.308 -14.03,3.938 -2.921,2.63 -4.375,6.824 -4.375,12.531 l 0,3.656 -7.844,3.688 0,6.594 7.844,0 0,39.844 14.219,0 0,-39.844 12.313,0 0,-10.281 -12.313,0 0,-3.125 c 0,-1.793 0.442,-3.271 1.344,-4.406 0.901,-1.165 2.355,-1.75 4.375,-1.75 2.424,0 5.078,0.446 7.938,1.313 l 3.625,-10.03 c -3.823,-1.404 -8.184,-2.125 -13.09,-2.125 m -79.56,0.5 c -5.159,0 -7.75,2.235 -7.75,6.688 0,4.482 2.591,6.719 7.75,6.719 2.579,0 4.507,-0.585 5.781,-1.75 1.305,-1.195 1.969,-2.847 1.969,-4.969 0,-4.452 -2.591,-6.687 -7.75,-6.688 m 112.69,3.281 c -7.93,0.252 -14.798,2.403 -20.625,6.438 l 6.656,9.563 c 2.828,-1.763 5.388,-3 7.688,-3.719 2.331,-0.717 4.637,-1.094 6.875,-1.094 6.464,0 9.687,2.477 9.688,7.438 0,3.227 -1.232,5.53 -3.688,6.875 -2.424,1.315 -6.279,1.969 -11.563,1.969 l -5.25,0 0,10.625 5.156,0 c 5.718,0 9.889,0.653 12.5,1.938 2.61,1.285 3.906,3.453 3.906,6.531 0,3.436 -1.138,5.915 -3.406,7.469 -2.269,1.554 -5.776,2.344 -10.531,2.344 -3.108,0 -6.236,-0.412 -9.406,-1.219 -3.17,-0.807 -6.077,-1.84 -8.719,-3.125 l 0,11.781 c 5.718,2.361 12.291,3.531 19.688,3.531 8.826,0 15.589,-1.723 20.344,-5.219 4.755,-3.526 7.156,-8.445 7.156,-14.75 0,-4.333 -1.422,-7.772 -4.25,-10.313 -2.828,-2.57 -6.999,-4.186 -12.5,-4.844 l 0,-0.281 c 4.662,-1.076 8.296,-3.038 10.875,-5.906 2.579,-2.869 3.875,-6.344 3.875,-10.438 0,-4.901 -2.054,-8.72 -6.156,-11.469 -4.071,-2.749 -9.633,-4.125 -16.688,-4.125 -0.538,0 -1.096,-0.017 -1.625,0 m -252.78,0.938 0,65.53 14.469,0 0,-23.406 6.094,-4.219 17.844,27.625 16.438,0 -23.969,-36.531 23.781,-29 -16.06,0 -18.438,22.281 -5.688,7.688 0,-29.969 -14.469,0 m 63.41,0 0,65.53 19.313,0 c 12.06,0 21.254,-2.888 27.625,-8.625 6.402,-5.737 9.594,-13.994 9.594,-24.781 0,-10.13 -3.066,-18.01 -9.219,-23.656 -6.153,-5.648 -14.781,-8.469 -25.906,-8.469 l -21.406,0 m 14.438,11.375 7.719,0 c 12.928,0 19.375,7.05 19.375,21.13 0,14.373 -6.952,21.563 -20.875,21.563 l -6.219,0 0,-42.688 m 55.13,4.03 0,50.13 14.219,0 0,-50.12 -14.219,0" />
</svg>
