<?xml version="1.0" encoding="UTF-8" standalone="no"?>
<svg
   xmlns:dc="http://purl.org/dc/elements/1.1/"
   xmlns:cc="http://creativecommons.org/ns#"
   xmlns:rdf="http://www.w3.org/1999/02/22-rdf-syntax-ns#"
   xmlns:svg="http://www.w3.org/2000/svg"
   xmlns="http://www.w3.org/2000/svg"
   xmlns:sodipodi="http://sodipodi.sourceforge.net/DTD/sodipodi-0.dtd"
   xmlns:inkscape="http://www.inkscape.org/namespaces/inkscape"
   height="512"
   viewBox="0 0 512 512"
   width="512"
   version="1.1"
   id="svg2"
   inkscape:version="0.91 r"
   sodipodi:docname="kfind.svg">
  <defs
     id="defs16" />
  <sodipodi:namedview
     pagecolor="#ffffff"
     bordercolor="#666666"
     borderopacity="1"
     objecttolerance="10"
     gridtolerance="10"
     guidetolerance="10"
     inkscape:pageopacity="0"
     inkscape:pageshadow="2"
     inkscape:window-width="640"
     inkscape:window-height="480"
     id="namedview14"
     showgrid="false"
     inkscape:zoom="0.4609375"
     inkscape:cx="256"
     inkscape:cy="256"
     inkscape:window-x="0"
     inkscape:window-y="0"
     inkscape:window-maximized="0"
     inkscape:current-layer="svg2" />
  <metadata
     id="metadata72">
    <rdf:RDF>
      <cc:Work
         rdf:about="">
        <dc:format>image/svg+xml</dc:format>
        <dc:type
           rdf:resource="http://purl.org/dc/dcmitype/StillImage" />
      </cc:Work>
    </rdf:RDF>
  </metadata>
  <path
     id="path66"
     d="m 194.76872,62.38632 c -6.42234,-0.02734 -19.36176,3.877039 -25.68403,7.770783 -15.49875,9.543012 -25.3531,27.016267 -27.82169,49.347577 -0.55777,5.04789 -0.87401,5.55512 -4.37141,6.82621 -12.32028,4.48144 -27.60819,16.69267 -43.966288,35.1105 -28.63966,32.25096 -49.398514,70.5855 -57.404757,105.99214 -3.242528,14.35096 -3.303909,35.11051 -0.1281,49.74698 7.681991,35.40056 30.810692,64.05543 61.195717,75.85358 5.481608,2.12911 12.940758,4.35237 16.591598,4.93856 29.72853,4.76999 59.16615,-6.04562 80.18253,-29.44758 8.46661,-9.43215 14.45127,-18.53476 19.1109,-29.05121 3.74025,-8.4405 7.95821,-24.43461 8.64674,-32.82498 0.32826,-3.99854 0.92739,-7.26205 1.33438,-7.26205 0.41232,0 3.20517,1.29994 6.22218,2.86867 12.15482,6.32354 29.46298,6.31139 41.5791,0 3.03436,-1.58088 5.84054,-2.86867 6.25288,-2.86867 0.41232,0 1.04347,3.26351 1.37172,7.26205 0.68854,8.38582 4.87315,24.38904 8.61473,32.82498 7.50451,16.93262 21.7663,34.46055 35.79857,44.00963 17.72449,12.06088 39.66427,17.55374 59.63183,14.88704 39.77903,-5.31213 72.17629,-37.53575 81.65035,-81.18547 3.17581,-14.63798 3.14645,-35.39601 -0.096,-49.74697 -7.99824,-35.40361 -28.79044,-73.74119 -57.43144,-105.99214 -16.3581,-18.42087 -31.61399,-30.63058 -43.93427,-35.11051 -3.49739,-1.27261 -3.8123,-1.7783 -4.37141,-6.8262 -3.1638,-28.604742 -17.70313,-48.103831 -40.93459,-54.867768 -9.38064,-2.728962 -14.82489,-2.847414 -24.44039,-0.545185 -20.76686,4.971964 -37.4025,24.129363 -41.63246,47.894263 l -1.30768,7.2256 -1.18093,-7.18916 C 243.55876,83.950731 220.43006,62.500216 194.77806,62.389358 m 54.39842,153.304762 c 3.86568,-0.0956 7.79007,0.80639 11.55034,2.83223 20.45996,11.02671 21.16584,43.55556 1.18092,54.68553 -18.86805,10.50886 -39.52415,-3.99853 -39.43475,-27.70571 0.0627,-16.7504 12.89939,-29.47036 26.70082,-29.81205 m -121.69489,0.0365 c 19.13625,0 34.22536,7.27875 48.01744,23.13012 9.5688,10.99633 14.74483,21.13464 17.86726,34.97383 2.1777,9.66147 2.18838,27.31087 0,36.59876 -6.43834,27.33518 -25.17696,48.89959 -48.46445,55.77439 -6.65586,1.96357 -20.77887,3.11165 -26.09902,2.14276 -27.933778,-5.08737 -50.317902,-27.5174 -57.207274,-57.33552 -2.287118,-9.89685 -2.349833,-27.30328 -0.1281,-37.1819 3.073063,-13.66304 8.379868,-23.95321 17.995366,-34.97384 7.038821,-8.06388 10.38543,-10.93255 17.38689,-14.81567 11.408898,-6.32506 18.747948,-8.31597 30.629218,-8.31597 m 244.01694,0 c 19.10957,0 34.19734,7.26205 48.05081,23.13011 13.79742,15.80581 19.69536,31.9366 19.62197,53.56176 -0.0467,13.54609 -2.12967,23.05722 -7.75272,35.44005 -8.1717,17.99414 -24.97414,33.18642 -42.40239,38.3148 -6.7386,1.98028 -20.85761,3.15114 -26.1951,2.17923 -34.57363,-6.29621 -58.72579,-37.44767 -58.87257,-75.92649 -0.0788,-21.59782 5.83255,-37.82125 19.52588,-53.56175 7.05752,-8.10943 10.35342,-10.92496 17.3869,-14.81567 11.4209,-6.31594 18.76129,-8.31596 30.62922,-8.31596"
     inkscape:connector-curvature="0"
     style="fill:#009688" />
</svg>
