<?xml version="1.0" encoding="UTF-8" standalone="no"?>
<svg
   xmlns:dc="http://purl.org/dc/elements/1.1/"
   xmlns:cc="http://creativecommons.org/ns#"
   xmlns:rdf="http://www.w3.org/1999/02/22-rdf-syntax-ns#"
   xmlns:svg="http://www.w3.org/2000/svg"
   xmlns="http://www.w3.org/2000/svg"
   xmlns:sodipodi="http://sodipodi.sourceforge.net/DTD/sodipodi-0.dtd"
   xmlns:inkscape="http://www.inkscape.org/namespaces/inkscape"
   height="512"
   viewBox="0 0 512 512"
   width="512"
   version="1.1"
   id="svg2"
   inkscape:version="0.91 r"
   sodipodi:docname="kformula.svg">
  <defs
     id="defs16" />
  <sodipodi:namedview
     pagecolor="#ffffff"
     bordercolor="#666666"
     borderopacity="1"
     objecttolerance="10"
     gridtolerance="10"
     guidetolerance="10"
     inkscape:pageopacity="0"
     inkscape:pageshadow="2"
     inkscape:window-width="647"
     inkscape:window-height="480"
     id="namedview14"
     showgrid="false"
     inkscape:zoom="0.4609375"
     inkscape:cx="576"
     inkscape:cy="256"
     inkscape:window-x="0"
     inkscape:window-y="0"
     inkscape:window-maximized="0"
     inkscape:current-layer="svg2" />
  <metadata
     id="metadata72">
    <rdf:RDF>
      <cc:Work
         rdf:about="">
        <dc:format>image/svg+xml</dc:format>
        <dc:type
           rdf:resource="http://purl.org/dc/dcmitype/StillImage" />
      </cc:Work>
    </rdf:RDF>
  </metadata>
  <path
     id="path66"
     fill="#009688"
     d="m146.14 139.55c-6.906 0-12.05 0.537-15.466 1.819-3.413 1.286-5.552 3.345-6.596 5.914s-1.592 7.958-1.592 16.15v49.81c0 8.23 0.548 13.618 1.592 16.15 1.084 2.529 3.304 4.361 6.596 5.685 3.332 1.286 8.4 2.047 15.466 2.047h7.733v-12.736c-3.533 0-5.82-0.325-6.823-0.688-0.964-0.363-1.686-0.963-2.047-2.047-0.361-1.124-0.455-3.958-0.455-8.415v-49.81c0-4.778 0.241-7.866 0.682-8.87 0.482-1.044 1.083-1.538 2.047-1.82 1-0.28 3.263-0.454 6.596-0.454v-12.737l-7.733 0.004m25.474 0-12.964 97.57h26.16l1.592-17.514h9.1l1.365 17.514h25.929l-14.556-97.57h-36.618m121.23 0v97.57h29.34c10.198 0 16.95-0.658 20.242-1.819 3.292-1.165 5.565-3.423 7.05-6.596 1.526-3.172 2.274-7.971 2.274-14.556v-9.1c0-6.343-0.869-11.05-2.957-14.1-2.088-3.091-6.193-5.271-12.05-6.596 5.26-1.205 8.923-2.983 10.69-5.231 1.807-2.248 2.502-6.125 2.502-11.828 0-8.43-1.11-14.421-3.639-18.19-2.529-3.814-5.872-6.488-10.01-7.734-4.095-1.244-10.206-1.819-18.2-1.819h-25.25m65.28 0v12.737c3.332 0 5.405 0.174 6.368 0.454 1 0.28 1.793 0.776 2.274 1.82 0.481 1 0.682 4.093 0.682 8.87v49.81c0 4.457-0.054 7.291-0.455 8.416-0.361 1.085-1.083 1.687-2.047 2.046-0.964 0.355-3.25 0.688-6.823 0.688v12.736h7.733c7.07 0 12.134-0.765 15.466-2.047 3.333-1.324 5.552-3.156 6.596-5.685 1.044-2.53 1.592-7.918 1.592-16.15v-49.81c0-8.19-0.548-13.579-1.592-16.15-1.044-2.57-3.183-4.629-6.596-5.914-3.413-1.284-8.56-1.819-15.466-1.819l-7.733-0.004m-40.03 16.603c2.61 0.076 4.348 0.378 5.231 0.688 0.923 0.318 1.712 1.029 2.274 2.274 0.562 1.205 0.91 3.317 0.91 6.368 0 5.782-0.455 9.218-1.137 10.463-0.683 1.205-2.06 1.82-4.549 1.82-0.602 0-1.645 0.181-2.729 0.219v-21.832m-70.51 3.184v21.607h-21.835v14.784h21.835v21.607h14.556v-21.607h21.835v-14.784h-21.835v-21.607h-14.556m-56.634 2.046c1.285 16.221 2.582 29.899 3.867 40.94h-8.643c0.642-8.632 2.207-22.309 4.776-40.94m127.13 31.62c3.774 0.121 6.167 0.703 7.05 1.592 0.883 0.883 1.365 3.33 1.365 7.505v9.1c0 3.934-0.588 6.502-1.592 7.505-0.964 1-3.25 1.472-6.823 1.593v-27.29m-214.71 69.6v17.512h305.23v-17.512h-305.23m143.52 50.04v7.732h15.239v-7.732h-15.239m-20.925 9.779c-3.228 0-6.191 0.378-8.643 1.365-2.427 0.996-3.984 2.477-5 4.322-1.019 1.819-1.592 4.781-1.592 8.642 0 2.719 0.418 5.061 1.365 7.05 0.947 1.968 3.64 4.168 7.961 6.596 5.146 2.863 8.08 4.421 8.643 5 0.534 0.582 0.682 2.02 0.682 4.322 0 1.674-0.27 2.878-0.682 3.412-0.413 0.514-1 0.688-2.047 0.688-0.971 0-1.707-0.363-2.047-1.137-0.316-0.777-0.455-2.406-0.455-5v-2.957h-12.964v2.275c0 4.03 0.369 7.108 1.365 9.1 0.995 1.99 2.813 3.383 5.459 4.549 2.67 1.165 6.04 1.819 9.78 1.819 3.374 0 6.264-0.522 8.643-1.591 2.403-1.093 3.984-2.559 5-4.549 1.02-2.01 1.592-5.166 1.592-9.1 0-3.519-0.712-6.115-2.047-7.961-1.335-1.844-4.143-3.826-8.415-5.913-3.204-1.578-5.325-2.815-6.368-3.64-1.02-0.825-1.601-1.594-1.82-2.274-0.194-0.703-0.227-1.704-0.227-3.184 0-1.092 0.042-1.968 0.455-2.502 0.413-0.56 0.994-0.688 1.82-0.688 1.019 0 1.804 0.302 2.047 0.91 0.267 0.582 0.455 1.861 0.455 4.094v2.729h12.964v-2.956c0-2.428-0.188-4.091-0.455-5.231-0.243-1.141-0.833-2.532-2.047-3.867-1.189-1.335-2.974-2.384-5.231-3.184-2.233-0.827-4.984-1.139-8.188-1.139m65.28 0c-2.01 0-3.678 0.469-5.231 1.365-1.529 0.874-3.03 2.095-4.094 3.866l0.455-4.321h-15.01v48.22h14.556v-32.52c0-3.641 0.188-5.998 0.455-6.823 0.267-0.849 1-1.137 2.047-1.137 0.995 0 1.601 0.181 1.82 0.91 0.218 0.726 0.227 2.815 0.227 6.142v33.433h14.784v-33.888c0-4.224-0.221-7.07-0.682-8.871-0.461-1.82-1.582-3.36-3.184-4.549s-3.617-1.819-6.141-1.819m-44.35 0.91v48.22h15.239v-48.22h-15.239" />
</svg>
