<?xml version="1.0" encoding="UTF-8" standalone="no"?>
<svg
   xmlns:dc="http://purl.org/dc/elements/1.1/"
   xmlns:cc="http://creativecommons.org/ns#"
   xmlns:rdf="http://www.w3.org/1999/02/22-rdf-syntax-ns#"
   xmlns:svg="http://www.w3.org/2000/svg"
   xmlns="http://www.w3.org/2000/svg"
   xmlns:sodipodi="http://sodipodi.sourceforge.net/DTD/sodipodi-0.dtd"
   xmlns:inkscape="http://www.inkscape.org/namespaces/inkscape"
   height="512"
   viewBox="0 0 512 512"
   width="512"
   version="1.1"
   id="svg2"
   inkscape:version="0.91 r"
   sodipodi:docname="kgpg.svg">
  <defs
     id="defs17" />
  <sodipodi:namedview
     pagecolor="#ffffff"
     bordercolor="#666666"
     borderopacity="1"
     objecttolerance="10"
     gridtolerance="10"
     guidetolerance="10"
     inkscape:pageopacity="0"
     inkscape:pageshadow="2"
     inkscape:window-width="640"
     inkscape:window-height="480"
     id="namedview15"
     showgrid="false"
     inkscape:zoom="0.4609375"
     inkscape:cx="256"
     inkscape:cy="256"
     inkscape:window-x="0"
     inkscape:window-y="0"
     inkscape:window-maximized="0"
     inkscape:current-layer="svg2" />
  <metadata
     id="metadata74">
    <rdf:RDF>
      <cc:Work
         rdf:about="">
        <dc:format>image/svg+xml</dc:format>
        <dc:type
           rdf:resource="http://purl.org/dc/dcmitype/StillImage" />
      </cc:Work>
    </rdf:RDF>
  </metadata>
  <g
     id="g66"
     fill="#009688">
    <path
       id="path68"
       d="m91.03 53.55c-6.137-6.137-16.09-6.137-22.22 0-0.788 0.788-1.463 1.643-2.046 2.54l-49.48-49.48c-1.753-1.753-4.597-1.753-6.35 0l-3.88 3.881c-1.754 1.753-1.753 4.597 0 6.35l4.572 4.572-7.872 7.872c-1.709 1.709-1.709 4.481 0 6.19s4.481 1.709 6.19 0l7.872-7.872 1.74 1.74-7.872 7.872c-1.709 1.709-1.709 4.481 0 6.19s4.481 1.709 6.19 0l7.872-7.872 30.785 30.786c-0.897 0.583-1.752 1.258-2.54 2.046-6.137 6.137-6.137 16.09 0 22.22 5.02 5.02 12.575 5.927 18.521 2.746 5.946 3.181 13.505 2.269 18.521-2.746 5.02-5.02 5.927-12.575 2.746-18.521 3.182-5.946 2.27-13.505-2.745-18.52m-6.742 30.3c-2.825 2.825-7.406 2.825-10.231 0-0.617-0.616-1.074-1.326-1.421-2.074-3.03 2.815-7.762 2.768-10.712-0.182-3.02-3.02-3.02-7.916 0-10.936 1.927-1.926 4.613-2.611 7.093-2.08-0.531-2.479 0.153-5.166 2.08-7.092 3.02-3.02 7.916-3.02 10.936 0 2.95 2.95 2.997 7.68 0.182 10.712 0.748 0.348 1.458 0.805 2.074 1.421 2.824 2.825 2.824 7.406-0.001 10.231"
       transform="matrix(-2.8781 0 0 2.8781 397.15 111.4)" />
  </g>
</svg>
