<?xml version="1.0" encoding="UTF-8" standalone="no"?>
<svg
   xmlns:dc="http://purl.org/dc/elements/1.1/"
   xmlns:cc="http://creativecommons.org/ns#"
   xmlns:rdf="http://www.w3.org/1999/02/22-rdf-syntax-ns#"
   xmlns:svg="http://www.w3.org/2000/svg"
   xmlns="http://www.w3.org/2000/svg"
   xmlns:sodipodi="http://sodipodi.sourceforge.net/DTD/sodipodi-0.dtd"
   xmlns:inkscape="http://www.inkscape.org/namespaces/inkscape"
   height="512"
   viewBox="0 0 512 512"
   width="512"
   version="1.1"
   id="svg2"
   inkscape:version="0.91 r"
   sodipodi:docname="kile.svg">
  <defs
     id="defs18" />
  <sodipodi:namedview
     pagecolor="#ffffff"
     bordercolor="#666666"
     borderopacity="1"
     objecttolerance="10"
     gridtolerance="10"
     guidetolerance="10"
     inkscape:pageopacity="0"
     inkscape:pageshadow="2"
     inkscape:window-width="640"
     inkscape:window-height="480"
     id="namedview16"
     showgrid="false"
     inkscape:zoom="0.4609375"
     inkscape:cx="256"
     inkscape:cy="256"
     inkscape:window-x="0"
     inkscape:window-y="0"
     inkscape:window-maximized="0"
     inkscape:current-layer="svg2" />
  <metadata
     id="metadata76">
    <rdf:RDF>
      <cc:Work
         rdf:about="">
        <dc:format>image/svg+xml</dc:format>
        <dc:type
           rdf:resource="http://purl.org/dc/dcmitype/StillImage" />
      </cc:Work>
    </rdf:RDF>
  </metadata>
  <g
     id="g66"
     transform="matrix(.78631 0 0 .78631 50.02 57.03)"
     fill="#009688">
    <path
       id="path68"
       d="m82.76 370.8v-235.52h62.987v106.98l73.831-106.98h74.15l-86.27 114.86 93.76 120.66h-79.41l-76.06-105.69v105.69h-62.989" />
    <path
       id="path70"
       d="m334.21 370.8c-4.235 0-7.842-1.355-10.822-4.066-2.98-2.758-4.47-6.06-4.47-9.915 0-3.994 1.464-7.323 4.391-9.986 2.928-2.71 6.561-4.066 10.9-4.066s8.02 1.379 11.06 4.137c3.03 2.71 4.548 6.02 4.548 9.915 0 3.804-1.542 7.085-4.627 9.843-3.084 2.758-6.744 4.137-10.978 4.137m103.9-1.284h-79.2v-25.464h79.2v25.464m0-45.65h-121.55v-25.464h121.55v25.464m-49.795-94.3c-4.496 0.476-8.103 2.045-10.822 4.708-2.718 2.615-4.078 5.849-4.078 9.701 0 4.137 1.255 7.442 3.764 9.915 2.457 2.425 6.169 4.04 11.135 4.851v-29.17m15.762-25.04v54.781c6.117-0.048 10.848-1.474 14.194-4.28 3.294-2.805 4.94-6.776 4.94-11.912 0-3.852-0.784-7.085-2.353-9.701-1.621-2.663-0.324-4.684-3.461-6.06l4.794-19.12c6.06 2.283 10.743 6.325 14.04 12.13 3.294 5.801 4.94 12.911 4.94 21.327 0 12.554-3.816 22.635-11.449 30.24-7.685 7.561-17.801 11.341-30.348 11.341-12.338 0-22.584-3.78-30.74-11.341-8.155-7.608-12.233-17.214-12.233-28.817 0-11.936 4.13-21.351 12.39-28.25 8.26-6.895 19.578-10.343 33.955-10.343h1.333" />
  </g>
</svg>
