<?xml version="1.0" encoding="UTF-8" standalone="no"?>
<svg
   xmlns:dc="http://purl.org/dc/elements/1.1/"
   xmlns:cc="http://creativecommons.org/ns#"
   xmlns:rdf="http://www.w3.org/1999/02/22-rdf-syntax-ns#"
   xmlns:svg="http://www.w3.org/2000/svg"
   xmlns="http://www.w3.org/2000/svg"
   xmlns:sodipodi="http://sodipodi.sourceforge.net/DTD/sodipodi-0.dtd"
   xmlns:inkscape="http://www.inkscape.org/namespaces/inkscape"
   height="512"
   viewBox="0 0 512 512"
   width="512"
   version="1.1"
   id="svg2"
   inkscape:version="0.91 r13725"
   sodipodi:docname="clipit-trayicon.svg">
  <defs
     id="defs16" />
  <sodipodi:namedview
     pagecolor="#ffffff"
     bordercolor="#666666"
     borderopacity="1"
     objecttolerance="10"
     gridtolerance="10"
     guidetolerance="10"
     inkscape:pageopacity="0"
     inkscape:pageshadow="2"
     inkscape:window-width="647"
     inkscape:window-height="480"
     id="namedview14"
     showgrid="false"
     inkscape:zoom="0.56896973"
     inkscape:cx="225.24265"
     inkscape:cy="256"
     inkscape:window-x="0"
     inkscape:window-y="0"
     inkscape:window-maximized="0"
     inkscape:current-layer="svg2" />
  <metadata
     id="metadata72">
    <rdf:RDF>
      <cc:Work
         rdf:about="">
        <dc:format>image/svg+xml</dc:format>
        <dc:type
           rdf:resource="http://purl.org/dc/dcmitype/StillImage" />
      </cc:Work>
    </rdf:RDF>
  </metadata>
  <path
     id="path66"
     d="M 117.49311,465.80545 C 92.883991,460.75766 74.579366,444.2721 66.265353,419.65698 l -1.948034,-5.77362 -0.218948,-131.7735 c -0.218948,-128.48929 -0.182956,-131.93997 1.393167,-138.59688 5.785617,-24.34968 24.14423,-42.93024 48.549392,-49.176244 8.7969,-2.249463 8.3965,-2.438417 8.3965,3.980049 0,7.337745 3.79109,35.845935 5.4197,40.760255 3.65463,11.04786 13.13236,20.5166 25.49391,25.47591 l 4.94732,1.98403 60.18061,0.24144 c 52.50245,0.20695 60.94394,0.0705 66.07421,-1.06924 13.64824,-3.02928 26.59914,-15.0864 30.23278,-28.16327 1.95403,-7.03782 5.69863,-37.969426 5.05379,-41.774017 l -0.53687,-3.200235 3.59014,0.601356 c 23.95377,3.992046 44.60834,21.492866 52.17703,44.210936 2.74434,8.23003 3.7326,15.42231 3.7551,27.27848 l 0.012,9.66669 2.26745,1.19821 c 1.25221,0.66134 15.5168,14.48954 31.70243,30.73216 27.08352,27.1735 29.65691,29.99283 32.15381,35.30156 l 2.71585,5.77362 0.22345,90.27842 c 0.21895,89.76855 0.20695,90.30842 -1.51464,96.05204 -3.64263,12.08712 -11.79768,22.07623 -22.70457,27.80486 -11.2953,5.93408 -0.70933,5.56817 -158.61709,5.49768 -115.11249,-0.0525 -143.24576,-0.27743 -147.56473,-1.16822 m 294.09471,-24.09924 c 5.17826,-2.76833 8.68442,-6.16952 10.96988,-10.64145 l 2.03801,-3.99805 0,-173.95842 -17.31186,-0.47239 c -15.30385,-0.4184 -17.86673,-0.69133 -22.05823,-2.32594 -9.01285,-3.52416 -16.10615,-10.64146 -19.70529,-19.75478 -1.64211,-4.14501 -1.87155,-6.47095 -2.16099,-21.37289 l -0.32542,-16.733 -59.08588,0.24144 -59.08587,0.23544 -4.00855,1.97203 c -4.82884,2.37244 -8.93336,6.33449 -11.44826,11.03586 l -1.85956,3.47767 0,217.65798 2.56139,4.51392 c 3.11176,5.49169 7.06781,8.82089 12.85943,10.83491 4.13901,1.44116 8.52696,1.51464 84.74474,1.32869 l 80.38229,-0.18896 M 258.76534,399.53779 c -5.13627,-2.33194 -7.33774,-5.99257 -7.33774,-12.18309 0,-5.50368 1.28219,-8.06507 5.67464,-11.34179 2.25546,-1.68859 2.89881,-1.70059 68.93853,-1.70059 66.34414,0 66.67406,0.006 68.98351,1.72459 1.28219,0.94477 3.19423,2.98878 4.25598,4.52892 1.60612,2.34394 1.87155,3.59614 1.59412,7.55819 -0.4019,5.74513 -2.23747,8.56145 -7.25077,11.12284 l -3.63063,1.85506 -63.92222,-0.018 c -60.57053,-0.018 -64.10368,-0.10047 -67.30242,-1.55213 m -0.31942,-59.64524 c -5.41371,-2.76834 -7.02132,-5.4617 -7.02132,-11.74969 0,-6.09155 1.52963,-8.7909 6.6719,-11.7437 l 3.21823,-1.84906 65.6903,0.20096 c 65.20592,0.20095 65.7053,0.21295 68.02375,1.92404 4.09102,3.03827 6.04355,6.72439 6.04355,11.46626 0,5.23075 -2.27945,9.02784 -7.03182,11.7197 l -3.27671,1.85505 -64.33913,0.018 -64.33912,0.012 m -3.27672,-60.51053 c -10.25005,-4.51392 -10.27404,-19.83126 -0.0345,-24.49065 3.13425,-1.42166 6.10654,-1.53563 41.33612,-1.55213 37.74598,-0.018 37.98442,-0.006 41.58506,1.83706 5.41371,2.76834 7.02582,5.4617 7.02582,11.74969 0,5.66265 -1.2462,8.18355 -5.67464,11.49476 -2.22097,1.6541 -3.31721,1.70059 -41.98996,1.88355 -31.77741,0.14846 -40.22639,-0.0345 -42.22991,-0.92078 M 162.40288,147.23809 c -7.5582,-1.87155 -14.15212,-7.75914 -16.31311,-14.56602 -0.70933,-2.23296 -2.10249,-10.91739 -3.09975,-19.30638 -2.02002,-17.004438 -1.73509,-20.021717 2.29145,-24.816071 4.157,-4.930822 7.13229,-5.650649 23.51138,-5.674644 l 14.638,-0.018 0,-2.733847 c 0,-7.256766 4.90683,-17.94921 11.07635,-24.114237 14.43105,-14.43105 37.18062,-14.736977 52.34199,-0.697333 6.84887,6.340485 10.21406,13.195346 12.01213,24.456155 l 0.49638,3.087762 14.18211,0.018 c 15.65176,0.02399 18.57456,0.715329 22.99701,5.445198 4.56491,4.888832 4.84084,8.412989 2.26745,29.096046 -2.36193,18.97646 -4.88883,23.8368 -14.78946,28.4407 -3.64263,1.6886 -4.74187,1.72459 -61.42382,1.85956 -31.74741,0.0705 -58.83094,-0.14247 -60.18062,-0.47839 m 62.95796,-45.46913 c 5.32072,-1.22821 10.13158,-4.918825 12.80694,-9.830151 2.0725,-3.809089 2.28545,-4.918824 2.01401,-10.33253 -0.25943,-5.136273 -0.68533,-6.613419 -2.79383,-9.605204 -8.61994,-12.268568 -27.02354,-11.253311 -33.80792,1.865554 -5.20075,10.061095 0.30143,23.4289 11.17833,27.173501 5.26674,1.80557 5.80961,1.84306 10.61746,0.73783"
     inkscape:connector-curvature="0"
     style="fill:#009688" />
</svg>
