<?xml version="1.0" encoding="UTF-8" standalone="no"?>
<svg
   xmlns:dc="http://purl.org/dc/elements/1.1/"
   xmlns:cc="http://creativecommons.org/ns#"
   xmlns:rdf="http://www.w3.org/1999/02/22-rdf-syntax-ns#"
   xmlns:svg="http://www.w3.org/2000/svg"
   xmlns="http://www.w3.org/2000/svg"
   xmlns:sodipodi="http://sodipodi.sourceforge.net/DTD/sodipodi-0.dtd"
   xmlns:inkscape="http://www.inkscape.org/namespaces/inkscape"
   height="512"
   viewBox="0 0 512 512"
   width="512"
   version="1.1"
   id="svg2"
   inkscape:version="0.91 r"
   sodipodi:docname="kmines.svg">
  <defs
     id="defs17" />
  <sodipodi:namedview
     pagecolor="#ffffff"
     bordercolor="#666666"
     borderopacity="1"
     objecttolerance="10"
     gridtolerance="10"
     guidetolerance="10"
     inkscape:pageopacity="0"
     inkscape:pageshadow="2"
     inkscape:window-width="643"
     inkscape:window-height="480"
     id="namedview15"
     showgrid="false"
     inkscape:zoom="0.4609375"
     inkscape:cx="256"
     inkscape:cy="256"
     inkscape:window-x="0"
     inkscape:window-y="0"
     inkscape:window-maximized="0"
     inkscape:current-layer="svg2" />
  <metadata
     id="metadata74">
    <rdf:RDF>
      <cc:Work
         rdf:about="">
        <dc:format>image/svg+xml</dc:format>
        <dc:type
           rdf:resource="http://purl.org/dc/dcmitype/StillImage" />
      </cc:Work>
    </rdf:RDF>
  </metadata>
  <g
     id="g66"
     fill="#009688">
    <path
       id="path68"
       d="m6.773 285.59c-0.161 0-0.291 0.129-0.291 0.29v0.299c-1.283 0.09-2.395 0.777-3.078 1.775l-0.273-0.16c-0.14-0.08-0.311-0.03-0.392 0.109s-0.04 0.318 0.1 0.398l0.264 0.154c-0.261 0.534-0.41 1.132-0.41 1.766s0.149 1.232 0.41 1.766l-0.264 0.154c-0.14 0.08-0.181 0.259-0.1 0.398s0.252 0.189 0.392 0.109l0.273-0.15c0.683 0.998 1.795 1.685 3.078 1.775v0.299c0 0.161 0.13 0.29 0.291 0.29s0.291-0.129 0.291-0.29v-0.299c1.283-0.09 2.395-0.777 3.078-1.775l0.273 0.154c0.14 0.08 0.311 0.03 0.392-0.109s0.04-0.318-0.1-0.398l-0.264-0.154c0.261-0.534 0.41-1.132 0.41-1.766s-0.149-1.232-0.41-1.766l0.264-0.154c0.14-0.08 0.181-0.259 0.1-0.398s-0.252-0.189-0.392-0.109l-0.273 0.154c-0.683-0.998-1.795-1.685-3.078-1.775v-0.299c0-0.161-0.13-0.29-0.291-0.29m-1.494 1.829c0.113-0.014 0.231 0.041 0.291 0.145l0.291 0.507c0.081 0.139 0.031 0.309-0.109 0.389s-0.32 0.039-0.401-0.1l-0.291-0.51c-0.081-0.139-0.031-0.318 0.109-0.398 0.035-0.02 0.072-0.032 0.109-0.036m2.914 0.009c0.028-0.005 0.054-0.003 0.082 0 0.038 0.004 0.074 0.016 0.109 0.036 0.14 0.08 0.19 0.259 0.109 0.398l-0.291 0.5c-0.081 0.14-0.261 0.19-0.401 0.11s-0.19-0.26-0.109-0.4l0.291-0.498c0.045-0.078 0.126-0.131 0.209-0.145m-4.317 2.499h0.583c0.161 0 0.291 0.129 0.291 0.29s-0.13 0.29-0.291 0.29h-0.583c-0.161 0-0.291-0.129-0.291-0.29s0.13-0.29 0.291-0.29m5.228 0h0.583c0.161 0 0.291 0.129 0.291 0.29s-0.13 0.29-0.291 0.29h-0.583c-0.161 0-0.291-0.129-0.291-0.29s0.13-0.29 0.291-0.29m-2.331 0.009c0.161 0 0.291 0.13 0.291 0.29s-0.13 0.29-0.291 0.29-0.291-0.13-0.291-0.29 0.13-0.29 0.291-0.29m-1.202 2.028c0.027-0.005 0.054-0.003 0.082 0 0.038 0.004 0.074 0.025 0.109 0.045 0.14 0.08 0.19 0.25 0.109 0.389l-0.291 0.507c-0.081 0.139-0.261 0.18-0.401 0.1s-0.181-0.25-0.1-0.389l0.291-0.507c0.045-0.078 0.119-0.131 0.2-0.145m2.331 0.009c0.113-0.014 0.231 0.032 0.291 0.136l0.291 0.507c0.081 0.139 0.031 0.318-0.109 0.398s-0.32 0.03-0.401-0.109l-0.291-0.51c-0.081-0.139-0.031-0.309 0.109-0.389 0.035-0.02 0.072-0.032 0.109-0.036"
       transform="matrix(33.006 0 0 32.881 32.439 -9287.1)" />
  </g>
</svg>
