<?xml version="1.0" encoding="UTF-8" standalone="no"?>
<svg xmlns:dc="http://purl.org/dc/elements/1.1/" xmlns:cc="http://creativecommons.org/ns#" xmlns:rdf="http://www.w3.org/1999/02/22-rdf-syntax-ns#" xmlns:svg="http://www.w3.org/2000/svg" xmlns="http://www.w3.org/2000/svg" xmlns:sodipodi="http://sodipodi.sourceforge.net/DTD/sodipodi-0.dtd" xmlns:inkscape="http://www.inkscape.org/namespaces/inkscape" viewBox="0 0 512 512" id="svg2" version="1.1" inkscape:version="0.91 r" sodipodi:docname="kodi.svg">
<metadata id="metadata72">
<rdf:RDF>
<cc:Work rdf:about="">
<dc:format>image/svg+xml</dc:format>
<dc:type rdf:resource="http://purl.org/dc/dcmitype/StillImage" />
</cc:Work>
</rdf:RDF>
</metadata>
<defs id="defs70" />
<sodipodi:namedview pagecolor="#ffffff" bordercolor="#666666" borderopacity="1" objecttolerance="10" gridtolerance="10" guidetolerance="10" inkscape:pageopacity="0" inkscape:pageshadow="2" inkscape:window-width="1680" inkscape:window-height="994" id="namedview68" showgrid="false" inkscape:zoom="0.4609375" inkscape:cx="20.610169" inkscape:cy="256" inkscape:window-x="0" inkscape:window-y="0" inkscape:window-maximized="1" inkscape:current-layer="svg2" />
<text font-size="129.23" y="231.36" x="729.64" font-family="'Gentium Book Basic'" line-height="125%" word-spacing="0" letter-spacing="0" id="text18">
<tspan y="231.36" x="729.64" id="tspan20" />
</text>
<text transform="scale(4.0128.2492)" font-size="46.954" y="579.26" x="378.91" font-family="Arial" text-anchor="middle" id="text22" />
<text font-size="129.23" y="151.36" x="1310.91" font-family="'Gentium Book Basic'" line-height="125%" word-spacing="0" letter-spacing="0" id="text24">
<tspan y="151.36" x="1310.91" id="tspan26" />
</text>
<text transform="scale(4.0128.2492)" font-size="46.954" y="258.22" x="523.76" font-family="Arial" text-anchor="middle" id="text28" />
<text font-size="129.23" y="-29.9" x="239.33" font-family="'Gentium Book Basic'" line-height="125%" word-spacing="0" letter-spacing="0" id="text30">
<tspan y="-29.9" x="239.33" id="tspan32" />
</text>
<text transform="scale(4.0128.2492)" font-size="46.954" y="-469.13" x="256.72" font-family="Arial" text-anchor="middle" id="text34" />
<text font-size="129.23" y="-246.37" x="1337.38" font-family="'Gentium Book Basic'" line-height="125%" word-spacing="0" letter-spacing="0" id="text36">
<tspan y="-246.37" x="1337.38" id="tspan38" />
</text>
<text transform="scale(4.0128.2492)" font-size="46.954" y="-1337.8" x="530.36" font-family="Arial" text-anchor="middle" id="text40" />
<text font-size="129.23" y="-326.37" x="1918.65" font-family="'Gentium Book Basic'" line-height="125%" word-spacing="0" letter-spacing="0" id="text42">
<tspan y="-326.37" x="1918.65" id="tspan44" />
</text>
<text transform="scale(4.0128.2492)" font-size="46.954" y="-1658.83" x="675.21" font-family="Arial" text-anchor="middle" id="text46" />
<text font-size="129.23" y="-798.77" x="1529.53" font-family="'Gentium Book Basic'" line-height="125%" word-spacing="0" letter-spacing="0" id="text48">
<tspan y="-798.77" x="1529.53" id="tspan50" />
</text>
<text transform="scale(4.0128.2492)" font-size="46.954" y="-3554.48" x="578.24" font-family="Arial" text-anchor="middle" id="text52" />
<text font-size="129.23" y="-878.78" x="2110.79" font-family="'Gentium Book Basic'" line-height="125%" word-spacing="0" letter-spacing="0" id="text54">
<tspan y="-878.78" x="2110.79" id="tspan56" />
</text>
<text transform="scale(4.0128.2492)" font-size="46.954" y="-3875.52" x="723.09" font-family="Arial" text-anchor="middle" id="text58" />
<text font-size="208.33" y="535.94" x="277.99" font-family="'Gentium Book Basic'" line-height="125%" word-spacing="0" letter-spacing="0" id="text60">
<tspan y="535.94" x="277.99" id="tspan62" />
</text>
<path d="m 204.88368,61.201513 c -22.98744,0.396567 -32.53193,3.409131 -52.01748,14.090895 -33.72835,18.49346 -68.814434,57.397342 -88.750322,97.888842 -19.008324,53.95998 -24.75115,90.28282 -17.689571,147.05237 1.520397,11.53271 4.955069,19.22745 11.243679,32.08025 21.227755,43.39383 80.583734,79.75699 149.162924,92.19172 46.83118,8.49056 60.81588,8.44082 104.18282,-0.29978 33.2686,-6.704 66.04519,-19.37263 92.79665,-34.77825 26.74743,-15.40561 47.50737,-33.56972 56.9712,-51.86825 7.09384,-13.71719 7.89908,-32.11789 4.04633,-53.06738 -3.8514,-20.94948 -12.3944,-44.40204 -24.43928,-68.20815 C 416.31029,188.68634 378.338,139.76477 335.45501,108.11874 288.37781,73.371412 258.25217,61.571194 215.67836,61.19748 c -3.89845,-0.03361 -7.50923,-0.05646 -10.79468,0 m -12.89179,66.85849 c 11.65235,-0.51756 30.01541,9.51895 60.11282,29.08247 60.90999,39.58812 117.07461,86.77421 117.07461,98.33514 0.005,15.9393 -82.82198,76.52665 -153.06137,111.97973 -33.97032,17.14514 -31.13386,16.73513 -39.42547,6.74836 -7.88967,-9.50416 -11.76392,-146.38023 -5.69712,-202.67928 3.10397,-28.79748 7.78077,-42.88703 20.98712,-43.47449" id="path66" inkscape:connector-curvature="0" style="fill:#009688" />
</svg>
