<?xml version="1.0" encoding="UTF-8" standalone="no"?>
<svg
   xmlns:dc="http://purl.org/dc/elements/1.1/"
   xmlns:cc="http://creativecommons.org/ns#"
   xmlns:rdf="http://www.w3.org/1999/02/22-rdf-syntax-ns#"
   xmlns:svg="http://www.w3.org/2000/svg"
   xmlns="http://www.w3.org/2000/svg"
   xmlns:sodipodi="http://sodipodi.sourceforge.net/DTD/sodipodi-0.dtd"
   xmlns:inkscape="http://www.inkscape.org/namespaces/inkscape"
   height="512"
   viewBox="0 0 512 512"
   width="512"
   version="1.1"
   id="svg2"
   inkscape:version="0.91 r13725"
   sodipodi:docname="kpatience.svg">
  <defs
     id="defs17" />
  <sodipodi:namedview
     pagecolor="#ffffff"
     bordercolor="#666666"
     borderopacity="1"
     objecttolerance="10"
     gridtolerance="10"
     guidetolerance="10"
     inkscape:pageopacity="0"
     inkscape:pageshadow="2"
     inkscape:window-width="1920"
     inkscape:window-height="1019"
     id="namedview15"
     showgrid="false"
     inkscape:zoom="0.87831352"
     inkscape:cx="194.71652"
     inkscape:cy="183.37027"
     inkscape:window-x="0"
     inkscape:window-y="13"
     inkscape:window-maximized="1"
     inkscape:current-layer="svg2"
     showguides="false" />
  <metadata
     id="metadata28">
    <rdf:RDF>
      <cc:Work
         rdf:about="">
        <dc:format>image/svg+xml</dc:format>
        <dc:type
           rdf:resource="http://purl.org/dc/dcmitype/StillImage" />
        <dc:title></dc:title>
      </cc:Work>
    </rdf:RDF>
  </metadata>
  <g
     id="g4168"
     transform="matrix(1.0053999,0,0,1.0053999,-15.968762,0.27184661)">
    <path
       inkscape:connector-curvature="0"
       id="rect3027"
       d="m 239.16594,79.256278 c -0.62592,-0.007 -1.26488,0.04796 -1.90765,0.172055 L 68.801891,111.9499 c -5.142117,0.99268 -8.589217,5.94952 -7.728922,11.11544 l 46.059471,276.57805 c 0.86029,5.16592 5.69202,8.52633 10.83414,7.53365 l 168.45778,-32.5202 c 5.14212,-0.99268 8.58921,-5.95089 7.72891,-11.11681 L 248.09381,86.961985 c -0.75276,-4.520181 -4.54636,-7.657039 -8.92787,-7.705707 z M 199.48898,199.22939 c 10.1982,-0.22152 16.29111,9.49898 16.31677,26.54462 0.0245,16.31289 -2.98756,25.42858 -13.79053,41.73346 -5.01363,7.56702 -15.98175,21.68234 -16.83158,21.66147 -0.26386,-0.006 -1.58183,-0.68059 -2.9277,-1.498 -26.59154,-16.15019 -35.58184,-24.01139 -42.27148,-36.96364 -8.51632,-16.48918 -9.65705,-31.64006 -2.83485,-37.63003 4.47941,-3.93296 11.03984,-5.04101 20.84079,-3.52034 5.16926,0.80203 8.83087,2.7294 12.32804,6.48901 0.93225,1.00219 2.10667,1.82163 2.6109,1.82163 0.50423,0 1.8395,-1.82832 2.9673,-4.06247 3.50479,-6.94293 11.12133,-12.26582 20.2973,-14.18517 1.14069,-0.2386 2.24006,-0.36763 3.29504,-0.39054 z"
       style="fill:#009688;fill-opacity:1;fill-rule:evenodd;stroke:none" />
    <path
       inkscape:connector-curvature="0"
       id="rect3027-3"
       d="m 310.03385,79.300964 c -4.10472,0.07337 -7.89697,2.745491 -9.19172,6.845936 L 215.5246,356.34255 c -1.59354,5.04671 1.21928,10.28872 6.30525,11.75213 l 166.61668,47.94048 c 5.08597,1.46341 10.46364,-1.42054 12.05718,-6.46724 l 85.31543,-270.19566 c 1.59353,-5.0467 -1.21719,-10.28871 -6.30314,-11.75211 L 312.8993,79.679658 c -0.95362,-0.274389 -1.9182,-0.395623 -2.86545,-0.378694 z m 61.42618,102.022106 c 0.88884,0.29628 26.04275,65.2246 25.79324,66.57852 -0.22321,1.21106 -52.84295,44.11049 -54.10899,44.11357 -0.49477,0.001 -1.47245,-1.3145 -2.17327,-2.92435 -3.76493,-8.64843 -24.19808,-62.64398 -24.00917,-63.44587 0.29994,-1.27336 53.6004,-44.62112 54.49819,-44.32187 z"
       style="fill:#009688;fill-opacity:1;fill-rule:evenodd;stroke:none" />
  </g>
</svg>
