<?xml version="1.0" encoding="UTF-8" standalone="no"?>
<svg
   xmlns:dc="http://purl.org/dc/elements/1.1/"
   xmlns:cc="http://creativecommons.org/ns#"
   xmlns:rdf="http://www.w3.org/1999/02/22-rdf-syntax-ns#"
   xmlns:svg="http://www.w3.org/2000/svg"
   xmlns="http://www.w3.org/2000/svg"
   xmlns:sodipodi="http://sodipodi.sourceforge.net/DTD/sodipodi-0.dtd"
   xmlns:inkscape="http://www.inkscape.org/namespaces/inkscape"
   height="512"
   viewBox="0 0 512 512"
   width="512"
   version="1.1"
   id="svg2"
   inkscape:version="0.91 r"
   sodipodi:docname="krecipes.svg">
  <defs
     id="defs16" />
  <sodipodi:namedview
     pagecolor="#ffffff"
     bordercolor="#666666"
     borderopacity="1"
     objecttolerance="10"
     gridtolerance="10"
     guidetolerance="10"
     inkscape:pageopacity="0"
     inkscape:pageshadow="2"
     inkscape:window-width="647"
     inkscape:window-height="480"
     id="namedview14"
     showgrid="false"
     inkscape:zoom="0.4609375"
     inkscape:cx="256"
     inkscape:cy="256"
     inkscape:window-x="0"
     inkscape:window-y="0"
     inkscape:window-maximized="0"
     inkscape:current-layer="svg2" />
  <metadata
     id="metadata72">
    <rdf:RDF>
      <cc:Work
         rdf:about="">
        <dc:format>image/svg+xml</dc:format>
        <dc:type
           rdf:resource="http://purl.org/dc/dcmitype/StillImage" />
      </cc:Work>
    </rdf:RDF>
  </metadata>
  <path
     id="path66"
     d="m329.54 117.02c-2.504-0.011-4.519 2.249-4.531 5.03l-0.375 82.47h-7.563l0.375-81.969c0.012-2.783-1.996-5.02-4.5-5.03-2.504-0.011-4.519 2.217-4.531 5l-0.375 82h-7.781l0.344-82c0.012-2.783-1.996-5.02-4.5-5.03-2.504-0.011-4.519 2.217-4.531 5l-0.344 82.03h-7.813l0.375-81.06c0.012-2.783-1.996-5.02-4.5-5.03-2.504-0.011-4.55 2.249-4.563 5.03-0.186 39.588-0.211 39.543-0.313 83.59v16.656h0.063c0.519 8.07 6.304 14.652 14 16.375l1.031 154.91h31.969l-0.563-155.12c7.226-2.03 12.596-8.422 13.09-16.16h0.031v-19.19c-0.634-26.638-0.118-55.16 0-82.44 0.012-2.783-1.996-5.05-4.5-5.063m-110.19 15.375c-21.974 0.077-40.38 24.667-41.34 55.59-0.75 24.06 9.281 44.953 24.09 53.75l0.156 153.25h33.16l0.844-154.94c13.06-9.183 22.323-27.735 23-49.44 0.98-31.417-16.409-57.5-38.844-58.22-0.351-0.011-0.714-0.001-1.063 0"
     fill-rule="evenodd"
     fill="#009688" />
</svg>
