<?xml version="1.0" encoding="UTF-8" standalone="no"?>
<svg
   xmlns:dc="http://purl.org/dc/elements/1.1/"
   xmlns:cc="http://creativecommons.org/ns#"
   xmlns:rdf="http://www.w3.org/1999/02/22-rdf-syntax-ns#"
   xmlns:svg="http://www.w3.org/2000/svg"
   xmlns="http://www.w3.org/2000/svg"
   xmlns:sodipodi="http://sodipodi.sourceforge.net/DTD/sodipodi-0.dtd"
   xmlns:inkscape="http://www.inkscape.org/namespaces/inkscape"
   height="512"
   viewBox="0 0 512 512"
   width="512"
   version="1.1"
   id="svg2"
   inkscape:version="0.91 r"
   sodipodi:docname="krusader.svg">
  <defs
     id="defs18" />
  <sodipodi:namedview
     pagecolor="#ffffff"
     bordercolor="#666666"
     borderopacity="1"
     objecttolerance="10"
     gridtolerance="10"
     guidetolerance="10"
     inkscape:pageopacity="0"
     inkscape:pageshadow="2"
     inkscape:window-width="647"
     inkscape:window-height="480"
     id="namedview16"
     showgrid="false"
     inkscape:zoom="0.4609375"
     inkscape:cx="256"
     inkscape:cy="256"
     inkscape:window-x="0"
     inkscape:window-y="0"
     inkscape:window-maximized="0"
     inkscape:current-layer="svg2" />
  <metadata
     id="metadata76">
    <rdf:RDF>
      <cc:Work
         rdf:about="">
        <dc:format>image/svg+xml</dc:format>
        <dc:type
           rdf:resource="http://purl.org/dc/dcmitype/StillImage" />
      </cc:Work>
    </rdf:RDF>
  </metadata>
  <g
     id="g66"
     transform="translate(-1.896,-4.641)"
     fill="#009688">
    <path
       id="path68"
       d="m107.74 145.28v36.03h42.06c2.853-4.458 7.384-7.344 12.531-7.344h20.688c5.147 0 9.678 2.886 12.531 7.344h42.06v-36.03h-129.87m0 56.688v174.03h129.88v-174.03h-41.28c-2.758 5.205-7.672 8.656-13.313 8.656h-20.688c-5.64 0-10.554-3.451-13.313-8.656h-41.28" />
    <path
       id="path70"
       d="m278.21 145.28v36.03h42.06c2.853-4.458 7.384-7.344 12.531-7.344h20.656c5.147 0 9.678 2.886 12.531 7.344h42.06v-36.03h-129.84m0 56.688v174.03h129.84v-174.03h-41.28c-2.758 5.205-7.672 8.656-13.313 8.656h-20.656c-5.64 0-10.554-3.451-13.313-8.656h-41.28" />
  </g>
</svg>
