<?xml version="1.0" encoding="UTF-8" standalone="no"?>
<svg
   xmlns:dc="http://purl.org/dc/elements/1.1/"
   xmlns:cc="http://creativecommons.org/ns#"
   xmlns:rdf="http://www.w3.org/1999/02/22-rdf-syntax-ns#"
   xmlns:svg="http://www.w3.org/2000/svg"
   xmlns="http://www.w3.org/2000/svg"
   xmlns:sodipodi="http://sodipodi.sourceforge.net/DTD/sodipodi-0.dtd"
   xmlns:inkscape="http://www.inkscape.org/namespaces/inkscape"
   version="1.1"
   viewBox="0 0 512 512"
   id="svg2"
   inkscape:version="0.91 r"
   sodipodi:docname="kteatime.svg">
  <defs
     id="defs16" />
  <sodipodi:namedview
     pagecolor="#ffffff"
     bordercolor="#666666"
     borderopacity="1"
     objecttolerance="10"
     gridtolerance="10"
     guidetolerance="10"
     inkscape:pageopacity="0"
     inkscape:pageshadow="2"
     inkscape:window-width="647"
     inkscape:window-height="480"
     id="namedview14"
     showgrid="false"
     inkscape:zoom="0.4609375"
     inkscape:cx="256"
     inkscape:cy="256"
     inkscape:window-x="0"
     inkscape:window-y="0"
     inkscape:window-maximized="0"
     inkscape:current-layer="svg2" />
  <metadata
     id="metadata4792">
    <rdf:RDF>
      <cc:Work
         rdf:about="">
        <dc:format>image/svg+xml</dc:format>
        <dc:type
           rdf:resource="http://purl.org/dc/dcmitype/StillImage" />
      </cc:Work>
    </rdf:RDF>
  </metadata>
  <path
     inkscape:connector-curvature="0"
     id="path4786"
     d="m 188.03,110.81 c -3.613,0.161 -7.201,1.743 -9.844,5.344 -8.04,10.956 -10.25,22.819 -6.813,35.938 3.388,12.924 12.844,22.942 8.03,36.813 -5.281,15.221 18.8,21.701 24.03,6.625 3.986,-11.489 2.917,-22.644 -1.438,-33.844 -4.843,-12.441 -11.221,-20.801 -2.313,-32.938 6.843,-9.325 -2.422,-18.349 -11.656,-17.938 m 44.844,0 c -3.613,0.161 -7.201,1.743 -9.844,5.344 -8.04,10.956 -10.281,22.819 -6.844,35.938 3.388,12.924 12.875,22.942 8.06,36.813 -5.281,15.221 18.8,21.701 24.03,6.625 3.986,-11.489 2.886,-22.644 -1.469,-33.844 -4.843,-12.441 -11.189,-20.801 -2.281,-32.938 6.843,-9.325 -2.422,-18.349 -11.656,-17.938 m 44.844,0 c -3.613,0.161 -7.232,1.743 -9.875,5.344 -8.04,10.956 -10.25,22.819 -6.813,35.938 3.388,12.924 12.875,22.942 8.06,36.813 -5.281,15.221 18.8,21.701 24.03,6.625 3.986,-11.489 2.886,-22.644 -1.469,-33.844 -4.843,-12.441 -11.189,-20.801 -2.281,-32.938 6.843,-9.325 -2.422,-18.349 -11.656,-17.938 m -162.28,108.78 c 0,69.75 0.001,181.63 114.66,181.63 53.52,0 82.07,-24.377 97.28,-57.47 49.16,-2.068 69.19,-24.03 69.19,-50.875 0,-23.456 -15.325,-43.19 -51.969,-49.19 0.149,-8.39 0.156,-16.501 0.156,-24.09 l -229.31,0 m 39.28,17.844 c 6.228,-0.001 12.424,4.03 12.406,12.06 -0.07,34.12 7.02,66.68 26.344,95.22 9.03,13.347 -12.578,25.812 -21.531,12.594 -21.613,-31.931 -29.798,-69.64 -29.719,-107.81 0.017,-8.03 6.272,-12.06 12.5,-12.06 m 189.03,28.781 c 19.16,4.758 23.542,14.573 23.313,27.19 -0.259,14.359 -5.549,24.12 -31.531,27.625 4.858,-17.622 7.133,-36.488 8.219,-54.813"
     fill="#009688" />
</svg>
