<?xml version="1.0" encoding="UTF-8" standalone="no"?>
<svg
   xmlns:dc="http://purl.org/dc/elements/1.1/"
   xmlns:cc="http://creativecommons.org/ns#"
   xmlns:rdf="http://www.w3.org/1999/02/22-rdf-syntax-ns#"
   xmlns:svg="http://www.w3.org/2000/svg"
   xmlns="http://www.w3.org/2000/svg"
   xmlns:sodipodi="http://sodipodi.sourceforge.net/DTD/sodipodi-0.dtd"
   xmlns:inkscape="http://www.inkscape.org/namespaces/inkscape"
   width="1814.17"
   height="1814.17"
   viewBox="0 0 512 512"
   version="1.1"
   id="svg2"
   inkscape:version="0.91 r"
   sodipodi:docname="ktnef.svg">
  <defs
     id="defs18" />
  <sodipodi:namedview
     pagecolor="#ffffff"
     bordercolor="#666666"
     borderopacity="1"
     objecttolerance="10"
     gridtolerance="10"
     guidetolerance="10"
     inkscape:pageopacity="0"
     inkscape:pageshadow="2"
     inkscape:window-width="643"
     inkscape:window-height="480"
     id="namedview16"
     showgrid="false"
     inkscape:zoom="0.13008703"
     inkscape:cx="907.08502"
     inkscape:cy="907.08502"
     inkscape:window-x="0"
     inkscape:window-y="0"
     inkscape:window-maximized="0"
     inkscape:current-layer="layer1" />
  <metadata
     id="metadata6725">
    <rdf:RDF>
      <cc:Work
         rdf:about="">
        <dc:format>image/svg+xml</dc:format>
        <dc:type
           rdf:resource="http://purl.org/dc/dcmitype/StillImage" />
      </cc:Work>
    </rdf:RDF>
  </metadata>
  <g
     inkscape:label="Layer 1"
     inkscape:groupmode="layer"
     id="layer1"
     transform="translate(0,215.00001)">
    <path
       style="fill:#009688"
       inkscape:connector-curvature="0"
       id="path6740"
       d="m 132.19,73.329972 c -14.379,14.284006 -21.389,33.230018 -20.401,52.450018 0.96899,19.241 9.18399,35.92399 24.91199,48.76399 15.689,12.85901 36.06,19.346 57.38,18.28199 l 0.034,0.034 c 21.293,-1.06401 40.981,-11.97199 55.36,-26.31299 L 397.09499,19.056979 380.72601,2.6200031 231.49599,151.64998 c -10.219,10.21901 -23.267,19.71001 -38.444,20.46901 -15.15999,0.72197 -30.522,-2.91499 -40.83599,-13.02001 -10.637,-10.39 -16.812,-20.75101 -17.496,-34.44597 -0.684,-13.67604 4.81299,-26.653005 15.06999,-36.872015 l 169.26,-169.120018 c 5.85001,-5.849991 13.14,-9.100006 21.289,-8.850973 8.358,0.19011 16.05,2.654967 23.476,8.714003 14.265,11.662979 17.45999,30.771967 6.424,41.826971 l -140.45,140.240002 c -4.881,4.90099 -12.934,2.70203 -16.334,-0.887995 -5.698,-6.096983 -3.68,-12.312 -1.23,-14.762003 l 112.46,-112.319995 -16.334,-16.130002 -116.19,116.120007 c -11.358,11.378003 -7.15999,29.620988 5.946,42.440008 13.809,13.429 36.1,14.02999 48.05,2.119 L 388.10701,-24.850018 c 19.60297,-19.582978 14.80898,-52.771009 -8.782,-72.069994 -11.51102,-9.325988 -24.41502,-13.688008 -38.20002,-14.009988 -14.949,-0.38 -29.27,4.78201 -39.63999,15.172987 L 132.195,73.332995" />
  </g>
</svg>
