<?xml version="1.0" encoding="UTF-8" standalone="no"?>
<svg
   xmlns:dc="http://purl.org/dc/elements/1.1/"
   xmlns:cc="http://creativecommons.org/ns#"
   xmlns:rdf="http://www.w3.org/1999/02/22-rdf-syntax-ns#"
   xmlns:svg="http://www.w3.org/2000/svg"
   xmlns="http://www.w3.org/2000/svg"
   xmlns:sodipodi="http://sodipodi.sourceforge.net/DTD/sodipodi-0.dtd"
   xmlns:inkscape="http://www.inkscape.org/namespaces/inkscape"
   width="512"
   height="512"
   viewBox="0 0 135.46666 135.46666"
   version="1.1"
   id="svg2"
   inkscape:version="0.91 r"
   sodipodi:docname="kturtle.svg">
  <defs
     id="defs16" />
  <sodipodi:namedview
     pagecolor="#ffffff"
     bordercolor="#666666"
     borderopacity="1"
     objecttolerance="10"
     gridtolerance="10"
     guidetolerance="10"
     inkscape:pageopacity="0"
     inkscape:pageshadow="2"
     inkscape:window-width="640"
     inkscape:window-height="480"
     id="namedview14"
     showgrid="false"
     inkscape:zoom="0.4609375"
     inkscape:cx="256"
     inkscape:cy="256"
     inkscape:window-x="0"
     inkscape:window-y="0"
     inkscape:window-maximized="0"
     inkscape:current-layer="layer1" />
  <metadata
     id="metadata6752">
    <rdf:RDF>
      <cc:Work
         rdf:about="">
        <dc:format>image/svg+xml</dc:format>
        <dc:type
           rdf:resource="http://purl.org/dc/dcmitype/StillImage" />
      </cc:Work>
    </rdf:RDF>
  </metadata>
  <g
     inkscape:label="Layer 1"
     inkscape:groupmode="layer"
     id="layer1"
     transform="translate(0,-161.53334)">
    <path
       inkscape:connector-curvature="0"
       id="path6794"
       d="m 61.084353,186.23748 0,6.64898 -6.357938,0 0,14.95425 6.357938,0 0,5.1816 -6.357938,0 0,4.7625 -5.347229,0 0,-11.49085 -14.984413,0 0,8.07614 6.908271,0 0,6.90827 6.451336,0 0,3.31259 -6.58548,0 0,21.60322 6.58548,0 0,4.62175 -6.451336,0 0,6.90827 -6.908271,0 0,8.07614 14.984413,0 0,-12.87039 5.347229,0 0,6.60135 26.214918,0 0,-6.60135 5.142177,0 0,12.87039 14.98442,0 0,-8.07614 -6.908278,0 0,-6.90827 -6.246284,0 0,-4.62175 6.577542,0 0,-21.60322 -6.577542,0 0,-3.31259 6.246284,0 0,-6.90827 6.908278,0 0,-8.07614 -14.98442,0 0,11.49085 -5.142177,0 0,-4.7625 -6.553994,0 0,-5.1816 6.553994,0 0,-14.95425 -6.553994,0 0,-6.64898 -13.305897,0"
       fill="#009688" />
  </g>
</svg>
