<?xml version="1.0" encoding="UTF-8" standalone="no"?>
<svg
   xmlns:dc="http://purl.org/dc/elements/1.1/"
   xmlns:cc="http://creativecommons.org/ns#"
   xmlns:rdf="http://www.w3.org/1999/02/22-rdf-syntax-ns#"
   xmlns:svg="http://www.w3.org/2000/svg"
   xmlns="http://www.w3.org/2000/svg"
   xmlns:sodipodi="http://sodipodi.sourceforge.net/DTD/sodipodi-0.dtd"
   xmlns:inkscape="http://www.inkscape.org/namespaces/inkscape"
   height="512"
   viewBox="0 0 512 512"
   width="512"
   version="1.1"
   id="svg2"
   inkscape:version="0.91 r"
   sodipodi:docname="logoqle2.svg">
  <defs
     id="defs16" />
  <sodipodi:namedview
     pagecolor="#ffffff"
     bordercolor="#666666"
     borderopacity="1"
     objecttolerance="10"
     gridtolerance="10"
     guidetolerance="10"
     inkscape:pageopacity="0"
     inkscape:pageshadow="2"
     inkscape:window-width="1920"
     inkscape:window-height="1028"
     id="namedview14"
     showgrid="false"
     inkscape:zoom="0.4609375"
     inkscape:cx="256"
     inkscape:cy="256"
     inkscape:window-x="0"
     inkscape:window-y="0"
     inkscape:window-maximized="1"
     inkscape:current-layer="svg2" />
  <metadata
     id="metadata72">
    <rdf:RDF>
      <cc:Work
         rdf:about="">
        <dc:format>image/svg+xml</dc:format>
        <dc:type
           rdf:resource="http://purl.org/dc/dcmitype/StillImage" />
      </cc:Work>
    </rdf:RDF>
  </metadata>
  <path
     id="path66"
     fill="#f9f9f9"
     d="m256.49 120.83c-37.954 0-72.53 16.284-96.76 40.926-24.09 24.506-38.914 58.11-38.914 94.74 0 36.637 14.76 70.21 38.914 94.78 24.23 24.642 58.802 39.903 96.76 39.903 37.954 0 71.62-15.34 95.77-39.903 24.15-24.567 38.914-58.14 38.914-94.78 0-36.637-14.82-70.24-38.914-94.74-24.15-24.563-57.813-40.926-95.77-40.926m0 49.895c21.84 0 41.648 9.466 56.853 24.931 15.12 15.382 24.931 36.766 24.931 60.843 0 4.114-0.265 8.163-0.819 12.11-8.927-13.05-23.925-21.622-40.926-21.622-27.371 0-49.554 22.18-49.554 49.554 0 18.55 10.216 34.716 25.306 43.21-5.105 1.01-10.38 1.535-15.791 1.535-21.976 0-41.806-8.638-56.853-23.942-14.966-15.221-24.931-36.607-24.931-60.843 0-24.24 9.896-45.552 24.931-60.843 15.12-15.374 35.01-24.931 56.853-24.931"
     color="#000000"
     style="fill:#009688;fill-opacity:1" />
</svg>
