<?xml version="1.0" encoding="UTF-8" standalone="no"?>
<svg
   xmlns:dc="http://purl.org/dc/elements/1.1/"
   xmlns:cc="http://creativecommons.org/ns#"
   xmlns:rdf="http://www.w3.org/1999/02/22-rdf-syntax-ns#"
   xmlns:svg="http://www.w3.org/2000/svg"
   xmlns="http://www.w3.org/2000/svg"
   xmlns:sodipodi="http://sodipodi.sourceforge.net/DTD/sodipodi-0.dtd"
   xmlns:inkscape="http://www.inkscape.org/namespaces/inkscape"
   sodipodi:docname="lollypop.svg"
   inkscape:version="0.91 r13725"
   id="svg2"
   version="1.1"
   width="512"
   viewBox="0 0 512 512"
   height="512">
  <defs
     id="defs17" />
  <sodipodi:namedview
     inkscape:current-layer="svg2"
     inkscape:window-maximized="1"
     inkscape:window-y="0"
     inkscape:window-x="0"
     inkscape:cy="383.09774"
     inkscape:cx="130.18443"
     inkscape:zoom="0.51858147"
     showgrid="false"
     id="namedview15"
     inkscape:window-height="991"
     inkscape:window-width="1680"
     inkscape:pageshadow="2"
     inkscape:pageopacity="0"
     guidetolerance="10"
     gridtolerance="10"
     objecttolerance="10"
     borderopacity="1"
     bordercolor="#666666"
     pagecolor="#696062" />
  <metadata
     id="metadata28">
    <rdf:RDF>
      <cc:Work
         rdf:about="">
        <dc:format>image/svg+xml</dc:format>
        <dc:type
           rdf:resource="http://purl.org/dc/dcmitype/StillImage" />
        <dc:title></dc:title>
      </cc:Work>
    </rdf:RDF>
  </metadata>
  <g
     id="g4952"
     transform="matrix(1.3081099,0,0,1.3081099,-78.253413,-77.400946)">
    <path
       inkscape:connector-curvature="0"
       id="path40"
       style="fill:#009688;fill-opacity:1;stroke:#009688;stroke-width:7.05803347;stroke-opacity:1"
       d="m 255.01978,90.431159 c -15.98645,0 -31.42236,2.350325 -46.01838,6.655725 -10.48824,22.303386 -10.07181,60.699086 -4.94768,78.682956 5.00415,17.58862 12.06924,34.47144 19.33901,51.15663 -12.52095,-3.00672 -24.43491,-7.19214 -35.43133,-13.38203 -19.24725,-11.1164 -46.56184,-43.07518 -53.9022,-69.04874 -18.90847,21.10352 -32.38225,47.17589 -38.198073,76.02208 13.099713,17.81447 43.209283,34.98667 65.427973,40.54134 17.89917,4.47479 36.01008,6.40164 54.00807,7.9544 -8.31437,8.58257 -17.35571,16.23348 -27.69573,22.34574 -19.26843,11.15169 -60.70614,18.83083 -86.86321,12.14687 8.85077,26.90523 24.49137,50.71903 44.96673,69.35224 24.7737,-1.96213 57.02891,-21.15998 69.65573,-34.68318 12.66211,-13.53025 23.58089,-28.63444 34.23146,-43.82333 3.21847,11.92102 5.28647,23.88439 5.39234,36.03127 0,22.40219 -13.34674,62.49888 -31.19651,81.66144 10.10005,1.96919 20.51771,3.03496 31.19651,3.03496 16.84047,0 33.07395,-2.54795 48.34753,-7.30507 8.77314,-20.0801 8.68138,-55.63142 2.67499,-77.99127 -4.8771,-18.19561 -12.00571,-35.25488 -19.38136,-52.02476 12.54213,2.9432 24.5549,7.12861 35.79835,13.46673 19.31078,11.12346 46.72418,43.24457 53.96572,69.26048 18.3156,-20.63063 31.45766,-45.96192 37.38641,-73.96114 -14.18665,-20.37654 -46.72418,-38.55803 -64.69394,-42.77168 -17.90623,-4.16424 -36.30652,-6.08402 -54.64329,-7.70737 8.41317,-8.64609 17.45451,-16.297 27.63926,-22.30339 19.2896,-11.13757 60.77672,-18.81671 86.92674,-12.10452 -9.21074,-27.78748 -25.71242,-52.22945 -47.25354,-71.0744 l -0.0141,0 c -21.93637,2.61147 -51.60834,19.98835 -67.4254,36.33476 -12.94443,13.38908 -23.75734,28.23213 -34.18911,43.20222 -3.04201,-11.43402 -4.99709,-23.01625 -5.11708,-34.95844 -0.0212,-22.4022 13.31851,-62.49889 31.16828,-81.661451 -10.10005,-1.969191 -20.5177,-3.034954 -31.19651,-3.034954 l 0,-0.02823 z" />
    <path
       inkscape:connector-curvature="0"
       id="path54"
       style="fill:none;fill-opacity:1;stroke:#009688;stroke-width:13.45352459;stroke-miterlimit:2.70000005;stroke-dasharray:none;stroke-opacity:1"
       d="m 415.42117,251.24805 a 161.4423,161.4423 0 0 1 -322.884592,0 161.4423,161.4423 0 1 1 322.884592,0 z" />
  </g>
</svg>
