<?xml version="1.0" encoding="UTF-8" standalone="no"?>
<svg xmlns:dc="http://purl.org/dc/elements/1.1/" xmlns:cc="http://creativecommons.org/ns#" xmlns:rdf="http://www.w3.org/1999/02/22-rdf-syntax-ns#" xmlns:svg="http://www.w3.org/2000/svg" xmlns="http://www.w3.org/2000/svg" xmlns:sodipodi="http://sodipodi.sourceforge.net/DTD/sodipodi-0.dtd" xmlns:inkscape="http://www.inkscape.org/namespaces/inkscape" height="512" viewBox="0 0 512 512" width="512" version="1.1" id="svg2" inkscape:version="0.91 r" sodipodi:docname="gnome-music.svg">
<defs id="defs45" />
<sodipodi:namedview pagecolor="#ffffff" bordercolor="#666666" borderopacity="1" objecttolerance="10" gridtolerance="10" guidetolerance="10" inkscape:pageopacity="0" inkscape:pageshadow="2" inkscape:window-width="640" inkscape:window-height="480" id="namedview43" showgrid="false" inkscape:zoom="0.4609375" inkscape:cx="218.0339" inkscape:cy="256" inkscape:window-x="0" inkscape:window-y="0" inkscape:window-maximized="0" inkscape:current-layer="svg2" />
<metadata id="metadata84">
<rdf:RDF>
<cc:Work rdf:about="">
<dc:format>image/svg+xml</dc:format>
<dc:type rdf:resource="http://purl.org/dc/dcmitype/StillImage" />
</cc:Work>
</rdf:RDF>
</metadata>
<text id="text4" font-size="208.33" line-height="125%" y="549.52" x="-1160.48" font-family="Gentium Book Basic" word-spacing="0" letter-spacing="0">
<tspan id="tspan6" y="549.52" x="-1160.48" />
</text>
<text id="text8" font-size="75.7" transform="scale(4.0128 .2492)" y="1642.24" x="28.534" font-family="Arial" text-anchor="middle" />
<text id="text26" font-size="129.23" line-height="125%" y="231.36" x="729.64" font-family="Gentium Book Basic" word-spacing="0" letter-spacing="0">
<tspan id="tspan28" y="231.36" x="729.64" />
</text>
<text id="text30" font-size="46.954" transform="scale(4.0128 .2492)" y="579.26" x="378.91" font-family="Arial" text-anchor="middle" />
<text id="text32" font-size="129.23" line-height="125%" y="151.36" x="1310.91" font-family="Gentium Book Basic" word-spacing="0" letter-spacing="0">
<tspan id="tspan34" y="151.36" x="1310.91" />
</text>
<text id="text36" font-size="46.954" transform="scale(4.0128 .2492)" y="258.22" x="523.76" font-family="Arial" text-anchor="middle" />
<text id="text38" font-size="129.23" line-height="125%" y="-29.9" x="239.33" font-family="Gentium Book Basic" word-spacing="0" letter-spacing="0">
<tspan id="tspan40" y="-29.9" x="239.33" />
</text>
<text id="text42" font-size="46.954" transform="scale(4.0128 .2492)" y="-469.13" x="256.72" font-family="Arial" text-anchor="middle" />
<text id="text44" font-size="129.23" line-height="125%" y="-246.37" x="1337.38" font-family="Gentium Book Basic" word-spacing="0" letter-spacing="0">
<tspan id="tspan46" y="-246.37" x="1337.38" />
</text>
<text id="text48" font-size="46.954" transform="scale(4.0128 .2492)" y="-1337.8" x="530.36" font-family="Arial" text-anchor="middle" />
<text id="text50" font-size="129.23" line-height="125%" y="-326.37" x="1918.65" font-family="Gentium Book Basic" word-spacing="0" letter-spacing="0">
<tspan id="tspan52" y="-326.37" x="1918.65" />
</text>
<text id="text54" font-size="46.954" transform="scale(4.0128 .2492)" y="-1658.83" x="675.21" font-family="Arial" text-anchor="middle" />
<text id="text56" font-size="129.23" line-height="125%" y="-798.77" x="1529.53" font-family="Gentium Book Basic" word-spacing="0" letter-spacing="0">
<tspan id="tspan58" y="-798.77" x="1529.53" />
</text>
<text id="text60" font-size="46.954" transform="scale(4.0128 .2492)" y="-3554.48" x="578.24" font-family="Arial" text-anchor="middle" />
<text id="text62" font-size="129.23" line-height="125%" y="-878.78" x="2110.79" font-family="Gentium Book Basic" word-spacing="0" letter-spacing="0">
<tspan id="tspan64" y="-878.78" x="2110.79" />
</text>
<text id="text66" font-size="46.954" transform="scale(4.0128 .2492)" y="-3875.52" x="723.09" font-family="Arial" text-anchor="middle" />
<text id="text68" font-size="208.33" line-height="125%" y="535.94" x="277.99" font-family="Gentium Book Basic" word-spacing="0" letter-spacing="0">
<tspan id="tspan70" y="535.94" x="277.99" />
</text>
<g id="g72" transform="matrix(1.4625341,0,0,1.4625341,-118.41267,-118.39093)" style="fill:#009688;fill-rule:evenodd">
<path id="path74" d="m 161.38,124.63 c -16.11,0 -29.18,13.08 -29.18,29.18 0,15.888 12.754,28.833 28.561,29.18 -15.817,20.648 -25.418,46.33 -25.418,74.38 0,26.864 8.607,51.68 23.23,71.866 -14.713,1.496 -26.362,13.769 -26.362,28.873 0,16.11 13.08,29.18 29.18,29.18 15.576,0 28.04,-12.252 28.873,-27.617 19.222,12.674 42.37,20.09 67.17,20.09 21.522,0 41.737,-5.614 59.31,-15.375 2.832,13.146 14.572,22.907 28.561,22.907 16.11,0 29.18,-13.08 29.18,-29.18 0,-12.684 -8.145,-23.279 -19.463,-27.306 15.436,-20.487 24.795,-45.825 24.795,-73.44 0,-28.592 -9.922,-54.793 -26.362,-75.63 12.13,-3.545 21.03,-14.662 21.03,-27.929 0,-16.11 -13.08,-29.18 -29.18,-29.18 -14.843,0 -27.03,11.08 -28.873,25.418 -17.484,-9.631 -37.63,-15.06 -59,-15.06 -24.695,0 -47.673,7.502 -66.844,20.09 0.02,-0.412 0,-0.834 0,-1.255 0,-16.11 -13.08,-29.18 -29.18,-29.18 m 0,17.575 c 6.307,0 11.609,5.313 11.609,11.609 0,6.307 -5.313,11.298 -11.609,11.298 -6.307,0 -11.298,-4.991 -11.298,-11.298 0,-6.307 4.991,-11.609 11.298,-11.609 m 183.91,0 c 6.307,0 11.609,5.313 11.609,11.609 0,6.307 -5.313,11.298 -11.609,11.298 -6.307,0 -11.298,-4.991 -11.298,-11.298 0,-6.307 4.991,-11.609 11.298,-11.609 m -87.87,11.931 c 57.08,0 103.57,46.18 103.57,103.25 0,57.08 -46.49,103.25 -103.57,103.25 -57.08,0 -103.25,-46.18 -103.25,-103.25 0,-57.08 46.18,-103.25 103.25,-103.25 m -96.04,192.42 c 6.307,0 11.609,5.313 11.609,11.609 0,6.307 -5.313,11.298 -11.609,11.298 -6.307,0 -11.298,-4.991 -11.298,-11.298 0,-6.307 4.991,-11.609 11.298,-11.609 m 183.91,0 c 6.307,0 11.609,5.313 11.609,11.609 0,6.307 -5.313,11.298 -11.609,11.298 -6.307,0 -11.298,-4.991 -11.298,-11.298 0,-6.307 4.991,-11.609 11.298,-11.609" inkscape:connector-curvature="0" />
<path id="path76" d="m 289.3,257.47 c 0,17.509 -14.194,31.703 -31.703,31.703 -17.509,0 -31.703,-14.194 -31.703,-31.703 0,-17.509 14.194,-31.703 31.703,-31.703 17.509,0 31.703,14.194 31.703,31.703" inkscape:connector-curvature="0" />
<path id="path78" d="m 257.39,171.13 c -47.622,0 -85.996,38.684 -85.996,86.31 0,47.622 38.36,86.31 85.996,86.31 47.622,0 86.31,-38.684 86.31,-86.31 0,-47.622 -38.684,-86.31 -86.31,-86.31 m 0,38.29 c 26.613,0 48.34,21.401 48.34,48.01 0,26.613 -21.722,48.34 -48.34,48.34 -26.613,0 -48.01,-21.722 -48.01,-48.34 0,-26.613 21.401,-48.01 48.01,-48.01" inkscape:connector-curvature="0" />
</g>
</svg>
