<?xml version="1.0" encoding="UTF-8" standalone="no"?>
<svg
   xmlns:dc="http://purl.org/dc/elements/1.1/"
   xmlns:cc="http://creativecommons.org/ns#"
   xmlns:rdf="http://www.w3.org/1999/02/22-rdf-syntax-ns#"
   xmlns:svg="http://www.w3.org/2000/svg"
   xmlns="http://www.w3.org/2000/svg"
   xmlns:sodipodi="http://sodipodi.sourceforge.net/DTD/sodipodi-0.dtd"
   xmlns:inkscape="http://www.inkscape.org/namespaces/inkscape"
   height="512"
   viewBox="0 0 512 512"
   width="512"
   version="1.1"
   id="svg2"
   inkscape:version="0.91 r"
   sodipodi:docname="mahjongg.svg">
  <defs
     id="defs16" />
  <sodipodi:namedview
     pagecolor="#ffffff"
     bordercolor="#666666"
     borderopacity="1"
     objecttolerance="10"
     gridtolerance="10"
     guidetolerance="10"
     inkscape:pageopacity="0"
     inkscape:pageshadow="2"
     inkscape:window-width="647"
     inkscape:window-height="480"
     id="namedview14"
     showgrid="false"
     inkscape:zoom="0.4609375"
     inkscape:cx="256"
     inkscape:cy="256"
     inkscape:window-x="0"
     inkscape:window-y="0"
     inkscape:window-maximized="0"
     inkscape:current-layer="svg2" />
  <metadata
     id="metadata72">
    <rdf:RDF>
      <cc:Work
         rdf:about="">
        <dc:format>image/svg+xml</dc:format>
        <dc:type
           rdf:resource="http://purl.org/dc/dcmitype/StillImage" />
      </cc:Work>
    </rdf:RDF>
  </metadata>
  <path
     id="path66"
     fill="#009688"
     d="m257.71 84.27c-2.378 0.19-6.107 2.514-12.896 7.507-7.476 5.498-13.696 10.991-13.762 12.222s3.368 4.54 7.603 7.314c5.997 3.929 7.699 7.642 7.699 16.842v11.741l-17.708 0.962c-15.542 0.811-17.827 1.772-18.67 7.699-0.98 6.887 2.335 8.199 27.14 10.875 5.167 0.557 8.03 3.01 8.662 7.41 0.827 5.8-1.372 6.925-19.248 10.298-17.697 3.339-21.531 3.186-31.09-1.347-16.696-7.923-21.61-5.476-20.884 10.298 1.109 24.1 9.852 43.536 27.428 61.11l16.361 16.361-12.511 11.934c-6.875 6.606-26.887 19.447-44.46 28.487-17.576 9.04-32.03 17.323-32.05 18.382-0.048 2.437 16.36 5.774 28.391 5.774 12.05 0 32.19-10.408 62.46-32.14l24.637-17.612 0.962 22.52c1.317 32.26-0.224 36.475-13.377 36.475h-10.875l5 9.624c2.747 5.312 8.201 18.13 12.13 28.487 3.925 10.356 8.653 22.765 10.49 27.524 4.255 11.02 7.596 8.826 14.34-9.431 4.139-11.207 5.709-27.372 6.737-69.1 1.12-45.46 2.116-54.14 5.774-52.739 2.41 0.925 14.796 15.929 27.524 33.395 26.636 36.55 42.6 52.16 50.14 48.89 7.733-3.354 41.07-10.418 49.563-10.49 10.118-0.086 5.176-3.956-13.666-10.683-30.21-10.785-62.19-34.21-79.01-57.84l-6.159-8.565 14.436-14.628c17.857-18.06 26.08-33.712 26.08-49.563 0-6.976 1.645-12.799 3.85-13.57 7.02-2.454-6.449-13.564-21.75-17.997-7.961-2.306-24.483-4.2-36.763-4.138-15.383 0.078-22.328-1.013-22.328-3.561 0-2.209 8.989-5.182 22.328-7.314 12.28-1.963 25.626-4.552 29.642-5.774 7.277-2.214 7.292-2.224-3.657-11.837l-11.07-9.624-17.804 4.235c-22.499 5.375-22.52 5.381-22.52 0.096 0-4.727 6.494-12.205 14.436-16.649 4.2-2.351 3.458-4.44-5.486-14.243-5.747-6.299-11.642-13.4-12.992-15.783-0.736-1.299-1.653-1.942-3.08-1.829m34.839 102.21h24.637v14.917c0 11.673-1.998 17.661-9.143 27.524-5.03 6.941-11.876 14.1-15.206 15.879-3.329 1.782-6.491 3.067-7.03 2.887-15.741-5.303-17.901-7.432-17.901-17.516v-10.49l18.478 2.214c15.959 1.852 18.706 1.401 20.499-3.272 3.269-8.518-12.05-19.825-26.851-19.825-10.09 0-12.13-1.041-12.13-6.159 0-5.646 2.053-6.159 24.637-6.159m-52.835 3.561c2.72-0.165 3.561 1.206 3.561 4.812 0 4.168-3.071 6.947-9.72 8.854-5.328 1.528-11.124 5.082-12.896 7.892-4.843 7.678 3.098 15.741 13.955 14.15 7.733-1.135 8.662-0.378 8.662 7.41 0 10.152-5.696 11.283-20.02 3.946-13.08-6.703-16.938-12.978-16.938-27.717 0-12.483 0.353-12.948 11.549-14.821 6.352-1.062 14.667-2.804 18.478-3.85 1.371-0.376 2.462-0.619 3.368-0.674m-135.79 236.65c-0.091 0.358-0.196 0.702-0.289 1.059 2.906-0.361 5.783-0.705 8.758-1.059h-8.469" />
</svg>
