<?xml version="1.0" encoding="UTF-8" standalone="no"?>
<svg
   xmlns:dc="http://purl.org/dc/elements/1.1/"
   xmlns:cc="http://creativecommons.org/ns#"
   xmlns:rdf="http://www.w3.org/1999/02/22-rdf-syntax-ns#"
   xmlns:svg="http://www.w3.org/2000/svg"
   xmlns="http://www.w3.org/2000/svg"
   xmlns:sodipodi="http://sodipodi.sourceforge.net/DTD/sodipodi-0.dtd"
   xmlns:inkscape="http://www.inkscape.org/namespaces/inkscape"
   height="512"
   viewBox="0 0 512 512"
   width="512"
   version="1.1"
   id="svg2"
   inkscape:version="0.91 r"
   sodipodi:docname="marble.svg">
  <defs
     id="defs17" />
  <sodipodi:namedview
     pagecolor="#ffffff"
     bordercolor="#666666"
     borderopacity="1"
     objecttolerance="10"
     gridtolerance="10"
     guidetolerance="10"
     inkscape:pageopacity="0"
     inkscape:pageshadow="2"
     inkscape:window-width="640"
     inkscape:window-height="480"
     id="namedview15"
     showgrid="false"
     inkscape:zoom="0.4609375"
     inkscape:cx="256"
     inkscape:cy="256"
     inkscape:window-x="0"
     inkscape:window-y="0"
     inkscape:window-maximized="0"
     inkscape:current-layer="svg2" />
  <metadata
     id="metadata74">
    <rdf:RDF>
      <cc:Work
         rdf:about="">
        <dc:format>image/svg+xml</dc:format>
        <dc:type
           rdf:resource="http://purl.org/dc/dcmitype/StillImage" />
      </cc:Work>
    </rdf:RDF>
  </metadata>
  <path
     id="path68"
     fill="#009688"
     d="m241.44 344.59c-8.07-31.844-14.843-58.16-15.04-58.49-0.2-0.324-26.625-7.134-58.723-15.13-32.1-8-58.12-14.694-57.83-14.874 0.457-0.282 115.55-29.24 116.22-29.24 0.135 0 6.822-26.312 14.859-58.47 8.04-32.16 14.745-58.47 14.907-58.47s6.856 26.26 14.877 58.35l14.583 58.35 16.81 4.151c9.245 2.283 34.567 8.536 56.27 13.895 21.704 5.359 40.43 9.925 41.621 10.146 1.188 0.222 2.16 0.569 2.16 0.771s-9.01 2.638-20.02 5.413c-59.25 14.931-96.35 24.426-96.63 24.727-0.094 0.101-6.579 26.24-14.409 58.08-7.831 31.843-14.404 58.07-14.607 58.29-0.203 0.218-6.974-25.657-15.05-57.5m22.21-71.67c13.74-6.651 14.06-26.19 0.538-33.1-2.981-1.525-3.968-1.73-8.32-1.73-4.246 0-5.399 0.227-8.235 1.619-9.906 4.864-13.212 17.365-7.06 26.709 2.152 3.27 6.05 6.268 9.725 7.47 3.519 1.153 9.935 0.688 13.355-0.968m-135.6 110.51c0.465-0.724 13.875-23.05 29.801-49.602 15.926-26.557 29.32-48.42 29.766-48.596 0.654-0.251 31.25 7.02 31.785 7.55 0.232 0.232 8.174 31.654 8.03 31.786-0.067 0.063-22.646 13.629-50.18 30.15-29.803 17.881-49.713 29.499-49.21 28.715m206.28-29.18c-27.01-16.08-49.26-29.4-49.44-29.588-0.292-0.292 7.07-31.469 7.563-32.04 0.096-0.111 7.256-1.978 15.911-4.149 12.12-3.04 15.881-3.787 16.369-3.254 0.348 0.381 13.541 22.08 29.32 48.22 15.777 26.14 29.07 48.11 29.533 48.822 0.467 0.713 0.624 1.283 0.35 1.267s-22.594-13.189-49.599-29.27m-176.69-175.94c-16.348-27.25-29.637-49.627-29.532-49.732 0.322-0.322 98.03 58.45 98.59 59.3 0.344 0.524-0.808 6.122-3.368 16.373l-3.89 15.577-16.04 4.01-16.04 4.01-29.723-49.541m149.95 45.23-15.365-3.808-4.01-16.05-4.01-16.05 1.233-0.8c4.946-3.211 97.46-58.934 97.61-58.79 0.38 0.38-58.72 99.11-59.39 99.21-0.383 0.056-7.61-1.612-16.06-3.706" />
</svg>
