<?xml version="1.0" encoding="UTF-8" standalone="no"?>
<svg
   xmlns:dc="http://purl.org/dc/elements/1.1/"
   xmlns:cc="http://creativecommons.org/ns#"
   xmlns:rdf="http://www.w3.org/1999/02/22-rdf-syntax-ns#"
   xmlns:svg="http://www.w3.org/2000/svg"
   xmlns="http://www.w3.org/2000/svg"
   xmlns:sodipodi="http://sodipodi.sourceforge.net/DTD/sodipodi-0.dtd"
   xmlns:inkscape="http://www.inkscape.org/namespaces/inkscape"
   height="512"
   viewBox="0 0 512 512"
   width="512"
   version="1.1"
   id="svg2"
   inkscape:version="0.91 r"
   sodipodi:docname="matlab.svg">
  <defs
     id="defs16" />
  <sodipodi:namedview
     pagecolor="#ffffff"
     bordercolor="#666666"
     borderopacity="1"
     objecttolerance="10"
     gridtolerance="10"
     guidetolerance="10"
     inkscape:pageopacity="0"
     inkscape:pageshadow="2"
     inkscape:window-width="640"
     inkscape:window-height="480"
     id="namedview14"
     showgrid="false"
     inkscape:zoom="0.4609375"
     inkscape:cx="256"
     inkscape:cy="256"
     inkscape:window-x="0"
     inkscape:window-y="0"
     inkscape:window-maximized="0"
     inkscape:current-layer="svg2" />
  <metadata
     id="metadata74">
    <rdf:RDF>
      <cc:Work
         rdf:about="">
        <dc:format>image/svg+xml</dc:format>
        <dc:type
           rdf:resource="http://purl.org/dc/dcmitype/StillImage" />
      </cc:Work>
    </rdf:RDF>
  </metadata>
  <path
     style="fill:#009688"
     inkscape:connector-curvature="0"
     d="m 299.79,119.87 c -1.222,0.039 -2.427,0.261 -3.559,0.65 -2.177,0.748 -3.206,1.272 -4.095,2.118 -0.26,0.248 -1.268,1.129 -2.259,1.949 -1.431,1.183 -3.27,3.397 -5.338,6.242 -2.442,3.359 -5.264,7.676 -8.699,13.5 -1.929,3.272 -4.575,7.631 -5.903,9.687 -1.327,2.056 -2.852,4.498 -3.389,5.423 -2.177,3.743 -9.393,13.597 -15.08,20.589 -4.816,5.919 -13.948,14.404 -17.398,16.15 -0.654,0.332 -1.822,0.994 -2.57,1.497 -1.677,1.128 -4.792,2.37 -8.953,3.559 -3.518,1.01 -10.11,4.281 -12.935,6.411 -4.839,3.645 -15.655,15.293 -20.17,21.719 -0.702,1 -1.786,2.353 -2.401,3.02 -0.614,0.669 -1.413,1.632 -1.779,2.118 -0.41,0.545 -1.78,1.338 -3.559,2.062 -1.589,0.647 -4.277,1.77 -5.959,2.514 -1.683,0.744 -6.346,2.608 -10.365,4.152 -4.02,1.544 -8.911,3.56 -10.874,4.462 -1.963,0.902 -4.774,2.076 -6.27,2.627 -4.156,1.531 -13.05,5.116 -14.432,5.818 -0.676,0.344 -5.954,2.476 -11.749,4.745 -5.795,2.269 -11.703,4.683 -13.1,5.338 -1.402,0.655 -4.366,1.901 -6.609,2.796 -5.388,2.151 -5.428,2.38 -1.017,5.281 1.536,1.01 6.897,4.899 12.173,8.784 1.101,0.811 3.03,2.148 4.265,2.994 1.236,0.846 3.703,2.619 5.479,3.926 1.776,1.306 3.872,2.794 4.66,3.304 1.303,0.844 6.648,4.696 11.777,8.473 1.101,0.811 3.03,2.147 4.265,2.994 2.093,1.435 6.668,4.753 11.382,8.219 3.825,2.813 7.708,5.366 8.134,5.366 0.436,0 5.939,-2.135 6.976,-2.711 1.29,-0.716 4.115,-1.437 6.355,-1.61 0.362,-0.025 0.739,0.117 1.073,0.113 1.334,-0.017 2.491,0.016 4.349,0.48 4.85,1.211 6.327,2.123 10.761,6.722 3.437,3.565 4.425,4.884 8.05,10.732 4.539,7.326 6.353,10.733 8.05,15.14 0.617,1.603 2.215,5.217 3.559,8.02 1.344,2.804 3.117,6.86 3.926,9.01 0.809,2.15 2.171,5.521 3.05,7.484 0.879,1.963 2.648,6.181 3.926,9.377 1.278,3.196 2.85,6.985 3.502,8.416 0.842,1.849 1.371,2.6 1.808,2.598 0.79,-0.003 5.785,-1.205 8.473,-2.033 2.023,-0.624 8.227,-3.646 13.387,-6.524 1.402,-0.782 4.093,-2.617 5.959,-4.095 3.89,-3.081 14.465,-12.537 15.562,-13.895 0.405,-0.501 2.814,-3.197 5.338,-5.988 2.524,-2.791 6.503,-7.253 8.84,-9.941 2.337,-2.688 5.398,-6.194 6.807,-7.795 1.409,-1.601 4.099,-4.761 5.987,-7 4.687,-5.569 14.856,-15.51 18.979,-18.556 7.517,-5.552 12.405,-7.967 18.443,-9.122 4.5,-0.861 8.194,-0.534 13.359,1.214 4.211,1.426 5.461,2.06 8.642,4.208 1.309,0.884 2.811,1.859 3.333,2.175 2.484,1.502 10.193,8.07 15.562,13.274 11.711,11.361 23.347,21.14 24.18,20.307 0.359,-0.359 -0.9,-3.486 -4.66,-11.636 -1.251,-2.711 -2.924,-6.69 -3.728,-8.84 -0.804,-2.15 -2.582,-6.509 -3.926,-9.687 -1.344,-3.178 -3.091,-7.613 -3.898,-9.857 -0.806,-2.243 -2.557,-6.679 -3.898,-9.857 -1.341,-3.178 -3.269,-7.917 -4.265,-10.535 -0.996,-2.617 -2.877,-7.508 -4.18,-10.874 -2.722,-7.03 -8.831,-24.606 -18.245,-52.36 -9.377,-27.648 -13.933,-40.498 -19.29,-54.37 -4.559,-11.804 -13.09,-29.31 -17.652,-36.26 -3.206,-4.884 -9.405,-11.357 -12.455,-12.992 -1.62,-0.868 -3.668,-1.279 -5.705,-1.214"
     id="path68" />
</svg>
