<?xml version="1.0" encoding="UTF-8" standalone="no"?>
<svg
   xmlns:dc="http://purl.org/dc/elements/1.1/"
   xmlns:cc="http://creativecommons.org/ns#"
   xmlns:rdf="http://www.w3.org/1999/02/22-rdf-syntax-ns#"
   xmlns:svg="http://www.w3.org/2000/svg"
   xmlns="http://www.w3.org/2000/svg"
   xmlns:sodipodi="http://sodipodi.sourceforge.net/DTD/sodipodi-0.dtd"
   xmlns:inkscape="http://www.inkscape.org/namespaces/inkscape"
   width="512"
   height="512"
   viewBox="0 0 135.46666 135.46667"
   version="1.1"
   id="svg2"
   inkscape:version="0.91 r"
   sodipodi:docname="mediatomb.svg">
  <defs
     id="defs19" />
  <sodipodi:namedview
     pagecolor="#ffffff"
     bordercolor="#666666"
     borderopacity="1"
     objecttolerance="10"
     gridtolerance="10"
     guidetolerance="10"
     inkscape:pageopacity="0"
     inkscape:pageshadow="2"
     inkscape:window-width="640"
     inkscape:window-height="480"
     id="namedview17"
     showgrid="false"
     inkscape:zoom="0.4609375"
     inkscape:cx="256"
     inkscape:cy="256"
     inkscape:window-x="0"
     inkscape:window-y="0"
     inkscape:window-maximized="0"
     inkscape:current-layer="layer1" />
  <metadata
     id="metadata7168">
    <rdf:RDF>
      <cc:Work
         rdf:about="">
        <dc:format>image/svg+xml</dc:format>
        <dc:type
           rdf:resource="http://purl.org/dc/dcmitype/StillImage" />
      </cc:Work>
    </rdf:RDF>
  </metadata>
  <g
     inkscape:label="Layer 1"
     inkscape:groupmode="layer"
     id="layer1"
     transform="translate(0,-161.53332)">
    <path
       style="fill:#009688"
       inkscape:connector-curvature="0"
       id="path7624"
       d="m 46.349852,253.31731 -3.703108,-3.79227 -3.38455,3.30491 c -1.862667,1.81769 -3.821113,3.30491 -4.354513,3.30491 -0.534458,0 -2.680229,-1.90341 -4.770438,-4.22989 -3.66157,-4.07485 -3.735917,-4.28758 -2.057135,-5.80787 1.553633,-1.406 1.743869,-3.18029 1.743869,-16.27188 l 0,-14.69231 6.809581,-6.85535 6.809582,-6.85536 3.566848,3.48298 3.566848,3.48297 3.114939,-3.01916 c 1.713178,-1.66052 3.601244,-3.01916 4.195763,-3.01916 0.594519,0 3.652838,2.38125 6.796352,5.2914 l 5.71553,5.29141 0,15.1712 c 0,14.31661 0.116416,15.2953 2.069306,17.37519 l 2.069306,2.20266 -4.628621,4.69926 -4.628621,4.69927 -3.834871,-3.76344 -3.83487,-3.76343 -3.779044,3.77904 -3.779044,3.77905 z M 44.921631,231.6318 c 0,-10.80691 -0.188383,-12.17613 -1.887273,-13.71309 -1.879335,-1.70074 -1.887273,-1.64809 -1.887273,12.43515 0,7.77875 0.2794,14.42244 0.620978,14.76402 0.341577,0.34157 1.190625,0.1479 1.887273,-0.42995 0.937947,-0.77841 1.266295,-4.16428 1.266295,-13.05719 m 15.097126,0.49001 c 0,-11.06276 -0.0926,-11.60225 -2.359025,-13.73135 l -2.359025,-2.21615 0,13.65806 c 0,14.00281 0.727604,17.1159 3.468687,14.84048 0.91149,-0.75645 1.249098,-4.14867 1.249098,-12.55184 M 84.579764,252.858 c -3.929063,-4.00315 -4.060031,-4.30954 -2.55561,-5.97191 1.351756,-1.49384 1.585648,-4.07326 1.585648,-17.48367 l 0,-15.73213 -11.736918,0 5.603876,-5.66182 5.603875,-5.66181 25.365605,0 -5.10382,5.55519 c -2.80696,3.05541 -5.847285,5.60387 -6.75507,5.66155 -1.500981,0.0968 -1.651265,1.51077 -1.651265,15.52999 0,14.30602 0.138906,15.54929 1.917171,17.15823 1.909234,1.72772 1.89865,1.75365 -2.559579,6.27962 -2.461948,2.49978 -4.722548,4.54554 -5.023115,4.54554 -0.300567,0 -2.410354,-1.89892 -4.687888,-4.21958" />
  </g>
</svg>
