<svg xmlns="http://www.w3.org/2000/svg" width="48" height="48">
<defs>
  <path
     d="m 25.330048,2 c 0,0 -10.343538,0.2553 -14.477277,5.3617 -4.1337382,5.1064 -4.8936172,7.0335 -8.2978725,7.2765 8.0243175,0 11.6717335,-4.857 17.0212775,-5.8297 l 0,37.1915 12.638298,0 c 6.322188,0 11.446808,-5.0821 11.446808,-11.4043 0,-6.3222 -6.378926,-7.4042 -10.085106,-7.4042 -3.706182,0 -8.246128,2.851 -8.246128,2.851 l 0,-28.0425 z m 4.616146,30.9804 c 3.782699,-0.7307 7.723734,0.02 7.680745,2.9441 -0.0344,2.3386 -3.052449,6.5556 -12.296891,5.352 l 0,-5.7263 c 0,0 0.833446,-1.839 4.616146,-2.5698 z"
     id="path-main" />
</defs>

<use id="1" style="fill:#009688" xlink:href="#path-main" />



</svg>
