<?xml version="1.0" encoding="UTF-8" standalone="no"?>
<svg
   xmlns:dc="http://purl.org/dc/elements/1.1/"
   xmlns:cc="http://creativecommons.org/ns#"
   xmlns:rdf="http://www.w3.org/1999/02/22-rdf-syntax-ns#"
   xmlns:svg="http://www.w3.org/2000/svg"
   xmlns="http://www.w3.org/2000/svg"
   xmlns:sodipodi="http://sodipodi.sourceforge.net/DTD/sodipodi-0.dtd"
   xmlns:inkscape="http://www.inkscape.org/namespaces/inkscape"
   version="1.1"
   viewBox="0 0 512 512"
   id="svg2"
   inkscape:version="0.91 r"
   sodipodi:docname="mediainfo.svg">
  <defs
     id="defs21" />
  <sodipodi:namedview
     pagecolor="#ffffff"
     bordercolor="#666666"
     borderopacity="1"
     objecttolerance="10"
     gridtolerance="10"
     guidetolerance="10"
     inkscape:pageopacity="0"
     inkscape:pageshadow="2"
     inkscape:window-width="640"
     inkscape:window-height="480"
     id="namedview19"
     showgrid="false"
     inkscape:zoom="0.4609375"
     inkscape:cx="256"
     inkscape:cy="256"
     inkscape:window-x="0"
     inkscape:window-y="0"
     inkscape:window-maximized="0"
     inkscape:current-layer="svg2" />
  <metadata
     id="metadata6462">
    <rdf:RDF>
      <cc:Work
         rdf:about="">
        <dc:format>image/svg+xml</dc:format>
        <dc:type
           rdf:resource="http://purl.org/dc/dcmitype/StillImage" />
      </cc:Work>
    </rdf:RDF>
  </metadata>
  <path
     style="fill:#009688;fill-rule:evenodd"
     d="m 251.23058,89.47012 c -7.095,0.073 -14.373,0.477 -21.813,1.25 226.04,41.723 199.07,312.63 -2.688,331.81 296.15,-11.654 244.45,-335.34 24.5,-333.06 m -4.313,70.75 c -3.02,0.035 -6.089,0.204 -9.219,0.469 113.4,22.656 99.82,181.63 -1.469,194.47 166.75,-3.403 136.55,-196.4 10.688,-194.94 m -11.594,44.03 c -28.582,0 -51.75,23.17 -51.75,51.75 0,28.582 23.17,51.75 51.75,51.75 28.582,0 51.75,-23.17 51.75,-51.75 0,-28.582 -23.17,-51.75 -51.75,-51.75 m -0.031,13.688 c 18.512,0 29.469,7.644 29.469,20.344 0,8.933 -4.935,15.723 -14.406,19.813 -7.534,3.336 -8.844,4.855 -8.844,10.344 l 0,0.844 -10.75,0 c -0.215,-1.292 -0.219,-1.917 -0.219,-3.531 0,-7.857 1.411,-10.445 9.375,-16.688 3.552,-2.906 5.25,-6.132 5.25,-10.438 0,-6.888 -4.522,-11.313 -11.625,-11.313 -5.812,0 -10.969,2.705 -10.969,5.719 0,0.753 0.014,0.736 0.875,2.781 0.323,0.861 0.75,2.799 0.75,3.875 0,4.736 -3.771,8.188 -8.938,8.188 -5.812,0 -9.375,-3.758 -9.375,-10 0,-11.301 12.724,-19.938 29.406,-19.938 m 1.281,56.19 c 5.597,0 10,4.417 10,9.906 0,5.489 -4.511,10 -10,10 -5.489,0 -9.906,-4.514 -9.906,-10.219 0,-5.274 4.525,-9.688 9.906,-9.688"
     id="path6456"
     inkscape:connector-curvature="0" />
</svg>
