<?xml version="1.0" encoding="UTF-8" standalone="no"?>
<svg
   xmlns:dc="http://purl.org/dc/elements/1.1/"
   xmlns:cc="http://creativecommons.org/ns#"
   xmlns:rdf="http://www.w3.org/1999/02/22-rdf-syntax-ns#"
   xmlns:svg="http://www.w3.org/2000/svg"
   xmlns="http://www.w3.org/2000/svg"
   xmlns:sodipodi="http://sodipodi.sourceforge.net/DTD/sodipodi-0.dtd"
   xmlns:inkscape="http://www.inkscape.org/namespaces/inkscape"
   version="1.1"
   viewBox="0 0 512 512"
   id="svg2"
   inkscape:version="0.91 r"
   sodipodi:docname="mediafire-express.svg">
  <defs
     id="defs18" />
  <sodipodi:namedview
     pagecolor="#ffffff"
     bordercolor="#666666"
     borderopacity="1"
     objecttolerance="10"
     gridtolerance="10"
     guidetolerance="10"
     inkscape:pageopacity="0"
     inkscape:pageshadow="2"
     inkscape:window-width="640"
     inkscape:window-height="480"
     id="namedview16"
     showgrid="false"
     inkscape:zoom="0.4609375"
     inkscape:cx="256"
     inkscape:cy="256"
     inkscape:window-x="0"
     inkscape:window-y="0"
     inkscape:window-maximized="0"
     inkscape:current-layer="svg2" />
  <metadata
     id="metadata5280">
    <rdf:RDF>
      <cc:Work
         rdf:about="">
        <dc:format>image/svg+xml</dc:format>
        <dc:type
           rdf:resource="http://purl.org/dc/dcmitype/StillImage" />
      </cc:Work>
    </rdf:RDF>
  </metadata>
  <path
     style="fill:#009688;fill-rule:evenodd"
     d="m 304.09058,161.97012 c -26.17,0.414 -53.906,8.857 -65.47,21.22 -2.773,2.965 -5.03,6.02 -5.03,6.781 0,1.037 2.63,1.375 10.469,1.375 9.122,0 11.11,0.331 15.75,2.719 16.228,10.01 11.431,18.936 -4.094,17.938 -10.386,-0.465 -21.297,-1.823 -28.563,-3.781 -31.12,-8.452 -67.56,-10.521 -89.53,-5.063 -8.599,2.137 -18.09,6.699 -23.09,11.09 -3.892,3.417 -8.03,10.284 -6.906,11.406 0.384,0.384 2.986,-0.114 5.813,-1.094 10.721,-3.717 26.926,-3.12 28.531,1.063 1.482,3.862 -8.16,9.408 -28,16 -16.577,5.508 -26.698,13.03 -32.375,24.16 -1.962,3.846 -2.879,10.594 -1.438,10.594 0.359,0 4.112,-1.685 8.313,-3.75 17.474,-8.591 47.576,-12.536 65.938,-8.656 11.601,2.452 22.03,7.914 28.906,15.188 l 5.719,6.094 -6.469,2.406 c -8.817,3.314 -12.494,5.313 -16.906,9.188 -4.313,3.787 -4.841,6.298 -1.344,6.313 4.269,0.017 25.615,5.186 37.719,9.156 6.472,2.123 22.1,8.831 34.75,14.906 33.05,15.872 43.771,19.839 59.34,21.875 10.753,1.406 28.384,1.187 38.594,-0.469 23.483,-3.809 41.4,-12.604 57.56,-28.25 12.666,-12.262 20.384,-24.62 25.469,-40.813 2.148,-6.84 2.531,-10.213 2.531,-23.5 0,-16.696 -1.437,-23.24 -7.719,-35.75 -14.208,-28.3 -47.3,-49.724 -87.91,-56.844 -5.725,-1 -11.825,-1.474 -18.03,-1.5 -0.841,-0.003 -1.687,-0.013 -2.531,0 m 35.06,60.813 c 53.17,-1.352 64.842,81.71 -12.563,75.06 -31.496,-3.834 -66.34,-30.01 -84.91,-37.781 16.836,-2.588 32.476,-8.481 43.19,-15.906 11.636,-7.834 34.925,-19.06 48.06,-20.969 l 0.938,0 c 1.8,-0.225 3.566,-0.363 5.281,-0.406"
     id="path5274"
     inkscape:connector-curvature="0" />
</svg>
