<?xml version="1.0" encoding="UTF-8" standalone="no"?>
<svg
   xmlns:dc="http://purl.org/dc/elements/1.1/"
   xmlns:cc="http://creativecommons.org/ns#"
   xmlns:rdf="http://www.w3.org/1999/02/22-rdf-syntax-ns#"
   xmlns:svg="http://www.w3.org/2000/svg"
   xmlns="http://www.w3.org/2000/svg"
   xmlns:sodipodi="http://sodipodi.sourceforge.net/DTD/sodipodi-0.dtd"
   xmlns:inkscape="http://www.inkscape.org/namespaces/inkscape"
   version="1.1"
   viewBox="0 0 512 512"
   id="svg2"
   inkscape:version="0.91 r"
   sodipodi:docname="makehuman.svg">
  <defs
     id="defs17" />
  <sodipodi:namedview
     pagecolor="#ffffff"
     bordercolor="#666666"
     borderopacity="1"
     objecttolerance="10"
     gridtolerance="10"
     guidetolerance="10"
     inkscape:pageopacity="0"
     inkscape:pageshadow="2"
     inkscape:window-width="640"
     inkscape:window-height="480"
     id="namedview15"
     showgrid="false"
     inkscape:zoom="0.4609375"
     inkscape:cx="256"
     inkscape:cy="256"
     inkscape:window-x="0"
     inkscape:window-y="0"
     inkscape:window-maximized="0"
     inkscape:current-layer="svg2" />
  <metadata
     id="metadata4102">
    <rdf:RDF>
      <cc:Work
         rdf:about="">
        <dc:format>image/svg+xml</dc:format>
        <dc:type
           rdf:resource="http://purl.org/dc/dcmitype/StillImage" />
      </cc:Work>
    </rdf:RDF>
  </metadata>
  <path
     id="path4096"
     fill="#009688"
     d="m256 262.2h9.288l0.485 85.28 0.485 85.28 17.537-114.65c9.645-63.06 18.15-116.35 18.905-118.41 0.891-2.447 18.01-12.822 49.07-29.754 26.24-14.297 47.47-26.23 47.19-26.518-0.414-0.436-48.948 12.277-126.64 33.12l-6.994 1.873v46.49h-18.652v-46.49l-6.994-1.873c-77.69-20.842-126.23-33.528-126.64-33.12-0.285 0.291 20.949 12.221 47.19 26.518 31.07 16.932 48.18 27.307 49.07 29.754 0.753 2.065 9.259 55.35 18.904 118.41l17.537 114.65 0.485-85.28 0.486-85.28zm12.355-97.1c8.382-4.054 15.622-15.241 15.622-24.13 0-2.429-1.729-7.99-3.842-12.356-4.058-8.381-15.242-15.622-24.13-15.622-8.892 0-20.08 7.24-24.13 15.622-4.824 9.965-4.828 14.737-0.016 24.673 2.731 5.642 6.06 9.01 11.657 11.779 9.834 4.871 14.852 4.876 24.848 0z" />
</svg>
