<?xml version="1.0" encoding="UTF-8" standalone="no"?>
<svg xmlns:dc="http://purl.org/dc/elements/1.1/" xmlns:cc="http://creativecommons.org/ns#" xmlns:rdf="http://www.w3.org/1999/02/22-rdf-syntax-ns#" xmlns:svg="http://www.w3.org/2000/svg" xmlns="http://www.w3.org/2000/svg" xmlns:sodipodi="http://sodipodi.sourceforge.net/DTD/sodipodi-0.dtd" xmlns:inkscape="http://www.inkscape.org/namespaces/inkscape" height="512" viewBox="0 0 512 512" width="512" version="1.1" id="svg2" inkscape:version="0.91 r" sodipodi:docname="mintnanny.svg">
<defs id="defs17" />
<sodipodi:namedview pagecolor="#ffffff" bordercolor="#666666" borderopacity="1" objecttolerance="10" gridtolerance="10" guidetolerance="10" inkscape:pageopacity="0" inkscape:pageshadow="2" inkscape:window-width="1680" inkscape:window-height="994" id="namedview15" showgrid="false" inkscape:zoom="1.3037281" inkscape:cx="26.744141" inkscape:cy="244.919" inkscape:window-x="0" inkscape:window-y="0" inkscape:window-maximized="1" inkscape:current-layer="svg2" />
<metadata id="metadata28">
<rdf:RDF>
<cc:Work rdf:about="">
<dc:format>image/svg+xml</dc:format>
<dc:type rdf:resource="http://purl.org/dc/dcmitype/StillImage" />
<dc:title />
</cc:Work>
</rdf:RDF>
</metadata>
<g id="g3336" transform="matrix(1.2481983,0,0,1.2481983,-61.520898,-61.161317)">
<path style="fill:#009688;stroke:#000000;stroke-width:0" sodipodi:nodetypes="cccc" inkscape:connector-curvature="0" id="path4268" d="m 251.81088,98.082142 c 54.09103,76.293788 91.44967,163.977408 78.10169,280.406788 -10.82294,6.15506 -25.59125,10.995 -40.67797,15.72881 19.887,-105.9435 7.69795,-185.45912 -37.42372,-296.135598 z" />
<path style="fill:#009688;stroke:#000000;stroke-width:0" sodipodi:nodetypes="cccc" inkscape:connector-curvature="0" id="path4268-0" d="M 244.49209,98.624509 C 190.40106,174.91831 153.04242,262.60193 166.3904,379.03131 c 10.82294,6.15506 25.59125,10.995 40.67797,15.72881 -19.887,-105.9435 -7.69795,-185.45912 37.42372,-296.135611 z" />
<path style="fill:#009688;stroke:#000000;stroke-width:0" sodipodi:nodetypes="cccc" inkscape:connector-curvature="0" id="path4268-0-7" d="M 86.852784,230.42728 C 178.35172,249.78004 292.64378,247.62643 394.2029,189.1481 385.31637,170.02464 385.68451,171.98583 369.7082,151.53495 280.3693,211.85144 206.34691,227.89653 86.852784,230.42728 Z" />
<path style="fill:#009688;stroke:#000000;stroke-width:0" sodipodi:nodetypes="cccc" inkscape:connector-curvature="0" id="path4268-0-7-9" d="m 96.510239,304.84733 c 91.498941,19.35276 209.587601,17.74152 311.146721,-40.73681 1.35193,-12.37711 2.64227,-28.3955 -2.25741,-45.20636 -89.3389,60.31649 -189.39519,83.41242 -308.889311,85.94317 z" />
</g>
</svg>
