<?xml version="1.0" encoding="UTF-8" standalone="no"?>
<svg xmlns:dc="http://purl.org/dc/elements/1.1/" xmlns:cc="http://creativecommons.org/ns#" xmlns:rdf="http://www.w3.org/1999/02/22-rdf-syntax-ns#" xmlns:svg="http://www.w3.org/2000/svg" xmlns="http://www.w3.org/2000/svg" xmlns:sodipodi="http://sodipodi.sourceforge.net/DTD/sodipodi-0.dtd" xmlns:inkscape="http://www.inkscape.org/namespaces/inkscape" height="512" viewBox="0 0 512 512" width="512" version="1.1" id="svg2" inkscape:version="0.91 r" sodipodi:docname="mouse.svg">
<defs id="defs46" />
<sodipodi:namedview pagecolor="#ffffff" bordercolor="#666666" borderopacity="1" objecttolerance="10" gridtolerance="10" guidetolerance="10" inkscape:pageopacity="0" inkscape:pageshadow="2" inkscape:window-width="640" inkscape:window-height="480" id="namedview44" showgrid="false" inkscape:zoom="0.4609375" inkscape:cx="218.0339" inkscape:cy="256" inkscape:window-x="0" inkscape:window-y="0" inkscape:window-maximized="0" inkscape:current-layer="svg2" />
<metadata id="metadata86">
<rdf:RDF>
<cc:Work rdf:about="">
<dc:format>image/svg+xml</dc:format>
<dc:type rdf:resource="http://purl.org/dc/dcmitype/StillImage" />
</cc:Work>
</rdf:RDF>
</metadata>
<text id="text20" font-size="129.23" line-height="125%" y="231.36" x="729.64" font-family="Gentium Book Basic" word-spacing="0" letter-spacing="0">
<tspan id="tspan22" y="231.36" x="729.64" />
</text>
<text id="text24" font-size="46.954" transform="scale(4.0128 .2492)" y="579.25" x="378.91" font-family="Arial" text-anchor="middle" />
<text id="text26" font-size="129.23" line-height="125%" y="151.36" x="1310.91" font-family="Gentium Book Basic" word-spacing="0" letter-spacing="0">
<tspan id="tspan28" y="151.36" x="1310.91" />
</text>
<text id="text30" font-size="46.954" transform="scale(4.0128 .2492)" y="258.22" x="523.76" font-family="Arial" text-anchor="middle" />
<text id="text32" font-size="129.23" line-height="125%" y="-29.901" x="239.33" font-family="Gentium Book Basic" word-spacing="0" letter-spacing="0">
<tspan id="tspan34" y="-29.901" x="239.33" />
</text>
<text id="text36" font-size="46.954" transform="scale(4.0128 .2492)" y="-469.14" x="256.72" font-family="Arial" text-anchor="middle" />
<text id="text38" font-size="129.23" line-height="125%" y="-246.37" x="1337.38" font-family="Gentium Book Basic" word-spacing="0" letter-spacing="0">
<tspan id="tspan40" y="-246.37" x="1337.38" />
</text>
<text id="text42" font-size="46.954" transform="scale(4.0128 .2492)" y="-1337.81" x="530.36" font-family="Arial" text-anchor="middle" />
<text id="text44" font-size="129.23" line-height="125%" y="-326.38" x="1918.65" font-family="Gentium Book Basic" word-spacing="0" letter-spacing="0">
<tspan id="tspan46" y="-326.38" x="1918.65" />
</text>
<text id="text48" font-size="46.954" transform="scale(4.0128 .2492)" y="-1658.85" x="675.21" font-family="Arial" text-anchor="middle" />
<text id="text50" font-size="129.23" line-height="125%" y="-798.78" x="1529.53" font-family="Gentium Book Basic" word-spacing="0" letter-spacing="0">
<tspan id="tspan52" y="-798.78" x="1529.53" />
</text>
<text id="text54" font-size="46.954" transform="scale(4.0128 .2492)" y="-3554.51" x="578.24" font-family="Arial" text-anchor="middle" />
<text id="text56" font-size="129.23" line-height="125%" y="-878.78" x="2110.79" font-family="Gentium Book Basic" word-spacing="0" letter-spacing="0">
<tspan id="tspan58" y="-878.78" x="2110.79" />
</text>
<text id="text60" font-size="46.954" transform="scale(4.0128 .2492)" y="-3875.54" x="723.09" font-family="Arial" text-anchor="middle" />
<g id="g62" font-family="Gentium Book Basic" font-size="208.33" word-spacing="0" letter-spacing="0">
<text id="text64" y="535.94" x="277.99">
<tspan id="tspan66" y="535.94" x="277.99" />
</text>
<text id="text68" y="341.41" x="-1984.3">
<tspan id="tspan70" y="341.41" x="-1984.3" />
</text>
</g>
<text id="text72" font-size="75.7" transform="scale(4.0128 .2492)" y="807.13" x="-176.76" font-family="Arial" text-anchor="middle" />
<g id="g74" transform="matrix(1.3542068,0,0,1.3542068,-703.50332,-119.7924)" style="fill:#009688;fill-rule:evenodd">
<path id="path76" d="m 595.04,281.47 0,42.163 c 0,62.68 50.801,113.48 113.48,113.48 62.68,0 113.5,-50.801 113.5,-113.48 l 0,-42.163 -226.98,0" inkscape:connector-curvature="0" />
<path id="path78" d="m 691.96,117.89 c -54.827,8.01 -96.91,55.21 -96.91,112.27 l 0,42.163 96.91,0 0,-41.998 c -5.801,-3.7 -9.649,-10.162 -9.649,-17.581 l 0,-47.962 c 0,-7.419 3.848,-13.91 9.649,-17.609 l 0,-29.28 m 33.14,0 0,29.26 c 5.819,3.696 9.677,10.204 9.677,17.638 l 0,47.962 c 0,7.433 -3.857,13.913 -9.677,17.609 l 0,41.97 96.94,0 0,-42.163 c 0,-57.04 -42.12,-104.24 -96.94,-112.27" inkscape:connector-curvature="0" />
<rect id="rect80" rx="13.464" height="52.400002" width="30.65" y="162.56" x="693.21997" />
</g>
</svg>
