<?xml version="1.0" encoding="UTF-8" standalone="no"?>
<svg
   xmlns:dc="http://purl.org/dc/elements/1.1/"
   xmlns:cc="http://creativecommons.org/ns#"
   xmlns:rdf="http://www.w3.org/1999/02/22-rdf-syntax-ns#"
   xmlns:svg="http://www.w3.org/2000/svg"
   xmlns="http://www.w3.org/2000/svg"
   xmlns:sodipodi="http://sodipodi.sourceforge.net/DTD/sodipodi-0.dtd"
   xmlns:inkscape="http://www.inkscape.org/namespaces/inkscape"
   height="512"
   viewBox="0 0 512 512"
   width="512"
   version="1.1"
   id="svg2"
   inkscape:version="0.91 r13725"
   sodipodi:docname="mousepad.svg">
  <defs
     id="defs15" />
  <sodipodi:namedview
     pagecolor="#7d7f7b"
     bordercolor="#666666"
     borderopacity="1"
     objecttolerance="10"
     gridtolerance="10"
     guidetolerance="10"
     inkscape:pageopacity="0"
     inkscape:pageshadow="2"
     inkscape:window-width="1680"
     inkscape:window-height="991"
     id="namedview13"
     showgrid="false"
     inkscape:zoom="1.5268555"
     inkscape:cx="276.10075"
     inkscape:cy="291.40519"
     inkscape:window-x="0"
     inkscape:window-y="0"
     inkscape:window-maximized="1"
     inkscape:current-layer="svg2" />
  <metadata
     id="metadata72">
    <rdf:RDF>
      <cc:Work
         rdf:about="">
        <dc:format>image/svg+xml</dc:format>
        <dc:type
           rdf:resource="http://purl.org/dc/dcmitype/StillImage" />
        <dc:title></dc:title>
      </cc:Work>
    </rdf:RDF>
  </metadata>
  <path
     style="fill:#009688;fill-rule:evenodd;stroke:#009688;stroke-width:3.0505662;stroke-opacity:1"
     inkscape:connector-curvature="0"
     d="m 345.31296,219.03479 c -1.47991,0.0497 -3.09918,0.40293 -4.89452,1.11372 -14.151,5.26719 -2.60335,36.65216 -1.6884,40.71166 0.84474,3.73651 -6.31825,3.32819 -7.66314,1.6884 -3.00196,-3.6663 -12.91738,-36.39399 -24.60869,-30.54887 -16.39788,9.04043 -0.98301,37.26357 -4.25395,38.17529 -6.0752,3.39516 -5.69604,11.7086 -10.56571,18.46111 -8.03043,11.50876 -68.14084,-5.44435 -87.56336,-6.6164 -14.22013,-0.83934 -27.81481,10.8671 -29.0992,9.38503 -17.31607,-17.33768 -54.24046,-42.89935 -92.359574,-57.5546 -15.673572,-5.12363 -47.301266,-19.91753 -28.045524,-9.99107 7.008887,3.51003 13.150462,6.47381 28.120783,14.96131 23.934815,11.33843 89.442955,54.67255 85.370485,61.00053 -12.20226,17.18644 -20.09838,39.49306 -15.13149,74.6988 0.89551,6.19727 -18.38549,16.94555 -16.98011,26.29709 1.17204,7.11547 21.53868,-7.05065 23.76503,-4.25394 1.36217,5.0209 -10.88871,30.45165 -5.94126,32.27184 3.62201,1.0759 35.48552,-30.22913 37.33595,-29.7063 52.51209,15.87505 120.8128,3.91259 122.13068,3.4092 -0.12422,-0.27545 49.18715,23.15795 53.47133,20.35584 10.80229,-11.70104 -20.50814,-28.18317 -15.29172,-34.77257 2.28685,-3.44917 38.09968,12.9163 39.86693,8.43983 2.5677,-7.74956 -16.62364,-23.97028 -19.50893,-28.79458 -2.51154,-4.44515 -3.03221,-11.67836 3.4092,-16.16995 6.44356,-4.49159 72.33645,-29.64796 69.57754,-49.15041 -4.77677,-35.43583 -83.59891,-37.79613 -84.86278,-40.77865 -0.55092,-1.29195 2.88421,-43.21995 -14.58309,-42.63555 z m 82.06391,23.49498 c -1.3114,0.56604 -6.60884,27.82129 -4.05086,29.06464 2.2674,1.69596 6.18863,-27.52315 4.11891,-29.03115 -0.0335,-0.0389 -0.0248,-0.0519 -0.0681,-0.0335 z m 19.44412,3.71383 c -2.97387,-0.054 -18.84351,25.27951 -15.18802,27.98441 2.2674,1.69596 16.39895,-26.9582 15.42675,-27.91744 -0.0681,-0.0562 -0.14043,-0.0659 -0.23657,-0.068 z"
     id="path10"
     sodipodi:nodetypes="ccccccccccccccccccccccccccccccccccccc" />
  <g
     id="g4172"
     transform="matrix(1.4754342,0.56322386,-0.56322386,1.4754342,-19.848458,-165.18445)">
    <path
       inkscape:connector-curvature="0"
       d="m 233.26664,82.196556 -57.65575,57.655754 -7.08672,7.08672 -1.80328,1.80328 -14.38391,45.08484 a 5.8685216,6.5382457 45 0 0 1.88803,6.49364 5.8685216,6.5382457 45 0 0 5.26618,0.71119 l 45.7191,-14.42967 1.48987,-1.48986 6.88597,-6.88598 57.86165,-57.86164 -38.17542,-38.175424 m -38.09935,76.758044 a 1.637707,1.637707 0 0 1 0.55879,1.30388 l -0.63483,13.65642 2.49759,2.4976 a 1.637707,1.637707 0 0 1 -0.73658,2.73471 l -21.56443,5.76501 a 1.637707,1.637707 0 0 1 -1.58326,-0.41486 l -4.18249,-4.18249 a 1.637707,1.637707 0 0 1 -0.42332,-1.60865 l 6.2906,-22.15694 a 1.637707,1.637707 0 0 1 2.73472,-0.71966 l 3.3612,3.36121 12.52173,-0.63484 a 1.637707,1.637707 0 0 1 1.15992,0.39793"
       id="path22"
       style="fill:#009688;fill-rule:evenodd" />
    <path
       inkscape:connector-curvature="0"
       d="m 267.87954,51.135309 c -2.18075,-0.04804 -4.04351,0.532462 -5.36466,1.810714 l -0.0675,0.06749 -8.93575,8.952341 38.17942,38.179416 8.81737,-8.833951 0.13554,-0.11839 c 0.02,-0.02 0.0309,-0.0475 0.0509,-0.0675 4.14989,-4.27457 0.97857,-14.20147 -7.15878,-22.33939 l -8.66466,-8.664663 c -5.62145,-5.62145 -12.11337,-8.879134 -16.99132,-8.986084"
       id="path24"
       style="fill:#009688;fill-rule:evenodd" />
    <path
       inkscape:connector-curvature="0"
       d="m 248.55991,66.908998 38.18,38.179992 -9.45507,9.45507 -38.17999,-38.179994 z"
       id="path26"
       style="fill:#009688;fill-rule:evenodd" />
  </g>
</svg>
