<?xml version="1.0" encoding="UTF-8" standalone="no"?>
<svg
   xmlns:dc="http://purl.org/dc/elements/1.1/"
   xmlns:cc="http://creativecommons.org/ns#"
   xmlns:rdf="http://www.w3.org/1999/02/22-rdf-syntax-ns#"
   xmlns:svg="http://www.w3.org/2000/svg"
   xmlns="http://www.w3.org/2000/svg"
   xmlns:sodipodi="http://sodipodi.sourceforge.net/DTD/sodipodi-0.dtd"
   xmlns:inkscape="http://www.inkscape.org/namespaces/inkscape"
   height="512"
   viewBox="0 0 512 512"
   width="512"
   version="1.1"
   id="svg2"
   inkscape:version="0.91 r"
   sodipodi:docname="beatbox.svg">
  <defs
     id="defs16" />
  <sodipodi:namedview
     pagecolor="#ffffff"
     bordercolor="#666666"
     borderopacity="1"
     objecttolerance="10"
     gridtolerance="10"
     guidetolerance="10"
     inkscape:pageopacity="0"
     inkscape:pageshadow="2"
     inkscape:window-width="1920"
     inkscape:window-height="1028"
     id="namedview14"
     showgrid="false"
     inkscape:zoom="0.4609375"
     inkscape:cx="-299.38983"
     inkscape:cy="256"
     inkscape:window-x="0"
     inkscape:window-y="0"
     inkscape:window-maximized="1"
     inkscape:current-layer="svg2" />
  <metadata
     id="metadata72">
    <rdf:RDF>
      <cc:Work
         rdf:about="">
        <dc:format>image/svg+xml</dc:format>
        <dc:type
           rdf:resource="http://purl.org/dc/dcmitype/StillImage" />
      </cc:Work>
    </rdf:RDF>
  </metadata>
  <path
     id="path66"
     fill="#009688"
     d="m182.34 113.41c-11.805 0-21.406 9.594-21.406 21.406v242.38c0 11.813 9.601 21.406 21.406 21.406h147.31c11.82 0 21.406-9.594 21.406-21.406v-242.37c0-11.813-9.579-21.406-21.406-21.406h-147.31m73.66 27.94c20.645 0 37.438 16.792 37.438 37.438 0 20.638-16.792 37.41-37.438 37.41-20.652 0-37.438-16.768-37.438-37.41 0-20.645 16.792-37.438 37.438-37.438m0 21.375c-8.854 0-16.06 7.216-16.06 16.06 0 8.847 7.208 16.03 16.06 16.03 8.84 0 16.06-7.184 16.06-16.03 0-8.847-7.223-16.06-16.06-16.06m0 90.31c32.429 0 58.813 26.376 58.813 58.813 0 32.429-26.383 58.813-58.813 58.813-32.429 0-58.813-26.383-58.813-58.813 0-32.437 26.383-58.813 58.813-58.813m0 21.375c-20.645 0-37.41 16.792-37.41 37.438 0 20.638 16.761 37.438 37.41 37.438 20.645 0 37.438-16.799 37.438-37.438 0-20.645-16.799-37.438-37.438-37.438" />
</svg>
