<?xml version="1.0" encoding="UTF-8" standalone="no"?>
<svg
   xmlns:dc="http://purl.org/dc/elements/1.1/"
   xmlns:cc="http://creativecommons.org/ns#"
   xmlns:rdf="http://www.w3.org/1999/02/22-rdf-syntax-ns#"
   xmlns:svg="http://www.w3.org/2000/svg"
   xmlns="http://www.w3.org/2000/svg"
   xmlns:sodipodi="http://sodipodi.sourceforge.net/DTD/sodipodi-0.dtd"
   xmlns:inkscape="http://www.inkscape.org/namespaces/inkscape"
   sodipodi:docname="multitasking-view.svg"
   inkscape:version="0.91 r13725"
   id="svg2"
   version="1.1"
   width="512"
   viewBox="0 0 512 512"
   height="512">
  <defs
     id="defs17" />
  <sodipodi:namedview
     inkscape:current-layer="svg2"
     inkscape:window-maximized="1"
     inkscape:window-y="0"
     inkscape:window-x="1920"
     inkscape:cy="306.39132"
     inkscape:cx="210.1965"
     inkscape:zoom="1.5070222"
     showgrid="false"
     id="namedview15"
     inkscape:window-height="1021"
     inkscape:window-width="1680"
     inkscape:pageshadow="2"
     inkscape:pageopacity="0"
     guidetolerance="10"
     gridtolerance="10"
     objecttolerance="10"
     borderopacity="1"
     bordercolor="#666666"
     pagecolor="#ffffff" />
  <metadata
     id="metadata28">
    <rdf:RDF>
      <cc:Work
         rdf:about="">
        <dc:format>image/svg+xml</dc:format>
        <dc:type
           rdf:resource="http://purl.org/dc/dcmitype/StillImage" />
        <dc:title></dc:title>
      </cc:Work>
    </rdf:RDF>
  </metadata>
  <g
     transform="matrix(15.241024,0,0,15.241024,-104.34185,-111.24592)"
     id="g39"
     style="fill:#009688">
    <path
       inkscape:connector-curvature="0"
       d="m 24,11 c 0.734,0 1,0.266 1,1 l 0,1 c -1,1 -13,1 -14,0 l 0,-1 c 0,-0.734 0.27,-1 1,-1"
       style="fill:#009688;fill-opacity:1;fill-rule:nonzero;stroke:none"
       id="path45" />
    <path
       inkscape:connector-curvature="0"
       d="m 36,13 c 0.727,0 1,0.266 1,1 l 0,1 c -1,1 -9,1 -10,0 l 0,-1 c 0,-0.734 0.278,-1 1,-1"
       style="fill:#009688;fill-opacity:1;fill-rule:nonzero;stroke:none"
       id="path47" />
    <path
       inkscape:connector-curvature="0"
       d="m 25,13 0,8 c 0,0.734 -0.266,1 -1,1 l -12,0 c -0.73,0 -1,-0.266 -1,-1 l 0,-8"
       style="fill:#009688;fill-opacity:1;fill-rule:nonzero;stroke:none"
       id="path49" />
    <path
       inkscape:connector-curvature="0"
       d="m 37,15 0,9 c 0,0.734 -0.274,1 -1,1 l -8,0 c -0.727,0 -1,-0.266 -1,-1 l 0,-9"
       style="fill:#009688;fill-opacity:1;fill-rule:nonzero;stroke:none"
       id="path51" />
    <path
       inkscape:connector-curvature="0"
       d="m 35.007088,28 c 0.950189,0 1.294535,0.266 1.294535,1 l 0,1 C 35.007088,31 14.294535,31 13,30 l 0,-1 c 0,-0.734 0.349524,-1 1.294535,-1"
       style="fill:#009688;fill-opacity:1;fill-rule:nonzero;stroke:none"
       id="path53" />
    <path
       inkscape:connector-curvature="0"
       d="m 36.301623,30 0,6 c 0,0.734 -0.344346,1 -1.294535,1 L 14.294535,37 C 13.349524,37 13,36.734 13,36 l 0,-6"
       style="fill:#009688;fill-opacity:1;fill-rule:nonzero;stroke:none"
       id="path55" />
  </g>
</svg>
