<?xml version="1.0" encoding="UTF-8" standalone="no"?>
<svg
   xmlns:dc="http://purl.org/dc/elements/1.1/"
   xmlns:cc="http://creativecommons.org/ns#"
   xmlns:rdf="http://www.w3.org/1999/02/22-rdf-syntax-ns#"
   xmlns:svg="http://www.w3.org/2000/svg"
   xmlns="http://www.w3.org/2000/svg"
   xmlns:sodipodi="http://sodipodi.sourceforge.net/DTD/sodipodi-0.dtd"
   xmlns:inkscape="http://www.inkscape.org/namespaces/inkscape"
   height="512"
   viewBox="0 0 512 512"
   width="512"
   version="1.1"
   id="svg2"
   inkscape:version="0.91 r"
   sodipodi:docname="ninja-ide.svg">
  <defs
     id="defs16" />
  <sodipodi:namedview
     pagecolor="#ffffff"
     bordercolor="#666666"
     borderopacity="1"
     objecttolerance="10"
     gridtolerance="10"
     guidetolerance="10"
     inkscape:pageopacity="0"
     inkscape:pageshadow="2"
     inkscape:window-width="640"
     inkscape:window-height="480"
     id="namedview14"
     showgrid="false"
     inkscape:zoom="0.4609375"
     inkscape:cx="256"
     inkscape:cy="256"
     inkscape:window-x="0"
     inkscape:window-y="0"
     inkscape:window-maximized="0"
     inkscape:current-layer="svg2" />
  <metadata
     id="metadata72">
    <rdf:RDF>
      <cc:Work
         rdf:about="">
        <dc:format>image/svg+xml</dc:format>
        <dc:type
           rdf:resource="http://purl.org/dc/dcmitype/StillImage" />
      </cc:Work>
    </rdf:RDF>
  </metadata>
  <path
     id="path8"
     fill="#009688"
     d="m254.29 115.21c-11.526 0.054-22.527 1.034-32.21 2.747-19.289 3.408-27.873 9.346-31.427 18.839-0.729 1.946-1.246 4.02-1.598 6.28-0.234 1.498-0.401 3.097-0.505 4.738-0.052 0.822-0.088 1.665-0.112 2.523-0.025 0.878-0.056 1.746-0.056 2.663v25.68h67.42v8.579h-92.736c-19.594 0-36.742 11.77-42.11 34.17-6.19 25.68-6.465 41.703 0 68.52 4.792 19.96 16.235 34.17 35.829 34.17h23.18v-30.782c0-22.253 19.245-41.884 42.11-41.884h67.34c18.745 0 33.726-15.433 33.726-34.26v-47.35h0.028v-6.112c1.993-0.703 4.341-1.578 5.803-3.168 2.107 2.02 3.78 3.432 6.756 4.093 7.294-0.149 10.173-1.734 12.504-8.467 0.598-3.058 1.105-5.878-4.57-5.971 0 0 0.645-9.143 0.645-9.588 0.358-3.291-0.746-6.132-3.869-4.177-3.744 1.943-6.837 6.068-9.98 9.812-3.24-4.562-4.716-5.895-9.672-5.411 0 0-0.051 0.079-0.056 0.084-0.219-0.526-0.455-1.057-0.701-1.57-0.094-0.196-0.183-0.395-0.28-0.589-0.163-0.322-0.332-0.637-0.505-0.953-0.082-0.151-0.168-0.299-0.252-0.449-0.199-0.35-0.405-0.694-0.617-1.037-0.253-0.41-0.515-0.807-0.785-1.206-0.057-0.084-0.111-0.169-0.168-0.252-6.111-8.856-16.485-15.01-28.01-16.933-11.582-1.928-23.602-2.801-35.13-2.747m-27.474 24.811c2.22 2.319 3.617 5.396 3.617 8.859 0 0.862-0.064 1.709-0.224 2.523-0.005 0.028-0.022 0.056-0.028 0.084-0.086 0.42-0.211 0.83-0.336 1.234s-0.258 0.792-0.421 1.177c-0.141 0.323-0.283 0.645-0.449 0.953-0.029 0.056-0.054 0.113-0.084 0.168-0.006 0.011-0.022 0.017-0.028 0.028-0.165 0.294-0.346 0.59-0.533 0.869-0.143 0.221-0.292 0.434-0.449 0.645-0.129 0.174-0.255 0.366-0.392 0.533-0.192 0.233-0.409 0.454-0.617 0.673-0.073 0.077-0.149 0.149-0.224 0.224-0.111 0.111-0.222 0.229-0.336 0.336-0.083 0.077-0.167 0.149-0.252 0.224-0.307 0.272-0.622 0.543-0.953 0.785-0.117 0.085-0.244 0.171-0.364 0.252-0.31 0.209-0.653 0.407-0.981 0.589-0.03 0.016-0.054 0.04-0.084 0.056-0.202 0.11-0.408 0.209-0.617 0.308-0.168 0.08-0.333 0.152-0.505 0.224-0.074 0.031-0.15 0.054-0.224 0.084-0.315 0.126-0.627 0.235-0.953 0.336-0.184 0.057-0.373 0.119-0.561 0.168-0.223 0.058-0.445 0.122-0.673 0.168-0.038 0.008-0.074 0.021-0.112 0.028-0.265 0.052-0.542 0.077-0.813 0.112-0.228 0.029-0.469 0.067-0.701 0.084-0.046 0.004-0.094-0.003-0.14 0-0.28 0.018-0.557 0.028-0.841 0.028-4.052 0-7.613-1.875-9.98-4.794 0.127-0.11 0.238-0.199 0.364-0.308 7.304-6.312 13.974-12.207 18.896-16.653m105.21 47.856v30.782c0 22.253-19.245 41.884-42.11 41.884h-67.34c-18.745 0-33.726 15.433-33.726 34.26v47.35h-0.028v6.112c-1.993 0.703-4.341 1.578-5.803 3.168-2.107-2.02-3.78-3.432-6.756-4.093-7.294 0.149-10.173 1.734-12.504 8.467-0.598 3.058-1.105 5.878 4.57 5.971 0 0-0.645 9.143-0.645 9.588-0.358 3.291 0.746 6.132 3.869 4.177 3.744-1.943 6.837-6.068 9.98-9.812 3.24 4.562 4.688 5.895 9.644 5.411l0.084-0.084c0.392 0.943 0.839 1.877 1.318 2.775 0.1 0.188 0.205 0.374 0.308 0.561 0.041 0.073 0.071 0.151 0.112 0.224 0.199 0.351 0.405 0.694 0.617 1.037 0.253 0.41 0.515 0.807 0.785 1.205 0.056 0.083 0.111 0.17 0.168 0.252 6.111 8.856 16.485 15.01 28.01 16.933 11.582 1.928 23.574 2.801 35.1 2.747s22.555-1.034 32.24-2.747c28.53-5.04 33.698-15.588 33.698-35.04v-25.68h-67.42v-8.579h92.735c19.594 0 36.742-11.77 42.11-34.17 6.19-25.68 6.465-41.703 0-68.52-4.793-19.96-16.235-34.17-35.829-34.17h-23.18m-37.567 162.35c4.052 0 7.613 1.875 9.98 4.794-0.127 0.11-0.238 0.199-0.364 0.308-7.304 6.312-13.974 12.207-18.896 16.653-2.22-2.319-3.617-5.396-3.617-8.859 0-0.862 0.064-1.709 0.224-2.523 0.006-0.029 0.022-0.055 0.028-0.084 0.244-1.197 0.655-2.314 1.205-3.364 0.01-0.019 0.018-0.038 0.028-0.056 0.055-0.104 0.11-0.206 0.168-0.308 0.157-0.278 0.328-0.548 0.505-0.813 0.019-0.028 0.037-0.056 0.056-0.084 0.17-0.251 0.346-0.491 0.533-0.729 0.044-0.056 0.095-0.113 0.14-0.168 0.021-0.026 0.035-0.059 0.056-0.084 0.347-0.421 0.724-0.804 1.121-1.177 0.2-0.188 0.405-0.386 0.617-0.561 0.01-0.008 0.018-0.02 0.028-0.028 0.258-0.212 0.511-0.397 0.785-0.589 0.427-0.3 0.883-0.566 1.346-0.813 0.011-0.006 0.017-0.022 0.028-0.028 0.516-0.273 1.044-0.498 1.598-0.701 0.193-0.07 0.391-0.135 0.589-0.196 0.084-0.026 0.168-0.06 0.252-0.084 0.284-0.082 0.577-0.162 0.869-0.224s0.598-0.098 0.897-0.14c0.598-0.085 1.2-0.14 1.822-0.14" />
</svg>
