<?xml version="1.0" encoding="UTF-8" standalone="no"?>
<svg
   xmlns:dc="http://purl.org/dc/elements/1.1/"
   xmlns:cc="http://creativecommons.org/ns#"
   xmlns:rdf="http://www.w3.org/1999/02/22-rdf-syntax-ns#"
   xmlns:svg="http://www.w3.org/2000/svg"
   xmlns="http://www.w3.org/2000/svg"
   xmlns:sodipodi="http://sodipodi.sourceforge.net/DTD/sodipodi-0.dtd"
   xmlns:inkscape="http://www.inkscape.org/namespaces/inkscape"
   viewBox="0 0 512 512"
   version="1.1"
   id="svg2"
   inkscape:version="0.91 r"
   sodipodi:docname="omgchrome.svg">
  <defs
     id="defs19" />
  <sodipodi:namedview
     pagecolor="#ffffff"
     bordercolor="#666666"
     borderopacity="1"
     objecttolerance="10"
     gridtolerance="10"
     guidetolerance="10"
     inkscape:pageopacity="0"
     inkscape:pageshadow="2"
     inkscape:window-width="647"
     inkscape:window-height="480"
     id="namedview17"
     showgrid="false"
     inkscape:zoom="0.4609375"
     inkscape:cx="256"
     inkscape:cy="256"
     inkscape:window-x="0"
     inkscape:window-y="0"
     inkscape:window-maximized="0"
     inkscape:current-layer="svg2" />
  <metadata
     id="metadata1856">
    <rdf:RDF>
      <cc:Work
         rdf:about="">
        <dc:format>image/svg+xml</dc:format>
        <dc:type
           rdf:resource="http://purl.org/dc/dcmitype/StillImage" />
      </cc:Work>
    </rdf:RDF>
  </metadata>
  <path
     id="path1688"
     fill="#009688"
     d="m1209.5 987.72v-889.05h-37.294v503.33c0 49.76-7.2481 97.037-22.092 141.58-14.844 45.247-37.294 84.891-66.992 119.75-28.636 33.496-64.519 60.806-108.08 81.488-43.132 19.705-93.596 29.341-150.51 29.341-41.092 0-80.068-5.8286-117.37-16.264-35.884-11.751-68.054-28.297-96.689-52.147-27.31-23.86-49.054-53.473-64.867-89.789-16.264-36.946-17.589-82.55-17.589-134.6l-36.589 5.8286v42.154c2.0306 35.526 5.2176 68.054 16.884 97.658 17.232 38.713 40.744 71.852 70.79 100.49 30.76 26.248 66.992 46.573 107.74 60.448 42.154 12.814 88.022 18.99 137.78 18.99 94.198 0 170.53-22.45 228.91-67.349 59.386-45.247 97.658-102.17 115.33-171.54h3.4502v219.89h36.946" />
  <path
     id="path1852"
     d="m411.25 176.14l-27.09 1.398 1.436 19.987 7.103 39.935 16.775-1.058 2.871-40.31-1.096-19.949m-64.61 1.927c-2.215 0.012-4.559 0.054-7.07 0.189-10.398 0.57-18.649 2.546-24.634 5.705-7.67 4.091-13.439 9.842-17.12 17.15-3.679 7.274-5.16 15.751-4.609 25.314 0.523 9.09 2.986 17.06 7.103 23.878 4.159 6.811 9.804 11.815 16.775 14.999 7.01 3.188 15.64 4.511 26.41 3.929 8.748-0.456 16.2-2.01 22.442-4.307 6.281-2.339 13.443-6.566 21.422-12.468l-2.154-37.1-43.15 2.154 1.058 18.17 18.551-0.718 0.718 8.199c-3.551 2.312-6.838 3.961-9.634 4.987-2.797 1.043-5.781 1.606-8.917 1.776-6.602 0.375-11.732-1.461-15.679-5.327-3.906-3.869-6.255-10.502-6.801-19.987-0.514-8.927 0.912-15.687 4.307-19.987 3.434-4.343 8.096-6.434 14.244-6.763 4.126-0.228 7.61 0.158 10.352 1.776 2.783 1.613 5.118 4.234 6.423 7.481l26.75-6.05c-1.976-5.572-4.687-10.08-8.199-13.564-3.473-3.534-7.752-6.335-12.846-7.821-3.789-1.136-9.109-1.662-15.755-1.625m-58.45 4.496l-36.724 2.116-11.07 54.22-17.455-52.781-36.762 2.154 5.02 87.73 22.82-1.436-3.589-66.68 21.422 65.63 20.667-1.058 13.942-67.781 3.892 67.06 22.858-1.398-5.02-87.77m-147.35 6.65c-0.919 0.018-1.852 0.063-2.796 0.113-14.731 0.798-26.1 5.489-33.89 13.904-7.794 8.416-11.176 19.582-10.352 33.89 0.59 10.241 3.299 18.721 7.859 25.314 4.56 6.59 10.249 11.11 17.12 13.904 6.907 2.784 15.459 4.135 25.692 3.589 10.07-0.554 18.08-2.814 24.596-6.801 6.556-4.03 11.449-9.669 14.622-16.397 3.211-6.767 4.519-15.07 3.929-25.314-0.812-14.11-5.284-24.745-13.904-32.11-8.08-6.951-19.08-10.357-32.87-10.09m0.416 20.402c4.906 0.163 8.939 1.85 12.13 5.02 3.684 3.599 5.948 9.583 6.423 17.833 0.564 9.806-0.846 16.744-3.929 20.704-3.083 3.967-7.539 6.102-13.564 6.423-5.859 0.31-10.597-1.314-14.244-4.987-3.606-3.685-5.574-10.08-6.083-18.929-0.514-8.927 0.727-15.184 3.929-19.231 3.202-4.052 7.533-6.491 13.186-6.801 0.738-0.039 1.453-0.061 2.154-0.038m272.86 32.87l-24.974 1.058 1.058 21.725 25.352-1.398-1.436-21.385m2.305 28.828l-14.886 0.68 0.491 11.486 3.892 22.782 9.257-0.378 1.738-23.12-0.491-11.448m-15.453 0.718l-41.522 1.965 2.342 50.17 42.32-2-0.567-11.372-26.75 1.247-0.453-9.899 24.14-1.133-0.529-10.201-24.1 1.133-0.378-8.01 26.03-1.209-0.529-10.692m-43.638 2.078l-20.327 0.907-6.423 30.906-9.294-30.15-20.402 0.945 2.38 50.17 12.657-0.567-1.776-38.27 11.599 37.82 11.448-0.605 8.05-38.726 1.776 38.27 12.657-0.605-2.342-50.1m-77.23 2.947v0.264c-1.861-0.195-3.844-0.254-5.932-0.189-8.144 0.391-14.392 2.97-18.74 7.745-2.128 2.339-3.653 5.117-4.647 8.274-0.001 0 0.001-0.026 0-0.189-0.15-3.193-1.065-5.833-2.72-7.972-1.656-2.162-3.776-3.605-6.347-4.307-2.571-0.701-6.242-0.967-11.03-0.756l-25.805 1.247 2.342 50.14 15.566-0.756-0.945-20.364 1.36-0.151c1.415 0 2.7 0.249 3.854 0.982 0.849 0.554 1.842 1.805 2.985 3.74l8.992 14.924 17.531-0.831-8.161-14.168c-0.399-0.733-1.184-1.727-2.342-3.02-1.135-1.287-2.02-2.112-2.607-2.494-0.873-0.586-2.241-1.13-4.118-1.662 2.28-0.619 4.08-1.397 5.365-2.267 2.02-1.352 3.555-3.036 4.647-5.101 0.112-0.212 0.165-0.474 0.264-0.718-0.112 1.499-0.191 3.01-0.113 4.647 0.276 5.862 1.668 10.716 4.156 14.508 2.488 3.793 5.589 6.496 9.37 8.123 3.803 1.629 8.548 2.309 14.206 2.04 5.566-0.261 10.132-1.525 13.753-3.778 3.643-2.274 6.375-5.31 8.161-9.143 1.808-3.859 2.58-8.721 2.305-14.584-0.38-8.07-2.942-14.218-7.67-18.475-3.546-3.213-8.094-5.125-13.677-5.705m-78.13 4.345l-15.566 0.718 0.831 17.569-16.926 0.793-0.831-17.569-15.491 0.756 1.587 33.739-13.639-3.438c-0.535 3.203-1.535 5.667-2.985 7.405-1.427 1.737-3.608 2.656-6.574 2.796-3.057 0.163-5.469-0.736-7.254-2.72-1.786-1.997-2.799-5.807-3.06-11.372-0.211-4.496 0.309-7.809 1.625-9.974 1.738-2.911 4.383-4.44 7.896-4.609 1.551-0.163 2.947 0.169 4.232 0.756 1.285 0.586 2.402 1.411 3.325 2.569 0.558 0.684 1.112 1.782 1.662 3.287l13.564-3.703c-2.01-5.21-4.905-8.989-8.652-11.372-3.725-2.383-8.756-3.429-15.07-3.136-8.08 0.375-14.184 2.915-18.4 7.594-4.194 4.654-6.133 11.12-5.743 19.42 0.293 6.23 1.799 11.314 4.496 15.188 2.697 3.872 5.812 6.499 9.332 7.934 3.542 1.401 8.04 2.028 13.488 1.776 4.494-0.212 8.158-1.075 10.995-2.494 2.859-1.434 5.186-3.473 7.03-6.121 1.762-2.532 3.03-5.66 3.778-9.294l0.718 15.944 15.528-0.756-0.982-20.327 16.964-0.793 0.945 20.289 15.566-0.718-2.38-50.14m73.901 7.405c2.712 0.107 4.941 1.108 6.687 2.947 2.02 2.077 3.141 5.442 3.363 10.163 0.264 5.611-0.468 9.571-2.191 11.826-1.723 2.253-4.226 3.471-7.556 3.627-3.24 0.163-5.861-0.86-7.859-2.985-1.975-2.126-3.087-5.703-3.325-10.768-0.24-5.109 0.553-8.844 2.342-11.146 1.79-2.305 4.242-3.482 7.367-3.627 0.408-0.02 0.784-0.053 1.171-0.038m-46.21 1.511c1.789 0.072 3.091 0.423 3.892 1.058 1.067 0.815 1.662 2.046 1.738 3.665 0.052 1.091-0.247 2.113-0.869 2.985-0.599 0.88-1.401 1.413-2.418 1.662-2.01 0.521-3.372 0.825-4.08 0.907l-6.536 0.302-0.491-10.201 6.801-0.302v-0.038c0.707-0.041 1.368-0.062 1.965-0.038m188.04 18.891l-13.904 0.68 0.605 12.279 13.904-0.642-0.605-12.317"
     fill="#009688" />
</svg>
