<?xml version="1.0" encoding="UTF-8" standalone="no"?>
<svg xmlns:dc="http://purl.org/dc/elements/1.1/" xmlns:cc="http://creativecommons.org/ns#" xmlns:rdf="http://www.w3.org/1999/02/22-rdf-syntax-ns#" xmlns:svg="http://www.w3.org/2000/svg" xmlns="http://www.w3.org/2000/svg" xmlns:sodipodi="http://sodipodi.sourceforge.net/DTD/sodipodi-0.dtd" xmlns:inkscape="http://www.inkscape.org/namespaces/inkscape" height="512" viewBox="0 0 512 512" width="512" version="1.1" id="svg2" inkscape:version="0.91 r" sodipodi:docname="totem.svg">
<defs id="defs17" />
<sodipodi:namedview pagecolor="#ffffff" bordercolor="#666666" borderopacity="1" objecttolerance="10" gridtolerance="10" guidetolerance="10" inkscape:pageopacity="0" inkscape:pageshadow="2" inkscape:window-width="1680" inkscape:window-height="994" id="namedview15" showgrid="false" inkscape:zoom="1.3037281" inkscape:cx="132.08327" inkscape:cy="244.919" inkscape:window-x="0" inkscape:window-y="0" inkscape:window-maximized="1" inkscape:current-layer="svg2" />
<metadata id="metadata28">
<rdf:RDF>
<cc:Work rdf:about="">
<dc:format>image/svg+xml</dc:format>
<dc:type rdf:resource="http://purl.org/dc/dcmitype/StillImage" />
<dc:title />
</cc:Work>
</rdf:RDF>
</metadata>
<g transform="matrix(1.5452899,0,0,1.5452899,-142.72517,-139.26252)" style="fill:#009688" id="g1018">
<path inkscape:connector-curvature="0" d="m 144,128 c -8.844,0 -16,7.164 -16,16 l 0,43.844 256,0 0,-43.844 c 0,-8.836 -7.156,-16 -16,-16 l -224,0 m 0,13.906 16,0 16,32 -32,0 0,-32 m 48,0 32,0 16,32 -32,0 -16,-32 m 64,0 32,0 16,32 -32,0 -16,-32 m 64,0 32,0 16,16 0,16 -32,0 -16,-32" id="path1020" />
<path inkscape:connector-curvature="0" d="m 128,205.63 0,162.38 c 0,8.844 7.156,16 16,16 l 224,0 c 8.844,0 16,-7.156 16,-16 l 0,-162.37 -256,0 m 88.78,40.09 c 1.711,0.043 3.563,0.547 5.531,1.531 l 83.38,41.688 c 7.875,3.938 7.875,10.375 0,14.313 l -83.37,41.688 c -7.875,3.938 -14.313,-0.047 -14.313,-8.844 l 0,-80 c 0,-6.598 3.648,-10.503 8.781,-10.375" id="path1022" />
</g>
</svg>
