<?xml version="1.0" encoding="UTF-8" standalone="no"?>
<svg
   xmlns:dc="http://purl.org/dc/elements/1.1/"
   xmlns:cc="http://creativecommons.org/ns#"
   xmlns:rdf="http://www.w3.org/1999/02/22-rdf-syntax-ns#"
   xmlns:svg="http://www.w3.org/2000/svg"
   xmlns="http://www.w3.org/2000/svg"
   xmlns:sodipodi="http://sodipodi.sourceforge.net/DTD/sodipodi-0.dtd"
   xmlns:inkscape="http://www.inkscape.org/namespaces/inkscape"
   height="512"
   viewBox="0 0 512 512"
   width="512"
   version="1.1"
   id="svg2"
   inkscape:version="0.91 r13725"
   sodipodi:docname="gnome-tweak-tool.svg">
  <defs
     id="defs16" />
  <sodipodi:namedview
     pagecolor="#ffffff"
     bordercolor="#666666"
     borderopacity="1"
     objecttolerance="10"
     gridtolerance="10"
     guidetolerance="10"
     inkscape:pageopacity="0"
     inkscape:pageshadow="2"
     inkscape:window-width="1920"
     inkscape:window-height="1020"
     id="namedview14"
     showgrid="false"
     inkscape:zoom="1.5250549"
     inkscape:cx="218.0339"
     inkscape:cy="256"
     inkscape:window-x="0"
     inkscape:window-y="0"
     inkscape:window-maximized="1"
     inkscape:current-layer="svg2" />
  <metadata
     id="metadata72">
    <rdf:RDF>
      <cc:Work
         rdf:about="">
        <dc:format>image/svg+xml</dc:format>
        <dc:type
           rdf:resource="http://purl.org/dc/dcmitype/StillImage" />
      </cc:Work>
    </rdf:RDF>
  </metadata>
  <path
     inkscape:connector-curvature="0"
     d="m 150.98524,157.39108 c -51.062395,0 -92.165265,41.14436 -92.165265,92.20676 l 0,12.80432 c 0,51.0624 41.10537,92.20676 92.165265,92.20676 l 210.0295,0 c 51.06241,0 92.16529,-41.14436 92.16529,-92.20676 l 0,-12.80432 c 0,-51.0624 -41.10538,-92.20676 -92.16529,-92.20676 l -210.01728,0 -0.0125,0 z m 67.4545,14.53417 c 5.42305,0.14787 9.93943,2.07607 11.90403,5.88248 3.65312,7.06397 -1.25641,19.53873 -11.94795,30.88605 -9.89736,10.47212 -20.62961,15.62165 -26.51871,12.54081 -3.16225,-1.66622 -6.4642,-6.99963 -7.28538,-11.37214 -1.59125,-8.50555 4.34486,-23.7181 11.65516,-29.71978 5.96627,-4.88549 13.36145,-7.88566 19.81644,-8.1735 0.80689,-0.0512 1.60169,-0.0651 2.37641,-0.044 z m -55.12349,6.74618 c 5.47822,-0.002 8.6871,3.63078 9.61788,11.07448 1.13839,9.10902 -4.35501,22.71936 -10.20101,24.78398 -3.52916,1.22062 -3.59744,1.36112 -6.40948,0 -3.78175,-1.82536 -6.69222,-9.23908 -6.70471,-17.47663 -0.0346,-12.04411 4.71689,-18.38183 13.69732,-18.38183 z m 191.30121,4.91386 c 39.99946,0 72.41714,32.42024 72.41714,72.41471 0,39.99946 -32.42268,72.41471 -72.41714,72.41471 -39.99947,0 -72.41471,-32.42024 -72.41471,-72.41471 0,-39.99946 32.42024,-72.41471 72.41471,-72.41471 z m -225.91291,7.08775 c 4.68485,0.0196 8.98613,5.27171 10.71581,14.63179 1.20972,6.54704 0.0953,12.51867 -3.4963,16.31526 -3.31558,3.69601 -5.95671,3.44542 -9.61789,-0.3855 -4.89491,-5.16672 -6.67301,-9.12561 -6.70225,-16.34455 -0.0391,-6.1038 0.004,-7.83796 3.20597,-11.07203 1.58841,-1.57478 3.27257,-2.74234 4.95289,-2.90342 l 0,-0.17566 c 0.31507,-0.0456 0.62945,-0.0672 0.94177,-0.0658 z m -25.02308,21.99768 c 4.90117,-0.11342 9.69114,4.83243 11.55024,13.19959 2.78685,12.34433 -3.79526,19.11532 -11.94794,11.94061 -6.829835,-5.97015 -9.840745,-17.83304 -5.538455,-22.11234 1.63941,-1.64606 3.211965,-2.74927 4.955325,-2.93758 0.32689,-0.0531 0.65407,-0.0827 0.98083,-0.0903 z m 73.91521,15.83706 c 17.31899,0.30755 29.36264,6.76781 30.60058,17.78406 1.19804,10.61844 -6.86482,20.2449 -30.31024,36.12196 -16.64343,11.2527 -23.31276,17.42907 -23.31276,21.54142 0,5.97804 7.39558,11.67467 14.57078,11.67467 4.52701,0 6.73986,-2.44755 8.74198,-9.3373 2.65083,-9.10552 8.07093,-12.16952 20.98269,-12.24559 9.04415,-0.0558 11.82404,1.86091 12.24072,9.04451 0.24332,4.19767 -0.1527,6.35679 -2.62283,11.37946 -4.04918,8.22747 -13.5092,17.7098 -21.85615,21.84884 -5.69561,3.02974 -7.49167,3.29616 -16.32016,3.49142 -7.70128,0.24407 -10.99729,-0.0831 -15.1539,-1.45902 -8.01618,-2.68533 -12.8206,-5.5485 -20.69236,-11.94062 -21.12785,-17.20462 -32.21447,-42.32983 -26.22836,-60.04956 2.47338,-7.28409 5.39113,-12.02225 10.49135,-17.17653 8.8556,-8.90809 22.66638,-15.42571 39.92567,-18.94543 6.69999,-1.47984 13.16987,-1.80437 18.94299,-1.73229 z"
     id="path66"
     style="fill:#009688;fill-opacity:1" />
</svg>
