<?xml version="1.0" encoding="UTF-8" standalone="no"?>
<svg
   xmlns:dc="http://purl.org/dc/elements/1.1/"
   xmlns:cc="http://creativecommons.org/ns#"
   xmlns:rdf="http://www.w3.org/1999/02/22-rdf-syntax-ns#"
   xmlns:svg="http://www.w3.org/2000/svg"
   xmlns="http://www.w3.org/2000/svg"
   xmlns:sodipodi="http://sodipodi.sourceforge.net/DTD/sodipodi-0.dtd"
   xmlns:inkscape="http://www.inkscape.org/namespaces/inkscape"
   height="512"
   viewBox="0 0 512 512"
   width="512"
   version="1.1"
   id="svg2"
   inkscape:version="0.91 r13725"
   sodipodi:docname="applications-office.svg">
  <defs
     id="defs17">
    <linearGradient
       x1="19.244999"
       y1="21.030804"
       x2="19.360001"
       gradientUnits="userSpaceOnUse"
       y2="44.984001"
       id="linearGradient2460-03">
      <stop
         offset="0"
         style="stop-color:#fafafa;stop-opacity:1;"
         id="stop3602-48" />
      <stop
         offset="1"
         style="stop-color:#f5f5f5;stop-opacity:1"
         id="stop3604-3" />
    </linearGradient>
  </defs>
  <sodipodi:namedview
     pagecolor="#696967"
     bordercolor="#666666"
     borderopacity="1"
     objecttolerance="10"
     gridtolerance="10"
     guidetolerance="10"
     inkscape:pageopacity="0"
     inkscape:pageshadow="2"
     inkscape:window-width="1920"
     inkscape:window-height="1024"
     id="namedview15"
     showgrid="false"
     inkscape:zoom="0.4549501"
     inkscape:cx="-757.51406"
     inkscape:cy="81.957797"
     inkscape:window-x="0"
     inkscape:window-y="0"
     inkscape:window-maximized="1"
     inkscape:current-layer="svg2" />
  <metadata
     id="metadata28">
    <rdf:RDF>
      <cc:Work
         rdf:about="">
        <dc:format>image/svg+xml</dc:format>
        <dc:type
           rdf:resource="http://purl.org/dc/dcmitype/StillImage" />
        <dc:title />
      </cc:Work>
    </rdf:RDF>
  </metadata>
  <path
     inkscape:connector-curvature="0"
     id="path8230"
     d="m 94.512189,53.963803 a 12.019947,12.019947 0 0 0 -8.522213,3.582586 l -26.923683,27.14081 a 12.019947,12.019947 0 0 0 0,16.935871 l 26.923683,27.1408 a 12.019947,12.019947 0 0 0 8.522213,3.5283 l 322.975621,0 a 12.019947,12.019947 0 0 0 8.52221,-3.5283 l 26.92369,-27.1408 a 12.019947,12.019947 0 0 0 0,-16.935871 l -26.92369,-27.14081 a 12.019947,12.019947 0 0 0 -8.52221,-3.582586 l -322.975621,0 z M 202.20694,162.58132 c -80.87016,0 -146.61467,66.30301 -146.61467,147.70028 0,81.39702 65.74448,147.75456 146.61467,147.75456 80.87047,0 146.56035,-66.35756 146.56035,-147.75456 a 12.019947,12.019947 0 0 0 -11.99624,-11.99624 l -122.56788,0 0,-123.7078 a 12.019947,12.019947 0 0 0 -11.99623,-11.99624 z m 161.48778,0 a 12.019947,12.019947 0 0 0 -12.05051,11.99624 l 0,27.1408 a 12.019947,12.019947 0 0 0 12.05051,12.05052 l 80.71677,0 a 12.019947,12.019947 0 0 0 11.99624,-12.05052 l 0,-27.1408 a 12.019947,12.019947 0 0 0 -11.99624,-11.99624 l -80.71677,0 z m 0,81.42243 a 12.019947,12.019947 0 0 0 -12.05051,11.99624 l 0,27.1408 a 12.019947,12.019947 0 0 0 12.05051,12.05052 l 80.71677,0 a 12.019947,12.019947 0 0 0 11.99624,-12.05052 l 0,-27.1408 a 12.019947,12.019947 0 0 0 -11.99624,-11.99624 l -80.71677,0 z m 0,81.42241 a 12.019947,12.019947 0 0 0 -12.05051,11.99624 l 0,27.1951 a 12.019947,12.019947 0 0 0 12.05051,11.99624 l 80.71677,0 a 12.019947,12.019947 0 0 0 11.99624,-11.99624 l 0,-27.1951 a 12.019947,12.019947 0 0 0 -11.99624,-11.99624 l -80.71677,0 z m 0,81.42243 a 12.019947,12.019947 0 0 0 -12.05051,12.05052 l 0,27.14082 a 12.019947,12.019947 0 0 0 12.05051,11.99623 l 80.71677,0 a 12.019947,12.019947 0 0 0 11.99624,-11.99623 l 0,-27.14082 a 12.019947,12.019947 0 0 0 -11.99624,-12.05052 l -80.71677,0 z"
     style="color:#000000;font-style:normal;font-variant:normal;font-weight:normal;font-stretch:normal;font-size:medium;line-height:normal;font-family:Sans;-inkscape-font-specification:Sans;text-indent:0;text-align:start;text-decoration:none;text-decoration-line:none;letter-spacing:normal;word-spacing:normal;text-transform:none;direction:ltr;block-progression:tb;writing-mode:lr-tb;baseline-shift:baseline;text-anchor:start;display:inline;overflow:visible;visibility:visible;fill:#009688;fill-opacity:1;fill-rule:nonzero;stroke:none;stroke-width:13.83841515;marker:none;enable-background:accumulate" />
</svg>
