<?xml version="1.0" encoding="UTF-8" standalone="no"?>
<svg
   xmlns:dc="http://purl.org/dc/elements/1.1/"
   xmlns:cc="http://creativecommons.org/ns#"
   xmlns:rdf="http://www.w3.org/1999/02/22-rdf-syntax-ns#"
   xmlns:svg="http://www.w3.org/2000/svg"
   xmlns="http://www.w3.org/2000/svg"
   xmlns:sodipodi="http://sodipodi.sourceforge.net/DTD/sodipodi-0.dtd"
   xmlns:inkscape="http://www.inkscape.org/namespaces/inkscape"
   height="512"
   viewBox="0 0 512 512"
   width="512"
   version="1.1"
   id="svg2"
   inkscape:version="0.91 r"
   sodipodi:docname="kwalletmanager.svg">
  <defs
     id="defs16" />
  <sodipodi:namedview
     pagecolor="#ffffff"
     bordercolor="#666666"
     borderopacity="1"
     objecttolerance="10"
     gridtolerance="10"
     guidetolerance="10"
     inkscape:pageopacity="0"
     inkscape:pageshadow="2"
     inkscape:window-width="640"
     inkscape:window-height="480"
     id="namedview14"
     showgrid="false"
     inkscape:zoom="0.4609375"
     inkscape:cx="256"
     inkscape:cy="256"
     inkscape:window-x="0"
     inkscape:window-y="0"
     inkscape:window-maximized="0"
     inkscape:current-layer="svg2" />
  <metadata
     id="metadata72">
    <rdf:RDF>
      <cc:Work
         rdf:about="">
        <dc:format>image/svg+xml</dc:format>
        <dc:type
           rdf:resource="http://purl.org/dc/dcmitype/StillImage" />
      </cc:Work>
    </rdf:RDF>
  </metadata>
  <path
     id="path66"
     d="m223.51 115.26c-11.658 0-21.11 9.423-21.11 21.08 0 11.658 9.451 21.14 21.11 21.14 1.889 0 3.699-0.275 5.441-0.741l6.58 5.954 8.375-0.085 10.797-10.626-10.683-10.597c0.394-1.612 0.598-3.309 0.598-5.04 0-11.658-9.451-21.08-21.11-21.08m70.59 0c-11.658 0-21.11 9.423-21.11 21.08 0 1.575 0.186 3.11 0.513 4.586-4.075 4.02-21.676 21.392-27.06 26.24h-112.24c-6.156 0-11.11 4.926-11.11 11.08 0 6.156 4.954 11.138 11.11 11.138h243.79c6.156 0 11.11-4.983 11.11-11.138 0-6.156-4.954-11.08-11.11-11.08h-101.27l10.512-10.882c2.155 0.742 4.459 1.196 6.865 1.196 11.657 0 21.11-9.48 21.11-21.14 0-11.658-9.451-21.08-21.11-21.08m-159.3 84.06-28.26 134.06c-1.134 3.871-1.766 7.945-1.766 12.192 0 23.887 19.213 43.16 43.1 43.16h216.07c23.887 0 43.13-19.27 43.13-43.16 0-1.863-0.143-3.67-0.37-5.469h0.513l-30.96-140.79h-241.45"
     fill-rule="evenodd"
     fill="#009688" />
</svg>
