<?xml version="1.0" encoding="UTF-8" standalone="no"?>
<svg
   xmlns:dc="http://purl.org/dc/elements/1.1/"
   xmlns:cc="http://creativecommons.org/ns#"
   xmlns:rdf="http://www.w3.org/1999/02/22-rdf-syntax-ns#"
   xmlns:svg="http://www.w3.org/2000/svg"
   xmlns="http://www.w3.org/2000/svg"
   xmlns:sodipodi="http://sodipodi.sourceforge.net/DTD/sodipodi-0.dtd"
   xmlns:inkscape="http://www.inkscape.org/namespaces/inkscape"
   height="512"
   viewBox="0 0 512 512"
   width="512"
   version="1.1"
   id="svg2"
   inkscape:version="0.91 r13725"
   sodipodi:docname="pasystray.svg">
  <defs
     id="defs17" />
  <sodipodi:namedview
     pagecolor="#ffffff"
     bordercolor="#666666"
     borderopacity="1"
     objecttolerance="10"
     gridtolerance="10"
     guidetolerance="10"
     inkscape:pageopacity="0"
     inkscape:pageshadow="2"
     inkscape:window-width="1680"
     inkscape:window-height="1020"
     id="namedview15"
     showgrid="false"
     inkscape:zoom="0.70710678"
     inkscape:cx="-138.51941"
     inkscape:cy="-5.4364458"
     inkscape:window-x="1920"
     inkscape:window-y="30"
     inkscape:window-maximized="1"
     inkscape:current-layer="svg2" />
  <metadata
     id="metadata28">
    <rdf:RDF>
      <cc:Work
         rdf:about="">
        <dc:format>image/svg+xml</dc:format>
        <dc:type
           rdf:resource="http://purl.org/dc/dcmitype/StillImage" />
        <dc:title></dc:title>
      </cc:Work>
    </rdf:RDF>
  </metadata>
  <g
     transform="matrix(1.4345521,0,0,1.4345521,-729.53853,-1132.0153)"
     id="g2415"
     inkscape:export-filename="/home/ossman/Desktop/pa4.png"
     inkscape:export-xdpi="44.099998"
     inkscape:export-ydpi="44.099998"
     style="fill:#009688">
    <circle
       style="fill:#009688;fill-opacity:1;stroke:none"
       id="path2417"
       transform="matrix(1.676363,0,0,1.676363,688.6772,-480.168)"
       cx="-1"
       cy="863.61249"
       r="23" />
    <path
       style="fill:#009688;fill-opacity:1;stroke:none"
       d="m 666.92273,892.01313 c -33.41788,8.8724 -58.06252,39.3337 -58.0625,75.53129 0,36.19748 24.64463,66.69008 58.0625,75.56248 -24.10776,-10.8192 -41.4375,-40.5874 -41.4375,-75.56248 -10e-6,-34.97499 17.32973,-64.71209 41.4375,-75.53129 z m 40.15625,0 c 24.10777,10.8192 41.4375,40.5562 41.4375,75.53129 0,34.97508 -17.32974,64.74328 -41.4375,75.56248 33.41788,-8.8724 58.06252,-39.365 58.0625,-75.56248 0,-36.19749 -24.64461,-66.65889 -58.0625,-75.53129 z"
       id="path2419"
       inkscape:connector-curvature="0" />
    <path
       id="path2421"
       d="m 655.64705,849.58672 c -52.18504,13.85506 -90.66987,61.42313 -90.66984,117.9489 0,56.52568 38.48482,104.14268 90.66984,117.99768 -37.64645,-16.8952 -64.7084,-63.3809 -64.7084,-117.99768 -2e-5,-54.61657 27.06194,-101.05374 64.7084,-117.9489 z m 62.70761,0 c 37.64646,16.89516 64.7084,63.33217 64.7084,117.9489 0,54.61678 -27.06195,101.10248 -64.7084,117.99768 52.18504,-13.855 90.66987,-61.472 90.66984,-117.99768 0,-56.52561 -38.48478,-104.09384 -90.66984,-117.9489 z"
       style="fill:#009688;fill-opacity:1;stroke:none"
       inkscape:connector-curvature="0" />
  </g>
</svg>
