<?xml version="1.0" encoding="UTF-8" standalone="no"?>
<svg
   xmlns:dc="http://purl.org/dc/elements/1.1/"
   xmlns:cc="http://creativecommons.org/ns#"
   xmlns:rdf="http://www.w3.org/1999/02/22-rdf-syntax-ns#"
   xmlns:svg="http://www.w3.org/2000/svg"
   xmlns="http://www.w3.org/2000/svg"
   xmlns:sodipodi="http://sodipodi.sourceforge.net/DTD/sodipodi-0.dtd"
   xmlns:inkscape="http://www.inkscape.org/namespaces/inkscape"
   height="512"
   viewBox="0 0 512 512"
   width="512"
   version="1.1"
   id="svg2"
   inkscape:version="0.91 r"
   sodipodi:docname="peazip.svg">
  <defs
     id="defs26" />
  <sodipodi:namedview
     pagecolor="#ffffff"
     bordercolor="#666666"
     borderopacity="1"
     objecttolerance="10"
     gridtolerance="10"
     guidetolerance="10"
     inkscape:pageopacity="0"
     inkscape:pageshadow="2"
     inkscape:window-width="647"
     inkscape:window-height="480"
     id="namedview24"
     showgrid="false"
     inkscape:zoom="0.4609375"
     inkscape:cx="256"
     inkscape:cy="256"
     inkscape:window-x="0"
     inkscape:window-y="0"
     inkscape:window-maximized="0"
     inkscape:current-layer="svg2" />
  <metadata
     id="metadata92">
    <rdf:RDF>
      <cc:Work
         rdf:about="">
        <dc:format>image/svg+xml</dc:format>
        <dc:type
           rdf:resource="http://purl.org/dc/dcmitype/StillImage" />
      </cc:Work>
    </rdf:RDF>
  </metadata>
  <g
     id="g82"
     fill-rule="evenodd"
     fill="#009688">
    <path
       id="path84"
       d="m386.35 125.65c-141.76 4.727-256.29 118.62-260.7 260.7 141.76-4.727 256.29-118.62 260.7-260.7m-58.777 20.972c0.626-0.025 1.263-0.007 1.897 0 20.287 0.209 36.566 16.828 36.36 37.12-0.209 20.287-16.828 36.531-37.12 36.32-20.287-0.209-36.566-16.794-36.36-37.08 0.203-19.653 15.8-35.573 35.22-36.36m-71.02 56.88c28.401 0.293 51.17 23.546 50.878 51.947-0.293 28.401-23.546 51.21-51.947 50.913-28.401-0.293-51.21-23.546-50.913-51.947 0.293-28.401 23.581-51.21 51.982-50.913m-75.71 86.86c0.626-0.025 1.263-0.007 1.897 0 20.287 0.209 36.566 16.828 36.36 37.12-0.209 20.287-16.828 36.531-37.12 36.32-20.287-0.209-36.566-16.794-36.36-37.08 0.203-19.653 15.8-35.573 35.22-36.36" />
    <path
       id="path86"
       d="m329.22 169.78c-7.49-0.077-13.61 5.916-13.688 13.406-0.077 7.49 5.916 13.641 13.406 13.719 7.49 0.077 13.641-5.947 13.719-13.438 0.077-7.49-5.947-13.61-13.438-13.688m-74.34 57.47c-14.639 0.591-26.41 12.591-26.563 27.406-0.158 15.293 12.11 27.811 27.406 27.969 15.293 0.158 27.811-12.11 27.969-27.406 0.158-15.293-12.11-27.811-27.406-27.969-0.478-0.005-0.934-0.019-1.406 0m-72.37 86.25c-7.49-0.077-13.641 5.947-13.719 13.438-0.077 7.49 5.947 13.61 13.438 13.688 7.49 0.077 13.61-5.916 13.688-13.406 0.077-7.49-5.916-13.641-13.406-13.719" />
  </g>
</svg>
