<?xml version="1.0" encoding="UTF-8" standalone="no"?>
<svg
   xmlns:dc="http://purl.org/dc/elements/1.1/"
   xmlns:cc="http://creativecommons.org/ns#"
   xmlns:rdf="http://www.w3.org/1999/02/22-rdf-syntax-ns#"
   xmlns:svg="http://www.w3.org/2000/svg"
   xmlns="http://www.w3.org/2000/svg"
   xmlns:sodipodi="http://sodipodi.sourceforge.net/DTD/sodipodi-0.dtd"
   xmlns:inkscape="http://www.inkscape.org/namespaces/inkscape"
   sodipodi:docname="peppermint.svg"
   inkscape:version="0.91 r13725"
   id="svg2"
   version="1.1"
   width="512"
   viewBox="0 0 512 512"
   height="512">
  <defs
     id="defs17" />
  <sodipodi:namedview
     inkscape:current-layer="svg2"
     inkscape:window-maximized="1"
     inkscape:window-y="0"
     inkscape:window-x="0"
     inkscape:cy="438.01142"
     inkscape:cx="6.6457994"
     inkscape:zoom="0.88455375"
     showgrid="false"
     id="namedview15"
     inkscape:window-height="1022"
     inkscape:window-width="1920"
     inkscape:pageshadow="2"
     inkscape:pageopacity="0"
     guidetolerance="10"
     gridtolerance="10"
     objecttolerance="10"
     borderopacity="1"
     bordercolor="#666666"
     pagecolor="#ffffff" />
  <metadata
     id="metadata28">
    <rdf:RDF>
      <cc:Work
         rdf:about="">
        <dc:format>image/svg+xml</dc:format>
        <dc:type
           rdf:resource="http://purl.org/dc/dcmitype/StillImage" />
        <dc:title></dc:title>
      </cc:Work>
    </rdf:RDF>
  </metadata>
  <path
     style="fill:#009688"
     d="M 202.4738,459.48993 C 144.65561,444.23599 88.422253,399.88074 63.719403,350.04441 4.9868224,231.55533 61.68955,92.582506 186.21581,49.817893 c 34.31309,-11.78375 96.66308,-12.577976 128.77163,-1.640332 50.55131,17.220055 90.66567,47.578174 116.90967,88.475879 54.00586,84.16086 42.13791,195.84617 -28.29546,266.2796 -51.99373,51.99372 -132.55624,74.64779 -201.12785,56.55689 z m 114.14218,-17.03119 c 24.66668,-8.4866 44.97311,-18.69073 44.8062,-22.5155 -0.0675,-1.54563 -7.81543,-7.47664 -17.21769,-13.18008 -19.40438,-11.77071 -44.43657,-42.96267 -36.23296,-45.14893 15.69164,-4.18186 15.39674,-5.54025 -3.55199,-16.36237 -27.34372,-15.61661 -40.77063,-34.8128 -24.35013,-34.8128 4.26776,0 7.75956,-0.83753 7.75956,-1.86117 0,-1.02368 -6.97607,-11.06262 -15.50243,-22.30874 -8.52633,-11.24616 -15.50993,-21.81992 -15.51913,-23.49727 -0.008,-1.67735 6.53046,1.43187 14.53251,6.9093 8.00203,5.47748 24.15162,12.77913 35.88796,16.22588 19.34347,5.68081 20.52253,6.63206 12.60929,10.17263 -4.80122,2.1482 -8.72951,5.22916 -8.72951,6.84661 0,6.05355 35.36684,19.75906 56.65843,21.95657 20.10471,2.07499 21.42523,2.76901 14.72186,7.73694 -7.21108,5.34425 -7.21212,5.57002 -0.0505,10.87813 4.02239,2.98134 15.21812,6.60598 24.87935,8.05478 20.9821,3.14646 23.92591,0.25024 35.46397,-34.89103 7.44739,-22.68224 15.12726,-76.05868 10.94342,-76.05868 -1.10376,0 -11.5254,4.35774 -23.15915,9.68386 -20.96157,9.59652 -57.38095,17.16667 -57.38095,11.92722 0,-1.49725 1.80732,-6.09934 4.01627,-10.2268 5.09784,-9.52532 4.41705,-9.44982 -18.20739,2.01927 -21.63614,10.96815 -47.88538,16.74355 -47.88538,10.53589 0,-2.2454 1.7459,-5.16161 3.87978,-6.48043 9.88243,-6.10766 1.5702,-8.53298 -24.24863,-7.07519 -27.25207,1.53868 -27.74226,1.41033 -15.73332,-4.12046 6.81728,-3.13975 20.10678,-12.81704 29.53224,-21.50513 19.38567,-17.86909 22.21186,-19.04393 19.33345,-8.03692 -5.08085,19.42925 31.89676,-2.99232 51.25287,-31.0774 11.41129,-16.55739 11.6634,-16.68445 12.86698,-6.48465 0.6752,5.72198 2.70921,10.40359 4.52002,10.40359 4.00266,0 34.99005,-34.71759 34.99005,-39.20209 0,-9.53726 -72.87161,-77.191323 -83.14441,-77.191323 -1.21593,0 -2.22051,5.67416 -2.23242,12.609277 -0.027,14.788936 -6.0782,38.512376 -14.33467,56.183616 l -5.85723,12.53606 -7.22318,-8.65628 c -7.20949,-8.63993 -7.22338,-8.6134 -7.35223,14.03602 -0.0715,12.52735 -2.91844,28.57053 -6.35609,35.81477 l -6.22697,13.12243 -7.02495,-8.6563 -7.02494,-8.65629 -2.81773,11.63933 c -3.04795,12.59037 -16.28468,40.73771 -19.1575,40.73771 -0.97026,0 -0.76288,-5.00596 0.4608,-11.12438 1.94878,-9.74388 -3.34274,-45.43371 -9.26531,-62.49187 -1.6652,-4.7961 -1.06341,-4.99905 3.17161,-1.06953 2.87472,2.66735 7.73893,4.84973 10.80934,4.84973 8.23069,0 3.68681,-40.865 -6.83776,-61.49488 l -8.32364,-16.315686 10.36906,2.602482 c 10.16441,2.551104 10.31544,2.316684 7.6526,-11.87749 -3.54201,-18.880438 -9.77782,-32.27422 -16.16771,-34.726236 -10.04751,-3.855571 -54.39662,6.008809 -80.15216,17.827985 -14.40369,6.609783 -26.12477,13.068764 -26.04687,14.353286 0.078,1.284521 8.10141,7.382283 17.83003,13.550592 9.7286,6.168347 22.90262,18.389657 29.27567,27.158467 l 11.58732,15.94334 -10.01841,1.22765 c -13.46695,1.65021 -12.62706,6.44989 2.20364,12.59297 12.86697,5.32966 38.21506,28.4165 38.21506,34.80596 0,2.06275 -3.49181,3.75046 -7.75956,3.75046 -10.07994,0 -9.7897,2.28685 2.08076,16.39409 5.41218,6.43201 12.51513,16.867 15.78427,23.18887 l 5.9439,11.49424 -14.81432,-10.13919 c -8.14784,-5.57657 -24.41675,-12.95924 -36.15308,-16.406 -19.34345,-5.68082 -20.52254,-6.63201 -12.60929,-10.17263 4.80123,-2.14819 8.72951,-5.22916 8.72951,-6.8466 0,-6.05355 -35.36684,-19.75908 -56.65841,-21.95657 -19.14537,-1.97599 -21.1828,-2.93976 -15.3033,-7.2389 9.02271,-6.59762 4.95595,-12.08409 -12.5637,-16.94983 -26.819542,-7.44857 -29.912645,-6.04091 -40.996519,18.65715 -9.780386,21.79367 -20.666355,78.52708 -16.394042,85.43977 1.131375,1.83066 10.458632,-0.69235 20.727181,-5.60668 18.460929,-8.83508 59.11229,-16.81597 59.11229,-11.60523 0,1.48211 -1.80732,6.07181 -4.01626,10.19928 -5.09785,9.52533 -4.41706,9.44982 18.20738,-2.01927 21.63614,-10.96814 47.88538,-16.74355 47.88538,-10.5359 0,2.24543 -1.7459,5.16163 -3.87978,6.48044 -2.13388,1.31883 -3.87979,4.06132 -3.87979,6.09448 0,3.34972 11.07275,2.76597 43.64755,-2.30099 13.06047,-2.03153 14.26695,4.16185 1.438,7.38168 -5.07729,1.27435 -17.99159,10.19311 -28.69847,19.81951 -21.54435,19.37024 -25.86379,21.26534 -22.20675,9.74302 6.29983,-19.84904 -33.58373,4.83037 -51.33229,31.7637 -10.58338,16.06026 -10.76259,16.14779 -11.97183,5.84953 -0.6752,-5.75014 -2.65444,-10.45477 -4.39828,-10.45477 -5.56097,0 -31.232015,30.8071 -31.232015,37.48067 0,10.65229 31.016805,47.4321 53.694825,63.67147 11.70631,8.38269 22.49718,15.24129 23.97968,15.24129 1.48254,0 3.82593,-10.81521 5.20752,-24.03381 1.38162,-13.21856 6.15116,-31.55118 10.59897,-40.73916 l 8.08698,-16.70545 7.28367,8.73102 7.28363,8.73103 0.12919,-22.43337 c 0.071,-12.33833 2.92366,-28.92439 6.33921,-36.85793 6.00955,-13.95859 6.34202,-14.14257 10.29232,-5.69504 5.81976,12.44504 8.00284,11.06894 15.38768,-9.69945 3.60414,-10.13594 9.17189,-21.92076 12.37281,-26.18852 5.45428,-7.27215 5.68226,-6.87672 3.6297,6.29553 -2.02105,12.96971 2.07091,41.07306 8.68811,59.66939 2.26568,6.36734 1.82501,6.88522 -2.46874,2.90119 -17.65633,-16.38269 -21.49659,18.56611 -5.75534,52.37703 5.2157,11.20288 7.92052,20.36885 6.01075,20.36885 -1.90979,0 -4.55134,-1.74589 -5.87015,-3.87978 -1.31882,-2.13388 -4.04071,-3.87978 -6.04866,-3.87978 -6.14651,0 -3.90565,20.40157 4.20385,38.27366 l 7.68431,16.93488 21.64929,-2.70489 c 11.90713,-1.48771 30.82327,-5.86124 42.03591,-9.71893 z"
     id="path4180"
     inkscape:connector-curvature="0" />
</svg>
