<?xml version="1.0" encoding="UTF-8" standalone="no"?>
<svg xmlns:dc="http://purl.org/dc/elements/1.1/" xmlns:cc="http://creativecommons.org/ns#" xmlns:rdf="http://www.w3.org/1999/02/22-rdf-syntax-ns#" xmlns:svg="http://www.w3.org/2000/svg" xmlns="http://www.w3.org/2000/svg" xmlns:sodipodi="http://sodipodi.sourceforge.net/DTD/sodipodi-0.dtd" xmlns:inkscape="http://www.inkscape.org/namespaces/inkscape" height="512" viewBox="0 0 512 512" width="512" version="1.1" id="svg2" inkscape:version="0.91 r" sodipodi:docname="pgadmin.svg">
<defs id="defs17" />
<sodipodi:namedview pagecolor="#ffffff" bordercolor="#666666" borderopacity="1" objecttolerance="10" gridtolerance="10" guidetolerance="10" inkscape:pageopacity="0" inkscape:pageshadow="2" inkscape:window-width="1680" inkscape:window-height="994" id="namedview15" showgrid="false" inkscape:zoom="1.3037281" inkscape:cx="159.05701" inkscape:cy="244.919" inkscape:window-x="0" inkscape:window-y="0" inkscape:window-maximized="1" inkscape:current-layer="svg2" />
<metadata id="metadata28">
<rdf:RDF>
<cc:Work rdf:about="">
<dc:format>image/svg+xml</dc:format>
<dc:type rdf:resource="http://purl.org/dc/dcmitype/StillImage" />
<dc:title />
</cc:Work>
</rdf:RDF>
</metadata>
<path inkscape:connector-curvature="0" style="fill:#009688" id="path4192" d="m 357.93216,54.944897 c -15.48782,0.138308 -29.07252,2.358166 -38.38209,4.456311 -1.17424,0.265553 -2.05942,0.526957 -3.09397,0.786977 27.63826,9.955472 47.96413,27.379623 62.03014,44.729085 10.56127,13.02455 17.65098,25.99792 21.91781,35.86487 2.13272,4.93348 3.55454,9.09519 4.35258,12.21682 0.39833,1.56151 0.6542,2.80906 0.73442,4.03724 0.0401,0.61409 0.10096,1.2019 -0.10512,2.09676 -0.0221,0.0954 -0.0733,0.21023 -0.10511,0.31396 0.56153,16.56111 -3.85467,27.7171 -4.45631,44.0984 -0.35407,11.84201 2.71777,25.36585 3.46048,39.85093 0.71921,14.01899 -0.9322,29.12785 -10.64425,43.99329 0.0678,0.083 0.14246,0.1798 0.21023,0.26278 1.86579,2.26827 3.64168,4.27375 5.13818,6.34423 25.84024,-38.48029 44.32799,-81.40721 54.10642,-117.86681 5.12158,-19.10184 7.8601,-36.43056 8.07448,-50.2891 0.21438,-13.85855 -2.30285,-24.11 -6.29167,-28.996457 -27.78625,-34.188567 -65.9761,-42.171755 -96.95452,-41.893754 m -93.49679,5.033059 c -22.62179,0.495146 -39.27003,7.376012 -51.91008,17.512668 -13.48373,10.812987 -22.40742,25.498624 -28.26203,40.427684 -7.75636,19.77401 -10.03431,39.56601 -10.69681,50.80914 1.38309,-0.87688 2.89066,-1.77727 4.56143,-2.67351 6.83937,-3.66933 15.86402,-7.41335 25.43085,-9.54331 4.78272,-1.06498 9.73694,-1.73025 14.57637,-1.73025 4.84081,0 9.60002,0.704 14.05218,2.35955 8.90571,3.31112 16.21533,10.92225 18.98151,23.22898 13.73545,61.18784 -4.02064,82.85669 -10.90704,100.72758 -3.59603,9.33308 -6.70521,17.36606 -7.6554,23.91083 2.19773,-1.3167 4.37333,-2.07601 6.44935,-2.25443 3.97638,-0.34163 7.20036,0.99029 9.38564,1.83536 a 4.095602,4.095602 0 0 1 0.0524,0 c 5.77439,2.33327 10.08963,7.47697 12.37449,13.42287 1.30978,3.40793 1.92802,7.23909 1.41628,10.95821 -0.24757,9.8144 -0.36237,19.52921 -0.36652,28.99646 1.5297,9.09795 2.3554,20.14053 2.04559,30.73222 -0.24757,8.41748 -0.50206,15.81977 -0.41907,22.38944 0.31811,4.09395 0.7026,7.87808 1.10093,11.221 0.85199,7.15887 1.99442,12.59026 2.9363,14.89172 2.51307,6.0842 6.26816,14.36475 13.47543,20.18756 7.20728,5.8228 17.846,9.60417 35.86487,5.97771 15.32463,-3.16589 25.19435,-7.7204 31.8802,-14.42009 6.68585,-6.69829 10.56126,-15.84328 12.95124,-29.25232 3.54486,-19.85977 10.56126,-75.99657 11.58752,-88.14285 -0.001,-0.0166 0.001,-0.0346 0,-0.0526 -0.50207,-8.27087 0.72058,-14.34955 3.25164,-18.82384 2.53658,-4.48535 6.33593,-7.1229 9.75077,-8.59866 3.17834,-1.37341 5.91271,-1.91834 7.55028,-2.41211 -0.98752,-1.9543 -3.0912,-4.73708 -6.39678,-8.75633 -3.94734,-4.79793 -8.81719,-11.17536 -12.68984,-20.18756 -0.55324,-1.29319 -2.57393,-4.86018 -5.19073,-9.38564 -2.61681,-4.52547 -5.89749,-10.21411 -9.33308,-16.5694 -6.87119,-12.71059 -14.31497,-28.10575 -18.14613,-42.88958 -3.827,-14.7866 -4.20459,-29.61055 4.98189,-39.74582 8.56132,-9.44649 24.5111,-13.09508 49.39424,-10.0675 -0.69292,-2.51169 -1.79525,-5.79929 -3.61816,-10.01495 -3.98606,-9.21966 -10.80054,-21.57203 -20.81548,-33.92578 -20.03404,-24.706109 -52.73717,-49.363813 -103.0401,-50.123128 -1.56151,-0.0249 -3.10642,-0.03319 -4.61399,0 m -128.1985,0.786977 c -2.53796,0.0014 -5.06902,0.06915 -7.60283,0.210229 -20.27193,1.120302 -39.773483,6.868419 -53.745444,21.130828 -13.969195,14.263793 -22.887351,37.412544 -20.926131,74.977234 0.395563,7.40921 3.59603,27.03523 9.071678,50.54774 5.474265,23.51251 13.194666,51.21577 22.547111,75.7158 9.352445,24.50419 20.540246,45.84939 31.824866,56.42034 5.64439,5.28201 10.99417,7.77019 16.20289,7.55028 5.20871,-0.21853 10.99278,-3.13131 17.51266,-10.69681 16.77688,-19.50155 31.64924,-34.96171 36.70442,-40.16489 -16.97464,-12.94018 -27.3008,-34.93682 -23.80573,-59.04129 a 4.095602,4.095602 0 0 1 0,-0.0523 c 2.07603,-14.21815 2.33328,-27.39484 2.09678,-37.80534 -0.21853,-9.62215 -0.84369,-16.41588 -0.94327,-20.3978 a 4.095602,4.095602 0 0 1 -0.0523,-0.83896 l 0,-0.21023 a 4.095602,4.095602 0 0 1 0,-0.15723 c -0.0429,-1.95431 -0.50068,-32.33938 11.53634,-63.02735 5.90441,-15.053537 14.86544,-30.205273 28.52482,-41.949078 C 193.05707,68.954104 164.97207,60.759304 136.21212,60.7842 m 243.56192,100.20477 c -13.85855,0.1964 -22.10314,3.70668 -26.58435,8.65122 -6.37466,7.03301 -6.66787,18.59009 -3.14653,32.19554 3.52135,13.60406 10.68021,28.61057 17.40894,41.05698 3.36367,6.22252 6.65819,11.82679 9.28052,16.35917 2.62234,4.53377 4.51441,7.78541 5.56002,10.22518 1.81738,4.22533 3.88648,7.77019 5.97771,10.85448 7.19621,-12.24863 8.44099,-24.23448 7.81307,-36.49418 -0.69431,-13.5432 -3.86159,-27.16386 -3.46049,-40.53833 0.61271,-16.65238 4.39822,-27.35057 4.40514,-41.10954 -5.3083,-0.70676 -10.14219,-1.13137 -14.42009,-1.20605 -0.97507,-0.0166 -1.90727,-0.0138 -2.83118,0 m -161.71072,2.04559 c -4.08288,-0.001 -8.42301,0.55876 -12.74101,1.52001 -8.63739,1.92249 -17.11987,5.42309 -23.33409,8.75633 -3.10642,1.66663 -5.6762,3.30144 -7.28888,4.56143 -0.68324,0.53387 -1.07881,0.95986 -1.36372,1.25861 0.065,2.82012 0.71229,10.0758 0.94326,20.29268 0.24343,10.71893 -0.0373,24.34236 -2.20187,39.16907 -4.97636,34.30474 21.84035,62.92915 53.1106,61.55851 1.50618,-6.97077 4.39407,-14.18634 7.39399,-21.97037 7.75221,-20.1184 23.92605,-36.55365 10.59169,-95.95869 -2.28762,-10.17261 -7.26398,-14.94288 -13.90004,-17.40893 -3.31526,-1.23233 -7.13812,-1.78142 -11.22099,-1.7828 m 156.62095,5.03306 c 1.3499,0.0373 2.59882,0.21161 3.72328,0.47163 1.12445,0.2614 2.11197,0.61132 2.98885,1.20605 0.82709,0.56154 1.55183,1.47438 1.7828,2.62234 l 0.10512,0 c 0.008,0.0387 -0.008,0.0664 0,0.10511 0.001,0.0166 -0.001,0.036 0,0.0526 0.001,0.003 -0.0526,-0.003 -0.0526,0 0.22683,1.27798 -0.10788,2.3471 -0.62931,3.35537 -0.54632,1.05668 -1.3167,2.094 -2.30699,3.09397 -1.98196,1.99857 -4.82836,3.79105 -8.23214,4.24747 l -0.0526,0 c -3.39686,0.34992 -6.39263,-0.73995 -8.59866,-2.20188 -1.10371,-0.73165 -2.01378,-1.5864 -2.72607,-2.41211 -0.71367,-0.8257 -1.26552,-1.57118 -1.52001,-2.62233 l 0,-0.15767 c -0.20885,-1.2517 0.31119,-2.43701 0.99582,-3.25164 0.68463,-0.81464 1.55736,-1.39692 2.56978,-1.94048 2.02346,-1.08849 4.66377,-1.90174 7.6554,-2.30699 1.49788,-0.20331 2.95012,-0.30013 4.30002,-0.26279 m -155.88792,2.25444 c 1.46607,-0.0318 3.01237,0.0456 4.61398,0.26278 3.19079,0.43153 6.00814,1.26415 8.34003,2.51723 1.16456,0.62654 2.26826,1.30563 3.19908,2.4121 0.93082,1.10647 1.74408,2.90725 1.41628,4.87677 l 0,0.15768 c -0.34024,1.69981 -1.08019,2.64999 -1.94047,3.67071 -0.86028,1.02072 -1.92249,1.9875 -3.19908,2.83118 -2.55319,1.68876 -6.07729,3.00407 -10.06751,2.46467 -3.98467,-0.53387 -7.10769,-2.61266 -9.33308,-4.87677 -1.11338,-1.13137 -2.01654,-2.33051 -2.67351,-3.61816 -0.61962,-1.21297 -1.17562,-2.53935 -0.83953,-4.50887 l -0.0526,0 c 0.008,-0.0595 0.0429,-0.0982 0.0526,-0.15767 0.0111,-0.0609 -0.0138,-0.094 0,-0.15767 l 0.0525,0 c 0.36929,-1.78419 1.5131,-3.12855 2.62234,-3.87957 1.18116,-0.80081 2.37891,-1.22127 3.67072,-1.52001 1.2918,-0.30013 2.67627,-0.43982 4.14235,-0.47164 m 179.80152,138.37802 c -0.51589,0.23236 -1.03317,0.41216 -1.52002,0.57675 -2.56977,0.8672 -5.15062,1.34574 -7.49772,2.35955 -2.34848,1.0138 -4.33183,2.36231 -5.87259,5.08561 -1.44256,2.55042 -2.53797,6.56691 -2.30699,13.0038 a 4.095602,4.095602 0 0 1 0.15722,1.57313 c 0.0415,0.14246 0.14108,0.31949 0.57675,0.68186 0.65835,0.5477 2.02484,1.25861 3.93212,1.83536 3.81456,1.1535 9.64151,1.77865 16.09777,1.73024 12.91113,-0.0982 28.52067,-2.8298 37.28116,-6.76468 11.37867,-5.09115 20.51673,-12.333 23.12385,-16.15033 0.13001,-0.19086 0.0636,-0.14937 0.15768,-0.31396 -1.17701,-0.1065 -3.12855,-0.15767 -6.39679,0.47163 -0.0235,0.006 -0.029,-0.006 -0.0526,0 -27.038,5.3899 -41.98365,3.81733 -50.70402,0.31397 -3.20185,-1.28628 -5.30968,-2.84778 -6.97077,-4.40514 m -158.87539,2.25443 c -1.7745,0.15214 -3.97361,0.88933 -7.18376,4.35258 a 4.095602,4.095602 0 0 1 -0.68166,0.62922 c -6.47562,7.14366 -9.06891,11.67189 -14.05218,15.46847 -5.15477,3.92659 -11.97616,6.11325 -26.52764,9.01912 -6.97077,1.37755 -10.91118,3.15897 -12.21682,4.19076 -0.51589,0.40939 -0.43429,0.40109 -0.41908,0.36652 0.33333,0.54908 2.01516,2.12995 4.35258,3.35537 2.36785,1.24201 5.27925,2.26273 7.70796,2.83118 a 4.095602,4.095602 0 0 1 0.0524,0 c 6.50604,1.56289 17.13646,3.43421 28.47226,1.57257 11.33579,-1.86163 23.30919,-7.25568 33.24945,-20.71175 0.82155,-1.10924 1.35819,-2.38029 1.62513,-3.72327 0.0304,-1.17563 0.0194,-2.33604 0.0525,-3.51305 a 4.095602,4.095602 0 0 1 0,-0.3146 c -0.15628,-1.16179 -0.43567,-2.32497 -0.8907,-3.51304 -1.54353,-4.01511 -4.8256,-7.53369 -7.81307,-8.75634 -0.0194,-0.007 -0.0332,0.007 -0.0526,0 -2.14517,-0.82847 -3.90446,-1.40936 -5.66236,-1.25861" />
</svg>
