<?xml version="1.0" encoding="UTF-8" standalone="no"?>
<svg
   xmlns:dc="http://purl.org/dc/elements/1.1/"
   xmlns:cc="http://creativecommons.org/ns#"
   xmlns:rdf="http://www.w3.org/1999/02/22-rdf-syntax-ns#"
   xmlns:svg="http://www.w3.org/2000/svg"
   xmlns="http://www.w3.org/2000/svg"
   xmlns:sodipodi="http://sodipodi.sourceforge.net/DTD/sodipodi-0.dtd"
   xmlns:inkscape="http://www.inkscape.org/namespaces/inkscape"
   height="512"
   viewBox="0 0 512 512"
   width="512"
   version="1.1"
   id="svg2"
   inkscape:version="0.91 r"
   sodipodi:docname="phatch.svg">
  <defs
     id="defs16" />
  <sodipodi:namedview
     pagecolor="#ffffff"
     bordercolor="#666666"
     borderopacity="1"
     objecttolerance="10"
     gridtolerance="10"
     guidetolerance="10"
     inkscape:pageopacity="0"
     inkscape:pageshadow="2"
     inkscape:window-width="647"
     inkscape:window-height="480"
     id="namedview14"
     showgrid="false"
     inkscape:zoom="0.4609375"
     inkscape:cx="256"
     inkscape:cy="256"
     inkscape:window-x="0"
     inkscape:window-y="0"
     inkscape:window-maximized="0"
     inkscape:current-layer="svg2" />
  <metadata
     id="metadata72">
    <rdf:RDF>
      <cc:Work
         rdf:about="">
        <dc:format>image/svg+xml</dc:format>
        <dc:type
           rdf:resource="http://purl.org/dc/dcmitype/StillImage" />
      </cc:Work>
    </rdf:RDF>
  </metadata>
  <path
     id="path66"
     fill="#009688"
     d="m256.09 123.03c-7.702 0-15.327 0.721-22.671 1.979v28.25c-12.1 2.689-23.323 7.574-33.466 14.03l-20.15-20.15c-12.585 8.829-23.524 19.827-32.387 32.387l20.15 20.15c-6.461 10.143-11.346 21.364-14.03 33.466h-28.428c-1.294 7.445-1.979 15.04-1.979 22.851 0 7.815 0.685 15.585 1.979 23.03h28.428c2.689 12.1 7.574 23.324 14.03 33.466l-20.15 20.15c8.877 12.58 19.956 23.37 32.567 32.21l19.972-19.972c10.143 6.46 21.364 11.346 33.466 14.03v28.07c7.343 1.258 14.969 1.979 22.671 1.979 7.919 0 15.672-0.651 23.21-1.979v-28.07c12.1-2.689 23.323-7.574 33.466-14.03l19.612 19.792c12.58-8.877 23.73-19.776 32.567-32.387l-19.79-19.8c6.461-10.143 11.345-21.364 14.03-33.466h27.709c1.294-7.445 1.979-15.215 1.979-23.03s-0.685-15.405-1.979-22.851h-27.709c-2.689-12.1-7.574-23.324-14.03-33.466l19.792-19.792c-8.824-12.592-19.83-23.696-32.387-32.567l-19.792 19.972c-10.143-6.461-21.364-11.345-33.466-14.03v-28.07c-7.539-1.328-15.291-2.159-23.21-2.159m-0.18 71.791c33.783 0 61.35 27.392 61.35 61.18 0 33.783-27.572 61.18-61.35 61.18-33.783 0-61.18-27.392-61.18-61.18 0-33.782 27.392-61.18 61.18-61.18" />
</svg>
