<?xml version="1.0" encoding="UTF-8" standalone="no"?>
<svg
   xmlns:dc="http://purl.org/dc/elements/1.1/"
   xmlns:cc="http://creativecommons.org/ns#"
   xmlns:rdf="http://www.w3.org/1999/02/22-rdf-syntax-ns#"
   xmlns:svg="http://www.w3.org/2000/svg"
   xmlns="http://www.w3.org/2000/svg"
   xmlns:sodipodi="http://sodipodi.sourceforge.net/DTD/sodipodi-0.dtd"
   xmlns:inkscape="http://www.inkscape.org/namespaces/inkscape"
   height="512"
   viewBox="0 0 512 512"
   width="512"
   version="1.1"
   id="svg2"
   inkscape:version="0.91 r"
   sodipodi:docname="php.svg">
  <defs
     id="defs17" />
  <sodipodi:namedview
     pagecolor="#ffffff"
     bordercolor="#666666"
     borderopacity="1"
     objecttolerance="10"
     gridtolerance="10"
     guidetolerance="10"
     inkscape:pageopacity="0"
     inkscape:pageshadow="2"
     inkscape:window-width="1920"
     inkscape:window-height="1028"
     id="namedview15"
     showgrid="false"
     inkscape:zoom="1.3037281"
     inkscape:cx="59.342963"
     inkscape:cy="244.919"
     inkscape:window-x="0"
     inkscape:window-y="0"
     inkscape:window-maximized="1"
     inkscape:current-layer="g4238" />
  <metadata
     id="metadata28">
    <rdf:RDF>
      <cc:Work
         rdf:about="">
        <dc:format>image/svg+xml</dc:format>
        <dc:type
           rdf:resource="http://purl.org/dc/dcmitype/StillImage" />
        <dc:title />
      </cc:Work>
    </rdf:RDF>
  </metadata>
  <g
     transform="translate(10.938188,-29.135828)"
     style="fill-rule:evenodd"
     id="g4238">
    <path
       style="fill:#009688"
       inkscape:connector-curvature="0"
       id="path4242"
       d="m 227.57,174.66 -26.468,129.18 31.406,0 14.884,-71.78 24.807,0 c 11.571,0 11.552,4.78 9.899,12.754 l -11.561,59.02 33.07,0 11.561,-65.39 c 3.306,-15.948 -6.62,-28.712 -33.07,-30.31 l -29.745,0 6.623,-33.489 -31.406,0 m -117.36,33.489 -26.445,129.18 31.406,0 6.6,-33.489 29.745,0 c 28.1,1.595 59.51,-20.745 59.51,-59.02 0,-22.328 -13.22,-35.08 -39.667,-36.672 l -61.15,0 m 217.2,0 -26.445,129.18 31.406,0 6.599,-33.489 29.768,0 c 28.1,1.595 59.51,-20.745 59.51,-59.02 0,-22.328 -13.243,-35.08 -39.691,-36.672 l -61.15,0 m -190.75,23.917 21.484,0 c 11.571,0 19.845,4.776 19.845,14.346 -1.653,27.11 -14.891,31.918 -29.768,33.513 l -19.822,0 8.261,-47.858 m 217.2,0 21.484,0 c 11.571,0 19.845,4.776 19.845,14.346 -1.653,27.11 -14.891,31.918 -29.768,33.513 l -19.822,0 8.261,-47.858" />
  </g>
</svg>
