<?xml version="1.0" encoding="UTF-8" standalone="no"?>
<svg
   xmlns:dc="http://purl.org/dc/elements/1.1/"
   xmlns:cc="http://creativecommons.org/ns#"
   xmlns:rdf="http://www.w3.org/1999/02/22-rdf-syntax-ns#"
   xmlns:svg="http://www.w3.org/2000/svg"
   xmlns="http://www.w3.org/2000/svg"
   xmlns:sodipodi="http://sodipodi.sourceforge.net/DTD/sodipodi-0.dtd"
   xmlns:inkscape="http://www.inkscape.org/namespaces/inkscape"
   version="1.1"
   viewBox="0 0 512 512"
   id="svg2"
   inkscape:version="0.91 r"
   sodipodi:docname="picard.svg">
  <defs
     id="defs16" />
  <sodipodi:namedview
     pagecolor="#ffffff"
     bordercolor="#666666"
     borderopacity="1"
     objecttolerance="10"
     gridtolerance="10"
     guidetolerance="10"
     inkscape:pageopacity="0"
     inkscape:pageshadow="2"
     inkscape:window-width="640"
     inkscape:window-height="480"
     id="namedview14"
     showgrid="false"
     inkscape:zoom="0.4609375"
     inkscape:cx="256"
     inkscape:cy="256"
     inkscape:window-x="0"
     inkscape:window-y="0"
     inkscape:window-maximized="0"
     inkscape:current-layer="svg2" />
  <metadata
     id="metadata4294">
    <rdf:RDF>
      <cc:Work
         rdf:about="">
        <dc:format>image/svg+xml</dc:format>
        <dc:type
           rdf:resource="http://purl.org/dc/dcmitype/StillImage" />
      </cc:Work>
    </rdf:RDF>
  </metadata>
  <path
     inkscape:connector-curvature="0"
     id="path4230"
     d="m 92.88,103.84 c -2.766,2.967 -5.432,6.01 -8.03,9.125 2.843,-1.014 6.757,-1.556 11.563,-0.031 5.226,1.668 17.741,6.88 30.09,12.594 1.029,1.538 1.477,3.287 0.563,5.219 -2.961,6.247 -3.154,8.829 1.875,9.188 5.04,0.359 8.07,-7.202 14.188,-4.188 6.122,3.02 0.391,12.952 6.594,14.688 6.211,1.728 8.812,0.632 12.5,2.188 3.688,1.556 16.823,12.793 15.219,17.844 -1.611,5.04 -13.299,-8.672 -17.25,-6.375 -3.951,2.304 -10.517,5.692 -5.656,8.625 4.854,2.924 19.953,4 25.813,10.875 3.416,4.01 5.322,6.977 7.03,8.06 0.003,0.071 -0.002,0.116 0,0.188 0,0 15.726,5.714 16.09,9.438 0.257,2.551 4.444,10.943 7.5,17.719 0.658,2.297 0.988,5.371 -0.75,9 -1.129,1.728 -2.413,3.594 -3.813,5.375 -2.615,2.82 -5.521,4.937 -6.906,5.344 -1.997,0.582 -8.219,-2.594 -8.219,-2.594 l 0,0.063 -9.625,-5.375 c 0,0 2.863,11.157 12.156,16.03 9.293,4.873 6.198,14.777 -0.469,24.406 -6.674,9.625 -22.75,16 -22.75,16 0,0 -3.105,-24.618 -5.156,-29.813 -2.047,-5.198 -6.501,-10.559 -7.469,-14 -0.965,-3.433 8.806,-23.773 8.06,-30.563 -0.744,-6.782 -8.911,-27.572 -26.75,-30.531 0.003,0.004 -0.407,-29.487 -13.688,-28.75 0,0 12.144,16 -2.219,32.656 -4.979,5.776 -8.02,8.611 -9.875,9.906 -7.936,-4.259 -17.09,-2.563 -17.09,-2.563 0,0 4.652,2.871 11.719,5.063 7.07,2.192 4.625,19.656 4.625,19.656 3.305,4.448 7.094,2.219 7.094,2.219 6.449,-5.224 3.814,-15.292 -2.031,-21.19 3.683,-3.912 10.421,-9.982 16.13,-9 8.321,1.433 18.58,9.762 21.313,22.594 2.733,12.824 -6.364,22.283 -17.25,23.19 -10.891,0.912 -51.28,-6.188 -51.28,-6.188 0,0 3.424,2.769 1.938,6.875 -1.479,4.099 -4.219,8.969 -4.219,8.969 0,0 10.15,-7.699 34.03,-5.156 23.881,2.55 31.984,7.363 40.469,23.969 8.485,16.606 0.903,39.598 -4.281,45.13 -5.184,5.527 -26.87,5.685 -29.656,11.375 -2.786,5.69 3.991,12.04 4.906,16.313 0.907,4.277 -4.094,7.313 -4.094,7.313 0,0 13.548,-4.928 23.06,-3.406 9.522,1.519 26.844,12.03 26.844,12.03 0,0 -3.686,1.434 -2.656,4.03 1.029,2.598 3.24,5.261 1.875,7.688 -1.365,2.427 -5.063,3.844 -5.063,3.844 0,0 5.91,1.303 9.844,-3.469 3.934,-4.772 -3.194,-6.155 -0.625,-8.5 2.561,-2.342 7.281,-1.156 7.281,-1.156 0,0 -3.534,-1.127 -9,-9.09 -5.466,-7.966 -7.59,-12.309 -15.969,-12.906 -8.386,-0.598 -18,-0.438 -18,-0.438 0,0 -8.121,-3.978 -4.188,-8.75 3.934,-4.772 31.656,-6.156 31.656,-6.156 0,0 -8.04,-5.628 -7.75,-9.813 0.286,-4.192 6.824,-12.13 18,-17.219 11.176,-5.1 20.21,-13.721 21.406,-31.31 0.701,-10.277 2.64,-15.786 5.656,-19.844 1.019,-0.745 3.995,-2.861 5.469,-2.906 0.827,-0.026 1.28,1.057 1.563,2.188 0.371,6.732 0.644,13.873 0.906,16.781 0.464,5.26 5.208,20.392 0.25,32.22 -2.038,4.86 -3.574,8.06 -4.906,10.813 -0.005,0.016 -0.024,0.072 -0.031,0.094 -0.238,0.493 -0.564,1.107 -0.781,1.563 -0.46,0.767 -1.093,1.54 -1.938,1.875 -1.813,0.717 -5.573,-1.604 -5.656,-1.656 -2.781,-1.687 -5.488,-3.03 -7.25,-3.219 -6.268,-0.66 -6.124,0.097 -6.06,2.25 0.083,2.79 2.688,2.02 11.06,9.06 3.936,3.312 5.817,12.08 6.719,20.469 0.155,6.181 0.13,12.136 -0.813,15.438 -1.147,4.045 -4.403,12.684 -7.281,20.03 0.015,-0.059 0.188,-0.906 0.188,-0.906 0,0 -6.01,13.788 -13.563,13.25 -7.553,-0.538 6.06,2.812 7.875,6.469 -0.58,3.327 -1.705,7.316 -3.875,10.438 -0.813,1.185 -1.402,2.357 -1.969,3.594 l 7.5,1.031 c 1.301,-3.33 2.592,-6.538 3.938,-9.188 3.828,-7.555 11.961,-29.581 14.969,-37.19 3.01,-7.617 3.159,-33.692 4.813,-45.75 1.65,-12.07 3.767,-18.862 5.125,-26.594 1.358,-7.731 2.337,-46.823 -4.688,-65.59 -7.01,-18.762 -15.563,-27.19 -15.563,-27.19 0,0 -26.369,-39.26 -38.875,-50.594 -10.901,-9.866 -44.992,-30.666 -72.44,-33.19 m 12.312,22.75 c -4.083,0.305 -11.12,4.54 -16.5,4.156 -3.819,-0.272 -9.244,-2.079 -14.75,-3.563 -1.244,1.766 -2.464,3.539 -3.656,5.344 6.277,1.75 14.877,5.344 21.531,5.156 8.42,-0.24 18.424,-5.418 16.313,-9.781 -0.528,-1.091 -1.577,-1.414 -2.938,-1.313 m -5.25,22.875 c -4.563,0.283 -12.464,4.01 -15.594,9.563 l -1.563,2.781 c -5.172,-0.06 -10.295,0.813 -14.531,3.656 -11.348,7.608 -6.094,18.938 -6.094,18.938 0,0 8.209,-14.599 20.406,-17.09 12.201,-2.495 25,4.344 25,4.344 7.468,-3.68 6.286,-4.598 -2.031,-6.03 -3.342,-0.579 -8.169,-1.975 -13.5,-2.906 -0.653,-2.01 -1.533,-6.185 2.156,-7.188 4.902,-1.339 11.01,-2.567 8.781,-5.25 -0.416,-0.503 -1.151,-0.767 -2.156,-0.813 -0.272,-0.012 -0.571,-0.019 -0.875,0 m -46.844,14.313 c -3.588,8.02 -6.697,16.314 -9.313,24.813 2.572,0.071 3.853,-2.677 3.969,-4.375 0.171,-2.512 -0.593,-9.291 4.313,-10.625 4.902,-1.331 11.313,-6.781 11.313,-6.781 0,0 -5.646,-0.418 -10.281,-3.03 m 24.344,29.03 c -2.299,0.108 -5.601,1.856 -8.906,3.844 -6.281,3.757 -23.816,31.968 -23.19,40.44 0.625,8.469 -1.641,24.307 2.625,32.19 4.281,7.882 12.36,12.695 19.313,16.563 6.957,3.86 15.562,1.082 24.06,0 8.492,-1.071 0.592,-9.206 -5.281,-11.313 -5.859,-2.098 -6.337,5.441 -14.719,4.844 -8.375,-0.597 -17.987,-18.959 -16.5,-40.75 1.486,-21.784 25.656,-41.12 25.656,-41.12 0.225,-3.302 -0.833,-4.589 -2.625,-4.688 -0.144,-0.008 -0.284,-0.007 -0.438,0 m 35.13,66.906 c -0.082,-0.006 -0.173,0.018 -0.25,0.031 -1.569,0.274 -1.963,4.545 -0.656,10.688 1.819,8.546 2.08,22.08 -0.719,27.781 -2.797,5.689 -14.661,20.825 -28.906,18.13 -14.256,-2.704 -18.752,-7.247 -22,-12.531 -3.247,-5.292 -10.363,-6.626 -11.906,-1.688 -0.715,2.302 -0.155,4.892 0.875,7.344 1.081,12.297 5.108,49.87 24.344,52.34 22.567,2.894 42.542,-2.763 53.34,5.75 10.801,8.513 -2.25,14.656 -2.25,14.656 0,0 -1.9,8.879 8.656,2.531 10.556,-6.348 1.897,1.372 3.063,1 1.166,-0.372 0.09,-0.03 0.094,-0.031 0.01,-0.004 0.021,-0.027 0.031,-0.031 0.346,-0.122 9.11,-3.15 14.03,-2.875 5.01,0.284 13.938,4.719 13.938,4.719 0,0 -3.275,-7.947 -12.06,-8.938 -4.891,-0.556 -10.505,0.004 -14.563,0.625 0.168,-4.719 -0.461,-10.825 -3.875,-13.09 -5.444,-3.617 -13.462,-6.782 -17.06,-9.625 -3.601,-2.835 -29.755,0.851 -36.594,-0.906 -14.329,-3.697 -12.462,-16.527 -17.469,-26.563 -0.883,-1.769 -1.624,-3.835 -2.219,-6.06 0.245,0.107 0.451,0.197 0.719,0.313 7.01,3.03 21.12,7.397 33.375,4.063 12.255,-3.335 24.318,-21.03 24.719,-26.906 0.4,-5.864 4.053,-24.1 8.219,-32.22 0,0 -9.476,-2.369 -12.781,-6.813 -0.813,-1.093 -1.516,-1.645 -2.094,-1.688"
     fill="#009688" />
</svg>
