<?xml version="1.0" encoding="UTF-8" standalone="no"?>
<svg xmlns:dc="http://purl.org/dc/elements/1.1/" xmlns:cc="http://creativecommons.org/ns#" xmlns:rdf="http://www.w3.org/1999/02/22-rdf-syntax-ns#" xmlns:svg="http://www.w3.org/2000/svg" xmlns="http://www.w3.org/2000/svg" xmlns:sodipodi="http://sodipodi.sourceforge.net/DTD/sodipodi-0.dtd" xmlns:inkscape="http://www.inkscape.org/namespaces/inkscape" height="512" viewBox="0 0 512 512" width="512" version="1.1" id="svg2" inkscape:version="0.91 r" sodipodi:docname="plank.svg">
<defs id="defs15" />
<sodipodi:namedview pagecolor="#ffffff" bordercolor="#666666" borderopacity="1" objecttolerance="10" gridtolerance="10" guidetolerance="10" inkscape:pageopacity="0" inkscape:pageshadow="2" inkscape:window-width="640" inkscape:window-height="480" id="namedview13" showgrid="false" inkscape:zoom="0.4609375" inkscape:cx="180.0678" inkscape:cy="256" inkscape:window-x="431" inkscape:window-y="219" inkscape:window-maximized="0" inkscape:current-layer="svg2" />
<metadata id="metadata72">
<rdf:RDF>
<cc:Work rdf:about="">
<dc:format>image/svg+xml</dc:format>
<dc:type rdf:resource="http://purl.org/dc/dcmitype/StillImage" />
</cc:Work>
</rdf:RDF>
</metadata>
<path id="path66" d="m 253.83116,78.531457 c -24.07876,0 -43.54013,17.992749 -43.54013,40.160113 -0.006,16.72875 11.39931,30.53476 27.2116,36.55213 l 0,13.64863 -65.30758,0 c -2.89174,0 -5.44284,2.18537 -5.44284,5.02091 l 0,15.06156 c 0,2.83555 2.36372,5.01972 5.44284,5.01972 l 65.30758,0 0,185.75112 c 0,5.15774 -9.3304,5.26549 -14.6265,5.80427 -7.75808,0 -12.47504,-1.8718 -19.899,-3.76539 -16.76355,-4.5221 -32.76975,-10.78887 -48.12999,-18.35476 -6.46878,-3.30894 -12.78295,-6.53434 -18.54026,-10.8264 -2.48033,-1.95171 -5.36553,-4.77394 -5.10217,-8.00054 0.33542,-2.44569 1.67583,-5.04514 4.59248,-5.4919 2.63364,-0.37654 4.98949,0.92258 7.31259,1.7253 2.00339,0.79302 3.38179,-1.4432 3.06078,-2.97963 -0.32233,-4.04748 -1.80947,-7.79351 -4.08148,-11.29616 -4.72874,-7.17482 -12.00595,-12.51174 -19.55833,-17.0956 -8.06338,-4.75092 -16.66002,-9.97525 -21.76875,-17.57141 -1.015456,-1.40446 -2.144909,-3.72786 -4.42215,-2.98083 -3.165597,0.94922 -4.912183,3.80897 -6.462235,6.27524 -4.361867,7.6567 -6.536912,15.91755 -8.503622,24.31158 -1.616869,6.68326 -1.924773,13.74186 -1.360052,20.55225 0.584381,6.81402 1.090144,13.71885 4.081483,20.08127 1.88415,4.18188 5.200437,7.55378 8.503621,10.8264 2.106902,-2.05583 4.306839,-4.26179 6.462224,-6.27525 2.794801,-2.58855 6.285351,-4.26784 10.374681,-3.76538 5.56601,0.66227 10.58696,3.77265 14.96586,6.74743 6.16087,4.41797 11.92342,9.04299 18.19828,13.3302 9.93312,7.00169 20.88825,12.13158 32.14344,17.09559 9.37626,4.01723 19.01195,8.02961 28.74199,11.29617 1.74264,0.70223 3.66743,0.66227 5.44283,1.24706 17.51301,6.71959 32.2666,14.54094 44.38918,28.554 0.0144,0.19493 -0.0144,0.5981 0,0.77971 0.14151,-0.1695 0.37081,-0.31236 0.51101,-0.46733 0.14151,0.16949 0.37212,0.31236 0.51101,0.46733 0.0982,-0.38985 -0.0852,-0.87051 0,-1.26037 12.08457,-13.85204 26.9823,-21.40339 44.38916,-28.08908 1.77411,-0.58478 3.7002,-0.55936 5.44285,-1.24706 9.73135,-3.26656 19.36573,-7.27652 28.74199,-11.29616 11.25518,-4.97129 22.21031,-10.09875 32.14344,-17.0956 6.27748,-4.29206 12.03741,-8.91707 18.19827,-13.3302 4.37367,-2.97478 9.40116,-6.09001 14.96586,-6.74743 4.08934,-0.5073 7.57989,1.18288 10.37468,3.76538 2.15539,2.01345 4.35532,4.21942 6.46224,6.27525 3.30317,-3.27262 6.61684,-6.64452 8.50362,-10.8264 2.99134,-6.36242 3.4971,-13.26604 4.08148,-20.08128 0.56472,-6.81038 0.25549,-13.86898 -1.36006,-20.55224 -1.96671,-8.40009 -4.14175,-16.66093 -8.50363,-24.31157 -1.55004,-2.46627 -3.29794,-5.32846 -6.46223,-6.27525 -2.27724,-0.74097 -3.40537,1.57638 -4.42214,2.98083 -5.10873,7.59738 -13.70538,12.82049 -21.76876,17.57141 -7.55237,4.5887 -14.82958,9.92562 -19.55833,17.0956 -2.27331,3.50387 -3.75915,7.24868 -4.08147,11.29616 -0.32102,1.53642 1.05738,3.7775 3.06077,2.97963 2.32442,-0.80514 4.68551,-2.1091 7.31259,-1.72531 2.91665,0.45524 4.25706,3.04985 4.59249,5.49191 0.26337,3.22661 -2.62053,6.04883 -5.10218,8.00054 -5.75468,4.29206 -12.07017,7.51746 -18.54025,10.82641 -15.36287,7.56709 -31.36646,13.83265 -48.1313,18.35475 -7.42266,1.8948 -12.13961,3.7218 -19.89901,3.76539 -6.66532,1.09208 -14.62649,-2.2435 -14.62649,-5.80427 l 0,-185.76323 65.30363,0 c 2.51571,0 5.44285,-2.01345 5.44285,-5.01972 l 0,-15.06155 c 0,-2.92271 -2.55109,-5.02093 -5.44285,-5.02093 l -65.30756,0 0,-13.64862 c 15.8149,-6.01494 27.21684,-19.82702 27.21159,-36.55212 0.008,-22.169792 -19.46006,-40.16012 -43.54012,-40.16012 z m -0.85036,19.610292 c 11.68888,0 21.26298,8.535691 21.25905,19.297921 0.003,10.76224 -9.57017,19.61029 -21.25905,19.61029 -11.68888,0 -21.43333,-8.84805 -21.4294,-19.61029 -0.003,-10.76223 9.74052,-19.297921 21.4294,-19.297921" inkscape:connector-curvature="0" style="fill:#009688" />
</svg>
