<?xml version="1.0" encoding="UTF-8" standalone="no"?>
<svg
   xmlns:dc="http://purl.org/dc/elements/1.1/"
   xmlns:cc="http://creativecommons.org/ns#"
   xmlns:rdf="http://www.w3.org/1999/02/22-rdf-syntax-ns#"
   xmlns:svg="http://www.w3.org/2000/svg"
   xmlns="http://www.w3.org/2000/svg"
   xmlns:sodipodi="http://sodipodi.sourceforge.net/DTD/sodipodi-0.dtd"
   xmlns:inkscape="http://www.inkscape.org/namespaces/inkscape"
   sodipodi:docname="plank-config.svg"
   inkscape:version="0.91 r13725"
   id="svg2"
   version="1.1"
   width="512"
   viewBox="0 0 512 512"
   height="512">
  <defs
     id="defs17" />
  <sodipodi:namedview
     inkscape:current-layer="svg2"
     inkscape:window-maximized="1"
     inkscape:window-y="0"
     inkscape:window-x="0"
     inkscape:cy="228.02015"
     inkscape:cx="-10.59243"
     inkscape:zoom="1.250948"
     showgrid="false"
     id="namedview15"
     inkscape:window-height="1022"
     inkscape:window-width="1920"
     inkscape:pageshadow="2"
     inkscape:pageopacity="0"
     guidetolerance="10"
     gridtolerance="10"
     objecttolerance="10"
     borderopacity="1"
     bordercolor="#666666"
     pagecolor="#ffffff" />
  <metadata
     id="metadata28">
    <rdf:RDF>
      <cc:Work
         rdf:about="">
        <dc:format>image/svg+xml</dc:format>
        <dc:type
           rdf:resource="http://purl.org/dc/dcmitype/StillImage" />
        <dc:title></dc:title>
      </cc:Work>
    </rdf:RDF>
  </metadata>
  <g
     id="g4317"
     transform="matrix(1.3325502,0,0,1.3325502,-90.797044,-84.134)">
    <g
       transform="matrix(0.41161634,0,0,0.41161634,279.67844,85.758995)"
       id="g4218">
      <rect
         style="opacity:1;fill:#009688;fill-opacity:1;stroke:none;stroke-width:13.5;stroke-linejoin:round;stroke-miterlimit:4;stroke-dasharray:none;stroke-opacity:1"
         id="rect4163"
         width="29.16226"
         height="220.04251"
         x="236.61198"
         y="135.54173"
         rx="2.2835701"
         ry="3.3552899" />
      <rect
         style="opacity:1;fill:#009688;fill-opacity:1;stroke:none;stroke-width:13.5;stroke-linejoin:round;stroke-miterlimit:4;stroke-dasharray:none;stroke-opacity:1"
         id="rect4163-3"
         width="29.16226"
         height="220.04251"
         x="323.43597"
         y="131.56506"
         rx="2.2835701"
         ry="3.3552899" />
      <rect
         style="opacity:1;fill:#009688;fill-opacity:1;stroke:none;stroke-width:13.5;stroke-linejoin:round;stroke-miterlimit:4;stroke-dasharray:none;stroke-opacity:1"
         id="rect4163-3-6"
         width="29.16226"
         height="220.04251"
         x="149.78799"
         y="131.56505"
         rx="2.2835701"
         ry="3.3552899" />
      <circle
         style="opacity:1;fill:#009688;fill-opacity:1;stroke:none;stroke-width:13.5;stroke-linejoin:round;stroke-miterlimit:4;stroke-dasharray:none;stroke-opacity:1"
         id="path4195"
         cx="165.69467"
         cy="237.60963"
         r="35.790047" />
      <circle
         style="opacity:1;fill:#009688;fill-opacity:1;stroke:none;stroke-width:13.5;stroke-linejoin:round;stroke-miterlimit:4;stroke-dasharray:none;stroke-opacity:1"
         id="path4195-7"
         cx="250.53033"
         cy="299.91083"
         r="35.790047" />
      <circle
         style="opacity:1;fill:#009688;fill-opacity:1;stroke:none;stroke-width:13.5;stroke-linejoin:round;stroke-miterlimit:4;stroke-dasharray:none;stroke-opacity:1"
         id="path4195-5"
         cx="339.34265"
         cy="177.95955"
         r="35.790047" />
    </g>
    <path
       d="m 251.02515,102.32885 c -19.23612,0 -34.76409,14.98331 -34.76409,33.45462 0,13.94043 10.59148,25.43575 23.17606,30.46495 l 0,28.73833 -53.64101,0 c -2.30602,0 -4.34551,2.94334 -4.34551,5.29574 l 0,12.53825 c 0,2.39869 1.94682,5.84035 4.34551,5.29574 l 53.64101,0 0,135.20913 c 0,4.34551 -8.92277,4.39188 -13.12924,4.84379 -6.19958,0 -10.00049,-1.54122 -15.88716,-3.08243 -13.39578,-3.80085 -26.16583,-9.00388 -38.42596,-15.34255 -5.20302,-2.75793 -10.23223,-5.43478 -14.84427,-9.00389 -1.94678,-1.68025 -4.25281,-3.98627 -4.07898,-6.65153 0.26634,-2.08582 1.35579,-4.20643 3.66181,-4.57726 2.08587,-0.31291 3.98632,0.76481 5.8404,1.44851 1.58754,0.63736 2.71159,-1.21676 2.44506,-2.49144 -0.23189,-3.34891 -1.40213,-6.47771 -3.20987,-9.37472 -3.80091,-6.02576 -9.64125,-10.45239 -15.66701,-14.25324 -6.43138,-3.93994 -13.30307,-8.28546 -17.42843,-14.67046 -0.81114,-1.13564 -1.71503,-3.1288 -3.53437,-2.49143 -2.53777,0.7648 -3.93989,3.16353 -5.15665,5.20302 -3.48799,6.33863 -5.20303,13.26828 -6.79057,20.27906 -1.26313,5.56226 -1.49488,11.44899 -1.04293,17.11551 0.45213,5.65498 0.85751,11.40261 3.20987,16.74468 1.54121,3.488 4.16009,6.29234 6.79061,9.05026 1.68025,-1.71503 3.44162,-3.5807 5.15665,-5.20303 2.21332,-2.17853 5.02921,-3.5807 8.33179,-3.12875 4.43822,0.54465 8.45927,3.16354 11.94727,5.6086 4.93649,3.62708 9.50221,7.47426 14.53141,11.13613 7.92621,5.84034 16.66357,10.09315 25.6675,14.2185 7.47426,3.34891 15.16873,6.65154 22.94426,9.42105 1.40218,0.59099 2.89701,0.54466 4.34552,1.04294 13.98675,5.52748 25.80658,12.13268 35.49416,23.81337 0,0.18533 0,0.49833 0,0.6837 0.0927,-0.13923 0.26634,-0.31291 0.40557,-0.40557 0.0927,0.13922 0.26634,0.31291 0.40557,0.40557 0.0927,-0.35947 -0.0927,-0.76481 0,-1.08927 9.64125,-11.54165 21.54214,-17.83399 35.44778,-23.4078 1.44851,-0.49828 2.98972,-0.45214 4.39189,-1.04294 7.7408,-2.71159 15.48159,-6.06054 22.94427,-9.42105 8.95755,-4.11376 17.74128,-8.42449 25.66754,-14.2185 4.98283,-3.66187 9.59487,-7.50905 14.53137,-11.13613 3.48799,-2.44506 7.50905,-5.11032 11.94727,-5.6086 3.25624,-0.40557 6.02576,0.99656 8.28545,3.12875 1.71503,1.6803 3.48799,3.53438 5.15665,5.20303 2.63052,-2.71159 5.29574,-5.56226 6.79062,-9.05026 2.39873,-5.29569 2.8043,-11.04337 3.2562,-16.74468 0.45213,-5.65498 0.18532,-11.58803 -1.08927,-17.11551 -1.54121,-7.01078 -3.3489,-13.89405 -6.79057,-20.27906 -1.21675,-2.03949 -2.66526,-4.43822 -5.15669,-5.20302 -1.8077,-0.63737 -2.7116,1.30946 -3.53433,2.49143 -4.11376,6.33863 -10.95071,10.68414 -17.42842,14.67046 -6.06055,3.80085 -11.85456,8.23907 -15.70175,14.25324 -1.80774,2.89701 -2.98971,6.02581 -3.25625,9.37472 -0.23188,1.26313 0.85752,3.16354 2.5841,2.53781 1.71504,-0.68369 3.62708,-1.76141 5.79402,-1.4485 2.3524,0.35947 3.44166,2.53777 3.62708,4.57726 0.26634,2.66526 -2.08587,5.0292 -4.07898,6.65153 -4.61204,3.53432 -9.64125,6.24592 -14.79795,9.00388 -12.27172,6.33867 -25.03013,11.5417 -38.39117,15.29618 -6.02576,1.58759 -9.78028,3.1288 -15.88716,3.1288 -5.34207,0.90385 -13.26828,-1.85407 -13.26828,-4.84379 l 0,-135.20917 53.64101,0 c 2.1322,0 4.34552,-2.75797 4.34552,-5.29574 l 0,-12.53825 c 0,-2.44506 -2.08587,-4.79746 -4.34552,-5.29574 l -53.64101,0 0,-28.73833 c 12.77,-5.0292 23.17606,-16.52452 23.17606,-30.4649 0,-18.51769 -15.5743,-33.501 -34.76409,-33.501 m -0.73007,16.3391 c 9.32838,0 17.02285,7.05711 17.02285,16.07263 0,8.95755 -7.64814,16.33911 -17.02285,16.33911 -9.32834,0 -17.11552,-7.38156 -17.11552,-16.33911 0,-8.95755 7.7408,-16.07263 17.11552,-16.07263 m 0,0"
       id="path45"
       inkscape:connector-curvature="0"
       style="fill:#009688;fill-opacity:1;fill-rule:nonzero;stroke:none" />
  </g>
</svg>
