<?xml version="1.0" encoding="UTF-8" standalone="no"?>
<svg
   xmlns:dc="http://purl.org/dc/elements/1.1/"
   xmlns:cc="http://creativecommons.org/ns#"
   xmlns:rdf="http://www.w3.org/1999/02/22-rdf-syntax-ns#"
   xmlns:svg="http://www.w3.org/2000/svg"
   xmlns="http://www.w3.org/2000/svg"
   xmlns:sodipodi="http://sodipodi.sourceforge.net/DTD/sodipodi-0.dtd"
   xmlns:inkscape="http://www.inkscape.org/namespaces/inkscape"
   version="1.1"
   viewBox="0 0 512 512"
   id="svg2"
   inkscape:version="0.91 r13725"
   sodipodi:docname="accessories-podcast.svg">
  <defs
     id="defs19" />
  <sodipodi:namedview
     pagecolor="#adabab"
     bordercolor="#666666"
     borderopacity="1"
     objecttolerance="10"
     gridtolerance="10"
     guidetolerance="10"
     inkscape:pageopacity="0"
     inkscape:pageshadow="2"
     inkscape:window-width="1680"
     inkscape:window-height="991"
     id="namedview17"
     showgrid="false"
     inkscape:zoom="0.4609375"
     inkscape:cx="256"
     inkscape:cy="256"
     inkscape:window-x="0"
     inkscape:window-y="0"
     inkscape:window-maximized="1"
     inkscape:current-layer="svg2" />
  <metadata
     id="metadata4780">
    <rdf:RDF>
      <cc:Work
         rdf:about="">
        <dc:format>image/svg+xml</dc:format>
        <dc:type
           rdf:resource="http://purl.org/dc/dcmitype/StillImage" />
        <dc:title></dc:title>
      </cc:Work>
    </rdf:RDF>
  </metadata>
  <path
     style="fill:#009688"
     d="m 239.17,386.87 c -1.283,0.463 -2.599,0.901 -3.898,1.331 1.293,-0.428 2.62,-0.871 3.898,-1.331"
     id="path4770"
     inkscape:connector-curvature="0" />
  <path
     style="opacity:0.99999999;fill:#009688"
     d="m 255.84,96.53 c -77.19,0 -139.28,62.44 -139.28,139.63 0,59.841 37.32,110.99 90.06,130.97 -1.872,-9.929 -3.534,-19.89 -5,-29.875 -35.893,-19.365 -60.22,-57.37 -60.22,-101.09 0,-63.37 51.07,-114.75 114.44,-114.75 63.37,0 114.75,51.38 114.75,114.75 0,43.583 -24.299,81.48 -60.09,100.91 -1.347,10.04 -3.226,20.03 -5.313,30 52.78,-20 90.25,-71.1 90.25,-130.91 0,-77.19 -62.41,-139.62 -139.59,-139.62 m 0,51.41 c -48.629,0 -87.91,39.589 -87.91,88.22 0,26.52 11.682,50.32 30.19,66.5 0.949,-9.159 4.514,-18.03 10.5,-24.906 -9.628,-11.153 -15.469,-25.705 -15.469,-41.594 0,-34.807 27.879,-63.03 62.688,-63.03 34.809,0 63,28.22 63,63.03 0,15.944 -5.928,30.551 -15.688,41.719 3.714,4.067 6.942,8.82 8.531,14.09 0.422,3.937 0.664,7.858 0.781,11.781 19.295,-16.197 31.594,-40.498 31.594,-67.59 0,-48.63 -39.59,-88.22 -88.22,-88.22"
     id="path4772"
     inkscape:connector-curvature="0" />
  <path
     style="fill:#009688"
     d="m 255.97,202.94 c -9.206,0 -17.537,3.723 -23.563,9.75 -6.03,6.03 -9.75,14.357 -9.75,23.563 0,9.196 3.725,17.528 9.75,23.563 6.03,6.03 14.357,9.75 23.563,9.75 9.196,0 17.537,-3.724 23.563,-9.75 6.03,-6.03 9.75,-14.367 9.75,-23.563 0,-9.205 -3.716,-17.528 -9.75,-23.563 -6.03,-6.03 -14.366,-9.75 -23.563,-9.75 m -0.281,77.906 c -2.447,0.124 -34.376,0.307 -37.16,19.875 -0.184,1.336 -0.281,2.981 -0.281,4.844 0.008,26.604 17.625,103.74 17.625,103.75 0,0 0.862,6.156 8.219,6.156 l 23.5,0 c 7.365,0 8.179,-6.139 8.188,-6.156 0,0 17.625,-77.15 17.625,-103.75 0,-1.863 -0.059,-3.508 -0.25,-4.844 -2.781,-19.556 -34.71,-19.866 -37.16,-19.875 l -0.313,0"
     id="path4774"
     inkscape:connector-curvature="0" />
</svg>
