<?xml version="1.0" encoding="UTF-8" standalone="no"?>
<svg
   xmlns:dc="http://purl.org/dc/elements/1.1/"
   xmlns:cc="http://creativecommons.org/ns#"
   xmlns:rdf="http://www.w3.org/1999/02/22-rdf-syntax-ns#"
   xmlns:svg="http://www.w3.org/2000/svg"
   xmlns="http://www.w3.org/2000/svg"
   xmlns:xlink="http://www.w3.org/1999/xlink"
   xmlns:sodipodi="http://sodipodi.sourceforge.net/DTD/sodipodi-0.dtd"
   xmlns:inkscape="http://www.inkscape.org/namespaces/inkscape"
   height="512"
   viewBox="0 0 512 512"
   width="512"
   version="1.1"
   id="svg2"
   inkscape:version="0.91 r13725"
   sodipodi:docname="popcorntime.svg">
  <sodipodi:namedview
     pagecolor="#d1c6c4"
     bordercolor="#666666"
     borderopacity="1"
     objecttolerance="10"
     gridtolerance="10"
     guidetolerance="10"
     inkscape:pageopacity="0"
     inkscape:pageshadow="2"
     inkscape:window-width="1680"
     inkscape:window-height="991"
     id="namedview42"
     showgrid="false"
     inkscape:zoom="0.4609375"
     inkscape:cx="180.0678"
     inkscape:cy="256"
     inkscape:window-x="0"
     inkscape:window-y="0"
     inkscape:window-maximized="1"
     inkscape:current-layer="svg2" />
  <metadata
     id="metadata70">
    <rdf:RDF>
      <cc:Work
         rdf:about="">
        <dc:format>image/svg+xml</dc:format>
        <dc:type
           rdf:resource="http://purl.org/dc/dcmitype/StillImage" />
        <dc:title></dc:title>
      </cc:Work>
    </rdf:RDF>
  </metadata>
  <defs
     id="defs68">
    <path
       id="0-9"
       d="m206.03 244.69c0 11.196-9.08 20.273-20.273 20.273-11.196 0-20.273-9.08-20.273-20.273 0-11.196 9.08-20.273 20.273-20.273 11.196 0 20.273 9.08 20.273 20.273" />
  </defs>
  <g
     id="g39"
     transform="translate(1093.4 -47.406)"
     font-size="208.33"
     font-family="Gentium Book Basic"
     word-spacing="0"
     letter-spacing="0" />
  <path
     style="fill:#009688"
     inkscape:connector-curvature="0"
     d="m 320.10135,71.935646 c -24.27931,0.213344 -46.99968,7.105868 -68.40932,17.430014 -3.585,1.193607 -7.1728,2.96868 -11.67811,5.665452 -26.83664,16.060708 -41.19479,31.673818 -57.43538,62.530518 l -8.3664,15.86132 -1.56871,-7.23416 c -8.3664,-19.12281 -19.45468,-30.94176 -37.81615,-33.46562 -9.72177,-1.30516 -20.025,-0.4239 -27.01653,0.91473 -12.619325,2.52526 -29.269869,13.02928 -39.349994,26.36254 -21.643894,28.63682 -18.947122,56.46906 6.840931,70.50511 6.15907,3.35214 13.129681,6.19392 15.463909,6.31803 2.33841,0.1241 0.06693,1.51989 -5.054704,3.1374 -30.363084,9.5879 -43.102333,29.08442 -34.206054,52.37789 2.691194,7.04172 11.252817,17.44117 17.952914,22.83332 -1.295398,1.95634 -2.491794,3.9838 -3.617076,6.05727 -1.353963,0.28864 -2.392792,2.58662 -3.05095,6.40588 -4.273839,9.85842 -6.666631,20.75287 -6.666631,32.19672 0,44.35451 35.576749,80.26173 79.480865,80.26173 20.33315,0 38.62491,-7.88115 52.68187,-20.56741 41.39419,18.53577 90.02253,16.36608 129.6793,-6.53696 11.76177,6.94551 25.61236,11.06876 40.2201,11.06876 42.06908,0 76.51079,-33.07101 79.30657,-74.86261 0.0446,-9.80264 0.47688,-9.3146 -0.30538,-13.94401 -0.198,-1.90196 -0.45736,-3.76209 -0.78505,-5.61944 6.34732,-2.60195 19.91066,-15.42207 23.88609,-23.09546 10.52076,-20.34292 -8.15445,-55.02307 -34.55465,-64.09922 l -7.97458,-2.74558 5.70868,-7.71243 c 15.35236,-20.80726 20.10587,-53.77369 11.54703,-80.48344 -1.15874,-3.61708 -2.29378,-6.49233 -3.44277,-8.80285 -6.36963,-13.9719 -16.54736,-30.60293 -27.1476,-39.87151 C 388.00311,90.216245 373.53759,82.319751 360.32564,77.680579 346.45135,73.530841 333.0386,71.815728 320.10553,71.928674 M 257.53178,273.11287 c 42.16669,0 42.91688,0.30816 41.48344,20.13236 -1.15317,15.94358 -5.28199,23.02714 -19.17302,32.85627 -11.28768,7.98713 -28.32168,10.17773 -39.6972,5.05471 -17.18042,-7.73893 -25.056,-19.83536 -25.056,-38.25958 0,-19.09772 1.55058,-19.78376 42.44278,-19.78376"
     id="path107" />
  <use
     y="0"
     x="0"
     width="1"
     height="1"
     transform="matrix(1.3944011,0,0,1.3944011,-94.356489,-93.779164)"
     xlink:href="#0-9"
     id="use109" />
  <use
     y="0"
     x="0"
     width="1"
     height="1"
     transform="matrix(1.3944011,0,0,1.3944011,88.323999,-93.779164)"
     xlink:href="#0-9"
     id="use113" />
</svg>
