<?xml version="1.0" encoding="UTF-8" standalone="no"?>
<svg
   xmlns:dc="http://purl.org/dc/elements/1.1/"
   xmlns:cc="http://creativecommons.org/ns#"
   xmlns:rdf="http://www.w3.org/1999/02/22-rdf-syntax-ns#"
   xmlns:svg="http://www.w3.org/2000/svg"
   xmlns="http://www.w3.org/2000/svg"
   xmlns:sodipodi="http://sodipodi.sourceforge.net/DTD/sodipodi-0.dtd"
   xmlns:inkscape="http://www.inkscape.org/namespaces/inkscape"
   height="512"
   viewBox="0 0 512 512"
   width="512"
   version="1.1"
   id="svg2"
   inkscape:version="0.91 r13725"
   sodipodi:docname="Postinstaller1.svg">
  <defs
     id="defs17" />
  <sodipodi:namedview
     pagecolor="#ffffff"
     bordercolor="#666666"
     borderopacity="1"
     objecttolerance="10"
     gridtolerance="10"
     guidetolerance="10"
     inkscape:pageopacity="0"
     inkscape:pageshadow="2"
     inkscape:window-width="1920"
     inkscape:window-height="1022"
     id="namedview15"
     showgrid="false"
     inkscape:zoom="1.2867932"
     inkscape:cx="318.21065"
     inkscape:cy="323.03551"
     inkscape:window-x="0"
     inkscape:window-y="0"
     inkscape:window-maximized="1"
     inkscape:current-layer="svg2" />
  <metadata
     id="metadata28">
    <rdf:RDF>
      <cc:Work
         rdf:about="">
        <dc:format>image/svg+xml</dc:format>
        <dc:type
           rdf:resource="http://purl.org/dc/dcmitype/StillImage" />
        <dc:title></dc:title>
      </cc:Work>
    </rdf:RDF>
  </metadata>
  <g
     id="g4700"
     transform="matrix(1.4752653,0,0,1.4752653,-172.20153,-82.858213)"
     style="fill:#009688;fill-opacity:1">
    <path
       style="fill:#009688;fill-opacity:1"
       d="m 168.81951,335.16135 c -9.65713,-11.38251 -17.50469,-21.56003 -17.43902,-22.61668 0.0657,-1.05667 11.72032,-10.77485 25.89924,-21.59597 14.17891,-10.82111 43.23549,-33.49989 64.57017,-50.39727 l 38.79033,-30.72252 -3.49521,-9.78433 c -10.07247,-28.1964 -5.43547,-59.58077 11.41067,-77.23021 14.2426,-14.92175 30.84113,-20.17665 59.45297,-18.82212 14.87248,0.70409 24.56549,2.37701 29.94875,5.16888 l 7.95929,4.12787 -5.64461,2.88932 c -3.10456,1.58912 -19.96671,7.91279 -37.47146,14.05259 l -31.82681,11.16326 0,8.9307 c 0,15.31964 6.92512,40.27047 14.2438,51.31967 8.09823,12.2261 25.25566,28.07421 35.99743,33.2504 l 7.41971,3.57537 22.27204,-20.44428 c 12.24964,-11.24436 24.91114,-23.90428 28.13666,-28.13317 8.00654,-10.49712 10.79665,-7.7109 9.42241,9.40927 -1.98086,24.67734 -18.72806,49.96423 -40.02712,60.43765 -6.64851,3.26928 -13.97187,4.50846 -26.54203,4.49113 -15.00844,-0.0206 -19.31088,-1.03466 -31.76115,-7.48533 l -14.40107,-7.46142 -28.53244,23.72562 c -42.59927,35.42263 -89.5264,74.10802 -95.52465,78.74779 -5.28981,4.09177 -5.33155,4.06147 -22.8579,-16.59622 z M 347.7642,206.4888 327.84499,196.33288 326.35344,185.4508 c -0.82036,-5.98515 -1.49156,-16.27818 -1.49156,-22.8734 l 0,-11.99131 21.2123,-11.62597 21.2123,-11.62597 21.03057,11.10269 21.03055,11.10269 0.6317,22.67503 0.63172,22.67504 -19.73172,10.99471 c -10.85243,6.0471 -20.51114,10.942 -21.4638,10.87757 -0.95264,-0.0644 -10.69573,-4.68732 -21.6513,-10.27308 z m 31.51619,-24.35599 c 5.36278,-5.92581 3.49331,-15.98258 -4.0074,-21.5578 -5.29699,-3.93721 -7.23465,-4.25507 -12.18614,-1.99901 -8.20847,3.74002 -11.96396,12.62971 -8.52451,20.17849 4.65668,10.2203 16.99948,11.90724 24.71805,3.37832 z"
       id="path4714"
       inkscape:connector-curvature="0" />
    <path
       style="fill:#009688;fill-opacity:1"
       d="m 168.90124,334.81422 c -9.70579,-11.63246 -17.10426,-22.0279 -16.44104,-23.10101 0.66321,-1.0731 28.73523,-23.46061 62.38225,-49.75002 33.64703,-26.2894 62.22217,-49.05898 63.50031,-50.59905 1.58111,-1.90512 1.20917,-6.03568 -1.16364,-12.92282 -13.24365,-38.43996 -1.13149,-74.3861 29.76336,-88.33092 16.13876,-7.28446 55.36307,-7.92798 69.99964,-1.14843 l 9.25871,4.28857 -6.94403,3.07242 c -3.81922,1.68984 -20.87637,8.0745 -37.90479,14.18814 l -30.96076,11.1157 1.24429,16.21535 c 0.68435,8.91844 3.50776,22.2406 6.27423,29.60479 6.00076,15.97368 25.10586,37.71338 40.1625,45.70091 l 10.25412,5.4398 17.76577,-15.90029 c 9.77118,-8.74516 22.78399,-21.39101 28.91735,-28.1019 6.13339,-6.71088 11.79537,-11.55783 12.58222,-10.77098 3.10437,3.10436 1.17099,22.01145 -3.53773,34.59665 -5.72617,15.30456 -21.54363,33.51049 -35.4815,40.83933 -15.08462,7.9318 -37.65281,7.00653 -57.41424,-2.35392 l -15.69307,-7.43337 -46.80322,38.46525 c -25.74177,21.15589 -53.05285,43.69828 -60.69129,50.09418 -7.63843,6.39591 -15.58332,13.04927 -17.65531,14.78523 -3.33075,2.7906 -5.81193,0.70574 -21.41413,-17.99361 z M 347.71408,206.46361 327.74474,196.2825 326.07546,174.01736 c -0.91811,-12.24583 -1.30635,-22.57903 -0.86276,-22.96268 3.16983,-2.74151 39.33619,-22.13339 41.27934,-22.13339 1.34267,0 11.79484,4.69768 23.22705,10.43928 l 20.78585,10.43928 -0.0562,22.54487 -0.0562,22.54488 -19.6136,10.99471 c -10.78746,6.0471 -20.39699,10.942 -21.35448,10.87757 -0.95749,-0.0644 -10.72709,-4.69866 -21.71022,-10.29827 z m 28.91589,-22.15806 c 14.66734,-11.53734 -0.4147,-34.48915 -15.96717,-24.29878 -10.5481,6.91137 -9.4281,22.17536 1.9639,26.7653 7.13549,2.87495 7.23496,2.85743 14.00327,-2.46652 z"
       id="path4712"
       inkscape:connector-curvature="0" />
    <path
       style="fill:#009688;fill-opacity:1"
       d="m 170.61283,336.65712 c -8.89655,-10.49931 -16.902,-20.31129 -17.78991,-21.80444 -1.0248,-1.72337 21.17035,-20.598 60.7753,-51.68296 34.31432,-26.93248 63.4967,-50.30202 64.84973,-51.93233 1.7648,-2.12645 1.3994,-5.83667 -1.29293,-13.12801 -4.74558,-12.85193 -5.40606,-44.17005 -1.18482,-56.18124 4.48626,-12.76529 16.859,-25.45571 30.97228,-31.76753 10.24708,-4.58275 15.90998,-5.42303 36.43682,-5.40662 18.24273,0.0146 26.61321,1.04564 33.56282,4.13415 11.26533,5.00649 12.60124,4.16457 -32.12263,20.24438 l -34.43731,12.38142 1.22562,17.88141 c 0.83447,12.17469 3.10504,21.98661 7.1146,30.74463 7.09581,15.49931 25.66591,35.74855 39.5283,43.10253 l 10.11538,5.36619 15.86142,-14.07937 c 8.72376,-7.74366 21.80361,-20.31828 29.06635,-27.94359 7.26272,-7.62531 13.77275,-13.2964 14.46673,-12.60241 2.90122,2.90122 0.92666,22.04437 -3.49199,33.85425 -5.62945,15.04607 -22.15757,34.29295 -35.49252,41.33081 -15.27705,8.06285 -37.68119,7.15984 -57.7239,-2.3266 l -15.79915,-7.47791 -31.49374,26.00044 c -74.41398,61.4343 -89.87751,74.22925 -93.32379,77.21873 -3.1973,2.77349 -5.64218,0.80921 -19.82266,-15.92593 z M 347.42999,206.35037 327.17656,195.997 l -0.0316,-16.75644 c -0.0174,-9.21605 -0.63952,-19.02302 -1.38253,-21.79327 -1.44867,-5.40126 2.86298,-8.81756 28.76003,-22.78778 l 12.30049,-6.63553 21.84101,10.8495 21.84099,10.8495 -0.0324,22.58331 -0.0324,22.58331 -19.06361,10.41604 c -10.48514,5.72883 -20.10536,10.63701 -21.37843,10.90707 -1.27307,0.27006 -11.42872,-4.16799 -22.5681,-9.86234 z m 27.14403,-19.95897 c 11.54533,-5.2604 10.26145,-23.98728 -1.92246,-28.04168 -15.32208,-5.09866 -26.7175,15.88515 -14.04139,25.85617 7.23114,5.68802 8.03512,5.79809 15.96385,2.18551 z"
       id="path4710"
       inkscape:connector-curvature="0" />
    <path
       style="fill:#009688;fill-opacity:1"
       d="m 171.81647,337.73773 c -8.12278,-9.82365 -16.11917,-19.58747 -17.76976,-21.69737 -2.64995,-3.38732 1.2769,-7.1667 33.56282,-32.30229 77.84956,-60.60829 93.68291,-74.03837 92.04823,-78.07666 -0.85221,-2.10528 -3.16617,-11.86724 -5.14215,-21.69324 -3.28727,-16.34677 -3.26809,-19.18079 0.22573,-33.3387 7.26607,-29.44418 23.16718,-42.04621 58.4178,-46.29759 13.24203,-1.59706 42.48813,2.61122 48.45155,6.97178 3.34031,2.44249 -1.62197,4.86158 -33.66401,16.41107 l -37.58183,13.54629 1.24282,18.13248 c 2.09114,30.50911 16.83776,55.06074 43.05985,71.69029 5.74762,3.64504 11.63936,6.62734 13.09277,6.62734 1.4534,0 15.30897,-12.0693 30.79015,-26.82067 30.33489,-28.90485 32.48051,-29.53625 29.62711,-8.71848 -4.97436,36.29191 -38.06276,65.78146 -70.20051,62.56517 -6.61157,-0.66168 -18.83062,-4.45296 -27.15343,-8.42507 l -15.13239,-7.22202 -56.17495,46.23271 c -30.89622,25.42798 -59.94508,49.39248 -64.55303,53.25443 l -8.37809,7.02171 -14.76868,-17.86118 z M 347.42999,206.32086 327.17656,195.997 l 0,-23.00058 0,-23.00059 19.95363,-10.87673 19.95363,-10.87673 20.3864,9.99255 c 13.71299,6.72154 20.80951,11.56828 21.67895,14.8062 0.7109,2.6475 1.28788,13.14648 1.28214,23.33106 l -0.0116,18.51742 -20.66567,10.99471 c -11.36613,6.0471 -20.98206,10.942 -21.36875,10.87757 -0.38553,-0.0644 -9.81595,-4.76289 -20.95533,-10.44102 z m 32.40548,-23.57374 c 6.89774,-9.02996 -0.0818,-26.0497 -10.68256,-26.0497 -7.42124,0 -16.5149,8.92177 -16.5149,16.20274 0,13.58719 19.06712,20.49052 27.19746,9.84696 z"
       id="path4708"
       inkscape:connector-curvature="0" />
    <path
       style="fill:#009688;fill-opacity:1"
       d="m 171.97015,337.58878 c -8.05045,-9.73864 -16.01638,-19.36542 -17.70208,-21.39287 -2.693,-3.239 4.5772,-9.69873 59.91707,-53.23759 34.64008,-27.25322 63.89173,-50.17912 65.00367,-50.94645 1.11194,-0.76733 0.26527,-7.43707 -1.88148,-14.82164 -6.03645,-20.76468 -5.35059,-43.84831 1.76459,-59.38992 10.24645,-22.38119 29.25939,-32.46313 61.9927,-32.8727 17.87092,-0.22359 40.35291,3.79662 42.72869,7.64073 0.5199,0.84119 -15.65182,7.60732 -35.93712,15.03584 l -36.88237,13.50639 0,13.3739 c 0,17.70717 6.78435,38.72882 16.98269,52.62175 8.39495,11.4362 32.98816,30.60491 39.26573,30.60491 1.88779,0 16.03888,-12.07776 31.44686,-26.83946 30.23271,-28.9646 32.39147,-29.58719 29.23337,-8.43094 -4.03874,27.05569 -25.29868,52.88693 -49.26089,59.85294 -16.26525,4.72844 -28.66661,3.10659 -46.99624,-6.14619 -7.75955,-3.917 -14.9831,-6.80318 -16.05235,-6.41373 -1.90696,0.69458 -27.27998,21.37498 -95.01075,77.43898 l -33.97491,28.12266 -14.63718,-17.70661 z M 347.42999,206.32086 327.17656,195.997 l 0,-22.70765 0,-22.70765 20.13221,-11.30035 20.1322,-11.30035 19.73628,10.49676 c 22.35882,11.89154 22.76722,12.58335 23.05495,39.05176 l 0.18865,17.36008 -20.66567,10.99471 c -11.36613,6.0471 -20.98206,10.942 -21.36875,10.87757 -0.38664,-0.0644 -9.81706,-4.76289 -20.95644,-10.44102 z m 30.80134,-21.97918 c 6.90822,-6.90822 5.43713,-20.54068 -2.70757,-25.09058 -7.93428,-4.43236 -19.96869,0.027 -22.00878,8.15538 -4.15462,16.55333 13.20424,28.44731 24.71635,16.9352 z"
       id="path4706"
       inkscape:connector-curvature="0" />
    <path
       style="fill:#009688;fill-opacity:1"
       d="m 173.25052,339.00173 c -7.63843,-9.07872 -15.6922,-18.79761 -17.89726,-21.59754 -3.97841,-5.05167 -3.78289,-5.26603 25.46145,-27.91631 16.20886,-12.55405 45.09472,-35.22412 64.19081,-50.37792 19.09609,-15.15381 35.03893,-27.80223 35.42855,-28.10761 0.38961,-0.30538 -0.91239,-6.81004 -2.89335,-14.4548 -4.37076,-16.86732 -4.51206,-42.51652 -0.29926,-54.32156 7.56151,-21.18874 23.69668,-32.7369 51.17789,-36.62872 15.6875,-2.22163 38.51161,0.0387 51.35772,5.08607 6.14274,2.41355 5.46178,2.8716 -15.56567,10.47063 -12.09419,4.37067 -29.02027,10.6014 -37.61351,13.84605 l -15.62407,5.89938 0.0275,13.10704 c 0.0392,18.73012 5.37716,36.29326 15.49566,50.98487 9.24303,13.42046 32.93714,32.71982 40.17062,32.71982 2.34387,0 16.77124,-12.0608 32.06082,-26.80178 26.72179,-25.76301 27.85776,-26.56857 29.30944,-20.78465 3.25932,12.98621 -8.84348,43.09762 -22.53424,56.06444 -21.40098,20.26933 -45.56439,23.63016 -73.3474,10.2017 -15.01438,-7.25695 -16.77918,-7.63072 -20.54004,-4.3503 -2.26289,1.97383 -28.07127,23.12399 -57.35193,47.00036 -29.28067,23.87637 -56.36239,46.3492 -60.18161,49.93959 l -6.94403,6.52799 -13.88807,-16.50675 z m 174.17947,-133.16152 -20.25343,-10.74924 0.008,-22.09012 0.008,-22.09012 19.81739,-11.34414 19.81738,-11.34413 20.10323,10.51411 20.10325,10.51412 1.81992,12.4034 c 1.00093,6.82188 1.52174,17.06215 1.15734,22.75616 l -0.66275,10.35275 -19.67475,10.95568 c -10.82112,6.02562 -20.19556,10.93657 -20.8321,10.91323 -0.63653,-0.0234 -10.27138,-4.87961 -21.41076,-10.7917 z M 379.362,183.42142 c 3.12482,-3.12481 5.68149,-7.85938 5.68149,-10.52126 0,-6.68831 -10.13224,-16.20274 -17.25486,-16.20274 -7.95141,0 -15.15062,7.69916 -15.15062,16.20274 0,14.78062 16.1187,21.12656 26.72399,10.52126 z"
       id="path4704"
       inkscape:connector-curvature="0" />
    <path
       style="fill:#009688;fill-opacity:1"
       d="m 188.29593,352.57106 c 0,-0.48064 1.8228,-2.30345 4.05068,-4.05069 3.67121,-2.87915 3.75308,-2.79728 0.87392,0.87393 -3.02382,3.85568 -4.9246,5.08183 -4.9246,3.17676 z m -35.77865,-38.31564 c -0.73244,-1.18511 -0.44671,-2.7017 0.63495,-3.3702 1.08166,-0.6685 1.96665,0.30113 1.96665,2.15474 0,3.90294 -0.7299,4.24394 -2.6016,1.21546 z m 91.3309,-7.97789 c 0,-0.48066 1.82281,-2.30347 4.05068,-4.05069 3.67121,-2.87916 3.75308,-2.79729 0.87392,0.87392 -3.02382,3.85567 -4.9246,5.08182 -4.9246,3.17677 z m 23.14677,-18.51742 c 0,-0.48066 1.82281,-2.30347 4.05069,-4.05069 3.67121,-2.87916 3.75308,-2.79729 0.87392,0.87392 -3.02383,3.85567 -4.92461,5.08183 -4.92461,3.17677 z m 25.46145,-20.8321 c 0,-0.48065 1.82281,-2.30346 4.05069,-4.05068 3.67121,-2.87916 3.75308,-2.79729 0.87392,0.87392 -3.02383,3.85566 -4.92461,5.08182 -4.92461,3.17676 z m 66.57396,-3.07784 c 2.87926,-0.55365 7.04568,-0.53263 9.25871,0.0467 2.21303,0.57935 -0.14272,1.03234 -5.23501,1.00665 -5.09229,-0.0257 -6.90295,-0.4997 -4.0237,-1.05336 z m -46.35911,-14.85288 c 1.57012,-1.58189 3.43785,-2.29308 4.15051,-1.58043 0.71266,0.71266 -0.57198,2.00694 -2.85477,2.87617 -3.29887,1.25614 -3.56474,0.99027 -1.29574,-1.29574 z m 56.1695,-9.8454 c 0,-0.48066 1.82281,-2.30347 4.05069,-4.05069 3.67121,-2.87916 3.75308,-2.79729 0.87393,0.87392 -3.02384,3.85567 -4.92462,5.08182 -4.92462,3.17677 z M 400.0889,209.935 c 6.26965,-6.36536 11.92017,-11.57339 12.5567,-11.57339 0.63654,0 -3.97238,5.20803 -10.24203,11.57339 -6.26965,6.36536 -11.92017,11.57339 -12.55671,11.57339 -0.63653,0 3.97238,-5.20803 10.24204,-11.57339 z m 26.80153,-15.23829 c 0.1111,-2.69647 0.65954,-3.24495 1.39843,-1.39845 0.66864,1.6709 0.58643,3.66731 -0.18263,4.43646 -0.76916,0.76915 -1.31621,-0.59796 -1.21571,-3.03801 z m -9.44146,-1.83837 c 0,-0.48066 1.82281,-2.30346 4.05069,-4.05069 3.67122,-2.87916 3.75309,-2.79728 0.87393,0.87392 -3.02383,3.85567 -4.92462,5.08183 -4.92462,3.17677 z m -8.67499,-9.54213 c 0.0257,-5.09229 0.49972,-6.90295 1.05336,-4.0237 0.55365,2.87926 0.53263,7.04568 -0.0467,9.25871 -0.5793,2.21304 -1.0323,-0.14272 -1.00661,-5.23501 z m -99.57782,-33.56282 c 0,-4.45575 0.47634,-6.27856 1.05855,-4.05069 0.5822,2.22788 0.5822,5.8735 0,8.10138 -0.58221,2.22787 -1.05855,0.40506 -1.05855,-4.05069 z m 56.89591,5.36284 c 1.67091,-0.66864 3.66732,-0.58641 4.43647,0.18275 0.76914,0.76915 -0.59796,1.31622 -3.03802,1.21571 -2.69646,-0.11106 -3.24494,-0.65954 -1.39845,-1.39845 z m -80.5797,-29.38353 c 0,-0.48066 1.82281,-2.30347 4.05069,-4.05069 3.6712,-2.87916 3.75307,-2.79729 0.87391,0.87392 -3.02382,3.85567 -4.9246,5.08183 -4.9246,3.17677 z"
       id="path4702"
       inkscape:connector-curvature="0" />
  </g>
</svg>
