<?xml version="1.0" encoding="UTF-8" standalone="no"?>
<svg
   xmlns:dc="http://purl.org/dc/elements/1.1/"
   xmlns:cc="http://creativecommons.org/ns#"
   xmlns:rdf="http://www.w3.org/1999/02/22-rdf-syntax-ns#"
   xmlns:svg="http://www.w3.org/2000/svg"
   xmlns="http://www.w3.org/2000/svg"
   xmlns:sodipodi="http://sodipodi.sourceforge.net/DTD/sodipodi-0.dtd"
   xmlns:inkscape="http://www.inkscape.org/namespaces/inkscape"
   viewBox="0 0 512 512"
   version="1.1"
   id="svg2"
   inkscape:version="0.91 r"
   sodipodi:docname="preferences-tweaks-cerbere.svg">
  <defs
     id="defs14" />
  <sodipodi:namedview
     pagecolor="#ffffff"
     bordercolor="#666666"
     borderopacity="1"
     objecttolerance="10"
     gridtolerance="10"
     guidetolerance="10"
     inkscape:pageopacity="0"
     inkscape:pageshadow="2"
     inkscape:window-width="640"
     inkscape:window-height="480"
     id="namedview12"
     showgrid="false"
     inkscape:zoom="0.4609375"
     inkscape:cx="256"
     inkscape:cy="256"
     inkscape:window-x="0"
     inkscape:window-y="0"
     inkscape:window-maximized="0"
     inkscape:current-layer="svg2" />
  <metadata
     id="metadata1222">
    <rdf:RDF>
      <cc:Work
         rdf:about="">
        <dc:format>image/svg+xml</dc:format>
        <dc:type
           rdf:resource="http://purl.org/dc/dcmitype/StillImage" />
      </cc:Work>
    </rdf:RDF>
  </metadata>
  <path
     id="path1216"
     d="M 244.58879,64.830367 C 139.19819,64.830367 53.419153,150.6094 53.419153,256 c 0,105.3906 85.779037,191.16963 191.169637,191.16963 35.91351,0 69.65917,-10.14412 98.3543,-27.38728 l 8.78829,-5.28798 -6.09016,-8.24203 -29.02856,-39.09393 -4.84998,-6.52816 -7.11134,3.9383 c -8.1153,4.46858 -16.847,8.08085 -25.99701,10.68547 l -6.45434,1.82336 -0.29159,6.71026 -0.18209,4.01089 c -9.99525,2.23798 -20.5097,3.42772 -31.28991,3.42772 -10.90447,0 -21.54195,-1.21065 -31.65409,-3.50154 l -0.657,-7.29343 -0.5475,-5.87117 -5.54266,-2.04235 c -16.57017,-6.0348 -31.472,-15.48748 -43.87133,-27.5337 l -4.4858,-4.3763 -5.76167,2.55294 -9.51788,4.19422 c -14.2313,-15.28447 -24.75436,-33.84778 -30.99217,-54.51619 l 10.61165,-6.45435 5.36058,-3.28254 -1.05809,-6.20089 c -1.14298,-6.77177 -1.71386,-13.76131 -1.71386,-20.89603 0,-9.59539 1.06547,-18.87582 3.09922,-27.78837 l 1.49486,-6.52816 -5.76167,-3.50154 -12.03392,-7.33034 c 6.2132,-20.56015 16.66368,-39.02627 30.78301,-54.27013 l 14.55119,7.29343 5.57957,2.80763 4.70481,-4.1204 c 11.41998,-9.97802 24.65594,-17.89155 39.16652,-23.15739 l 5.79858,-2.11494 0.3285,-6.16399 0.76526,-15.24386 c 10.01617,-2.24906 20.55769,-3.42772 31.3625,-3.42772 11.25266,0 22.20757,1.31769 32.60268,3.75622 l 4.52149,18.52886 1.09377,4.4489 0.0369,0 0.1095,0.47367 1.27585,5.36058 5.3249,1.45918 c 2.41269,0.65577 5.74321,1.80736 9.4822,3.28253 l 0.87477,0.36418 0.91168,0.14641 c 0.15625,0.0283 0.14641,0.0123 0.29159,0.0369 3.31452,1.51455 6.55523,3.05985 9.69997,4.63099 l 0.0369,0.0369 0.0369,0 c 0.62132,0.30266 1.27217,0.65208 2.00545,1.02118 17.12874,8.62466 35.42753,22.63941 39.41997,31.65409 l 13.4205,-4.9964 c 5.32244,9.56587 9.54741,19.86993 12.61833,30.7055 l -10.42956,14.69637 -2.15186,3.02662 0.51059,3.64672 c 0.75789,5.47992 1.13068,11.2871 1.13068,17.1029 0,5.81703 -0.37156,11.58485 -1.13068,17.06723 l -0.47368,3.64671 2.11495,2.99095 10.46647,14.80094 -0.72959,2.73504 2.29704,3.53722 8.53361,13.0551 8.75261,13.4205 7.29344,-14.29527 31.3994,-61.59063 0,-0.0369 31.39941,-60.97423 7.40663,-14.44169 -16.19123,0.87477 -37.04542,2.04236 c -6.61675,-13.82283 -14.74804,-26.76596 -24.28806,-38.50952 -2.84208,-3.49908 -5.81334,-6.91449 -8.93471,-10.24747 0.56596,0.60409 0.32973,0.29405 -0.14641,-0.219 -0.0111,-0.0111 -0.0258,-0.0258 -0.0369,-0.0369 -0.4626,-0.49706 -0.97565,-1.05686 -1.56867,-1.67695 l -0.0369,0 0,-0.0369 c -0.46138,-0.4786 -0.73944,-0.70252 -0.80218,-0.76527 -0.006,-0.006 0.006,-0.0295 0,-0.0369 l -0.0369,0 c -1.34107,-1.38782 -2.66983,-2.70059 -3.97522,-3.97522 C 343.20269,85.642734 296.30843,64.837749 244.6097,64.837749 m -4.1573,126.183281 c -33.58449,0 -60.82782,27.23964 -60.82782,60.82782 0,33.58817 27.1166,61.41223 60.82782,61.41223 33.71367,0 61.44913,-27.69979 61.44913,-61.41223 0,-33.71245 -27.86465,-60.82782 -61.44913,-60.82782"
     inkscape:connector-curvature="0"
     style="color:#000000;fill:#009688" />
</svg>
