<?xml version="1.0" encoding="UTF-8" standalone="no"?>
<svg
   xmlns:dc="http://purl.org/dc/elements/1.1/"
   xmlns:cc="http://creativecommons.org/ns#"
   xmlns:rdf="http://www.w3.org/1999/02/22-rdf-syntax-ns#"
   xmlns:svg="http://www.w3.org/2000/svg"
   xmlns="http://www.w3.org/2000/svg"
   xmlns:sodipodi="http://sodipodi.sourceforge.net/DTD/sodipodi-0.dtd"
   xmlns:inkscape="http://www.inkscape.org/namespaces/inkscape"
   version="1.1"
   width="512"
   height="512"
   viewBox="0 0 512 512"
   id="svg2"
   inkscape:version="0.91 r"
   sodipodi:docname="applications-electronics.svg">
  <defs
     id="defs64" />
  <sodipodi:namedview
     pagecolor="#ffffff"
     bordercolor="#666666"
     borderopacity="1"
     objecttolerance="10"
     gridtolerance="10"
     guidetolerance="10"
     inkscape:pageopacity="0"
     inkscape:pageshadow="2"
     inkscape:window-width="647"
     inkscape:window-height="480"
     id="namedview62"
     showgrid="false"
     inkscape:zoom="0.4609375"
     inkscape:cx="256"
     inkscape:cy="256"
     inkscape:window-x="0"
     inkscape:window-y="0"
     inkscape:window-maximized="0"
     inkscape:current-layer="svg2" />
  <metadata
     id="metadata122">
    <rdf:RDF>
      <cc:Work
         rdf:about="">
        <dc:format>image/svg+xml</dc:format>
        <dc:type
           rdf:resource="http://purl.org/dc/dcmitype/StillImage" />
      </cc:Work>
    </rdf:RDF>
  </metadata>
  <text
     x="729.64"
     y="231.36"
     id="text20"
     font-family="Gentium Book Basic"
     word-spacing="0"
     line-height="125%"
     letter-spacing="0"
     font-size="129.23">
    <tspan
       x="729.64"
       y="231.36"
       id="tspan22" />
  </text>
  <text
     x="378.91"
     y="579.25"
     transform="scale(4.0128,0.2492)"
     id="text24"
     font-family="Arial"
     text-anchor="middle"
     font-size="46.954" />
  <text
     x="1310.91"
     y="151.36"
     id="text26"
     font-family="Gentium Book Basic"
     word-spacing="0"
     line-height="125%"
     letter-spacing="0"
     font-size="129.23">
    <tspan
       x="1310.91"
       y="151.36"
       id="tspan28" />
  </text>
  <text
     x="523.76"
     y="258.22"
     transform="scale(4.0128,0.2492)"
     id="text30"
     font-family="Arial"
     text-anchor="middle"
     font-size="46.954" />
  <text
     x="239.33"
     y="-29.901"
     id="text32"
     font-family="Gentium Book Basic"
     word-spacing="0"
     line-height="125%"
     letter-spacing="0"
     font-size="129.23">
    <tspan
       x="239.33"
       y="-29.901"
       id="tspan34" />
  </text>
  <text
     x="256.72"
     y="-469.14"
     transform="scale(4.0128,0.2492)"
     id="text36"
     font-family="Arial"
     text-anchor="middle"
     font-size="46.954" />
  <text
     x="1337.38"
     y="-246.37"
     id="text38"
     font-family="Gentium Book Basic"
     word-spacing="0"
     line-height="125%"
     letter-spacing="0"
     font-size="129.23">
    <tspan
       x="1337.38"
       y="-246.37"
       id="tspan40" />
  </text>
  <text
     x="530.36"
     y="-1337.81"
     transform="scale(4.0128,0.2492)"
     id="text42"
     font-family="Arial"
     text-anchor="middle"
     font-size="46.954" />
  <text
     x="1918.65"
     y="-326.38"
     id="text44"
     font-family="Gentium Book Basic"
     word-spacing="0"
     line-height="125%"
     letter-spacing="0"
     font-size="129.23">
    <tspan
       x="1918.65"
       y="-326.38"
       id="tspan46" />
  </text>
  <text
     x="675.21"
     y="-1658.85"
     transform="scale(4.0128,0.2492)"
     id="text48"
     font-family="Arial"
     text-anchor="middle"
     font-size="46.954" />
  <text
     x="1529.53"
     y="-798.78"
     id="text50"
     font-family="Gentium Book Basic"
     word-spacing="0"
     line-height="125%"
     letter-spacing="0"
     font-size="129.23">
    <tspan
       x="1529.53"
       y="-798.78"
       id="tspan52" />
  </text>
  <text
     x="578.24"
     y="-3554.51"
     transform="scale(4.0128,0.2492)"
     id="text54"
     font-family="Arial"
     text-anchor="middle"
     font-size="46.954" />
  <text
     x="2110.79"
     y="-878.78"
     id="text56"
     font-family="Gentium Book Basic"
     word-spacing="0"
     line-height="125%"
     letter-spacing="0"
     font-size="129.23">
    <tspan
       x="2110.79"
       y="-878.78"
       id="tspan58" />
  </text>
  <text
     x="723.09"
     y="-3875.54"
     transform="scale(4.0128,0.2492)"
     id="text60"
     font-family="Arial"
     text-anchor="middle"
     font-size="46.954" />
  <text
     x="277.99"
     y="535.94"
     id="text62"
     font-family="Gentium Book Basic"
     word-spacing="0"
     line-height="125%"
     letter-spacing="0"
     font-size="208.33">
    <tspan
       x="277.99"
       y="535.94"
       id="tspan64" />
  </text>
  <g
     transform="matrix(5.9246236,0,0,5.9246236,57.36498,57.44498)"
     id="g66"
     style="fill:#009688">
    <path
       d="m 44.28,9.785 c 0.48,0 0.871,-0.389 0.871,-0.869 l 0,-5.203 c 0,-0.48 -0.391,-0.871 -0.871,-0.871 -0.479,0 -0.869,0.391 -0.869,0.871 l 0,5.203 c 0,0.48 0.391,0.869 0.869,0.869"
       inkscape:connector-curvature="0"
       id="path68" />
    <path
       d="m 39.544,9.785 c 0.481,0 0.872,-0.389 0.872,-0.869 l 0,-5.203 c 0,-0.48 -0.391,-0.871 -0.872,-0.871 -0.478,0 -0.868,0.391 -0.868,0.871 l 0,5.203 c 0,0.48 0.39,0.869 0.868,0.869"
       inkscape:connector-curvature="0"
       id="path70" />
    <path
       d="m 34.719,9.785 c 0.479,0 0.867,-0.389 0.867,-0.869 l 0,-5.203 c 0,-0.48 -0.389,-0.871 -0.867,-0.871 -0.48,0 -0.871,0.391 -0.871,0.871 l 0,5.203 c 0,0.48 0.39,0.869 0.871,0.869"
       inkscape:connector-curvature="0"
       id="path72" />
    <path
       d="m 29.98,9.785 c 0.479,0 0.869,-0.389 0.869,-0.869 l 0,-5.203 c 0,-0.48 -0.391,-0.871 -0.869,-0.871 -0.48,0 -0.87,0.391 -0.87,0.871 l 0,5.203 c 0,0.48 0.39,0.869 0.87,0.869"
       inkscape:connector-curvature="0"
       id="path74" />
    <path
       d="m 25.609,9.785 c 0.477,0 0.868,-0.389 0.868,-0.869 l 0,-5.203 c 0,-0.48 -0.391,-0.871 -0.868,-0.871 -0.482,0 -0.871,0.391 -0.871,0.871 l 0,5.203 c 0,0.48 0.389,0.869 0.871,0.869"
       inkscape:connector-curvature="0"
       id="path76" />
    <path
       d="m 20.87,9.785 c 0.479,0 0.868,-0.389 0.868,-0.869 l 0,-5.203 c 0,-0.48 -0.389,-0.871 -0.868,-0.871 -0.48,0 -0.87,0.39 -0.87,0.871 l 0,5.203 c 0,0.48 0.39,0.869 0.87,0.869"
       inkscape:connector-curvature="0"
       id="path78" />
    <path
       d="m 8.912,18.761 -5.201,0 c -0.48,0 -0.869,0.391 -0.869,0.869 0,0.478 0.389,0.869 0.869,0.869 l 5.201,0 c 0.482,0 0.871,-0.391 0.871,-0.869 0,-0.478 -0.389,-0.869 -0.871,-0.869"
       inkscape:connector-curvature="0"
       id="path80" />
    <path
       d="m 8.912,23.5 -5.201,0 c -0.48,0 -0.869,0.389 -0.869,0.868 0,0.48 0.389,0.869 0.869,0.869 l 5.201,0 c 0.482,0 0.871,-0.389 0.871,-0.869 0,-0.48 -0.389,-0.868 -0.871,-0.868"
       inkscape:connector-curvature="0"
       id="path82" />
    <path
       d="m 8.912,28.328 -5.201,0 c -0.48,0 -0.869,0.389 -0.869,0.871 0,0.479 0.389,0.868 0.869,0.868 l 5.201,0 c 0.482,0 0.871,-0.389 0.871,-0.868 0,-0.482 -0.389,-0.871 -0.871,-0.871"
       inkscape:connector-curvature="0"
       id="path84" />
    <path
       d="m 8.912,33.06 -5.201,0 c -0.48,0 -0.869,0.391 -0.869,0.869 0,0.478 0.389,0.869 0.869,0.869 l 5.201,0 c 0.482,0 0.871,-0.391 0.871,-0.869 0,-0.478 -0.389,-0.869 -0.871,-0.869"
       inkscape:connector-curvature="0"
       id="path86" />
    <path
       d="m 8.912,37.434 -5.201,0 c -0.48,0 -0.869,0.391 -0.869,0.869 0,0.482 0.389,0.873 0.869,0.873 l 5.201,0 c 0.482,0 0.871,-0.391 0.871,-0.873 0,-0.479 -0.389,-0.869 -0.871,-0.869"
       inkscape:connector-curvature="0"
       id="path88" />
    <path
       d="m 8.912,42.17 -5.201,0 c -0.48,0 -0.869,0.388 -0.869,0.869 0,0.479 0.389,0.87 0.869,0.87 l 5.201,0 c 0.482,0 0.871,-0.391 0.871,-0.87 0,-0.481 -0.389,-0.869 -0.871,-0.869"
       inkscape:connector-curvature="0"
       id="path90" />
    <path
       d="m 44.28,54.22 c -0.479,0 -0.869,0.391 -0.869,0.869 l 0,5.203 c 0,0.481 0.391,0.869 0.869,0.869 0.48,0 0.871,-0.388 0.871,-0.869 l 0,-5.203 c 0,-0.479 -0.39,-0.869 -0.871,-0.869"
       inkscape:connector-curvature="0"
       id="path92" />
    <path
       d="m 39.544,54.22 c -0.478,0 -0.868,0.391 -0.868,0.869 l 0,5.203 c 0,0.481 0.391,0.869 0.868,0.869 0.481,0 0.872,-0.388 0.872,-0.869 l 0,-5.203 c 0,-0.479 -0.391,-0.869 -0.872,-0.869"
       inkscape:connector-curvature="0"
       id="path94" />
    <path
       d="m 34.719,54.22 c -0.48,0 -0.871,0.391 -0.871,0.869 l 0,5.203 c 0,0.481 0.391,0.869 0.871,0.869 0.479,0 0.867,-0.388 0.867,-0.869 l 0,-5.203 c 0,-0.479 -0.389,-0.869 -0.867,-0.869"
       inkscape:connector-curvature="0"
       id="path96" />
    <path
       d="m 29.98,54.22 c -0.48,0 -0.87,0.391 -0.87,0.869 l 0,5.203 c 0,0.481 0.389,0.869 0.87,0.869 0.479,0 0.869,-0.388 0.869,-0.869 l 0,-5.203 c 0,-0.479 -0.391,-0.869 -0.869,-0.869"
       inkscape:connector-curvature="0"
       id="path98" />
    <path
       d="m 25.609,54.22 c -0.482,0 -0.871,0.391 -0.871,0.869 l 0,5.203 c 0,0.481 0.389,0.869 0.871,0.869 0.477,0 0.868,-0.388 0.868,-0.869 l 0,-5.203 c 0,-0.479 -0.391,-0.869 -0.868,-0.869"
       inkscape:connector-curvature="0"
       id="path100" />
    <path
       d="m 20.87,54.22 c -0.48,0 -0.871,0.391 -0.871,0.869 l 0,5.203 c 0,0.481 0.391,0.869 0.871,0.869 0.479,0 0.868,-0.388 0.868,-0.869 l 0,-5.203 c 0,-0.479 -0.389,-0.869 -0.868,-0.869"
       inkscape:connector-curvature="0"
       id="path102" />
    <path
       d="m 46.699,12.06 -28.25,0 c -2.964,0 -5.378,2.416 -5.378,5.38 l 0,28.25 c 0,2.969 2.414,5.385 5.378,5.385 l 28.25,0 c 2.965,0 5.381,-2.416 5.381,-5.385 l 0,-28.25 c 0,-2.964 -2.416,-5.38 -5.381,-5.38 m -25.516,8.584 c -0.948,0 -1.716,-0.768 -1.716,-1.714 0,-0.946 0.768,-1.716 1.716,-1.716 0.944,0 1.714,0.77 1.714,1.716 0,0.946 -0.77,1.714 -1.714,1.714 m 20.48,19.445 -17.983,0 0,-18.15 17.983,0 0,18.15"
       inkscape:connector-curvature="0"
       id="path104" />
    <path
       d="m 55.08,20.499 5.204,0 c 0.48,0 0.871,-0.391 0.871,-0.869 0,-0.478 -0.391,-0.869 -0.871,-0.869 l -5.204,0 c -0.479,0 -0.869,0.391 -0.869,0.869 0,0.478 0.39,0.869 0.869,0.869"
       inkscape:connector-curvature="0"
       id="path106" />
    <path
       d="m 60.29,23.5 -5.204,0 c -0.479,0 -0.869,0.389 -0.869,0.868 0,0.48 0.391,0.869 0.869,0.869 l 5.204,0 c 0.48,0 0.871,-0.389 0.871,-0.869 0,-0.48 -0.39,-0.868 -0.871,-0.868"
       inkscape:connector-curvature="0"
       id="path108" />
    <path
       d="m 60.29,28.328 -5.204,0 c -0.479,0 -0.869,0.389 -0.869,0.871 0,0.479 0.391,0.868 0.869,0.868 l 5.204,0 c 0.48,0 0.871,-0.389 0.871,-0.868 0,-0.482 -0.39,-0.871 -0.871,-0.871"
       inkscape:connector-curvature="0"
       id="path110" />
    <path
       d="m 60.29,33.06 -5.204,0 c -0.479,0 -0.869,0.391 -0.869,0.869 0,0.478 0.391,0.869 0.869,0.869 l 5.204,0 c 0.48,0 0.871,-0.391 0.871,-0.869 0,-0.478 -0.39,-0.869 -0.871,-0.869"
       inkscape:connector-curvature="0"
       id="path112" />
    <path
       d="m 60.29,37.434 -5.204,0 c -0.479,0 -0.869,0.391 -0.869,0.869 0,0.482 0.391,0.873 0.869,0.873 l 5.204,0 c 0.48,0 0.871,-0.391 0.871,-0.873 0,-0.479 -0.39,-0.869 -0.871,-0.869"
       inkscape:connector-curvature="0"
       id="path114" />
    <path
       d="m 60.29,42.17 -5.204,0 c -0.479,0 -0.869,0.388 -0.869,0.869 0,0.479 0.391,0.87 0.869,0.87 l 5.204,0 c 0.48,0 0.871,-0.391 0.871,-0.87 0,-0.481 -0.39,-0.869 -0.871,-0.869"
       inkscape:connector-curvature="0"
       id="path116" />
  </g>
</svg>
