<?xml version="1.0" encoding="UTF-8" standalone="no"?>
<svg
   xmlns:dc="http://purl.org/dc/elements/1.1/"
   xmlns:cc="http://creativecommons.org/ns#"
   xmlns:rdf="http://www.w3.org/1999/02/22-rdf-syntax-ns#"
   xmlns:svg="http://www.w3.org/2000/svg"
   xmlns="http://www.w3.org/2000/svg"
   xmlns:sodipodi="http://sodipodi.sourceforge.net/DTD/sodipodi-0.dtd"
   xmlns:inkscape="http://www.inkscape.org/namespaces/inkscape"
   viewBox="0 0 512 512"
   id="svg2"
   version="1.1"
   inkscape:version="0.91 r"
   sodipodi:docname="preferences-web-browser-shortcuts.svg">
  <metadata
     id="metadata168">
    <rdf:RDF>
      <cc:Work
         rdf:about="">
        <dc:format>image/svg+xml</dc:format>
        <dc:type
           rdf:resource="http://purl.org/dc/dcmitype/StillImage" />
      </cc:Work>
    </rdf:RDF>
  </metadata>
  <defs
     id="defs166" />
  <sodipodi:namedview
     pagecolor="#ffffff"
     bordercolor="#666666"
     borderopacity="1"
     objecttolerance="10"
     gridtolerance="10"
     guidetolerance="10"
     inkscape:pageopacity="0"
     inkscape:pageshadow="2"
     inkscape:window-width="647"
     inkscape:window-height="480"
     id="namedview164"
     showgrid="false"
     inkscape:zoom="0.4609375"
     inkscape:cx="256"
     inkscape:cy="256"
     inkscape:window-x="0"
     inkscape:window-y="0"
     inkscape:window-maximized="0"
     inkscape:current-layer="svg2" />
  <text
     font-size="129.23"
     y="231.36"
     x="729.64"
     font-family="'Gentium Book Basic'"
     line-height="125%"
     word-spacing="0"
     letter-spacing="0"
     id="text18">
    <tspan
       y="231.36"
       x="729.64"
       id="tspan20" />
  </text>
  <text
     transform="scale(4.0128.2492)"
     font-size="46.954"
     y="579.25"
     x="378.91"
     font-family="Arial"
     text-anchor="middle"
     id="text22" />
  <text
     font-size="129.23"
     y="151.36"
     x="1310.91"
     font-family="'Gentium Book Basic'"
     line-height="125%"
     word-spacing="0"
     letter-spacing="0"
     id="text24">
    <tspan
       y="151.36"
       x="1310.91"
       id="tspan26" />
  </text>
  <text
     transform="scale(4.0128.2492)"
     font-size="46.954"
     y="258.22"
     x="523.76"
     font-family="Arial"
     text-anchor="middle"
     id="text28" />
  <text
     font-size="129.23"
     y="-29.901"
     x="239.33"
     font-family="'Gentium Book Basic'"
     line-height="125%"
     word-spacing="0"
     letter-spacing="0"
     id="text30">
    <tspan
       y="-29.901"
       x="239.33"
       id="tspan32" />
  </text>
  <text
     transform="scale(4.0128.2492)"
     font-size="46.954"
     y="-469.14"
     x="256.72"
     font-family="Arial"
     text-anchor="middle"
     id="text34" />
  <text
     font-size="129.23"
     y="-246.37"
     x="1337.38"
     font-family="'Gentium Book Basic'"
     line-height="125%"
     word-spacing="0"
     letter-spacing="0"
     id="text36">
    <tspan
       y="-246.37"
       x="1337.38"
       id="tspan38" />
  </text>
  <text
     transform="scale(4.0128.2492)"
     font-size="46.954"
     y="-1337.8"
     x="530.36"
     font-family="Arial"
     text-anchor="middle"
     id="text40" />
  <text
     font-size="129.23"
     y="-326.38"
     x="1918.65"
     font-family="'Gentium Book Basic'"
     line-height="125%"
     word-spacing="0"
     letter-spacing="0"
     id="text42">
    <tspan
       y="-326.38"
       x="1918.65"
       id="tspan44" />
  </text>
  <text
     transform="scale(4.0128.2492)"
     font-size="46.954"
     y="-1658.84"
     x="675.21"
     font-family="Arial"
     text-anchor="middle"
     id="text46" />
  <text
     font-size="129.23"
     y="-798.78"
     x="1529.53"
     font-family="'Gentium Book Basic'"
     line-height="125%"
     word-spacing="0"
     letter-spacing="0"
     id="text48">
    <tspan
       y="-798.78"
       x="1529.53"
       id="tspan50" />
  </text>
  <text
     transform="scale(4.0128.2492)"
     font-size="46.954"
     y="-3554.49"
     x="578.24"
     font-family="Arial"
     text-anchor="middle"
     id="text52" />
  <text
     font-size="129.23"
     y="-878.78"
     x="2110.79"
     font-family="'Gentium Book Basic'"
     line-height="125%"
     word-spacing="0"
     letter-spacing="0"
     id="text54">
    <tspan
       y="-878.78"
       x="2110.79"
       id="tspan56" />
  </text>
  <text
     transform="scale(4.0128.2492)"
     font-size="46.954"
     y="-3875.52"
     x="723.09"
     font-family="Arial"
     text-anchor="middle"
     id="text58" />
  <g
     font-family="'Gentium Book Basic'"
     line-height="125%"
     word-spacing="0"
     letter-spacing="0"
     id="g60">
    <text
       y="535.94"
       x="277.99"
       font-size="208.33"
       id="text62">
      <tspan
         y="535.94"
         x="277.99"
         id="tspan64" />
    </text>
    <text
       y="270.87"
       x="-1745.96"
       font-size="129.23"
       id="text66">
      <tspan
         y="270.87"
         x="-1745.96"
         id="tspan68" />
    </text>
  </g>
  <text
     transform="scale(4.0128.2492)"
     font-size="46.954"
     y="737.79"
     x="-238.01"
     font-family="Arial"
     text-anchor="middle"
     id="text70" />
  <text
     font-size="129.23"
     y="190.87"
     x="-1164.69"
     font-family="'Gentium Book Basic'"
     line-height="125%"
     word-spacing="0"
     letter-spacing="0"
     id="text72">
    <tspan
       y="190.87"
       x="-1164.69"
       id="tspan74" />
  </text>
  <text
     transform="scale(4.0128.2492)"
     font-size="46.954"
     y="416.76"
     x="-93.17"
     font-family="Arial"
     text-anchor="middle"
     id="text76" />
  <text
     font-size="129.23"
     y="9.608"
     x="-2236.27"
     font-family="'Gentium Book Basic'"
     line-height="125%"
     word-spacing="0"
     letter-spacing="0"
     id="text78">
    <tspan
       y="9.608"
       x="-2236.27"
       id="tspan80" />
  </text>
  <text
     transform="scale(4.0128.2492)"
     font-size="46.954"
     y="-310.6"
     x="-360.2"
     font-family="Arial"
     text-anchor="middle"
     id="text82" />
  <text
     font-size="129.23"
     y="-206.86"
     x="-1138.22"
     font-family="'Gentium Book Basic'"
     line-height="125%"
     word-spacing="0"
     letter-spacing="0"
     id="text84">
    <tspan
       y="-206.86"
       x="-1138.22"
       id="tspan86" />
  </text>
  <text
     transform="scale(4.0128.2492)"
     font-size="46.954"
     y="-1179.26"
     x="-86.57"
     font-family="Arial"
     text-anchor="middle"
     id="text88" />
  <text
     font-size="129.23"
     y="-286.87"
     x="-556.95"
     font-family="'Gentium Book Basic'"
     line-height="125%"
     word-spacing="0"
     letter-spacing="0"
     id="text90">
    <tspan
       y="-286.87"
       x="-556.95"
       id="tspan92" />
  </text>
  <text
     transform="scale(4.0128.2492)"
     font-size="46.954"
     y="-1500.3"
     x="58.28"
     font-family="Arial"
     text-anchor="middle"
     id="text94" />
  <text
     font-size="129.23"
     y="-759.27"
     x="-946.07"
     font-family="'Gentium Book Basic'"
     line-height="125%"
     word-spacing="0"
     letter-spacing="0"
     id="text96">
    <tspan
       y="-759.27"
       x="-946.07"
       id="tspan98" />
  </text>
  <text
     transform="scale(4.0128.2492)"
     font-size="46.954"
     y="-3395.95"
     x="-38.686"
     font-family="Arial"
     text-anchor="middle"
     id="text100" />
  <text
     font-size="129.23"
     y="-839.27"
     x="-364.81"
     font-family="'Gentium Book Basic'"
     line-height="125%"
     word-spacing="0"
     letter-spacing="0"
     id="text102">
    <tspan
       y="-839.27"
       x="-364.81"
       id="tspan104" />
  </text>
  <text
     transform="scale(4.0128.2492)"
     font-size="46.954"
     y="-3716.98"
     x="106.16"
     font-family="Arial"
     text-anchor="middle"
     id="text106" />
  <g
     font-family="'Gentium Book Basic'"
     line-height="125%"
     word-spacing="0"
     letter-spacing="0"
     id="g108">
    <text
       y="575.45"
       x="-2197.61"
       font-size="208.33"
       id="text110">
      <tspan
         y="575.45"
         x="-2197.61"
         id="tspan112" />
    </text>
    <text
       y="525.1"
       x="-1144.61"
       font-size="129.23"
       id="text114">
      <tspan
         y="525.1"
         x="-1144.61"
         id="tspan116" />
    </text>
  </g>
  <text
     transform="scale(4.0128.2492)"
     font-size="46.954"
     y="1757.96"
     x="-88.16"
     font-family="Arial"
     text-anchor="middle"
     id="text118" />
  <text
     font-size="129.23"
     y="445.1"
     x="-563.34"
     font-family="'Gentium Book Basic'"
     line-height="125%"
     word-spacing="0"
     letter-spacing="0"
     id="text120">
    <tspan
       y="445.1"
       x="-563.34"
       id="tspan122" />
  </text>
  <text
     transform="scale(4.0128.2492)"
     font-size="46.954"
     y="1436.93"
     x="56.693"
     font-family="Arial"
     text-anchor="middle"
     id="text124" />
  <text
     font-size="129.23"
     y="263.84"
     x="-1634.92"
     font-family="'Gentium Book Basic'"
     line-height="125%"
     word-spacing="0"
     letter-spacing="0"
     id="text126">
    <tspan
       y="263.84"
       x="-1634.92"
       id="tspan128" />
  </text>
  <text
     transform="scale(4.0128.2492)"
     font-size="46.954"
     y="709.58"
     x="-210.35"
     font-family="Arial"
     text-anchor="middle"
     id="text130" />
  <text
     font-size="129.23"
     y="47.37"
     x="-536.87"
     font-family="'Gentium Book Basic'"
     line-height="125%"
     word-spacing="0"
     letter-spacing="0"
     id="text132">
    <tspan
       y="47.37"
       x="-536.87"
       id="tspan134" />
  </text>
  <text
     transform="scale(4.0128.2492)"
     font-size="46.954"
     y="-159.09"
     x="63.29"
     font-family="Arial"
     text-anchor="middle"
     id="text136" />
  <text
     font-size="129.23"
     y="-32.643"
     x="44.4"
     font-family="'Gentium Book Basic'"
     line-height="125%"
     word-spacing="0"
     letter-spacing="0"
     id="text138">
    <tspan
       y="-32.643"
       x="44.4"
       id="tspan140" />
  </text>
  <text
     transform="scale(4.0128.2492)"
     font-size="46.954"
     y="-480.13"
     x="208.14"
     font-family="Arial"
     text-anchor="middle"
     id="text142" />
  <text
     font-size="129.23"
     y="-505.04"
     x="-344.72"
     font-family="'Gentium Book Basic'"
     line-height="125%"
     word-spacing="0"
     letter-spacing="0"
     id="text144">
    <tspan
       y="-505.04"
       x="-344.72"
       id="tspan146" />
  </text>
  <text
     transform="scale(4.0128.2492)"
     font-size="46.954"
     y="-2375.78"
     x="111.17"
     font-family="Arial"
     text-anchor="middle"
     id="text148" />
  <text
     font-size="129.23"
     y="-585.04"
     x="236.54"
     font-family="'Gentium Book Basic'"
     line-height="125%"
     word-spacing="0"
     letter-spacing="0"
     id="text150">
    <tspan
       y="-585.04"
       x="236.54"
       id="tspan152" />
  </text>
  <text
     transform="scale(4.0128.2492)"
     font-size="46.954"
     y="-2696.8"
     x="256.02"
     font-family="Arial"
     text-anchor="middle"
     id="text154" />
  <text
     font-size="208.33"
     y="829.68"
     x="-1596.26"
     font-family="'Gentium Book Basic'"
     line-height="125%"
     word-spacing="0"
     letter-spacing="0"
     id="text156">
    <tspan
       y="829.68"
       x="-1596.26"
       id="tspan158" />
  </text>
  <path
     d="m257.72 80.938c-1.23-0.005-2.488 0.006-3.719 0.031-54.42 0.357-107.23 31.393-133.56 79.03-15.09 26.22-22.13 56.976-20.344 87.16h311.84c2.593-46.587-15.482-94.51-50.53-125.37-27.887-25.757-65.57-40.681-103.69-40.844m-11.406 19.969v68.13h-58.938c3.666-19.492 8.684-38.702 15.188-57.47 13.842-5.927 28.811-9.641 43.75-10.656zm19.531 0.063l0.938 0.063 0.5 0.031c14.578 1.08 28.754 4.544 42.22 10.219 6.583 18.85 11.591 38.16 15.313 57.75h-58.969v-68.06m-88.09 24.09c-4.219 14.361-7.721 29.17-10.375 44-4.892-0.136-9.804 0.011-14.719 0.031s-9.844-0.101-14.688-0.719c9.953-17.08 24.2-31.93 39.781-43.31m156.91 0.063c16.11 11.552 29.914 26.695 40 43.906h-29.875c-2.605-14.798-6.449-29.398-10.125-43.906m-206.19 63.47h35.906c-1.822 12.9-2.766 26.01-3.406 39.06h-41.12c0.982-13.328 3.879-26.59 8.625-39.06m55.656 0h62.19v39.06h-65.66c0.524-13.06 1.678-26.21 3.469-39.06m81.72 0h62.19c1.719 12.908 2.935 25.996 3.438 39.06h-65.62v-39.06m81.906 0h36.03c4.642 12.556 7.538 25.705 8.5 39.06h-41.12c-0.641-13.05-1.584-26.16-3.406-39.06m-151.47 85.5l0.938 0.75 32.06 31.875c-57.684 43.04-39.34 81.13 10 133.03-13.437-53.31-3.521-77.62 30.344-92.47 48.886 48.23 40.766 39.582 48.906 48.13v-121.31h-122.25z"
     fill="#009688"
     id="path162" />
</svg>
