<?xml version="1.0" encoding="UTF-8" standalone="no"?>
<svg
   xmlns:dc="http://purl.org/dc/elements/1.1/"
   xmlns:cc="http://creativecommons.org/ns#"
   xmlns:rdf="http://www.w3.org/1999/02/22-rdf-syntax-ns#"
   xmlns:svg="http://www.w3.org/2000/svg"
   xmlns="http://www.w3.org/2000/svg"
   xmlns:sodipodi="http://sodipodi.sourceforge.net/DTD/sodipodi-0.dtd"
   xmlns:inkscape="http://www.inkscape.org/namespaces/inkscape"
   viewBox="0 0 512 512"
   version="1.1"
   id="svg2"
   inkscape:version="0.91 r"
   sodipodi:docname="preferences-desktop-text-to-speech.svg">
  <sodipodi:namedview
     pagecolor="#ffffff"
     bordercolor="#666666"
     borderopacity="1"
     objecttolerance="10"
     gridtolerance="10"
     guidetolerance="10"
     inkscape:pageopacity="0"
     inkscape:pageshadow="2"
     inkscape:window-width="647"
     inkscape:window-height="480"
     id="namedview16"
     showgrid="false"
     inkscape:zoom="0.4609375"
     inkscape:cx="263.59322"
     inkscape:cy="256"
     inkscape:window-x="0"
     inkscape:window-y="0"
     inkscape:window-maximized="0"
     inkscape:current-layer="svg2" />
  <metadata
     id="metadata6004">
    <rdf:RDF>
      <cc:Work
         rdf:about="">
        <dc:format>image/svg+xml</dc:format>
        <dc:type
           rdf:resource="http://purl.org/dc/dcmitype/StillImage" />
      </cc:Work>
    </rdf:RDF>
  </metadata>
  <defs
     id="defs4">
    <path
       id="0"
       d="m-53.03 6.634h57.629v49.32h-57.629z" />
  </defs>
  <path
     inkscape:connector-curvature="0"
     id="path6000"
     d="m 241.14,123.58 c -16.472,0 -29.75,13.244 -29.75,29.719 l 0,73.38 c 0,15.739 12.11,28.513 27.563,29.625 l 0,32.406 c 0.01,2.216 1.485,4.356 3.563,5.125 2.078,0.769 4.615,0.115 6.06,-1.563 l 30.844,-35.875 68.938,0 c 16.472,0 29.75,-13.275 29.75,-29.75 l 0,-73.31 c 0,-16.472 -13.275,-29.75 -29.75,-29.75 l -107.22,0 m 43.38,27 0,82.66 -28.25,-22.875 -20.625,0 c -2.298,0 -4.156,-1.858 -4.156,-4.156 l 0,-29.12 c 0,-2.298 1.858,-4.125 4.156,-4.125 l 20.19,0 28.688,-22.375 m 23.375,11.406 49.25,0 c 3.088,0 5.563,2.506 5.563,5.594 0,3.088 -2.475,5.563 -5.563,5.563 l -49.25,0 c -3.088,0 -5.563,-2.475 -5.563,-5.563 0,-3.088 2.475,-5.594 5.563,-5.594 m -148.81,7.313 c -13.947,0 -25.19,11.209 -25.19,25.16 l 0,168.78 c 0,13.947 11.24,25.16 25.19,25.16 l 125.38,0 c 13.947,0 25.19,-11.209 25.19,-25.16 l 0,-98.84 c -8.828,-0.175 -17.653,-0.337 -26.438,-0.031 l -24.938,29.03 c -4.09,8.527 -17.04,11.931 -23.75,4.531 -6.416,-10.295 -2.768,-23.388 -3.375,-34.844 -12.157,-3.262 -22.377,-13.09 -26.09,-25.16 -3.116,-22.692 -1.416,-45.741 -1.5,-68.62 l -44.47,0 m 148.81,17.03 49.25,0 c 3.088,0 5.563,2.506 5.563,5.594 0,3.088 -2.475,5.563 -5.563,5.563 l -49.25,0 c -3.088,0 -5.563,-2.475 -5.563,-5.563 0,-3.088 2.475,-5.594 5.563,-5.594 m -140.75,7.813 28.25,0 c -0.14,4.625 -0.312,9.263 -0.344,13.875 l -27.906,0 c -3.85,0 -6.938,-3.088 -6.938,-6.938 0,-3.85 3.088,-6.938 6.938,-6.938 m 140.75,16.531 49.25,0 c 3.088,0 5.563,2.506 5.563,5.594 0,3.088 -2.475,5.563 -5.563,5.563 l -49.25,0 c -3.088,0 -5.563,-2.475 -5.563,-5.563 0,-3.088 2.475,-5.594 5.563,-5.594 m -140.75,14.563 28.531,0 c 0.418,4.665 1.079,9.316 2.125,13.906 l -30.656,0 c -3.85,0 -6.938,-3.119 -6.938,-6.969 0,-3.85 3.088,-6.938 6.938,-6.938 m 0,31.09 39.19,0 c 4.585,5.342 10.35,9.652 16.813,12.406 -0.034,0.485 -0.06,1.01 -0.094,1.5 l -55.906,0 c -3.85,0 -6.938,-3.119 -6.938,-6.969 0,-3.85 3.088,-6.938 6.938,-6.938 m 0,31.09 55.813,0 c 0.55,5.03 1.823,9.858 4.531,13.906 l -60.34,0 c -3.85,0 -6.938,-3.088 -6.938,-6.938 0,-3.85 3.088,-6.969 6.938,-6.969 m 106.91,0 2.344,0 c 3.85,0 6.938,3.119 6.938,6.969 0,3.85 -3.088,6.938 -6.938,6.938 l -13.469,0 c 1.769,-1.841 3.286,-3.898 4.438,-6.125 l 6.688,-7.781 m -106.91,31.09 109.25,0 c 3.85,0 6.938,3.119 6.938,6.969 0,3.85 -3.088,6.938 -6.938,6.938 l -109.25,0 c -3.85,0 -6.938,-3.088 -6.938,-6.938 0,-3.85 3.088,-6.969 6.938,-6.969 m 0,31.09 109.25,0 c 3.85,0 6.938,3.119 6.938,6.969 0,3.85 -3.088,6.938 -6.938,6.938 l -109.25,0 c -3.85,0 -6.938,-3.088 -6.938,-6.938 0,-3.85 3.088,-6.969 6.938,-6.969"
     fill="#009688" />
</svg>
