<?xml version="1.0" encoding="UTF-8" standalone="no"?>
<svg
   xmlns:dc="http://purl.org/dc/elements/1.1/"
   xmlns:cc="http://creativecommons.org/ns#"
   xmlns:rdf="http://www.w3.org/1999/02/22-rdf-syntax-ns#"
   xmlns:svg="http://www.w3.org/2000/svg"
   xmlns="http://www.w3.org/2000/svg"
   xmlns:sodipodi="http://sodipodi.sourceforge.net/DTD/sodipodi-0.dtd"
   xmlns:inkscape="http://www.inkscape.org/namespaces/inkscape"
   height="512"
   viewBox="0 0 512 512"
   width="512"
   version="1.1"
   id="svg2"
   inkscape:version="0.91 r13725"
   sodipodi:docname="cs-cat-themes.svg">
  <defs
     id="defs19" />
  <sodipodi:namedview
     pagecolor="#989694"
     bordercolor="#666666"
     borderopacity="1"
     objecttolerance="10"
     gridtolerance="10"
     guidetolerance="10"
     inkscape:pageopacity="0"
     inkscape:pageshadow="2"
     inkscape:window-width="1920"
     inkscape:window-height="1012"
     id="namedview17"
     showgrid="false"
     inkscape:zoom="0.61953951"
     inkscape:cx="-460.60737"
     inkscape:cy="-7.5585076"
     inkscape:window-x="0"
     inkscape:window-y="13"
     inkscape:window-maximized="1"
     inkscape:current-layer="svg2" />
  <metadata
     id="metadata78">
    <rdf:RDF>
      <cc:Work
         rdf:about="">
        <dc:format>image/svg+xml</dc:format>
        <dc:type
           rdf:resource="http://purl.org/dc/dcmitype/StillImage" />
        <dc:title></dc:title>
      </cc:Work>
    </rdf:RDF>
  </metadata>
  <g
     id="g4155"
     transform="matrix(1.4037622,0,0,1.4037622,-98.894173,-100.69263)">
    <path
       id="path68"
       d="m 256.45978,219.41895 -36.51329,9.78368 c -5.01486,1.34372 -7.99374,6.5033 -6.65002,11.51816 l 9.78204,36.50719 c 1.34536,5.02096 6.50331,7.99374 11.51816,6.65002 l 36.51329,-9.78368 c 5.01486,-1.34372 7.99538,-6.4972 6.65002,-11.51816 l -9.78204,-36.50719 c -1.34536,-5.02095 -6.4972,-7.99538 -11.51816,-6.65002"
       inkscape:connector-curvature="0"
       style="fill:#009688" />
    <path
       id="path70"
       d="m 194.28678,233.90723 -85.09987,-17.1694 c -1.69577,-0.3499 -3.18503,-0.17317 -4.31181,0.33145 -6.097595,0.91457 -16.025982,4.98071 -11.736639,22.25777 6.020318,24.27404 -6.985633,26.17657 -0.381445,50.8238 6.604188,24.64723 18.815674,19.77971 25.740544,43.81791 5.27844,18.33287 17.1602,15.35842 22.48132,12.91258 0.79877,-0.24019 1.63031,-0.62647 2.48515,-1.26747 l 67.10991,-49.70179 c 4.15023,-3.10638 7.51355,-10.00367 6.17473,-15.00023 l -9.73464,-36.33026 c -1.33882,-4.99656 -7.64486,-9.64298 -12.72725,-10.67436"
       inkscape:connector-curvature="0"
       style="fill:#009688" />
    <path
       id="path72"
       d="m 371.36425,164.79649 c -4.92219,-17.10094 -15.55023,-15.64595 -21.2931,-13.4075 -1.22039,0.13084 -2.6046,0.72405 -3.89376,1.86722 l -65.1246,57.42835 c -3.87968,3.43276 -7.02541,10.60523 -5.68496,15.60789 l 9.73464,36.33026 c 1.33882,4.99656 7.69408,9.28977 12.84757,9.90324 l 82.96977,9.48817 c 1.06081,0.1277 1.97409,0.0465 2.79814,-0.14819 5.82504,-0.54076 17.61646,-3.8768 13.00703,-22.42162 -6.02805,-24.27851 6.98564,-26.17657 0.38308,-50.8177 -6.61029,-24.6456 -18.82668,-19.79638 -25.74381,-43.83012"
       inkscape:connector-curvature="0"
       style="fill:#009688" />
  </g>
</svg>
