<?xml version="1.0" encoding="UTF-8" standalone="no"?>
<svg
   xmlns:dc="http://purl.org/dc/elements/1.1/"
   xmlns:cc="http://creativecommons.org/ns#"
   xmlns:rdf="http://www.w3.org/1999/02/22-rdf-syntax-ns#"
   xmlns:svg="http://www.w3.org/2000/svg"
   xmlns="http://www.w3.org/2000/svg"
   xmlns:sodipodi="http://sodipodi.sourceforge.net/DTD/sodipodi-0.dtd"
   xmlns:inkscape="http://www.inkscape.org/namespaces/inkscape"
   height="512"
   viewBox="0 0 512 512"
   width="512"
   version="1.1"
   id="svg2"
   inkscape:version="0.91 r"
   sodipodi:docname="pychess.svg">
  <defs
     id="defs16" />
  <sodipodi:namedview
     pagecolor="#ffffff"
     bordercolor="#666666"
     borderopacity="1"
     objecttolerance="10"
     gridtolerance="10"
     guidetolerance="10"
     inkscape:pageopacity="0"
     inkscape:pageshadow="2"
     inkscape:window-width="643"
     inkscape:window-height="480"
     id="namedview14"
     showgrid="false"
     inkscape:zoom="0.4609375"
     inkscape:cx="256"
     inkscape:cy="256"
     inkscape:window-x="0"
     inkscape:window-y="0"
     inkscape:window-maximized="0"
     inkscape:current-layer="svg2" />
  <metadata
     id="metadata72">
    <rdf:RDF>
      <cc:Work
         rdf:about="">
        <dc:format>image/svg+xml</dc:format>
        <dc:type
           rdf:resource="http://purl.org/dc/dcmitype/StillImage" />
      </cc:Work>
    </rdf:RDF>
  </metadata>
  <path
     id="path66"
     fill="#f9f9f9"
     d="m212.99 387.94c-12.526-0.864-24.17-3.258-33.511-6.89-5.652-2.197-12.708-5.775-13.324-6.756-0.194-0.308 2.245-6.436 5.418-13.617 3.174-7.181 5.771-13.369 5.771-13.751 0-0.747-9.591-22.584-11.486-26.15-0.629-1.185-6.04-8.02-12.01-15.181l-10.869-13.03-0.717-5.727c-0.394-3.15-3.355-26.491-6.579-51.869l-5.862-46.14-3.446-0.424c-9.95-1.223-15.892-9.931-12.876-18.868 1.282-3.798 3.242-6.147 6.89-8.258 2.386-1.38 3.495-1.626 7.348-1.626s4.962 0.245 7.348 1.626c3.648 2.111 5.608 4.459 6.89 8.258 2.189 6.486-0.661 13.74-6.707 17.07-0.699 0.385 3.776 9.903 22.19 47.2 12.688 25.693 23.11 46.763 23.15 46.823 0.124 0.165 6.475-111.81 6.443-113.61-0.024-1.342-0.401-1.659-2.63-2.211-3.612-0.895-7.29-3.686-9.307-7.06-1.464-2.451-1.704-3.489-1.704-7.365 0-3.981 0.216-4.857 1.833-7.442 6.08-9.721 19.9-9.721 25.98 0 1.621 2.592 1.833 3.456 1.833 7.489 0 4.03-0.213 4.9-1.826 7.489-1.09 1.749-3.055 3.729-4.875 4.912l-3.049 1.981 19.09 54.43c10.5 29.937 19.228 54.43 19.396 54.43 0.21 0 20.05-111.07 21.405-119.86 0.041-0.265-0.947-0.836-2.196-1.27-3.338-1.159-6.255-3.576-8.153-6.753-1.434-2.401-1.677-3.461-1.677-7.32 0-3.981 0.216-4.857 1.833-7.442 6.08-9.721 19.9-9.721 25.98 0 1.617 2.585 1.833 3.461 1.833 7.442 0 3.859-0.243 4.919-1.677 7.32-1.898 3.177-4.815 5.594-8.153 6.753-1.248 0.434-2.236 1.01-2.196 1.27 1.359 8.783 21.2 119.86 21.405 119.86 0.168 0 8.896-24.494 19.396-54.43l19.09-54.43-3.049-1.981c-1.82-1.183-3.786-3.163-4.876-4.912-1.613-2.589-1.826-3.462-1.826-7.489 0-4.03 0.211-4.897 1.833-7.489 6.08-9.721 19.9-9.721 25.98 0 1.617 2.585 1.833 3.461 1.833 7.442 0 3.876-0.24 4.914-1.704 7.365-2.02 3.377-5.694 6.168-9.307 7.06-2.228 0.552-2.606 0.87-2.63 2.211-0.032 1.795 6.319 113.77 6.443 113.61 0.045-0.06 10.463-21.13 23.15-46.823 18.418-37.29 22.893-46.811 22.19-47.2-6.05-3.33-8.897-10.584-6.707-17.07 1.282-3.798 3.242-6.147 6.89-8.258 2.386-1.38 3.495-1.626 7.348-1.626s4.962 0.245 7.348 1.626c3.648 2.111 5.608 4.459 6.89 8.258 3.02 8.937-2.926 17.645-12.876 18.868l-3.446 0.424-5.862 46.14c-3.224 25.378-6.185 48.719-6.579 51.869l-0.717 5.727-10.869 13.03c-5.978 7.165-11.384 13.997-12.01 15.181-1.896 3.569-11.486 25.405-11.486 26.15 0 0.382 2.597 6.57 5.771 13.751s5.612 13.309 5.418 13.617c-1.388 2.21-15.937 8.209-25.288 10.426-13.549 3.213-16.259 3.372-60.32 3.522-22.461 0.078-43.719-0.059-47.24-0.301z"
     style="fill:#009688;fill-opacity:1" />
</svg>
