<?xml version="1.0" encoding="UTF-8" standalone="no"?>
<svg
   xmlns:dc="http://purl.org/dc/elements/1.1/"
   xmlns:cc="http://creativecommons.org/ns#"
   xmlns:rdf="http://www.w3.org/1999/02/22-rdf-syntax-ns#"
   xmlns:svg="http://www.w3.org/2000/svg"
   xmlns="http://www.w3.org/2000/svg"
   xmlns:sodipodi="http://sodipodi.sourceforge.net/DTD/sodipodi-0.dtd"
   xmlns:inkscape="http://www.inkscape.org/namespaces/inkscape"
   viewBox="0 0 512 512"
   id="svg2"
   version="1.1"
   inkscape:version="0.91 r"
   sodipodi:docname="quodlibet.svg">
  <metadata
     id="metadata74">
    <rdf:RDF>
      <cc:Work
         rdf:about="">
        <dc:format>image/svg+xml</dc:format>
        <dc:type
           rdf:resource="http://purl.org/dc/dcmitype/StillImage" />
      </cc:Work>
    </rdf:RDF>
  </metadata>
  <defs
     id="defs72" />
  <sodipodi:namedview
     pagecolor="#ffffff"
     bordercolor="#666666"
     borderopacity="1"
     objecttolerance="10"
     gridtolerance="10"
     guidetolerance="10"
     inkscape:pageopacity="0"
     inkscape:pageshadow="2"
     inkscape:window-width="640"
     inkscape:window-height="480"
     id="namedview70"
     showgrid="false"
     inkscape:zoom="0.4609375"
     inkscape:cx="256"
     inkscape:cy="256"
     inkscape:window-x="0"
     inkscape:window-y="0"
     inkscape:window-maximized="0"
     inkscape:current-layer="svg2" />
  <text
     font-size="129.23"
     y="231.36"
     x="729.64"
     font-family="'Gentium Book Basic'"
     line-height="125%"
     word-spacing="0"
     letter-spacing="0"
     id="text18">
    <tspan
       y="231.36"
       x="729.64"
       id="tspan20" />
  </text>
  <text
     transform="scale(4.0128.2492)"
     font-size="46.954"
     y="579.26"
     x="378.91"
     font-family="Arial"
     text-anchor="middle"
     id="text22" />
  <text
     font-size="129.23"
     y="151.36"
     x="1310.91"
     font-family="'Gentium Book Basic'"
     line-height="125%"
     word-spacing="0"
     letter-spacing="0"
     id="text24">
    <tspan
       y="151.36"
       x="1310.91"
       id="tspan26" />
  </text>
  <text
     transform="scale(4.0128.2492)"
     font-size="46.954"
     y="258.22"
     x="523.76"
     font-family="Arial"
     text-anchor="middle"
     id="text28" />
  <text
     font-size="129.23"
     y="-29.9"
     x="239.33"
     font-family="'Gentium Book Basic'"
     line-height="125%"
     word-spacing="0"
     letter-spacing="0"
     id="text30">
    <tspan
       y="-29.9"
       x="239.33"
       id="tspan32" />
  </text>
  <text
     transform="scale(4.0128.2492)"
     font-size="46.954"
     y="-469.13"
     x="256.72"
     font-family="Arial"
     text-anchor="middle"
     id="text34" />
  <text
     font-size="129.23"
     y="-246.37"
     x="1337.38"
     font-family="'Gentium Book Basic'"
     line-height="125%"
     word-spacing="0"
     letter-spacing="0"
     id="text36">
    <tspan
       y="-246.37"
       x="1337.38"
       id="tspan38" />
  </text>
  <text
     transform="scale(4.0128.2492)"
     font-size="46.954"
     y="-1337.8"
     x="530.36"
     font-family="Arial"
     text-anchor="middle"
     id="text40" />
  <text
     font-size="129.23"
     y="-326.37"
     x="1918.65"
     font-family="'Gentium Book Basic'"
     line-height="125%"
     word-spacing="0"
     letter-spacing="0"
     id="text42">
    <tspan
       y="-326.37"
       x="1918.65"
       id="tspan44" />
  </text>
  <text
     transform="scale(4.0128.2492)"
     font-size="46.954"
     y="-1658.83"
     x="675.21"
     font-family="Arial"
     text-anchor="middle"
     id="text46" />
  <text
     font-size="129.23"
     y="-798.77"
     x="1529.53"
     font-family="'Gentium Book Basic'"
     line-height="125%"
     word-spacing="0"
     letter-spacing="0"
     id="text48">
    <tspan
       y="-798.77"
       x="1529.53"
       id="tspan50" />
  </text>
  <text
     transform="scale(4.0128.2492)"
     font-size="46.954"
     y="-3554.48"
     x="578.24"
     font-family="Arial"
     text-anchor="middle"
     id="text52" />
  <text
     font-size="129.23"
     y="-878.78"
     x="2110.79"
     font-family="'Gentium Book Basic'"
     line-height="125%"
     word-spacing="0"
     letter-spacing="0"
     id="text54">
    <tspan
       y="-878.78"
       x="2110.79"
       id="tspan56" />
  </text>
  <text
     transform="scale(4.0128.2492)"
     font-size="46.954"
     y="-3875.52"
     x="723.09"
     font-family="Arial"
     text-anchor="middle"
     id="text58" />
  <text
     font-size="208.33"
     y="535.94"
     x="277.99"
     font-family="'Gentium Book Basic'"
     line-height="125%"
     word-spacing="0"
     letter-spacing="0"
     id="text60">
    <tspan
       y="535.94"
       x="277.99"
       id="tspan62" />
  </text>
  <path
     d="m202.13 110.19c-11.817 0.421-21.584 7.26-26.594 16.375-5.323 9.685-5.311 22.363 2.719 32.16 0.111 0.135 0.199 0.272 0.313 0.406 7.802 11.351 20.434 20.16 34.375 24.281 11.59 3.429 24.24 3.491 35.5-1.438 0.02 69.36 0.313 146.17 0.313 214.94a4.566 4.566 0 0 0 3.4062 4.4375c4.513 1.17 9.365-0.264 11.75-3.406s2.862-6.705 3.156-10.25c0.295-3.545 0.241-7.188 0.313-10.344s0.402-5.863 0.75-6.75a4.566 4.566 0 0 0 0.25 -0.75c2.934-14.166 11.593-25.12 22.469-35.5 10.875-10.38 23.832-19.945 34.34-31.469 17.945-19.607 20.337-49.6 4.563-71.37-1.681-2.321-6.173-9.726-9.75-15.688-1.789-2.981-3.397-5.625-4.469-7.344-0.536-0.859-0.76-1.294-1.375-2.063-0.154-0.192 0.166-0.329-1.375-1.219-0.385-0.222-0.978-0.58-2.25-0.594s-3.197 0.982-3.906 2.094c-1.418 2.224-0.723 2.845-0.656 3.25 0.269 1.621 0.397 1.291 0.563 1.656a4.566 4.566 0 0 0 0.0625 0.125c9 18.272 19.432 37.48 14.656 55.75-6.221 22.35-29.451 37.28-53.656 40.906-0.01 0.002-0.021-0.002-0.031 0-0.619 0.086-0.562 0.051-0.906 0.063-0.022-0.522-0.338-2.507-0.625-7.03v-152.44a4.566 4.566 0 0 0 -0.34375 -1.75c-9.439-22.89-35.696-37.577-60.813-37v-0.031c-0.085-0.004-0.165 0.004-0.25 0-0.041 0.001-0.084-0.001-0.125 0-0.805-0.03-1.587-0.028-2.375 0m7.281 15.687c9.148 0.06 19.352 3.562 26.844 9.281 7.909 6.04 12.614 14.01 11.625 23.19-2.344 7.614-8.582 10.917-16.938 11.688-8.503 0.784-18.571-1.858-24.781-6a4.566 4.566 0 0 0 -0.625 -0.34375c-6.655-3.045-13.05-10.525-15.188-17.719-1.068-3.597-1.124-7.01-0.125-9.875 0.997-2.863 2.954-5.415 6.969-7.531 0.008-0.004 0.023 0.004 0.031 0 3.03-1.571 6.631-2.439 10.344-2.656h0.031c0.599-0.027 1.203-0.035 1.813-0.031"
     fill="#009688"
     id="path68" />
</svg>
