<?xml version="1.0" encoding="UTF-8" standalone="no"?>
<svg
   xmlns:dc="http://purl.org/dc/elements/1.1/"
   xmlns:cc="http://creativecommons.org/ns#"
   xmlns:rdf="http://www.w3.org/1999/02/22-rdf-syntax-ns#"
   xmlns:svg="http://www.w3.org/2000/svg"
   xmlns="http://www.w3.org/2000/svg"
   xmlns:sodipodi="http://sodipodi.sourceforge.net/DTD/sodipodi-0.dtd"
   xmlns:inkscape="http://www.inkscape.org/namespaces/inkscape"
   viewBox="0 0 512 512"
   id="svg2"
   version="1.1"
   inkscape:version="0.91 r"
   sodipodi:docname="reditr.svg">
  <metadata
     id="metadata26">
    <rdf:RDF>
      <cc:Work
         rdf:about="">
        <dc:format>image/svg+xml</dc:format>
        <dc:type
           rdf:resource="http://purl.org/dc/dcmitype/StillImage" />
      </cc:Work>
    </rdf:RDF>
  </metadata>
  <defs
     id="defs24" />
  <sodipodi:namedview
     pagecolor="#ffffff"
     bordercolor="#666666"
     borderopacity="1"
     objecttolerance="10"
     gridtolerance="10"
     guidetolerance="10"
     inkscape:pageopacity="0"
     inkscape:pageshadow="2"
     inkscape:window-width="640"
     inkscape:window-height="480"
     id="namedview22"
     showgrid="false"
     inkscape:zoom="0.4609375"
     inkscape:cx="256"
     inkscape:cy="256"
     inkscape:window-x="0"
     inkscape:window-y="0"
     inkscape:window-maximized="0"
     inkscape:current-layer="svg2" />
  <path
     d="m252.96 156.91c-62.13 0-112.45 50.49-112.45 112.74 0 0.384-0.003 0.756 0 1.14-9.597 5.717-18.634 11.619-26.783 17.571-54.886 40.08-51.07 68.21 8.548 62.78 59.62-5.426 152.45-42.36 207.33-82.44 22.429-16.38 35.07-30.788 38.09-41.695-5.65 6.221-13.198 12.976-22.604 20.14-50.17 38.18-134.99 73.28-189.48 78.45-51.624 4.896-57.19-18.873-15.01-53.852 0.103 4.788 0.474 9.529 1.14 14.15 22.13 3.366 47.04 4.084 66.39 2.184 12.657-1.237 24.341-3.688 35.901-6.838 14.255-3.5 27.339-7.984 40.18-13.11 28.313-10.398 50.25-22.619 74.37-37.421-2.185-5.944-4.869-11.669-7.978-17.1 47.02-3.971 57.22 15.969 20.705 48.628-40.797 36.493-124.16 74.865-186.25 85.76-11.643 2.044-21.799 3.02-30.2 2.944 10.05 5.192 29.26 5.722 56.51 0.38 66.69-13.07 156.88-56.13 201.35-96.21s26.329-61.987-40.37-48.913c-7.38 1.447-15.02 3.267-22.889 5.414-19.684-32.764-55.56-54.707-96.5-54.707"
     fill="#009688"
     id="path20" />
</svg>
