<?xml version="1.0" encoding="UTF-8" standalone="no"?>
<svg
   xmlns:dc="http://purl.org/dc/elements/1.1/"
   xmlns:cc="http://creativecommons.org/ns#"
   xmlns:rdf="http://www.w3.org/1999/02/22-rdf-syntax-ns#"
   xmlns:svg="http://www.w3.org/2000/svg"
   xmlns="http://www.w3.org/2000/svg"
   xmlns:sodipodi="http://sodipodi.sourceforge.net/DTD/sodipodi-0.dtd"
   xmlns:inkscape="http://www.inkscape.org/namespaces/inkscape"
   enable-background="new 0 0 800 800"
   height="800px"
   id="GUIDE"
   version="1.1"
   viewBox="0 0 800 800"
   width="800px"
   xml:space="preserve"
   sodipodi:docname="rocket.svg"
   inkscape:version="0.92.2 5c3e80d, 2017-08-06"><metadata
     id="metadata23"><rdf:RDF><cc:Work
         rdf:about=""><dc:format>image/svg+xml</dc:format><dc:type
           rdf:resource="http://purl.org/dc/dcmitype/StillImage" /><dc:title></dc:title></cc:Work></rdf:RDF></metadata><defs
     id="defs21" /><sodipodi:namedview
     pagecolor="#ffffff"
     bordercolor="#666666"
     borderopacity="1"
     objecttolerance="10"
     gridtolerance="10"
     guidetolerance="10"
     inkscape:pageopacity="0"
     inkscape:pageshadow="2"
     inkscape:window-width="1048"
     inkscape:window-height="574"
     id="namedview19"
     showgrid="false"
     inkscape:zoom="0.295"
     inkscape:cx="899.03138"
     inkscape:cy="356.661"
     inkscape:window-x="0"
     inkscape:window-y="27"
     inkscape:window-maximized="0"
     inkscape:current-layer="GUIDE" /><path
     d="m 536.11242,281.844 c -10.54471,-9.63944 -24.56674,-14.9467 -39.47571,-14.9467 -14.9098,0 -28.93183,5.30726 -39.47735,14.9467 -10.54387,9.63717 -16.35047,22.45187 -16.35047,36.07953 0,13.62993 5.8066,26.44464 16.35047,36.08256 10.54552,9.63793 24.56341,14.94292 39.47155,14.94519 0.006,0 0.006,0 0.006,0 14.90896,0 28.93099,-5.30726 39.4757,-14.94519 10.5447,-9.63944 16.35129,-22.45339 16.35129,-36.08256 -0.002,-13.62766 -5.80825,-26.4416 -16.35129,-36.07953 z m -22.20762,51.86494 c -4.61378,4.21854 -10.74282,6.54297 -17.26974,6.54297 v 0 c -6.52527,-0.002 -12.65845,-2.32443 -17.26974,-6.54297 -4.61377,-4.21398 -7.15608,-9.819 -7.15608,-15.78465 0,-5.96111 2.54065,-11.56839 7.15608,-15.78465 4.61129,-4.21626 10.74861,-6.53843 17.26974,-6.53843 6.52194,0 12.65596,2.32064 17.26974,6.53843 9.52595,8.70375 9.52595,22.86554 0,31.5693 z"
     id="path2"
     inkscape:connector-curvature="0"
     style="fill:#009688;stroke-width:0.79247892" /><g
     id="g6"
     transform="matrix(0.82892087,0,0,0.7576391,54.872453,115.58843)"><path
       d="m 62.282,627.218 c -4.847,0 -9.693,-1.847 -13.392,-5.546 -7.398,-7.397 -7.398,-19.395 0,-26.79 L 158.42,485.35 c 7.398,-7.397 19.392,-7.397 26.79,0 7.398,7.397 7.398,19.395 0,26.792 L 75.676,621.672 c -3.698,3.699 -8.545,5.546 -13.394,5.546 z"
       id="path4"
       inkscape:connector-curvature="0"
       style="fill:#009688" /></g><g
     id="g10"
     transform="matrix(0.82892087,0,0,0.7576391,54.872453,115.58843)"><path
       d="m 86.774,732.172 c -4.85,0 -9.696,-1.85 -13.395,-5.549 -7.398,-7.397 -7.398,-19.389 0,-26.786 L 187.545,585.67 c 7.398,-7.398 19.392,-7.398 26.787,0 7.398,7.398 7.398,19.393 0,26.79 L 100.168,726.623 c -3.698,3.699 -8.548,5.549 -13.394,5.549 z"
       id="path8"
       inkscape:connector-curvature="0"
       style="fill:#009688" /></g><g
     id="g14"
     transform="matrix(0.82892087,0,0,0.7576391,54.872453,115.58843)"><path
       d="m 191.725,756.661 c -4.849,0 -9.696,-1.847 -13.395,-5.546 -7.398,-7.397 -7.398,-19.393 0,-26.789 L 287.863,614.79 c 7.396,-7.394 19.392,-7.396 26.787,0 7.398,7.397 7.398,19.395 0,26.793 L 205.12,751.115 c -3.699,3.698 -8.546,5.546 -13.395,5.546 z"
       id="path12"
       inkscape:connector-curvature="0"
       style="fill:#009688" /></g><path
     d="m 677.48569,152.63017 c -3.56602,-3.25785 -8.62823,-4.75646 -13.59678,-4.02382 -1.82529,0.27047 -45.34612,6.80359 -104.65127,27.51442 -34.79312,12.14798 -67.84717,26.69692 -98.25116,43.24301 -37.33376,20.31533 -70.75337,43.73168 -99.38678,69.60506 l -118.58127,21.10025 c -3.06121,0.54398 -5.87373,1.91228 -8.08447,3.9223 l -107.43312,97.87939 c -4.89643,4.45946 -6.02377,11.31761 -2.78517,16.89611 2.7603,4.7504 8.13834,7.62109 13.8637,7.62109 0.99636,0 2.00184,-0.0864 3.00732,-0.2629 L 262.7625,414.5604 c -7.88801,14.14664 -15.2679,28.83195 -22.1181,44.05217 -2.40718,5.35802 -1.06019,11.51156 3.4193,15.60963 l 29.68448,27.13182 -27.57819,25.20665 c -6.13236,5.60501 -6.13236,14.69062 0,20.29488 3.06617,2.80251 7.08312,4.20414 11.10505,4.20414 4.01778,0 8.03472,-1.40163 11.10091,-4.20187 l 27.57819,-25.20741 29.68449,27.13333 c 3.00484,2.7419 7.02013,4.20338 11.10754,4.20338 2.00847,0 4.03767,-0.35382 5.9674,-1.08039 16.65385,-6.25962 32.72165,-13.00487 48.19429,-20.2123 l -23.58695,110.75623 c -1.32047,6.19976 1.94797,12.45786 8.048,15.41947 2.32595,1.12737 4.85084,1.67665 7.35999,1.67665 4.0758,0 8.10518,-1.45314 11.12162,-4.22231 l 107.08664,-98.19306 c 2.20161,-2.01759 3.69616,-4.59205 4.29463,-7.38925 L 528.3131,441.35809 c 28.30599,-26.17416 53.92959,-56.7161 76.15793,-90.84168 18.09866,-27.79248 34.01891,-58.00334 47.31231,-89.8022 22.65441,-54.20984 29.80634,-93.98363 30.10061,-95.65194 0.80157,-4.5519 -0.83887,-9.17652 -4.39826,-12.4321 z m -491.31797,246.31604 67.54793,-61.53847 72.67481,-12.93215 c -15.76193,17.72194 -30.3841,36.84702 -43.80598,57.31388 z M 475.31687,539.958 407.99026,601.69726 426.75952,513.5717 c 22.39826,-12.26768 43.31857,-25.63092 62.7062,-40.03971 z M 622.15191,251.15734 C 602.32827,298.41205 565.777,366.54729 504.24869,422.78608 475.92364,448.6731 442.9417,471.68412 405.6983,491.6085 c -0.66646,0.30382 -1.31385,0.64703 -1.92476,1.03494 -19.93472,10.56377 -41.08629,20.25018 -63.39256,29.01909 l -22.22005,-20.31154 44.85291,-40.99283 c 6.12987,-5.60425 6.12987,-14.69213 0,-20.29715 -6.13236,-5.60425 -16.07443,-5.6035 -22.20679,0 l -44.85208,40.99282 -22.22005,-20.31154 c 9.59725,-20.39034 20.19334,-39.72529 31.7543,-57.9503 0.42109,-0.55459 0.78831,-1.13646 1.11904,-1.73878 21.79896,-34.04679 46.97661,-64.19628 75.30664,-90.09011 61.52665,-56.23576 136.07233,-89.6431 187.77295,-107.76279 31.41362,-11.01381 58.45716,-17.88105 76.33532,-21.81774 -4.30873,16.34303 -11.82289,41.06176 -23.87126,69.77477 z"
     id="path16"
     inkscape:connector-curvature="0"
     style="fill:#009688;stroke-width:0.79247892" /></svg>