<?xml version="1.0" encoding="UTF-8" standalone="no"?>
<svg
   xmlns:dc="http://purl.org/dc/elements/1.1/"
   xmlns:cc="http://creativecommons.org/ns#"
   xmlns:rdf="http://www.w3.org/1999/02/22-rdf-syntax-ns#"
   xmlns:svg="http://www.w3.org/2000/svg"
   xmlns="http://www.w3.org/2000/svg"
   xmlns:sodipodi="http://sodipodi.sourceforge.net/DTD/sodipodi-0.dtd"
   xmlns:inkscape="http://www.inkscape.org/namespaces/inkscape"
   sodipodi:docname="rosegarden.svg"
   inkscape:version="0.91 r13725"
   id="svg2"
   version="1.1"
   width="512"
   viewBox="0 0 512 512"
   height="512">
  <defs
     id="defs17" />
  <sodipodi:namedview
     inkscape:current-layer="svg2"
     inkscape:window-maximized="1"
     inkscape:window-y="0"
     inkscape:window-x="0"
     inkscape:cy="243.50984"
     inkscape:cx="184.92263"
     inkscape:zoom="1.2867932"
     showgrid="false"
     id="namedview15"
     inkscape:window-height="1021"
     inkscape:window-width="1920"
     inkscape:pageshadow="2"
     inkscape:pageopacity="0"
     guidetolerance="10"
     gridtolerance="10"
     objecttolerance="10"
     borderopacity="1"
     bordercolor="#666666"
     pagecolor="#ffffff" />
  <metadata
     id="metadata28">
    <rdf:RDF>
      <cc:Work
         rdf:about="">
        <dc:format>image/svg+xml</dc:format>
        <dc:type
           rdf:resource="http://purl.org/dc/dcmitype/StillImage" />
        <dc:title></dc:title>
      </cc:Work>
    </rdf:RDF>
  </metadata>
  <g
     transform="matrix(53.182279,0,0,53.182279,-109.04119,-118.53661)"
     id="g29"
     style="fill:#009688">
    <g
       transform="matrix(0.28222223,0,0,-0.28222223,4.062701e-8,13.828889)"
       style="fill:#009688;fill-opacity:1"
       id="g31">
      <g
         id="g33"
         style="fill:#009688">
        <path
           transform="matrix(1,0,0,-1,0,49)"
           d="m 23.826,11 c -3.319,0 -6.01,2.539 -6.01,5.67 0,0.154 0.009,0.309 0.023,0.463 -0.467,-0.109 -0.946,-0.165 -1.428,-0.166 -2.922,0.033 -5.412,2.539 -5.412,5.67 0,2.342 1.525,4.443 3.84,5.289 -0.694,0.946 -1.066,2.068 -1.068,3.219 0,3.131 2.69,5.669 6.01,5.67 1.382,-0.002 2.722,-0.452 3.793,-1.275 1.102,0.938 2.531,1.458 4.02,1.461 3.321,0 6.01,-2.541 6.01,-5.674 -0.002,-1.059 -0.319,-2.096 -0.914,-2.994 2.557,-0.71 4.312,-2.925 4.313,-5.439 0,-3.132 -2,-5.627 -6.613,-5.67 -0.196,0 -0.393,0.011 -0.588,0.029 0.024,-0.193 0.04,-0.387 0.043,-0.582 0,-3.133 -2.695,-5.671 -6.02,-5.67 m 0.174,8.756 c 0.256,0 0.511,0.099 0.707,0.295 0,0 0.536,0.778 0.949,0.949 0.414,0.171 1.344,0 1.344,0 0.554,0 1,0.446 1,1 0,0 -0.171,0.93 0,1.344 0.171,0.413 0.949,0.949 0.949,0.949 0.392,0.392 0.392,1.022 0,1.414 0,0 -0.778,0.536 -0.949,0.949 -0.171,0.414 0,1.344 0,1.344 0,0.554 -0.446,1 -1,1 0,0 -0.93,-0.171 -1.344,0 -0.413,0.171 -0.949,0.949 -0.949,0.949 -0.392,0.392 -1.022,0.392 -1.414,0 0,0 -0.536,-0.778 -0.949,-0.949 -0.414,-0.171 -1.344,0 -1.344,0 -0.554,0 -1,-0.446 -1,-1 0,0 0.171,-0.93 0,-1.344 -0.171,-0.413 -0.949,-0.949 -0.949,-0.949 -0.392,-0.392 -0.392,-1.022 0,-1.414 0,0 0.778,-0.536 0.949,-0.949 0.171,-0.414 0,-1.344 0,-1.344 0,-0.554 0.446,-1 1,-1 0,0 0.93,0.171 1.344,0 0.413,-0.171 0.949,-0.949 0.949,-0.949 0.196,-0.196 0.451,-0.295 0.707,-0.295"
           style="opacity:1;fill:#009688;fill-rule:nonzero;stroke:none"
           id="path35"
           inkscape:connector-curvature="0" />
        <path
           d="m 33.462,18.836 c -0.116,1.383 0.321,2.16 1.439,2.984 l -3.318,-0.602"
           style="opacity:1;fill:#009688;fill-rule:evenodd;stroke:none"
           id="path37"
           inkscape:connector-curvature="0" />
        <path
           d="m 21.508,12.424 c 1.696,0.722 2.182,0.629 4.058,-0.077 l -2.047,2.132 z"
           style="opacity:1;fill:#009688;fill-rule:evenodd;stroke:none"
           id="path39"
           inkscape:connector-curvature="0" />
        <path
           d="m 13.867,18.898 c 0.597,1.87 0.043,2.627 -0.817,3.219 l 3.905,-0.612 z"
           style="opacity:1;fill:#009688;fill-rule:evenodd;stroke:none"
           id="path41"
           inkscape:connector-curvature="0" />
        <path
           d="m 15.825,32 c 1.472,0.113 1.969,0.706 2.158,1.594 l 0.66,-2.75 z"
           style="opacity:1;fill:#009688;fill-rule:evenodd;stroke:none"
           id="path43"
           inkscape:connector-curvature="0" />
        <path
           d="m 29.659,33.664 c 0.409,-1.448 0.627,-1.636 2.612,-2.18 l -3.943,-1.427 z"
           style="opacity:1;fill:#009688;fill-rule:evenodd;stroke:none"
           id="path45"
           inkscape:connector-curvature="0" />
      </g>
    </g>
    <circle
       cx="6.7729998"
       cy="7.0599999"
       r="0.847"
       style="fill:#009688;fill-opacity:1;stroke:none"
       id="circle47" />
  </g>
</svg>
