<?xml version="1.0" encoding="UTF-8" standalone="no"?>
<svg xmlns:dc="http://purl.org/dc/elements/1.1/" xmlns:cc="http://creativecommons.org/ns#" xmlns:rdf="http://www.w3.org/1999/02/22-rdf-syntax-ns#" xmlns:svg="http://www.w3.org/2000/svg" xmlns="http://www.w3.org/2000/svg" xmlns:sodipodi="http://sodipodi.sourceforge.net/DTD/sodipodi-0.dtd" xmlns:inkscape="http://www.inkscape.org/namespaces/inkscape" viewBox="0 0 512 512" id="svg2" version="1.1" inkscape:version="0.91 r" sodipodi:docname="sabnzbd.svg">
<metadata id="metadata28">
<rdf:RDF>
<cc:Work rdf:about="">
<dc:format>image/svg+xml</dc:format>
<dc:type rdf:resource="http://purl.org/dc/dcmitype/StillImage" />
</cc:Work>
</rdf:RDF>
</metadata>
<defs id="defs26" />
<sodipodi:namedview pagecolor="#ffffff" bordercolor="#666666" borderopacity="1" objecttolerance="10" gridtolerance="10" guidetolerance="10" inkscape:pageopacity="0" inkscape:pageshadow="2" inkscape:window-width="640" inkscape:window-height="480" id="namedview24" showgrid="false" inkscape:zoom="0.4609375" inkscape:cx="180.0678" inkscape:cy="256" inkscape:window-x="0" inkscape:window-y="0" inkscape:window-maximized="0" inkscape:current-layer="svg2" />
<path style="fill:#009688;fill-rule:evenodd" inkscape:connector-curvature="0" id="path22" d="m 350.25335,161.56691 0,188.86822 136.65445,0 0,-134.91141 -80.65763,0 0,-53.96585 -55.99682,0 m -163.07121,53.96585 0,26.98229 81.24123,0 0,29.64074 -81.24123,0 0,78.28192 136.65445,0 0,-134.89849 -136.65445,0 m -162.089937,1.22917 0,82.38517 81.248967,0 0,24.30833 -81.248967,0 0,26.98228 136.654447,0 0,-78.28451 -81.241224,0 0,-28.41803 81.241224,0 0,-26.98228 -136.654447,0 m 381.157967,25.7544 24.08238,0 0,80.94039 -24.08238,0 0,-80.94039 m -163.07121,56.63206 25.82284,0 0,24.30833 -25.82284,0 0,-24.30833" />
</svg>
