<?xml version="1.0" encoding="UTF-8" standalone="no"?>
<svg
   xmlns:dc="http://purl.org/dc/elements/1.1/"
   xmlns:cc="http://creativecommons.org/ns#"
   xmlns:rdf="http://www.w3.org/1999/02/22-rdf-syntax-ns#"
   xmlns:svg="http://www.w3.org/2000/svg"
   xmlns="http://www.w3.org/2000/svg"
   xmlns:sodipodi="http://sodipodi.sourceforge.net/DTD/sodipodi-0.dtd"
   xmlns:inkscape="http://www.inkscape.org/namespaces/inkscape"
   viewBox="0 0 512 512"
   id="svg2"
   version="1.1"
   inkscape:version="0.91 r"
   sodipodi:docname="sayonara.svg">
  <metadata
     id="metadata24">
    <rdf:RDF>
      <cc:Work
         rdf:about="">
        <dc:format>image/svg+xml</dc:format>
        <dc:type
           rdf:resource="http://purl.org/dc/dcmitype/StillImage" />
      </cc:Work>
    </rdf:RDF>
  </metadata>
  <defs
     id="defs22" />
  <sodipodi:namedview
     pagecolor="#ffffff"
     bordercolor="#666666"
     borderopacity="1"
     objecttolerance="10"
     gridtolerance="10"
     guidetolerance="10"
     inkscape:pageopacity="0"
     inkscape:pageshadow="2"
     inkscape:window-width="640"
     inkscape:window-height="480"
     id="namedview20"
     showgrid="false"
     inkscape:zoom="0.4609375"
     inkscape:cx="256"
     inkscape:cy="256"
     inkscape:window-x="0"
     inkscape:window-y="0"
     inkscape:window-maximized="0"
     inkscape:current-layer="svg2" />
  <path
     fill-rule="evenodd"
     d="m124.79 163.33c-10.839 0-19.569 8.73-19.569 19.569s8.73 19.569 19.569 19.569 19.539-8.73 19.539-19.569-8.7-19.569-19.539-19.569m65.828 0c-11.806 0-21.304 8.816-21.304 19.778s9.499 19.808 21.304 19.808h194.82c11.806 0 21.334-8.846 21.334-19.808s-9.529-19.778-21.334-19.778h-194.82m-65.828 72.89c-10.839 0-19.569 8.73-19.569 19.569s8.73 19.539 19.569 19.539 19.539-8.7 19.539-19.539-8.7-19.569-19.539-19.569m65.828 0c-11.806 0-21.304 8.816-21.304 19.778s9.499 19.778 21.304 19.778h194.82c11.806 0 21.334-8.817 21.334-19.778 0-10.962-9.529-19.778-21.334-19.778h-194.82m-65.828 72.86c-10.839 0-19.569 8.73-19.569 19.569s8.73 19.569 19.569 19.569 19.539-8.73 19.539-19.569-8.7-19.569-19.539-19.569m65.828 0c-11.806 0-21.304 8.846-21.304 19.808s9.499 19.778 21.304 19.778h194.82c11.806 0 21.334-8.817 21.334-19.778 0-10.962-9.529-19.808-21.334-19.808h-194.82"
     fill="#009688"
     id="path18" />
</svg>
