<?xml version="1.0" encoding="UTF-8" standalone="no"?>
<svg
   xmlns:dc="http://purl.org/dc/elements/1.1/"
   xmlns:cc="http://creativecommons.org/ns#"
   xmlns:rdf="http://www.w3.org/1999/02/22-rdf-syntax-ns#"
   xmlns:svg="http://www.w3.org/2000/svg"
   xmlns="http://www.w3.org/2000/svg"
   xmlns:sodipodi="http://sodipodi.sourceforge.net/DTD/sodipodi-0.dtd"
   xmlns:inkscape="http://www.inkscape.org/namespaces/inkscape"
   height="512"
   viewBox="0 0 512 512"
   width="512"
   version="1.1"
   id="svg2"
   inkscape:version="0.91 r"
   sodipodi:docname="kblackbox.svg">
  <defs
     id="defs18" />
  <sodipodi:namedview
     pagecolor="#ffffff"
     bordercolor="#666666"
     borderopacity="1"
     objecttolerance="10"
     gridtolerance="10"
     guidetolerance="10"
     inkscape:pageopacity="0"
     inkscape:pageshadow="2"
     inkscape:window-width="647"
     inkscape:window-height="480"
     id="namedview16"
     showgrid="false"
     inkscape:zoom="0.4609375"
     inkscape:cx="256"
     inkscape:cy="256"
     inkscape:window-x="0"
     inkscape:window-y="0"
     inkscape:window-maximized="0"
     inkscape:current-layer="svg2" />
  <metadata
     id="metadata76">
    <rdf:RDF>
      <cc:Work
         rdf:about="">
        <dc:format>image/svg+xml</dc:format>
        <dc:type
           rdf:resource="http://purl.org/dc/dcmitype/StillImage" />
      </cc:Work>
    </rdf:RDF>
  </metadata>
  <path
     style="fill:#009688"
     id="path70"
     d="m 293.58368,186.33044 c -11.47122,-8.51472 -13.30425,-11.58948 -12.06252,-21.16854 1.47825,-13.5999 -1.00521,-20.16333 -9.93384,-26.66763 -17.56161,-12.77208 -43.93359,-13.54077 -61.43607,-1.89216 -9.69732,6.44517 -14.60511,15.61032 -13.0086,24.77547 1.00521,6.26778 4.67127,11.58948 12.83121,18.50769 l 18.21204,-12.06252 c -7.86429,-7.45038 -8.21907,-13.18599 -0.82782,-18.09378 7.56864,-5.02605 18.27117,-4.84866 25.48503,0.41391 4.1391,3.01563 5.79474,7.0956 5.20344,12.35817 -2.71998,16.91118 0.65043,23.94765 17.38422,35.89191 z m 6.79995,30.27456 18.21204,-12.06252 -17.08857,-12.4173 -18.21204,12.06252 z m -48.13182,41.27274 0.0591,159.59187 L 114.065,337.8215 114.30152,178.22963 Z m 3.78432,161.30664 0.17739,0 -0.41391,0.23652 -0.47304,-0.29565 z M 259.76132,257.996 397.889,178.28876 397.65248,337.52585 259.76132,417.11483 Z m -3.60693,-6.5043 -137.7729,-79.52985 137.7729,-79.52985 138.00942,79.41159 z"
     inkscape:connector-curvature="0" />
</svg>
