<?xml version="1.0" encoding="UTF-8" standalone="no"?>
<svg
   xmlns:dc="http://purl.org/dc/elements/1.1/"
   xmlns:cc="http://creativecommons.org/ns#"
   xmlns:rdf="http://www.w3.org/1999/02/22-rdf-syntax-ns#"
   xmlns:svg="http://www.w3.org/2000/svg"
   xmlns="http://www.w3.org/2000/svg"
   xmlns:sodipodi="http://sodipodi.sourceforge.net/DTD/sodipodi-0.dtd"
   xmlns:inkscape="http://www.inkscape.org/namespaces/inkscape"
   viewBox="0 0 512 512"
   id="svg2"
   version="1.1"
   inkscape:version="0.91 r"
   sodipodi:docname="simsu.svg">
  <metadata
     id="metadata218">
    <rdf:RDF>
      <cc:Work
         rdf:about="">
        <dc:format>image/svg+xml</dc:format>
        <dc:type
           rdf:resource="http://purl.org/dc/dcmitype/StillImage" />
      </cc:Work>
    </rdf:RDF>
  </metadata>
  <defs
     id="defs216" />
  <sodipodi:namedview
     pagecolor="#ffffff"
     bordercolor="#666666"
     borderopacity="1"
     objecttolerance="10"
     gridtolerance="10"
     guidetolerance="10"
     inkscape:pageopacity="0"
     inkscape:pageshadow="2"
     inkscape:window-width="647"
     inkscape:window-height="480"
     id="namedview214"
     showgrid="false"
     inkscape:zoom="0.4609375"
     inkscape:cx="256"
     inkscape:cy="256"
     inkscape:window-x="0"
     inkscape:window-y="0"
     inkscape:window-maximized="0"
     inkscape:current-layer="svg2" />
  <text
     font-size="129.23"
     y="231.36"
     x="729.64"
     font-family="'Gentium Book Basic'"
     line-height="125%"
     word-spacing="0"
     letter-spacing="0"
     id="text4">
    <tspan
       y="231.36"
       x="729.64"
       id="tspan6" />
  </text>
  <text
     transform="scale(4.0128.2492)"
     font-size="46.954"
     y="579.26"
     x="378.91"
     font-family="Arial"
     text-anchor="middle"
     id="text8" />
  <text
     font-size="129.23"
     y="151.36"
     x="1310.91"
     font-family="'Gentium Book Basic'"
     line-height="125%"
     word-spacing="0"
     letter-spacing="0"
     id="text10">
    <tspan
       y="151.36"
       x="1310.91"
       id="tspan12" />
  </text>
  <text
     transform="scale(4.0128.2492)"
     font-size="46.954"
     y="258.22"
     x="523.76"
     font-family="Arial"
     text-anchor="middle"
     id="text14" />
  <text
     font-size="129.23"
     y="-29.9"
     x="239.33"
     font-family="'Gentium Book Basic'"
     line-height="125%"
     word-spacing="0"
     letter-spacing="0"
     id="text16">
    <tspan
       y="-29.9"
       x="239.33"
       id="tspan18" />
  </text>
  <text
     transform="scale(4.0128.2492)"
     font-size="46.954"
     y="-469.13"
     x="256.72"
     font-family="Arial"
     text-anchor="middle"
     id="text20" />
  <text
     font-size="129.23"
     y="-246.37"
     x="1337.38"
     font-family="'Gentium Book Basic'"
     line-height="125%"
     word-spacing="0"
     letter-spacing="0"
     id="text22">
    <tspan
       y="-246.37"
       x="1337.38"
       id="tspan24" />
  </text>
  <text
     transform="scale(4.0128.2492)"
     font-size="46.954"
     y="-1337.8"
     x="530.36"
     font-family="Arial"
     text-anchor="middle"
     id="text26" />
  <text
     font-size="129.23"
     y="-326.37"
     x="1918.65"
     font-family="'Gentium Book Basic'"
     line-height="125%"
     word-spacing="0"
     letter-spacing="0"
     id="text28">
    <tspan
       y="-326.37"
       x="1918.65"
       id="tspan30" />
  </text>
  <text
     transform="scale(4.0128.2492)"
     font-size="46.954"
     y="-1658.83"
     x="675.21"
     font-family="Arial"
     text-anchor="middle"
     id="text32" />
  <text
     font-size="129.23"
     y="-798.77"
     x="1529.53"
     font-family="'Gentium Book Basic'"
     line-height="125%"
     word-spacing="0"
     letter-spacing="0"
     id="text34">
    <tspan
       y="-798.77"
       x="1529.53"
       id="tspan36" />
  </text>
  <text
     transform="scale(4.0128.2492)"
     font-size="46.954"
     y="-3554.48"
     x="578.24"
     font-family="Arial"
     text-anchor="middle"
     id="text38" />
  <text
     font-size="129.23"
     y="-878.78"
     x="2110.79"
     font-family="'Gentium Book Basic'"
     line-height="125%"
     word-spacing="0"
     letter-spacing="0"
     id="text40">
    <tspan
       y="-878.78"
       x="2110.79"
       id="tspan42" />
  </text>
  <text
     transform="scale(4.0128.2492)"
     font-size="46.954"
     y="-3875.52"
     x="723.09"
     font-family="Arial"
     text-anchor="middle"
     id="text44" />
  <g
     font-family="'Gentium Book Basic'"
     line-height="125%"
     word-spacing="0"
     letter-spacing="0"
     id="g46">
    <text
       y="535.94"
       x="277.99"
       font-size="208.33"
       id="text48">
      <tspan
         y="535.94"
         x="277.99"
         id="tspan50" />
    </text>
    <text
       y="231.36"
       x="729.64"
       font-size="129.23"
       id="text52">
      <tspan
         y="231.36"
         x="729.64"
         id="tspan54" />
    </text>
  </g>
  <text
     transform="scale(4.0128.2492)"
     font-size="46.954"
     y="579.26"
     x="378.91"
     font-family="Arial"
     text-anchor="middle"
     id="text56" />
  <text
     font-size="129.23"
     y="151.36"
     x="1310.91"
     font-family="'Gentium Book Basic'"
     line-height="125%"
     word-spacing="0"
     letter-spacing="0"
     id="text58">
    <tspan
       y="151.36"
       x="1310.91"
       id="tspan60" />
  </text>
  <text
     transform="scale(4.0128.2492)"
     font-size="46.954"
     y="258.22"
     x="523.76"
     font-family="Arial"
     text-anchor="middle"
     id="text62" />
  <text
     font-size="129.23"
     y="-29.9"
     x="239.33"
     font-family="'Gentium Book Basic'"
     line-height="125%"
     word-spacing="0"
     letter-spacing="0"
     id="text64">
    <tspan
       y="-29.9"
       x="239.33"
       id="tspan66" />
  </text>
  <text
     transform="scale(4.0128.2492)"
     font-size="46.954"
     y="-469.13"
     x="256.72"
     font-family="Arial"
     text-anchor="middle"
     id="text68" />
  <text
     font-size="129.23"
     y="-246.37"
     x="1337.38"
     font-family="'Gentium Book Basic'"
     line-height="125%"
     word-spacing="0"
     letter-spacing="0"
     id="text70">
    <tspan
       y="-246.37"
       x="1337.38"
       id="tspan72" />
  </text>
  <text
     transform="scale(4.0128.2492)"
     font-size="46.954"
     y="-1337.8"
     x="530.36"
     font-family="Arial"
     text-anchor="middle"
     id="text74" />
  <text
     font-size="129.23"
     y="-326.37"
     x="1918.65"
     font-family="'Gentium Book Basic'"
     line-height="125%"
     word-spacing="0"
     letter-spacing="0"
     id="text76">
    <tspan
       y="-326.37"
       x="1918.65"
       id="tspan78" />
  </text>
  <text
     transform="scale(4.0128.2492)"
     font-size="46.954"
     y="-1658.83"
     x="675.21"
     font-family="Arial"
     text-anchor="middle"
     id="text80" />
  <text
     font-size="129.23"
     y="-798.77"
     x="1529.53"
     font-family="'Gentium Book Basic'"
     line-height="125%"
     word-spacing="0"
     letter-spacing="0"
     id="text82">
    <tspan
       y="-798.77"
       x="1529.53"
       id="tspan84" />
  </text>
  <text
     transform="scale(4.0128.2492)"
     font-size="46.954"
     y="-3554.48"
     x="578.24"
     font-family="Arial"
     text-anchor="middle"
     id="text86" />
  <text
     font-size="129.23"
     y="-878.78"
     x="2110.79"
     font-family="'Gentium Book Basic'"
     line-height="125%"
     word-spacing="0"
     letter-spacing="0"
     id="text88">
    <tspan
       y="-878.78"
       x="2110.79"
       id="tspan90" />
  </text>
  <text
     transform="scale(4.0128.2492)"
     font-size="46.954"
     y="-3875.52"
     x="723.09"
     font-family="Arial"
     text-anchor="middle"
     id="text92" />
  <g
     font-family="'Gentium Book Basic'"
     line-height="125%"
     word-spacing="0"
     letter-spacing="0"
     id="g94">
    <text
       y="535.94"
       x="277.99"
       font-size="208.33"
       id="text96">
      <tspan
         y="535.94"
         x="277.99"
         id="tspan98" />
    </text>
    <text
       y="231.36"
       x="729.64"
       font-size="129.23"
       id="text100">
      <tspan
         y="231.36"
         x="729.64"
         id="tspan102" />
    </text>
  </g>
  <text
     transform="scale(4.0128.2492)"
     font-size="46.954"
     y="579.26"
     x="378.91"
     font-family="Arial"
     text-anchor="middle"
     id="text104" />
  <text
     font-size="129.23"
     y="151.36"
     x="1310.91"
     font-family="'Gentium Book Basic'"
     line-height="125%"
     word-spacing="0"
     letter-spacing="0"
     id="text106">
    <tspan
       y="151.36"
       x="1310.91"
       id="tspan108" />
  </text>
  <text
     transform="scale(4.0128.2492)"
     font-size="46.954"
     y="258.22"
     x="523.76"
     font-family="Arial"
     text-anchor="middle"
     id="text110" />
  <text
     font-size="129.23"
     y="-29.9"
     x="239.33"
     font-family="'Gentium Book Basic'"
     line-height="125%"
     word-spacing="0"
     letter-spacing="0"
     id="text112">
    <tspan
       y="-29.9"
       x="239.33"
       id="tspan114" />
  </text>
  <text
     transform="scale(4.0128.2492)"
     font-size="46.954"
     y="-469.13"
     x="256.72"
     font-family="Arial"
     text-anchor="middle"
     id="text116" />
  <text
     font-size="129.23"
     y="-246.37"
     x="1337.38"
     font-family="'Gentium Book Basic'"
     line-height="125%"
     word-spacing="0"
     letter-spacing="0"
     id="text118">
    <tspan
       y="-246.37"
       x="1337.38"
       id="tspan120" />
  </text>
  <text
     transform="scale(4.0128.2492)"
     font-size="46.954"
     y="-1337.8"
     x="530.36"
     font-family="Arial"
     text-anchor="middle"
     id="text122" />
  <text
     font-size="129.23"
     y="-326.37"
     x="1918.65"
     font-family="'Gentium Book Basic'"
     line-height="125%"
     word-spacing="0"
     letter-spacing="0"
     id="text124">
    <tspan
       y="-326.37"
       x="1918.65"
       id="tspan126" />
  </text>
  <text
     transform="scale(4.0128.2492)"
     font-size="46.954"
     y="-1658.83"
     x="675.21"
     font-family="Arial"
     text-anchor="middle"
     id="text128" />
  <text
     font-size="129.23"
     y="-798.77"
     x="1529.53"
     font-family="'Gentium Book Basic'"
     line-height="125%"
     word-spacing="0"
     letter-spacing="0"
     id="text130">
    <tspan
       y="-798.77"
       x="1529.53"
       id="tspan132" />
  </text>
  <text
     transform="scale(4.0128.2492)"
     font-size="46.954"
     y="-3554.48"
     x="578.24"
     font-family="Arial"
     text-anchor="middle"
     id="text134" />
  <text
     font-size="129.23"
     y="-878.78"
     x="2110.79"
     font-family="'Gentium Book Basic'"
     line-height="125%"
     word-spacing="0"
     letter-spacing="0"
     id="text136">
    <tspan
       y="-878.78"
       x="2110.79"
       id="tspan138" />
  </text>
  <text
     transform="scale(4.0128.2492)"
     font-size="46.954"
     y="-3875.52"
     x="723.09"
     font-family="Arial"
     text-anchor="middle"
     id="text140" />
  <text
     font-size="208.33"
     y="535.94"
     x="277.99"
     font-family="'Gentium Book Basic'"
     line-height="125%"
     word-spacing="0"
     letter-spacing="0"
     id="text142">
    <tspan
       y="535.94"
       x="277.99"
       id="tspan144" />
  </text>
  <path
     opacity="0.81"
     d="m189.03 43.656c-6.147 1.876-12.159 4.02-18.06 6.406v120.91h-120.91c-2.386 5.895-4.532 11.926-6.406 18.06h127.31v133.94h-125.44c2.071 6.146 4.443 12.174 7.03 18.06h118.41v115c5.902 2.389 11.918 4.53 18.06 6.406v-121.41h133.94v119.53c6.151-2.072 12.17-4.441 18.06-7.03v-112.5h112.5c2.589-5.891 4.929-11.913 7-18.06h-119.5v-133.94h121.38c-1.874-6.134-3.99-12.171-6.375-18.06h-115v-118.41c-5.893-2.59-11.912-4.928-18.06-7v125.41h-133.94v-127.31m0 145.38h133.94v133.94h-133.94v-133.94"
     fill="#009688"
     id="path148" />
  <path
     style="fill:#009688"
     inkscape:connector-curvature="0"
     id="path164"
     d="m 258.06,69.75 c -9.05,0 -16.13,2.171 -21.281,6.5 -5.109,4.329 -7.656,10.277 -7.656,17.844 0,4.02 0.784,7.528 2.344,10.531 1.56,3 3.637,5.613 6.25,7.875 2.613,2.262 6.524,4.637 11.75,7.094 5.577,2.652 9.268,4.572 11.06,5.781 1.833,1.209 3.22,2.486 4.156,3.813 0.936,1.287 1.406,2.76 1.406,4.438 0,3 -1.074,5.26 -3.219,6.781 -2.106,1.521 -5.147,2.281 -9.125,2.281 -3.315,0 -6.983,-0.509 -11,-1.563 -3.978,-1.053 -8.853,-2.863 -14.625,-5.438 l 0,16.844 c 7.02,3.432 15.09,5.156 24.22,5.156 9.907,0 17.618,-2.241 23.16,-6.688 5.577,-4.446 8.375,-10.527 8.375,-18.25 0,-5.577 -1.473,-10.271 -4.438,-14.09 -2.964,-3.861 -8.442,-7.709 -16.438,-11.531 -6.05,-2.886 -9.893,-4.877 -11.531,-5.969 -1.599,-1.131 -2.759,-2.267 -3.5,-3.438 -0.741,-1.209 -1.125,-2.62 -1.125,-4.219 0,-2.574 0.917,-4.651 2.75,-6.25 1.833,-1.599 4.474,-2.406 7.906,-2.406 2.886,0 5.817,0.353 8.781,1.094 3,0.741 6.78,2.065 11.344,3.938 l 5.844,-14.09 c -4.407,-1.911 -8.631,-3.416 -12.688,-4.469 -4.02,-1.053 -8.272,-1.562 -12.719,-1.563 m -172.16,142.28 0,10.594 10.688,4.938 0,56.875 -10.688,4.938 0,10.594 40,0 0,-10.594 -10.719,-4.938 0,-56.875 10.719,-4.938 0,-10.594 -40,0 m 123.09,0 0,87.94 16.656,0 0,-40.906 c 0,-4.691 -0.394,-14.06 -1.156,-28.09 l 0.563,0 21.16,69 17.09,0 22.656,-68.875 0.563,0 c -0.481,11.07 -0.764,17.903 -0.844,20.469 -0.04,2.566 -0.063,4.817 -0.063,6.781 l 0,41.625 17.375,0 0,-87.94 -25.375,0 -22.06,67.25 -0.375,0 -20.813,-67.25 -25.375,0 m 49.06,153.84 c -9.05,0 -16.13,2.171 -21.281,6.5 -5.109,4.329 -7.656,10.277 -7.656,17.844 0,4.02 0.784,7.528 2.344,10.531 1.56,3 3.637,5.644 6.25,7.906 2.613,2.262 6.524,4.605 11.75,7.06 5.577,2.652 9.268,4.603 11.06,5.813 1.833,1.209 3.22,2.455 4.156,3.781 0.936,1.287 1.406,2.792 1.406,4.469 0,3 -1.074,5.26 -3.219,6.781 -2.106,1.521 -5.147,2.281 -9.125,2.281 -3.315,0 -6.983,-0.541 -11,-1.594 -3.978,-1.053 -8.853,-2.863 -14.625,-5.438 l 0,16.844 c 7.02,3.432 15.09,5.156 24.22,5.156 9.907,0 17.618,-2.21 23.16,-6.656 5.577,-4.446 8.375,-10.527 8.375,-18.25 0,-5.577 -1.473,-10.303 -4.438,-14.12 -2.964,-3.861 -8.442,-7.678 -16.438,-11.5 -6.05,-2.886 -9.893,-4.877 -11.531,-5.969 -1.599,-1.131 -2.759,-2.299 -3.5,-3.469 -0.741,-1.209 -1.125,-2.62 -1.125,-4.219 0,-2.574 0.917,-4.651 2.75,-6.25 1.833,-1.599 4.474,-2.406 7.906,-2.406 2.886,0 5.817,0.384 8.781,1.125 3,0.741 6.78,2.034 11.344,3.906 l 5.844,-14.09 c -4.407,-1.911 -8.631,-3.384 -12.688,-4.438 -4.02,-1.053 -8.272,-1.594 -12.719,-1.594 m 108.72,0 0,55.906 c 0,6.177 1.207,11.539 3.594,16.09 5.367,-3.414 10.558,-7.05 15.594,-10.906 -0.553,-2.294 -0.844,-4.936 -0.844,-7.969 l 0,-53.12 -18.344,0 m 52.875,0 0,29.16 c 6.673,-7.824 12.811,-16.13 18.344,-24.844 l 0,-4.313 -18.344,0" />
  <text
     font-size="129.23"
     y="231.36"
     x="729.64"
     font-family="'Gentium Book Basic'"
     line-height="125%"
     word-spacing="0"
     letter-spacing="0"
     id="text168">
    <tspan
       y="231.36"
       x="729.64"
       id="tspan170" />
  </text>
  <text
     transform="scale(4.0128.2492)"
     font-size="46.954"
     y="579.26"
     x="378.91"
     font-family="Arial"
     text-anchor="middle"
     id="text172" />
  <text
     font-size="129.23"
     y="151.36"
     x="1310.91"
     font-family="'Gentium Book Basic'"
     line-height="125%"
     word-spacing="0"
     letter-spacing="0"
     id="text174">
    <tspan
       y="151.36"
       x="1310.91"
       id="tspan176" />
  </text>
  <text
     transform="scale(4.0128.2492)"
     font-size="46.954"
     y="258.22"
     x="523.76"
     font-family="Arial"
     text-anchor="middle"
     id="text178" />
  <text
     font-size="129.23"
     y="-29.9"
     x="239.33"
     font-family="'Gentium Book Basic'"
     line-height="125%"
     word-spacing="0"
     letter-spacing="0"
     id="text180">
    <tspan
       y="-29.9"
       x="239.33"
       id="tspan182" />
  </text>
  <text
     transform="scale(4.0128.2492)"
     font-size="46.954"
     y="-469.13"
     x="256.72"
     font-family="Arial"
     text-anchor="middle"
     id="text184" />
  <text
     font-size="129.23"
     y="-246.37"
     x="1337.38"
     font-family="'Gentium Book Basic'"
     line-height="125%"
     word-spacing="0"
     letter-spacing="0"
     id="text186">
    <tspan
       y="-246.37"
       x="1337.38"
       id="tspan188" />
  </text>
  <text
     transform="scale(4.0128.2492)"
     font-size="46.954"
     y="-1337.8"
     x="530.36"
     font-family="Arial"
     text-anchor="middle"
     id="text190" />
  <text
     font-size="129.23"
     y="-326.37"
     x="1918.65"
     font-family="'Gentium Book Basic'"
     line-height="125%"
     word-spacing="0"
     letter-spacing="0"
     id="text192">
    <tspan
       y="-326.37"
       x="1918.65"
       id="tspan194" />
  </text>
  <text
     transform="scale(4.0128.2492)"
     font-size="46.954"
     y="-1658.83"
     x="675.21"
     font-family="Arial"
     text-anchor="middle"
     id="text196" />
  <text
     font-size="129.23"
     y="-798.77"
     x="1529.53"
     font-family="'Gentium Book Basic'"
     line-height="125%"
     word-spacing="0"
     letter-spacing="0"
     id="text198">
    <tspan
       y="-798.77"
       x="1529.53"
       id="tspan200" />
  </text>
  <text
     transform="scale(4.0128.2492)"
     font-size="46.954"
     y="-3554.48"
     x="578.24"
     font-family="Arial"
     text-anchor="middle"
     id="text202" />
  <text
     font-size="129.23"
     y="-878.78"
     x="2110.79"
     font-family="'Gentium Book Basic'"
     line-height="125%"
     word-spacing="0"
     letter-spacing="0"
     id="text204">
    <tspan
       y="-878.78"
       x="2110.79"
       id="tspan206" />
  </text>
  <text
     transform="scale(4.0128.2492)"
     font-size="46.954"
     y="-3875.52"
     x="723.09"
     font-family="Arial"
     text-anchor="middle"
     id="text208" />
  <text
     font-size="208.33"
     y="535.94"
     x="277.99"
     font-family="'Gentium Book Basic'"
     line-height="125%"
     word-spacing="0"
     letter-spacing="0"
     id="text210">
    <tspan
       y="535.94"
       x="277.99"
       id="tspan212" />
  </text>
</svg>
