<?xml version="1.0" encoding="UTF-8" standalone="no"?>
<svg
   xmlns:dc="http://purl.org/dc/elements/1.1/"
   xmlns:cc="http://creativecommons.org/ns#"
   xmlns:rdf="http://www.w3.org/1999/02/22-rdf-syntax-ns#"
   xmlns:svg="http://www.w3.org/2000/svg"
   xmlns="http://www.w3.org/2000/svg"
   xmlns:sodipodi="http://sodipodi.sourceforge.net/DTD/sodipodi-0.dtd"
   xmlns:inkscape="http://www.inkscape.org/namespaces/inkscape"
   height="512"
   viewBox="0 0 512 512"
   width="512"
   version="1.1"
   id="svg2"
   inkscape:version="0.91 r13725"
   sodipodi:docname="system-software-installer.svg">
  <defs
     id="defs17" />
  <sodipodi:namedview
     pagecolor="#ffffff"
     bordercolor="#666666"
     borderopacity="1"
     objecttolerance="10"
     gridtolerance="10"
     guidetolerance="10"
     inkscape:pageopacity="0"
     inkscape:pageshadow="2"
     inkscape:window-width="1920"
     inkscape:window-height="1022"
     id="namedview15"
     showgrid="false"
     inkscape:zoom="1.080923"
     inkscape:cx="30.272092"
     inkscape:cy="227.62886"
     inkscape:window-x="0"
     inkscape:window-y="0"
     inkscape:window-maximized="1"
     inkscape:current-layer="svg2" />
  <metadata
     id="metadata28">
    <rdf:RDF>
      <cc:Work
         rdf:about="">
        <dc:format>image/svg+xml</dc:format>
        <dc:type
           rdf:resource="http://purl.org/dc/dcmitype/StillImage" />
        <dc:title></dc:title>
      </cc:Work>
    </rdf:RDF>
  </metadata>
  <path
     inkscape:connector-curvature="0"
     style="fill:#009688"
     d="m 204.87705,32.121929 0,150.348341 -59.79023,0 c -17.51132,0 -1.3637,15.21348 -1.3637,15.21348 l 106.1098,128.22907 0.0423,0.0423 c 0,0 8.65134,10.13641 17.72815,1.02278 12.58562,-12.57335 102.87782,-132.40201 102.87782,-132.40201 0,0 15.96215,-15.98125 -5.28435,-15.98125 l -55.18773,0 0,-146.461782 -105.12793,0 M 120.2906,360.70364 c -24.284842,0 -43.856719,19.52414 -43.856719,43.8158 0,24.28484 19.566423,43.85672 43.856719,43.85672 l 272.65894,0 c 24.28484,0 43.85672,-19.56643 43.85672,-43.85672 0,-24.28484 -19.56642,-43.80217 -43.85672,-43.80217 l -272.65894,0 m -1.32143,20.24282 c 0.40229,-0.0204 0.8714,0 1.27915,0 13.03565,0 23.56617,10.53052 23.56617,23.56617 0,13.03564 -10.53052,23.65208 -23.56617,23.65208 -13.03564,0 -23.566164,-10.61507 -23.566164,-23.65208 0,-12.62926 9.815944,-22.93477 22.288374,-23.56617"
     id="path737" />
</svg>
