<?xml version="1.0" encoding="UTF-8" standalone="no"?>
<svg
   xmlns:dc="http://purl.org/dc/elements/1.1/"
   xmlns:cc="http://creativecommons.org/ns#"
   xmlns:rdf="http://www.w3.org/1999/02/22-rdf-syntax-ns#"
   xmlns:svg="http://www.w3.org/2000/svg"
   xmlns="http://www.w3.org/2000/svg"
   xmlns:sodipodi="http://sodipodi.sourceforge.net/DTD/sodipodi-0.dtd"
   xmlns:inkscape="http://www.inkscape.org/namespaces/inkscape"
   sodipodi:docname="distributor-logo-solus.svg"
   inkscape:version="0.91 r13725"
   id="svg2"
   version="1.1"
   width="512"
   viewBox="0 0 512 512"
   height="512">
  <defs
     id="defs17" />
  <sodipodi:namedview
     inkscape:current-layer="svg2"
     inkscape:window-maximized="1"
     inkscape:window-y="0"
     inkscape:window-x="0"
     inkscape:cy="398.9513"
     inkscape:cx="106.904"
     inkscape:zoom="1.0796498"
     showgrid="false"
     id="namedview15"
     inkscape:window-height="1021"
     inkscape:window-width="1920"
     inkscape:pageshadow="2"
     inkscape:pageopacity="0"
     guidetolerance="10"
     gridtolerance="10"
     objecttolerance="10"
     borderopacity="1"
     bordercolor="#666666"
     pagecolor="#ffffff" />
  <metadata
     id="metadata28">
    <rdf:RDF>
      <cc:Work
         rdf:about="">
        <dc:format>image/svg+xml</dc:format>
        <dc:type
           rdf:resource="http://purl.org/dc/dcmitype/StillImage" />
        <dc:title></dc:title>
      </cc:Work>
    </rdf:RDF>
  </metadata>
  <g
     id="g4250"
     transform="matrix(1.3349698,0,0,1.3349698,-85.752173,-85.752249)">
    <path
       sodipodi:nodetypes="sccsccscccsccccccccsccsccsccc"
       inkscape:connector-curvature="0"
       id="circle4804-0"
       d="m 251.14258,105.33984 c -85.8484,-4e-4 -155.442687,69.59301 -155.443361,155.44141 0.01707,30.97492 9.287851,61.23843 26.623051,86.9082 53.90067,4.60134 114.2971,6.84568 166.38671,-0.72265 49.74624,-7.22785 91.53037,-23.49319 114.29297,-53.87305 2.32083,-10.61595 3.52206,-21.446 3.58399,-32.3125 -6.7e-4,-85.8484 -69.59496,-155.44181 -155.44336,-155.44141 z m -51.00391,12.14258 c 16.58384,29.1743 30.90906,45.71695 48.57422,77.72266 1.76296,20.40219 8.96776,126.27497 9.7168,136.01172 -5.24378,-0.42853 -33.16682,-3.21921 -68.16602,-6.85547 -19.0816,-1.98253 -38.73565,-4.23373 -54.69531,-6.51367 l -25.29492,-6.06055 c 28.61712,-50.56316 74.07457,-129.86373 89.86523,-194.30469 z m 60.71875,82.58008 c -2e-5,0 66.63055,52.43855 94.72266,116.58203 -34.17871,16.85525 -65.6946,14.6891 -85.00781,14.57227 13.71597,-35.21968 13.69511,-82.92962 -9.71485,-131.1543 z m 46.14649,29.14453 c 12.08338,3.32057 25.81728,7.51989 38.86132,12.14453 23.65633,8.38715 45.63357,19.91841 58.29102,31.57422 -7.23719,13.34495 -20.59067,33.13082 -39.62836,42.69649 -4.09655,-19.9674 -12.12437,-31.50604 -25.56594,-50.36547 -8.62609,-12.10299 -17.43071,-26.31513 -31.95804,-36.04977 z m 89.44336,86.62109 c -26.12835,23.01111 -64.15413,35.40608 -106.23047,41.51954 -50.49845,7.33703 -107.62855,5.66376 -159.49805,1.55664 29.4887,36.23156 73.70865,57.27974 120.42383,57.32031 64.58925,-0.027 122.43202,-39.99274 145.30469,-100.39649 z"
       style="fill:#009688;fill-opacity:1;stroke:none;stroke-width:3;stroke-miterlimit:4;stroke-dasharray:none;stroke-opacity:1" />
    <path
       style="color:#000000;font-style:normal;font-variant:normal;font-weight:normal;font-stretch:normal;font-size:medium;line-height:normal;font-family:sans-serif;text-indent:0;text-align:start;text-decoration:none;text-decoration-line:none;text-decoration-style:solid;text-decoration-color:#000000;letter-spacing:normal;word-spacing:normal;text-transform:none;direction:ltr;block-progression:tb;writing-mode:lr-tb;baseline-shift:baseline;text-anchor:start;white-space:normal;clip-rule:nonzero;display:inline;overflow:visible;visibility:visible;opacity:1;isolation:auto;mix-blend-mode:normal;color-interpolation:sRGB;color-interpolation-filters:linearRGB;solid-color:#000000;solid-opacity:1;fill:#009688;fill-opacity:1;fill-rule:evenodd;stroke:none;stroke-width:4.31807232;stroke-linecap:butt;stroke-linejoin:miter;stroke-miterlimit:4;stroke-dasharray:none;stroke-dashoffset:0;stroke-opacity:1;color-rendering:auto;image-rendering:auto;shape-rendering:auto;text-rendering:auto;enable-background:accumulate"
       d="M 195.28029,95.623939 C 171.88914,172.0308 137.31153,244.74407 98.128617,314.21516 l -2.428791,4.85758 3.744152,1.92955 c 3.286952,1.52604 7.614142,2.55222 13.472192,3.72382 5.85807,1.1716 13.06413,2.33932 21.16179,3.49613 16.19537,2.31362 35.94174,4.57501 55.09847,6.56534 38.31347,3.98062 74.27736,6.88314 74.27736,6.88314 l 6.11942,0.49336 -0.46961,-6.12417 c 0,0 -9.48917,-123.45524 -11.26163,-143.73985 l -0.095,-1.0958 -0.5313,-0.96773 C 245.98559,172.30263 202.36384,97.736161 195.28029,95.623939 Z m 4.85756,21.859121 c 16.58384,29.1743 30.91067,45.71561 48.57583,77.72132 1.7626,20.39726 8.70231,125.71132 9.45086,135.44191 -5.24026,-0.42824 -32.9049,-2.65365 -67.90655,-6.29018 -19.08158,-1.98252 -38.73555,-4.23321 -54.69524,-6.51317 -7.97982,-1.13995 -15.03946,-2.29158 -20.58779,-3.40125 -2.73752,-0.5475 -2.79766,-2.13926 -4.70239,-2.65533 28.61755,-50.56386 74.0753,-129.86193 89.86528,-194.3033 z"
       id="path4806-5"
       inkscape:connector-curvature="0"
       sodipodi:nodetypes="ccccsssccccccccccssscc" />
    <path
       style="color:#000000;font-style:normal;font-variant:normal;font-weight:normal;font-stretch:normal;font-size:medium;line-height:normal;font-family:sans-serif;text-indent:0;text-align:start;text-decoration:none;text-decoration-line:none;text-decoration-style:solid;text-decoration-color:#000000;letter-spacing:normal;word-spacing:normal;text-transform:none;direction:ltr;block-progression:tb;writing-mode:lr-tb;baseline-shift:baseline;text-anchor:start;white-space:normal;clip-rule:nonzero;display:inline;overflow:visible;visibility:visible;opacity:1;isolation:auto;mix-blend-mode:normal;color-interpolation:sRGB;color-interpolation-filters:linearRGB;solid-color:#000000;solid-opacity:1;fill:#009688;fill-opacity:1;fill-rule:evenodd;stroke:none;stroke-width:4.31807232;stroke-linecap:butt;stroke-linejoin:miter;stroke-miterlimit:4;stroke-dasharray:none;stroke-dashoffset:0;stroke-opacity:1;color-rendering:auto;image-rendering:auto;shape-rendering:auto;text-rendering:auto;enable-background:accumulate"
       d="m 277.85917,209.77713 2.87063,4.79214 c 31.88942,24.37231 83.51495,64.80517 73.84163,102.82777 l -2.67546,9.74837 9.51117,-3.42496 c 29.71743,-10.69251 43.83774,-31.41207 52.46435,-48.36596 l 2.42879,-4.85758 -4.85759,-4.85758 c -14.48319,-15.25215 -36.85421,-25.36146 -62.81041,-34.56401 -25.95622,-9.20252 -54.22573,-17.308 -70.77311,-21.29819 z m 28.9903,19.31059 c 12.07935,3.31972 25.23859,7.25084 38.27719,11.87356 23.65793,8.38771 46.05627,19.17278 58.71317,30.82952 -7.23712,13.34599 -20.17259,30.09482 -39.21252,39.66157 -10.51026,-13.82498 -21.2382,-30.0734 -35.17663,-47.0435 -9.43087,-11.48212 -13.44733,-15.61763 -22.60121,-35.32115 z"
       id="path4810-6"
       inkscape:connector-curvature="0"
       sodipodi:nodetypes="ccccccccsccsccsc" />
    <circle
       inkscape:export-ydpi="90"
       inkscape:export-xdpi="90"
       r="155.62494"
       cy="260.59943"
       cx="251.32481"
       id="circle4812-0"
       style="fill:#500000;fill-opacity:0;stroke:none;stroke-width:3;stroke-miterlimit:4;stroke-dasharray:none;stroke-opacity:1" />
    <path
       style="fill:#009688;fill-opacity:1;stroke:none;stroke-width:3;stroke-miterlimit:4;stroke-dasharray:none;stroke-opacity:1"
       d="m 290.20773,357.34187 c -52.82072,7.45337 -106.62437,5.60548 -159.63097,1.55131 34.1107,43.50082 93.39485,65.42249 148.1562,54.85668 52.85083,-9.08423 99.1757,-47.78812 117.83672,-98.00253 -31.38458,22.26235 -68.46416,35.77423 -106.36195,41.59454 z"
       id="path4814-1"
       inkscape:connector-curvature="0"
       sodipodi:nodetypes="ccccc" />
  </g>
</svg>
