<?xml version="1.0" encoding="UTF-8" standalone="no"?>
<svg
   xmlns:dc="http://purl.org/dc/elements/1.1/"
   xmlns:cc="http://creativecommons.org/ns#"
   xmlns:rdf="http://www.w3.org/1999/02/22-rdf-syntax-ns#"
   xmlns:svg="http://www.w3.org/2000/svg"
   xmlns="http://www.w3.org/2000/svg"
   xmlns:sodipodi="http://sodipodi.sourceforge.net/DTD/sodipodi-0.dtd"
   xmlns:inkscape="http://www.inkscape.org/namespaces/inkscape"
   sodipodi:docname="sound-juicer.svg"
   inkscape:version="0.91 r13725"
   id="svg2"
   version="1.1"
   width="512"
   viewBox="0 0 512 512"
   height="512">
  <defs
     id="defs17" />
  <sodipodi:namedview
     inkscape:current-layer="svg2"
     inkscape:window-maximized="1"
     inkscape:window-y="0"
     inkscape:window-x="1920"
     inkscape:cy="300.4042"
     inkscape:cx="169.96413"
     inkscape:zoom="1.0796498"
     showgrid="false"
     id="namedview15"
     inkscape:window-height="1021"
     inkscape:window-width="1680"
     inkscape:pageshadow="2"
     inkscape:pageopacity="0"
     guidetolerance="10"
     gridtolerance="10"
     objecttolerance="10"
     borderopacity="1"
     bordercolor="#666666"
     pagecolor="#ffffff" />
  <metadata
     id="metadata28">
    <rdf:RDF>
      <cc:Work
         rdf:about="">
        <dc:format>image/svg+xml</dc:format>
        <dc:type
           rdf:resource="http://purl.org/dc/dcmitype/StillImage" />
        <dc:title></dc:title>
      </cc:Work>
    </rdf:RDF>
  </metadata>
  <g
     id="g4831"
     transform="matrix(1.7413904,0,0,1.7413904,-211.31127,-154.71096)">
    <circle
       id="path5997"
       style="fill:#009688;fill-opacity:1;fill-rule:nonzero;stroke:#009688;stroke-width:2.45230341;stroke-linejoin:miter;stroke-miterlimit:4;stroke-dasharray:none;stroke-opacity:1"
       cx="274.94269"
       cy="233.04558"
       r="48.615059" />
    <path
       sodipodi:open="true"
       sodipodi:end="1.5707963"
       sodipodi:start="4.712389"
       d="M 270.94266,108.64495 A 124.40063,124.40063 0 0 1 395.34328,233.04558 124.40063,124.40063 0 0 1 270.94266,357.44621"
       sodipodi:ry="124.40063"
       sodipodi:rx="124.40063"
       sodipodi:cy="233.04558"
       sodipodi:cx="270.94266"
       id="path3782"
       style="fill:#009688;fill-opacity:0;stroke:#009688;stroke-width:3.46265244;stroke-linecap:square;stroke-linejoin:round;stroke-miterlimit:4;stroke-dasharray:none;stroke-opacity:1"
       sodipodi:type="arc" />
    <path
       inkscape:transform-center-x="-21.68"
       inkscape:transform-center-y="46.944579"
       transform="matrix(0.76555588,1.3268833,-1.3259816,0.76607645,316.00844,123.78963)"
       d="m 64,59.820312 a 4.1806682,4.1806682 0 0 0 -2.089844,7.798829 l 44.375004,25.625 a 4.1806682,4.1806682 0 0 0 5.70703,-1.525391 c 4.85754,-8.389313 7.44964,-18.025334 7.4375,-27.724609 A 4.1806682,4.1806682 0 0 0 115.25,59.820312 l -51.25,0 z"
       id="path3764"
       style="fill:#009688;fill-opacity:0;stroke:#009688;stroke-width:2.05232096;stroke-linejoin:round;stroke-miterlimit:4;stroke-dasharray:none;stroke-opacity:1"
       inkscape:original="M 64 64 L 108.375 89.625 C 112.85836 81.881923 115.2612 72.947383 115.25 64 L 64 64 z "
       inkscape:radius="4.1802502"
       sodipodi:type="inkscape:offset" />
    <path
       inkscape:transform-center-x="-51.223635"
       sodipodi:type="inkscape:offset"
       inkscape:radius="4.1802502"
       inkscape:original="M 64 64 L 108.375 89.625 C 112.85836 81.881923 115.2612 72.947383 115.25 64 L 64 64 z "
       style="fill:#009688;fill-opacity:0;stroke:#009688;stroke-width:2.05232096;stroke-linejoin:round;stroke-miterlimit:4;stroke-dasharray:none;stroke-opacity:1"
       id="path3772"
       d="m 64,59.820312 a 4.1806682,4.1806682 0 0 0 -2.089844,7.798829 l 44.375004,25.625 a 4.1806682,4.1806682 0 0 0 5.70703,-1.525391 c 4.85754,-8.389313 7.44964,-18.025334 7.4375,-27.724609 A 4.1806682,4.1806682 0 0 0 115.25,59.820312 l -51.25,0 z"
       transform="matrix(1.3259816,0.76607645,-0.76555588,1.3268833,255.21021,117.47095)"
       inkscape:transform-center-y="51.252265" />
    <path
       inkscape:transform-center-y="25.949151"
       transform="matrix(1.5311117,0,0,1.5321529,199.4002,142.41861)"
       d="m 64,59.820312 a 4.1806682,4.1806682 0 0 0 -2.089844,7.798829 l 44.375004,25.625 a 4.1806682,4.1806682 0 0 0 5.70703,-1.525391 c 4.85754,-8.389313 7.44964,-18.025334 7.4375,-27.724609 A 4.1806682,4.1806682 0 0 0 115.25,59.820312 l -51.25,0 z"
       id="path3774"
       style="fill:#009688;fill-opacity:0;stroke:#009688;stroke-width:2.05232096;stroke-linejoin:round;stroke-miterlimit:4;stroke-dasharray:none;stroke-opacity:1"
       inkscape:original="M 64 64 L 108.375 89.625 C 112.85836 81.881923 115.2612 72.947383 115.25 64 L 64 64 z "
       inkscape:radius="4.1802502"
       sodipodi:type="inkscape:offset"
       inkscape:transform-center-x="-62.787087" />
    <path
       inkscape:transform-center-y="-25.949193"
       inkscape:transform-center-x="-62.779721"
       sodipodi:type="inkscape:offset"
       inkscape:radius="4.1802502"
       inkscape:original="M 64 64 L 108.375 89.625 C 112.85836 81.881923 115.2612 72.947383 115.25 64 L 64 64 z "
       style="fill:#009688;fill-opacity:0;stroke:#009688;stroke-width:2.05232096;stroke-linejoin:round;stroke-miterlimit:4;stroke-dasharray:none;stroke-opacity:1"
       id="path3776"
       d="m 64,59.820312 a 4.1806682,4.1806682 0 0 0 -2.089844,7.798829 l 44.375004,25.625 a 4.1806682,4.1806682 0 0 0 5.70703,-1.525391 c 4.85754,-8.389313 7.44964,-18.025334 7.4375,-27.724609 A 4.1806682,4.1806682 0 0 0 115.25,59.820312 l -51.25,0 z"
       transform="matrix(1.3259816,-0.76607645,0.76555588,1.3268833,163.53267,191.94789)" />
    <path
       inkscape:transform-center-y="-51.258467"
       transform="matrix(0.76555588,-1.3268833,1.3259816,0.76607645,157.21829,252.78747)"
       d="m 64,59.820312 a 4.1806682,4.1806682 0 0 0 -2.089844,7.798829 l 44.375004,25.625 a 4.1806682,4.1806682 0 0 0 5.70703,-1.525391 c 4.85754,-8.389313 7.44964,-18.025334 7.4375,-27.724609 A 4.1806682,4.1806682 0 0 0 115.25,59.820312 l -51.25,0 z"
       id="path3778"
       style="fill:#009688;fill-opacity:0;stroke:#009688;stroke-width:2.05232096;stroke-linejoin:round;stroke-miterlimit:4;stroke-dasharray:none;stroke-opacity:1"
       inkscape:original="M 64 64 L 108.375 89.625 C 112.85836 81.881923 115.2612 72.947383 115.25 64 L 64 64 z "
       inkscape:radius="4.1802502"
       sodipodi:type="inkscape:offset"
       inkscape:transform-center-x="-51.217436" />
    <path
       inkscape:transform-center-x="-25.931508"
       sodipodi:type="inkscape:offset"
       inkscape:radius="4.1802502"
       inkscape:original="M 64 64 L 108.375 89.625 C 112.85836 81.881923 115.2612 72.947383 115.25 64 L 64 64 z "
       style="fill:#009688;fill-opacity:0;stroke:#009688;stroke-width:2.05232096;stroke-linejoin:round;stroke-miterlimit:4;stroke-dasharray:none;stroke-opacity:1"
       id="path3780"
       d="m 64,59.820312 a 4.1806682,4.1806682 0 0 0 -2.089844,7.798829 l 44.375004,25.625 a 4.1806682,4.1806682 0 0 0 5.70703,-1.525391 c 4.85754,-8.389313 7.44964,-18.025334 7.4375,-27.724609 A 4.1806682,4.1806682 0 0 0 115.25,59.820312 l -51.25,0 z"
       transform="matrix(0,-1.5321529,1.5311117,0,182.14899,308.63543)"
       inkscape:transform-center-y="-62.829783" />
    <path
       transform="matrix(-0.99996722,0.00809648,-0.00809648,-0.99996722,0,0)"
       sodipodi:open="true"
       sodipodi:end="1.5707963"
       sodipodi:start="4.712389"
       d="m -266.85458,-359.71108 a 124.40063,124.40063 0 0 1 124.40062,124.40062 124.40063,124.40063 0 0 1 -124.40062,124.40063"
       sodipodi:ry="124.40063"
       sodipodi:rx="124.40063"
       sodipodi:cy="-235.31046"
       sodipodi:cx="-266.85458"
       id="path3782-3"
       style="fill:#009688;fill-opacity:0;stroke:#009688;stroke-width:3.46265244;stroke-linecap:square;stroke-linejoin:round;stroke-miterlimit:4;stroke-dasharray:none;stroke-opacity:1"
       sodipodi:type="arc" />
    <path
       id="path5993-6"
       d="m 266.34839,124.39585 a 109.27354,109.27354 0 0 0 -109.27128,109.2713 109.27354,109.27354 0 0 0 109.27128,109.27504 109.27354,109.27354 0 0 0 0.78611,-0.0265 l 0,-218.48209 a 109.27354,109.27354 0 0 0 -0.78611,-0.0377 z"
       style="fill:#009688;fill-opacity:1;fill-rule:nonzero;stroke:none;stroke-opacity:1"
       inkscape:connector-curvature="0" />
  </g>
</svg>
