<?xml version="1.0" encoding="UTF-8" standalone="no"?>
<svg
   xmlns:dc="http://purl.org/dc/elements/1.1/"
   xmlns:cc="http://creativecommons.org/ns#"
   xmlns:rdf="http://www.w3.org/1999/02/22-rdf-syntax-ns#"
   xmlns:svg="http://www.w3.org/2000/svg"
   xmlns="http://www.w3.org/2000/svg"
   xmlns:sodipodi="http://sodipodi.sourceforge.net/DTD/sodipodi-0.dtd"
   xmlns:inkscape="http://www.inkscape.org/namespaces/inkscape"
   height="512"
   viewBox="0 0 512 512"
   width="512"
   version="1.1"
   id="svg2"
   inkscape:version="0.91 r13725"
   sodipodi:docname="SpiderOakONE.svg">
  <defs
     id="defs17" />
  <sodipodi:namedview
     pagecolor="#ffffff"
     bordercolor="#666666"
     borderopacity="1"
     objecttolerance="10"
     gridtolerance="10"
     guidetolerance="10"
     inkscape:pageopacity="0"
     inkscape:pageshadow="2"
     inkscape:window-width="1920"
     inkscape:window-height="1052"
     id="namedview15"
     showgrid="false"
     inkscape:zoom="0.6433966"
     inkscape:cx="-618.06749"
     inkscape:cy="432.08755"
     inkscape:window-x="1920"
     inkscape:window-y="0"
     inkscape:window-maximized="1"
     inkscape:current-layer="svg2" />
  <metadata
     id="metadata28">
    <rdf:RDF>
      <cc:Work
         rdf:about="">
        <dc:format>image/svg+xml</dc:format>
        <dc:type
           rdf:resource="http://purl.org/dc/dcmitype/StillImage" />
        <dc:title></dc:title>
      </cc:Work>
    </rdf:RDF>
  </metadata>
  <path
     d="m 291.52912,104.40717 c -51.16859,0.0515 -98.07486,28.51691 -121.73502,73.8873 -7.64505,-3.40161 -15.92576,-5.15397 -24.29235,-5.17115 -32.67617,0.0344 -59.339375,26.1478 -60.060915,58.80678 -31.301788,13.62366 -51.556883,44.49594 -51.60842,78.63239 0,47.44056 38.458914,85.89948 85.899485,85.89948 l 257.69843,0 c 56.92902,0 103.07938,-46.15036 103.07938,-103.07938 -0.0515,-39.39351 -22.55721,-75.29949 -57.96498,-92.5481 -17.91863,-57.31213 -70.97015,-96.36203 -131.01388,-96.43076 z m -34.35977,68.71959 85.89946,85.89948 -51.53969,0 0,85.89948 -68.71957,0 0,-85.89948 -51.53968,0 z"
     style="fill:#009688;fill-opacity:1"
     id="path29"
     inkscape:connector-curvature="0" />
</svg>
