<?xml version="1.0" encoding="UTF-8" standalone="no"?>
<svg
   xmlns:dc="http://purl.org/dc/elements/1.1/"
   xmlns:cc="http://creativecommons.org/ns#"
   xmlns:rdf="http://www.w3.org/1999/02/22-rdf-syntax-ns#"
   xmlns:svg="http://www.w3.org/2000/svg"
   xmlns="http://www.w3.org/2000/svg"
   xmlns:sodipodi="http://sodipodi.sourceforge.net/DTD/sodipodi-0.dtd"
   xmlns:inkscape="http://www.inkscape.org/namespaces/inkscape"
   height="512"
   viewBox="0 0 512 512"
   width="512"
   version="1.1"
   id="svg2"
   inkscape:version="0.91 r"
   sodipodi:docname="start-here-lxde.svg">
  <defs
     id="defs16" />
  <sodipodi:namedview
     pagecolor="#ffffff"
     bordercolor="#666666"
     borderopacity="1"
     objecttolerance="10"
     gridtolerance="10"
     guidetolerance="10"
     inkscape:pageopacity="0"
     inkscape:pageshadow="2"
     inkscape:window-width="1920"
     inkscape:window-height="1028"
     id="namedview14"
     showgrid="false"
     inkscape:zoom="0.4609375"
     inkscape:cx="-59.661017"
     inkscape:cy="256"
     inkscape:window-x="0"
     inkscape:window-y="0"
     inkscape:window-maximized="1"
     inkscape:current-layer="svg2" />
  <metadata
     id="metadata72">
    <rdf:RDF>
      <cc:Work
         rdf:about="">
        <dc:format>image/svg+xml</dc:format>
        <dc:type
           rdf:resource="http://purl.org/dc/dcmitype/StillImage" />
      </cc:Work>
    </rdf:RDF>
  </metadata>
  <path
     id="path66"
     d="M 344.66876,94.043026 C 331.65499,97.30492 313.3889,105.4564 302.36035,110.4097 293.08819,103.01746 130.81514,206.06939 64.017169,249.53097 103.88794,234.29797 192.3348,201.10309 199.69324,209.70701 207.88113,219.28077 147.35213,281.38027 96.766117,366.95136 138.5116,322.00248 217.77731,219.13257 232.39018,226.63401 c 0.95426,2.83807 -14.72077,26.19656 -35.45311,60.18058 -24.72747,40.52341 -43.22757,76.87357 -61.44165,111.75725 1.90851,-1.44959 -3.05128,9.69077 -5.57083,14.05513 22.56284,-25.3346 78.83669,-105.43627 101.92606,-138.39323 21.11066,-30.13579 49.19363,-79.48672 69.93896,-79.75974 34.59766,-0.46283 77.49761,69.54114 122.23327,174.27536 7.62885,17.86307 6.60829,20.77394 10.73864,32.43953 3.21379,2.52085 4.22135,-4.45146 5.22631,-5.59813 -0.47713,-10.31091 -6.14677,-32.10151 -15.80504,-66.64196 -21.24326,-75.98952 -43.33158,-158.81745 -95.8547,-196.51969 l 3.3802,-21.43568 c 3.75202,-4.87009 9.58807,-11.700692 12.95527,-16.927003 z"
     style="fill:#009688;fill-rule:evenodd;stroke:none;stroke-width:7.70200014;stroke-linecap:round;stroke-linejoin:round"
     inkscape:connector-curvature="0" />
</svg>
