<?xml version="1.0" encoding="UTF-8" standalone="no"?>
<svg
   xmlns:dc="http://purl.org/dc/elements/1.1/"
   xmlns:cc="http://creativecommons.org/ns#"
   xmlns:rdf="http://www.w3.org/1999/02/22-rdf-syntax-ns#"
   xmlns:svg="http://www.w3.org/2000/svg"
   xmlns="http://www.w3.org/2000/svg"
   xmlns:sodipodi="http://sodipodi.sourceforge.net/DTD/sodipodi-0.dtd"
   xmlns:inkscape="http://www.inkscape.org/namespaces/inkscape"
   viewBox="0 0 512 512"
   id="svg2"
   version="1.1"
   inkscape:version="0.91 r"
   sodipodi:docname="stormcloud.svg">
  <metadata
     id="metadata74">
    <rdf:RDF>
      <cc:Work
         rdf:about="">
        <dc:format>image/svg+xml</dc:format>
        <dc:type
           rdf:resource="http://purl.org/dc/dcmitype/StillImage" />
      </cc:Work>
    </rdf:RDF>
  </metadata>
  <defs
     id="defs72" />
  <sodipodi:namedview
     pagecolor="#ffffff"
     bordercolor="#666666"
     borderopacity="1"
     objecttolerance="10"
     gridtolerance="10"
     guidetolerance="10"
     inkscape:pageopacity="0"
     inkscape:pageshadow="2"
     inkscape:window-width="640"
     inkscape:window-height="480"
     id="namedview70"
     showgrid="false"
     inkscape:zoom="0.4609375"
     inkscape:cx="256"
     inkscape:cy="256"
     inkscape:window-x="0"
     inkscape:window-y="0"
     inkscape:window-maximized="0"
     inkscape:current-layer="svg2" />
  <text
     font-size="129.23"
     y="231.36"
     x="729.64"
     font-family="'Gentium Book Basic'"
     line-height="125%"
     word-spacing="0"
     letter-spacing="0"
     id="text18">
    <tspan
       y="231.36"
       x="729.64"
       id="tspan20" />
  </text>
  <text
     transform="scale(4.0128.2492)"
     font-size="46.954"
     y="579.26"
     x="378.91"
     font-family="Arial"
     text-anchor="middle"
     id="text22" />
  <text
     font-size="129.23"
     y="151.36"
     x="1310.91"
     font-family="'Gentium Book Basic'"
     line-height="125%"
     word-spacing="0"
     letter-spacing="0"
     id="text24">
    <tspan
       y="151.36"
       x="1310.91"
       id="tspan26" />
  </text>
  <text
     transform="scale(4.0128.2492)"
     font-size="46.954"
     y="258.22"
     x="523.76"
     font-family="Arial"
     text-anchor="middle"
     id="text28" />
  <text
     font-size="129.23"
     y="-29.9"
     x="239.33"
     font-family="'Gentium Book Basic'"
     line-height="125%"
     word-spacing="0"
     letter-spacing="0"
     id="text30">
    <tspan
       y="-29.9"
       x="239.33"
       id="tspan32" />
  </text>
  <text
     transform="scale(4.0128.2492)"
     font-size="46.954"
     y="-469.13"
     x="256.72"
     font-family="Arial"
     text-anchor="middle"
     id="text34" />
  <text
     font-size="129.23"
     y="-246.37"
     x="1337.38"
     font-family="'Gentium Book Basic'"
     line-height="125%"
     word-spacing="0"
     letter-spacing="0"
     id="text36">
    <tspan
       y="-246.37"
       x="1337.38"
       id="tspan38" />
  </text>
  <text
     transform="scale(4.0128.2492)"
     font-size="46.954"
     y="-1337.8"
     x="530.36"
     font-family="Arial"
     text-anchor="middle"
     id="text40" />
  <text
     font-size="129.23"
     y="-326.37"
     x="1918.65"
     font-family="'Gentium Book Basic'"
     line-height="125%"
     word-spacing="0"
     letter-spacing="0"
     id="text42">
    <tspan
       y="-326.37"
       x="1918.65"
       id="tspan44" />
  </text>
  <text
     transform="scale(4.0128.2492)"
     font-size="46.954"
     y="-1658.83"
     x="675.21"
     font-family="Arial"
     text-anchor="middle"
     id="text46" />
  <text
     font-size="129.23"
     y="-798.77"
     x="1529.53"
     font-family="'Gentium Book Basic'"
     line-height="125%"
     word-spacing="0"
     letter-spacing="0"
     id="text48">
    <tspan
       y="-798.77"
       x="1529.53"
       id="tspan50" />
  </text>
  <text
     transform="scale(4.0128.2492)"
     font-size="46.954"
     y="-3554.48"
     x="578.24"
     font-family="Arial"
     text-anchor="middle"
     id="text52" />
  <text
     font-size="129.23"
     y="-878.78"
     x="2110.79"
     font-family="'Gentium Book Basic'"
     line-height="125%"
     word-spacing="0"
     letter-spacing="0"
     id="text54">
    <tspan
       y="-878.78"
       x="2110.79"
       id="tspan56" />
  </text>
  <text
     transform="scale(4.0128.2492)"
     font-size="46.954"
     y="-3875.52"
     x="723.09"
     font-family="Arial"
     text-anchor="middle"
     id="text58" />
  <text
     font-size="208.33"
     y="535.94"
     x="277.99"
     font-family="'Gentium Book Basic'"
     line-height="125%"
     word-spacing="0"
     letter-spacing="0"
     id="text60">
    <tspan
       y="535.94"
       x="277.99"
       id="tspan62" />
  </text>
  <path
     style="fill:#009688;fill-rule:evenodd"
     inkscape:connector-curvature="0"
     id="path68"
     d="m 213.37,101.75 c -61.868,0 -112.06,50.05 -112.06,111.92 0,52.3 35.933,96.2 84.4,108.55 5.848,-17.2 5.963,-16.896 9.69,-25.979 -37.972,-8.273 -66.42,-42.12 -66.42,-82.57 0,-46.639 37.759,-84.4 84.4,-84.4 40.703,0 74.58,28.794 82.57,67.13 9.116,-6.087 20.09,-9.549 31.877,-9.549 31.723,0 57.44,25.713 57.44,57.44 0,26.08 -17.339,48.18 -41.15,55.19 -7.302,10.328 -14.374,19.526 -19.941,26.682 2.422,0.213 4.825,0.421 7.302,0.421 46.16,0 83.56,-37.39 83.56,-83.56 0,-46.16 -37.39,-83.56 -83.56,-83.56 -6.486,0 -12.757,0.849 -18.818,2.247 -18.733,-35.689 -56.18,-59.963 -99.28,-59.963 m 28.09,123.86 c -0.731,0.209 -1.336,0.813 -1.545,1.545 l -36.652,98.3 c -0.552,1.365 0.634,3.105 2.106,3.089 l 47.18,0 -21.907,82.15 c -0.257,0.987 0.258,2.119 1.17,2.575 0.912,0.456 2.127,0.188 2.762,-0.609 l 0.421,-0.702 87.91,-113.47 c 0.519,-0.648 0.634,-1.593 0.287,-2.347 -0.348,-0.753 -1.142,-1.279 -1.972,-1.304 l -44.657,0 38.06,-65.861 c 0.787,-1.364 -0.391,-3.384 -1.966,-3.37 l -70.64,0 c -0.094,-0.006 -0.187,-0.006 -0.281,0 -0.094,-0.006 -0.187,-0.006 -0.281,0" />
</svg>
