<?xml version="1.0" encoding="UTF-8" standalone="no"?>
<!-- Created with Inkscape (http://www.inkscape.org/) -->

<svg
   xmlns:dc="http://purl.org/dc/elements/1.1/"
   xmlns:cc="http://creativecommons.org/ns#"
   xmlns:rdf="http://www.w3.org/1999/02/22-rdf-syntax-ns#"
   xmlns:svg="http://www.w3.org/2000/svg"
   xmlns="http://www.w3.org/2000/svg"
   xmlns:sodipodi="http://sodipodi.sourceforge.net/DTD/sodipodi-0.dtd"
   xmlns:inkscape="http://www.inkscape.org/namespaces/inkscape"
   id="svg2"
   version="1.1"
   inkscape:version="0.91 r13725"
   width="512"
   height="512"
   viewBox="0 0 512 512"
   sodipodi:docname="superbeam.svg">
  <metadata
     id="metadata8">
    <rdf:RDF>
      <cc:Work
         rdf:about="">
        <dc:format>image/svg+xml</dc:format>
        <dc:type
           rdf:resource="http://purl.org/dc/dcmitype/StillImage" />
        <dc:title></dc:title>
      </cc:Work>
    </rdf:RDF>
  </metadata>
  <defs
     id="defs6" />
  <sodipodi:namedview
     pagecolor="#ffffff"
     bordercolor="#666666"
     borderopacity="1"
     objecttolerance="10"
     gridtolerance="10"
     guidetolerance="10"
     inkscape:pageopacity="0"
     inkscape:pageshadow="2"
     inkscape:window-width="1168"
     inkscape:window-height="695"
     id="namedview4"
     showgrid="false"
     inkscape:zoom="0.921875"
     inkscape:cx="128"
     inkscape:cy="258.16949"
     inkscape:window-x="0"
     inkscape:window-y="27"
     inkscape:window-maximized="0"
     inkscape:current-layer="svg2" />
  <path
     style="fill:#009688;image-rendering:optimizeQuality"
     d="M 156.23412,298.49215 C 99.570808,204.99736 52.597986,126.74926 51.850019,124.60748 c -0.86764,-2.4845 9.697184,-16.07316 29.185587,-37.538923 l 30.545524,-33.64483 149.22662,0 149.2266,0 29.11009,31.986849 c 17.56487,19.300494 29.08891,34.088444 29.05578,37.285714 -0.0565,5.61678 -202.22732,343.32702 -206.45972,344.8773 -1.36526,0.50002 -48.84289,-75.58664 -105.50638,-169.08144 z m 125.31975,84.42125 c 22.18704,-36.60579 21.79353,-34.52856 8.20143,-43.28127 -20.27476,-13.05592 -45.88642,-11.56703 -61.29769,3.56348 l -7.62876,7.49002 19.21158,31.69633 c 23.15505,38.20263 18.71475,38.14581 41.51344,0.53144 z m -37.54366,-79.83802 c 21.68506,-5.11016 39.39372,-1.58318 59.78021,11.90601 l 13.62897,9.01793 6.67624,-11.08543 6.6763,-11.08543 -8.32512,-7.63688 c -29.70111,-27.24584 -93.37378,-27.15636 -123.1658,0.17287 l -8.51395,7.80998 6.65539,11.05096 6.65562,11.05094 13.83836,-9.15656 c 7.61112,-5.03612 19.35327,-10.45615 26.09378,-12.04459 z m -53.06676,-39.59426 c 45.89084,-30.37257 104.18606,-28.5813 146.89795,4.51376 9.02702,6.99461 10.74916,6.50975 17.12237,-4.82148 l 5.56657,-9.89704 -5.97467,-5.31626 c -46.5586,-41.42636 -139.05497,-41.27457 -187.15049,0.30709 l -5.94547,5.14024 5.52978,9.83151 c 6.75696,12.0134 6.17711,12.00756 23.95396,0.24218 z m -28.14681,-48.86095 c 56.4182,-40.82739 140.46157,-40.01247 199.95763,1.9389 13.26564,9.35376 16.08576,9.01574 22.25658,-2.66759 l 4.3639,-8.26171 -8.06542,-6.65915 c -64.14573,-52.96164 -181.0982,-52.08477 -242.31356,1.81674 l -7.20887,6.34754 6.86647,9.89202 c 3.77656,5.44064 7.89544,9.19325 9.15307,8.33918 1.25763,-0.85408 8.00322,-5.68975 14.9902,-10.74593 z m -22.03575,-50.50043 c 74.44558,-48.30754 180.32733,-45.86575 249.94836,5.76415 14.1409,10.48662 14.47311,10.44783 22.33554,-2.60749 20.16485,-33.48212 -107.27492,-77.538756 -187.86995,-64.9478 -45.26312,7.07119 -122.15702,41.36467 -122.15702,54.48009 0,10.13396 13.24884,24.03315 18.97728,19.90884 3.25524,-2.34373 11.69986,-8.01274 18.76579,-12.59779 z"
     id="path3338"
     inkscape:connector-curvature="0" />
</svg>
