<?xml version="1.0" encoding="UTF-8" standalone="no"?>
<svg
   xmlns:dc="http://purl.org/dc/elements/1.1/"
   xmlns:cc="http://creativecommons.org/ns#"
   xmlns:rdf="http://www.w3.org/1999/02/22-rdf-syntax-ns#"
   xmlns:svg="http://www.w3.org/2000/svg"
   xmlns="http://www.w3.org/2000/svg"
   xmlns:sodipodi="http://sodipodi.sourceforge.net/DTD/sodipodi-0.dtd"
   xmlns:inkscape="http://www.inkscape.org/namespaces/inkscape"
   height="512"
   viewBox="0 0 512 512"
   width="512"
   version="1.1"
   id="svg2"
   inkscape:version="0.91 r"
   sodipodi:docname="system-file-manager-root.svg">
  <defs
     id="defs18" />
  <sodipodi:namedview
     pagecolor="#ffffff"
     bordercolor="#666666"
     borderopacity="1"
     objecttolerance="10"
     gridtolerance="10"
     guidetolerance="10"
     inkscape:pageopacity="0"
     inkscape:pageshadow="2"
     inkscape:window-width="640"
     inkscape:window-height="480"
     id="namedview16"
     showgrid="false"
     inkscape:zoom="0.4609375"
     inkscape:cx="256"
     inkscape:cy="256"
     inkscape:window-x="0"
     inkscape:window-y="0"
     inkscape:window-maximized="0"
     inkscape:current-layer="svg2" />
  <metadata
     id="metadata76">
    <rdf:RDF>
      <cc:Work
         rdf:about="">
        <dc:format>image/svg+xml</dc:format>
        <dc:type
           rdf:resource="http://purl.org/dc/dcmitype/StillImage" />
      </cc:Work>
    </rdf:RDF>
  </metadata>
  <g
     id="g66"
     fill="#009688"
     transform="matrix(1.1125 0 0 1.1125 -25.507 -104.2)"
     fill-rule="evenodd">
    <path
       id="path68"
       d="m132.98 280.02c-0.11 0-0.204 0.089-0.204 0.192v127.9c0 0.103 0.094 0.192 0.204 0.192h240.13c0.11 0 0.204-0.089 0.204-0.192v-127.9c0-0.103-0.094-0.192-0.204-0.192h-87.7v1.785c0 0.248-0.011 0.498-0.029 0.741 0.004 0.098 0 0.203 0 0.302v9.143c0 5.631-4.827 10.187-10.795 10.187h-43.09c-5.967 0-10.766-4.555-10.766-10.187v-9.143c0-0.171-0.008-0.353 0-0.522-0.004-0.072 0.002-0.147 0-0.22-0.003-0.101-0.029-0.201-0.029-0.302v-1.785h-87.73" />
    <path
       id="path70"
       d="m248.81 239.27c-35.463 0.02-69.51 0.067-115.83 0.11-0.11 0-0.204 0.022-0.204 0.055v20.538c0 0.033 0.094 0.055 0.204 0.055h87.73v-3.515c0-5.586 4.759-10.1 10.678-10.1h43.35c5.92 0 10.678 4.518 10.678 10.1v3.515h87.7c0.11 0 0.204-0.022 0.204-0.055v-20.538c0-0.033-0.094-0.055-0.204-0.055-51.974-0.124-88.84-0.13-124.3-0.11" />
  </g>
</svg>
