<?xml version="1.0" encoding="UTF-8" standalone="no"?>
<svg
   xmlns:dc="http://purl.org/dc/elements/1.1/"
   xmlns:cc="http://creativecommons.org/ns#"
   xmlns:rdf="http://www.w3.org/1999/02/22-rdf-syntax-ns#"
   xmlns:svg="http://www.w3.org/2000/svg"
   xmlns="http://www.w3.org/2000/svg"
   xmlns:sodipodi="http://sodipodi.sourceforge.net/DTD/sodipodi-0.dtd"
   xmlns:inkscape="http://www.inkscape.org/namespaces/inkscape"
   height="512"
   viewBox="0 0 512 512"
   width="512"
   version="1.1"
   id="svg2"
   inkscape:version="0.91 r13725"
   sodipodi:docname="accounting.svg">
  <defs
     id="defs17" />
  <sodipodi:namedview
     pagecolor="#ffffff"
     bordercolor="#666666"
     borderopacity="1"
     objecttolerance="10"
     gridtolerance="10"
     guidetolerance="10"
     inkscape:pageopacity="0"
     inkscape:pageshadow="2"
     inkscape:window-width="1920"
     inkscape:window-height="1019"
     id="namedview15"
     showgrid="false"
     inkscape:zoom="0.9905828"
     inkscape:cx="-25.577614"
     inkscape:cy="62.543979"
     inkscape:window-x="0"
     inkscape:window-y="13"
     inkscape:window-maximized="1"
     inkscape:current-layer="svg2"
     showguides="false" />
  <metadata
     id="metadata28">
    <rdf:RDF>
      <cc:Work
         rdf:about="">
        <dc:format>image/svg+xml</dc:format>
        <dc:type
           rdf:resource="http://purl.org/dc/dcmitype/StillImage" />
        <dc:title></dc:title>
      </cc:Work>
    </rdf:RDF>
  </metadata>
  <g
     id="g4177"
     transform="matrix(1.3139549,0,0,1.3139549,-82.289166,-79.608361)">
    <path
       id="path6-3"
       d="m 173.23077,320.05816 0,19.17358 -21.40043,0 0,-18.82178 c -12.48363,-1.40726 -22.29215,-5.62897 -29.42557,-12.66513 -7.13348,-7.1534 -10.89134,-16.53497 -11.27346,-28.1447 l 34.58463,0.1759 c 0.12736,4.22177 1.78333,7.56392 4.96797,10.02658 3.18452,2.46265 7.13341,3.69401 11.84667,3.69395 4.0762,6e-5 7.64296,-0.93809 10.70019,-2.81445 3.56671,-1.99355 5.35003,-4.74941 5.35014,-8.26752 -1.1e-4,-5.1598 -5.73233,-9.67465 -17.19682,-13.54462 -17.06941,-5.74616 -27.70592,-9.96787 -31.90952,-12.66512 -11.46455,-7.0361 -17.19683,-17.06267 -17.19683,-30.07965 0,-10.67146 3.7578,-19.64258 11.27346,-26.9134 7.26084,-6.9188 16.68723,-11.08185 28.27914,-12.48923 l 0,-18.82178 21.40043,0 0,18.82178 c 24.83972,4.10458 37.38697,17.64919 37.64185,40.63393 l -33.82032,0 c -6e-5,-4.45615 -1.40125,-8.09151 -4.20366,-10.90608 -2.80251,-2.93164 -6.624,-4.39749 -11.46455,-4.39761 -3.82153,1.2e-4 -7.13347,0.99692 -9.93587,2.99041 -3.18465,2.11092 -4.77694,4.92537 -4.77688,8.44342 -6e-5,4.45632 5.79589,8.73663 17.38786,12.84103 16.94194,5.74626 27.76948,10.14387 32.48279,13.19281 11.59179,7.15347 17.38775,17.00415 17.38786,29.55195 -1.1e-4,11.14062 -3.82165,20.40495 -11.46455,27.7929 -7.26095,6.91892 -17.00579,11.31652 -29.23453,13.19283"
       style="line-height:100%;fill:#009688;fill-opacity:1"
       inkscape:connector-curvature="0" />
    <path
       d="m 249.87314,163.53361 c -9.33728,0 -16.86769,7.53041 -16.86769,16.86769 l 0,67.43029 84.29798,0 c -0.052,-28.0928 0.006,-56.19641 0.0209,-84.29798 l -67.45053,0 m 78.90032,0 0,84.29798 c 28.09888,-0.0864 56.19641,-0.007 84.29798,0.0209 l 0,-67.45053 c 0,-9.33728 -7.53041,-16.8677 -16.86769,-16.8677 l -67.43029,0 m -57.18148,23.214 17.56264,0 0,15.37051 15.37052,0 0,17.56265 -15.37052,0 0,15.37051 -17.56264,0 0,-15.36984 -15.36984,0 0,-17.56264 15.37051,0 0,-15.37052 m 69.96045,15.37052 48.30233,0 0,17.56264 -48.30233,0 0,-17.56264 m -108.54023,57.16124 0,67.45053 c 0,9.33728 7.53041,16.86769 16.86769,16.86769 l 67.43029,0 0,-84.29798 c -28.09888,0.0864 -56.19641,0.007 -84.29798,-0.0209 m 95.76801,0.0209 c 0.0864,28.09888 0.007,56.19641 -0.0209,84.29798 l 67.45053,0 c 9.33728,0 16.86769,-7.53041 16.86769,-16.86769 l 0,-67.43029 -84.29798,0 m -59.26633,13.64259 10.85605,10.88303 10.88303,-10.87628 12.41867,12.41867 -10.85604,10.85604 10.85604,10.88304 -12.41867,12.41867 -10.87629,-10.85605 -10.85604,10.85605 -12.41867,-12.41867 10.88303,-10.87629 -10.87629,-10.85605 12.41867,-12.41867 m 72.0453,2.08755 48.30232,0 0,17.56264 -48.30232,0 0,-17.56264 m 0,24.83801 48.30232,0 0,17.56265 -48.30232,0 0,-17.56265"
       id="path66"
       style="fill:#009688"
       inkscape:connector-curvature="0" />
  </g>
</svg>
