<?xml version="1.0" encoding="UTF-8" standalone="no"?>
<svg
   xmlns:dc="http://purl.org/dc/elements/1.1/"
   xmlns:cc="http://creativecommons.org/ns#"
   xmlns:rdf="http://www.w3.org/1999/02/22-rdf-syntax-ns#"
   xmlns:svg="http://www.w3.org/2000/svg"
   xmlns="http://www.w3.org/2000/svg"
   xmlns:sodipodi="http://sodipodi.sourceforge.net/DTD/sodipodi-0.dtd"
   xmlns:inkscape="http://www.inkscape.org/namespaces/inkscape"
   height="512"
   viewBox="0 0 512 512"
   width="512"
   version="1.1"
   id="svg2"
   inkscape:version="0.91 r"
   sodipodi:docname="TeXmacs.svg">
  <defs
     id="defs16" />
  <sodipodi:namedview
     pagecolor="#ffffff"
     bordercolor="#666666"
     borderopacity="1"
     objecttolerance="10"
     gridtolerance="10"
     guidetolerance="10"
     inkscape:pageopacity="0"
     inkscape:pageshadow="2"
     inkscape:window-width="1920"
     inkscape:window-height="1028"
     id="namedview14"
     showgrid="false"
     inkscape:zoom="0.4609375"
     inkscape:cx="256"
     inkscape:cy="256"
     inkscape:window-x="0"
     inkscape:window-y="0"
     inkscape:window-maximized="1"
     inkscape:current-layer="svg2" />
  <metadata
     id="metadata72">
    <rdf:RDF>
      <cc:Work
         rdf:about="">
        <dc:format>image/svg+xml</dc:format>
        <dc:type
           rdf:resource="http://purl.org/dc/dcmitype/StillImage" />
      </cc:Work>
    </rdf:RDF>
  </metadata>
  <path
     id="path66"
     d="m256.67 164.7a2.1271 2.1271 0 0 0 -1.254 2.5104l1.08 4.03a2.1271 2.1271 0 0 0 2.6049 1.5039c4.559-1.222 7.494-1.855 9.573-1.767 2.068 0.087 3.502 0.732 5.829 2.649 0.013 0.01 0.021 0.009 0.033 0.019l43.758 37.68-17.18 48.863c-4.054 11.365-13.815 14.05-16.93 14.885a2.1271 2.1271 0 0 0 -1.5039 2.6049l1.08 4.03a2.1271 2.1271 0 0 0 2.7847 1.4557c1.845-0.662 4.563-1.409 7.161-2.139 0.918 9.648 0.953 17.17-1.771 22.769-2.969 6.1-9.228 10.675-22.474 14.224l-23.19 6.214c-1.624 0.435-2.819 0.702-3.592 0.77s-0.998-0.033-1.065-0.072c-0.067-0.04-0.239-0.161-0.516-0.797-0.278-0.637-0.595-1.707-0.975-3.124l-11.959-44.632 13.688-3.668c7.625-2.043 11.418-1.612 13.891 0.379s4.218 6.395 6.087 13.37a2.1271 2.1271 0 0 0 2.6049 1.5039l2.696-0.722a2.1271 2.1271 0 0 0 1.504 -2.6049l-11.643-43.45a2.1271 2.1271 0 0 0 -2.6049 -1.5039l-2.696 0.722a2.1271 2.1271 0 0 0 -1.504 2.6049c1.837 6.855 2.529 11.479 1.377 14.384s-4.264 5.134-11.894 7.178l-13.688 3.668-10.542-39.34c-0.373-1.39-0.617-2.422-0.69-3.09-0.073-0.669 0.001-0.829 0.037-0.891 0.035-0.061 0.178-0.269 0.886-0.595s1.89-0.727 3.514-1.162l22.83-6.117c12.65-3.389 19.686-2.655 24.717 1.029 5.03 3.684 8.499 11 12.605 21.669a2.1271 2.1271 0 0 0 2.543 1.2728l3-0.805a2.1271 2.1271 0 0 0 1.4489 -2.8103l-13.901-35.855a2.1271 2.1271 0 0 0 -2.5499 -1.2985l-70.852 18.985-11.735-33.628a2.1271 2.1271 0 0 0 -2.5705 -1.3755l-96.43 25.838a2.1271 2.1271 0 0 0 -1.5452 2.4508l7.07 37.685a2.1271 2.1271 0 0 0 2.6462 1.658l3-0.805a2.1271 2.1271 0 0 0 1.5521 -2.4251c-2.618-14.07-3.409-22.16-1.015-27 1.197-2.423 3.167-4.286 6.572-6.082s8.2-3.436 14.61-5.153l8.911-2.388c1.225-0.131 1.053-0.109 1.346 0.3 0.294 0.408 0.732 1.706 1.248 3.629l24.359 90.91c0.396 1.479 0.639 2.612 0.643 3.323 0.003 0.711-0.073 0.969-0.517 1.46-0.889 0.981-4.152 2.544-11.1 4.404l-4.725 1.266a2.1271 2.1271 0 0 0 -1.5039 2.6049l1.08 4.03a2.1271 2.1271 0 0 0 2.6562 1.4902c7.968-2.302 16.248-4.684 24.416-6.873 8.141-2.181 16.537-4.268 24.582-6.256a2.1271 2.1271 0 0 0 1.5553 -2.6187l-1.08-4.03a2.1271 2.1271 0 0 0 -2.6049 -1.5039l-4.674 1.252c-6.838 1.832-10.382 2.082-11.606 1.678-0.612-0.202-0.794-0.364-1.145-0.987-0.352-0.623-0.715-1.744-1.112-3.225l-24.359-90.91c-0.494-1.845-0.751-3.129-0.707-3.664 0.042-0.512 0.001-0.538 0.886-1.01l8.783-2.353c6.268-1.679 11.144-2.642 14.941-2.792s6.446 0.453 8.687 1.911c4.204 2.737 7.466 9.434 11.712 21.11l-6.549 1.755a2.1271 2.1271 0 0 0 -1.504 2.6049l1.232 4.597a2.1271 2.1271 0 0 0 2.6049 1.5039c5.915-1.585 9.373-2.283 10.626-2.049 0.626 0.117 0.78 0.219 1.181 0.812s0.857 1.761 1.337 3.55l24.15 90.11c0.48 1.791 0.68 3.076 0.631 3.794s-0.135 0.879-0.617 1.294c-0.963 0.83-4.307 1.925-10.233 3.513a2.1271 2.1271 0 0 0 -1.504 2.6049l1.087 4.057a2.1271 2.1271 0 0 0 2.6049 1.5039l86.9-23.285a2.1271 2.1271 0 0 0 1.554 -2.3155l-4.395-36.23c4.565-1.223 12.01-3.201 15.927-3.937a2.1271 2.1271 0 0 0 1.6649 -2.6205l-1.08-4.03a2.1271 2.1271 0 0 0 -2.3994 -1.559c-2.222 0.371-3.496-0.06-4.364-0.675-0.868-0.614-1.403-1.539-1.661-2.5-0.438-1.634-0.135-2.315 0.383-3.708a2.1271 2.1271 0 0 0 0.019 -0.0326l15.228-43.22 38.13 32.887a2.1271 2.1271 0 0 0 0.0388 0.0446c0.839 0.693 1.217 1.117 1.33 1.267s0.008-0.075 0.067 0.147c-0.066-0.245 0.361 2.218-4.758 3.917a2.1271 2.1271 0 0 0 -1.3756 2.5705l1.08 4.03a2.1271 2.1271 0 0 0 2.7264 1.4438c5.14-1.709 13.287-3.891 18.792-5.366 4.326-1.159 12.734-3.403 16.646-4.13a2.1271 2.1271 0 0 0 1.6649 -2.6205l-1.08-4.03a2.1271 2.1271 0 0 0 -2.6049 -1.5039c-5.296 1.419-8.295 1.946-10.146 1.783-1.841-0.162-2.915-0.863-5.095-2.681l-0.033-0.019-49.973-42.896 14.628-40.939c0.006-0.011 0.015-0.023 0.019-0.033 1.542-4.192 3.941-11.633 16.852-15.277a2.1271 2.1271 0 0 0 1.4782 -2.598l-1.08-4.03a2.1271 2.1271 0 0 0 -2.7778 -1.4301c-3.562 1.278-9.913 2.986-13.913 4.058-5.499 1.473-12.363 3.309-16.441 4.075a2.1271 2.1271 0 0 0 -1.6649 2.6205l1.08 4.03a2.1271 2.1271 0 0 0 2.4251 1.5521c2.322-0.396 3.549 0.035 4.383 0.642s1.353 1.558 1.623 2.565c0.385 1.436 0.12 2.363-0.593 4.26a2.1271 2.1271 0 0 0 -0.019 0.0326l-12.458 34.963-32.04-27.527c-0.723-0.668-1.159-1.124-1.319-1.326-0.166-0.21-0.074-0.071-0.085-0.115 0.04 0.148-0.118-2.465 4.681-3.897a2.1271 2.1271 0 0 0 1.4526 -2.5912l-1.08-4.03a2.1271 2.1271 0 0 0 -2.7265 -1.4438c-5.145 1.711-13.319 3.899-18.818 5.373-4.317 1.157-12.722 3.4-16.621 4.123a2.1271 2.1271 0 0 0 -0.41089 0.1101z"
     stroke="#fff"
     stroke-width="4.473"
     fill="#009688"
     color="#000000"
     style="stroke:none" />
</svg>
