<?xml version="1.0" encoding="UTF-8" standalone="no"?>
<svg
   xmlns:dc="http://purl.org/dc/elements/1.1/"
   xmlns:cc="http://creativecommons.org/ns#"
   xmlns:rdf="http://www.w3.org/1999/02/22-rdf-syntax-ns#"
   xmlns:svg="http://www.w3.org/2000/svg"
   xmlns="http://www.w3.org/2000/svg"
   xmlns:sodipodi="http://sodipodi.sourceforge.net/DTD/sodipodi-0.dtd"
   xmlns:inkscape="http://www.inkscape.org/namespaces/inkscape"
   version="1.1"
   width="512"
   height="512"
   viewBox="0 0 512 512"
   id="svg2"
   inkscape:version="0.91 r"
   sodipodi:docname="applications-development-translation.svg">
  <defs
     id="defs39" />
  <sodipodi:namedview
     pagecolor="#ffffff"
     bordercolor="#666666"
     borderopacity="1"
     objecttolerance="10"
     gridtolerance="10"
     guidetolerance="10"
     inkscape:pageopacity="0"
     inkscape:pageshadow="2"
     inkscape:window-width="640"
     inkscape:window-height="480"
     id="namedview37"
     showgrid="false"
     inkscape:zoom="0.4609375"
     inkscape:cx="256"
     inkscape:cy="256"
     inkscape:window-x="0"
     inkscape:window-y="0"
     inkscape:window-maximized="0"
     inkscape:current-layer="svg2" />
  <metadata
     id="metadata72">
    <rdf:RDF>
      <cc:Work
         rdf:about="">
        <dc:format>image/svg+xml</dc:format>
        <dc:type
           rdf:resource="http://purl.org/dc/dcmitype/StillImage" />
      </cc:Work>
    </rdf:RDF>
  </metadata>
  <text
     x="729.64"
     y="231.36"
     id="text20"
     font-family="Gentium Book Basic"
     word-spacing="0"
     line-height="125%"
     letter-spacing="0"
     font-size="129.23">
    <tspan
       x="729.64"
       y="231.36"
       id="tspan22" />
  </text>
  <text
     x="378.91"
     y="579.25"
     transform="scale(4.0128,0.2492)"
     id="text24"
     font-family="Arial"
     text-anchor="middle"
     font-size="46.954" />
  <text
     x="1310.91"
     y="151.36"
     id="text26"
     font-family="Gentium Book Basic"
     word-spacing="0"
     line-height="125%"
     letter-spacing="0"
     font-size="129.23">
    <tspan
       x="1310.91"
       y="151.36"
       id="tspan28" />
  </text>
  <text
     x="523.76"
     y="258.22"
     transform="scale(4.0128,0.2492)"
     id="text30"
     font-family="Arial"
     text-anchor="middle"
     font-size="46.954" />
  <text
     x="239.33"
     y="-29.901"
     id="text32"
     font-family="Gentium Book Basic"
     word-spacing="0"
     line-height="125%"
     letter-spacing="0"
     font-size="129.23">
    <tspan
       x="239.33"
       y="-29.901"
       id="tspan34" />
  </text>
  <text
     x="256.72"
     y="-469.14"
     transform="scale(4.0128,0.2492)"
     id="text36"
     font-family="Arial"
     text-anchor="middle"
     font-size="46.954" />
  <text
     x="1337.38"
     y="-246.37"
     id="text38"
     font-family="Gentium Book Basic"
     word-spacing="0"
     line-height="125%"
     letter-spacing="0"
     font-size="129.23">
    <tspan
       x="1337.38"
       y="-246.37"
       id="tspan40" />
  </text>
  <text
     x="530.36"
     y="-1337.81"
     transform="scale(4.0128,0.2492)"
     id="text42"
     font-family="Arial"
     text-anchor="middle"
     font-size="46.954" />
  <text
     x="1918.65"
     y="-326.38"
     id="text44"
     font-family="Gentium Book Basic"
     word-spacing="0"
     line-height="125%"
     letter-spacing="0"
     font-size="129.23">
    <tspan
       x="1918.65"
       y="-326.38"
       id="tspan46" />
  </text>
  <text
     x="675.21"
     y="-1658.85"
     transform="scale(4.0128,0.2492)"
     id="text48"
     font-family="Arial"
     text-anchor="middle"
     font-size="46.954" />
  <text
     x="1529.53"
     y="-798.78"
     id="text50"
     font-family="Gentium Book Basic"
     word-spacing="0"
     line-height="125%"
     letter-spacing="0"
     font-size="129.23">
    <tspan
       x="1529.53"
       y="-798.78"
       id="tspan52" />
  </text>
  <text
     x="578.24"
     y="-3554.51"
     transform="scale(4.0128,0.2492)"
     id="text54"
     font-family="Arial"
     text-anchor="middle"
     font-size="46.954" />
  <text
     x="2110.79"
     y="-878.78"
     id="text56"
     font-family="Gentium Book Basic"
     word-spacing="0"
     line-height="125%"
     letter-spacing="0"
     font-size="129.23">
    <tspan
       x="2110.79"
       y="-878.78"
       id="tspan58" />
  </text>
  <text
     x="723.09"
     y="-3875.54"
     transform="scale(4.0128,0.2492)"
     id="text60"
     font-family="Arial"
     text-anchor="middle"
     font-size="46.954" />
  <text
     x="277.99"
     y="535.94"
     id="text62"
     font-family="Gentium Book Basic"
     word-spacing="0"
     line-height="125%"
     letter-spacing="0"
     font-size="208.33">
    <tspan
       x="277.99"
       y="535.94"
       id="tspan64" />
  </text>
  <path
     d="m 94.940678,85.879605 0,116.435405 0,116.4354 67.630142,0 67.63014,0 0,-25.09985 c 0,-19.15955 -0.41275,-25.11379 -1.74304,-25.09985 -0.95937,0.01 -6.66401,1.5785 -12.63359,3.48609 -14.12006,4.50961 -18.12767,4.49148 -21.83129,-0.21753 -3.17374,-4.0341 -5.08132,-9.85866 -3.70362,-11.23915 0.47411,-0.47411 4.60861,-1.37771 9.19491,-2.0052 9.13355,-1.24942 24.12653,-6.8174 28.15366,-10.45827 2.26735,-2.05122 2.57134,-4.76758 2.57134,-24.3594 0,-20.36853 -0.20917,-22.15341 -2.70242,-23.48788 -4.06617,-2.17672 -9.18375,-1.73189 -11.59194,1.0026 -1.18248,1.34284 -3.85841,5.89149 -5.96958,10.10966 -13.6334,27.24309 -40.88486,53.21167 -59.96075,57.17187 -14.70433,3.05242 -24.82096,-1.0779 -30.59113,-12.46347 -10.46385,-20.6502 2.31894,-50.35308 27.93055,-64.92912 3.78589,-2.1558 7.6694,-4.88192 8.62877,-6.05743 2.25619,-2.76516 2.28408,-20.02689 0.0432,-22.26774 -1.05141,-1.05141 -6.36142,-1.68727 -14.29297,-1.69982 -18.38425,-0.0279 -19.11493,-0.32072 -18.60736,-8.14909 l 0.43646,-6.44926 15.68741,0.47968 c 18.97409,0.60101 19.84143,0.14781 19.87071,-10.76365 0.0112,-4.31578 0.5508,-8.6441 1.1769,-9.62997 1.56456,-2.46676 10.36066,-3.73848 13.6836,-1.96058 2.34684,1.25639 2.64385,2.6076 2.13488,9.62998 -0.86873,12.00888 0,12.4551 21.09782,10.45827 9.34133,-0.88408 22.56337,-2.59226 29.40865,-3.79148 6.85087,-1.19921 13.32802,-1.88527 14.38082,-1.48228 1.34145,0.51455 1.7793,2.75819 1.48229,7.40864 l -0.39184,6.62357 -9.76105,1.69982 c -5.36858,0.93008 -20.11474,2.69544 -32.76925,3.92254 -25.47495,2.47094 -26.49428,2.9325 -26.49428,11.98379 0,8.72917 2.3301,9.85866 17.91014,8.75845 14.40173,-1.01794 15.95374,-1.62034 19.21672,-7.93155 1.89085,-3.65482 2.66058,-4.01877 7.01401,-3.31179 7.08095,1.14902 9.02618,3.25183 8.01801,8.62877 -1.48508,7.91482 1.96755,9.02061 27.62796,9.02061 l 22.00559,0 0,-50.1997 0,-50.19969 -89.94112,0 -89.941115,0 m 96.439185,105.9339 c -6.79787,0.004 -15.27604,2.44863 -16.95076,5.57775 -1.84902,3.45401 -1.81277,25.94487 0.0432,29.40865 2.43608,4.55004 6.52177,3.1821 11.72163,-3.92255 11.34931,-15.50613 16.06111,-28.29868 11.11226,-30.1979 -1.57572,-0.60519 -3.6604,-0.87292 -5.92636,-0.87152 m 51.3766,5.61957 0,114.34375 0,114.34374 87.15225,0 87.15224,0 0,-114.34374 0,-114.34375 -87.15224,0 -87.15225,0 m -89.59251,8.62877 c -4.24327,0.51873 -13.02961,8.46004 -16.42785,15.12126 -10.99931,21.55938 -2.32452,37.69161 16.12387,29.98038 5.41041,-2.26038 7.93434,-7.05864 6.79787,-12.94176 -0.40717,-2.10978 -1.16714,-10.10966 -1.69982,-17.77906 -0.89662,-12.91527 -1.19363,-13.98619 -4.009,-14.38082 -0.23984,-0.0335 -0.502,-0.0349 -0.78507,0 m 177.31648,27.62796 c 10.88217,0 15.6372,0.56196 17.82228,2.09165 3.26298,2.28549 4.92654,6.45067 20.69901,51.59413 5.89567,16.87268 14.50213,41.34503 19.13026,54.38301 13.13699,37.00972 13.14954,36.95255 -7.45186,36.95255 -15.0878,0 -18.26711,-1.51715 -19.87071,-9.54352 -0.41555,-2.07632 -2.1056,-7.37517 -3.74825,-11.76625 l -2.96317,-7.97478 -22.74744,0 c -16.50454,0 -23.11277,0.47829 -24.14187,1.74304 -0.77949,0.95938 -3.01895,6.34748 -4.96837,11.98379 -1.94942,5.63352 -4.60582,11.43995 -5.92635,12.89853 -2.02472,2.23807 -4.40363,2.65779 -15.16449,2.65779 -13.77006,0 -16.10574,-0.98726 -16.07925,-6.88572 0.0223,-5.05762 45.26758,-132.24831 48.19589,-135.4834 2.10421,-2.32452 4.36877,-2.65779 17.21292,-2.65779 m 0.47969,45.92993 c -0.23706,0.0139 -0.44483,0.23705 -0.65399,0.61076 -1.88389,3.36756 -12.24455,34.42584 -12.24455,36.69179 0,1.34982 3.20163,1.8309 12.67543,1.8309 l 12.72422,0 -0.91475,-4.79407 c -0.49641,-2.64246 -3.15003,-11.89315 -5.88312,-20.5247 -3.23509,-10.21425 -4.68391,-13.87185 -5.70882,-13.81329"
     inkscape:connector-curvature="0"
     id="path66"
     style="fill:#009688" />
</svg>
