<?xml version="1.0" encoding="UTF-8" standalone="no"?>
<svg xmlns:dc="http://purl.org/dc/elements/1.1/" xmlns:cc="http://creativecommons.org/ns#" xmlns:rdf="http://www.w3.org/1999/02/22-rdf-syntax-ns#" xmlns:svg="http://www.w3.org/2000/svg" xmlns="http://www.w3.org/2000/svg" xmlns:sodipodi="http://sodipodi.sourceforge.net/DTD/sodipodi-0.dtd" xmlns:inkscape="http://www.inkscape.org/namespaces/inkscape" viewBox="0 0 512 512" id="svg2" version="1.1" inkscape:version="0.91 r" sodipodi:docname="trash-empty.svg">
<metadata id="metadata72">
<rdf:RDF>
<cc:Work rdf:about="">
<dc:format>image/svg+xml</dc:format>
<dc:type rdf:resource="http://purl.org/dc/dcmitype/StillImage" />
</cc:Work>
</rdf:RDF>
</metadata>
<defs id="defs70" />
<sodipodi:namedview pagecolor="#ffffff" bordercolor="#666666" borderopacity="1" objecttolerance="10" gridtolerance="10" guidetolerance="10" inkscape:pageopacity="0" inkscape:pageshadow="2" inkscape:window-width="640" inkscape:window-height="480" id="namedview68" showgrid="false" inkscape:zoom="0.4609375" inkscape:cx="218.0339" inkscape:cy="256" inkscape:window-x="0" inkscape:window-y="0" inkscape:window-maximized="0" inkscape:current-layer="svg2" />
<text font-size="129.23" y="231.36" x="729.64" font-family="'Gentium Book Basic'" line-height="125%" word-spacing="0" letter-spacing="0" id="text18">
<tspan y="231.36" x="729.64" id="tspan20" />
</text>
<text transform="scale(4.0128.2492)" font-size="46.954" y="579.26" x="378.91" font-family="Arial" text-anchor="middle" id="text22" />
<text font-size="129.23" y="151.36" x="1310.91" font-family="'Gentium Book Basic'" line-height="125%" word-spacing="0" letter-spacing="0" id="text24">
<tspan y="151.36" x="1310.91" id="tspan26" />
</text>
<text transform="scale(4.0128.2492)" font-size="46.954" y="258.22" x="523.76" font-family="Arial" text-anchor="middle" id="text28" />
<text font-size="129.23" y="-29.9" x="239.33" font-family="'Gentium Book Basic'" line-height="125%" word-spacing="0" letter-spacing="0" id="text30">
<tspan y="-29.9" x="239.33" id="tspan32" />
</text>
<text transform="scale(4.0128.2492)" font-size="46.954" y="-469.13" x="256.72" font-family="Arial" text-anchor="middle" id="text34" />
<text font-size="129.23" y="-246.37" x="1337.38" font-family="'Gentium Book Basic'" line-height="125%" word-spacing="0" letter-spacing="0" id="text36">
<tspan y="-246.37" x="1337.38" id="tspan38" />
</text>
<text transform="scale(4.0128.2492)" font-size="46.954" y="-1337.8" x="530.36" font-family="Arial" text-anchor="middle" id="text40" />
<text font-size="129.23" y="-326.37" x="1918.65" font-family="'Gentium Book Basic'" line-height="125%" word-spacing="0" letter-spacing="0" id="text42">
<tspan y="-326.37" x="1918.65" id="tspan44" />
</text>
<text transform="scale(4.0128.2492)" font-size="46.954" y="-1658.83" x="675.21" font-family="Arial" text-anchor="middle" id="text46" />
<text font-size="129.23" y="-798.77" x="1529.53" font-family="'Gentium Book Basic'" line-height="125%" word-spacing="0" letter-spacing="0" id="text48">
<tspan y="-798.77" x="1529.53" id="tspan50" />
</text>
<text transform="scale(4.0128.2492)" font-size="46.954" y="-3554.48" x="578.24" font-family="Arial" text-anchor="middle" id="text52" />
<text font-size="129.23" y="-878.78" x="2110.79" font-family="'Gentium Book Basic'" line-height="125%" word-spacing="0" letter-spacing="0" id="text54">
<tspan y="-878.78" x="2110.79" id="tspan56" />
</text>
<text transform="scale(4.0128.2492)" font-size="46.954" y="-3875.52" x="723.09" font-family="Arial" text-anchor="middle" id="text58" />
<text font-size="208.33" y="535.94" x="277.99" font-family="'Gentium Book Basic'" line-height="125%" word-spacing="0" letter-spacing="0" id="text60">
<tspan y="535.94" x="277.99" id="tspan62" />
</text>
<path d="m 202.2731,47.356576 c -13.33853,0 -24.59033,7.520745 -31.06904,18.128939 -5.96436,9.671432 -20.5981,35.018635 -33.13312,56.887955 -11.56228,20.17436 -4.53989,46.00526 15.59715,57.6315 l 16.31671,9.4076 c 20.14771,11.62623 45.89333,4.70646 57.51158,-15.44125 20.75,-35.95006 50.44122,-87.386679 58.16984,-100.685232 7.96714,-13.722294 21.04316,-22.839397 36.25788,-25.287237 4.59852,-0.740881 4.62784,-0.656933 -0.0307,-0.656933 l -119.62035,0 m 127.74872,10.502925 c -14.62041,0.01732 -28.14283,8.035098 -35.32111,20.755336 -0.0293,0.02398 -11.92073,20.510152 -23.8801,41.348101 l 24.13194,41.7905 -26.22533,14.68438 c -4.05086,2.27061 -3.64178,4.70113 0.96874,5.31409 21.28701,2.87824 77.28618,9.19839 95.3285,-1.21926 18.01968,-10.41364 40.5406,-62.01949 48.69829,-81.896694 1.76292,-4.301375 -0.13592,-5.929715 -4.15746,-3.595139 l -25.94284,15.034823 c 0.0173,0 -12.97209,-22.706143 -18.16092,-31.695324 -7.34219,-12.624298 -20.84728,-20.578111 -35.44504,-20.53547 m 74.74106,133.505204 c -6.78786,0.17856 -13.61969,2.0201 -19.91051,5.65788 l -16.00357,9.22104 c -20.14771,11.62624 -27.01952,37.3772 -15.37862,57.51158 l 30.75457,53.29281 c 24.03866,0 47.73754,0.0306 47.76152,0.0306 14.6444,0.1106 28.26276,-7.74327 35.60228,-20.37956 7.29022,-12.64296 7.23159,-28.38135 -0.18789,-40.97767 0,-0.0173 -11.40237,-19.71863 -25.03672,-43.3229 -7.99512,-13.84488 -22.66617,-21.42692 -37.60372,-21.03649 m -304.50754,8.2523 c -21.005845,0.20787 -43.949179,2.91422 -55.919209,4.5319 -4.617183,0.62495 -5.06491,3.09544 -1.031371,5.40736 l 26.005466,14.94155 -25.881541,44.79134 c -6.326807,10.74011 -6.841159,24.43176 -0.187886,35.97672 l 59.826161,103.61677 c 2.32392,4.03754 2.24663,4.03754 0.59431,-0.31314 -5.515305,-14.61508 -4.265401,-31.1943 3.78169,-44.88461 l 50.7557,-87.89571 25.97481,15.09746 c 4.02422,2.33591 5.92572,0.70623 4.15747,-3.59514 -8.1417,-19.87454 -30.63864,-71.5177 -48.66764,-81.92335 -7.89652,-4.55322 -23.07659,-5.91239 -39.41462,-5.75115 m 226.58175,94.18253 c -0.82883,0.14524 -1.84021,0.90078 -2.90756,2.28127 -13.13865,16.99097 -46.6049,62.31132 -46.6049,83.14927 0,20.82063 33.45959,66.15963 46.6049,83.14926 2.84227,3.68309 5.20083,2.83827 5.18883,-1.81356 l -0.0626,-29.94439 51.7311,0 c 12.47372,0.0879 24.61698,-6.29749 31.28891,-17.84778 L 471.85661,309.0982 c 2.32392,-4.03753 2.35456,-3.97624 -0.5943,-0.37443 l 0.0306,0.0306 c -9.90463,12.11261 -24.92213,19.30156 -40.79112,19.16031 0,0 -101.45809,-0.024 -101.45809,0 l 0.0626,-30.03767 c 0.007,-2.90356 -0.89945,-4.33735 -2.28128,-4.09483 m -186.79269,35.2265 c -11.98335,20.81397 -23.86277,41.34811 -23.88009,41.38808 -7.40082,12.57766 -7.48477,28.27608 -0.15591,40.94702 7.30754,12.67093 20.93656,20.49016 35.53965,20.37956 l 50.0428,0 c 23.25914,0 42.13429,-18.85516 42.13429,-42.10364 l 0,-18.50471 c 0,-23.25381 -18.84184,-42.10364 -42.10364,-42.10364 l -61.57577,0" id="path66" inkscape:connector-curvature="0" style="fill:#009688" />
</svg>
