<?xml version="1.0" encoding="UTF-8" standalone="no"?>
<svg
   xmlns:dc="http://purl.org/dc/elements/1.1/"
   xmlns:cc="http://creativecommons.org/ns#"
   xmlns:rdf="http://www.w3.org/1999/02/22-rdf-syntax-ns#"
   xmlns:svg="http://www.w3.org/2000/svg"
   xmlns="http://www.w3.org/2000/svg"
   xmlns:sodipodi="http://sodipodi.sourceforge.net/DTD/sodipodi-0.dtd"
   xmlns:inkscape="http://www.inkscape.org/namespaces/inkscape"
   height="512"
   viewBox="0 0 512 512"
   width="512"
   version="1.1"
   id="svg2"
   inkscape:version="0.91 r"
   sodipodi:docname="uberwriter.svg">
  <defs
     id="defs18" />
  <sodipodi:namedview
     pagecolor="#ffffff"
     bordercolor="#666666"
     borderopacity="1"
     objecttolerance="10"
     gridtolerance="10"
     guidetolerance="10"
     inkscape:pageopacity="0"
     inkscape:pageshadow="2"
     inkscape:window-width="733"
     inkscape:window-height="480"
     id="namedview16"
     showgrid="false"
     inkscape:zoom="0.4609375"
     inkscape:cx="256"
     inkscape:cy="256"
     inkscape:window-x="0"
     inkscape:window-y="0"
     inkscape:window-maximized="0"
     inkscape:current-layer="svg2" />
  <metadata
     id="metadata76">
    <rdf:RDF>
      <cc:Work
         rdf:about="">
        <dc:format>image/svg+xml</dc:format>
        <dc:type
           rdf:resource="http://purl.org/dc/dcmitype/StillImage" />
      </cc:Work>
    </rdf:RDF>
  </metadata>
  <g
     id="g66"
     transform="matrix(10.427 0 0 10.427 293.87 -1562.4)"
     fill="#009688">
    <path
       id="path68"
       d="m-0.869 182.54c-0.672 0.168-1.563 0.346-2.676 0.535-1.091 0.189-2.361 0.283-3.809 0.283-1.259 0-2.319-0.178-3.179-0.535-0.86-0.378-1.553-0.902-2.077-1.574-0.525-0.672-0.902-1.458-1.133-2.361-0.231-0.923-0.346-1.941-0.346-3.053v-9.191h3v8.562c0 1.994 0.242 3.421 0.872 4.281s1.689 1.291 3.179 1.291c0.315 0 0.64-0.011 0.976-0.031 0.336-0.021 0.651-0.042 0.944-0.063 0.294-0.042 0.556-0.073 0.787-0.094 0.252-0.042 0.137-0.084 0.242-0.126v-13.818h3v15.896" />
    <path
       id="path70"
       d="m3.911 161.08h2v26h-2z"
       color="#000000" />
  </g>
</svg>
