<?xml version="1.0" encoding="UTF-8" standalone="no"?>
<svg
   xmlns:dc="http://purl.org/dc/elements/1.1/"
   xmlns:cc="http://creativecommons.org/ns#"
   xmlns:rdf="http://www.w3.org/1999/02/22-rdf-syntax-ns#"
   xmlns:svg="http://www.w3.org/2000/svg"
   xmlns="http://www.w3.org/2000/svg"
   xmlns:sodipodi="http://sodipodi.sourceforge.net/DTD/sodipodi-0.dtd"
   xmlns:inkscape="http://www.inkscape.org/namespaces/inkscape"
   height="512"
   viewBox="0 0 512 512"
   width="512"
   version="1.1"
   id="svg2"
   inkscape:version="0.91 r"
   sodipodi:docname="distributor-logo-ubuntu.svg">
  <defs
     id="defs15" />
  <sodipodi:namedview
     pagecolor="#ffffff"
     bordercolor="#666666"
     borderopacity="1"
     objecttolerance="10"
     gridtolerance="10"
     guidetolerance="10"
     inkscape:pageopacity="0"
     inkscape:pageshadow="2"
     inkscape:window-width="640"
     inkscape:window-height="480"
     id="namedview13"
     showgrid="false"
     inkscape:zoom="0.4609375"
     inkscape:cx="256"
     inkscape:cy="256"
     inkscape:window-x="0"
     inkscape:window-y="0"
     inkscape:window-maximized="0"
     inkscape:current-layer="svg2" />
  <metadata
     id="metadata72">
    <rdf:RDF>
      <cc:Work
         rdf:about="">
        <dc:format>image/svg+xml</dc:format>
        <dc:type
           rdf:resource="http://purl.org/dc/dcmitype/StillImage" />
      </cc:Work>
    </rdf:RDF>
  </metadata>
  <path
     id="path66"
     d="m 343.78309,74.409661 c -19.94938,0 -36.13166,16.148642 -36.13166,36.098029 0,19.94939 16.18228,36.13167 36.13166,36.13167 19.94939,0 36.13167,-16.18228 36.13167,-36.13167 0,-19.949387 -16.18228,-36.098029 -36.13167,-36.098029 m -84.46245,37.761669 c -23.33746,0 -45.36833,5.45791 -64.90246,15.13312 l 26.63239,46.13159 c 11.63251,-5.41911 24.5923,-8.46565 38.26489,-8.46565 47.06302,0 85.74317,35.83153 90.29553,81.69404 l 54.56619,0 c -2.31823,-36.80695 -18.68679,-69.83774 -43.83148,-93.95785 -12.40093,4.86542 -26.80056,4.24447 -39.23642,-2.93271 -12.31168,-7.10861 -20.02054,-19.10851 -22.09556,-32.1317 -12.61697,-3.54072 -25.93769,-5.46696 -39.69826,-5.46696 m -79.72769,23.59877 c -29.49653,19.2133 -51.50024,48.77581 -60.6968,83.46635 10.78905,8.28712 17.76571,21.30901 17.76571,35.96478 0,14.75926 -7.04523,27.85489 -17.96623,36.13167 9.0685,35.12261 31.22873,65.05769 61.03445,84.42364 l 26.73199,-46.29717 c -22.92737,-16.47335 -37.90396,-43.34377 -37.90396,-73.73033 0,-30.33482 14.90156,-57.17936 37.76166,-73.66306 l -26.732,-46.29717 m -88.265785,83.29817 c -19.949387,0 -36.131664,16.18228 -36.131664,36.13166 0,19.94939 16.182277,36.13167 36.131664,36.13167 19.949385,0 36.131665,-16.18228 36.131665,-36.13167 0,-19.94938 -16.18228,-36.13166 -36.131665,-36.13166 M 349.7106,263.73544 c -4.0543,46.37221 -42.97508,82.7626 -90.39514,82.7626 -13.62861,0 -26.53277,-3.01808 -38.13165,-8.39967 l -26.63238,46.13158 c 19.49531,9.63511 41.48738,15.06586 64.76015,15.06586 13.44362,0 26.44481,-1.81758 38.79788,-5.20048 2.14229,-12.91581 9.84339,-24.81222 22.06968,-31.8652 12.51995,-7.22892 27.0386,-7.77484 39.49775,-2.79946 25.76693,-24.4099 42.47831,-58.13408 44.56497,-95.69523 l -54.52738,0 m -6.8667,101.6292 c -19.94938,0 -36.13166,16.18228 -36.13166,36.13167 0,19.94939 16.18228,36.09803 36.13166,36.09803 19.94939,0 36.13167,-16.14864 36.13167,-36.09803 0,-19.94939 -16.18228,-36.13167 -36.13167,-36.13167"
     inkscape:connector-curvature="0"
     style="fill:#009688" />
</svg>
