<?xml version="1.0" encoding="UTF-8" standalone="no"?>
<svg
   xmlns:dc="http://purl.org/dc/elements/1.1/"
   xmlns:cc="http://creativecommons.org/ns#"
   xmlns:rdf="http://www.w3.org/1999/02/22-rdf-syntax-ns#"
   xmlns:svg="http://www.w3.org/2000/svg"
   xmlns="http://www.w3.org/2000/svg"
   xmlns:sodipodi="http://sodipodi.sourceforge.net/DTD/sodipodi-0.dtd"
   xmlns:inkscape="http://www.inkscape.org/namespaces/inkscape"
   height="512"
   viewBox="0 0 512 512"
   width="512"
   version="1.1"
   id="svg2"
   inkscape:version="0.91 r13725"
   sodipodi:docname="ubuntu-after-install.svg">
  <sodipodi:namedview
     pagecolor="#ffffff"
     bordercolor="#666666"
     borderopacity="1"
     objecttolerance="10"
     gridtolerance="10"
     guidetolerance="10"
     inkscape:pageopacity="0"
     inkscape:pageshadow="2"
     inkscape:window-width="1920"
     inkscape:window-height="1019"
     id="namedview13"
     showgrid="false"
     inkscape:zoom="0.53855176"
     inkscape:cx="709.1987"
     inkscape:cy="604.55188"
     inkscape:window-x="0"
     inkscape:window-y="13"
     inkscape:window-maximized="1"
     inkscape:current-layer="svg2" />
  <defs
     id="defs15" />
  <metadata
     id="metadata72">
    <rdf:RDF>
      <cc:Work
         rdf:about="">
        <dc:format>image/svg+xml</dc:format>
        <dc:type
           rdf:resource="http://purl.org/dc/dcmitype/StillImage" />
        <dc:title></dc:title>
      </cc:Work>
    </rdf:RDF>
  </metadata>
  <path
     style="fill:#009688"
     inkscape:connector-curvature="0"
     d="m 384.42321,61.821231 c -21.53632,0 -39.00585,17.433232 -39.00585,38.969549 0,21.53632 17.46953,39.00585 39.00585,39.00585 21.53632,0 39.00586,-17.46953 39.00586,-39.00585 0,-21.536317 -17.46954,-38.969549 -39.00586,-38.969549 m -91.18125,40.765519 c -25.1939,0 -48.97728,5.89208 -70.0653,16.33693 l 28.75094,49.80125 c 12.55783,-5.85019 26.54856,-9.13907 41.30877,-9.13907 50.80677,0 92.56385,38.68185 97.47834,88.19261 l 58.9068,0 c -2.50263,-39.73486 -20.17327,-75.39316 -47.31816,-101.43198 -13.38741,5.25245 -28.9325,4.58211 -42.35761,-3.166 -13.29103,-7.67408 -21.61313,-20.62855 -23.8532,-34.6877 -13.62063,-3.82238 -28.00098,-5.90185 -42.85617,-5.90185 m -86.06985,25.47601 c -31.84291,20.74167 -55.59697,52.6558 -65.5251,90.1059 11.6473,8.94635 19.17893,23.0041 19.17893,38.82569 0,15.93334 -7.60565,30.07069 -19.39539,39.00587 9.78988,37.91654 33.71291,70.23288 65.88959,91.13936 l 28.85848,-49.98002 c -24.7512,-17.78376 -40.91915,-46.79166 -40.91915,-79.5954 0,-32.74788 16.08695,-61.72786 40.76553,-79.52279 L 207.16093,128.06554 M 111.8738,217.9899 c -21.536317,0 -39.005858,17.46955 -39.005858,39.00586 0,21.53631 17.469541,39.00585 39.005858,39.00585 21.53632,0 39.00586,-17.46954 39.00586,-39.00585 0,-21.53631 -17.46954,-39.00586 -39.00586,-39.00586 m 278.94843,48.21756 c -4.37681,50.061 -46.39364,89.34617 -97.58586,89.34617 -14.71273,0 -28.6434,-3.25817 -41.16493,-9.06785 l -28.75094,49.80125 c 21.04613,10.40156 44.78761,16.26431 69.91169,16.26431 14.51302,0 28.54842,-1.96216 41.88415,-5.61416 2.31271,-13.94323 10.62641,-26.78598 23.82528,-34.40001 13.51589,-7.80396 29.18945,-8.39332 42.6397,-3.02215 27.81664,-26.35165 45.85737,-62.75851 48.11002,-103.30756 l -58.86491,0 m -7.41293,109.71357 c -21.53632,0 -39.00585,17.46953 -39.00585,39.00585 0,21.53632 17.46953,38.96955 39.00585,38.96955 21.53632,0 39.00586,-17.43323 39.00586,-38.96955 0,-21.53632 -17.46954,-39.00585 -39.00586,-39.00585"
     id="path66" />
  <path
     id="path737"
     d="m 276.69597,190.44699 0,46.01516 -18.29922,0 c -5.35947,0 -0.41737,4.6562 -0.41737,4.6562 l 32.47565,39.24541 0.0126,0.0126 c 0,0 2.64781,3.10231 5.42583,0.31303 3.85193,-3.84816 31.48648,-40.52256 31.48648,-40.52256 0,0 4.88532,-4.89118 -1.61731,-4.89118 l -16.8906,0 0,-44.82566 -32.17514,0 M 250.80737,291.0114 c -7.43256,0 -13.42265,5.97549 -13.42265,13.41012 0,7.43256 5.98843,13.42268 13.42265,13.42268 l 83.44918,0 c 7.43255,0 13.42265,-5.98845 13.42265,-13.42268 0,-7.43253 -5.98844,-13.40596 -13.42265,-13.40596 l -83.44918,0 m -0.40443,6.19547 c 0.12318,-0.006 0.2667,0 0.39148,0 3.98965,0 7.21259,3.22293 7.21259,7.21259 0,3.98965 -3.22294,7.23887 -7.21259,7.23887 -3.98964,0 -7.21258,-3.24881 -7.21258,-7.23887 0,-3.86528 3.00424,-7.01934 6.82151,-7.21259"
     style="fill:#009688"
     inkscape:connector-curvature="0" />
</svg>
