<?xml version="1.0" encoding="UTF-8" standalone="no"?>
<svg
   xmlns:dc="http://purl.org/dc/elements/1.1/"
   xmlns:cc="http://creativecommons.org/ns#"
   xmlns:rdf="http://www.w3.org/1999/02/22-rdf-syntax-ns#"
   xmlns:svg="http://www.w3.org/2000/svg"
   xmlns="http://www.w3.org/2000/svg"
   xmlns:sodipodi="http://sodipodi.sourceforge.net/DTD/sodipodi-0.dtd"
   xmlns:inkscape="http://www.inkscape.org/namespaces/inkscape"
   viewBox="0 0 512 512"
   id="svg2"
   version="1.1"
   inkscape:version="0.91 r"
   sodipodi:docname="umbrello.svg">
  <metadata
     id="metadata26">
    <rdf:RDF>
      <cc:Work
         rdf:about="">
        <dc:format>image/svg+xml</dc:format>
        <dc:type
           rdf:resource="http://purl.org/dc/dcmitype/StillImage" />
      </cc:Work>
    </rdf:RDF>
  </metadata>
  <defs
     id="defs24" />
  <sodipodi:namedview
     pagecolor="#ffffff"
     bordercolor="#666666"
     borderopacity="1"
     objecttolerance="10"
     gridtolerance="10"
     guidetolerance="10"
     inkscape:pageopacity="0"
     inkscape:pageshadow="2"
     inkscape:window-width="640"
     inkscape:window-height="480"
     id="namedview22"
     showgrid="false"
     inkscape:zoom="0.4609375"
     inkscape:cx="256"
     inkscape:cy="256"
     inkscape:window-x="0"
     inkscape:window-y="0"
     inkscape:window-maximized="0"
     inkscape:current-layer="svg2" />
  <path
     d="m160.95 115.67c-23.965 0-43.35 19.382-43.35 43.35 0 20.251 13.934 37.28 32.694 42.06v21.857h-37.29v23.327h37.29v26.27l-36.18 36.37 16.531 16.531 31.408-31.592 31.408 31.592 16.531-16.531-36.37-36.551v-26.08h37.29v-23.327h-37.29v-22.408c7.841-2.403 14.764-6.827 20.02-12.857l96.43 96.43c-39.22 5.893-68.51 28.336-68.51 55.29 0 31.434 39.703 56.939 88.71 56.939 49.01 0 88.71-25.505 88.71-56.939 0-29.47-34.781-53.657-79.53-56.57l-115.71-115.71c0.483-2.591 0.551-5.351 0.551-8.08 0-23.965-19.382-43.35-43.35-43.35"
     fill="#009688"
     id="path20" />
</svg>
