<?xml version="1.0" encoding="UTF-8" standalone="no"?>
<svg
   xmlns:dc="http://purl.org/dc/elements/1.1/"
   xmlns:cc="http://creativecommons.org/ns#"
   xmlns:rdf="http://www.w3.org/1999/02/22-rdf-syntax-ns#"
   xmlns:svg="http://www.w3.org/2000/svg"
   xmlns="http://www.w3.org/2000/svg"
   xmlns:sodipodi="http://sodipodi.sourceforge.net/DTD/sodipodi-0.dtd"
   xmlns:inkscape="http://www.inkscape.org/namespaces/inkscape"
   height="512"
   viewBox="0 0 512 512"
   width="512"
   version="1.1"
   id="svg2"
   inkscape:version="0.91 r"
   sodipodi:docname="unity-webapps-yandexmusic.svg">
  <defs
     id="defs16" />
  <sodipodi:namedview
     pagecolor="#ffffff"
     bordercolor="#666666"
     borderopacity="1"
     objecttolerance="10"
     gridtolerance="10"
     guidetolerance="10"
     inkscape:pageopacity="0"
     inkscape:pageshadow="2"
     inkscape:window-width="640"
     inkscape:window-height="480"
     id="namedview14"
     showgrid="false"
     inkscape:zoom="0.4609375"
     inkscape:cx="256"
     inkscape:cy="256"
     inkscape:window-x="0"
     inkscape:window-y="0"
     inkscape:window-maximized="0"
     inkscape:current-layer="svg2" />
  <metadata
     id="metadata70">
    <rdf:RDF>
      <cc:Work
         rdf:about="">
        <dc:format>image/svg+xml</dc:format>
        <dc:type
           rdf:resource="http://purl.org/dc/dcmitype/StillImage" />
      </cc:Work>
    </rdf:RDF>
  </metadata>
  <path
     id="path68"
     fill="#009688"
     d="m237.75 390.92c-3.154-1.537-5.375-3.653-54.601-52.04l-33.39-32.82h-21.296c-24.928 0-26.832-0.252-30.64-4.048-1.542-1.537-2.912-3.659-3.326-5.149-0.981-3.533-0.981-78.27 0-81.81 0.414-1.49 1.784-3.612 3.326-5.149 3.806-3.795 5.718-4.048 30.573-4.048h21.23l36.621-35.99c48.53-47.694 48.642-47.799 52.47-49.15 8.153-2.88 14.157 0.042 16.476 8.02 0.857 2.949 0.949 17.696 0.798 127.91-0.185 134.62 0.036 126.36-3.503 131.13-3.473 4.675-9.133 5.885-14.743 3.153" />
  <path
     id="path70"
     fill="#009688"
     d="m306.88 344.46c-6.502-1.924-10.04-8.253-8.278-14.802 1-3.727 3.498-6.308 9.847-10.188 3.23-1.974 8.06-5.833 11.825-9.445 10.729-10.298 17.695-22.332 21.338-36.863 1.487-5.931 1.687-7.973 1.687-17.194s-0.2-11.255-1.68-17.12c-2.763-10.949-7.153-20.22-13.519-28.539-4.01-5.241-13.01-13.6-18.203-16.895-8.42-5.349-9.138-5.944-10.521-8.713-2.469-4.944-1.407-11.15 2.528-14.761 1.948-1.788 5.899-3.39 8.36-3.39 2.848 0 11.287 4.411 17.862 9.336 19.75 14.793 33.07 35.946 38.456 61.06 2.07 9.655 2.07 28.396 0 38.05-5.352 24.964-18.83 46.45-38.14 60.789-10.526 7.819-16.432 10.196-21.563 8.678" />
  <path
     id="path72"
     fill="#009688"
     d="m276.76 304.37c-0.698-0.139-1.905-0.388-2.684-0.554-3.543-0.755-8.367-7.135-8.401-11.11-0.025-2.964 1.949-7.486 4.089-9.365 1.152-1.011 4.053-2.596 6.447-3.521 10.834-4.188 17.355-13.15 17.355-23.851 0-10.702-6.521-19.664-17.355-23.851-5.908-2.284-8.398-4.587-9.663-8.936-1.173-4.04-0.665-7.147 1.738-10.654 3.202-4.673 8.96-6.05 15.858-3.791 13.392 4.385 24.46 14.505 30.06 27.485 10.464 24.25 0.147 52.48-23.494 64.29-5.178 2.585-11.533 4.345-13.952 3.864" />
</svg>
