<?xml version="1.0" encoding="UTF-8" standalone="no"?>
<svg
   xmlns:dc="http://purl.org/dc/elements/1.1/"
   xmlns:cc="http://creativecommons.org/ns#"
   xmlns:rdf="http://www.w3.org/1999/02/22-rdf-syntax-ns#"
   xmlns:svg="http://www.w3.org/2000/svg"
   xmlns="http://www.w3.org/2000/svg"
   xmlns:sodipodi="http://sodipodi.sourceforge.net/DTD/sodipodi-0.dtd"
   xmlns:inkscape="http://www.inkscape.org/namespaces/inkscape"
   height="512"
   viewBox="0 0 512 512"
   width="512"
   version="1.1"
   id="svg2"
   inkscape:version="0.91 r"
   sodipodi:docname="bbcnews.svg">
  <defs
     id="defs17" />
  <sodipodi:namedview
     pagecolor="#ffffff"
     bordercolor="#666666"
     borderopacity="1"
     objecttolerance="10"
     gridtolerance="10"
     guidetolerance="10"
     inkscape:pageopacity="0"
     inkscape:pageshadow="2"
     inkscape:window-width="1920"
     inkscape:window-height="1028"
     id="namedview15"
     showgrid="false"
     inkscape:zoom="1.3037281"
     inkscape:cx="-60.313889"
     inkscape:cy="244.919"
     inkscape:window-x="0"
     inkscape:window-y="0"
     inkscape:window-maximized="1"
     inkscape:current-layer="svg2" />
  <metadata
     id="metadata28">
    <rdf:RDF>
      <cc:Work
         rdf:about="">
        <dc:format>image/svg+xml</dc:format>
        <dc:type
           rdf:resource="http://purl.org/dc/dcmitype/StillImage" />
        <dc:title />
      </cc:Work>
    </rdf:RDF>
  </metadata>
  <path
     inkscape:connector-curvature="0"
     style="fill:#009688"
     d="m 133.48238,154.70241 0,72 73.78,0 0,-72 -73.78,0 m 84.72,0 0,72 73.75,0 0,-72 -73.75,0 m 84.34,0 0,72 73.75,0 0,-72 -73.75,0 m 39.844,10.344 c 8.629,0 15.14,2.678 20.03,7.875 l -5.625,5.344 c -3.3,-4.083 -7.68,-6.375 -14.406,-6.375 -12.817,0 -18.16,8.453 -18.16,19.09 0,10.393 5.118,18.531 18.13,18.531 6.726,0 11.11,-2.23 14.469,-6.375 l 5.531,5.281 c -4.886,5.258 -11.434,7.938 -20,7.938 -17.13,0 -25.969,-10.28 -25.969,-25.375 0,-15.16 9.185,-25.938 26,-25.938 m -189.69,0.625 20.06,0 c 9.09,0 13.469,6.451 13.469,13.812 0,4.392 -1.355,7.555 -4.438,9.906 l 0,0.156 c 4.076,1.794 6.281,6.182 6.281,11.688 0,8.97 -5.292,14.562 -14.906,14.562 l -20.469,0 0,-50.12 m 84.72,0.001 20.03,0 c 9.09,0 13.5,6.451 13.5,13.812 0,4.392 -1.355,7.555 -4.438,9.906 l 0,0.156 c 4.076,1.794 6.281,6.182 6.281,11.688 0,8.97 -5.292,14.562 -14.906,14.562 l -20.469,0 0,-50.12 m -79.09,6.844 0.625,0.75 0,12.562 -0.625,0.719 13.906,0 c 5.696,0 7.563,-3.166 7.563,-7.125 0,-4.578 -2.389,-6.906 -7.563,-6.906 l -13.906,0 m 84.72,0 0.656,0.75 0,12.562 -0.656,0.719 13.875,0 c 5.696,0 7.594,-3.166 7.594,-7.125 0,-4.578 -2.421,-6.906 -7.594,-6.906 l -13.875,0 m -84.72,20.906 0.625,0.719 0,14 -0.625,0.75 14.844,0 c 6.27,0 8.469,-2.769 8.469,-7.656 0,-4.764 -2.46,-7.813 -8.469,-7.813 l -14.844,0 m 84.72,0 0.656,0.719 0,14 -0.656,0.75 14.844,0 c 6.27,0 8.469,-2.769 8.469,-7.656 0,-4.764 -2.46,-7.813 -8.469,-7.813 l -14.844,0 m 155.66,68.875 c -8.887,0 -16.239,2.108 -21.844,6.406 -5.574,4.309 -8.438,10.304 -8.438,17.562 0,6.683 1.898,12.311 5.719,16.656 3.825,4.308 10.02,7.898 18.531,10.938 5.873,2.092 10.232,3.943 13,5.531 l 0,0.031 c 2.818,1.594 4.734,3.252 5.813,4.906 1.072,1.645 1.656,3.819 1.656,6.594 0,4.12 -1.485,7.103 -4.625,9.438 -3.101,2.306 -7.915,3.594 -14.531,3.594 -3.867,0 -8.08,-0.458 -12.594,-1.375 -4.473,-0.916 -8.586,-2.167 -12.344,-3.75 l -1.813,-0.781 0,13.501 0.75,0.344 c 6.15,2.928 14.638,4.313 25.5,4.313 10.361,0 18.623,-2.251 24.625,-6.938 5.994,-4.681 9.06,-11.256 9.06,-19.312 0,-4.297 -0.842,-8.07 -2.531,-11.25 -1.683,-3.211 -4.27,-6.01 -7.719,-8.375 -3.472,-2.424 -8.576,-4.798 -15.375,-7.25 -5.582,-2.01 -9.649,-3.815 -12.156,-5.313 -2.473,-1.5 -4.222,-3.076 -5.281,-4.75 -0.005,-0.008 0.005,-0.024 0,-0.031 -1,-1.694 -1.531,-3.863 -1.531,-6.594 0,-3.77 1.283,-6.458 4,-8.5 2.766,-2.05 6.684,-3.156 11.875,-3.156 6.492,0 13.567,1.546 21.22,4.656 l 1.219,0.5 0.469,-1.25 3.563,-9.625 0.406,-1.156 -1.125,-0.469 c -7.781,-3.397 -16.286,-5.094 -25.5,-5.094 z m -310.84,1.281 0,91.41 13.155,0 0,-50.937 c 0,-5.467 -0.252,-11.888 -0.75,-19.281 l -0.063,-0.875 46.44,70.53 0.375,0.563 14.03,0 0,-1.281 1.313,0 0,-90.12 -13.28,0 0,51.41 c 0,2.714 0.127,7.06 0.375,13.06 0.153,3.674 0.222,4.651 0.313,6.438 l -13.719,-20.938 -29.781,-45.06 0,-0.031 -2.781,-4.281 -0.375,-0.594 -15.25,0 m 96.5,0 0,91.41 51.968,0 0,-1.281 1.313,0 0,-11.156 -39.25,0 0,-29.09 36.968,0 0,-12.344 -36.968,0 0,-25.09 39.25,0 0,-12.437 -53.28,0 m 59.5,0 0.469,1.625 24,88.84 0.25,0.938 13.5,0 0.281,-0.906 17.13,-57.844 c 1.391,-4.542 2.366,-8.418 3.156,-11.969 0.79,3.093 1.844,6.811 3.281,11.594 l 17.656,58.22 0.281,0.906 12.5,0 0,-1.281 1.281,0.344 24.09,-88.84 0.469,-1.625 -14.625,0 -0.25,0.969 -14.03,54.13 c -1.435,5.417 -2.419,10.03 -3.219,14.281 -1.01,-4.866 -2.166,-9.714 -3.625,-14.469 l -16.688,-54 -0.281,-0.906 -13.719,0 -0.281,0.906 -16,53.594 c -1.521,5.19 -2.642,10.02 -3.563,14.688 -0.862,-4.648 -1.838,-9.288 -3.094,-13.969 l -14.09,-54.25 -0.25,-0.969 -14.625,0"
     id="path3496" />
</svg>
