<?xml version="1.0" encoding="UTF-8" standalone="no"?>
<svg
   xmlns:dc="http://purl.org/dc/elements/1.1/"
   xmlns:cc="http://creativecommons.org/ns#"
   xmlns:rdf="http://www.w3.org/1999/02/22-rdf-syntax-ns#"
   xmlns:svg="http://www.w3.org/2000/svg"
   xmlns="http://www.w3.org/2000/svg"
   xmlns:sodipodi="http://sodipodi.sourceforge.net/DTD/sodipodi-0.dtd"
   xmlns:inkscape="http://www.inkscape.org/namespaces/inkscape"
   height="512"
   viewBox="0 0 512 512"
   width="512"
   version="1.1"
   id="svg2"
   inkscape:version="0.91 r13725"
   sodipodi:docname="application-default-icon.svg">
  <defs
     id="defs17">
    <linearGradient
       id="linearGradient3668">
      <stop
         style="stop-color:#008cea;stop-opacity:1;"
         offset="0"
         id="stop3670" />
      <stop
         id="stop3676"
         offset="0.5"
         style="stop-color:#0067b5;stop-opacity:1;" />
      <stop
         style="stop-color:#1d4370;stop-opacity:1;"
         offset="1"
         id="stop3678" />
    </linearGradient>
  </defs>
  <sodipodi:namedview
     pagecolor="#a2a2a4"
     bordercolor="#666666"
     borderopacity="1"
     objecttolerance="10"
     gridtolerance="10"
     guidetolerance="10"
     inkscape:pageopacity="1"
     inkscape:pageshadow="2"
     inkscape:window-width="1920"
     inkscape:window-height="1012"
     id="namedview15"
     showgrid="false"
     inkscape:zoom="0.73840534"
     inkscape:cx="679.67304"
     inkscape:cy="249.48993"
     inkscape:window-x="0"
     inkscape:window-y="13"
     inkscape:window-maximized="1"
     inkscape:current-layer="svg2" />
  <metadata
     id="metadata28">
    <rdf:RDF>
      <cc:Work
         rdf:about="">
        <dc:format>image/svg+xml</dc:format>
        <dc:type
           rdf:resource="http://purl.org/dc/dcmitype/StillImage" />
        <dc:title></dc:title>
      </cc:Work>
    </rdf:RDF>
  </metadata>
  <path
     style="fill:#009688;fill-opacity:1;stroke:none"
     d="m 207.93932,140.47298 -42.76351,0.16288 16.85468,8.92089 c 7.53412,3.9898 18.88311,8.92823 21.60015,8.92336 5.00098,-0.23228 10.62234,-3.50018 23.57928,-8.15343 0,0 19.87148,-6.35242 22.2319,-8.70126 0.77864,-0.77478 -41.5025,-1.15244 -41.5025,-1.15244 z m 104.60022,0 c -21.60585,-0.0821 -42.21679,0.43819 -41.50251,1.15244 2.52235,2.52236 41.25998,16.78649 45.81119,16.85469 2.53813,0.0382 12.29364,-4.00676 21.60015,-8.92336 l 16.85468,-8.92089 -42.76351,-0.16288 z m -179.73805,0.12834 c -10.34352,0.0585 -20.50574,1.70624 -25.58803,5.97193 -4.54385,3.81379 -8.037514,7.32988 -7.506875,7.84495 0.484025,0.46988 13.884855,-2.0135 22.273855,-4.86145 11.2604,-3.36068 27.69552,-6.91694 21.04244,-8.52111 -3.30657,-0.29514 -6.77356,-0.45381 -10.22139,-0.43432 z m 255.6705,0.23936 c -3.52218,-0.0592 -7.22058,0.0222 -11.01848,0.19002 -11.03394,0.48759 9.5351,5.08907 21.03258,8.53839 11.49748,3.44931 21.69447,5.44082 22.28618,4.84911 0.19564,-0.19564 -0.0777,-0.73493 -0.65641,-1.47324 -3.2331,-2.77911 -6.25598,-5.38416 -8.87401,-7.69195 -5.37724,-3.10336 -13.44364,-4.25526 -22.76986,-4.41233 z m -128.23133,1.61884 c -5.6247,0.0907 -50.5221,17.37613 -50.5221,19.40386 0,1.09663 11.42346,7.38425 25.38321,14.30551 l 25.13889,12.57069 25.13643,-12.57069 c 13.95974,-6.92231 25.38321,-13.37328 25.38321,-14.30551 0,-1.9062 -45.73717,-19.48098 -50.51964,-19.40386 z m 105.66382,0.66136 c -0.84928,-0.0402 -1.51355,0.0321 -1.95939,0.23937 -8.35677,1.95396 -16.67748,4.86226 -24.13452,8.66178 -12.05004,6.13973 -16.71022,9.91596 -13.66883,11.08016 44.34943,16.97604 61.01977,22.81217 65.77275,23.06599 3.1575,0.16859 12.3415,-4.69737 20.61306,-10.76923 8.27156,-6.0719 14.64235,-12.06125 13.84403,-13.35296 -0.79831,-1.29171 -12.73698,-5.53148 -26.36537,-9.41197 -13.11493,-3.44716 -28.15683,-9.23184 -34.10173,-9.51314 z m -211.51024,0.0494 c -6.26784,0.3397 -21.02524,6.01279 -33.9216,9.46379 -14.84126,4.35423 -25.371746,8.04127 -26.365363,9.41445 -1.0119,1.39844 5.685022,7.99311 13.844033,13.35048 7.82762,4.86267 17.56753,11.22861 20.61307,10.76923 4.82311,-0.85623 44.14863,-14.66484 65.77521,-23.07339 5.53452,-2.18757 -2.54958,-5.08943 -13.65896,-11.0777 -7.07192,-3.81195 -16.1219,-6.21718 -24.15179,-8.6445 -0.51876,-0.19116 -1.2392,-0.25089 -2.1346,-0.20236 z m 50.77628,21.77043 c -0.81735,0.0776 -2.20549,0.78787 -7.58831,11.97349 -1.36375,2.8339 -5.979,9.59288 -5.07863,13.62934 0.89876,2.76694 5.56224,3.15328 6.20638,3.31665 10.4686,2.65476 45.70503,-0.73415 50.14701,-3.69174 1.69298,-1.2068 -7.46947,-7.73926 -19.26814,-13.8243 -11.92246,-6.14894 -23.45408,-11.49484 -24.41831,-11.40344 z m 110.13783,0 c -0.78365,0 -11.74021,5.13135 -24.41585,11.40344 -14.79512,7.32082 -21.68916,12.28775 -19.27061,13.8243 4.42362,2.81038 43.21441,7.11461 53.12557,3.7559 3.23852,-1.09746 3.06776,-2.96644 3.22534,-3.38327 1.26227,-3.33817 -5.07614,-13.62688 -5.07614,-13.62688 -3.36008,-6.58632 -6.80466,-11.97349 -7.58831,-11.97349 z m -226.422814,0.37757 c -0.246367,-0.035 -0.410683,0.009 -0.491078,0.13819 -2.382464,3.83233 -7.723908,22.44864 -6.132347,24.45039 1.991921,2.81238 29.171999,3.49059 34.341109,0.21717 2.81045,-2.04279 -2.0912,-6.78005 -11.79581,-14.05133 -8.491525,-6.36239 -14.197357,-10.50963 -15.921874,-10.75442 z m 343.036004,0.0937 c -1.21546,0.085 -8.21077,4.65873 -16.25009,10.66065 -10.67887,7.97252 -14.39508,12.4003 -11.79582,14.05132 5.21251,3.31094 32.26621,3.13769 34.34112,-0.21963 1.39117,-2.25101 -3.29005,-20.91294 -6.13235,-24.44793 -0.0283,-0.0351 -0.0819,-0.05 -0.16286,-0.0445 z m -235.95817,1.12775 c -8.46553,0.22755 -59.8069,20.34199 -58.2955,23.40901 1.61216,3.27152 37.48155,3.69201 46.59346,0.92541 4.63834,-1.40828 15.27329,-21.34413 12.79525,-24.10492 -0.15488,-0.17254 -0.52885,-0.24466 -1.09321,-0.2295 z m 127.85129,0.0963 c -0.18328,0.0211 -0.31743,0.0646 -0.39484,0.13324 -2.92852,2.5968 7.01932,21.77067 12.79771,24.10738 8.56958,3.46544 44.49863,2.46564 46.59592,-0.92786 1.52603,-2.46914 -53.31728,-23.96863 -58.99879,-23.31276 z m 114.21701,2.67502 c -1.6704,-0.19328 -0.34704,3.86104 3.32405,12.64719 3.03242,7.25754 6.47441,10.67051 10.76676,10.67051 3.47054,0 6.31002,-1.11254 6.31002,-2.47267 0,-0.0699 -0.0193,-0.1589 -0.0445,-0.25171 -3.65267,-5.40451 -10.72272,-12.47672 -18.66353,-19.74441 -0.73109,-0.50802 -1.30049,-0.8035 -1.69287,-0.84891 z m -355.700459,0.005 c -0.247567,0.0321 -0.589453,0.19749 -0.974766,0.42198 -8.454352,8.0005 -15.792872,15.60479 -19.095392,21.13869 0.679464,1.22755 3.039008,1.80998 6.095326,1.7521 4.531259,-0.0684 8.960947,-6.15243 10.766769,-10.67052 3.527421,-8.8254 4.84353,-12.85418 3.208063,-12.64225 z m 71.529989,29.61292 c -26.37488,-0.12446 -23.12544,3.9255 26.63436,55.23055 35.58272,36.68776 50.759,48.50102 50.759,48.50102 0,0 -18.64795,-49.37896 -29.23782,-76.22365 -10.30911,-27.00613 -13.49323,-26.96965 -42.48959,-27.43882 -2.01666,-0.0326 -3.90762,-0.0608 -5.66595,-0.0691 z m 65.96277,0.0126 c -24.67891,-0.09 -24.11736,2.97395 -15.18895,26.22469 9.52364,24.80082 31.39924,79.0871 32.80617,78.21758 7.88262,-29.60869 11.97165,-60.11751 19.24099,-89.94922 2.0977,-12.72397 -1.58606,-13.97266 -31.5797,-14.43629 -1.87461,-0.0289 -3.63325,-0.0508 -5.27851,-0.0567 z m 196.91354,0.003 c -0.75144,0.0101 -1.54082,0.0327 -2.35669,0.0543 -21.91301,0.59374 -15.46719,0.99676 -32.95671,28.24085 -13.6619,21.2817 -29.23404,42.54039 -44.48599,67.48042 0.23135,0.77996 -9.29773,14.3136 43.52605,-40.84115 50.10282,-52.31374 47.54499,-55.07807 36.27334,-54.93441 z m -338.85317,0.008 c -2.064534,-0.0128 -4.445519,0.005 -7.195935,0.0469 -4.276389,0.0651 -6.790167,0.8004 -6.655505,2.81076 4.449335,4.94566 12.773283,12.76466 23.542264,22.3528 26.490946,22.20268 33.700806,28.27707 51.859616,43.37799 19.98763,16.68309 50.60106,42.0891 52.33096,40.90778 0.56933,-0.5711 -62.91679,-57.87806 -85.35182,-84.31537 -3.46276,-4.77698 -10.775654,-10.73647 -13.444272,-18.58212 -1.682683,-4.94703 -0.633587,-6.50948 -15.085308,-6.59873 z m 277.91719,0.0222 c -24.36337,0.0903 -28.26951,3.72786 -37.33941,27.4635 -9.43824,25.48144 -21.19767,50.24406 -29.23781,76.22365 0,1.20581 22.84165,-20.62213 50.75899,-48.50102 55.94637,-55.8693 55.52953,-54.7687 20.97089,-55.16146 -1.81368,-0.0206 -3.52842,-0.0307 -5.15266,-0.0246 z m -245.79952,0.0197 c -1.19859,-0.006 -2.49632,-0.003 -3.90396,0.005 -15.483423,0.0812 -20.031853,-0.15862 33.91665,54.8826 53.9485,55.04126 43.52852,40.83867 43.52852,40.83867 -13.95503,-24.16478 -30.39086,-44.05757 -44.48601,-67.47796 -15.23207,-25.80122 -11.0764,-28.15243 -29.0552,-28.24825 z m 185.37438,0.005 c -30.00237,-0.12091 -32.90027,1.85899 -31.5797,14.4363 6.75515,29.36187 11.4254,59.71663 19.24098,89.94922 1.27495,1.03685 23.54191,-54.44688 32.80617,-78.21758 9.26427,-23.77072 9.53492,-26.04696 -20.46745,-26.16794 z m 154.41408,0 c -22.1016,0.0898 -19.77907,1.04228 -22.58726,6.55185 -4.12397,8.09111 -8.06245,12.70089 -13.13826,18.58212 -21.70591,24.89545 -85.90068,83.63915 -85.35183,84.31536 1.53255,1.06704 23.96982,-17.21759 52.3285,-40.90778 20.90689,-18.43207 21.29177,-18.92357 63.78868,-53.37481 13.02003,-11.71571 13.68382,-15.20224 4.96017,-15.16674 z m -189.54981,14.6806 -20.65748,98.88493 c 0,0 5.14457,14.77223 8.14357,20.45759 0,0 11.89652,28.74332 12.4769,27.81639 0.71635,-1.14397 12.54848,-27.3031 12.54848,-27.3031 l 8.14354,-20.73644 -20.65501,-99.11937 z m -121.74115,0.0987 c -4.58522,3.57019 15.94334,28.66679 31.39709,52.70359 15.59695,24.25959 27.50277,45.88452 28.70972,47.31896 9.71869,9.12582 17.00206,12.88557 30.35077,24.75147 17.14871,15.24383 26.26352,25.03962 29.14404,22.13565 0.51286,-0.51701 -6.94136,-11.24771 -11.80815,-23.97658 -8.3345,-21.79853 -13.48782,-25.52948 -56.7951,-69.13136 -25.62416,-25.79846 -51.24742,-53.8999 -50.99837,-53.80173 z m 243.47738,0.003 c -0.28919,-0.28581 -24.29413,28.64395 -50.99591,54.63089 -43.84697,42.67317 -48.65771,47.28638 -56.7951,68.29972 -5.13977,13.27258 -12.3398,23.33777 -11.80815,23.97658 2.48418,2.98494 10.10872,-5.7994 29.14404,-22.13565 13.80527,-12.55596 20.87958,-16.17659 30.35077,-24.75147 1.52768,-1.768 15.02133,-25.614 28.70973,-47.31896 13.60324,-21.56994 35.96277,-49.13548 31.39462,-52.70111 z"
     id="path3634"
     inkscape:connector-curvature="0" />
</svg>
