<?xml version="1.0" encoding="UTF-8" standalone="no"?>
<svg xmlns:dc="http://purl.org/dc/elements/1.1/" xmlns:cc="http://creativecommons.org/ns#" xmlns:rdf="http://www.w3.org/1999/02/22-rdf-syntax-ns#" xmlns:svg="http://www.w3.org/2000/svg" xmlns="http://www.w3.org/2000/svg" xmlns:sodipodi="http://sodipodi.sourceforge.net/DTD/sodipodi-0.dtd" xmlns:inkscape="http://www.inkscape.org/namespaces/inkscape" height="512" viewBox="0 0 512 512" width="512" version="1.1" id="svg2" inkscape:version="0.91 r" sodipodi:docname="uTorrent.svg">
<defs id="defs15" />
<sodipodi:namedview pagecolor="#ffffff" bordercolor="#666666" borderopacity="1" objecttolerance="10" gridtolerance="10" guidetolerance="10" inkscape:pageopacity="0" inkscape:pageshadow="2" inkscape:window-width="640" inkscape:window-height="480" id="namedview13" showgrid="false" inkscape:zoom="0.4609375" inkscape:cx="218.0339" inkscape:cy="256" inkscape:window-x="0" inkscape:window-y="0" inkscape:window-maximized="0" inkscape:current-layer="svg2" />
<metadata id="metadata132">
<rdf:RDF>
<cc:Work rdf:about="">
<dc:format>image/svg+xml</dc:format>
<dc:type rdf:resource="http://purl.org/dc/dcmitype/StillImage" />
</cc:Work>
</rdf:RDF>
</metadata>
<path d="M 37.647805,117.99978 C 61.641629,93.915419 92.11518,90.718197 126.51052,100.16257 c 38.39809,60.87956 47.77135,142.91849 88.86272,183.61835 51.47247,41.2763 129.69887,4.98155 125.97027,-48.26544 L 274.94059,63.438913 c 28.31774,-20.068526 32.73371,-31.242326 73.23848,-22.034202 44.26513,78.883909 35.42814,207.148149 138.66494,209.849509 5.71152,21.98136 1.08506,40.26003 -8.7886,56.65937 -27.64862,13.49305 -80.57093,-6.16758 -104.48697,-23.08345 -25.10957,60.81493 -98.42778,88.62514 -152.33611,75.54584 l 49.8022,124.86046 c -39.12755,6.26983 -77.35073,8.1667 -111.32254,-10.49248 z" id="path4238" inkscape:connector-curvature="0" sodipodi:nodetypes="ccccccccccccc" style="fill:#009688;fill-rule:evenodd;stroke:#000000;stroke-width:0" />
</svg>
