<?xml version="1.0" encoding="UTF-8" standalone="no"?>
<svg
   xmlns:dc="http://purl.org/dc/elements/1.1/"
   xmlns:cc="http://creativecommons.org/ns#"
   xmlns:rdf="http://www.w3.org/1999/02/22-rdf-syntax-ns#"
   xmlns:svg="http://www.w3.org/2000/svg"
   xmlns="http://www.w3.org/2000/svg"
   xmlns:sodipodi="http://sodipodi.sourceforge.net/DTD/sodipodi-0.dtd"
   xmlns:inkscape="http://www.inkscape.org/namespaces/inkscape"
   sodipodi:docname="viewnior.svg"
   inkscape:version="0.91 r13725"
   id="svg2"
   version="1.1"
   width="512"
   viewBox="0 0 512 512"
   height="512">
  <defs
     id="defs17" />
  <sodipodi:namedview
     inkscape:current-layer="svg2"
     inkscape:window-maximized="1"
     inkscape:window-y="0"
     inkscape:window-x="0"
     inkscape:cy="354.25851"
     inkscape:cx="-268.98113"
     inkscape:zoom="0.8359594"
     showgrid="false"
     id="namedview15"
     inkscape:window-height="1022"
     inkscape:window-width="1920"
     inkscape:pageshadow="2"
     inkscape:pageopacity="0"
     guidetolerance="10"
     gridtolerance="10"
     objecttolerance="10"
     borderopacity="1"
     bordercolor="#666666"
     pagecolor="#ffffff" />
  <metadata
     id="metadata28">
    <rdf:RDF>
      <cc:Work
         rdf:about="">
        <dc:format>image/svg+xml</dc:format>
        <dc:type
           rdf:resource="http://purl.org/dc/dcmitype/StillImage" />
        <dc:title></dc:title>
      </cc:Work>
    </rdf:RDF>
  </metadata>
  <g
     id="g4221"
     transform="matrix(1.5493357,0.06419803,-0.06419803,1.5493357,-123.14147,-156.9794)">
    <rect
       ry="31.737486"
       transform="matrix(0.91555532,-0.40219207,0.40219207,0.91555532,0,0)"
       y="174.04257"
       x="63.099895"
       height="292.57996"
       width="63.474972"
       id="rect4167"
       style="opacity:1;fill:#009688;fill-opacity:1;stroke:none;stroke-width:10;stroke-linejoin:round;stroke-miterlimit:4;stroke-dasharray:none;stroke-opacity:1" />
    <path
       id="rect4167-3"
       d="m 329.56489,118.19909 c -13.03676,-0.006 -25.05963,8.47103 -29.13418,21.74274 L 235.08657,352.7832 c -5.01484,16.33441 3.9635,33.56499 20.13106,38.63159 16.16755,5.06658 33.22025,-4.0063 38.23509,-20.34072 l 11.25203,-36.64825 a 20.290408,20.258639 0 0 1 -11.28024,-18.12559 20.290408,20.258639 0 0 1 5.74636,-14.09621 20.290408,20.258639 0 0 1 -2.40498,-9.53869 20.290408,20.258639 0 0 1 9.42998,-17.10543 20.290408,20.258639 0 0 1 20.17054,-18.1066 20.290408,20.258639 0 0 1 1.93865,0.0988 l 30.4918,-99.31939 c 5.01483,-16.33442 -3.9635,-33.56311 -20.13106,-38.62969 -3.03142,-0.94999 -6.09242,-1.40269 -9.10091,-1.40392 z"
       style="opacity:1;fill:#009688;fill-opacity:1;stroke:none;stroke-width:10;stroke-linejoin:round;stroke-miterlimit:4;stroke-dasharray:none;stroke-opacity:1"
       inkscape:connector-curvature="0" />
  </g>
</svg>
