<?xml version="1.0" encoding="UTF-8" standalone="no"?>
<svg
   xmlns:dc="http://purl.org/dc/elements/1.1/"
   xmlns:cc="http://creativecommons.org/ns#"
   xmlns:rdf="http://www.w3.org/1999/02/22-rdf-syntax-ns#"
   xmlns:svg="http://www.w3.org/2000/svg"
   xmlns="http://www.w3.org/2000/svg"
   xmlns:sodipodi="http://sodipodi.sourceforge.net/DTD/sodipodi-0.dtd"
   xmlns:inkscape="http://www.inkscape.org/namespaces/inkscape"
   sodipodi:docname="virt-viewer.svg"
   inkscape:version="0.91 r13725"
   id="svg2"
   version="1.1"
   width="512"
   viewBox="0 0 512 512"
   height="512">
  <defs
     id="defs17" />
  <sodipodi:namedview
     inkscape:current-layer="svg2"
     inkscape:window-maximized="1"
     inkscape:window-y="0"
     inkscape:window-x="1920"
     inkscape:cy="246.14979"
     inkscape:cx="279.11008"
     inkscape:zoom="1.5070222"
     showgrid="false"
     id="namedview15"
     inkscape:window-height="1021"
     inkscape:window-width="1680"
     inkscape:pageshadow="2"
     inkscape:pageopacity="0"
     guidetolerance="10"
     gridtolerance="10"
     objecttolerance="10"
     borderopacity="1"
     bordercolor="#666666"
     pagecolor="#ffffff" />
  <metadata
     id="metadata28">
    <rdf:RDF>
      <cc:Work
         rdf:about="">
        <dc:format>image/svg+xml</dc:format>
        <dc:type
           rdf:resource="http://purl.org/dc/dcmitype/StillImage" />
        <dc:title></dc:title>
      </cc:Work>
    </rdf:RDF>
  </metadata>
  <g
     id="g37"
     transform="matrix(15.6195,0,0,15.6195,-112.08031,-113.42504)"
     style="fill:#009688">
    <g
       id="g39"
       style="fill:#009688">
      <!-- color: #eeeeee -->
      <g
         id="g41"
         style="fill:#009688">
        <path
           d="M 11.531,13 C 11.234,13.031 11,13.297 11,13.594 l 0,10.816 c 0,0.316 0.277,0.594 0.594,0.594 l 5.406,0 0,2 -4,0 0,2 7.281,0 0,-6 -6.84,0 c -0.211,0 -0.41,-0.195 -0.41,-0.41 l 0,-7.184 c -0.004,-0.188 0.129,-0.371 0.313,-0.406 0.023,-0.004 0.066,-0.004 0.094,0 l 11.125,0 c 0.207,0 0.406,0.191 0.406,0.406 l 0,2.875 2.031,0 0,-4.691 C 27,13.281 26.719,13 26.406,13 m -14.875,0"
           style="fill:#009688;fill-opacity:1;fill-rule:nonzero;stroke:none"
           id="path43"
           inkscape:connector-curvature="0" />
        <path
           d="m 21.535,19 c -0.293,0.031 -0.539,0.305 -0.539,0.598 l 0,10.809 c 0,0.313 0.289,0.598 0.602,0.598 l 5.398,0 0,2.992 4,0 0,-2.992 5.402,0 c 0.313,0 0.598,-0.285 0.598,-0.598 l 0,-10.809 C 36.996,19.282 36.707,19 36.398,19 m -13.05,2 c 0.023,-0.004 0.047,-0.004 0.074,0 l 11.145,0 c 0.211,0 0.402,0.191 0.402,0.402 l 0,7.203 c 0,0.207 -0.191,0.398 -0.402,0.398 l -11.145,0 c -0.211,0 -0.402,-0.191 -0.402,-0.398 l 0,-7.203 C 23.016,21.214 23.165,21.035 23.348,21 m -0.352,12 0,2 12,0 0,-2 m -12,0"
           style="fill:#009688;fill-opacity:1;fill-rule:nonzero;stroke:none"
           id="path45"
           inkscape:connector-curvature="0" />
      </g>
    </g>
  </g>
</svg>
