<?xml version="1.0" encoding="UTF-8" standalone="no"?>
<svg
   xmlns:dc="http://purl.org/dc/elements/1.1/"
   xmlns:cc="http://creativecommons.org/ns#"
   xmlns:rdf="http://www.w3.org/1999/02/22-rdf-syntax-ns#"
   xmlns:svg="http://www.w3.org/2000/svg"
   xmlns="http://www.w3.org/2000/svg"
   xmlns:sodipodi="http://sodipodi.sourceforge.net/DTD/sodipodi-0.dtd"
   xmlns:inkscape="http://www.inkscape.org/namespaces/inkscape"
   height="512"
   viewBox="0 0 512 512"
   width="512"
   version="1.1"
   id="svg2"
   inkscape:version="0.91 r13725"
   sodipodi:docname="vivaldi.svg">
  <defs
     id="defs17" />
  <sodipodi:namedview
     pagecolor="#ffffff"
     bordercolor="#666666"
     borderopacity="1"
     objecttolerance="10"
     gridtolerance="10"
     guidetolerance="10"
     inkscape:pageopacity="0"
     inkscape:pageshadow="2"
     inkscape:window-width="1680"
     inkscape:window-height="1019"
     id="namedview15"
     showgrid="false"
     inkscape:zoom="0.35022391"
     inkscape:cx="-759.94818"
     inkscape:cy="568.85376"
     inkscape:window-x="1680"
     inkscape:window-y="0"
     inkscape:window-maximized="1"
     inkscape:current-layer="svg2"
     showguides="false" />
  <metadata
     id="metadata28">
    <rdf:RDF>
      <cc:Work
         rdf:about="">
        <dc:format>image/svg+xml</dc:format>
        <dc:type
           rdf:resource="http://purl.org/dc/dcmitype/StillImage" />
        <dc:title />
      </cc:Work>
    </rdf:RDF>
  </metadata>
  <path
     inkscape:connector-curvature="0"
     id="path27"
     style="fill:#009688;fill-opacity:1;fill-rule:evenodd;stroke:none;stroke-width:9.57487583"
     d="M 70.476426,154.60133 223.29413,424.59339 c 0,0 8.27147,14.45316 29.0963,14.45316 20.81021,0 29.09629,-14.45316 29.09629,-14.45316 0,0 106.21394,-162.6821 149.54418,-249.45952 4.35496,-8.70988 9.04601,-17.52208 11.0189,-27.07958 1.34448,-6.48858 1.98748,-13.44481 0.43841,-19.88953 -1.88519,-7.86229 -5.52406,-15.89994 -11.45731,-21.38015 -6.85392,-6.32783 -16.36759,-10.215131 -25.63281,-11.179647 -9.96667,-1.052201 -20.59099,1.344478 -29.5201,6.006307 -6.26936,3.30276 -11.83727,8.57838 -15.34462,14.76006 -3.4781,6.12323 -4.36954,13.5471 -4.76411,20.57638 -0.26306,4.83722 0.68683,9.70365 1.68059,14.43856 0.33612,1.62214 0.89144,3.20045 1.44678,4.74952 1.41754,3.96038 3.34658,7.71615 4.79336,11.6619 1.19834,3.24429 2.86433,6.43013 3.24429,9.87901 0.61377,5.55328 0.46765,11.48653 -1.5783,16.67446 -9.98131,25.25285 -27.13804,49.54118 -49.81884,64.37431 -9.39674,6.13783 -21.42398,7.67229 -32.63286,8.15455 -12.78718,0.54073 -27.518,-0.46765 -37.89389,-6.10862 -10.37588,-5.64097 -15.25693,-15.43229 -21.76012,-24.0691 -29.8416,-39.60371 -78.62285,-126.3519 -78.62285,-126.3519 0,0 -21.20478,-37.484702 -59.361719,-14.76006 -38.142318,22.73925 -14.833118,59.04021 -14.833118,59.04021 z" />
</svg>
