<?xml version="1.0" encoding="UTF-8" standalone="no"?>
<svg
   xmlns:dc="http://purl.org/dc/elements/1.1/"
   xmlns:cc="http://creativecommons.org/ns#"
   xmlns:rdf="http://www.w3.org/1999/02/22-rdf-syntax-ns#"
   xmlns:svg="http://www.w3.org/2000/svg"
   xmlns="http://www.w3.org/2000/svg"
   xmlns:sodipodi="http://sodipodi.sourceforge.net/DTD/sodipodi-0.dtd"
   xmlns:inkscape="http://www.inkscape.org/namespaces/inkscape"
   height="512"
   viewBox="0 0 512 512"
   width="512"
   version="1.1"
   id="svg2"
   inkscape:version="0.91 r"
   sodipodi:docname="wave-accounting.svg">
  <sodipodi:namedview
     pagecolor="#ffffff"
     bordercolor="#666666"
     borderopacity="1"
     objecttolerance="10"
     gridtolerance="10"
     guidetolerance="10"
     inkscape:pageopacity="0"
     inkscape:pageshadow="2"
     inkscape:window-width="640"
     inkscape:window-height="480"
     id="namedview20"
     showgrid="false"
     inkscape:zoom="0.4609375"
     inkscape:cx="256"
     inkscape:cy="256"
     inkscape:window-x="0"
     inkscape:window-y="0"
     inkscape:window-maximized="0"
     inkscape:current-layer="svg2" />
  <metadata
     id="metadata70">
    <rdf:RDF>
      <cc:Work
         rdf:about="">
        <dc:format>image/svg+xml</dc:format>
        <dc:type
           rdf:resource="http://purl.org/dc/dcmitype/StillImage" />
      </cc:Work>
    </rdf:RDF>
  </metadata>
  <defs
     id="defs68">
    <filter
       id="filter3174"
       color-interpolation-filters="sRGB">
      <feGaussianBlur
         id="feGaussianBlur3176"
         stdDeviation="1.71" />
    </filter>
    <linearGradient
       id="ButtonShadow"
       gradientUnits="userSpaceOnUse"
       y1="92.54"
       gradientTransform="scale(1.0059 .99417)"
       x2="0"
       y2="7.02">
      <stop
         id="stop3750" />
      <stop
         id="stop3752"
         stop-opacity="0.588"
         offset="1" />
    </linearGradient>
    <clipPath
       id="clipPath31552">
      <path
         id="path31554"
         d="m471.95 253.05c0 120.9-98.006 218.91-218.91 218.91s-218.91-98.006-218.91-218.91 98.006-218.91 218.91-218.91 218.91 98.006 218.91 218.91" />
    </clipPath>
  </defs>
  <path
     id="path27464"
     d="m256.03 101.34a152.09 152.09 0 0 0 -152.12 152.07 152.09 152.09 0 0 0 3.34 30.97 112.29 112.29 0 0 1 112 -106.47 112.29 112.29 0 0 1 112.31 112.25 112.29 112.29 0 0 1 -17.18 59.37c17.86 1.69 40.74 1.32 62.53-4.03a152.09 152.09 0 0 0 31.18 -92.09 152.09 152.09 0 0 0 -152.06 -152.07zm-26.78 99.72c-1.45-0.01-2.89 0-4.31 0.03-34.08 0.7-60.83 14.32-81.82 39.6-13.55 17.63-20.9 38.55-20.93 59.5 0 28.92 14.25 57.67 38.75 78.12 24.49 20.45 58.92 32.35 93.56 32.35 21.13-0.01 42.25-4.33 61-12.47 18.75-8.15 35.11-20.09 47.25-34.53-21.17 2.5-43.2-0.53-62.37-8.6-19.18-8.07-35.42-21.16-46-37.03-13.65-16.7-20.54-37.35-19.26-57.69 1.29-20.34 10.75-40.24 26.41-55.59-11.41-2.35-22.16-3.58-32.28-3.69z"
     fill="#009688" />
</svg>
