<?xml version="1.0" encoding="UTF-8" standalone="no"?>
<svg
   xmlns:dc="http://purl.org/dc/elements/1.1/"
   xmlns:cc="http://creativecommons.org/ns#"
   xmlns:rdf="http://www.w3.org/1999/02/22-rdf-syntax-ns#"
   xmlns:svg="http://www.w3.org/2000/svg"
   xmlns="http://www.w3.org/2000/svg"
   xmlns:sodipodi="http://sodipodi.sourceforge.net/DTD/sodipodi-0.dtd"
   xmlns:inkscape="http://www.inkscape.org/namespaces/inkscape"
   version="1.1"
   viewBox="0 0 512 512"
   id="svg2"
   inkscape:version="0.91 r"
   sodipodi:docname="web-pocket.svg">
  <defs
     id="defs20" />
  <sodipodi:namedview
     pagecolor="#ffffff"
     bordercolor="#666666"
     borderopacity="1"
     objecttolerance="10"
     gridtolerance="10"
     guidetolerance="10"
     inkscape:pageopacity="0"
     inkscape:pageshadow="2"
     inkscape:window-width="640"
     inkscape:window-height="480"
     id="namedview18"
     showgrid="false"
     inkscape:zoom="0.4609375"
     inkscape:cx="218.0339"
     inkscape:cy="256"
     inkscape:window-x="0"
     inkscape:window-y="0"
     inkscape:window-maximized="0"
     inkscape:current-layer="svg2" />
  <metadata
     id="metadata4686">
    <rdf:RDF>
      <cc:Work
         rdf:about="">
        <dc:format>image/svg+xml</dc:format>
        <dc:type
           rdf:resource="http://purl.org/dc/dcmitype/StillImage" />
        <dc:title />
      </cc:Work>
    </rdf:RDF>
  </metadata>
  <path
     inkscape:connector-curvature="0"
     id="path4680"
     d="m 265.41263,71.200503 c -56.35404,0.157356 -112.78159,-0.01618 -169.062082,0.630895 -17.4121,3.761837 -30.91236,15.103231 -30.47558,41.544912 0.40442,42.64788 -1.38827,94.51652 1.75297,136.85557 8.48693,98.50777 103.663752,177.40047 201.400932,173.1945 94.91359,-0.19412 185.26826,-78.36915 192.94488,-174.06216 2.74417,-49.55684 1.3309,-99.25191 1.01619,-148.82639 C 459.46487,76.340308 433.10555,68.604865 412.07574,71.710807 363.19245,71.300505 314.30916,71.187268 265.42586,71.207856 M 172.78731,172.31126 c 10.46197,0.11324 12.487,3.3133 50.10391,38.41251 15.46501,14.07674 26.36816,27.02405 42.26846,40.40813 25.80785,-23.37104 52.33336,-51.47158 78.56033,-74.26614 16.71209,-11.97228 41.86846,1.25003 42.1317,22.04455 0.65736,15.62677 -16.85621,26.75051 -37.41249,47.66562 -22.95632,21.72247 -44.68468,42.75082 -68.67779,63.92769 -19.45037,14.3841 -37.66248,-6.31188 -50.73627,-19.11066 -26.54463,-25.01518 -53.32456,-49.92154 -78.82064,-75.93969 -10.87226,-12.062 -8.04427,-41.42727 22.59161,-43.16406"
     style="fill:#009688" />
</svg>
