<?xml version="1.0" encoding="UTF-8" standalone="no"?>
<svg
   xmlns:dc="http://purl.org/dc/elements/1.1/"
   xmlns:cc="http://creativecommons.org/ns#"
   xmlns:rdf="http://www.w3.org/1999/02/22-rdf-syntax-ns#"
   xmlns:svg="http://www.w3.org/2000/svg"
   xmlns="http://www.w3.org/2000/svg"
   xmlns:sodipodi="http://sodipodi.sourceforge.net/DTD/sodipodi-0.dtd"
   xmlns:inkscape="http://www.inkscape.org/namespaces/inkscape"
   height="512"
   viewBox="0 0 512 512"
   width="512"
   version="1.1"
   id="svg2"
   inkscape:version="0.91 r"
   sodipodi:docname="webstorm.svg">
  <defs
     id="defs17" />
  <sodipodi:namedview
     pagecolor="#ffffff"
     bordercolor="#666666"
     borderopacity="1"
     objecttolerance="10"
     gridtolerance="10"
     guidetolerance="10"
     inkscape:pageopacity="0"
     inkscape:pageshadow="2"
     inkscape:window-width="647"
     inkscape:window-height="480"
     id="namedview15"
     showgrid="false"
     inkscape:zoom="0.4609375"
     inkscape:cx="256"
     inkscape:cy="256"
     inkscape:window-x="0"
     inkscape:window-y="0"
     inkscape:window-maximized="0"
     inkscape:current-layer="svg2" />
  <metadata
     id="metadata74">
    <rdf:RDF>
      <cc:Work
         rdf:about="">
        <dc:format>image/svg+xml</dc:format>
        <dc:type
           rdf:resource="http://purl.org/dc/dcmitype/StillImage" />
      </cc:Work>
    </rdf:RDF>
  </metadata>
  <path
     id="path10"
     fill="#009688"
     d="m214.43 140.23-21.804 99.6-19.04-98.91h-52.36l46.996 230.78h45.35l20.574-98.13 20.03 98.19h18.02l7.978-8.547c14.24-17.275 29.325-29.749 37.25-46.876 3.09-7.929 3.866-14.75 2.399-20.754-1.303-5.331-4.358-10.01-9.147-14.246-11.08-10.806-21.286-19.466-27.05-31.431-4.967-12.322-7.874-24.598-9.537-35.21l-15.235-74.47h-44.42m100.23 0.84c-9.142 13.558-15.438 21.908-20.394 32.48-12.504 20.628-9.747 49.647 0.3 71.05 5.655 14.493 18.336 22.75 27.622 33.05 4.586 4.772 7.337 10.336 8.697 16.225 2.158 9.343 0.772 19.458-2.579 28.25-8.872 19.856-23.865 32.882-39.2 49.4h74.38c10.843-13.566 18.641-31.01 23-45.616 3.356-11.45 5.04-22.919 3.959-33.08-1.403-10.692-5.162-20.873-10.677-28.731-10.942-15.03-27.538-28.29-34.01-40.458-3.674-7.435-3.89-15.213-1.62-25.942 5.268-23.883 26.09-35.18 40.608-56.623h-70.09" />
</svg>
