<?xml version="1.0" encoding="UTF-8" standalone="no"?>
<!-- Created with Inkscape (http://www.inkscape.org/) -->

<svg
   xmlns:dc="http://purl.org/dc/elements/1.1/"
   xmlns:cc="http://creativecommons.org/ns#"
   xmlns:rdf="http://www.w3.org/1999/02/22-rdf-syntax-ns#"
   xmlns:svg="http://www.w3.org/2000/svg"
   xmlns="http://www.w3.org/2000/svg"
   xmlns:sodipodi="http://sodipodi.sourceforge.net/DTD/sodipodi-0.dtd"
   xmlns:inkscape="http://www.inkscape.org/namespaces/inkscape"
   id="svg2"
   version="1.1"
   inkscape:version="0.91 r13725"
   width="512"
   height="512"
   viewBox="0 0 512 512"
   sodipodi:docname="webtorrent-desktop.svg">
  <metadata
     id="metadata8">
    <rdf:RDF>
      <cc:Work
         rdf:about="">
        <dc:format>image/svg+xml</dc:format>
        <dc:type
           rdf:resource="http://purl.org/dc/dcmitype/StillImage" />
        <dc:title></dc:title>
      </cc:Work>
    </rdf:RDF>
  </metadata>
  <defs
     id="defs6" />
  <sodipodi:namedview
     pagecolor="#ffffff"
     bordercolor="#666666"
     borderopacity="1"
     objecttolerance="10"
     gridtolerance="10"
     guidetolerance="10"
     inkscape:pageopacity="0"
     inkscape:pageshadow="2"
     inkscape:window-width="903"
     inkscape:window-height="627"
     id="namedview4"
     showgrid="false"
     inkscape:zoom="0.4609375"
     inkscape:cx="256"
     inkscape:cy="256"
     inkscape:window-x="0"
     inkscape:window-y="27"
     inkscape:window-maximized="0"
     inkscape:current-layer="svg2" />
  <g
     id="g3338">
    <g
       id="g3335">
      <path
         style="fill:#009688"
         d="M 248.48782,505.65455 C 230.21235,495.89971 48.674318,388.96881 46.230319,386.51931 l -2.882861,-2.88935 0,-122.2061 0,-122.20611 2.882861,-2.88671 C 48.978688,133.57899 245.38128,18.177092 252.31929,15.237632 c 2.4005,-1.017036 4.14098,-1.15748 6.2462,-0.50405 1.60514,0.49822 48.32348,27.412854 103.81855,59.810291 79.92432,46.658977 101.64872,59.752367 104.50111,62.983227 l 3.60097,4.0788 0,119.81796 0,119.81795 -3.60097,4.07546 c -2.84954,3.225 -24.76716,16.43229 -105.03083,63.29032 -55.78641,32.56817 -102.71543,59.47444 -104.28669,59.79171 -2.14227,0.43258 -4.41337,-0.25396 -9.07981,-2.74475 z m 44.5243,-48.61779 c 18.59915,-10.87259 37.27607,-21.70958 41.50427,-24.08219 4.22819,-2.3726 12.01192,-6.86146 17.29716,-9.97525 5.28525,-3.1138 15.23112,-8.93761 22.10193,-12.94181 6.87082,-4.00421 15.15726,-8.84694 18.41431,-10.76164 3.25706,-1.9147 14.23282,-8.28369 24.39059,-14.15331 10.15777,-5.86963 19.92524,-12.03334 21.7055,-13.69716 l 3.23683,-3.02511 0,-106.63257 c 0,-91.51885 -0.19725,-106.91688 -1.39164,-108.6385 -1.62066,-2.33605 2.07715,-0.12747 -101.12979,-60.401406 C 277.08061,56.483727 258.49029,46.04701 256.0188,46.062339 c -2.43953,0.01514 -24.06778,12.236392 -92.55215,52.297538 -54.8543,32.088003 -90.110923,53.277713 -91.290585,54.866903 -1.894431,2.55209 -1.921907,4.09893 -1.921907,108.19708 0,104.10042 0.02743,105.64483 1.921907,108.19026 1.172999,1.57605 36.746125,22.9568 91.290585,54.86898 68.49459,40.07395 90.11146,52.29082 92.54876,52.30437 2.40697,0.0134 11.40115,-4.78818 36.99671,-19.75071 z M 252.86886,356.74462 c -5.60323,-8.36115 -18.5407,-21.79798 -37.51071,-38.95857 -38.87508,-35.16704 -50.80833,-50.64923 -57.21695,-74.23326 -2.74671,-10.10806 -2.39011,-29.06165 0.70664,-37.55828 2.57715,-7.071 8.6559,-16.06045 14.17965,-20.96938 5.50965,-4.89637 15.75493,-10.30187 22.63111,-11.94036 12.23874,-2.91632 27.70128,-0.6474 38.43814,5.64026 6.18881,3.62425 13.99838,11.38755 17.93827,17.832 1.93531,3.16559 3.90404,5.35288 4.58169,5.09035 0.65351,-0.25319 1.91867,-2.00684 2.81145,-3.89702 4.20279,-8.89801 18.09799,-20.13793 29.37363,-23.76051 8.20458,-2.63593 22.52522,-2.80909 29.99331,-0.36268 17.93174,5.87411 30.83741,19.09903 35.97212,36.86193 3.65239,12.63506 1.18657,32.74314 -5.8318,47.55667 -7.19029,15.17638 -23.69821,34.04627 -51.87756,59.30022 -17.5238,15.7046 -29.48737,27.91411 -34.80244,35.51789 -2.89067,4.13541 -5.63661,7.51894 -6.10208,7.51894 -0.46548,0 -1.94348,-1.63719 -3.28447,-3.6382 z"
         id="path3333"
         inkscape:connector-curvature="0" />
    </g>
  </g>
</svg>
