<?xml version="1.0" encoding="UTF-8" standalone="no"?>
<svg xmlns:dc="http://purl.org/dc/elements/1.1/" xmlns:cc="http://creativecommons.org/ns#" xmlns:rdf="http://www.w3.org/1999/02/22-rdf-syntax-ns#" xmlns:svg="http://www.w3.org/2000/svg" xmlns="http://www.w3.org/2000/svg" xmlns:sodipodi="http://sodipodi.sourceforge.net/DTD/sodipodi-0.dtd" xmlns:inkscape="http://www.inkscape.org/namespaces/inkscape" version="1.1" viewBox="0 0 512 512" id="svg2" inkscape:version="0.91 r" sodipodi:docname="wifi-radar.svg">
<defs id="defs16" />
<sodipodi:namedview pagecolor="#ffffff" bordercolor="#666666" borderopacity="1" objecttolerance="10" gridtolerance="10" guidetolerance="10" inkscape:pageopacity="0" inkscape:pageshadow="2" inkscape:window-width="640" inkscape:window-height="480" id="namedview14" showgrid="false" inkscape:zoom="0.4609375" inkscape:cx="218.0339" inkscape:cy="256" inkscape:window-x="0" inkscape:window-y="0" inkscape:window-maximized="0" inkscape:current-layer="svg2" />
<metadata id="metadata3712">
<rdf:RDF>
<cc:Work rdf:about="">
<dc:format>image/svg+xml</dc:format>
<dc:type rdf:resource="http://purl.org/dc/dcmitype/StillImage" />
</cc:Work>
</rdf:RDF>
</metadata>
<path id="path3708" d="m 204.42533,438.7676 c -6.89875,-4.36719 11.72721,-35.66852 27.39541,-46.03217 9.14844,-6.05445 22.95539,-8.56039 34.86737,-6.32689 11.13917,2.08918 29.44009,19.83173 37.64172,36.49664 3.70361,7.52322 6.35386,14.06051 5.8872,14.52717 -0.46666,0.46666 -3.23425,1.42291 -6.1529,2.1256 -4.79879,1.15721 -6.01399,-0.0715 -12.73741,-12.86688 -4.08666,-7.78083 -10.89774,-16.95489 -15.14624,-20.39281 -9.06752,-7.33844 -22.20415,-9.78638 -31.60884,-5.89125 -8.50914,3.52423 -22.00724,19.03058 -26.88155,30.88592 -3.82904,9.31298 -7.28719,11.26325 -13.26476,7.47871 m -53.98967,-38.49546 c -6.78411,-5.33153 -6.94057,-8.14633 -1.32176,-22.92706 15.20019,-39.9939 42.30563,-73.95493 70.20141,-87.96419 48.67568,-24.43899 101.85611,2.51808 133.95589,67.90857 12.83182,26.14109 14.83603,36.39683 8.38371,42.85186 -2.47223,2.47222 -5.79819,4.49397 -7.39374,4.49397 -6.24597,0 -13.55474,-8.85037 -19.20457,-23.23997 -7.44364,-18.97664 -23.23323,-43.19983 -35.41766,-54.36732 -28.11023,-25.73377 -61.24584,-25.56114 -87.7349,0.45048 -16.47069,16.17667 -28.67535,35.33673 -37.45559,58.80733 -2.38455,6.3714 -5.49338,12.51082 -6.90954,13.64241 -5.7928,4.62884 -11.50737,4.74078 -17.1073,0.33583 M 97.399541,357.0278 c -11.446674,-10.60776 -10.01702,-19.30168 10.188309,-61.98629 15.16512,-32.03504 30.13198,-53.70509 51.92072,-75.17553 20.5007,-20.19858 34.9928,-29.6289 57.63664,-37.50414 35.52825,-12.35572 70.2014,-7.69586 107.54774,14.45164 15.75317,9.34266 42.14782,35.6901 55.32492,55.23995 22.76252,33.74523 44.98015,85.45555 41.09581,95.61958 -3.23021,8.44709 -10.46615,13.3241 -19.76969,13.3241 -10.50121,0 -16.2522,-6.26215 -23.21839,-25.31162 -12.75224,-34.8404 -31.15567,-64.66082 -53.79276,-87.15495 -16.90498,-16.79573 -30.484,-24.8989 -50.19974,-29.94181 -53.05904,-13.5952 -108.38396,32.38302 -140.78046,117.01584 -6.40242,16.72156 -8.85711,20.53037 -15.51309,24.07618 -7.24943,3.86142 -14.42197,2.92944 -20.446753,-2.65835 M 50.274906,317.76087 C 42.723366,314.44434 36.149655,305.43617 34.995142,296.82048 32.835824,280.72474 59.912933,218.0951 85.873292,179.14377 139.81846,98.206468 213.89477,59.619296 286.63179,74.563227 c 50.15927,10.308345 101.62682,48.463923 137.42212,101.869593 26.58887,39.67425 56.18271,107.74601 52.80279,121.46665 -4.5668,18.54504 -22.92032,27.16342 -38.64247,18.13637 -7.80106,-4.47778 -11.33743,-10.28946 -18.57606,-30.5366 -19.0171,-53.18043 -54.3808,-106.34738 -87.32759,-131.27191 -48.29938,-36.53711 -95.64655,-38.62359 -143.923,-6.33094 -37.63227,25.17 -68.67465,69.18986 -95.562932,135.49344 -7.292585,17.98397 -12.431247,27.64627 -16.179368,30.41926 -6.275642,4.64233 -20.085291,6.71667 -26.362281,3.95852" inkscape:connector-curvature="0" style="fill:#009688" />
</svg>
