<?xml version="1.0" encoding="UTF-8" standalone="no"?>
<svg
   xmlns:dc="http://purl.org/dc/elements/1.1/"
   xmlns:cc="http://creativecommons.org/ns#"
   xmlns:rdf="http://www.w3.org/1999/02/22-rdf-syntax-ns#"
   xmlns:svg="http://www.w3.org/2000/svg"
   xmlns="http://www.w3.org/2000/svg"
   xmlns:sodipodi="http://sodipodi.sourceforge.net/DTD/sodipodi-0.dtd"
   xmlns:inkscape="http://www.inkscape.org/namespaces/inkscape"
   height="512"
   viewBox="0 0 512 512"
   width="512"
   version="1.1"
   id="svg2"
   inkscape:version="0.91 r"
   sodipodi:docname="wikimedia-commons.svg">
  <defs
     id="defs17" />
  <sodipodi:namedview
     pagecolor="#ffffff"
     bordercolor="#666666"
     borderopacity="1"
     objecttolerance="10"
     gridtolerance="10"
     guidetolerance="10"
     inkscape:pageopacity="0"
     inkscape:pageshadow="2"
     inkscape:window-width="1920"
     inkscape:window-height="1028"
     id="namedview15"
     showgrid="false"
     inkscape:zoom="1.3037281"
     inkscape:cx="52.823198"
     inkscape:cy="244.919"
     inkscape:window-x="0"
     inkscape:window-y="0"
     inkscape:window-maximized="1"
     inkscape:current-layer="svg2" />
  <metadata
     id="metadata28">
    <rdf:RDF>
      <cc:Work
         rdf:about="">
        <dc:format>image/svg+xml</dc:format>
        <dc:type
           rdf:resource="http://purl.org/dc/dcmitype/StillImage" />
        <dc:title />
      </cc:Work>
    </rdf:RDF>
  </metadata>
  <path
     inkscape:connector-curvature="0"
     style="fill:#009688"
     d="m 249.53839,71.151616 c -0.042,0 -0.211,0.417 -0.336,0.905 -0.478,1.87 -2.516,8.841 -4.137,13.91 -5.682,17.939004 -12.136,34.160004 -18.306,45.971004 -3.739,7.02 -6.638,11.62 -10.575,16.367 -1.984,2.275 -2.397,2.907 -2.844,3.801 -0.696,1.381 -0.312,1.992 1.267,1.784 1.423,-0.156 4.937,-1.325 13.497,-4.576 7.51,-2.794 8.61,-3.186 8.61,-2.948 0,0.405 1.672,6.387 2.482,8.662 5.765,17.575 14.998,30.09 28.958,39.455 5.973,3.978 11.661,6.854 22.287,11.195 15.581,6.367 18.538,7.738 23.451,10.782 2.15,1.371 4.938,3.458 4.938,3.697 0,0.125 -1.826,2.033 -4.059,4.266 l -4.085,4.085 -4.551,-4.576 c -2.919,-2.888 -4.71,-4.556 -4.835,-4.473 -0.239,0.042 -3.137,10.275 -9.463,34.05 -0.042,0.114 0.02,0.284 0.259,0.284 0.291,0 31.881,-8.473 33.948,-9.127 0.114,-0.073 0.259,-0.16 0.259,-0.284 0,-0.125 -2,-2.234 -4.473,-4.706 -2.524,-2.472 -4.525,-4.638 -4.525,-4.68 0,-0.291 8.06,-8.3 8.3,-8.3 0.249,0 2.344,2.455 4.37,5.094 10.07,12.953 16.437,28.614 18.1,44.808 0.478,4.425 0.472,4.995 0.233,5.119 -0.322,0.28 -11.401,0.187 -11.609,-0.052 -0.208,-0.125 -0.207,-1.872 -0.207,-6.619 0,-6.284 0.002,-6.392 -0.362,-6.309 -0.488,0.156 -30.716,17.519 -30.716,17.685 0,0.083 0.154,0.222 0.362,0.388 0.924,0.571 30.437,17.452 30.561,17.452 0.083,0 0.155,-2.88 0.155,-6.567 l 0.052,-6.541 11.894,0 0,1.422 c -0.166,3.158 -0.989,9.06 -1.965,13.316 -2.753,12.735 -8.348,24.746 -16.263,35.01 -1.465,1.87 -4.125,5.118 -4.447,5.326 -0.208,0.156 -8.455,-8 -8.455,-8.325 0,-0.042 2.037,-2.192 4.551,-4.706 2.877,-2.794 4.52,-4.498 4.395,-4.706 -0.291,-0.249 -34.17,-9.371 -34.34,-9.205 -0.114,0.125 9.02,34.13 9.256,34.34 0.125,0.197 1.901,-1.56 4.706,-4.395 2.514,-2.483 4.617,-4.551 4.783,-4.551 0.405,0 8.388,8.07 8.222,8.351 -0.125,0.28 -3.429,3.147 -5.662,4.809 -10.11,7.749 -22.03,13.252 -34.646,16.06 -4.176,0.893 -10.153,1.757 -13.238,1.965 l -1.525,0.026 0,-11.919 6.567,-0.052 c 4.383,0 6.541,-0.082 6.541,-0.207 0,-0.374 -17.581,-30.923 -17.789,-30.923 -0.208,0 -17.763,30.601 -17.763,30.923 0,0.083 2.116,0.165 6.541,0.207 l 6.593,0.052 0,11.919 -1.525,-0.026 c -3.043,-0.208 -8.995,-1.072 -13.212,-1.965 -12.62,-2.805 -24.519,-8.307 -34.698,-16.06 -2.192,-1.662 -5.553,-4.529 -5.637,-4.809 -0.125,-0.291 7.817,-8.351 8.222,-8.351 0.166,0 2.311,2.037 4.783,4.551 2.836,2.877 4.581,4.603 4.706,4.395 0.332,-0.249 9.433,-34.21 9.308,-34.34 -0.208,-0.083 -34.08,8.997 -34.36,9.205 -0.083,0.156 1.534,1.901 4.37,4.706 2.514,2.514 4.576,4.664 4.576,4.706 0,0.322 -8.242,8.492 -8.481,8.325 -0.332,-0.249 -2.983,-3.457 -4.447,-5.326 -7.832,-10.263 -13.479,-22.23 -16.315,-35.01 -0.935,-4.259 -1.737,-10.06 -1.862,-13.316 l -0.052,-1.422 11.842,0 0.052,6.541 c 0.073,3.698 0.15,6.567 0.233,6.567 0.031,0 29.543,-16.881 30.561,-17.452 0.073,-0.166 0.284,-0.346 0.284,-0.388 0,-0.125 -30.16,-17.446 -30.768,-17.685 -0.239,-0.083 -0.233,0.024 -0.233,6.309 0,4.789 -0.108,6.494 -0.233,6.619 -0.197,0.28 -11.297,0.291 -11.661,0.052 -0.208,-0.125 -0.188,-0.694 0.259,-5.119 1.703,-16.11 8.06,-31.865 18.12,-44.808 1.994,-2.638 4.157,-5.094 4.395,-5.094 0.208,0 8.274,8.06 8.274,8.3 0,0.083 -2.053,2.208 -4.525,4.68 -2.483,2.472 -4.499,4.581 -4.499,4.706 0,0.042 0.144,0.16 0.31,0.284 2.036,0.654 33.709,9.127 33.948,9.127 0.239,0 0.342,-0.077 0.259,-0.284 -6.45,-23.735 -9.23,-33.969 -9.437,-34.05 -0.166,-0.042 -1.958,1.637 -4.835,4.473 l -4.551,4.576 -16.548,-16.548 c -9.09,-9.09 -16.681,-16.548 -16.806,-16.548 -0.405,0 -7.01,6.72 -9.567,9.722 -19.84,23.257 -30.27,51.39 -30.23,81.57 0,29.624 10.653,58.41 29.682,80.69 23.09,26.903 55.57,42.568 90.99,43.825 l -0.103,-0.026 c 9.743,0.322 20.679,-0.699 30.38,-2.767 18.18,-3.937 35.07,-11.823 49.927,-23.27 26.332,-20.307 43.601,-50.772 47.5,-83.72 4.415,-37.903 -8.221,-75.16 -34.801,-102.26 -4.373,-4.539 -8.69,-8.08 -14.09,-11.609 -6.534,-4.259 -14.03,-7.995 -25.674,-12.617 -14.937,-5.962 -20.829,-9.09 -25.7,-13.755 -4.872,-4.622 -8.476,-11.11 -10.833,-19.469 -0.613,-2.233 -0.596,-2.193 0.827,-2.068 1.537,0.166 4.586,0.815 6.05,1.344 3.687,1.298 5.635,2.554 9.489,6.283 2.431,2.316 3.235,2.882 3.723,2.56 1.62,-1.06 -4.865,-14.41 -19.469,-39.973 -7.136,-12.537004 -22.602,-38.732004 -22.882,-38.732004 m 9.696,173.830004 c -3.21,0 -4.663,0.045 -6.128,0.284 -14.241,2.192 -26.25,11.279 -32.06,24.304 -1.579,3.532 -2.572,7.118 -3.258,11.376 -0.447,2.877 -0.411,8.943 0.077,11.945 1.423,8.84 5.222,16.52 11.351,22.805 3.604,3.729 7.06,6.206 11.609,8.481 4.955,2.389 9.285,3.602 15.694,4.214 l 0.052,0.052 c 0.364,0.042 1.974,0.042 3.594,0 6.378,-0.083 11.771,-1.379 17.452,-4.214 4.539,-2.233 7.953,-4.798 11.609,-8.455 3.324,-3.49 5.57,-6.683 7.679,-11.07 1.818,-3.781 2.986,-7.516 3.671,-11.816 0.488,-3 0.524,-9.07 0.078,-11.945 -0.644,-4.259 -1.705,-7.845 -3.284,-11.376 -5.806,-13.03 -17.794,-22.11 -32.03,-24.304 -1.465,-0.239 -2.934,-0.284 -6.102,-0.284"
     id="path3554" />
</svg>
