<?xml version="1.0" encoding="UTF-8" standalone="no"?>
<svg
   xmlns:dc="http://purl.org/dc/elements/1.1/"
   xmlns:cc="http://creativecommons.org/ns#"
   xmlns:rdf="http://www.w3.org/1999/02/22-rdf-syntax-ns#"
   xmlns:svg="http://www.w3.org/2000/svg"
   xmlns="http://www.w3.org/2000/svg"
   xmlns:sodipodi="http://sodipodi.sourceforge.net/DTD/sodipodi-0.dtd"
   xmlns:inkscape="http://www.inkscape.org/namespaces/inkscape"
   height="512"
   viewBox="0 0 512 512"
   width="512"
   version="1.1"
   id="svg2"
   inkscape:version="0.91 r"
   sodipodi:docname="wikipedia.svg">
  <defs
     id="defs17" />
  <sodipodi:namedview
     pagecolor="#ffffff"
     bordercolor="#666666"
     borderopacity="1"
     objecttolerance="10"
     gridtolerance="10"
     guidetolerance="10"
     inkscape:pageopacity="0"
     inkscape:pageshadow="2"
     inkscape:window-width="1920"
     inkscape:window-height="1028"
     id="namedview15"
     showgrid="false"
     inkscape:zoom="1.3037281"
     inkscape:cx="53.590229"
     inkscape:cy="244.919"
     inkscape:window-x="0"
     inkscape:window-y="0"
     inkscape:window-maximized="1"
     inkscape:current-layer="svg2" />
  <metadata
     id="metadata28">
    <rdf:RDF>
      <cc:Work
         rdf:about="">
        <dc:format>image/svg+xml</dc:format>
        <dc:type
           rdf:resource="http://purl.org/dc/dcmitype/StillImage" />
        <dc:title />
      </cc:Work>
    </rdf:RDF>
  </metadata>
  <path
     inkscape:connector-curvature="0"
     style="fill:#009688"
     d="m 196.41204,367.39391 c -1.255,-3.565 -6.147,-15.373 -10.873,-26.24 -4.726,-10.866 -21.659,-50.31 -37.628,-87.67 -15.971,-37.36 -30.963,-71.39 -33.33,-75.66 -3.186,-5.752 -5.456,-8.292 -8.844,-9.881 -4.01,-1.882 -4.599,-2.737 -4.922,-7.108 l -0.366,-4.97 37.16,0.034 37.16,0.034 -0.365,4.249 c -0.306,3.556 -1.249,4.765 -5.79,7.413 -2.984,1.74 -5.989,4.058 -6.678,5.151 -0.948,1.503 0.761,7.07 7.01,22.842 10.751,27.14 54.25,128.89 55.1,128.89 0.819,0 25.939,-50.2 25.939,-51.841 0,-1.708 -28.408,-70.06 -35.2,-84.7 -3.124,-6.731 -6.875,-13.51 -8.336,-15.06 -1.46,-1.555 -6.429,-3.973 -11.04,-5.374 -7.624,-2.316 -8.387,-2.846 -8.37,-5.823 0.01,-1.801 0.427,-3.831 0.926,-4.51 0.574,-0.781 16.432,-1.235 43.2,-1.235 l 42.29,0 0,4.498 c 0,4.942 -1.381,5.997 -7.852,5.997 -2.171,0 -5.236,0.904 -6.814,2.01 -2.289,1.603 -2.719,2.755 -2.131,5.687 1.26,6.304 19.58,50.52 20.496,49.48 1.277,-1.459 17.781,-37.05 20.366,-43.921 2.081,-5.53 2.089,-6.02 0.125,-8.193 -1.148,-1.269 -4.7,-3.01 -7.892,-3.877 -3.192,-0.863 -6.498,-2.107 -7.347,-2.763 -1.894,-1.466 -2.041,-7.848 -0.207,-8.981 0.735,-0.455 14.904,-0.419 31.487,0.078 l 30.15,0.905 -0.019,3.245 c -0.027,4.751 -0.928,5.465 -10.846,8.601 -14.07,4.448 -15.459,6.193 -33.18,41.523 l -15.639,31.19 16.477,38.474 c 9.07,21.16 16.894,38.04 17.396,37.519 0.504,-0.523 5.354,-12.619 10.779,-26.88 5.425,-14.262 16.22,-42.05 23.99,-61.738 16.17,-40.993 19.775,-51.32 19.214,-55.1 -0.304,-2.044 -1.876,-3.114 -6.573,-4.472 -3.395,-0.982 -6.868,-2.355 -7.718,-3.053 -1.682,-1.381 -2.05,-6.956 -0.598,-9.09 0.599,-0.881 8.74,-1.3 24,-1.235 22.664,0.097 23.11,0.149 23.77,2.792 0.854,3.4 -1.226,9.04 -3.333,9.04 -0.878,0 -3.594,1.358 -6.04,3.02 -4.936,3.355 -3.921,1.188 -23.17,49.46 -6.77,16.978 -18.378,45.594 -25.794,63.59 -7.417,17.997 -18.428,45.64 -24.47,61.43 l -10.985,28.7 -8.06,0.009 -8.06,0.009 -3.291,-7.718 c -26.407,-61.917 -32.27,-75.01 -33.601,-75.01 -0.628,0 -18.12,33.473 -32.11,61.43 l -10.655,21.299 -16.628,0 -2.281,-6.483"
     id="path3602" />
</svg>
