<?xml version="1.0" encoding="UTF-8" standalone="no"?>
<svg
   xmlns:dc="http://purl.org/dc/elements/1.1/"
   xmlns:cc="http://creativecommons.org/ns#"
   xmlns:rdf="http://www.w3.org/1999/02/22-rdf-syntax-ns#"
   xmlns:svg="http://www.w3.org/2000/svg"
   xmlns="http://www.w3.org/2000/svg"
   xmlns:sodipodi="http://sodipodi.sourceforge.net/DTD/sodipodi-0.dtd"
   xmlns:inkscape="http://www.inkscape.org/namespaces/inkscape"
   height="512"
   viewBox="0 0 512 512"
   width="512"
   version="1.1"
   id="svg2"
   inkscape:version="0.91 r13725"
   sodipodi:docname="wire.svg">
  <defs
     id="defs17">
    <clipPath
       clipPathUnits="userSpaceOnUse"
       id="clipPath16">
      <path
         d="m 0,595.28 841.89,0 L 841.89,0 0,0 0,595.28 Z"
         id="path18"
         inkscape:connector-curvature="0" />
    </clipPath>
  </defs>
  <sodipodi:namedview
     pagecolor="#ffffff"
     bordercolor="#666666"
     borderopacity="1"
     objecttolerance="10"
     gridtolerance="10"
     guidetolerance="10"
     inkscape:pageopacity="0"
     inkscape:pageshadow="2"
     inkscape:window-width="1920"
     inkscape:window-height="1024"
     id="namedview15"
     showgrid="false"
     inkscape:zoom="0.4549501"
     inkscape:cx="-657.52862"
     inkscape:cy="166.26763"
     inkscape:window-x="0"
     inkscape:window-y="0"
     inkscape:window-maximized="1"
     inkscape:current-layer="svg2" />
  <metadata
     id="metadata28">
    <rdf:RDF>
      <cc:Work
         rdf:about="">
        <dc:format>image/svg+xml</dc:format>
        <dc:type
           rdf:resource="http://purl.org/dc/dcmitype/StillImage" />
        <dc:title></dc:title>
      </cc:Work>
    </rdf:RDF>
  </metadata>
  <g
     id="g14"
     clip-path="url(#clipPath16)"
     transform="matrix(1.3697339,0,0,-1.3697339,-322.70865,661.41738)"
     style="fill:#009688">
    <g
       id="g20"
       transform="translate(437.143,378.6299)"
       style="fill:#009688">
      <path
         d="M 0,0 C 0,8.933 -7.267,16.198 -16.198,16.198 -25.129,16.198 -32.396,8.933 -32.396,0 l 0,-109.336 c 0,-16.853 6.108,-32.29 16.198,-44.269 C -6.108,-141.626 0,-126.189 0,-109.336 L 0,0 Z m 121.485,-109.336 c 0,-46.89 -37.892,-85.04 -84.784,-85.04 -19.88,0 -37.891,6.909 -52.387,18.382 -14.497,-11.473 -32.934,-18.382 -52.814,-18.382 -46.892,0 -85.381,38.15 -85.381,85.04 l 0,133.633 16.198,0 0,-133.633 c 0,-37.96 31.052,-68.842 69.012,-68.842 15.29,0 29.554,5.072 40.992,13.537 -12.789,14.886 -20.915,34.187 -20.915,55.305 l 0,109.336 c 0,17.863 14.533,32.396 32.396,32.396 C 1.665,32.396 16.198,17.863 16.198,0 l 0,-109.336 c 0,-21.118 -7.614,-40.419 -20.403,-55.305 11.438,-8.465 25.701,-13.537 40.992,-13.537 37.96,0 68.5,30.882 68.5,68.842 l 0,133.633 16.198,0 0,-133.633 z"
         style="fill:#009688;fill-opacity:1;fill-rule:nonzero;stroke:none"
         id="path22"
         inkscape:connector-curvature="0" />
    </g>
  </g>
</svg>
