<?xml version="1.0" encoding="UTF-8" standalone="no"?>
<svg
   xmlns:dc="http://purl.org/dc/elements/1.1/"
   xmlns:cc="http://creativecommons.org/ns#"
   xmlns:rdf="http://www.w3.org/1999/02/22-rdf-syntax-ns#"
   xmlns:svg="http://www.w3.org/2000/svg"
   xmlns="http://www.w3.org/2000/svg"
   xmlns:sodipodi="http://sodipodi.sourceforge.net/DTD/sodipodi-0.dtd"
   xmlns:inkscape="http://www.inkscape.org/namespaces/inkscape"
   viewBox="0 0 512 512"
   id="svg2"
   version="1.1"
   inkscape:version="0.91 r"
   sodipodi:docname="xampp.svg">
  <metadata
     id="metadata74">
    <rdf:RDF>
      <cc:Work
         rdf:about="">
        <dc:format>image/svg+xml</dc:format>
        <dc:type
           rdf:resource="http://purl.org/dc/dcmitype/StillImage" />
      </cc:Work>
    </rdf:RDF>
  </metadata>
  <defs
     id="defs72" />
  <sodipodi:namedview
     pagecolor="#ffffff"
     bordercolor="#666666"
     borderopacity="1"
     objecttolerance="10"
     gridtolerance="10"
     guidetolerance="10"
     inkscape:pageopacity="0"
     inkscape:pageshadow="2"
     inkscape:window-width="647"
     inkscape:window-height="480"
     id="namedview70"
     showgrid="false"
     inkscape:zoom="0.4609375"
     inkscape:cx="256"
     inkscape:cy="256"
     inkscape:window-x="0"
     inkscape:window-y="0"
     inkscape:window-maximized="0"
     inkscape:current-layer="svg2" />
  <text
     font-size="129.23"
     y="231.36"
     x="729.64"
     font-family="'Gentium Book Basic'"
     line-height="125%"
     word-spacing="0"
     letter-spacing="0"
     id="text18">
    <tspan
       y="231.36"
       x="729.64"
       id="tspan20" />
  </text>
  <text
     transform="scale(4.0128.2492)"
     font-size="46.954"
     y="579.26"
     x="378.91"
     font-family="Arial"
     text-anchor="middle"
     id="text22" />
  <text
     font-size="129.23"
     y="151.36"
     x="1310.91"
     font-family="'Gentium Book Basic'"
     line-height="125%"
     word-spacing="0"
     letter-spacing="0"
     id="text24">
    <tspan
       y="151.36"
       x="1310.91"
       id="tspan26" />
  </text>
  <text
     transform="scale(4.0128.2492)"
     font-size="46.954"
     y="258.22"
     x="523.76"
     font-family="Arial"
     text-anchor="middle"
     id="text28" />
  <text
     font-size="129.23"
     y="-29.9"
     x="239.33"
     font-family="'Gentium Book Basic'"
     line-height="125%"
     word-spacing="0"
     letter-spacing="0"
     id="text30">
    <tspan
       y="-29.9"
       x="239.33"
       id="tspan32" />
  </text>
  <text
     transform="scale(4.0128.2492)"
     font-size="46.954"
     y="-469.13"
     x="256.72"
     font-family="Arial"
     text-anchor="middle"
     id="text34" />
  <text
     font-size="129.23"
     y="-246.37"
     x="1337.38"
     font-family="'Gentium Book Basic'"
     line-height="125%"
     word-spacing="0"
     letter-spacing="0"
     id="text36">
    <tspan
       y="-246.37"
       x="1337.38"
       id="tspan38" />
  </text>
  <text
     transform="scale(4.0128.2492)"
     font-size="46.954"
     y="-1337.8"
     x="530.36"
     font-family="Arial"
     text-anchor="middle"
     id="text40" />
  <text
     font-size="129.23"
     y="-326.37"
     x="1918.65"
     font-family="'Gentium Book Basic'"
     line-height="125%"
     word-spacing="0"
     letter-spacing="0"
     id="text42">
    <tspan
       y="-326.37"
       x="1918.65"
       id="tspan44" />
  </text>
  <text
     transform="scale(4.0128.2492)"
     font-size="46.954"
     y="-1658.83"
     x="675.21"
     font-family="Arial"
     text-anchor="middle"
     id="text46" />
  <text
     font-size="129.23"
     y="-798.77"
     x="1529.53"
     font-family="'Gentium Book Basic'"
     line-height="125%"
     word-spacing="0"
     letter-spacing="0"
     id="text48">
    <tspan
       y="-798.77"
       x="1529.53"
       id="tspan50" />
  </text>
  <text
     transform="scale(4.0128.2492)"
     font-size="46.954"
     y="-3554.48"
     x="578.24"
     font-family="Arial"
     text-anchor="middle"
     id="text52" />
  <text
     font-size="129.23"
     y="-878.78"
     x="2110.79"
     font-family="'Gentium Book Basic'"
     line-height="125%"
     word-spacing="0"
     letter-spacing="0"
     id="text54">
    <tspan
       y="-878.78"
       x="2110.79"
       id="tspan56" />
  </text>
  <text
     transform="scale(4.0128.2492)"
     font-size="46.954"
     y="-3875.52"
     x="723.09"
     font-family="Arial"
     text-anchor="middle"
     id="text58" />
  <text
     font-size="208.33"
     y="535.94"
     x="277.99"
     font-family="'Gentium Book Basic'"
     line-height="125%"
     word-spacing="0"
     letter-spacing="0"
     id="text60">
    <tspan
       y="535.94"
       x="277.99"
       id="tspan62" />
  </text>
  <path
     style="fill:#009688;fill-rule:evenodd"
     inkscape:connector-curvature="0"
     id="path68"
     d="m 327.5,129.25 c -32.745,0 -60.695,21.459 -71.53,51.56 -10.141,-28.423 -38.12,-48.853 -71.16,-48.853 -41.51,0 -75.24,32.34 -75.24,72.32 0,16.497 5.732,31.737 15.399,43.914 -10.529,13.854 -16.833,31.487 -16.833,50.658 0,44.637 34.12,80.82 76.2,80.82 32.32,0 59.893,-21.328 70.996,-51.4 10.01,31.698 37.631,54.48 70.15,54.48 40.929,0 74.13,-36.16 74.13,-80.77 0,-16.425 -4.493,-31.691 -12.213,-44.45 10.269,-13.492 16.461,-30.493 16.461,-49.01 0,-43.781 -34.24,-79.28 -76.36,-79.28 m -137.64,49.915 c 15.22,0 27.506,12.09 27.506,27.03 l 0,27.03 c 0,0 -19.542,0.053 -27.506,0.053 -15.22,0 -27.559,-12.136 -27.559,-27.08 0,-14.935 12.381,-27.03 27.559,-27.03 m 138.7,2.071 0.106,0.053 c 6.274,-0.084 12.312,2.35 16.727,6.85 4.415,4.489 6.881,10.634 6.797,16.992 0,18.796 -2.789,36.815 -12.532,50.552 2.08,1.1 3.997,2.531 5.682,4.248 4.415,4.447 6.881,10.581 6.797,16.939 l 0.053,27.612 c 0,12.992 -10.361,23.577 -23.15,23.577 -12.759,0 -23.1,-10.585 -23.1,-23.577 l 0,-26.763 c -11.6,2.963 -24.515,3.452 -38.976,3.452 -24.589,0 -43.579,0.492 -50.18,3.133 -3.306,1.278 -3.724,1.606 -5.04,4.04 -1.278,2.44 -3.133,8.334 -3.133,19.435 0,12.992 -10.35,23.524 -23.1,23.524 -12.791,0 -23.15,-10.532 -23.15,-23.524 0,-16.05 2.393,-29.951 8.868,-42 6.475,-12.08 17.52,-20.967 28.621,-25.382 22.2,-8.872 43.893,-6.319 67.12,-6.319 22.403,0 32.508,-3.694 34.409,-5.257 1.901,-1.606 4.514,-5.432 4.514,-23.789 -0.169,-12.96 9.967,-23.578 22.674,-23.789" />
</svg>
