<?xml version="1.0" encoding="UTF-8" standalone="no"?>
<svg
   xmlns:dc="http://purl.org/dc/elements/1.1/"
   xmlns:cc="http://creativecommons.org/ns#"
   xmlns:rdf="http://www.w3.org/1999/02/22-rdf-syntax-ns#"
   xmlns:svg="http://www.w3.org/2000/svg"
   xmlns="http://www.w3.org/2000/svg"
   xmlns:sodipodi="http://sodipodi.sourceforge.net/DTD/sodipodi-0.dtd"
   xmlns:inkscape="http://www.inkscape.org/namespaces/inkscape"
   viewBox="0 0 512 512"
   id="svg2"
   version="1.1"
   inkscape:version="0.91 r"
   sodipodi:docname="xbmc.svg">
  <metadata
     id="metadata24">
    <rdf:RDF>
      <cc:Work
         rdf:about="">
        <dc:format>image/svg+xml</dc:format>
        <dc:type
           rdf:resource="http://purl.org/dc/dcmitype/StillImage" />
      </cc:Work>
    </rdf:RDF>
  </metadata>
  <defs
     id="defs22" />
  <sodipodi:namedview
     pagecolor="#ffffff"
     bordercolor="#666666"
     borderopacity="1"
     objecttolerance="10"
     gridtolerance="10"
     guidetolerance="10"
     inkscape:pageopacity="0"
     inkscape:pageshadow="2"
     inkscape:window-width="647"
     inkscape:window-height="480"
     id="namedview20"
     showgrid="false"
     inkscape:zoom="0.4609375"
     inkscape:cx="-56.40678"
     inkscape:cy="256"
     inkscape:window-x="0"
     inkscape:window-y="0"
     inkscape:window-maximized="0"
     inkscape:current-layer="svg2" />
  <path
     d="m129.94 154.09l-0.471 1.1c-0.441 0.124-0.721 0.208-0.785 0.393-0.717 1.87-0.424 11.952 0.471 15.316 2.623 9.855 10.06 17.835 19.95 21.678 1.931 0.751 3.642 1.128 7.697 1.414 0.186 0.015 0.273 0.064 0.471 0.078 1.086 0.071 1.951 0.096 3.456 0.157 2.444 0.108 5.688 0.206 9.896 0.314 1.083 0.028 1.755 0.048 2.985 0.078 16.807 0.492 21.529 1.271 28.825 4.32 12.752 5.344 23.508 18.221 27.18 32.595 2.427 9.511 1.482 23.348-2.278 34.402-2.443 7.183-6.134 14.1-10.839 20.343-0.023 0.029-0.057 0.049-0.078 0.078-0.309 0.393-0.625 0.789-0.943 1.178-0.659 0.839-1.349 1.62-2.042 2.435-0.062 0.07-0.095 0.166-0.157 0.236-0.326 0.38-0.688 0.725-1.021 1.1-0.437 0.479-0.887 0.943-1.335 1.414-3.969 4.174-8.352 8.01-12.96 11.31-0.752 0.528-1.51 1.07-2.278 1.571-1.093 0.728-2.19 1.46-3.299 2.121-0.231 0.135-0.474 0.26-0.707 0.393-1.361 0.777-2.764 1.511-4.163 2.199-1.399 0.689-2.81 1.29-4.241 1.885-0.233 0.096-0.473 0.221-0.707 0.314-1.196 0.482-2.398 0.921-3.613 1.335-0.135 0.044-0.257 0.114-0.393 0.157-0.49 0.164-1 0.241-1.492 0.393-3.711 1.06-7.683 1.8-12.41 2.278-0.439 0.045-0.962 0.038-1.414 0.078-3.233 0.182-7.267 0.384-13.824 0.55-1.793 0.047-2.795 0.112-4.32 0.157-0.305 0.01-0.569-0.01-0.864 0-7.79 0.018-11.375 0.252-14.452 0.864-0.05 0.01-0.107-0.01-0.157 0-3.892 0.551-6.263 1.46-9.896 3.063-0.978 0.433-1.986 0.945-2.985 1.492-0.131 0.072-0.261 0.162-0.393 0.236-0.032 0.018-0.047 0.061-0.078 0.078-0.838 0.473-1.673 0.949-2.513 1.492-0.269 0.174-0.519 0.368-0.785 0.55-0.096 0.065-0.218 0.092-0.314 0.157-0.686 0.458-1.327 0.916-1.885 1.257v0.078c-4.942 3.665-9.611 8.304-12.881 12.96-3.359 4.78-6.963 12.349-7.226 15.63l-0.157 2.121 15.866 0.157-0.078 0.314c1.283-0.073 4.24-0.154 6.755-0.236l8.64 0.078c25.969 0.221 36.419-0.083 45.24-1.335 1.914-0.206 3.625-0.528 5.577-0.943 0.278-0.059 0.488-0.092 0.785-0.157 0.025-0.005 0.054 0.005 0.078 0 8.655-1.759 17.226-4.618 25.605-8.561 0.084-0.039 0.152-0.117 0.236-0.157 1.325-0.623 2.618-1.29 3.927-1.964 0.052-0.027 0.106-0.052 0.157-0.078 1.329-0.687 2.692-1.38 4.01-2.121 0.031-0.018 0.048-0.061 0.078-0.078 1.344-0.759 2.676-1.54 4.01-2.356 9.514-5.819 18.687-13.01 27.333-21.521 2.639-2.599 3.906-3.794 4.87-4.713 0.3-0.286 1.472-1.492 1.492-1.492 0.082 0 1.621 2.199 3.299 5.03 10.131 17.07 25.516 29.603 44.06 35.737 12.585 4.162 14.641 4.278 54.12 4.555l35.501 0.314 0.471-1.1c0.441-0.124 0.721-0.208 0.785-0.393 0.717-1.87 0.424-11.952-0.471-15.316-2.623-9.855-10.06-17.835-19.95-21.678-1.927-0.75-3.66-1.128-7.697-1.414-0.14-0.01-0.325-0.069-0.471-0.078-0.904-0.064-2.335-0.105-3.534-0.157-2.432-0.107-5.655-0.207-9.818-0.314-1.083-0.028-1.755-0.048-2.985-0.078-16.825-0.492-21.526-1.269-28.825-4.32-12.752-5.344-23.508-18.221-27.18-32.595-2.427-9.511-1.482-23.348 2.278-34.402 2.455-7.217 6.181-14.15 10.917-20.421 0.947-1.254 1.962-2.412 2.985-3.613 0.061-0.071 0.096-0.165 0.157-0.236 0.782-0.887 1.536-1.731 2.356-2.592 0.755-0.808 1.569-1.578 2.356-2.356 0.826-0.807 1.658-1.66 2.513-2.435 2.566-2.326 5.325-4.462 8.09-6.441 0.747-0.535 1.442-1.066 2.199-1.571 0.174-0.114 0.375-0.202 0.55-0.314 1.168-0.766 2.349-1.511 3.534-2.199 1.361-0.777 2.685-1.511 4.084-2.199 0.317-0.156 0.623-0.32 0.943-0.471 1.114-0.528 2.197-0.959 3.299-1.414 0.235-0.098 0.471-0.219 0.707-0.314 1.21-0.482 2.454-0.935 3.692-1.335 0.134-0.046 0.259-0.112 0.393-0.157 0.482-0.152 1-0.252 1.492-0.393 3.711-1.06 7.683-1.8 12.41-2.278 0.42-0.042 0.903-0.04 1.335-0.078 3.24-0.184 7.293-0.383 13.902-0.55 1.805-0.047 2.786-0.111 4.32-0.157 0.278-0.008 0.515 0.008 0.785 0 7.83-0.015 11.37-0.253 14.452-0.864 0.116-0.015 0.201-0.062 0.314-0.078 3.788-0.553 6.24-1.406 9.818-2.985 0.978-0.433 1.986-0.944 2.985-1.492 0.131-0.072 0.261-0.162 0.393-0.236 0.885-0.484 1.739-1.019 2.592-1.571 0.266-0.172 0.52-0.372 0.785-0.55 0.108-0.073 0.208-0.087 0.314-0.157 0.686-0.458 1.327-0.916 1.885-1.257v-0.078c4.942-3.665 9.611-8.304 12.881-12.96 3.358-4.78 6.963-12.349 7.226-15.63l0.157-2.121-15.866-0.157 0.078-0.314c-1.274 0.072-4.266 0.155-6.755 0.236l-8.64-0.078c-25.937-0.22-36.426 0.087-45.24 1.335-0.844 0.09-1.67 0.268-2.435 0.393-0.918 0.15-1.895 0.337-2.906 0.55-0.37 0.07-0.724 0.083-1.1 0.157-8.655 1.759-17.226 4.618-25.605 8.561-0.085 0.04-0.151 0.117-0.236 0.157-1.312 0.621-2.625 1.291-3.927 1.964-0.207 0.107-0.422 0.206-0.628 0.314-1.177 0.616-2.367 1.227-3.534 1.885-1.375 0.775-2.724 1.6-4.084 2.435-1.359 0.831-2.74 1.625-4.084 2.513-8.07 5.328-15.838 11.711-23.25 19.01-2.639 2.599-3.906 3.794-4.87 4.713l-1.492 1.492c-0.082 0-1.621-2.199-3.299-5.03-10.131-17.07-25.516-29.603-44.06-35.737-12.585-4.162-14.641-4.278-54.12-4.555l-35.501-0.314"
     fill="#009688"
     id="path18" />
</svg>
