<?xml version="1.0" encoding="UTF-8" standalone="no"?>
<svg
   xmlns:dc="http://purl.org/dc/elements/1.1/"
   xmlns:cc="http://creativecommons.org/ns#"
   xmlns:rdf="http://www.w3.org/1999/02/22-rdf-syntax-ns#"
   xmlns:svg="http://www.w3.org/2000/svg"
   xmlns="http://www.w3.org/2000/svg"
   xmlns:sodipodi="http://sodipodi.sourceforge.net/DTD/sodipodi-0.dtd"
   xmlns:inkscape="http://www.inkscape.org/namespaces/inkscape"
   sodipodi:docname="compton.svg"
   inkscape:version="0.91 r13725"
   id="svg2"
   version="1.1"
   width="512"
   viewBox="0 0 512 512"
   height="512">
  <defs
     id="defs17" />
  <sodipodi:namedview
     inkscape:current-layer="svg2"
     inkscape:window-maximized="1"
     inkscape:window-y="0"
     inkscape:window-x="1920"
     inkscape:cy="157.9655"
     inkscape:cx="192.6624"
     inkscape:zoom="1.0371629"
     showgrid="false"
     id="namedview15"
     inkscape:window-height="1022"
     inkscape:window-width="1680"
     inkscape:pageshadow="2"
     inkscape:pageopacity="0"
     guidetolerance="10"
     gridtolerance="10"
     objecttolerance="10"
     borderopacity="1"
     bordercolor="#666666"
     pagecolor="#ffffff" />
  <metadata
     id="metadata28">
    <rdf:RDF>
      <cc:Work
         rdf:about="">
        <dc:format>image/svg+xml</dc:format>
        <dc:type
           rdf:resource="http://purl.org/dc/dcmitype/StillImage" />
        <dc:title />
      </cc:Work>
    </rdf:RDF>
  </metadata>
  <g
     id="g4142"
     transform="matrix(1.6070078,0,0,1.6070078,-156.15082,-147.29028)">
    <rect
       ry="3.8920007"
       rx="2.648849"
       y="129.87361"
       x="128.7345"
       height="42.618874"
       width="257.0246"
       id="rect4146"
       style="opacity:1;fill:#009688;fill-opacity:1;stroke:none;stroke-width:13.5;stroke-linejoin:round;stroke-miterlimit:4;stroke-dasharray:none;stroke-opacity:1" />
    <path
       id="rect4148"
       d="m 132.03906,182.32812 c -1.46746,10e-6 -2.64844,1.73446 -2.64844,3.89063 l 0,149.57813 c 0,2.15616 1.18098,3.89257 2.64844,3.89257 l 250.41602,0 c 1.46746,0 2.64844,-1.73641 2.64844,-3.89257 l 0,-149.57813 c 0,-2.15617 -1.18098,-3.89063 -2.64844,-3.89063 l -250.41602,0 z m 122.80274,9.01954 c 7.85156,0 15.23437,1.05468 22.14843,3.16406 6.97266,2.05078 13.50586,5.15625 19.59961,9.3164 l 0,18.72071 c -5.97656,-5.56641 -12.36328,-9.72656 -19.16015,-12.48047 -6.73828,-2.75391 -13.91602,-4.13086 -21.53321,-4.13086 -15,0 -26.48437,4.59961 -34.45312,13.79883 -7.96875,9.14062 -11.95313,22.38281 -11.95313,39.72656 0,17.28516 3.98438,30.52734 11.95313,39.72656 7.96875,9.14063 19.45312,13.71094 34.45312,13.71094 7.61719,0 14.79493,-1.37695 21.53321,-4.13086 6.79687,-2.75391 13.18359,-6.91406 19.16015,-12.48047 l 0,18.54492 c -6.21093,4.21875 -12.80273,7.38282 -19.77539,9.49219 -6.91406,2.10938 -14.23828,3.16406 -21.97265,3.16406 -19.86328,0 -35.50782,-6.06445 -46.9336,-18.19335 -11.42578,-12.1875 -17.13867,-28.79883 -17.13867,-49.83399 0,-21.09375 5.71289,-37.70508 17.13867,-49.83398 11.42578,-12.1875 27.07032,-18.28125 46.9336,-18.28125 z"
       style="opacity:1;fill:#009688;fill-opacity:1;stroke:none;stroke-width:13.5;stroke-linejoin:round;stroke-miterlimit:4;stroke-dasharray:none;stroke-opacity:1"
       inkscape:connector-curvature="0" />
    <rect
       ry="3.8920007"
       rx="2.648849"
       y="346.90204"
       x="129.39017"
       height="8.5237751"
       width="256.36893"
       id="rect4150"
       style="opacity:1;fill:#009688;fill-opacity:1;stroke:none;stroke-width:13.5;stroke-linejoin:round;stroke-miterlimit:4;stroke-dasharray:none;stroke-opacity:1" />
  </g>
</svg>
