<?xml version="1.0" encoding="UTF-8" standalone="no"?>
<svg
   xmlns:dc="http://purl.org/dc/elements/1.1/"
   xmlns:cc="http://creativecommons.org/ns#"
   xmlns:rdf="http://www.w3.org/1999/02/22-rdf-syntax-ns#"
   xmlns:svg="http://www.w3.org/2000/svg"
   xmlns="http://www.w3.org/2000/svg"
   xmlns:sodipodi="http://sodipodi.sourceforge.net/DTD/sodipodi-0.dtd"
   xmlns:inkscape="http://www.inkscape.org/namespaces/inkscape"
   height="512"
   viewBox="0 0 512 512"
   width="512"
   version="1.1"
   id="svg2"
   inkscape:version="0.91 r13725"
   sodipodi:docname="xed.svg">
  <defs
     id="defs23" />
  <sodipodi:namedview
     pagecolor="#ffffff"
     bordercolor="#666666"
     borderopacity="1"
     objecttolerance="10"
     gridtolerance="10"
     guidetolerance="10"
     inkscape:pageopacity="0"
     inkscape:pageshadow="2"
     inkscape:window-width="1920"
     inkscape:window-height="1019"
     id="namedview21"
     showgrid="false"
     inkscape:zoom="0.3808136"
     inkscape:cx="-786.77094"
     inkscape:cy="1048.6668"
     inkscape:window-x="0"
     inkscape:window-y="13"
     inkscape:window-maximized="1"
     inkscape:current-layer="svg2" />
  <metadata
     id="metadata88">
    <rdf:RDF>
      <cc:Work
         rdf:about="">
        <dc:format>image/svg+xml</dc:format>
        <dc:type
           rdf:resource="http://purl.org/dc/dcmitype/StillImage" />
        <dc:title></dc:title>
      </cc:Work>
    </rdf:RDF>
  </metadata>
  <g
     id="g74"
     transform="matrix(0.63447011,0.63447011,-0.63447011,0.63447011,607.69663,-388.73382)"
     style="fill:#009688;fill-rule:evenodd">
    <path
       id="path76"
       d="m 185.53,141.97 0,245.63 56.656,109.75 a 15.316,17.064 0 0 0 15.469,8.5 15.316,17.064 0 0 0 11.031,-8.4062 l 57.75,-111 0,-244.47 -140.91,0 m 71.344,211.97 a 4.2743,4.2743 0 0 1 3.4375,1.375 l 24.03,26.375 9.219,0 a 4.2743,4.2743 0 0 1 3.6875,6.4062 l -29.16,50.44 a 4.2743,4.2743 0 0 1 -3.6875,2.1562 l -15.438,0 a 4.2743,4.2743 0 0 1 -3.75,-2.1875 l -29.28,-52.5 a 4.2743,4.2743 0 0 1 3.7188,-6.375 l 12.406,0 21.938,-24.281 a 4.2743,4.2743 0 0 1 2.875,-1.4062"
       transform="translate(0,540.36)"
       inkscape:connector-curvature="0" />
    <rect
       id="rect78"
       rx="62.130001"
       ry="28.25"
       height="56.5"
       width="140.92"
       y="546.35999"
       x="185.55" />
    <path
       id="path80"
       d="m 185.55,574.38 140.92,0 0,33.24 -140.92,0 z"
       inkscape:connector-curvature="0" />
    <path
       id="path82"
       d="m 185.55,625.89 140.92,0 0,34.899 -140.92,0 z"
       inkscape:connector-curvature="0" />
  </g>
  <rect
     style="opacity:1;fill:#009688;fill-opacity:1;fill-rule:evenodd;stroke:none;stroke-width:5;stroke-linecap:square;stroke-linejoin:round;stroke-miterlimit:4;stroke-dasharray:none;stroke-dashoffset:0;stroke-opacity:1"
     id="rect4218"
     width="189.38206"
     height="43.765305"
     x="120.3704"
     y="-54.56752"
     rx="0"
     ry="18.262348"
     transform="matrix(0.70710678,0.70710678,-0.70710678,0.70710678,0,0)" />
  <rect
     style="opacity:1;fill:#009688;fill-opacity:1;fill-rule:evenodd;stroke:none;stroke-width:5;stroke-linecap:square;stroke-linejoin:round;stroke-miterlimit:4;stroke-dasharray:none;stroke-dashoffset:0;stroke-opacity:1"
     id="rect4218-7"
     width="189.38206"
     height="43.765305"
     x="-127.37592"
     y="-236.94408"
     rx="0"
     ry="18.262348"
     transform="matrix(-0.70710678,0.70710678,-0.70710678,-0.70710678,0,0)" />
</svg>
