<?xml version="1.0" encoding="UTF-8" standalone="no"?>
<svg
   xmlns:dc="http://purl.org/dc/elements/1.1/"
   xmlns:cc="http://creativecommons.org/ns#"
   xmlns:rdf="http://www.w3.org/1999/02/22-rdf-syntax-ns#"
   xmlns:svg="http://www.w3.org/2000/svg"
   xmlns="http://www.w3.org/2000/svg"
   xmlns:sodipodi="http://sodipodi.sourceforge.net/DTD/sodipodi-0.dtd"
   xmlns:inkscape="http://www.inkscape.org/namespaces/inkscape"
   height="512"
   viewBox="0 0 512 512"
   width="512"
   version="1.1"
   id="svg2"
   inkscape:version="0.91 r"
   sodipodi:docname="xfce4-xicon.svg">
  <defs
     id="defs15" />
  <sodipodi:namedview
     pagecolor="#ffffff"
     bordercolor="#666666"
     borderopacity="1"
     objecttolerance="10"
     gridtolerance="10"
     guidetolerance="10"
     inkscape:pageopacity="0"
     inkscape:pageshadow="2"
     inkscape:window-width="1920"
     inkscape:window-height="1028"
     id="namedview13"
     showgrid="false"
     inkscape:zoom="0.4609375"
     inkscape:cx="-59.661017"
     inkscape:cy="256"
     inkscape:window-x="0"
     inkscape:window-y="0"
     inkscape:window-maximized="1"
     inkscape:current-layer="svg2" />
  <metadata
     id="metadata72">
    <rdf:RDF>
      <cc:Work
         rdf:about="">
        <dc:format>image/svg+xml</dc:format>
        <dc:type
           rdf:resource="http://purl.org/dc/dcmitype/StillImage" />
      </cc:Work>
    </rdf:RDF>
  </metadata>
  <path
     style="fill:#009688;fill-rule:evenodd;stroke:none;stroke-width:2.82399988"
     inkscape:connector-curvature="0"
     d="m 313.84,162.69 c -1.37,0.046 -2.869,0.373 -4.531,1.031 -13.1,4.876 -2.41,33.93 -1.563,37.688 0.782,3.459 -5.849,3.081 -7.094,1.563 -2.779,-3.394 -11.958,-33.691 -22.781,-28.28 -15.18,8.369 -0.91,34.496 -3.938,35.34 -5.624,3.143 -5.273,10.839 -9.781,17.09 -7.434,10.654 -63.08,-5.04 -81.06,-6.125 -13.164,-0.777 -25.749,10.06 -26.938,8.688 -16.03,-16.05 -49.17,-43.997 -85.5,-53.28 -6.097,-1.655 -13.11,-4.247 -19.938,-7.06 -0.558,1.347 -1.094,2.702 -1.625,4.063 6.141,2.902 13.1,5.993 20.938,9.219 34.777,14.317 82.8,50.612 79.03,56.47 -11.296,15.91 -17.911,34.939 -13.313,67.53 0.829,5.737 -17.02,15.687 -15.719,24.344 1.085,6.587 19.939,-6.527 22,-3.938 1.261,4.648 -10.08,28.19 -5.5,29.875 3.353,0.996 32.85,-27.984 34.563,-27.5 48.612,14.696 111.84,3.622 113.06,3.156 -0.115,-0.255 45.534,21.438 49.5,18.844 10,-10.832 -18.985,-26.09 -14.156,-32.19 2.117,-3.193 35.27,11.957 36.906,7.813 2.377,-7.174 -15.389,-22.19 -18.06,-26.656 -2.325,-4.115 -2.807,-10.811 3.156,-14.969 5.965,-4.158 66.964,-27.446 64.41,-45.5 -4.422,-32.804 -77.39,-34.989 -78.56,-37.75 -0.51,-1.196 2.67,-40.01 -13.5,-39.469 z m 75.969,21.75 c -1.214,0.524 -6.118,25.755 -3.75,26.906 2.099,1.57 5.729,-25.479 3.813,-26.875 -0.031,-0.036 -0.023,-0.048 -0.063,-0.031 z m 18,3.438 c -2.753,-0.05 -17.444,23.402 -14.06,25.906 2.099,1.57 15.181,-24.956 14.281,-25.844 -0.063,-0.052 -0.13,-0.061 -0.219,-0.063 z"
     id="path10" />
</svg>
