<?xml version="1.0" encoding="UTF-8" standalone="no"?>
<svg
   xmlns:dc="http://purl.org/dc/elements/1.1/"
   xmlns:cc="http://creativecommons.org/ns#"
   xmlns:rdf="http://www.w3.org/1999/02/22-rdf-syntax-ns#"
   xmlns:svg="http://www.w3.org/2000/svg"
   xmlns="http://www.w3.org/2000/svg"
   xmlns:sodipodi="http://sodipodi.sourceforge.net/DTD/sodipodi-0.dtd"
   xmlns:inkscape="http://www.inkscape.org/namespaces/inkscape"
   height="512"
   viewBox="0 0 512 512"
   width="512"
   version="1.1"
   id="svg2"
   inkscape:version="0.91 r13725"
   sodipodi:docname="preferences-system.svg">
  <sodipodi:namedview
     pagecolor="#ffffff"
     bordercolor="#666666"
     borderopacity="1"
     objecttolerance="10"
     gridtolerance="10"
     guidetolerance="10"
     inkscape:pageopacity="0"
     inkscape:pageshadow="2"
     inkscape:window-width="1920"
     inkscape:window-height="1021"
     id="namedview15"
     showgrid="false"
     inkscape:zoom="0.53281281"
     inkscape:cx="-193.12539"
     inkscape:cy="359.93792"
     inkscape:window-x="0"
     inkscape:window-y="0"
     inkscape:window-maximized="1"
     inkscape:current-layer="svg2" />
  <defs
     id="defs17" />
  <metadata
     id="metadata28">
    <rdf:RDF>
      <cc:Work
         rdf:about="">
        <dc:format>image/svg+xml</dc:format>
        <dc:type
           rdf:resource="http://purl.org/dc/dcmitype/StillImage" />
        <dc:title></dc:title>
      </cc:Work>
    </rdf:RDF>
  </metadata>
  <g
     id="g4241"
     transform="matrix(1.3502535,0,0,1.3502535,-88.628148,-88.6313)">
    <path
       inkscape:connector-curvature="0"
       style="fill:none;stroke:#009688;stroke-width:18.08492088;stroke-linecap:round;stroke-linejoin:round"
       d="m 131.33104,189.75047 243.41792,0 c 7.6958,0 13.92795,6.23928 13.92795,13.92807 l 0,98.74094 c 0,7.6952 -6.23215,13.92805 -13.92795,13.92805 l -243.41792,0 c -7.69581,0 -13.92795,-6.23286 -13.92795,-13.92805 l 0,-98.74095 c 0,-7.68879 6.23214,-13.92806 13.92795,-13.92806 z"
       id="path4" />
    <path
       style="fill:#009688"
       d="m 198.54106,207.83449 c -2.5042,0 -4.51841,2.01998 -4.51841,4.5235 l 0,81.38219 c 0,2.50335 2.01421,4.52333 4.51841,4.52333 l 108.9928,0 c 2.50928,0 4.52349,-2.01998 4.52349,-4.52333 l 0,-81.38219 c 0,-2.50352 -2.01421,-4.5235 -4.52349,-4.5235 z m 31.65089,63.30162 0,-36.17422 9.0402,0 0,36.17422 z m 18.0855,0 0,-36.17422 9.0419,0 0,36.17422 z m 18.0821,0 0,-36.17422 9.0453,0 0,36.17422 z"
       id="path6-3"
       inkscape:connector-curvature="0" />
  </g>
</svg>
