<?xml version="1.0" encoding="UTF-8" standalone="no"?>
<svg
   xmlns:dc="http://purl.org/dc/elements/1.1/"
   xmlns:cc="http://creativecommons.org/ns#"
   xmlns:rdf="http://www.w3.org/1999/02/22-rdf-syntax-ns#"
   xmlns:svg="http://www.w3.org/2000/svg"
   xmlns="http://www.w3.org/2000/svg"
   xmlns:sodipodi="http://sodipodi.sourceforge.net/DTD/sodipodi-0.dtd"
   xmlns:inkscape="http://www.inkscape.org/namespaces/inkscape"
   height="512"
   viewBox="0 0 512 512"
   width="512"
   version="1.1"
   id="svg2"
   inkscape:version="0.91 r13725"
   sodipodi:docname="xperia-flashtool.svg">
  <defs
     id="defs17" />
  <sodipodi:namedview
     pagecolor="#ffffff"
     bordercolor="#666666"
     borderopacity="1"
     objecttolerance="10"
     gridtolerance="10"
     guidetolerance="10"
     inkscape:pageopacity="0"
     inkscape:pageshadow="2"
     inkscape:window-width="1920"
     inkscape:window-height="1019"
     id="namedview15"
     showgrid="false"
     inkscape:zoom="0.9905828"
     inkscape:cx="256.34516"
     inkscape:cy="404.87313"
     inkscape:window-x="0"
     inkscape:window-y="13"
     inkscape:window-maximized="1"
     inkscape:current-layer="svg2"
     showguides="false" />
  <metadata
     id="metadata28">
    <rdf:RDF>
      <cc:Work
         rdf:about="">
        <dc:format>image/svg+xml</dc:format>
        <dc:type
           rdf:resource="http://purl.org/dc/dcmitype/StillImage" />
        <dc:title></dc:title>
      </cc:Work>
    </rdf:RDF>
  </metadata>
  <g
     id="g4397"
     transform="matrix(1.1260331,0,0,1.1260331,-74.459679,-29.777711)">
    <g
       transform="matrix(4.9347641,0,0,4.9347641,-958.60245,-1147.0856)"
       style="fill:#009688"
       id="g4179">
      <g
         style="fill:#009688"
         id="g87846"
         transform="matrix(3.5720664,0,0,-3.5720664,261.73151,306.61453)">
        <path
           inkscape:connector-curvature="0"
           d="m 0,0 -4.501,5.241 -4.507,-5.24 -2.267,0 11.098,12.899 2.26,0 L -3.392,6.532 2.219,0 0,0"
           style="fill:#009688;fill-opacity:1;fill-rule:nonzero;stroke:none"
           id="path87848" />
      </g>
      <g
         style="fill:#009688"
         id="g87850"
         transform="matrix(3.5720664,0,0,-3.5720664,230.05085,260.53844)">
        <path
           inkscape:connector-curvature="0"
           d="M 0,0 3.342,-3.882 2.231,-5.176 -2.223,0 0,0"
           style="fill:#009688;fill-opacity:1;fill-rule:nonzero;stroke:none"
           id="path87852" />
      </g>
    </g>
    <path
       d="m 363.63456,194.45832 c -3.55608,0 -6.44233,2.89808 -6.44233,6.45622 l 0,15.69955 -13.37494,0 0,3.55728 -17.08617,0.79827 0,8.57109 17.08617,0.79827 0,4.62144 13.37494,0 0,9.9716 -13.37494,0 0,3.55728 -17.08617,0.79827 0,8.57109 17.08617,0.79827 0,4.62144 13.37494,0 0,11.03599 -13.37494,0 0,3.57131 -17.08617,0.78428 0,8.58499 17.08617,0.78428 0,4.63579 13.37494,0 0,13.55689 c 0,3.56042 2.88625,6.44232 6.44233,6.44232 l 54.07519,0 c 3.55392,0 6.44233,-2.8819 6.44233,-6.44232 l 0,-13.55689 13.37494,0 0,-4.63579 17.10006,-0.78428 0,-8.58499 -17.10006,-0.78428 0,-3.57131 -13.37494,0 0,-11.03599 13.37494,0 0,-4.62144 17.10006,-0.79827 0,-8.57109 -17.10006,-0.79827 0,-3.55728 -13.37494,0 0,-9.9716 13.37494,0 0,-4.62144 17.10006,-0.79827 0,-8.57109 -17.10006,-0.79827 0,-3.55728 -13.37494,0 0,-15.69955 c 0,-3.55608 -2.88841,-6.45622 -6.44233,-6.45622 l -54.07519,0 z m 5.40572,8.43082 c 2.30996,0 4.18754,1.87537 4.18754,4.18753 0,2.30996 -1.87973,4.18753 -4.18754,4.18753 -2.30776,0 -4.18753,-1.87757 -4.18753,-4.18753 0,-2.31211 1.87757,-4.18753 4.18753,-4.18753 z"
       id="path3380"
       style="fill:#009688"
       inkscape:connector-curvature="0" />
  </g>
</svg>
