<?xml version="1.0" encoding="UTF-8" standalone="no"?>
<svg
   xmlns:dc="http://purl.org/dc/elements/1.1/"
   xmlns:cc="http://creativecommons.org/ns#"
   xmlns:rdf="http://www.w3.org/1999/02/22-rdf-syntax-ns#"
   xmlns:svg="http://www.w3.org/2000/svg"
   xmlns="http://www.w3.org/2000/svg"
   xmlns:sodipodi="http://sodipodi.sourceforge.net/DTD/sodipodi-0.dtd"
   xmlns:inkscape="http://www.inkscape.org/namespaces/inkscape"
   height="512"
   viewBox="0 0 512 512"
   width="512"
   version="1.1"
   id="svg2"
   inkscape:version="0.91 r13725"
   sodipodi:docname="yakuake.svg">
  <defs
     id="defs42" />
  <sodipodi:namedview
     pagecolor="#cecac9"
     bordercolor="#666666"
     borderopacity="1"
     objecttolerance="10"
     gridtolerance="10"
     guidetolerance="10"
     inkscape:pageopacity="0"
     inkscape:pageshadow="2"
     inkscape:window-width="1920"
     inkscape:window-height="1019"
     id="namedview40"
     showgrid="false"
     inkscape:zoom="1.5232544"
     inkscape:cx="256"
     inkscape:cy="256"
     inkscape:window-x="0"
     inkscape:window-y="13"
     inkscape:window-maximized="1"
     inkscape:current-layer="svg2" />
  <metadata
     id="metadata78">
    <rdf:RDF>
      <cc:Work
         rdf:about="">
        <dc:format>image/svg+xml</dc:format>
        <dc:type
           rdf:resource="http://purl.org/dc/dcmitype/StillImage" />
        <dc:title></dc:title>
      </cc:Work>
    </rdf:RDF>
  </metadata>
  <text
     id="text22"
     font-size="129.23"
     line-height="125%"
     y="312.76465"
     x="729.64001"
     word-spacing="0"
     letter-spacing="0"
     sodipodi:linespacing="125%"
     style="font-size:129.22999573px;line-height:125%;font-family:'Gentium Book Basic';letter-spacing:0;word-spacing:0">
    <tspan
       id="tspan24"
       y="312.76465"
       x="729.64001" />
  </text>
  <text
     id="text26"
     font-size="46.954"
     transform="scale(4.0128205,0.24920128)"
     y="905.9093"
     x="378.90805"
     style="font-size:46.95399857px;font-family:Arial;text-anchor:middle" />
  <text
     id="text28"
     font-size="129.23"
     line-height="125%"
     y="232.76466"
     x="1310.91"
     word-spacing="0"
     letter-spacing="0"
     sodipodi:linespacing="125%"
     style="font-size:129.22999573px;line-height:125%;font-family:'Gentium Book Basic';letter-spacing:0;word-spacing:0">
    <tspan
       id="tspan30"
       y="232.76466"
       x="1310.91" />
  </text>
  <text
     id="text32"
     font-size="46.954"
     transform="scale(4.0128205,0.24920128)"
     y="584.88098"
     x="523.75732"
     style="font-size:46.95399857px;font-family:Arial;text-anchor:middle" />
  <text
     id="text34"
     font-size="129.23"
     line-height="125%"
     y="51.503658"
     x="239.33"
     word-spacing="0"
     letter-spacing="0"
     sodipodi:linespacing="125%"
     style="font-size:129.22999573px;line-height:125%;font-family:'Gentium Book Basic';letter-spacing:0;word-spacing:0">
    <tspan
       id="tspan36"
       y="51.503658"
       x="239.33" />
  </text>
  <text
     id="text38"
     font-size="46.954"
     transform="scale(4.0128205,0.24920128)"
     y="-142.47534"
     x="256.71869"
     style="font-size:46.95399857px;font-family:Arial;text-anchor:middle" />
  <text
     id="text40"
     font-size="129.23"
     line-height="125%"
     y="-164.96533"
     x="1337.38"
     word-spacing="0"
     letter-spacing="0"
     sodipodi:linespacing="125%"
     style="font-size:129.22999573px;line-height:125%;font-family:'Gentium Book Basic';letter-spacing:0;word-spacing:0">
    <tspan
       id="tspan42"
       y="-164.96533"
       x="1337.38" />
  </text>
  <text
     id="text44"
     font-size="46.954"
     transform="scale(4.0128205,0.24920128)"
     y="-1011.1409"
     x="530.3573"
     style="font-size:46.95399857px;font-family:Arial;text-anchor:middle" />
  <text
     id="text46"
     font-size="129.23"
     line-height="125%"
     y="-244.97534"
     x="1918.65"
     word-spacing="0"
     letter-spacing="0"
     sodipodi:linespacing="125%"
     style="font-size:129.22999573px;line-height:125%;font-family:'Gentium Book Basic';letter-spacing:0;word-spacing:0">
    <tspan
       id="tspan48"
       y="-244.97534"
       x="1918.65" />
  </text>
  <text
     id="text50"
     font-size="46.954"
     transform="scale(4.0128205,0.24920128)"
     y="-1332.1792"
     x="675.20654"
     style="font-size:46.95399857px;font-family:Arial;text-anchor:middle" />
  <text
     id="text52"
     font-size="129.23"
     line-height="125%"
     y="-717.37537"
     x="1529.53"
     word-spacing="0"
     letter-spacing="0"
     sodipodi:linespacing="125%"
     style="font-size:129.22999573px;line-height:125%;font-family:'Gentium Book Basic';letter-spacing:0;word-spacing:0">
    <tspan
       id="tspan54"
       y="-717.37537"
       x="1529.53" />
  </text>
  <text
     id="text56"
     font-size="46.954"
     transform="scale(4.0128205,0.24920128)"
     y="-3227.8296"
     x="578.237"
     style="font-size:46.95399857px;font-family:Arial;text-anchor:middle" />
  <text
     id="text58"
     font-size="129.23"
     line-height="125%"
     y="-797.37537"
     x="2110.79"
     word-spacing="0"
     letter-spacing="0"
     sodipodi:linespacing="125%"
     style="font-size:129.22999573px;line-height:125%;font-family:'Gentium Book Basic';letter-spacing:0;word-spacing:0">
    <tspan
       id="tspan60"
       y="-797.37537"
       x="2110.79" />
  </text>
  <text
     id="text62"
     font-size="46.954"
     transform="scale(4.0128205,0.24920128)"
     y="-3548.8579"
     x="723.0863"
     style="font-size:46.95399857px;font-family:Arial;text-anchor:middle" />
  <text
     id="text64"
     font-size="208.33"
     line-height="125%"
     y="617.34467"
     x="277.98999"
     word-spacing="0"
     letter-spacing="0"
     sodipodi:linespacing="125%"
     style="font-size:208.33000183px;line-height:125%;font-family:'Gentium Book Basic';letter-spacing:0;word-spacing:0">
    <tspan
       id="tspan66"
       y="617.34467"
       x="277.98999" />
  </text>
  <g
     id="g4266"
     transform="translate(0,81.404656)">
    <path
       style="fill:#009688;fill-opacity:1"
       id="path8"
       d="m 253.0293,34.158203 0,0.002 c -58.902,0 -112.36875,19.242594 -151.71875,50.558594 l 0,208.08008 309.3789,0 0,-203.169924 c -39.818,-34.2 -95.74015,-55.470703 -157.66015,-55.470703 z m -64.87696,51.457031 9.08985,0 0,21.083986 c 5.63479,0.24236 11.08811,0.84893 16.35937,1.81836 5.27126,0.90884 10.42032,2.1805 15.44922,3.8164 l 0,15.90625 c -5.0289,-2.54474 -10.20917,-4.51465 -15.54101,-5.9082 -5.27126,-1.39355 -10.69338,-2.21077 -16.26758,-2.45312 l 0,38.80664 c 13.75374,2.12062 23.87242,5.90634 30.35547,11.35937 6.48304,5.45303 9.72461,12.90551 9.72461,22.35742 0,10.23958 -3.45416,18.32984 -10.36133,24.26758 -6.84658,5.87715 -16.75266,9.2689 -29.71875,10.17774 l 0,27.53906 -9.08985,0 -0.0898,-27.35742 c -6.36187,-0.12118 -12.72407,-0.84673 -19.08594,-2.17969 -6.36186,-1.39355 -12.75332,-3.45513 -19.17578,-6.18164 l 0,-16.35742 c 6.1801,3.87771 12.41943,6.81501 18.7207,8.81445 6.36187,1.93885 12.90546,2.93941 19.63086,3 l 0,-41.44336 c -13.39021,-2.18121 -23.14416,-5.87722 -29.26367,-11.08789 -6.05892,-5.21067 -9.08789,-12.36084 -9.08789,-21.44922 0,-9.87604 3.30203,-17.66204 9.90625,-23.35742 6.60422,-5.69538 16.08512,-8.96621 28.44531,-9.81445 l 0,-21.357426 z m 0,34.171876 c -7.02834,0.78766 -12.38999,2.78682 -16.08593,5.99805 -3.69594,3.21122 -5.54297,7.4826 -5.54297,12.81445 0,5.21067 1.69685,9.27141 5.08984,12.17969 3.45359,2.90828 8.96541,4.99716 16.53906,6.26953 l 0,-37.26172 z m 9.08985,54.71289 0,39.35156 c 7.69483,-1.03001 13.47971,-3.21056 17.35742,-6.54297 3.9383,-3.3324 5.9082,-7.7247 5.9082,-13.17773 0,-5.33185 -1.87823,-9.57397 -5.63476,-12.72461 -3.69594,-3.15064 -9.5725,-5.45211 -17.63086,-6.90625 z m 113.05859,83.42969 96.70117,0 0,12.99804 -96.70117,0 0,-12.99804 z"
       inkscape:connector-curvature="0" />
    <path
       style="fill:#009688;fill-opacity:1;fill-rule:evenodd"
       d="m 84.64,287.61 0,15.989 342.72,0 0,-15.99 -342.72,0"
       id="path68"
       inkscape:connector-curvature="0" />
  </g>
</svg>
