<?xml version="1.0" encoding="UTF-8" standalone="no"?>
<svg
   xmlns:dc="http://purl.org/dc/elements/1.1/"
   xmlns:cc="http://creativecommons.org/ns#"
   xmlns:rdf="http://www.w3.org/1999/02/22-rdf-syntax-ns#"
   xmlns:svg="http://www.w3.org/2000/svg"
   xmlns="http://www.w3.org/2000/svg"
   xmlns:sodipodi="http://sodipodi.sourceforge.net/DTD/sodipodi-0.dtd"
   xmlns:inkscape="http://www.inkscape.org/namespaces/inkscape"
   height="512"
   viewBox="0 0 512 512"
   width="512"
   version="1.1"
   id="svg2"
   inkscape:version="0.91 r"
   sodipodi:docname="MediaHuman.svg">
  <defs
     id="defs16" />
  <sodipodi:namedview
     pagecolor="#ffffff"
     bordercolor="#666666"
     borderopacity="1"
     objecttolerance="10"
     gridtolerance="10"
     guidetolerance="10"
     inkscape:pageopacity="0"
     inkscape:pageshadow="2"
     inkscape:window-width="640"
     inkscape:window-height="480"
     id="namedview14"
     showgrid="false"
     inkscape:zoom="0.4609375"
     inkscape:cx="256"
     inkscape:cy="256"
     inkscape:window-x="0"
     inkscape:window-y="0"
     inkscape:window-maximized="0"
     inkscape:current-layer="svg2" />
  <metadata
     id="metadata72">
    <rdf:RDF>
      <cc:Work
         rdf:about="">
        <dc:format>image/svg+xml</dc:format>
        <dc:type
           rdf:resource="http://purl.org/dc/dcmitype/StillImage" />
      </cc:Work>
    </rdf:RDF>
  </metadata>
  <path
     id="path66"
     fill="#009688"
     d="m257.55 166.52c-30.19 0-74.57 1.739-87.93 2.175-14.503 1.277-20.02 2-27.963 8.7-12.1 10.599-14.914 31.519-14.914 63.38v30.448c0 36.37 4.973 54.76 13.05 61.52 9.322 7.875 15.541 8.377 21.749 9.321 2.41 0.352 19.384 3.418 95.07 3.418 47.2 0 87.77-2.262 91.97-2.796 6.742-0.844 16.299-1.933 23.613-9.942 10.827-12.12 13.05-32.374 13.05-61.52v-35.11c0-18.864-1.135-45.695-13.05-56.858-9.03-7.523-12.393-9.639-31.07-10.564-5.282-0.239-51.38-2.175-83.58-2.175m34.487 19.885c16.762-0.594 32.32 11.318 46.605 11.496 0 0-11.478 17.399-28.895 17.399-16.231-3.128-23.378 0.466-23.924 0.932v69.6c-0.769 14.8-12.06 29.22-30.14 36.04-22.937 8.655-47.35 1.214-54.37-16.778-7.02-17.989 5.958-39.814 28.895-48.47 17.754-6.697 34.937-4.717 45.673 5.336v-69.961c5.806-3.861 10.569-5.394 16.16-5.593" />
</svg>
