<svg xmlns="http://www.w3.org/2000/svg" width="22" height="22" version="1.1">
 <defs>
   <style id="current-color-scheme" type="text/css">
   .ColorScheme-Text { color: #939597; } .ColorScheme-Highlight { color: #1AD6AB; }
  </style>
  <linearGradient id="arrongin" x1="0%" x2="0%" y1="0%" y2="100%">
   <stop offset="0%"    stop-color= "#dd9b44" stop-opacity="1"/>
   <stop offset="100%"  stop-color= "#ad6c16" stop-opacity="1"/>
  </linearGradient>
  <linearGradient id="aurora" x1="0%" x2="0%" y1="0%" y2="100%">
   <stop offset="0%"    stop-color= "#09D4DF" stop-opacity="1"/>
   <stop offset="100%"  stop-color= "#9269F4" stop-opacity="1"/>
  </linearGradient> 
  <linearGradient id="cyberblue" x1="0%" x2="0%" y1="0%" y2="100%">
   <stop offset="0%"    stop-color= "#07B3FF" stop-opacity="1"/>
   <stop offset="100%"  stop-color= "#007DE8" stop-opacity="1"/>
  </linearGradient>
  <linearGradient id="cyberneon" x1="0%" x2="0%" y1="0%" y2="100%">
    <stop offset="0%"   stop-color= "#0abdc6" stop-opacity="1"/>
    <stop offset="100%" stop-color= "#ea00d9" stop-opacity="1"/>
  </linearGradient>
  <linearGradient id="fitdance" x1="0%" x2="0%" y1="0%" y2="100%">
   <stop offset="0%"    stop-color= "#1AD6AB" stop-opacity="1"/>
   <stop offset="100%"  stop-color= "#329DB6" stop-opacity="1"/>
  </linearGradient>
  <linearGradient id="oomox" x1="0%" x2="0%" y1="0%" y2="100%">
   <stop offset="0%"    stop-color= "#66b7ff" stop-opacity="1"/>
   <stop offset="100%"  stop-color= "#006acc" stop-opacity="1"/>
  </linearGradient>
  <linearGradient id="rainblue" x1="0%" x2="0%" y1="0%" y2="100%">
   <stop offset="0%"    stop-color= "#00F260" stop-opacity="1"/>
   <stop offset="100%"  stop-color= "#0575E6" stop-opacity="1"/>
  </linearGradient>
  <linearGradient id="redcarbon" x1="0%" x2="0%" y1="0%" y2="100%">
   <stop offset="0%"    stop-color= "#FF6D57" stop-opacity="1"/>
   <stop offset="50%"   stop-color= "#FF5160" stop-opacity="1"/>
   <stop offset="100%"  stop-color= "#F50F22" stop-opacity="1"/>
  </linearGradient>
  <linearGradient id="sunrise" x1="0%" x2="0%" y1="0%" y2="100%">
   <stop offset="0%"    stop-color= "#FF8501" stop-opacity="1"/>
   <stop offset="100%"  stop-color= "#FFCB01" stop-opacity="1"/>
  </linearGradient>
  <linearGradient id="telinkrin" x1="0%" x2="0%" y1="0%" y2="100%">
   <stop offset="0%"    stop-color= "#b2ced6" stop-opacity="1"/>
   <stop offset="100%"  stop-color= "#6da5b7" stop-opacity="1"/>
  </linearGradient>
  <linearGradient id="60spsycho" x1="0%" x2="0%" y1="0%" y2="100%">
   <stop offset="0%"    stop-color= "#df5940" stop-opacity="1"/>
   <stop offset="25%"   stop-color= "#d8d15f" stop-opacity="1"/>
   <stop offset="50%"   stop-color= "#e9882a" stop-opacity="1"/>
   <stop offset="100%"  stop-color= "#279362" stop-opacity="1"/>
  </linearGradient>
  <linearGradient id="90ssummer" x1="0%" x2="0%" y1="0%" y2="100%">
   <stop offset="0%"    stop-color= "#f618c7" stop-opacity="1"/>
   <stop offset="20%"   stop-color= "#94ffab" stop-opacity="1"/>
   <stop offset="50%"   stop-color= "#fbfd54" stop-opacity="1"/>
   <stop offset="100%"  stop-color= "#0f83ae" stop-opacity="1"/>
  </linearGradient>
 </defs>
 <path fill="url(#oomox)" class="ColorScheme-Text" d="M 1.5039062 0.005859375 A 1.5 1.5 0 0 0 0.00390625 1.5058594 A 1.5 1.5 0 0 0 1.5039062 3.0058594 A 1.5 1.5 0 0 0 3.0039062 1.5058594 A 1.5 1.5 0 0 0 1.5039062 0.005859375 z M 14.503906 0.005859375 A 1.5 1.5 0 0 0 13.003906 1.5058594 A 1.5 1.5 0 0 0 14.503906 3.0058594 A 1.5 1.5 0 0 0 16.003906 1.5058594 A 1.5 1.5 0 0 0 14.503906 0.005859375 z M 12.785156 2.5683594 L 8.9394531 6.7558594 L 9.6894531 7.4433594 L 13.535156 3.2558594 C 13.393496 3.1204694 13.061756 2.8330494 12.785156 2.5683594 z M 3.2226562 2.6308594 L 2.4726562 3.3183594 L 6.28125 7.4199219 L 7.0351562 6.7246094 L 3.2226562 2.6308594 z M 8.0019531 7.0058594 A 1.5 1.5 0 0 0 6.5019531 8.5058594 A 1.5 1.5 0 0 0 8.0019531 10.005859 A 1.5 1.5 0 0 0 9.5019531 8.5058594 A 1.5 1.5 0 0 0 8.0019531 7.0058594 z M 7.5019531 10.443359 L 7.5019531 12.568359 L 8.5019531 12.568359 L 8.5019531 10.443359 C 8.1048131 10.447359 7.7971631 10.444059 7.5019531 10.443359 z M 8.0019531 13.005859 A 1.5 1.5 0 0 0 6.5019531 14.505859 A 1.5 1.5 0 0 0 8.0019531 16.005859 A 1.5 1.5 0 0 0 9.5019531 14.505859 A 1.5 1.5 0 0 0 8.0019531 13.005859 z" transform="translate(3 3)"/>
</svg>
