<svg xmlns="http://www.w3.org/2000/svg" width="22" height="22" version="1.1">
 <defs>
   <style id="current-color-scheme" type="text/css">
   .ColorScheme-Text { color: #939597; } .ColorScheme-Highlight { color: #1AD6AB; }
  </style>
  <linearGradient id="arrongin" x1="0%" x2="0%" y1="0%" y2="100%">
   <stop offset="0%"    stop-color= "#dd9b44" stop-opacity="1"/>
   <stop offset="100%"  stop-color= "#ad6c16" stop-opacity="1"/>
  </linearGradient>
  <linearGradient id="aurora" x1="0%" x2="0%" y1="0%" y2="100%">
   <stop offset="0%"    stop-color= "#09D4DF" stop-opacity="1"/>
   <stop offset="100%"  stop-color= "#9269F4" stop-opacity="1"/>
  </linearGradient> 
  <linearGradient id="cyberblue" x1="0%" x2="0%" y1="0%" y2="100%">
   <stop offset="0%"    stop-color= "#07B3FF" stop-opacity="1"/>
   <stop offset="100%"  stop-color= "#007DE8" stop-opacity="1"/>
  </linearGradient>
  <linearGradient id="cyberneon" x1="0%" x2="0%" y1="0%" y2="100%">
    <stop offset="0%"   stop-color= "#0abdc6" stop-opacity="1"/>
    <stop offset="100%" stop-color= "#ea00d9" stop-opacity="1"/>
  </linearGradient>
  <linearGradient id="fitdance" x1="0%" x2="0%" y1="0%" y2="100%">
   <stop offset="0%"    stop-color= "#1AD6AB" stop-opacity="1"/>
   <stop offset="100%"  stop-color= "#329DB6" stop-opacity="1"/>
  </linearGradient>
  <linearGradient id="oomox" x1="0%" x2="0%" y1="0%" y2="100%">
   <stop offset="0%"    stop-color= "#66b7ff" stop-opacity="1"/>
   <stop offset="100%"  stop-color= "#006acc" stop-opacity="1"/>
  </linearGradient>
  <linearGradient id="rainblue" x1="0%" x2="0%" y1="0%" y2="100%">
   <stop offset="0%"    stop-color= "#00F260" stop-opacity="1"/>
   <stop offset="100%"  stop-color= "#0575E6" stop-opacity="1"/>
  </linearGradient>
  <linearGradient id="redcarbon" x1="0%" x2="0%" y1="0%" y2="100%">
   <stop offset="0%"    stop-color= "#FF6D57" stop-opacity="1"/>
   <stop offset="50%"   stop-color= "#FF5160" stop-opacity="1"/>
   <stop offset="100%"  stop-color= "#F50F22" stop-opacity="1"/>
  </linearGradient>
  <linearGradient id="sunrise" x1="0%" x2="0%" y1="0%" y2="100%">
   <stop offset="0%"    stop-color= "#FF8501" stop-opacity="1"/>
   <stop offset="100%"  stop-color= "#FFCB01" stop-opacity="1"/>
  </linearGradient>
  <linearGradient id="telinkrin" x1="0%" x2="0%" y1="0%" y2="100%">
   <stop offset="0%"    stop-color= "#b2ced6" stop-opacity="1"/>
   <stop offset="100%"  stop-color= "#6da5b7" stop-opacity="1"/>
  </linearGradient>
  <linearGradient id="60spsycho" x1="0%" x2="0%" y1="0%" y2="100%">
   <stop offset="0%"    stop-color= "#df5940" stop-opacity="1"/>
   <stop offset="25%"   stop-color= "#d8d15f" stop-opacity="1"/>
   <stop offset="50%"   stop-color= "#e9882a" stop-opacity="1"/>
   <stop offset="100%"  stop-color= "#279362" stop-opacity="1"/>
  </linearGradient>
  <linearGradient id="90ssummer" x1="0%" x2="0%" y1="0%" y2="100%">
   <stop offset="0%"    stop-color= "#f618c7" stop-opacity="1"/>
   <stop offset="20%"   stop-color= "#94ffab" stop-opacity="1"/>
   <stop offset="50%"   stop-color= "#fbfd54" stop-opacity="1"/>
   <stop offset="100%"  stop-color= "#0f83ae" stop-opacity="1"/>
  </linearGradient>
 </defs>
 <path fill="url(#oomox)" class="ColorScheme-Text" d="m 11,3 a 7,7 0 0 0 -7,7 7,7 0 0 0 1.523438,4.359375 c 0.380832,-0.211718 0.809472,-0.34375 1.277343,-0.34375 h 0.117188 l 0.113281,0.02734 c 0,0 2.867585,0.636717 3.96875,0.636719 1.101164,-3e-6 3.96875,-0.636719 3.96875,-0.636719 l 0.03711,-0.0098 0.03711,-0.0059 c 0.530912,-0.08394 1.028506,0.05349 1.457031,0.291015 A 7,7 0 0 0 18,10 7,7 0 0 0 11,3 Z m 0.394531,2.0507812 0.40625,0.2714844 0.453125,-0.1816406 -0.130859,0.4707031 0.310547,0.375 -0.486328,0.019531 L 11.685547,6.4199219 11.517578,5.9609375 11.042969,5.8398438 11.427734,5.5390625 Z M 8.033203,7.4628906 8.675781,7.8925781 9.392578,7.6054688 9.183594,8.3496094 9.677734,8.9433594 8.90625,8.9746094 8.492188,9.6269531 8.224609,8.9023438 7.476563,8.7128906 8.083984,8.234375 Z m 3.460938,1.9140625 1.142578,0.7636719 1.277343,-0.5097656 -0.373046,1.3242186 0.878906,1.058594 -1.373047,0.05273 L 12.3125,13.230469 11.835938,11.939453 10.503906,11.601562 11.583984,10.75 Z m 4.066406,5.6347659 c -0.116702,-0.01578 -0.237931,-0.0156 -0.361328,0.0039 0,0 -2.785006,0.664063 -4.199219,0.664063 -1.414214,0 -4.199219,-0.664063 -4.199219,-0.664063 C 5.803581,15.015625 5,15.90412 5,17.007812 5,18.111507 5.803581,19 6.800781,19 h 8.398438 C 16.196419,19 17,18.111507 17,17.007812 17,16.042081 16.377458,15.122189 15.560547,15.011719 Z"/>
</svg>
