<svg xmlns="http://www.w3.org/2000/svg" width="16" height="16" version="1.1">
 <defs>
   <style id="current-color-scheme" type="text/css">
   .ColorScheme-Text { color: #939597; } .ColorScheme-Highlight { color: #1AD6AB; }
  </style>
  <linearGradient id="arrongin" x1="0%" x2="0%" y1="0%" y2="100%">
   <stop offset="0%"    stop-color= "#dd9b44" stop-opacity="1"/>
   <stop offset="100%"  stop-color= "#ad6c16" stop-opacity="1"/>
  </linearGradient>
  <linearGradient id="aurora" x1="0%" x2="0%" y1="0%" y2="100%">
   <stop offset="0%"    stop-color= "#09D4DF" stop-opacity="1"/>
   <stop offset="100%"  stop-color= "#9269F4" stop-opacity="1"/>
  </linearGradient> 
  <linearGradient id="cyberblue" x1="0%" x2="0%" y1="0%" y2="100%">
   <stop offset="0%"    stop-color= "#07B3FF" stop-opacity="1"/>
   <stop offset="100%"  stop-color= "#007DE8" stop-opacity="1"/>
  </linearGradient>
  <linearGradient id="cyberneon" x1="0%" x2="0%" y1="0%" y2="100%">
    <stop offset="0%"   stop-color= "#0abdc6" stop-opacity="1"/>
    <stop offset="100%" stop-color= "#ea00d9" stop-opacity="1"/>
  </linearGradient>
  <linearGradient id="fitdance" x1="0%" x2="0%" y1="0%" y2="100%">
   <stop offset="0%"    stop-color= "#1AD6AB" stop-opacity="1"/>
   <stop offset="100%"  stop-color= "#329DB6" stop-opacity="1"/>
  </linearGradient>
  <linearGradient id="oomox" x1="0%" x2="0%" y1="0%" y2="100%">
   <stop offset="0%"    stop-color= "#66b7ff" stop-opacity="1"/>
   <stop offset="100%"  stop-color= "#006acc" stop-opacity="1"/>
  </linearGradient>
  <linearGradient id="rainblue" x1="0%" x2="0%" y1="0%" y2="100%">
   <stop offset="0%"    stop-color= "#00F260" stop-opacity="1"/>
   <stop offset="100%"  stop-color= "#0575E6" stop-opacity="1"/>
  </linearGradient>
  <linearGradient id="redcarbon" x1="0%" x2="0%" y1="0%" y2="100%">
   <stop offset="0%"    stop-color= "#FF6D57" stop-opacity="1"/>
   <stop offset="50%"   stop-color= "#FF5160" stop-opacity="1"/>
   <stop offset="100%"  stop-color= "#F50F22" stop-opacity="1"/>
  </linearGradient>
  <linearGradient id="sunrise" x1="0%" x2="0%" y1="0%" y2="100%">
   <stop offset="0%"    stop-color= "#FF8501" stop-opacity="1"/>
   <stop offset="100%"  stop-color= "#FFCB01" stop-opacity="1"/>
  </linearGradient>
  <linearGradient id="telinkrin" x1="0%" x2="0%" y1="0%" y2="100%">
   <stop offset="0%"    stop-color= "#b2ced6" stop-opacity="1"/>
   <stop offset="100%"  stop-color= "#6da5b7" stop-opacity="1"/>
  </linearGradient>
  <linearGradient id="60spsycho" x1="0%" x2="0%" y1="0%" y2="100%">
   <stop offset="0%"    stop-color= "#df5940" stop-opacity="1"/>
   <stop offset="25%"   stop-color= "#d8d15f" stop-opacity="1"/>
   <stop offset="50%"   stop-color= "#e9882a" stop-opacity="1"/>
   <stop offset="100%"  stop-color= "#279362" stop-opacity="1"/>
  </linearGradient>
  <linearGradient id="90ssummer" x1="0%" x2="0%" y1="0%" y2="100%">
   <stop offset="0%"    stop-color= "#f618c7" stop-opacity="1"/>
   <stop offset="20%"   stop-color= "#94ffab" stop-opacity="1"/>
   <stop offset="50%"   stop-color= "#fbfd54" stop-opacity="1"/>
   <stop offset="100%"  stop-color= "#0f83ae" stop-opacity="1"/>
  </linearGradient>
 </defs>
 <path fill="url(#oomox)" class="ColorScheme-Text" d="M 7 0 L 7 2 L 9 2 L 9 0 L 8.5 0 L 7.5 0 L 7 0 z M 3.0507812 1.6367188 L 2.703125 1.984375 L 2.6875 1.96875 L 1.96875 2.6875 L 1.984375 2.703125 L 1.6367188 3.0507812 L 3.0507812 4.4648438 L 4.4648438 3.0507812 L 3.0507812 1.6367188 z M 12.949219 1.6367188 L 11.535156 3.0507812 L 12.949219 4.4648438 L 14.363281 3.0507812 L 14.015625 2.703125 L 14.03125 2.6875 L 13.3125 1.96875 L 13.296875 1.984375 L 12.949219 1.6367188 z M 8 3 C 5.2386 3 3 5.2386 3 8 C 3 10.7614 5.2386 13 8 13 C 10.7614 13 13 10.7614 13 8 C 13 5.2386 10.7614 3 8 3 z M 8 5 L 8 11 A 3 3 0 0 1 5 8 A 3 3 0 0 1 8 5 z M 0 7 L 0 7.5 L 0 8.5 L 0 9 L 2 9 L 2 7 L 0 7 z M 14 7 L 14 9 L 16 9 L 16 8.5 L 16 7.5 L 16 7 L 14 7 z M 3.0507812 11.535156 L 1.6367188 12.949219 L 1.984375 13.296875 L 1.96875 13.3125 L 2.6875 14.03125 L 2.703125 14.015625 L 3.0507812 14.363281 L 4.4648438 12.949219 L 3.0507812 11.535156 z M 12.949219 11.535156 L 11.535156 12.949219 L 12.949219 14.363281 L 13.296875 14.015625 L 13.3125 14.03125 L 14.03125 13.3125 L 14.015625 13.296875 L 14.363281 12.949219 L 12.949219 11.535156 z M 7 14 L 7 16 L 7.5 16 L 8.5 16 L 9 16 L 9 14 L 7 14 z"/>
</svg>
