<svg xmlns="http://www.w3.org/2000/svg" width="16" height="16" version="1.1">
 <defs>
   <style id="current-color-scheme" type="text/css">
   .ColorScheme-Text { color: #939597; } .ColorScheme-Highlight { color: #1AD6AB; }
  </style>
  <linearGradient id="arrongin" x1="0%" x2="0%" y1="0%" y2="100%">
   <stop offset="0%"    stop-color= "#dd9b44" stop-opacity="1"/>
   <stop offset="100%"  stop-color= "#ad6c16" stop-opacity="1"/>
  </linearGradient>
  <linearGradient id="aurora" x1="0%" x2="0%" y1="0%" y2="100%">
   <stop offset="0%"    stop-color= "#09D4DF" stop-opacity="1"/>
   <stop offset="100%"  stop-color= "#9269F4" stop-opacity="1"/>
  </linearGradient> 
  <linearGradient id="cyberblue" x1="0%" x2="0%" y1="0%" y2="100%">
   <stop offset="0%"    stop-color= "#07B3FF" stop-opacity="1"/>
   <stop offset="100%"  stop-color= "#007DE8" stop-opacity="1"/>
  </linearGradient>
  <linearGradient id="cyberneon" x1="0%" x2="0%" y1="0%" y2="100%">
    <stop offset="0%"   stop-color= "#0abdc6" stop-opacity="1"/>
    <stop offset="100%" stop-color= "#ea00d9" stop-opacity="1"/>
  </linearGradient>
  <linearGradient id="fitdance" x1="0%" x2="0%" y1="0%" y2="100%">
   <stop offset="0%"    stop-color= "#1AD6AB" stop-opacity="1"/>
   <stop offset="100%"  stop-color= "#329DB6" stop-opacity="1"/>
  </linearGradient>
  <linearGradient id="oomox" x1="0%" x2="0%" y1="0%" y2="100%">
   <stop offset="0%"    stop-color= "#66b7ff" stop-opacity="1"/>
   <stop offset="100%"  stop-color= "#006acc" stop-opacity="1"/>
  </linearGradient>
  <linearGradient id="rainblue" x1="0%" x2="0%" y1="0%" y2="100%">
   <stop offset="0%"    stop-color= "#00F260" stop-opacity="1"/>
   <stop offset="100%"  stop-color= "#0575E6" stop-opacity="1"/>
  </linearGradient>
  <linearGradient id="redcarbon" x1="0%" x2="0%" y1="0%" y2="100%">
   <stop offset="0%"    stop-color= "#FF6D57" stop-opacity="1"/>
   <stop offset="50%"   stop-color= "#FF5160" stop-opacity="1"/>
   <stop offset="100%"  stop-color= "#F50F22" stop-opacity="1"/>
  </linearGradient>
  <linearGradient id="sunrise" x1="0%" x2="0%" y1="0%" y2="100%">
   <stop offset="0%"    stop-color= "#FF8501" stop-opacity="1"/>
   <stop offset="100%"  stop-color= "#FFCB01" stop-opacity="1"/>
  </linearGradient>
  <linearGradient id="telinkrin" x1="0%" x2="0%" y1="0%" y2="100%">
   <stop offset="0%"    stop-color= "#b2ced6" stop-opacity="1"/>
   <stop offset="100%"  stop-color= "#6da5b7" stop-opacity="1"/>
  </linearGradient>
  <linearGradient id="60spsycho" x1="0%" x2="0%" y1="0%" y2="100%">
   <stop offset="0%"    stop-color= "#df5940" stop-opacity="1"/>
   <stop offset="25%"   stop-color= "#d8d15f" stop-opacity="1"/>
   <stop offset="50%"   stop-color= "#e9882a" stop-opacity="1"/>
   <stop offset="100%"  stop-color= "#279362" stop-opacity="1"/>
  </linearGradient>
  <linearGradient id="90ssummer" x1="0%" x2="0%" y1="0%" y2="100%">
   <stop offset="0%"    stop-color= "#f618c7" stop-opacity="1"/>
   <stop offset="20%"   stop-color= "#94ffab" stop-opacity="1"/>
   <stop offset="50%"   stop-color= "#fbfd54" stop-opacity="1"/>
   <stop offset="100%"  stop-color= "#0f83ae" stop-opacity="1"/>
  </linearGradient>
 </defs>
 <path fill="url(#oomox)" class="ColorScheme-Text" opacity="0.3" d="m 4.7988302,0.76946115 c -0.8405099,0.0524 -1.8082599,0.31525995 -2.9668,0.89452995 l -0.33594,0.16797 0.1679701,0.33594 c 0.72764,1.45528 0.89251,2.49874 0.80664,3.35742 -0.0859,0.85869 -0.43164,1.55664 -0.80664,2.30664 -0.375,0.7499998 -0.77923005,1.5520498 -0.88086005,2.5683599 -0.10163,1.01631 0.1085,2.22286 0.88086005,3.76758 l 0.16797,0.33594 0.33594,-0.16797 c 1.45528,-0.72764 2.49874,-0.89251 3.35742,-0.80664 0.8586899,0.0859 1.5566394,0.43164 2.3066394,0.80664 0.7500001,0.375 1.5520501,0.77923 2.5683603,0.88086 1.01631,0.10163 2.22286,-0.1085 3.76758,-0.88086 l 0.33594,-0.16797 -0.16797,-0.33594 c -0.72764,-1.45527 -0.89251,-2.49874 -0.80664,-3.35742 0.0859,-0.8586801 0.43164,-1.5566401 0.80664,-2.3066401 0.375,-0.7499998 0.77922,-1.5520498 0.88086,-2.5683598 0.10163,-1.01632 -0.1085,-2.22286 -0.88086,-3.76758 l -0.16797,-0.33594 -0.33594,0.16797 c -1.45528,0.72764 -2.49873,0.89251 -3.35742,0.80664 -0.8586902,-0.0859 -1.5566402,-0.43164 -2.3066402,-0.80664 -0.75,-0.375 -1.5520496,-0.77922995 -2.5683595,-0.88085995 -0.25408,-0.0254 -0.52061,-0.0311 -0.80078,-0.0137 z"/>
 <path fill="url(#oomox)" class="ColorScheme-Text" d="M 2.5e-7,0 V 3 H 3.0000002 V 0 Z M 13,0 v 3 h 3 V 0 Z M 2.5e-7,13 v 3 H 3.0000003 V 13 Z M 13,13 v 3 h 3 v -3 z"/>
</svg>
