<svg xmlns="http://www.w3.org/2000/svg" width="16" height="16" version="1.1">
 <defs>
   <style id="current-color-scheme" type="text/css">
   .ColorScheme-Text { color: #939597; } .ColorScheme-Highlight { color: #1AD6AB; }
  </style>
  <linearGradient id="arrongin" x1="0%" x2="0%" y1="0%" y2="100%">
   <stop offset="0%"    stop-color= "#dd9b44" stop-opacity="1"/>
   <stop offset="100%"  stop-color= "#ad6c16" stop-opacity="1"/>
  </linearGradient>
  <linearGradient id="aurora" x1="0%" x2="0%" y1="0%" y2="100%">
   <stop offset="0%"    stop-color= "#09D4DF" stop-opacity="1"/>
   <stop offset="100%"  stop-color= "#9269F4" stop-opacity="1"/>
  </linearGradient> 
  <linearGradient id="cyberblue" x1="0%" x2="0%" y1="0%" y2="100%">
   <stop offset="0%"    stop-color= "#07B3FF" stop-opacity="1"/>
   <stop offset="100%"  stop-color= "#007DE8" stop-opacity="1"/>
  </linearGradient>
  <linearGradient id="cyberneon" x1="0%" x2="0%" y1="0%" y2="100%">
    <stop offset="0%"   stop-color= "#0abdc6" stop-opacity="1"/>
    <stop offset="100%" stop-color= "#ea00d9" stop-opacity="1"/>
  </linearGradient>
  <linearGradient id="fitdance" x1="0%" x2="0%" y1="0%" y2="100%">
   <stop offset="0%"    stop-color= "#1AD6AB" stop-opacity="1"/>
   <stop offset="100%"  stop-color= "#329DB6" stop-opacity="1"/>
  </linearGradient>
  <linearGradient id="oomox" x1="0%" x2="0%" y1="0%" y2="100%">
   <stop offset="0%"    stop-color= "#66b7ff" stop-opacity="1"/>
   <stop offset="100%"  stop-color= "#006acc" stop-opacity="1"/>
  </linearGradient>
  <linearGradient id="rainblue" x1="0%" x2="0%" y1="0%" y2="100%">
   <stop offset="0%"    stop-color= "#00F260" stop-opacity="1"/>
   <stop offset="100%"  stop-color= "#0575E6" stop-opacity="1"/>
  </linearGradient>
  <linearGradient id="redcarbon" x1="0%" x2="0%" y1="0%" y2="100%">
   <stop offset="0%"    stop-color= "#FF6D57" stop-opacity="1"/>
   <stop offset="50%"   stop-color= "#FF5160" stop-opacity="1"/>
   <stop offset="100%"  stop-color= "#F50F22" stop-opacity="1"/>
  </linearGradient>
  <linearGradient id="sunrise" x1="0%" x2="0%" y1="0%" y2="100%">
   <stop offset="0%"    stop-color= "#FF8501" stop-opacity="1"/>
   <stop offset="100%"  stop-color= "#FFCB01" stop-opacity="1"/>
  </linearGradient>
  <linearGradient id="telinkrin" x1="0%" x2="0%" y1="0%" y2="100%">
   <stop offset="0%"    stop-color= "#b2ced6" stop-opacity="1"/>
   <stop offset="100%"  stop-color= "#6da5b7" stop-opacity="1"/>
  </linearGradient>
  <linearGradient id="60spsycho" x1="0%" x2="0%" y1="0%" y2="100%">
   <stop offset="0%"    stop-color= "#df5940" stop-opacity="1"/>
   <stop offset="25%"   stop-color= "#d8d15f" stop-opacity="1"/>
   <stop offset="50%"   stop-color= "#e9882a" stop-opacity="1"/>
   <stop offset="100%"  stop-color= "#279362" stop-opacity="1"/>
  </linearGradient>
  <linearGradient id="90ssummer" x1="0%" x2="0%" y1="0%" y2="100%">
   <stop offset="0%"    stop-color= "#f618c7" stop-opacity="1"/>
   <stop offset="20%"   stop-color= "#94ffab" stop-opacity="1"/>
   <stop offset="50%"   stop-color= "#fbfd54" stop-opacity="1"/>
   <stop offset="100%"  stop-color= "#0f83ae" stop-opacity="1"/>
  </linearGradient>
 </defs>
 <path fill="url(#oomox)" class="ColorScheme-Text" d="M 10.583984 1.5546875 L 9.2460938 4.0664062 L 0 4.0664062 L 0 11.933594 L 5.0566406 11.933594 L 4.09375 13.740234 L 5.4160156 14.445312 L 6.7539062 11.933594 L 16 11.933594 L 16 4.0664062 L 10.943359 4.0664062 L 11.90625 2.2597656 L 10.583984 1.5546875 z M 0.76757812 4.5996094 L 8.9609375 4.5996094 L 8.4628906 5.5371094 L 8.3417969 5.5371094 L 8.3417969 5.7636719 L 6.8828125 8.5039062 L 6.8828125 6.96875 L 6.1230469 6.96875 L 6.1230469 9.9296875 L 5.3398438 11.400391 L 0.76757812 11.400391 L 0.76757812 4.5996094 z M 10.660156 4.5996094 L 15.232422 4.5996094 L 15.232422 11.400391 L 7.0390625 11.400391 L 8.3417969 8.953125 L 8.3417969 10.400391 L 9.1015625 10.400391 L 9.1015625 7.5273438 L 10.660156 4.5996094 z M 6.5078125 5.6835938 C 6.3830125 5.6835938 6.2758531 5.7135413 6.1894531 5.7695312 C 6.1062531 5.8260613 6.0644531 5.9162156 6.0644531 6.0410156 C 6.0644531 6.1642156 6.1062531 6.254366 6.1894531 6.3125 C 6.2758531 6.37063 6.3830125 6.4003906 6.5078125 6.4003906 C 6.6304785 6.4003906 6.7344465 6.37063 6.8203125 6.3125 C 6.9093825 6.25223 6.953125 6.1620816 6.953125 6.0410156 C 6.953125 5.9786156 6.9410856 5.9245924 6.9160156 5.8808594 C 6.8936156 5.8355294 6.8619125 5.7988623 6.8203125 5.7695312 C 6.7813825 5.7407312 6.7337304 5.7198313 6.6777344 5.7070312 C 6.6249344 5.6926312 6.5691455 5.6835938 6.5078125 5.6835938 z M 2.0234375 5.8320312 L 2.0234375 10.400391 L 2.7988281 10.400391 L 2.7988281 8.46875 L 5.0292969 8.46875 L 5.0292969 7.9570312 L 2.7988281 7.9570312 L 2.7988281 6.34375 L 5.1894531 6.34375 L 5.1894531 5.8320312 L 2.0234375 5.8320312 z M 12.199219 6.90625 C 11.918152 6.90625 11.661334 6.9457398 11.427734 7.0273438 C 11.1968 7.1084138 10.998431 7.2284996 10.832031 7.3847656 C 10.665097 7.5388996 10.535092 7.7262848 10.443359 7.9492188 C 10.351629 8.1721517 10.306641 8.4257844 10.306641 8.7089844 C 10.306641 8.9900514 10.357301 9.2403184 10.457031 9.4589844 C 10.557298 9.6781844 10.698639 9.8614991 10.878906 10.009766 C 11.062906 10.1575 11.280403 10.270856 11.533203 10.347656 C 11.786003 10.424986 12.065494 10.46289 12.371094 10.462891 C 12.512961 10.462891 12.642253 10.457219 12.761719 10.449219 C 12.883852 10.440719 13.001814 10.428826 13.113281 10.410156 C 13.227414 10.391486 13.337759 10.367221 13.443359 10.337891 C 13.551626 10.308561 13.660551 10.27438 13.771484 10.234375 L 13.771484 9.7285156 C 13.663218 9.7663856 13.556772 9.8005653 13.451172 9.8320312 C 13.345572 9.8608313 13.234694 9.88545 13.121094 9.90625 C 13.009628 9.92492 12.894151 9.9390887 12.771484 9.9492188 C 12.652018 9.9598887 12.520773 9.9648437 12.378906 9.9648438 C 11.959173 9.9648438 11.6416 9.8715056 11.427734 9.6816406 C 11.216534 9.4923066 11.103711 9.1951028 11.089844 8.7929688 L 13.976562 8.7929688 L 13.976562 8.4414062 C 13.976562 8.2126063 13.934762 8.0041392 13.851562 7.8164062 C 13.771033 7.6270723 13.655019 7.4653642 13.501953 7.3320312 C 13.349419 7.1965582 13.160606 7.0925982 12.941406 7.0195312 C 12.721672 6.9448653 12.474419 6.90625 12.199219 6.90625 z M 12.183594 7.3789062 C 12.355861 7.3789062 12.502333 7.4013956 12.625 7.4472656 C 12.747133 7.4931356 12.847914 7.557425 12.925781 7.640625 C 13.006851 7.723825 13.065828 7.8244264 13.101562 7.9433594 C 13.140493 8.0596264 13.160156 8.1901642 13.160156 8.3320312 L 11.107422 8.3320312 C 11.138352 8.0216313 11.244267 7.7837597 11.427734 7.6210938 C 11.613867 7.4584268 11.866261 7.3789063 12.183594 7.3789062 z"/>
</svg>
