<?xml version="1.0" encoding="UTF-8" standalone="no"?>
<svg xmlns:dc="http://purl.org/dc/elements/1.1/" xmlns:cc="http://creativecommons.org/ns#" xmlns:rdf="http://www.w3.org/1999/02/22-rdf-syntax-ns#" xmlns:svg="http://www.w3.org/2000/svg" xmlns="http://www.w3.org/2000/svg" xmlns:xlink="http://www.w3.org/1999/xlink" xmlns:sodipodi="http://sodipodi.sourceforge.net/DTD/sodipodi-0.dtd" xmlns:inkscape="http://www.inkscape.org/namespaces/inkscape" height="512" width="512" version="1.1" viewBox="0 0 512 512" id="svg2" inkscape:version="0.91 r" sodipodi:docname="drive-harddisk-usb.svg">
<defs id="defs52" />
<sodipodi:namedview pagecolor="#ffffff" bordercolor="#666666" borderopacity="0.75" objecttolerance="10" gridtolerance="10" guidetolerance="10" inkscape:pageopacity="0" inkscape:pageshadow="2" inkscape:window-width="1680" inkscape:window-height="994" id="namedview50" showgrid="false" inkscape:zoom="0.4609375" inkscape:cx="-116.0678" inkscape:cy="256" inkscape:window-x="0" inkscape:window-y="0" inkscape:window-maximized="1" inkscape:current-layer="svg2" />
<metadata id="metadata97">
<rdf:RDF>
<cc:Work rdf:about="">
<dc:format>image/svg+xml</dc:format>
<dc:type rdf:resource="http://purl.org/dc/dcmitype/StillImage" />
</cc:Work>
</rdf:RDF>
</metadata>
<text id="text20" font-size="129.23" line-height="125%" y="231.36" x="729.64" font-family="Gentium Book Basic" word-spacing="0" letter-spacing="0">
<tspan id="tspan22" y="231.36" x="729.64" />
</text>
<text id="text24" transform="scale(4.0128 .2492)" font-size="46.954" y="579.25" x="378.91" font-family="Arial" text-anchor="middle" />
<text id="text26" font-size="129.23" line-height="125%" y="151.36" x="1310.91" font-family="Gentium Book Basic" word-spacing="0" letter-spacing="0">
<tspan id="tspan28" y="151.36" x="1310.91" />
</text>
<text id="text30" transform="scale(4.0128 .2492)" font-size="46.954" y="258.22" x="523.76" font-family="Arial" text-anchor="middle" />
<text id="text32" font-size="129.23" line-height="125%" y="-29.901" x="239.33" font-family="Gentium Book Basic" word-spacing="0" letter-spacing="0">
<tspan id="tspan34" y="-29.901" x="239.33" />
</text>
<text id="text36" transform="scale(4.0128 .2492)" font-size="46.954" y="-469.14" x="256.72" font-family="Arial" text-anchor="middle" />
<text id="text38" font-size="129.23" line-height="125%" y="-246.37" x="1337.38" font-family="Gentium Book Basic" word-spacing="0" letter-spacing="0">
<tspan id="tspan40" y="-246.37" x="1337.38" />
</text>
<text id="text42" transform="scale(4.0128 .2492)" font-size="46.954" y="-1337.81" x="530.36" font-family="Arial" text-anchor="middle" />
<text id="text44" font-size="129.23" line-height="125%" y="-326.38" x="1918.65" font-family="Gentium Book Basic" word-spacing="0" letter-spacing="0">
<tspan id="tspan46" y="-326.38" x="1918.65" />
</text>
<text id="text48" transform="scale(4.0128 .2492)" font-size="46.954" y="-1658.85" x="675.21" font-family="Arial" text-anchor="middle" />
<text id="text50" font-size="129.23" line-height="125%" y="-798.78" x="1529.53" font-family="Gentium Book Basic" word-spacing="0" letter-spacing="0">
<tspan id="tspan52" y="-798.78" x="1529.53" />
</text>
<text id="text54" transform="scale(4.0128 .2492)" font-size="46.954" y="-3554.51" x="578.24" font-family="Arial" text-anchor="middle" />
<text id="text56" font-size="129.23" line-height="125%" y="-878.78" x="2110.79" font-family="Gentium Book Basic" word-spacing="0" letter-spacing="0">
<tspan id="tspan58" y="-878.78" x="2110.79" />
</text>
<text id="text60" transform="scale(4.0128 .2492)" font-size="46.954" y="-3875.54" x="723.09" font-family="Arial" text-anchor="middle" />
<text id="text62" font-size="208.33" line-height="125%" y="535.94" x="277.99" font-family="Gentium Book Basic" word-spacing="0" letter-spacing="0">
<tspan id="tspan64" y="535.94" x="277.99" />
</text>
<g id="g66" transform="matrix(1.2836378,0,0,1.2836378,-69.834011,-83.460153)" style="fill:#00756A">
<path id="path68" d="m 161.75,95.38 c -16.628,0 -29.969,13.403 -29.969,30.03 l 0,261.19 c 0,16.628 13.341,30.03 29.969,30.03 l 188.47,0 c 16.628,0 30,-13.403 30,-30.03 l 0,-261.19 c 0,-16.628 -13.372,-30.03 -30,-30.03 l -188.47,0 m 7.906,22.22 172.69,0 c 8.935,0 16.13,7.159 16.13,16.09 l 0,244.56 c 0,8.935 -7.19,16.13 -16.12,16.13 l -172.69,0 c -8.935,0 -16.16,-7.19 -16.16,-16.12 l 0,-244.56 c 0,-8.935 7.222,-16.09 16.16,-16.09" inkscape:connector-curvature="0" />
<g id="g70" transform="matrix(0.80326,0,0,0.80326,50.37,65.21)">
<path id="0" d="m 294.59,361.53 c 0,19.557 -15.854,35.411 -35.411,35.411 -19.557,0 -35.411,-15.854 -35.411,-35.411 0,-19.557 15.854,-35.411 35.411,-35.411 19.557,0 35.411,15.854 35.411,35.411" inkscape:connector-curvature="0" style="fill-rule:evenodd" />
<g id="g73" style="fill-rule:evenodd">
<path id="path75" d="m 290.19,126.79 -61.35,0.35 30.346,-49.03 z" inkscape:connector-curvature="0" />
<path id="path77" d="m 246.83,118.22 24.695,0 0,217.22 -24.69,0 z" inkscape:connector-curvature="0" />
<path id="path79" d="m 188.58,259.79 17.462,-17.462 64.18,64.18 -17.462,17.462 z" inkscape:connector-curvature="0" />
<path id="path81" d="m 188.58,178.58 24.695,0 0,81.21 -24.7,0 z" inkscape:connector-curvature="0" />
</g>
<use id="use83" xlink:href="#0" transform="matrix(0.74554,0,0,0.74554,7.698,-74.867)" height="512" width="512" x="0" y="0" />
<g id="g85" style="fill-rule:evenodd">
<path id="path87" d="m 328.28,216.41 -17.462,-17.462 -64.18,64.18 17.462,17.462 z" inkscape:connector-curvature="0" />
<path id="path89" d="m 328.28,135.2 -24.695,0 0,81.21 24.695,0 z" inkscape:connector-curvature="0" />
<path id="path91" d="m 294.38,131.25 43.09,0 0,40.888 -43.09,0 z" inkscape:connector-curvature="0" />
</g>
</g>
</g>
</svg>
