<?xml version="1.0" encoding="UTF-8" standalone="no"?>
<svg
   xmlns:dc="http://purl.org/dc/elements/1.1/"
   xmlns:cc="http://creativecommons.org/ns#"
   xmlns:rdf="http://www.w3.org/1999/02/22-rdf-syntax-ns#"
   xmlns:svg="http://www.w3.org/2000/svg"
   xmlns="http://www.w3.org/2000/svg"
   xmlns:sodipodi="http://sodipodi.sourceforge.net/DTD/sodipodi-0.dtd"
   xmlns:inkscape="http://www.inkscape.org/namespaces/inkscape"
   height="512"
   width="512"
   version="1.1"
   viewBox="0 0 512 512"
   id="svg2"
   inkscape:version="0.91 r"
   sodipodi:docname="media-optical-data.svg">
  <defs
     id="defs196" />
  <sodipodi:namedview
     pagecolor="#ffffff"
     bordercolor="#666666"
     borderopacity="0.75"
     objecttolerance="10"
     gridtolerance="10"
     guidetolerance="10"
     inkscape:pageopacity="0"
     inkscape:pageshadow="2"
     inkscape:window-width="640"
     inkscape:window-height="480"
     id="namedview194"
     showgrid="false"
     inkscape:zoom="0.4609375"
     inkscape:cx="256"
     inkscape:cy="256"
     inkscape:window-x="0"
     inkscape:window-y="0"
     inkscape:window-maximized="0"
     inkscape:current-layer="svg2" />
  <metadata
     id="metadata388">
    <rdf:RDF>
      <cc:Work
         rdf:about="">
        <dc:format>image/svg+xml</dc:format>
        <dc:type
           rdf:resource="http://purl.org/dc/dcmitype/StillImage" />
      </cc:Work>
    </rdf:RDF>
  </metadata>
  <text
     id="text4"
     font-size="129.23"
     line-height="125%"
     y="231.36"
     x="729.64"
     font-family="Gentium Book Basic"
     word-spacing="0"
     letter-spacing="0">
    <tspan
       id="tspan6"
       y="231.36"
       x="729.64" />
  </text>
  <text
     id="text8"
     transform="scale(4.0128 .2492)"
     font-size="46.954"
     y="579.25"
     x="378.91"
     font-family="Arial"
     text-anchor="middle" />
  <text
     id="text10"
     font-size="129.23"
     line-height="125%"
     y="151.36"
     x="1310.91"
     font-family="Gentium Book Basic"
     word-spacing="0"
     letter-spacing="0">
    <tspan
       id="tspan12"
       y="151.36"
       x="1310.91" />
  </text>
  <text
     id="text14"
     transform="scale(4.0128 .2492)"
     font-size="46.954"
     y="258.22"
     x="523.76"
     font-family="Arial"
     text-anchor="middle" />
  <text
     id="text16"
     font-size="129.23"
     line-height="125%"
     y="-29.901"
     x="239.33"
     font-family="Gentium Book Basic"
     word-spacing="0"
     letter-spacing="0">
    <tspan
       id="tspan18"
       y="-29.901"
       x="239.33" />
  </text>
  <text
     id="text20"
     transform="scale(4.0128 .2492)"
     font-size="46.954"
     y="-469.14"
     x="256.72"
     font-family="Arial"
     text-anchor="middle" />
  <text
     id="text22"
     font-size="129.23"
     line-height="125%"
     y="-246.37"
     x="1337.38"
     font-family="Gentium Book Basic"
     word-spacing="0"
     letter-spacing="0">
    <tspan
       id="tspan24"
       y="-246.37"
       x="1337.38" />
  </text>
  <text
     id="text26"
     transform="scale(4.0128 .2492)"
     font-size="46.954"
     y="-1337.81"
     x="530.36"
     font-family="Arial"
     text-anchor="middle" />
  <text
     id="text28"
     font-size="129.23"
     line-height="125%"
     y="-326.38"
     x="1918.65"
     font-family="Gentium Book Basic"
     word-spacing="0"
     letter-spacing="0">
    <tspan
       id="tspan30"
       y="-326.38"
       x="1918.65" />
  </text>
  <text
     id="text32"
     transform="scale(4.0128 .2492)"
     font-size="46.954"
     y="-1658.85"
     x="675.21"
     font-family="Arial"
     text-anchor="middle" />
  <text
     id="text34"
     font-size="129.23"
     line-height="125%"
     y="-798.78"
     x="1529.53"
     font-family="Gentium Book Basic"
     word-spacing="0"
     letter-spacing="0">
    <tspan
       id="tspan36"
       y="-798.78"
       x="1529.53" />
  </text>
  <text
     id="text38"
     transform="scale(4.0128 .2492)"
     font-size="46.954"
     y="-3554.51"
     x="578.24"
     font-family="Arial"
     text-anchor="middle" />
  <text
     id="text40"
     font-size="129.23"
     line-height="125%"
     y="-878.78"
     x="2110.79"
     font-family="Gentium Book Basic"
     word-spacing="0"
     letter-spacing="0">
    <tspan
       id="tspan42"
       y="-878.78"
       x="2110.79" />
  </text>
  <text
     id="text44"
     transform="scale(4.0128 .2492)"
     font-size="46.954"
     y="-3875.54"
     x="723.09"
     font-family="Arial"
     text-anchor="middle" />
  <g
     id="g46"
     font-family="Gentium Book Basic"
     line-height="125%"
     word-spacing="0"
     letter-spacing="0">
    <text
       id="text48"
       y="535.94"
       x="277.99"
       font-size="208.33">
      <tspan
         id="tspan50"
         y="535.94"
         x="277.99" />
    </text>
    <text
       id="text52"
       y="-11.341"
       x="-307.18"
       font-size="200">
      <tspan
         id="tspan54"
         y="-11.341"
         x="-307.18" />
    </text>
  </g>
  <text
     id="text56"
     transform="scale(4.0128 .2492)"
     font-size="72.67"
     y="-585.88"
     x="228.47"
     font-family="Arial"
     text-anchor="middle" />
  <text
     id="text58"
     font-size="200"
     line-height="125%"
     y="41.802"
     x="438.2"
     font-family="Gentium Book Basic"
     word-spacing="0"
     letter-spacing="0">
    <tspan
       id="tspan60"
       y="41.802"
       x="438.2" />
  </text>
  <text
     id="text62"
     transform="scale(4.0128 .2492)"
     font-size="72.67"
     y="-372.63"
     x="414.22"
     font-family="Arial"
     text-anchor="middle" />
  <text
     id="text64"
     font-size="200"
     line-height="125%"
     y="-82.02"
     x="1337.81"
     font-family="Gentium Book Basic"
     word-spacing="0"
     letter-spacing="0">
    <tspan
       id="tspan66"
       y="-82.02"
       x="1337.81" />
  </text>
  <text
     id="text68"
     transform="scale(4.0128 .2492)"
     font-size="72.67"
     y="-869.49"
     x="638.4"
     font-family="Arial"
     text-anchor="middle" />
  <text
     id="text70"
     font-size="200"
     line-height="125%"
     y="-134.65"
     x="465.66"
     font-family="Gentium Book Basic"
     word-spacing="0"
     letter-spacing="0">
    <tspan
       id="tspan72"
       y="-134.65"
       x="465.66" />
  </text>
  <text
     id="text74"
     transform="scale(4.0128 .2492)"
     font-size="72.67"
     y="-1080.71"
     x="421.06"
     font-family="Arial"
     text-anchor="middle" />
  <text
     id="text76"
     font-size="200"
     line-height="125%"
     y="-258.47"
     x="1365.27"
     font-family="Gentium Book Basic"
     word-spacing="0"
     letter-spacing="0">
    <tspan
       id="tspan78"
       y="-258.47"
       x="1365.27" />
  </text>
  <text
     id="text80"
     transform="scale(4.0128 .2492)"
     font-size="72.67"
     y="-1577.57"
     x="645.24"
     font-family="Arial"
     text-anchor="middle" />
  <text
     id="text82"
     font-size="200"
     line-height="125%"
     y="317.23"
     x="-2544.32"
     font-family="Gentium Book Basic"
     word-spacing="0"
     letter-spacing="0">
    <tspan
       id="tspan84"
       y="317.23"
       x="-2544.32" />
  </text>
  <text
     id="text86"
     transform="scale(4.0128 .2492)"
     font-size="72.67"
     y="732.62"
     x="-329.03"
     font-family="Arial"
     text-anchor="middle" />
  <text
     id="text88"
     font-size="200"
     line-height="125%"
     y="81.8"
     x="-616.04"
     font-family="Gentium Book Basic"
     word-spacing="0"
     letter-spacing="0">
    <tspan
       id="tspan90"
       y="81.8"
       x="-616.04" />
  </text>
  <text
     id="text92"
     transform="scale(4.0128 .2492)"
     font-size="72.67"
     y="-212.12"
     x="151.5"
     font-family="Arial"
     text-anchor="middle" />
  <text
     id="text94"
     font-size="200"
     line-height="125%"
     y="134.94"
     x="129.34"
     font-family="Gentium Book Basic"
     word-spacing="0"
     letter-spacing="0">
    <tspan
       id="tspan96"
       y="134.94"
       x="129.34" />
  </text>
  <text
     id="text98"
     transform="scale(4.0128 .2492)"
     font-size="72.67"
     y="1.138"
     x="337.25"
     font-family="Arial"
     text-anchor="middle" />
  <text
     id="text100"
     font-size="200"
     line-height="125%"
     y="11.127"
     x="1028.95"
     font-family="Gentium Book Basic"
     word-spacing="0"
     letter-spacing="0">
    <tspan
       id="tspan102"
       y="11.127"
       x="1028.95" />
  </text>
  <text
     id="text104"
     transform="scale(4.0128 .2492)"
     font-size="72.67"
     y="-495.72"
     x="561.43"
     font-family="Arial"
     text-anchor="middle" />
  <text
     id="text106"
     font-size="200"
     line-height="125%"
     y="-41.51"
     x="156.8"
     font-family="Gentium Book Basic"
     word-spacing="0"
     letter-spacing="0">
    <tspan
       id="tspan108"
       y="-41.51"
       x="156.8" />
  </text>
  <text
     id="text110"
     transform="scale(4.0128 .2492)"
     font-size="72.67"
     y="-706.95"
     x="344.09"
     font-family="Arial"
     text-anchor="middle" />
  <text
     id="text112"
     font-size="200"
     line-height="125%"
     y="-165.33"
     x="1056.42"
     font-family="Gentium Book Basic"
     word-spacing="0"
     letter-spacing="0">
    <tspan
       id="tspan114"
       y="-165.33"
       x="1056.42" />
  </text>
  <text
     id="text116"
     transform="scale(4.0128 .2492)"
     font-size="72.67"
     y="-1203.81"
     x="568.28"
     font-family="Arial"
     text-anchor="middle" />
  <text
     id="text118"
     font-size="200"
     line-height="125%"
     y="410.37"
     x="-2853.18"
     font-family="Gentium Book Basic"
     word-spacing="0"
     letter-spacing="0">
    <tspan
       id="tspan120"
       y="410.37"
       x="-2853.18" />
  </text>
  <text
     id="text122"
     transform="scale(4.0128 .2492)"
     font-size="72.67"
     y="1106.39"
     x="-406"
     font-family="Arial"
     text-anchor="middle" />
  <text
     id="text124"
     font-size="200"
     line-height="125%"
     y="-35.06"
     x="-1330.61"
     font-family="Gentium Book Basic"
     word-spacing="0"
     letter-spacing="0">
    <tspan
       id="tspan126"
       y="-35.06"
       x="-1330.61" />
  </text>
  <text
     id="text128"
     transform="scale(4.0128 .2492)"
     font-size="72.67"
     y="-681.04"
     x="-26.571"
     font-family="Arial"
     text-anchor="middle" />
  <text
     id="text130"
     font-size="200"
     line-height="125%"
     y="18.09"
     x="-585.23"
     font-family="Gentium Book Basic"
     word-spacing="0"
     letter-spacing="0">
    <tspan
       id="tspan132"
       y="18.09"
       x="-585.23" />
  </text>
  <text
     id="text134"
     transform="scale(4.0128 .2492)"
     font-size="72.67"
     y="-467.79"
     x="159.18"
     font-family="Arial"
     text-anchor="middle" />
  <text
     id="text136"
     font-size="200"
     line-height="125%"
     y="-105.73"
     x="314.38"
     font-family="Gentium Book Basic"
     word-spacing="0"
     letter-spacing="0">
    <tspan
       id="tspan138"
       y="-105.73"
       x="314.38" />
  </text>
  <text
     id="text140"
     transform="scale(4.0128 .2492)"
     font-size="72.67"
     y="-964.65"
     x="383.36"
     font-family="Arial"
     text-anchor="middle" />
  <text
     id="text142"
     font-size="200"
     line-height="125%"
     y="-158.37"
     x="-557.77"
     font-family="Gentium Book Basic"
     word-spacing="0"
     letter-spacing="0">
    <tspan
       id="tspan144"
       y="-158.37"
       x="-557.77" />
  </text>
  <text
     id="text146"
     transform="scale(4.0128 .2492)"
     font-size="72.67"
     y="-1175.88"
     x="166.02"
     font-family="Arial"
     text-anchor="middle" />
  <text
     id="text148"
     font-size="200"
     line-height="125%"
     y="-282.18"
     x="341.85"
     font-family="Gentium Book Basic"
     word-spacing="0"
     letter-spacing="0">
    <tspan
       id="tspan150"
       y="-282.18"
       x="341.85" />
  </text>
  <text
     id="text152"
     transform="scale(4.0128 .2492)"
     font-size="72.67"
     y="-1672.73"
     x="390.2"
     font-family="Arial"
     text-anchor="middle" />
  <text
     id="text154"
     font-size="200"
     line-height="125%"
     y="293.52"
     x="-3567.75"
     font-family="Gentium Book Basic"
     word-spacing="0"
     letter-spacing="0">
    <tspan
       id="tspan156"
       y="293.52"
       x="-3567.75" />
  </text>
  <text
     id="text158"
     transform="scale(4.0128 .2492)"
     font-size="72.67"
     y="637.46"
     x="-584.07"
     font-family="Arial"
     text-anchor="middle" />
  <text
     id="text178"
     font-size="129.23"
     line-height="125%"
     y="231.36"
     x="729.64"
     font-family="Gentium Book Basic"
     word-spacing="0"
     letter-spacing="0">
    <tspan
       id="tspan180"
       y="231.36"
       x="729.64" />
  </text>
  <text
     id="text182"
     transform="scale(4.0128 .2492)"
     font-size="46.954"
     y="579.25"
     x="378.91"
     font-family="Arial"
     text-anchor="middle" />
  <text
     id="text184"
     font-size="129.23"
     line-height="125%"
     y="151.36"
     x="1310.91"
     font-family="Gentium Book Basic"
     word-spacing="0"
     letter-spacing="0">
    <tspan
       id="tspan186"
       y="151.36"
       x="1310.91" />
  </text>
  <text
     id="text188"
     transform="scale(4.0128 .2492)"
     font-size="46.954"
     y="258.22"
     x="523.76"
     font-family="Arial"
     text-anchor="middle" />
  <text
     id="text190"
     font-size="129.23"
     line-height="125%"
     y="-29.901"
     x="239.33"
     font-family="Gentium Book Basic"
     word-spacing="0"
     letter-spacing="0">
    <tspan
       id="tspan192"
       y="-29.901"
       x="239.33" />
  </text>
  <text
     id="text194"
     transform="scale(4.0128 .2492)"
     font-size="46.954"
     y="-469.14"
     x="256.72"
     font-family="Arial"
     text-anchor="middle" />
  <text
     id="text196"
     font-size="129.23"
     line-height="125%"
     y="-246.37"
     x="1337.38"
     font-family="Gentium Book Basic"
     word-spacing="0"
     letter-spacing="0">
    <tspan
       id="tspan198"
       y="-246.37"
       x="1337.38" />
  </text>
  <text
     id="text200"
     transform="scale(4.0128 .2492)"
     font-size="46.954"
     y="-1337.8"
     x="530.36"
     font-family="Arial"
     text-anchor="middle" />
  <text
     id="text202"
     font-size="129.23"
     line-height="125%"
     y="-326.38"
     x="1918.65"
     font-family="Gentium Book Basic"
     word-spacing="0"
     letter-spacing="0">
    <tspan
       id="tspan204"
       y="-326.38"
       x="1918.65" />
  </text>
  <text
     id="text206"
     transform="scale(4.0128 .2492)"
     font-size="46.954"
     y="-1658.84"
     x="675.21"
     font-family="Arial"
     text-anchor="middle" />
  <text
     id="text208"
     font-size="129.23"
     line-height="125%"
     y="-798.78"
     x="1529.53"
     font-family="Gentium Book Basic"
     word-spacing="0"
     letter-spacing="0">
    <tspan
       id="tspan210"
       y="-798.78"
       x="1529.53" />
  </text>
  <text
     id="text212"
     transform="scale(4.0128 .2492)"
     font-size="46.954"
     y="-3554.49"
     x="578.24"
     font-family="Arial"
     text-anchor="middle" />
  <text
     id="text214"
     font-size="129.23"
     line-height="125%"
     y="-878.78"
     x="2110.79"
     font-family="Gentium Book Basic"
     word-spacing="0"
     letter-spacing="0">
    <tspan
       id="tspan216"
       y="-878.78"
       x="2110.79" />
  </text>
  <text
     id="text218"
     transform="scale(4.0128 .2492)"
     font-size="46.954"
     y="-3875.52"
     x="723.09"
     font-family="Arial"
     text-anchor="middle" />
  <g
     id="g220"
     font-family="Gentium Book Basic"
     line-height="125%"
     word-spacing="0"
     letter-spacing="0">
    <text
       id="text222"
       y="535.94"
       x="277.99"
       font-size="208.33">
      <tspan
         id="tspan224"
         y="535.94"
         x="277.99" />
    </text>
    <text
       id="text226"
       y="227.12"
       x="104.96"
       font-size="129.23">
      <tspan
         id="tspan228"
         y="227.12"
         x="104.96" />
    </text>
  </g>
  <text
     id="text230"
     transform="scale(4.0128 .2492)"
     font-size="46.954"
     y="562.23"
     x="223.24"
     font-family="Arial"
     text-anchor="middle" />
  <text
     id="text232"
     font-size="129.23"
     line-height="125%"
     y="147.11"
     x="686.23"
     font-family="Gentium Book Basic"
     word-spacing="0"
     letter-spacing="0">
    <tspan
       id="tspan234"
       y="147.11"
       x="686.23" />
  </text>
  <text
     id="text236"
     transform="scale(4.0128 .2492)"
     font-size="46.954"
     y="241.19"
     x="368.09"
     font-family="Arial"
     text-anchor="middle" />
  <text
     id="text238"
     font-size="129.23"
     line-height="125%"
     y="-34.14"
     x="-385.35"
     font-family="Gentium Book Basic"
     word-spacing="0"
     letter-spacing="0">
    <tspan
       id="tspan240"
       y="-34.14"
       x="-385.35" />
  </text>
  <text
     id="text242"
     transform="scale(4.0128 .2492)"
     font-size="46.954"
     y="-486.16"
     x="101.05"
     font-family="Arial"
     text-anchor="middle" />
  <text
     id="text244"
     font-size="129.23"
     line-height="125%"
     y="-250.62"
     x="712.7"
     font-family="Gentium Book Basic"
     word-spacing="0"
     letter-spacing="0">
    <tspan
       id="tspan246"
       y="-250.62"
       x="712.7" />
  </text>
  <text
     id="text248"
     transform="scale(4.0128 .2492)"
     font-size="46.954"
     y="-1354.84"
     x="374.69"
     font-family="Arial"
     text-anchor="middle" />
  <text
     id="text250"
     font-size="129.23"
     line-height="125%"
     y="-330.62"
     x="1293.97"
     font-family="Gentium Book Basic"
     word-spacing="0"
     letter-spacing="0">
    <tspan
       id="tspan252"
       y="-330.62"
       x="1293.97" />
  </text>
  <text
     id="text254"
     transform="scale(4.0128 .2492)"
     font-size="46.954"
     y="-1675.87"
     x="519.54"
     font-family="Arial"
     text-anchor="middle" />
  <text
     id="text256"
     font-size="129.23"
     line-height="125%"
     y="-803.02"
     x="904.85"
     font-family="Gentium Book Basic"
     word-spacing="0"
     letter-spacing="0">
    <tspan
       id="tspan258"
       y="-803.02"
       x="904.85" />
  </text>
  <text
     id="text260"
     transform="scale(4.0128 .2492)"
     font-size="46.954"
     y="-3571.53"
     x="422.57"
     font-family="Arial"
     text-anchor="middle" />
  <text
     id="text262"
     font-size="129.23"
     line-height="125%"
     y="-883.02"
     x="1486.12"
     font-family="Gentium Book Basic"
     word-spacing="0"
     letter-spacing="0">
    <tspan
       id="tspan264"
       y="-883.02"
       x="1486.12" />
  </text>
  <text
     id="text266"
     transform="scale(4.0128 .2492)"
     font-size="46.954"
     y="-3892.57"
     x="567.42"
     font-family="Arial"
     text-anchor="middle" />
  <g
     id="g268"
     font-family="Gentium Book Basic"
     line-height="125%"
     word-spacing="0"
     letter-spacing="0">
    <text
       id="text270"
       y="531.69"
       x="-346.69"
       font-size="208.33">
      <tspan
         id="tspan272"
         y="531.69"
         x="-346.69" />
    </text>
    <text
       id="text274"
       y="-15.584"
       x="-931.86"
       font-size="200">
      <tspan
         id="tspan276"
         y="-15.584"
         x="-931.86" />
    </text>
  </g>
  <text
     id="text278"
     transform="scale(4.0128 .2492)"
     font-size="72.67"
     y="-602.91"
     x="72.797"
     font-family="Arial"
     text-anchor="middle" />
  <text
     id="text280"
     font-size="200"
     line-height="125%"
     y="37.559"
     x="-186.48"
     font-family="Gentium Book Basic"
     word-spacing="0"
     letter-spacing="0">
    <tspan
       id="tspan282"
       y="37.559"
       x="-186.48" />
  </text>
  <text
     id="text284"
     transform="scale(4.0128 .2492)"
     font-size="72.67"
     y="-389.66"
     x="258.55"
     font-family="Arial"
     text-anchor="middle" />
  <text
     id="text286"
     font-size="200"
     line-height="125%"
     y="-86.26"
     x="713.13"
     font-family="Gentium Book Basic"
     word-spacing="0"
     letter-spacing="0">
    <tspan
       id="tspan288"
       y="-86.26"
       x="713.13" />
  </text>
  <text
     id="text290"
     transform="scale(4.0128 .2492)"
     font-size="72.67"
     y="-886.51"
     x="482.73"
     font-family="Arial"
     text-anchor="middle" />
  <text
     id="text292"
     font-size="200"
     line-height="125%"
     y="-138.9"
     x="-159.02"
     font-family="Gentium Book Basic"
     word-spacing="0"
     letter-spacing="0">
    <tspan
       id="tspan294"
       y="-138.9"
       x="-159.02" />
  </text>
  <text
     id="text296"
     transform="scale(4.0128 .2492)"
     font-size="72.67"
     y="-1097.74"
     x="265.39"
     font-family="Arial"
     text-anchor="middle" />
  <text
     id="text298"
     font-size="200"
     line-height="125%"
     y="-262.71"
     x="740.6"
     font-family="Gentium Book Basic"
     word-spacing="0"
     letter-spacing="0">
    <tspan
       id="tspan300"
       y="-262.71"
       x="740.6" />
  </text>
  <text
     id="text302"
     transform="scale(4.0128 .2492)"
     font-size="72.67"
     y="-1594.6"
     x="489.57"
     font-family="Arial"
     text-anchor="middle" />
  <text
     id="text304"
     font-size="200"
     line-height="125%"
     y="312.99"
     x="-3169"
     font-family="Gentium Book Basic"
     word-spacing="0"
     letter-spacing="0">
    <tspan
       id="tspan306"
       y="312.99"
       x="-3169" />
  </text>
  <text
     id="text308"
     transform="scale(4.0128 .2492)"
     font-size="72.67"
     y="715.59"
     x="-484.7"
     font-family="Arial"
     text-anchor="middle" />
  <text
     id="text310"
     font-size="200"
     line-height="125%"
     y="77.56"
     x="-1240.72"
     font-family="Gentium Book Basic"
     word-spacing="0"
     letter-spacing="0">
    <tspan
       id="tspan312"
       y="77.56"
       x="-1240.72" />
  </text>
  <text
     id="text314"
     transform="scale(4.0128 .2492)"
     font-size="72.67"
     y="-229.14"
     x="-4.17"
     font-family="Arial"
     text-anchor="middle" />
  <text
     id="text316"
     font-size="200"
     line-height="125%"
     y="130.7"
     x="-495.34"
     font-family="Gentium Book Basic"
     word-spacing="0"
     letter-spacing="0">
    <tspan
       id="tspan318"
       y="130.7"
       x="-495.34" />
  </text>
  <text
     id="text320"
     transform="scale(4.0128 .2492)"
     font-size="72.67"
     y="-15.889"
     x="181.58"
     font-family="Arial"
     text-anchor="middle" />
  <text
     id="text322"
     font-size="200"
     line-height="125%"
     y="6.884"
     x="404.27"
     font-family="Gentium Book Basic"
     word-spacing="0"
     letter-spacing="0">
    <tspan
       id="tspan324"
       y="6.884"
       x="404.27" />
  </text>
  <text
     id="text326"
     transform="scale(4.0128 .2492)"
     font-size="72.67"
     y="-512.75"
     x="405.76"
     font-family="Arial"
     text-anchor="middle" />
  <text
     id="text328"
     font-size="200"
     line-height="125%"
     y="-45.754"
     x="-467.88"
     font-family="Gentium Book Basic"
     word-spacing="0"
     letter-spacing="0">
    <tspan
       id="tspan330"
       y="-45.754"
       x="-467.88" />
  </text>
  <text
     id="text332"
     transform="scale(4.0128 .2492)"
     font-size="72.67"
     y="-723.97"
     x="188.42"
     font-family="Arial"
     text-anchor="middle" />
  <text
     id="text334"
     font-size="200"
     line-height="125%"
     y="-169.57"
     x="431.74"
     font-family="Gentium Book Basic"
     word-spacing="0"
     letter-spacing="0">
    <tspan
       id="tspan336"
       y="-169.57"
       x="431.74" />
  </text>
  <text
     id="text338"
     transform="scale(4.0128 .2492)"
     font-size="72.67"
     y="-1220.83"
     x="412.61"
     font-family="Arial"
     text-anchor="middle" />
  <text
     id="text340"
     font-size="200"
     line-height="125%"
     y="406.13"
     x="-3477.86"
     font-family="Gentium Book Basic"
     word-spacing="0"
     letter-spacing="0">
    <tspan
       id="tspan342"
       y="406.13"
       x="-3477.86" />
  </text>
  <text
     id="text344"
     transform="scale(4.0128 .2492)"
     font-size="72.67"
     y="1089.36"
     x="-561.67"
     font-family="Arial"
     text-anchor="middle" />
  <text
     id="text346"
     font-size="200"
     line-height="125%"
     y="-39.3"
     x="-1955.29"
     font-family="Gentium Book Basic"
     word-spacing="0"
     letter-spacing="0">
    <tspan
       id="tspan348"
       y="-39.3"
       x="-1955.29" />
  </text>
  <text
     id="text350"
     transform="scale(4.0128 .2492)"
     font-size="72.67"
     y="-698.07"
     x="-182.24"
     font-family="Arial"
     text-anchor="middle" />
  <text
     id="text352"
     font-size="200"
     line-height="125%"
     y="13.844"
     x="-1209.91"
     font-family="Gentium Book Basic"
     word-spacing="0"
     letter-spacing="0">
    <tspan
       id="tspan354"
       y="13.844"
       x="-1209.91" />
  </text>
  <text
     id="text356"
     transform="scale(4.0128 .2492)"
     font-size="72.67"
     y="-484.82"
     x="3.507"
     font-family="Arial"
     text-anchor="middle" />
  <text
     id="text358"
     font-size="200"
     line-height="125%"
     y="-109.97"
     x="-310.3"
     font-family="Gentium Book Basic"
     word-spacing="0"
     letter-spacing="0">
    <tspan
       id="tspan360"
       y="-109.97"
       x="-310.3" />
  </text>
  <text
     id="text362"
     transform="scale(4.0128 .2492)"
     font-size="72.67"
     y="-981.68"
     x="227.69"
     font-family="Arial"
     text-anchor="middle" />
  <text
     id="text364"
     font-size="200"
     line-height="125%"
     y="-162.61"
     x="-1182.45"
     font-family="Gentium Book Basic"
     word-spacing="0"
     letter-spacing="0">
    <tspan
       id="tspan366"
       y="-162.61"
       x="-1182.45" />
  </text>
  <text
     id="text368"
     transform="scale(4.0128 .2492)"
     font-size="72.67"
     y="-1192.9"
     x="10.351"
     font-family="Arial"
     text-anchor="middle" />
  <text
     id="text370"
     font-size="200"
     line-height="125%"
     y="-286.43"
     x="-282.83"
     font-family="Gentium Book Basic"
     word-spacing="0"
     letter-spacing="0">
    <tspan
       id="tspan372"
       y="-286.43"
       x="-282.83" />
  </text>
  <text
     id="text374"
     transform="scale(4.0128 .2492)"
     font-size="72.67"
     y="-1689.76"
     x="234.54"
     font-family="Arial"
     text-anchor="middle" />
  <text
     id="text376"
     font-size="200"
     line-height="125%"
     y="289.27"
     x="-4192.43"
     font-family="Gentium Book Basic"
     word-spacing="0"
     letter-spacing="0">
    <tspan
       id="tspan378"
       y="289.27"
       x="-4192.43" />
  </text>
  <text
     id="text380"
     transform="scale(4.0128 .2492)"
     font-size="72.67"
     y="620.43"
     x="-739.74"
     font-family="Arial"
     text-anchor="middle" />
  <path
     id="path382"
     d="M 256,60.160678 C 147.83748,60.160678 60.160678,147.83748 60.160678,256 60.160678,364.16252 147.83748,451.83932 256,451.83932 364.16252,451.83932 451.83932,364.16252 451.83932,256 451.83932,147.83748 364.16252,60.160678 256,60.160678 m 67.49472,23.325313 c 23.13896,9.041344 44.81707,22.890059 63.50834,41.581319 15.72917,15.72918 28.06882,33.60727 36.96421,52.66082 l -114.43073,66.06123 c -2.23623,-9.7242 -7.14785,-18.96753 -14.72314,-26.54282 -7.88413,-7.88413 -17.57184,-12.86743 -27.73261,-14.96813 L 323.49472,83.482081 M 256.00391,210.18861 c 25.30351,0 45.80618,20.50918 45.80618,45.80618 0,25.30351 -20.50918,45.80617 -45.80618,45.80617 -25.30351,0 -45.80618,-20.50917 -45.80618,-45.80617 0,-25.30352 20.50918,-45.80618 45.80618,-45.80618 m 0,10.14121 c -19.70382,0 -35.67148,15.97157 -35.67148,35.67148 0,19.70383 15.97157,35.67148 35.67148,35.67148 19.70382,0 35.67148,-15.97156 35.67148,-35.67148 0,-19.70382 -15.97157,-35.67148 -35.67148,-35.67148 m 0,10.49047 c 13.90605,0 25.17971,11.27366 25.17971,25.17971 0,13.90605 -11.27366,25.17971 -25.17971,25.17971 -13.90605,0 -25.17971,-11.27366 -25.17971,-25.17971 0,-13.90605 11.27366,-25.17971 25.17971,-25.17971 m -54.03044,37.31476 c 0.41962,1.82313 0.93307,3.63843 1.53904,5.42116 0.20199,0.59424 0.40658,1.15982 0.62943,1.74885 1.78403,4.71484 4.21833,9.21336 7.34462,13.3939 0.38965,0.52127 0.77929,1.0282 1.18849,1.53904 1.2367,1.53773 2.55941,3.01421 3.98637,4.44118 2.46428,2.46428 5.09276,4.64317 7.87111,6.54188 0.55514,0.37922 1.1129,0.76235 1.67847,1.11941 2.27011,1.43218 4.6145,2.67409 7.02926,3.74138 1.20282,0.533 2.40694,0.99171 3.63713,1.43348 1.84528,0.66331 3.73747,1.25234 5.63096,1.71366 0.63074,0.15378 1.25365,0.288 1.88829,0.41962 l -56.41392,118.79633 c -1.45564,-0.56948 -2.89172,-1.14157 -4.33693,-1.74884 -1.43478,-0.60206 -2.84481,-1.21325 -4.26656,-1.8531 -2.85783,-1.28753 -5.66094,-2.65194 -8.46274,-4.09193 -1.38526,-0.71023 -2.75619,-1.45564 -4.12711,-2.20365 -0.0117,-0.004 -0.0261,0.004 -0.0352,0 -1.38005,-0.75323 -2.72752,-1.51688 -4.09193,-2.3079 -2.73664,-1.58725 -5.44331,-3.22794 -8.11349,-4.96636 -1.33053,-0.8666 -2.63891,-1.75405 -3.94859,-2.65845 -5.26477,-3.62149 -10.37187,-7.52446 -15.31737,-11.75453 -1.22758,-1.04904 -2.4304,-2.13067 -3.63713,-3.21751 -0.007,-0.007 -0.0287,0.007 -0.0352,0 -1.21324,-1.09205 -2.41085,-2.19192 -3.60194,-3.32176 -1.19109,-1.12984 -2.36394,-2.29357 -3.53157,-3.4625 -5.90724,-5.90724 -11.31797,-12.1116 -16.26217,-18.57007 -0.8223,-1.07511 -1.61722,-2.12807 -2.41346,-3.21751 -7.168697,-9.79979 -13.250558,-20.15863 -18.25731,-30.87975 l 114.43074,-66.06124"
     inkscape:connector-curvature="0"
     style="fill:#00756A;fill-rule:evenodd" />
</svg>
