<svg xmlns="http://www.w3.org/2000/svg" width="16" height="16" version="1.1">
 <defs>
   <style id="current-color-scheme" type="text/css">
   .ColorScheme-Text { color: #d3dae3; } .ColorScheme-Highlight { color: #1AD6AB; }
  </style>
  <linearGradient id="arrongin" x1="0%" x2="0%" y1="0%" y2="100%">
   <stop offset="0%"    stop-color= "#dd9b44" stop-opacity="1"/>
   <stop offset="100%"  stop-color= "#ad6c16" stop-opacity="1"/>
  </linearGradient>
  <linearGradient id="aurora" x1="0%" x2="0%" y1="0%" y2="100%">
   <stop offset="0%"    stop-color= "#09D4DF" stop-opacity="1"/>
   <stop offset="100%"  stop-color= "#9269F4" stop-opacity="1"/>
  </linearGradient>
  <linearGradient id="cyberneon" x1="0%" x2="0%" y1="0%" y2="100%">
    <stop offset="0"    stop-color= "#0abdc6" stop-opacity="1"/>
    <stop offset="1"    stop-color= "#ea00d9" stop-opacity="1"/>
  </linearGradient>
  <linearGradient id="fitdance" x1="0%" x2="0%" y1="0%" y2="100%">
   <stop offset="0%"    stop-color= "#1AD6AB" stop-opacity="1"/>
   <stop offset="100%"  stop-color= "#329DB6" stop-opacity="1"/>
  </linearGradient>
  <linearGradient id="oomox" x1="0%" x2="0%" y1="0%" y2="100%">
   <stop offset="0%"    stop-color= "#a4d8d4" stop-opacity="1"/>
   <stop offset="100%"  stop-color= "#318c85" stop-opacity="1"/>
  </linearGradient>
  <linearGradient id="rainblue" x1="0%" x2="0%" y1="0%" y2="100%">
   <stop offset="0%"    stop-color= "#00F260" stop-opacity="1"/>
   <stop offset="100%"  stop-color= "#0575E6" stop-opacity="1"/>
  </linearGradient>
  <linearGradient id="sunrise" x1="0%" x2="0%" y1="0%" y2="100%">
   <stop offset="0%"    stop-color= "#FF8501" stop-opacity="1"/>
   <stop offset="100%"  stop-color= "#FFCB01" stop-opacity="1"/>
  </linearGradient>
  <linearGradient id="telinkrin" x1="0%" x2="0%" y1="0%" y2="100%">
   <stop offset="0%"    stop-color= "#b2ced6" stop-opacity="1"/>
   <stop offset="100%"  stop-color= "#6da5b7" stop-opacity="1"/>
  </linearGradient>
  <linearGradient id="60spsycho" x1="0%" x2="0%" y1="0%" y2="100%">
   <stop offset="0%"    stop-color= "#df5940" stop-opacity="1"/>
   <stop offset="25%"   stop-color= "#d8d15f" stop-opacity="1"/>
   <stop offset="50%"   stop-color= "#e9882a" stop-opacity="1"/>
   <stop offset="100%"  stop-color= "#279362" stop-opacity="1"/>
  </linearGradient>
  <linearGradient id="90ssummer" x1="0%" x2="0%" y1="0%" y2="100%">
   <stop offset="0%"    stop-color= "#f618c7" stop-opacity="1"/>
   <stop offset="20%"   stop-color= "#94ffab" stop-opacity="1"/>
   <stop offset="50%"   stop-color= "#fbfd54" stop-opacity="1"/>
   <stop offset="100%"  stop-color= "#0f83ae" stop-opacity="1"/>
  </linearGradient>
 </defs>
 <path fill="url(#oomox)" class="ColorScheme-Text" d="M 1.6347,7.1666 C 1.6347,7.1666 3.1127,4.7474 6.001,4.4971 V 3.6195 C 2.8019,3.9105 0,6.9818 0,6.9818 0,6.9818 1.6006,12.124 6.001,12.594 V 11.661 C 2.7718,11.2 1.6347,7.1658 1.6347,7.1658 Z M 6.001,9.8059 V 10.66 C 3.5604,10.167 2.8515,7.2909 2.8515,7.2909 2.8515,7.2909 4.0548,5.8192 6.0011,5.5806 V 6.5181 C 5.9999,6.5181 5.9991,6.5177 5.9981,6.5177 4.9766,6.3787 4.1471,7.4606 4.1471,7.4606 4.1471,7.4606 4.6259,9.2813 6.0018,9.805 M 6.0018,2 V 3.6188 C 6.0957,3.6107 6.1581,3.6038 6.2525,3.6001 9.8895,3.4612 12.26,6.9813 12.26,6.9813 12.26,6.9813 9.5375,10.732 6.7019,10.732 6.442,10.732 6.2303,10.706 6.0018,10.66 V 11.661 C 6.1971,11.689 6.3683,11.705 6.5797,11.705 9.2182,11.705 11.127,10.178 12.974,8.3701 13.281,8.6478 14.535,9.325 14.793,9.6207 13.036,11.288 8.9417,12.632 6.6201,12.632 6.3963,12.632 6.2129,12.617 6.0017,12.593 V 14 H 16 V 2 H 6.0017 Z M 6.0018,5.5807 V 4.4965 C 6.0947,4.4902 6.1568,4.4835 6.2525,4.4801 8.8678,4.3869 10.584,7.0277 10.584,7.0277 10.584,7.0277 8.7306,9.9456 6.7433,9.9456 6.4573,9.9456 6.2324,9.8933 6.0016,9.805 V 6.5182 C 7.0198,6.6576 7.1932,7.1675 7.8057,8.3238 L 9.1672,7.0228 C 9.1672,7.0228 8.1729,5.5454 6.4978,5.5454 6.3157,5.5453 6.173,5.5599 6.0019,5.5805"/>
</svg>
