<svg xmlns="http://www.w3.org/2000/svg" width="16" height="16" version="1.1">
 <defs>
   <style id="current-color-scheme" type="text/css">
   .ColorScheme-Text { color: #d3dae3; } .ColorScheme-Highlight { color: #1AD6AB; }
  </style>
  <linearGradient id="arrongin" x1="0%" x2="0%" y1="0%" y2="100%">
   <stop offset="0%"    stop-color= "#dd9b44" stop-opacity="1"/>
   <stop offset="100%"  stop-color= "#ad6c16" stop-opacity="1"/>
  </linearGradient>
  <linearGradient id="aurora" x1="0%" x2="0%" y1="0%" y2="100%">
   <stop offset="0%"    stop-color= "#09D4DF" stop-opacity="1"/>
   <stop offset="100%"  stop-color= "#9269F4" stop-opacity="1"/>
  </linearGradient> 
  <linearGradient id="cyberblue" x1="0%" x2="0%" y1="0%" y2="100%">
   <stop offset="0%"    stop-color= "#07B3FF" stop-opacity="1"/>
   <stop offset="100%"  stop-color= "#007DE8" stop-opacity="1"/>
  </linearGradient>
  <linearGradient id="cyberneon" x1="0%" x2="0%" y1="0%" y2="100%">
    <stop offset="0%"   stop-color= "#0abdc6" stop-opacity="1"/>
    <stop offset="100%" stop-color= "#ea00d9" stop-opacity="1"/>
  </linearGradient>
  <linearGradient id="fitdance" x1="0%" x2="0%" y1="0%" y2="100%">
   <stop offset="0%"    stop-color= "#1AD6AB" stop-opacity="1"/>
   <stop offset="100%"  stop-color= "#329DB6" stop-opacity="1"/>
  </linearGradient>
  <linearGradient id="oomox" x1="0%" x2="0%" y1="0%" y2="100%">
   <stop offset="0%"    stop-color= "#a4d8d4" stop-opacity="1"/>
   <stop offset="100%"  stop-color= "#318c85" stop-opacity="1"/>
  </linearGradient>
  <linearGradient id="rainblue" x1="0%" x2="0%" y1="0%" y2="100%">
   <stop offset="0%"    stop-color= "#00F260" stop-opacity="1"/>
   <stop offset="100%"  stop-color= "#0575E6" stop-opacity="1"/>
  </linearGradient>
  <linearGradient id="redcarbon" x1="0%" x2="0%" y1="0%" y2="100%">
   <stop offset="0%"    stop-color= "#FF6D57" stop-opacity="1"/>
   <stop offset="50%"   stop-color= "#FF5160" stop-opacity="1"/>
   <stop offset="100%"  stop-color= "#F50F22" stop-opacity="1"/>
  </linearGradient>
  <linearGradient id="sunrise" x1="0%" x2="0%" y1="0%" y2="100%">
   <stop offset="0%"    stop-color= "#FF8501" stop-opacity="1"/>
   <stop offset="100%"  stop-color= "#FFCB01" stop-opacity="1"/>
  </linearGradient>
  <linearGradient id="telinkrin" x1="0%" x2="0%" y1="0%" y2="100%">
   <stop offset="0%"    stop-color= "#b2ced6" stop-opacity="1"/>
   <stop offset="100%"  stop-color= "#6da5b7" stop-opacity="1"/>
  </linearGradient>
  <linearGradient id="60spsycho" x1="0%" x2="0%" y1="0%" y2="100%">
   <stop offset="0%"    stop-color= "#df5940" stop-opacity="1"/>
   <stop offset="25%"   stop-color= "#d8d15f" stop-opacity="1"/>
   <stop offset="50%"   stop-color= "#e9882a" stop-opacity="1"/>
   <stop offset="100%"  stop-color= "#279362" stop-opacity="1"/>
  </linearGradient>
  <linearGradient id="90ssummer" x1="0%" x2="0%" y1="0%" y2="100%">
   <stop offset="0%"    stop-color= "#f618c7" stop-opacity="1"/>
   <stop offset="20%"   stop-color= "#94ffab" stop-opacity="1"/>
   <stop offset="50%"   stop-color= "#fbfd54" stop-opacity="1"/>
   <stop offset="100%"  stop-color= "#0f83ae" stop-opacity="1"/>
  </linearGradient>
 </defs>
 <path fill="url(#oomox)" class="ColorScheme-Text" d="m 3,1.0097656 c -1.108,0 -2,0.892 -2,2 V 13.009766 c 0,1.108 0.892,2 2,2 h 10 c 1.108,0 2,-0.892 2,-2 V 3.0097656 c 0,-1.1082 -0.892,-2 -2,-2 z M 6.0816406,3 H 6.4 V 3.7558594 H 6.0464844 c -0.472,0 -0.7783219,0.079175 -0.9199219,0.234375 -0.145,0.1517 -0.21875,0.4776156 -0.21875,0.9785156 v 1.3125 c 0,0.5538 -0.074763,0.9546781 -0.2265625,1.2050781 -0.1517,0.2505 -0.4148625,0.4197125 -0.7890625,0.5078125 0.3742,0.0953 0.6373625,0.2690313 0.7890625,0.5195313 0.1518,0.2504 0.2265625,0.6509718 0.2265625,1.2011719 v 1.3125002 c 0,0.505 0.07375,0.830422 0.21875,0.982422 0.1416,0.151 0.4479219,0.228515 0.9199219,0.228515 H 6.4 V 13 H 6.0816406 c -0.8394,0 -1.3998875,-0.129625 -1.6796875,-0.390625 -0.2832,-0.261 -0.4238281,-0.7835 -0.4238281,-1.5625 V 9.7832031 c 0,-0.5326 -0.091438,-0.9008687 -0.2734375,-1.1054687 -0.1821,-0.2046 -1.4689344,-0.3066406 -0.9902344,-0.3066406 H 2.4 V 7.6132812 h 0.3144531 c 0.4787,0 0.8081344,-0.099681 0.9902344,-0.3007812 0.182,-0.2046 0.2734375,-0.5701031 0.2734375,-1.0957031 V 4.9472656 c 0,-0.7796 0.1406281,-1.2991406 0.4238281,-1.5566406 C 4.6817531,3.129625 5.2422406,3 6.0816406,3 Z M 9.6,3 h 0.3183594 c 0.8395996,0 1.3996876,0.129625 1.6796876,0.390625 0.283,0.2575 0.423828,0.7770406 0.423828,1.5566406 v 1.2695313 c 0,0.5256 0.09144,0.8911031 0.273437,1.0957031 0.182001,0.2011 1.469235,0.3007812 0.990235,0.3007812 H 13.6 v 0.7578126 h -0.314453 c -0.479,0 -0.808234,0.1020406 -0.990235,0.3066406 -0.182,0.2046 -0.273437,0.5728687 -0.273437,1.1054687 v 1.2636719 c 0,0.779 -0.140828,1.3015 -0.423828,1.5625 C 11.318047,12.870375 10.757959,13 9.9183594,13 H 9.6 v -0.761719 h 0.3535156 c 0.4720004,0 0.7789214,-0.07752 0.9199224,-0.228515 0.144999,-0.152 0.218749,-0.477422 0.21875,-0.982422 V 9.7148438 c 0,-0.5502001 0.07456,-0.9507719 0.226562,-1.2011719 0.151,-0.2505 0.415062,-0.4242313 0.789062,-0.5195313 -0.374,-0.0881 -0.638062,-0.2573125 -0.789062,-0.5078125 -0.152,-0.2504 -0.226562,-0.6512781 -0.226562,-1.2050781 v -1.3125 c 0,-0.5009 -0.07375,-0.8268156 -0.21875,-0.9785156 -0.141001,-0.1552 -0.447922,-0.234375 -0.9199224,-0.234375 H 9.6 Z"/>
</svg>
