<svg xmlns="http://www.w3.org/2000/svg" width="16" height="16" version="1.1">
 <defs>
   <style id="current-color-scheme" type="text/css">
   .ColorScheme-Text { color: #d3dae3; } .ColorScheme-Highlight { color: #1AD6AB; }
  </style>
  <linearGradient id="arrongin" x1="0%" x2="0%" y1="0%" y2="100%">
   <stop offset="0%"    stop-color= "#dd9b44" stop-opacity="1"/>
   <stop offset="100%"  stop-color= "#ad6c16" stop-opacity="1"/>
  </linearGradient>
  <linearGradient id="aurora" x1="0%" x2="0%" y1="0%" y2="100%">
   <stop offset="0%"    stop-color= "#09D4DF" stop-opacity="1"/>
   <stop offset="100%"  stop-color= "#9269F4" stop-opacity="1"/>
  </linearGradient> 
  <linearGradient id="cyberblue" x1="0%" x2="0%" y1="0%" y2="100%">
   <stop offset="0%"    stop-color= "#07B3FF" stop-opacity="1"/>
   <stop offset="100%"  stop-color= "#007DE8" stop-opacity="1"/>
  </linearGradient>
  <linearGradient id="cyberneon" x1="0%" x2="0%" y1="0%" y2="100%">
    <stop offset="0%"   stop-color= "#0abdc6" stop-opacity="1"/>
    <stop offset="100%" stop-color= "#ea00d9" stop-opacity="1"/>
  </linearGradient>
  <linearGradient id="fitdance" x1="0%" x2="0%" y1="0%" y2="100%">
   <stop offset="0%"    stop-color= "#1AD6AB" stop-opacity="1"/>
   <stop offset="100%"  stop-color= "#329DB6" stop-opacity="1"/>
  </linearGradient>
  <linearGradient id="oomox" x1="0%" x2="0%" y1="0%" y2="100%">
   <stop offset="0%"    stop-color= "#a4d8d4" stop-opacity="1"/>
   <stop offset="100%"  stop-color= "#318c85" stop-opacity="1"/>
  </linearGradient>
  <linearGradient id="rainblue" x1="0%" x2="0%" y1="0%" y2="100%">
   <stop offset="0%"    stop-color= "#00F260" stop-opacity="1"/>
   <stop offset="100%"  stop-color= "#0575E6" stop-opacity="1"/>
  </linearGradient>
  <linearGradient id="redcarbon" x1="0%" x2="0%" y1="0%" y2="100%">
   <stop offset="0%"    stop-color= "#FF6D57" stop-opacity="1"/>
   <stop offset="50%"   stop-color= "#FF5160" stop-opacity="1"/>
   <stop offset="100%"  stop-color= "#F50F22" stop-opacity="1"/>
  </linearGradient>
  <linearGradient id="sunrise" x1="0%" x2="0%" y1="0%" y2="100%">
   <stop offset="0%"    stop-color= "#FF8501" stop-opacity="1"/>
   <stop offset="100%"  stop-color= "#FFCB01" stop-opacity="1"/>
  </linearGradient>
  <linearGradient id="telinkrin" x1="0%" x2="0%" y1="0%" y2="100%">
   <stop offset="0%"    stop-color= "#b2ced6" stop-opacity="1"/>
   <stop offset="100%"  stop-color= "#6da5b7" stop-opacity="1"/>
  </linearGradient>
  <linearGradient id="60spsycho" x1="0%" x2="0%" y1="0%" y2="100%">
   <stop offset="0%"    stop-color= "#df5940" stop-opacity="1"/>
   <stop offset="25%"   stop-color= "#d8d15f" stop-opacity="1"/>
   <stop offset="50%"   stop-color= "#e9882a" stop-opacity="1"/>
   <stop offset="100%"  stop-color= "#279362" stop-opacity="1"/>
  </linearGradient>
  <linearGradient id="90ssummer" x1="0%" x2="0%" y1="0%" y2="100%">
   <stop offset="0%"    stop-color= "#f618c7" stop-opacity="1"/>
   <stop offset="20%"   stop-color= "#94ffab" stop-opacity="1"/>
   <stop offset="50%"   stop-color= "#fbfd54" stop-opacity="1"/>
   <stop offset="100%"  stop-color= "#0f83ae" stop-opacity="1"/>
  </linearGradient>
 </defs>
 <path fill="url(#oomox)" class="ColorScheme-Text" d="M 8 0 A 8 8 0 0 0 0 8 A 8 8 0 0 0 8 16 A 8 8 0 0 0 16 8 A 8 8 0 0 0 8 0 z M 8 1 A 7 7 0 0 1 15 8 A 7 7 0 0 1 8 15 A 7 7 0 0 1 1 8 A 7 7 0 0 1 8 1 z"/>
 <path fill="url(#oomox)" class="ColorScheme-Text" opacity="0.3" d="M 0.03515625 7.2636719 C 0.03295625 7.2870519 0.03325 7.3105844 0.03125 7.3339844 A 8 8 0 0 1 0.0390625 7.2753906 C 0.0380959 7.2714906 0.03608625 7.2675919 0.03515625 7.2636719 z M 1.015625 8.4433594 A 7 7 0 0 0 8 15 A 7 7 0 0 0 14.976562 8.453125 C 13.602563 9.378125 10.987 10 8 10 C 5.003 9.999 2.383825 9.3733594 1.015625 8.4433594 z M 15.964844 8.6875 A 8 8 0 0 1 15.910156 9.140625 C 15.931686 8.990225 15.951794 8.84047 15.964844 8.6875 z M 0.041015625 8.8183594 A 8 8 0 0 0 0.2265625 9.8515625 C 0.14609287 9.5135539 0.076901364 9.1717202 0.041015625 8.8183594 z M 0.2265625 9.8515625 C 0.24889991 9.9453897 0.27126023 10.038347 0.296875 10.130859 A 8 8 0 0 1 0.2265625 9.8515625 z M 0.296875 10.130859 A 8 8 0 0 0 0.62890625 11.113281 C 0.49517647 10.797125 0.38967333 10.466016 0.296875 10.130859 z M 15.861328 9.4511719 A 8 8 0 0 1 15.755859 9.9335938 C 15.795489 9.7742738 15.831408 9.6141119 15.861328 9.4511719 z M 15.677734 10.234375 A 8 8 0 0 1 15.525391 10.693359 C 15.579661 10.541809 15.632504 10.389995 15.677734 10.234375 z M 15.417969 10.984375 A 8 8 0 0 1 15.208984 11.451172 C 15.282714 11.297512 15.353959 11.143295 15.417969 10.984375 z M 0.63085938 11.115234 C 0.73478938 11.360714 0.8495525 11.599801 0.9765625 11.832031 A 8 8 0 0 1 0.63085938 11.115234 z M 15.09375 11.689453 A 8 8 0 0 1 14.853516 12.111328 C 14.936816 11.972798 15.01877 11.833283 15.09375 11.689453 z M 1.0800781 12 C 1.1752961 12.16432 1.2706431 12.329678 1.3769531 12.486328 A 8 8 0 0 1 1.0800781 12 z M 14.677734 12.398438 A 8 8 0 0 1 14.445312 12.724609 C 14.524462 12.616829 14.603954 12.510237 14.677734 12.398438 z M 1.6152344 12.804688 A 8 8 0 0 0 1.8535156 13.115234 C 1.7701356 13.015154 1.6956815 12.908817 1.6171875 12.804688 L 1.6152344 12.804688 z M 14.216797 13.03125 A 8 8 0 0 1 13.947266 13.335938 C 14.037856 13.235057 14.131367 13.13666 14.216797 13.03125 z M 2.1210938 13.412109 C 2.2068708 13.505229 2.2907994 13.600503 2.3808594 13.689453 A 8 8 0 0 1 2.1210938 13.412109 z M 13.689453 13.619141 A 8 8 0 0 1 13.412109 13.878906 C 13.505229 13.793126 13.600503 13.709191 13.689453 13.619141 z M 2.6640625 13.947266 C 2.7649425 14.037856 2.86334 14.131367 2.96875 14.216797 A 8 8 0 0 1 2.6640625 13.947266 z M 13.115234 14.148438 A 8 8 0 0 1 12.804688 14.384766 C 12.908817 14.306266 13.015154 14.231817 13.115234 14.148438 z M 3.2753906 14.445312 C 3.3831706 14.524462 3.4897625 14.603954 3.6015625 14.677734 A 8 8 0 0 1 3.2753906 14.445312 z M 12.486328 14.623047 A 8 8 0 0 1 12 14.919922 C 12.16432 14.824702 12.329678 14.729357 12.486328 14.623047 z M 3.8886719 14.853516 C 4.0272019 14.936816 4.1667169 15.01877 4.3105469 15.09375 A 8 8 0 0 1 3.8886719 14.853516 z M 4.5488281 15.208984 C 4.7024881 15.282714 4.856705 15.353959 5.015625 15.417969 A 8 8 0 0 1 4.5488281 15.208984 z M 11.113281 15.371094 C 10.798514 15.504236 10.470327 15.608596 10.136719 15.701172 A 8 8 0 0 0 11.113281 15.371094 z M 10.136719 15.701172 A 8 8 0 0 1 9.8515625 15.775391 C 9.9475434 15.752566 10.042114 15.727425 10.136719 15.701172 z M 9.8515625 15.775391 C 9.5141736 15.855622 9.1710388 15.923166 8.8183594 15.958984 A 8 8 0 0 0 9.8515625 15.775391 z M 5.3066406 15.525391 C 5.4581906 15.579661 5.610005 15.632504 5.765625 15.677734 A 8 8 0 0 1 5.3066406 15.525391 z M 6.0664062 15.755859 L 6.0664062 15.757812 A 8 8 0 0 0 6.5488281 15.861328 C 6.3858881 15.831408 6.2257262 15.795489 6.0664062 15.755859 z M 6.859375 15.910156 C 7.009775 15.931686 7.15953 15.951794 7.3125 15.964844 A 8 8 0 0 1 6.859375 15.910156 z"/>
</svg>
