<svg xmlns="http://www.w3.org/2000/svg" width="16" height="16" version="1.1">
 <defs>
   <style id="current-color-scheme" type="text/css">
   .ColorScheme-Text { color: #d3dae3; } .ColorScheme-Highlight { color: #1AD6AB; }
  </style>
  <linearGradient id="arrongin" x1="0%" x2="0%" y1="0%" y2="100%">
   <stop offset="0%"    stop-color= "#dd9b44" stop-opacity="1"/>
   <stop offset="100%"  stop-color= "#ad6c16" stop-opacity="1"/>
  </linearGradient>
  <linearGradient id="aurora" x1="0%" x2="0%" y1="0%" y2="100%">
   <stop offset="0%"    stop-color= "#09D4DF" stop-opacity="1"/>
   <stop offset="100%"  stop-color= "#9269F4" stop-opacity="1"/>
  </linearGradient> 
  <linearGradient id="cyberblue" x1="0%" x2="0%" y1="0%" y2="100%">
   <stop offset="0%"    stop-color= "#07B3FF" stop-opacity="1"/>
   <stop offset="100%"  stop-color= "#007DE8" stop-opacity="1"/>
  </linearGradient>
  <linearGradient id="cyberneon" x1="0%" x2="0%" y1="0%" y2="100%">
    <stop offset="0%"   stop-color= "#0abdc6" stop-opacity="1"/>
    <stop offset="100%" stop-color= "#ea00d9" stop-opacity="1"/>
  </linearGradient>
  <linearGradient id="fitdance" x1="0%" x2="0%" y1="0%" y2="100%">
   <stop offset="0%"    stop-color= "#1AD6AB" stop-opacity="1"/>
   <stop offset="100%"  stop-color= "#329DB6" stop-opacity="1"/>
  </linearGradient>
  <linearGradient id="oomox" x1="0%" x2="0%" y1="0%" y2="100%">
   <stop offset="0%"    stop-color= "#a4d8d4" stop-opacity="1"/>
   <stop offset="100%"  stop-color= "#318c85" stop-opacity="1"/>
  </linearGradient>
  <linearGradient id="rainblue" x1="0%" x2="0%" y1="0%" y2="100%">
   <stop offset="0%"    stop-color= "#00F260" stop-opacity="1"/>
   <stop offset="100%"  stop-color= "#0575E6" stop-opacity="1"/>
  </linearGradient>
  <linearGradient id="redcarbon" x1="0%" x2="0%" y1="0%" y2="100%">
   <stop offset="0%"    stop-color= "#FF6D57" stop-opacity="1"/>
   <stop offset="50%"   stop-color= "#FF5160" stop-opacity="1"/>
   <stop offset="100%"  stop-color= "#F50F22" stop-opacity="1"/>
  </linearGradient>
  <linearGradient id="sunrise" x1="0%" x2="0%" y1="0%" y2="100%">
   <stop offset="0%"    stop-color= "#FF8501" stop-opacity="1"/>
   <stop offset="100%"  stop-color= "#FFCB01" stop-opacity="1"/>
  </linearGradient>
  <linearGradient id="telinkrin" x1="0%" x2="0%" y1="0%" y2="100%">
   <stop offset="0%"    stop-color= "#b2ced6" stop-opacity="1"/>
   <stop offset="100%"  stop-color= "#6da5b7" stop-opacity="1"/>
  </linearGradient>
  <linearGradient id="60spsycho" x1="0%" x2="0%" y1="0%" y2="100%">
   <stop offset="0%"    stop-color= "#df5940" stop-opacity="1"/>
   <stop offset="25%"   stop-color= "#d8d15f" stop-opacity="1"/>
   <stop offset="50%"   stop-color= "#e9882a" stop-opacity="1"/>
   <stop offset="100%"  stop-color= "#279362" stop-opacity="1"/>
  </linearGradient>
  <linearGradient id="90ssummer" x1="0%" x2="0%" y1="0%" y2="100%">
   <stop offset="0%"    stop-color= "#f618c7" stop-opacity="1"/>
   <stop offset="20%"   stop-color= "#94ffab" stop-opacity="1"/>
   <stop offset="50%"   stop-color= "#fbfd54" stop-opacity="1"/>
   <stop offset="100%"  stop-color= "#0f83ae" stop-opacity="1"/>
  </linearGradient>
 </defs>
 <path fill="url(#oomox)" class="ColorScheme-Text" d="M 9.7890625 3.890625 L 8.9980469 4.5 L 11.263672 7.4453125 L 8.9980469 10.390625 L 9.7890625 11 L 11.894531 8.2636719 L 13.998047 11 L 14.789062 10.390625 L 12.525391 7.4453125 L 14.789062 4.5 L 13.998047 3.890625 L 11.894531 6.6269531 L 9.7890625 3.890625 z M -0.001953125 4 L -0.001953125 5 L 1.9980469 5 L 1.9980469 11 L 2.9980469 11 L 2.9980469 5 L 4.9980469 5 L 4.9980469 4 L -0.001953125 4 z M 3.9980469 6 L 3.9980469 7 L 3.9980469 8.5 L 3.9980469 9.5 L 3.9980469 12 L 3.9980469 13 L 8.9980469 13 L 8.9980469 12 L 4.9980469 12 L 4.9980469 10 L 8.9980469 10 L 8.9980469 9 L 4.9980469 9 L 4.9980469 7 L 8.9980469 7 L 8.9980469 6 L 3.9980469 6 z"/>
</svg>
