<svg xmlns="http://www.w3.org/2000/svg" width="24" height="24" version="1.1">
 <defs>
   <style id="current-color-scheme" type="text/css">
   .ColorScheme-Text { color: #d3dae3; } .ColorScheme-Highlight { color: #1AD6AB; }
  </style>
  <linearGradient id="arrongin" x1="0%" x2="0%" y1="0%" y2="100%">
   <stop offset="0%"    stop-color= "#dd9b44" stop-opacity="1"/>
   <stop offset="100%"  stop-color= "#ad6c16" stop-opacity="1"/>
  </linearGradient>
  <linearGradient id="aurora" x1="0%" x2="0%" y1="0%" y2="100%">
   <stop offset="0%"    stop-color= "#09D4DF" stop-opacity="1"/>
   <stop offset="100%"  stop-color= "#9269F4" stop-opacity="1"/>
  </linearGradient> 
  <linearGradient id="cyberblue" x1="0%" x2="0%" y1="0%" y2="100%">
   <stop offset="0%"    stop-color= "#07B3FF" stop-opacity="1"/>
   <stop offset="100%"  stop-color= "#007DE8" stop-opacity="1"/>
  </linearGradient>
  <linearGradient id="cyberneon" x1="0%" x2="0%" y1="0%" y2="100%">
    <stop offset="0%"   stop-color= "#0abdc6" stop-opacity="1"/>
    <stop offset="100%" stop-color= "#ea00d9" stop-opacity="1"/>
  </linearGradient>
  <linearGradient id="fitdance" x1="0%" x2="0%" y1="0%" y2="100%">
   <stop offset="0%"    stop-color= "#1AD6AB" stop-opacity="1"/>
   <stop offset="100%"  stop-color= "#329DB6" stop-opacity="1"/>
  </linearGradient>
  <linearGradient id="oomox" x1="0%" x2="0%" y1="0%" y2="100%">
   <stop offset="0%"    stop-color= "#a4d8d4" stop-opacity="1"/>
   <stop offset="100%"  stop-color= "#318c85" stop-opacity="1"/>
  </linearGradient>
  <linearGradient id="rainblue" x1="0%" x2="0%" y1="0%" y2="100%">
   <stop offset="0%"    stop-color= "#00F260" stop-opacity="1"/>
   <stop offset="100%"  stop-color= "#0575E6" stop-opacity="1"/>
  </linearGradient>
  <linearGradient id="redcarbon" x1="0%" x2="0%" y1="0%" y2="100%">
   <stop offset="0%"    stop-color= "#FF6D57" stop-opacity="1"/>
   <stop offset="50%"   stop-color= "#FF5160" stop-opacity="1"/>
   <stop offset="100%"  stop-color= "#F50F22" stop-opacity="1"/>
  </linearGradient>
  <linearGradient id="sunrise" x1="0%" x2="0%" y1="0%" y2="100%">
   <stop offset="0%"    stop-color= "#FF8501" stop-opacity="1"/>
   <stop offset="100%"  stop-color= "#FFCB01" stop-opacity="1"/>
  </linearGradient>
  <linearGradient id="telinkrin" x1="0%" x2="0%" y1="0%" y2="100%">
   <stop offset="0%"    stop-color= "#b2ced6" stop-opacity="1"/>
   <stop offset="100%"  stop-color= "#6da5b7" stop-opacity="1"/>
  </linearGradient>
  <linearGradient id="60spsycho" x1="0%" x2="0%" y1="0%" y2="100%">
   <stop offset="0%"    stop-color= "#df5940" stop-opacity="1"/>
   <stop offset="25%"   stop-color= "#d8d15f" stop-opacity="1"/>
   <stop offset="50%"   stop-color= "#e9882a" stop-opacity="1"/>
   <stop offset="100%"  stop-color= "#279362" stop-opacity="1"/>
  </linearGradient>
  <linearGradient id="90ssummer" x1="0%" x2="0%" y1="0%" y2="100%">
   <stop offset="0%"    stop-color= "#f618c7" stop-opacity="1"/>
   <stop offset="20%"   stop-color= "#94ffab" stop-opacity="1"/>
   <stop offset="50%"   stop-color= "#fbfd54" stop-opacity="1"/>
   <stop offset="100%"  stop-color= "#0f83ae" stop-opacity="1"/>
  </linearGradient>
 </defs>
 <path fill="url(#oomox)" class="ColorScheme-Text" d="m3.0078 1c-2.2487 0-2 2-2 2v12h13.992v-10h-1.998v8h-9.9942v-8h7.9922v-4h-7.9922zm8.9922 0v4l3-2-3-2zm-5.5664 5c-1.0655 0-1.5137 0.3522-1.5137 1.2539 0 0-0.0244 0.5874-0.0312 0.7461-0.0462 0.3689-0.1754 0.6777-0.5782 0.6777h-0.3046v0.6446h0.3046c0.5886 0 0.6094 0.6442 0.6094 1.2007-0.005 0.174 0.0136 0.369 0.0176 0.477 0.0833 0.712 0.5388 1 1.4961 1v-0.592c-0.4495 0-0.6064-0.118-0.6699-0.408-0.0337-0.116-0.0372-0.514-0.0508-0.705 0-0.4155-0.124-1.0347-0.7227-1.2911 0.4731-0.2026 0.6441-0.6283 0.6973-1.0039 0.0239-0.1041 0.0186-0.2223 0.0254-0.3027 0-0.8663 0.0104-1.1055 0.7207-1.1055v-0.5918zm3.1426 0v0.5918c0.7098 0 0.7188 0.2392 0.7188 1.1055 0.007 0.0804 0.002 0.1986 0.025 0.3027 0.054 0.3756 0.225 0.8013 0.698 1.0039-0.599 0.2564-0.723 0.8756-0.723 1.2911-0.014 0.191-0.017 0.589-0.051 0.705-0.063 0.29-0.218 0.408-0.6678 0.408v0.592c0.9568 0 1.4108-0.288 1.4938-1 0.004-0.108 0.023-0.303 0.018-0.477 0-0.5565 0.021-1.2007 0.609-1.2007h0.305v-0.6446h-0.305c-0.402 0-0.532-0.3088-0.578-0.6777-0.007-0.1587-0.031-0.7461-0.031-0.7461 0-0.9017-0.446-1.2539-1.5118-1.2539z" transform="translate(4 4)"/>
</svg>
