<svg xmlns="http://www.w3.org/2000/svg" width="24" height="24" version="1.1">
 <defs>
   <style id="current-color-scheme" type="text/css">
   .ColorScheme-Text { color: #d3dae3; } .ColorScheme-Highlight { color: #1AD6AB; }
  </style>
  <linearGradient id="arrongin" x1="0%" x2="0%" y1="0%" y2="100%">
   <stop offset="0%"    stop-color= "#dd9b44" stop-opacity="1"/>
   <stop offset="100%"  stop-color= "#ad6c16" stop-opacity="1"/>
  </linearGradient>
  <linearGradient id="aurora" x1="0%" x2="0%" y1="0%" y2="100%">
   <stop offset="0%"    stop-color= "#09D4DF" stop-opacity="1"/>
   <stop offset="100%"  stop-color= "#9269F4" stop-opacity="1"/>
  </linearGradient> 
  <linearGradient id="cyberblue" x1="0%" x2="0%" y1="0%" y2="100%">
   <stop offset="0%"    stop-color= "#07B3FF" stop-opacity="1"/>
   <stop offset="100%"  stop-color= "#007DE8" stop-opacity="1"/>
  </linearGradient>
  <linearGradient id="cyberneon" x1="0%" x2="0%" y1="0%" y2="100%">
    <stop offset="0%"   stop-color= "#0abdc6" stop-opacity="1"/>
    <stop offset="100%" stop-color= "#ea00d9" stop-opacity="1"/>
  </linearGradient>
  <linearGradient id="fitdance" x1="0%" x2="0%" y1="0%" y2="100%">
   <stop offset="0%"    stop-color= "#1AD6AB" stop-opacity="1"/>
   <stop offset="100%"  stop-color= "#329DB6" stop-opacity="1"/>
  </linearGradient>
  <linearGradient id="oomox" x1="0%" x2="0%" y1="0%" y2="100%">
   <stop offset="0%"    stop-color= "#a4d8d4" stop-opacity="1"/>
   <stop offset="100%"  stop-color= "#318c85" stop-opacity="1"/>
  </linearGradient>
  <linearGradient id="rainblue" x1="0%" x2="0%" y1="0%" y2="100%">
   <stop offset="0%"    stop-color= "#00F260" stop-opacity="1"/>
   <stop offset="100%"  stop-color= "#0575E6" stop-opacity="1"/>
  </linearGradient>
  <linearGradient id="redcarbon" x1="0%" x2="0%" y1="0%" y2="100%">
   <stop offset="0%"    stop-color= "#FF6D57" stop-opacity="1"/>
   <stop offset="50%"   stop-color= "#FF5160" stop-opacity="1"/>
   <stop offset="100%"  stop-color= "#F50F22" stop-opacity="1"/>
  </linearGradient>
  <linearGradient id="sunrise" x1="0%" x2="0%" y1="0%" y2="100%">
   <stop offset="0%"    stop-color= "#FF8501" stop-opacity="1"/>
   <stop offset="100%"  stop-color= "#FFCB01" stop-opacity="1"/>
  </linearGradient>
  <linearGradient id="telinkrin" x1="0%" x2="0%" y1="0%" y2="100%">
   <stop offset="0%"    stop-color= "#b2ced6" stop-opacity="1"/>
   <stop offset="100%"  stop-color= "#6da5b7" stop-opacity="1"/>
  </linearGradient>
  <linearGradient id="60spsycho" x1="0%" x2="0%" y1="0%" y2="100%">
   <stop offset="0%"    stop-color= "#df5940" stop-opacity="1"/>
   <stop offset="25%"   stop-color= "#d8d15f" stop-opacity="1"/>
   <stop offset="50%"   stop-color= "#e9882a" stop-opacity="1"/>
   <stop offset="100%"  stop-color= "#279362" stop-opacity="1"/>
  </linearGradient>
  <linearGradient id="90ssummer" x1="0%" x2="0%" y1="0%" y2="100%">
   <stop offset="0%"    stop-color= "#f618c7" stop-opacity="1"/>
   <stop offset="20%"   stop-color= "#94ffab" stop-opacity="1"/>
   <stop offset="50%"   stop-color= "#fbfd54" stop-opacity="1"/>
   <stop offset="100%"  stop-color= "#0f83ae" stop-opacity="1"/>
  </linearGradient>
 </defs>
 <path id="dialog-input-devices" fill="url(#oomox)" class="ColorScheme-Text" d="M 11.2 4 L 9.6 7.2 L 11.2 7.2 L 11.2 14.378125 C 10.790771 14.118188 10.368604 13.888989 9.959375 13.684375 C 9.359375 13.384375 8.805029 13.094824 8.4625 12.809375 C 8.119971 12.523926 8 12.333325 8 12 C 8.883643 12 9.6 11.283667 9.6 10.4 C 9.6 9.516333 8.883643 8.8 8 8.8 C 7.116357 8.8 6.4 9.516333 6.4 10.4 L 6.4 12 C 6.4 12.866675 6.880029 13.576074 7.4375 14.040625 C 7.994971 14.505176 8.64375 14.815625 9.24375 15.115625 C 9.84375 15.415625 10.394971 15.705176 10.7375 15.990625 C 11.080029 16.276074 11.2 16.466675 11.2 16.8 C 10.756787 16.8 10.4 17.156812 10.4 17.6 L 10.4 19.2 C 10.4 19.643188 10.756787 20 11.2 20 L 12.8 20 C 13.243213 20 13.6 19.643188 13.6 19.2 L 13.6 17.6 C 13.6 17.156812 13.243213 16.8 12.8 16.8 L 12.8 15.2 C 12.8 14.866675 12.92002 14.676074 13.2625 14.390625 C 13.605029 14.105176 14.159375 13.815625 14.759375 13.515625 C 15.359375 13.215625 16.005029 12.905176 16.5625 12.440625 C 17.119971 11.976074 17.6 11.266675 17.6 10.4 L 17.6 9.6 L 17.6 8 C 17.6 7.556812 17.243213 7.2 16.8 7.2 L 15.2 7.2 C 14.756787 7.2 14.4 7.556812 14.4 8 L 14.4 9.6 C 14.4 10.043188 14.756787 10.4 15.2 10.4 L 16 10.4 C 16 10.733325 15.87998 10.923926 15.5375 11.209375 C 15.194971 11.494824 14.64375 11.784375 14.04375 12.084375 C 13.634033 12.289233 13.210596 12.517798 12.8 12.778125 L 12.8 7.2 L 14.4 7.2 L 12.8 4 L 11.2 4 Z"/>
</svg>
