<svg xmlns="http://www.w3.org/2000/svg" width="24" height="24" version="1.1">
 <defs>
   <style id="current-color-scheme" type="text/css">
   .ColorScheme-Text { color: #d3dae3; } .ColorScheme-Highlight { color: #1AD6AB; }
  </style>
  <linearGradient id="arrongin" x1="0%" x2="0%" y1="0%" y2="100%">
   <stop offset="0%"    stop-color= "#dd9b44" stop-opacity="1"/>
   <stop offset="100%"  stop-color= "#ad6c16" stop-opacity="1"/>
  </linearGradient>
  <linearGradient id="aurora" x1="0%" x2="0%" y1="0%" y2="100%">
   <stop offset="0%"    stop-color= "#09D4DF" stop-opacity="1"/>
   <stop offset="100%"  stop-color= "#9269F4" stop-opacity="1"/>
  </linearGradient> 
  <linearGradient id="cyberblue" x1="0%" x2="0%" y1="0%" y2="100%">
   <stop offset="0%"    stop-color= "#07B3FF" stop-opacity="1"/>
   <stop offset="100%"  stop-color= "#007DE8" stop-opacity="1"/>
  </linearGradient>
  <linearGradient id="cyberneon" x1="0%" x2="0%" y1="0%" y2="100%">
    <stop offset="0%"   stop-color= "#0abdc6" stop-opacity="1"/>
    <stop offset="100%" stop-color= "#ea00d9" stop-opacity="1"/>
  </linearGradient>
  <linearGradient id="fitdance" x1="0%" x2="0%" y1="0%" y2="100%">
   <stop offset="0%"    stop-color= "#1AD6AB" stop-opacity="1"/>
   <stop offset="100%"  stop-color= "#329DB6" stop-opacity="1"/>
  </linearGradient>
  <linearGradient id="oomox" x1="0%" x2="0%" y1="0%" y2="100%">
   <stop offset="0%"    stop-color= "#a4d8d4" stop-opacity="1"/>
   <stop offset="100%"  stop-color= "#318c85" stop-opacity="1"/>
  </linearGradient>
  <linearGradient id="rainblue" x1="0%" x2="0%" y1="0%" y2="100%">
   <stop offset="0%"    stop-color= "#00F260" stop-opacity="1"/>
   <stop offset="100%"  stop-color= "#0575E6" stop-opacity="1"/>
  </linearGradient>
  <linearGradient id="redcarbon" x1="0%" x2="0%" y1="0%" y2="100%">
   <stop offset="0%"    stop-color= "#FF6D57" stop-opacity="1"/>
   <stop offset="50%"   stop-color= "#FF5160" stop-opacity="1"/>
   <stop offset="100%"  stop-color= "#F50F22" stop-opacity="1"/>
  </linearGradient>
  <linearGradient id="sunrise" x1="0%" x2="0%" y1="0%" y2="100%">
   <stop offset="0%"    stop-color= "#FF8501" stop-opacity="1"/>
   <stop offset="100%"  stop-color= "#FFCB01" stop-opacity="1"/>
  </linearGradient>
  <linearGradient id="telinkrin" x1="0%" x2="0%" y1="0%" y2="100%">
   <stop offset="0%"    stop-color= "#b2ced6" stop-opacity="1"/>
   <stop offset="100%"  stop-color= "#6da5b7" stop-opacity="1"/>
  </linearGradient>
  <linearGradient id="60spsycho" x1="0%" x2="0%" y1="0%" y2="100%">
   <stop offset="0%"    stop-color= "#df5940" stop-opacity="1"/>
   <stop offset="25%"   stop-color= "#d8d15f" stop-opacity="1"/>
   <stop offset="50%"   stop-color= "#e9882a" stop-opacity="1"/>
   <stop offset="100%"  stop-color= "#279362" stop-opacity="1"/>
  </linearGradient>
  <linearGradient id="90ssummer" x1="0%" x2="0%" y1="0%" y2="100%">
   <stop offset="0%"    stop-color= "#f618c7" stop-opacity="1"/>
   <stop offset="20%"   stop-color= "#94ffab" stop-opacity="1"/>
   <stop offset="50%"   stop-color= "#fbfd54" stop-opacity="1"/>
   <stop offset="100%"  stop-color= "#0f83ae" stop-opacity="1"/>
  </linearGradient>
 </defs>
 <path fill="url(#oomox)" class="ColorScheme-Text" d="m1 1v6h6v-6h-6zm8 0v6h6v-6h-6zm-8 8v6h6v-6h-6zm11 0c-2 0-2 1-2 1v2h-1v3h6v-3h-1v-2s0-1-2-1zm0 1c0.373 0 1 0.224 1 0.5v1.5h-2v-1.5c0-0.276 0.627-0.5 1-0.5z" transform="translate(4 4)"/>
</svg>
