<svg xmlns="http://www.w3.org/2000/svg" width="24" height="24" version="1.1">
 <defs>
  <style id="current-color-scheme" type="text/css">
   .ColorScheme-Text { color: #d3dae3; } .ColorScheme-Highlight { color: #1AD6AB; }
  </style>
  <linearGradient id="arrongin" x1="0%" x2="0%" y1="0%" y2="100%">
   <stop offset="0%" stop-color="#dd9b44"/>
   <stop offset="100%" stop-color="#ad6c16"/>
  </linearGradient>
  <linearGradient id="aurora" x1="0%" x2="0%" y1="0%" y2="100%">
   <stop offset="0%" stop-color="#09D4DF"/>
   <stop offset="100%" stop-color="#9269F4"/>
  </linearGradient>
  <linearGradient id="cyberblue" x1="0%" x2="0%" y1="0%" y2="100%">
   <stop offset="0%" stop-color="#07B3FF"/>
   <stop offset="100%" stop-color="#007DE8"/>
  </linearGradient>
  <linearGradient id="cyberneon" x1="0%" x2="0%" y1="0%" y2="100%">
   <stop offset="0%" stop-color="#0abdc6"/>
   <stop offset="100%" stop-color="#ea00d9"/>
  </linearGradient>
  <linearGradient id="fitdance" x1="0%" x2="0%" y1="0%" y2="100%">
   <stop offset="0%" stop-color="#1AD6AB"/>
   <stop offset="100%" stop-color="#329DB6"/>
  </linearGradient>
  <linearGradient id="oomox" x1="0%" x2="0%" y1="0%" y2="100%">
   <stop offset="0%" stop-color="#a4d8d4"/>
   <stop offset="100%" stop-color="#318c85"/>
  </linearGradient>
  <linearGradient id="rainblue" x1="0%" x2="0%" y1="0%" y2="100%">
   <stop offset="0%" stop-color="#00F260"/>
   <stop offset="100%" stop-color="#0575E6"/>
  </linearGradient>
  <linearGradient id="redcarbon" x1="0%" x2="0%" y1="0%" y2="100%">
   <stop offset="0%" stop-color="#FF6D57"/>
   <stop offset="50%" stop-color="#FF5160"/>
   <stop offset="100%" stop-color="#F50F22"/>
  </linearGradient>
  <linearGradient id="sunrise" x1="0%" x2="0%" y1="0%" y2="100%">
   <stop offset="0%" stop-color="#FF8501"/>
   <stop offset="100%" stop-color="#FFCB01"/>
  </linearGradient>
  <linearGradient id="telinkrin" x1="0%" x2="0%" y1="0%" y2="100%">
   <stop offset="0%" stop-color="#b2ced6"/>
   <stop offset="100%" stop-color="#6da5b7"/>
  </linearGradient>
  <linearGradient id="60spsycho" x1="0%" x2="0%" y1="0%" y2="100%">
   <stop offset="0%" stop-color="#df5940"/>
   <stop offset="25%" stop-color="#d8d15f"/>
   <stop offset="50%" stop-color="#e9882a"/>
   <stop offset="100%" stop-color="#279362"/>
  </linearGradient>
  <linearGradient id="90ssummer" x1="0%" x2="0%" y1="0%" y2="100%">
   <stop offset="0%" stop-color="#f618c7"/>
   <stop offset="20%" stop-color="#94ffab"/>
   <stop offset="50%" stop-color="#fbfd54"/>
   <stop offset="100%" stop-color="#0f83ae"/>
  </linearGradient>
 </defs>
 <g transform="translate(4,4)">
  <path fill="url(#oomox)" class="ColorScheme-Text" opacity="0.3" d="M 2,2 C 2,2 0,2 0,4 V 12 C 0,14 2,14 2,14 H 13 C 13,14 15,14 15,12 V 4 C 15,2 13,2 13,2 Z M 2.25,4 H 3.75 C 3.8885,4 4,4.1115 4,4.25 V 5.75 C 4,5.8885 3.8885,6 3.75,6 H 2.25 C 2.1115,6 2,5.8885 2,5.75 V 4.25 C 2,4.1115 2.1115,4 2.25,4 Z M 5.25,4 H 6.75 C 6.8885,4 7,4.1115 7,4.25 V 5.75 C 7,5.8885 6.8885,6 6.75,6 H 5.25 C 5.1115,6 5,5.8885 5,5.75 V 4.25 C 5,4.1115 5.1115,4 5.25,4 Z M 8.25,4 H 9.75 C 9.8885,4 10,4.1115 10,4.25 V 5.75 C 10,5.8885 9.8885,6 9.75,6 H 8.25 C 8.1115,6 8,5.8885 8,5.75 V 4.25 C 8,4.1115 8.1115,4 8.25,4 Z M 11.25,4 H 12.75 C 12.889,4 13,4.1115 13,4.25 V 5.75 C 13,5.8885 12.889,6 12.75,6 H 11.25 C 11.112,6 11,5.8885 11,5.75 V 4.25 C 11,4.1115 11.112,4 11.25,4 Z M 2.25,7 H 3.75 C 3.8885,7 4,7.1115 4,7.25 V 8.75 C 4,8.8885 3.8885,9 3.75,9 H 2.25 C 2.1115,9 2,8.8885 2,8.75 V 7.25 C 2,7.1115 2.1115,7 2.25,7 Z M 5.25,7 H 6.75 C 6.8885,7 7,7.1115 7,7.25 V 8.75 C 7,8.8885 6.8885,9 6.75,9 H 5.25 C 5.1115,9 5,8.8885 5,8.75 V 7.25 C 5,7.1115 5.1115,7 5.25,7 Z M 8.25,7 H 9.75 C 9.8885,7 10,7.1115 10,7.25 V 8.75 C 10,8.8885 9.8885,9 9.75,9 H 8.25 C 8.1115,9 8,8.8885 8,8.75 V 7.25 C 8,7.1115 8.1115,7 8.25,7 Z M 11.25,7 H 12.75 C 12.889,7 13,7.1115 13,7.25 V 8.75 C 13,8.8885 12.889,9 12.75,9 H 11.25 C 11.112,9 11,8.8885 11,8.75 V 7.25 C 11,7.1115 11.112,7 11.25,7 Z M 4.25,10 H 10.75 C 10.889,10 11,10.112 11,10.25 V 11.75 C 11,11.889 10.889,12 10.75,12 H 4.25 C 4.1115,12 4,11.889 4,11.75 V 10.25 C 4,10.112 4.1115,10 4.25,10 Z"/>
 </g>
</svg>
